<?xml version="1.0" encoding="UTF-8" standalone="no"?>
<!DOCTYPE svg PUBLIC "-//W3C//DTD SVG 1.1//EN"
 "http://www.w3.org/Graphics/SVG/1.1/DTD/svg11.dtd">
<!-- Generated by graphviz version 2.43.0 (0)
 -->
<!-- Title: utility/source/currying.tpp Pages: 1 -->
<svg width="662pt" height="159pt"
 viewBox="0.00 0.00 662.00 159.00" xmlns="http://www.w3.org/2000/svg" xmlns:xlink="http://www.w3.org/1999/xlink">
<g id="graph0" class="graph" transform="scale(1 1) rotate(0) translate(4 155)">
<title>utility/source/currying.tpp</title>
<!-- Node1 -->
<g id="Node000001" class="node">
<title>Node1</title>
<g id="a_Node000001"><a xlink:title="The definitions (currying) in the utility module.">
<polygon fill="#999999" stroke="#666666" points="416.5,-151 274.5,-151 274.5,-132 416.5,-132 416.5,-151"/>
<text text-anchor="middle" x="345.5" y="-139" font-family="Helvetica,sans-Serif" font-size="10.00">utility/source/currying.tpp</text>
</a>
</g>
</g>
<!-- Node2 -->
<g id="Node000002" class="node">
<title>Node2</title>
<g id="a_Node000002"><a xlink:href="../../de/d2e/currying_8hpp.html" target="_top" xlink:title="The declarations (currying) in the utility module.">
<polygon fill="white" stroke="#666666" points="419,-96 272,-96 272,-77 419,-77 419,-96"/>
<text text-anchor="middle" x="345.5" y="-84" font-family="Helvetica,sans-Serif" font-size="10.00">utility/include/currying.hpp</text>
</a>
</g>
</g>
<!-- Node1&#45;&gt;Node2 -->
<g id="edge1_Node000001_Node000002" class="edge">
<title>Node1&#45;&gt;Node2</title>
<g id="a_edge1_Node000001_Node000002"><a xlink:title=" ">
<path fill="none" stroke="#63b8ff" d="M339.01,-121.66C338.41,-112.93 338.86,-102.99 340.37,-96.09"/>
<polygon fill="#63b8ff" stroke="#63b8ff" points="335.56,-122.29 340.33,-131.75 342.5,-121.38 335.56,-122.29"/>
</a>
</g>
</g>
<!-- Node2&#45;&gt;Node1 -->
<g id="edge6_Node000002_Node000001" class="edge">
<title>Node2&#45;&gt;Node1</title>
<g id="a_edge6_Node000002_Node000001"><a xlink:title=" ">
<path fill="none" stroke="#63b8ff" d="M351.98,-106.13C352.6,-114.85 352.16,-124.8 350.67,-131.75"/>
<polygon fill="#63b8ff" stroke="#63b8ff" points="355.43,-105.53 350.63,-96.09 348.49,-106.47 355.43,-105.53"/>
</a>
</g>
</g>
<!-- Node3 -->
<g id="Node000003" class="node">
<title>Node3</title>
<g id="a_Node000003"><a xlink:href="../../d8/d64/apply__algorithm_8cpp.html" target="_top" xlink:title="The definitions (apply_algorithm) in the application module.">
<polygon fill="white" stroke="#666666" points="155,-35.5 0,-35.5 0,-5.5 155,-5.5 155,-35.5"/>
<text text-anchor="start" x="8" y="-23.5" font-family="Helvetica,sans-Serif" font-size="10.00">application/example</text>
<text text-anchor="middle" x="77.5" y="-12.5" font-family="Helvetica,sans-Serif" font-size="10.00">/source/apply_algorithm.cpp</text>
</a>
</g>
</g>
<!-- Node2&#45;&gt;Node3 -->
<g id="edge2_Node000002_Node000003" class="edge">
<title>Node2&#45;&gt;Node3</title>
<g id="a_edge2_Node000002_Node000003"><a xlink:title=" ">
<path fill="none" stroke="#63b8ff" d="M299.83,-74.59C254.69,-63.81 185.44,-47.28 136.23,-35.52"/>
<polygon fill="#63b8ff" stroke="#63b8ff" points="299.09,-78.02 309.63,-76.94 300.72,-71.21 299.09,-78.02"/>
</a>
</g>
</g>
<!-- Node4 -->
<g id="Node000004" class="node">
<title>Node4</title>
<g id="a_Node000004"><a xlink:href="../../d1/d3d/apply__data__structure_8cpp.html" target="_top" xlink:title="The definitions (apply_data_structure) in the application module.">
<polygon fill="white" stroke="#666666" points="351.5,-35.5 173.5,-35.5 173.5,-5.5 351.5,-5.5 351.5,-35.5"/>
<text text-anchor="start" x="181.5" y="-23.5" font-family="Helvetica,sans-Serif" font-size="10.00">application/example</text>
<text text-anchor="middle" x="262.5" y="-12.5" font-family="Helvetica,sans-Serif" font-size="10.00">/source/apply_data_structure.cpp</text>
</a>
</g>
</g>
<!-- Node2&#45;&gt;Node4 -->
<g id="edge3_Node000002_Node000004" class="edge">
<title>Node2&#45;&gt;Node4</title>
<g id="a_edge3_Node000002_Node000004"><a xlink:title=" ">
<path fill="none" stroke="#63b8ff" d="M326.07,-70.52C312.4,-59.98 294.22,-45.96 280.81,-35.62"/>
<polygon fill="#63b8ff" stroke="#63b8ff" points="324.25,-73.53 334.31,-76.87 328.52,-67.99 324.25,-73.53"/>
</a>
</g>
</g>
<!-- Node5 -->
<g id="Node000005" class="node">
<title>Node5</title>
<g id="a_Node000005"><a xlink:href="../../de/d6b/apply__design__pattern_8cpp.html" target="_top" xlink:title="The definitions (apply_design_pattern) in the application module.">
<polygon fill="white" stroke="#666666" points="489,-41 370,-41 370,0 489,0 489,-41"/>
<text text-anchor="start" x="378" y="-29" font-family="Helvetica,sans-Serif" font-size="10.00">application/example</text>
<text text-anchor="start" x="378" y="-18" font-family="Helvetica,sans-Serif" font-size="10.00">/source/apply_design</text>
<text text-anchor="middle" x="429.5" y="-7" font-family="Helvetica,sans-Serif" font-size="10.00">_pattern.cpp</text>
</a>
</g>
</g>
<!-- Node2&#45;&gt;Node5 -->
<g id="edge4_Node000002_Node000005" class="edge">
<title>Node2&#45;&gt;Node5</title>
<g id="a_edge4_Node000002_Node000005"><a xlink:title=" ">
<path fill="none" stroke="#63b8ff" d="M364.96,-70.67C376.54,-61.85 391.37,-50.55 403.89,-41.01"/>
<polygon fill="#63b8ff" stroke="#63b8ff" points="362.66,-68.02 356.83,-76.87 366.9,-73.59 362.66,-68.02"/>
</a>
</g>
</g>
<!-- Node6 -->
<g id="Node000006" class="node">
<title>Node6</title>
<g id="a_Node000006"><a xlink:href="../../d1/dee/apply__numeric_8cpp.html" target="_top" xlink:title="The definitions (apply_numeric) in the application module.">
<polygon fill="white" stroke="#666666" points="654,-35.5 507,-35.5 507,-5.5 654,-5.5 654,-35.5"/>
<text text-anchor="start" x="515" y="-23.5" font-family="Helvetica,sans-Serif" font-size="10.00">application/example</text>
<text text-anchor="middle" x="580.5" y="-12.5" font-family="Helvetica,sans-Serif" font-size="10.00">/source/apply_numeric.cpp</text>
</a>
</g>
</g>
<!-- Node2&#45;&gt;Node6 -->
<g id="edge5_Node000002_Node000006" class="edge">
<title>Node2&#45;&gt;Node6</title>
<g id="a_edge5_Node000002_Node000006"><a xlink:title=" ">
<path fill="none" stroke="#63b8ff" d="M387.03,-74.19C426.53,-63.43 486.08,-47.22 528.67,-35.62"/>
<polygon fill="#63b8ff" stroke="#63b8ff" points="385.92,-70.86 377.19,-76.87 387.76,-77.62 385.92,-70.86"/>
</a>
</g>
</g>
</g>
</svg>
