<?xml version="1.0" encoding="UTF-8" standalone="no"?>
<!DOCTYPE svg PUBLIC "-//W3C//DTD SVG 1.1//EN"
 "http://www.w3.org/Graphics/SVG/1.1/DTD/svg11.dtd">
<!-- Generated by graphviz version 2.43.0 (0)
 -->
<!-- Title: application::config::getDefaultConfiguration Pages: 1 -->
<svg width="501pt" height="86pt"
 viewBox="0.00 0.00 501.00 86.00" xmlns="http://www.w3.org/2000/svg" xmlns:xlink="http://www.w3.org/1999/xlink">
<g id="graph0" class="graph" transform="scale(1 1) rotate(0) translate(4 82)">
<title>application::config::getDefaultConfiguration</title>
<!-- Node1 -->
<g id="Node000001" class="node">
<title>Node1</title>
<g id="a_Node000001"><a xlink:title="Get the default configuration.">
<polygon fill="#999999" stroke="#666666" points="493,-54 353,-54 353,-24 493,-24 493,-54"/>
<text text-anchor="start" x="361" y="-42" font-family="Helvetica,sans-Serif" font-size="10.00">application::config</text>
<text text-anchor="middle" x="423" y="-31" font-family="Helvetica,sans-Serif" font-size="10.00">::getDefaultConfiguration</text>
</a>
</g>
</g>
<!-- Node2 -->
<g id="Node000002" class="node">
<title>Node2</title>
<g id="a_Node000002"><a xlink:href="../../de/dd7/classapplication_1_1command_1_1Command.html#a0fa61277c2d7568d268039dcbded51e2" target="_top" xlink:title="Dump configuration.">
<polygon fill="white" stroke="#666666" points="317,-78 145,-78 145,-48 317,-48 317,-78"/>
<text text-anchor="start" x="153" y="-66" font-family="Helvetica,sans-Serif" font-size="10.00">application::command</text>
<text text-anchor="middle" x="231" y="-55" font-family="Helvetica,sans-Serif" font-size="10.00">::Command::dumpConfiguration</text>
</a>
</g>
</g>
<!-- Node1&#45;&gt;Node2 -->
<g id="edge1_Node000001_Node000002" class="edge">
<title>Node1&#45;&gt;Node2</title>
<g id="a_edge1_Node000001_Node000002"><a xlink:title=" ">
<path fill="none" stroke="#63b8ff" d="M342.72,-49.01C334.31,-50.08 325.74,-51.16 317.27,-52.23"/>
<polygon fill="#63b8ff" stroke="#63b8ff" points="343.39,-52.46 352.87,-47.73 342.51,-45.51 343.39,-52.46"/>
</a>
</g>
</g>
<!-- Node3 -->
<g id="Node000003" class="node">
<title>Node3</title>
<g id="a_Node000003"><a xlink:href="../../d6/dfd/namespaceapplication_1_1config.html#a1a69875dde8b257436361c63b3ba3ea7" target="_top" xlink:title="Initialize the configuration.">
<polygon fill="white" stroke="#666666" points="296,-30 166,-30 166,0 296,0 296,-30"/>
<text text-anchor="start" x="174" y="-18" font-family="Helvetica,sans-Serif" font-size="10.00">application::config</text>
<text text-anchor="middle" x="231" y="-7" font-family="Helvetica,sans-Serif" font-size="10.00">::initializeConfiguration</text>
</a>
</g>
</g>
<!-- Node1&#45;&gt;Node3 -->
<g id="edge2_Node000001_Node000003" class="edge">
<title>Node1&#45;&gt;Node3</title>
<g id="a_edge2_Node000001_Node000003"><a xlink:title=" ">
<path fill="none" stroke="#63b8ff" d="M342.74,-28.99C327.17,-27.02 311.02,-24.98 296.03,-23.09"/>
<polygon fill="#63b8ff" stroke="#63b8ff" points="342.51,-32.49 352.87,-30.27 343.39,-25.54 342.51,-32.49"/>
</a>
</g>
</g>
<!-- Node4 -->
<g id="Node000004" class="node">
<title>Node4</title>
<g id="a_Node000004"><a xlink:href="../../d6/dfd/namespaceapplication_1_1config.html#adae679c793bc4461b56356a6d35fead4" target="_top" xlink:title="Load the configuration.">
<polygon fill="white" stroke="#666666" points="109,-30 0,-30 0,0 109,0 109,-30"/>
<text text-anchor="start" x="8" y="-18" font-family="Helvetica,sans-Serif" font-size="10.00">application::config</text>
<text text-anchor="middle" x="54.5" y="-7" font-family="Helvetica,sans-Serif" font-size="10.00">::loadConfiguration</text>
</a>
</g>
</g>
<!-- Node3&#45;&gt;Node4 -->
<g id="edge3_Node000003_Node000004" class="edge">
<title>Node3&#45;&gt;Node4</title>
<g id="a_edge3_Node000003_Node000004"><a xlink:title=" ">
<path fill="none" stroke="#63b8ff" d="M155.4,-15C139.85,-15 123.76,-15 109.14,-15"/>
<polygon fill="#63b8ff" stroke="#63b8ff" points="155.52,-18.5 165.52,-15 155.52,-11.5 155.52,-18.5"/>
</a>
</g>
</g>
</g>
</svg>
