<?xml version="1.0" encoding="UTF-8" standalone="no"?>
<!DOCTYPE svg PUBLIC "-//W3C//DTD SVG 1.1//EN"
 "http://www.w3.org/Graphics/SVG/1.1/DTD/svg11.dtd">
<!-- Generated by graphviz version 2.43.0 (0)
 -->
<!-- Title: numeric::arithmetic::Arithmetic::multiplication Pages: 1 -->
<svg width="361pt" height="86pt"
 viewBox="0.00 0.00 361.00 86.00" xmlns="http://www.w3.org/2000/svg" xmlns:xlink="http://www.w3.org/1999/xlink">
<g id="graph0" class="graph" transform="scale(1 1) rotate(0) translate(4 82)">
<title>numeric::arithmetic::Arithmetic::multiplication</title>
<!-- Node1 -->
<g id="Node000001" class="node">
<title>Node1</title>
<g id="a_Node000001"><a xlink:title="Multiplication.">
<polygon fill="#999999" stroke="#666666" points="353,-48.5 206,-48.5 206,-18.5 353,-18.5 353,-48.5"/>
<text text-anchor="start" x="214" y="-36.5" font-family="Helvetica,sans-Serif" font-size="10.00">numeric::arithmetic</text>
<text text-anchor="middle" x="279.5" y="-25.5" font-family="Helvetica,sans-Serif" font-size="10.00">::Arithmetic::multiplication</text>
</a>
</g>
</g>
<!-- Node2 -->
<g id="Node000002" class="node">
<title>Node2</title>
<g id="a_Node000002"><a xlink:href="../../db/d0f/classapplication_1_1app__num_1_1arithmetic_1_1ArithmeticSolution.html#ae5e8086548ea01c34ae11168a51c1735" target="_top" xlink:title="The multiplication method.">
<polygon fill="white" stroke="#666666" points="170,-78 0,-78 0,-37 170,-37 170,-78"/>
<text text-anchor="start" x="8" y="-66" font-family="Helvetica,sans-Serif" font-size="10.00">application::app_num</text>
<text text-anchor="start" x="8" y="-55" font-family="Helvetica,sans-Serif" font-size="10.00">::arithmetic::ArithmeticSolution</text>
<text text-anchor="middle" x="85" y="-44" font-family="Helvetica,sans-Serif" font-size="10.00">::multiplicationMethod</text>
</a>
</g>
</g>
<!-- Node1&#45;&gt;Node2 -->
<g id="edge1_Node000001_Node000002" class="edge">
<title>Node1&#45;&gt;Node2</title>
<g id="a_edge1_Node000001_Node000002"><a xlink:title=" ">
<path fill="none" stroke="#63b8ff" d="M196,-43.79C187.42,-44.86 178.68,-45.94 170.08,-47.02"/>
<polygon fill="#63b8ff" stroke="#63b8ff" points="196.51,-47.25 206,-42.54 195.64,-40.3 196.51,-47.25"/>
</a>
</g>
</g>
<!-- Node3 -->
<g id="Node000003" class="node">
<title>Node3</title>
<g id="a_Node000003"><a xlink:href="../../da/df6/namespacetest_1_1tst__num.html#a9e43394fd616e8639fdb14125b44d02f" target="_top" xlink:title="Test for the multiplication method in the solution of arithmetic.">
<polygon fill="white" stroke="#666666" points="146,-19 24,-19 24,0 146,0 146,-19"/>
<text text-anchor="middle" x="85" y="-7" font-family="Helvetica,sans-Serif" font-size="10.00">test::tst_num::TEST_F</text>
</a>
</g>
</g>
<!-- Node1&#45;&gt;Node3 -->
<g id="edge2_Node000001_Node000003" class="edge">
<title>Node1&#45;&gt;Node3</title>
<g id="a_edge2_Node000001_Node000003"><a xlink:title=" ">
<path fill="none" stroke="#63b8ff" d="M195.72,-23.18C179.08,-21.1 161.89,-18.96 146.19,-17"/>
<polygon fill="#63b8ff" stroke="#63b8ff" points="195.64,-26.7 206,-24.46 196.51,-19.75 195.64,-26.7"/>
</a>
</g>
</g>
</g>
</svg>
