<?xml version="1.0" encoding="UTF-8" standalone="no"?>
<!DOCTYPE svg PUBLIC "-//W3C//DTD SVG 1.1//EN"
 "http://www.w3.org/Graphics/SVG/1.1/DTD/svg11.dtd">
<!-- Generated by graphviz version 2.43.0 (0)
 -->
<!-- Title: numeric::arithmetic::Arithmetic::bitAdd Pages: 1 -->
<svg width="716pt" height="327pt"
 viewBox="0.00 0.00 716.00 327.00" xmlns="http://www.w3.org/2000/svg" xmlns:xlink="http://www.w3.org/1999/xlink">
<g id="graph0" class="graph" transform="scale(1 1) rotate(0) translate(4 323)">
<title>numeric::arithmetic::Arithmetic::bitAdd</title>
<!-- Node1 -->
<g id="Node000001" class="node">
<title>Node1</title>
<g id="a_Node000001"><a xlink:title="Bitwise operation for add.">
<polygon fill="#999999" stroke="#666666" points="708,-192.5 595,-192.5 595,-162.5 708,-162.5 708,-192.5"/>
<text text-anchor="start" x="603" y="-180.5" font-family="Helvetica,sans-Serif" font-size="10.00">numeric::arithmetic</text>
<text text-anchor="middle" x="651.5" y="-169.5" font-family="Helvetica,sans-Serif" font-size="10.00">::Arithmetic::bitAdd</text>
</a>
</g>
</g>
<!-- Node1&#45;&gt;Node1 -->
<g id="edge4_Node000001_Node000001" class="edge">
<title>Node1&#45;&gt;Node1</title>
<g id="a_edge4_Node000001_Node000001"><a xlink:title=" ">
<path fill="none" stroke="#63b8ff" d="M680.56,-203.1C676.59,-207.47 666.9,-210.5 651.5,-210.5 625.56,-210.5 615.84,-201.91 622.32,-192.78"/>
<polygon fill="#63b8ff" stroke="#63b8ff" points="684.06,-202.82 680.68,-192.78 677.06,-202.73 684.06,-202.82"/>
</a>
</g>
</g>
<!-- Node2 -->
<g id="Node000002" class="node">
<title>Node2</title>
<g id="a_Node000002"><a xlink:href="../../d8/d47/classnumeric_1_1arithmetic_1_1Arithmetic.html#a55c58ea6f2ae3e6bf16fee6d3580b460" target="_top" xlink:title="Addition.">
<polygon fill="white" stroke="#666666" points="545,-265.5 426,-265.5 426,-235.5 545,-235.5 545,-265.5"/>
<text text-anchor="start" x="434" y="-253.5" font-family="Helvetica,sans-Serif" font-size="10.00">numeric::arithmetic</text>
<text text-anchor="middle" x="485.5" y="-242.5" font-family="Helvetica,sans-Serif" font-size="10.00">::Arithmetic::addition</text>
</a>
</g>
</g>
<!-- Node1&#45;&gt;Node2 -->
<g id="edge1_Node000001_Node000002" class="edge">
<title>Node1&#45;&gt;Node2</title>
<g id="a_edge1_Node000001_Node000002"><a xlink:title=" ">
<path fill="none" stroke="#63b8ff" d="M616.12,-197.72C599.25,-207.18 578.42,-218.16 559,-226.5 551.57,-229.69 543.56,-232.72 535.68,-235.49"/>
<polygon fill="#63b8ff" stroke="#63b8ff" points="618.08,-200.63 625.05,-192.66 614.63,-194.55 618.08,-200.63"/>
</a>
</g>
</g>
<!-- Node5 -->
<g id="Node000005" class="node">
<title>Node5</title>
<g id="a_Node000005"><a xlink:href="../../d8/d47/classnumeric_1_1arithmetic_1_1Arithmetic.html#ad599b61d2bfa8e9c2adb6da7c48a746f" target="_top" xlink:title="Bitwise operation for subtract.">
<polygon fill="white" stroke="#666666" points="542,-217.5 429,-217.5 429,-187.5 542,-187.5 542,-217.5"/>
<text text-anchor="start" x="437" y="-205.5" font-family="Helvetica,sans-Serif" font-size="10.00">numeric::arithmetic</text>
<text text-anchor="middle" x="485.5" y="-194.5" font-family="Helvetica,sans-Serif" font-size="10.00">::Arithmetic::bitSub</text>
</a>
</g>
</g>
<!-- Node1&#45;&gt;Node5 -->
<g id="edge5_Node000001_Node000005" class="edge">
<title>Node1&#45;&gt;Node5</title>
<g id="a_edge5_Node000001_Node000005"><a xlink:title=" ">
<path fill="none" stroke="#63b8ff" d="M584.84,-187.51C570.73,-189.66 555.94,-191.91 542.24,-194"/>
<polygon fill="#63b8ff" stroke="#63b8ff" points="585.62,-190.93 594.98,-185.96 584.56,-184.01 585.62,-190.93"/>
</a>
</g>
</g>
<!-- Node9 -->
<g id="Node000009" class="node">
<title>Node9</title>
<g id="a_Node000009"><a xlink:href="../../d8/d47/classnumeric_1_1arithmetic_1_1Arithmetic.html#a869d4dbbc1c3191e1d55cf8f18ac91dd" target="_top" xlink:title="Multiplication.">
<polygon fill="white" stroke="#666666" points="559,-168.5 412,-168.5 412,-138.5 559,-138.5 559,-168.5"/>
<text text-anchor="start" x="420" y="-156.5" font-family="Helvetica,sans-Serif" font-size="10.00">numeric::arithmetic</text>
<text text-anchor="middle" x="485.5" y="-145.5" font-family="Helvetica,sans-Serif" font-size="10.00">::Arithmetic::multiplication</text>
</a>
</g>
</g>
<!-- Node1&#45;&gt;Node9 -->
<g id="edge9_Node000001_Node000009" class="edge">
<title>Node1&#45;&gt;Node9</title>
<g id="a_edge9_Node000001_Node000009"><a xlink:title=" ">
<path fill="none" stroke="#63b8ff" d="M584.81,-167.89C576.36,-166.65 567.67,-165.38 559.12,-164.13"/>
<polygon fill="#63b8ff" stroke="#63b8ff" points="584.58,-171.39 594.98,-169.37 585.59,-164.46 584.58,-171.39"/>
</a>
</g>
</g>
<!-- Node12 -->
<g id="Node000012" class="node">
<title>Node12</title>
<g id="a_Node000012"><a xlink:href="../../d8/d47/classnumeric_1_1arithmetic_1_1Arithmetic.html#a27655ff1b8e4deeda75c987338352c98" target="_top" xlink:title="Subtraction.">
<polygon fill="white" stroke="#666666" points="552.5,-72.5 418.5,-72.5 418.5,-42.5 552.5,-42.5 552.5,-72.5"/>
<text text-anchor="start" x="426.5" y="-60.5" font-family="Helvetica,sans-Serif" font-size="10.00">numeric::arithmetic</text>
<text text-anchor="middle" x="485.5" y="-49.5" font-family="Helvetica,sans-Serif" font-size="10.00">::Arithmetic::subtraction</text>
</a>
</g>
</g>
<!-- Node1&#45;&gt;Node12 -->
<g id="edge12_Node000001_Node000012" class="edge">
<title>Node1&#45;&gt;Node12</title>
<g id="a_edge12_Node000001_Node000012"><a xlink:title=" ">
<path fill="none" stroke="#63b8ff" d="M621.43,-156.23C588.59,-132.2 535.97,-93.7 507.1,-72.57"/>
<polygon fill="#63b8ff" stroke="#63b8ff" points="619.59,-159.22 629.73,-162.3 623.73,-153.57 619.59,-159.22"/>
</a>
</g>
</g>
<!-- Node3 -->
<g id="Node000003" class="node">
<title>Node3</title>
<g id="a_Node000003"><a xlink:href="../../db/d0f/classapplication_1_1app__num_1_1arithmetic_1_1ArithmeticSolution.html#aeba5ee527dc0a0b46e772eea7b29234d" target="_top" xlink:title="The addition method.">
<polygon fill="white" stroke="#666666" points="376,-319 206,-319 206,-278 376,-278 376,-319"/>
<text text-anchor="start" x="214" y="-307" font-family="Helvetica,sans-Serif" font-size="10.00">application::app_num</text>
<text text-anchor="start" x="214" y="-296" font-family="Helvetica,sans-Serif" font-size="10.00">::arithmetic::ArithmeticSolution</text>
<text text-anchor="middle" x="291" y="-285" font-family="Helvetica,sans-Serif" font-size="10.00">::additionMethod</text>
</a>
</g>
</g>
<!-- Node2&#45;&gt;Node3 -->
<g id="edge2_Node000002_Node000003" class="edge">
<title>Node2&#45;&gt;Node3</title>
<g id="a_edge2_Node000002_Node000003"><a xlink:title=" ">
<path fill="none" stroke="#63b8ff" d="M416.25,-267.52C402.7,-270.9 388.34,-274.48 374.38,-277.96"/>
<polygon fill="#63b8ff" stroke="#63b8ff" points="417.1,-270.91 425.96,-265.1 415.41,-264.12 417.1,-270.91"/>
</a>
</g>
</g>
<!-- Node4 -->
<g id="Node000004" class="node">
<title>Node4</title>
<g id="a_Node000004"><a xlink:href="../../da/df6/namespacetest_1_1tst__num.html#ace534d30fe3c2a4e59d280d6f6ae0460" target="_top" xlink:title="Test for the addition method in the solution of arithmetic.">
<polygon fill="white" stroke="#666666" points="352,-260 230,-260 230,-241 352,-241 352,-260"/>
<text text-anchor="middle" x="291" y="-248" font-family="Helvetica,sans-Serif" font-size="10.00">test::tst_num::TEST_F</text>
</a>
</g>
</g>
<!-- Node2&#45;&gt;Node4 -->
<g id="edge3_Node000002_Node000004" class="edge">
<title>Node2&#45;&gt;Node4</title>
<g id="a_edge3_Node000002_Node000004"><a xlink:title=" ">
<path fill="none" stroke="#63b8ff" d="M415.92,-250.5C395.13,-250.5 372.46,-250.5 352.26,-250.5"/>
<polygon fill="#63b8ff" stroke="#63b8ff" points="415.96,-254 425.96,-250.5 415.96,-247 415.96,-254"/>
</a>
</g>
</g>
<!-- Node6 -->
<g id="Node000006" class="node">
<title>Node6</title>
<g id="a_Node000006"><a xlink:href="../../d8/d47/classnumeric_1_1arithmetic_1_1Arithmetic.html#a35f7affc32ebfbb30f6d5f98b5f0f5e2" target="_top" xlink:title="Division.">
<polygon fill="white" stroke="#666666" points="350,-222.5 232,-222.5 232,-192.5 350,-192.5 350,-222.5"/>
<text text-anchor="start" x="240" y="-210.5" font-family="Helvetica,sans-Serif" font-size="10.00">numeric::arithmetic</text>
<text text-anchor="middle" x="291" y="-199.5" font-family="Helvetica,sans-Serif" font-size="10.00">::Arithmetic::division</text>
</a>
</g>
</g>
<!-- Node5&#45;&gt;Node6 -->
<g id="edge6_Node000005_Node000006" class="edge">
<title>Node5&#45;&gt;Node6</title>
<g id="a_edge6_Node000005_Node000006"><a xlink:title=" ">
<path fill="none" stroke="#63b8ff" d="M418.79,-204.21C396.54,-204.78 371.86,-205.43 350.23,-205.99"/>
<polygon fill="#63b8ff" stroke="#63b8ff" points="418.92,-207.7 428.82,-203.95 418.73,-200.71 418.92,-207.7"/>
</a>
</g>
</g>
<!-- Node7 -->
<g id="Node000007" class="node">
<title>Node7</title>
<g id="a_Node000007"><a xlink:href="../../db/d0f/classapplication_1_1app__num_1_1arithmetic_1_1ArithmeticSolution.html#a82888741832d6fc23881f508373378d3" target="_top" xlink:title="The division method.">
<polygon fill="white" stroke="#666666" points="170,-252 0,-252 0,-211 170,-211 170,-252"/>
<text text-anchor="start" x="8" y="-240" font-family="Helvetica,sans-Serif" font-size="10.00">application::app_num</text>
<text text-anchor="start" x="8" y="-229" font-family="Helvetica,sans-Serif" font-size="10.00">::arithmetic::ArithmeticSolution</text>
<text text-anchor="middle" x="85" y="-218" font-family="Helvetica,sans-Serif" font-size="10.00">::divisionMethod</text>
</a>
</g>
</g>
<!-- Node6&#45;&gt;Node7 -->
<g id="edge7_Node000006_Node000007" class="edge">
<title>Node6&#45;&gt;Node7</title>
<g id="a_edge7_Node000006_Node000007"><a xlink:title=" ">
<path fill="none" stroke="#63b8ff" d="M221.71,-215.53C205.17,-217.48 187.3,-219.58 170.13,-221.6"/>
<polygon fill="#63b8ff" stroke="#63b8ff" points="222.29,-218.99 231.81,-214.35 221.47,-212.04 222.29,-218.99"/>
</a>
</g>
</g>
<!-- Node8 -->
<g id="Node000008" class="node">
<title>Node8</title>
<g id="a_Node000008"><a xlink:href="../../da/df6/namespacetest_1_1tst__num.html#a26d8fe33b5871e04098cc3160f735601" target="_top" xlink:title="Test for the division method in the solution of arithmetic.">
<polygon fill="white" stroke="#666666" points="146,-193 24,-193 24,-174 146,-174 146,-193"/>
<text text-anchor="middle" x="85" y="-181" font-family="Helvetica,sans-Serif" font-size="10.00">test::tst_num::TEST_F</text>
</a>
</g>
</g>
<!-- Node6&#45;&gt;Node8 -->
<g id="edge8_Node000006_Node000008" class="edge">
<title>Node6&#45;&gt;Node8</title>
<g id="a_edge8_Node000006_Node000008"><a xlink:title=" ">
<path fill="none" stroke="#63b8ff" d="M221.86,-199.48C197.32,-196.6 169.83,-193.36 146.04,-190.56"/>
<polygon fill="#63b8ff" stroke="#63b8ff" points="221.47,-202.96 231.81,-200.65 222.29,-196.01 221.47,-202.96"/>
</a>
</g>
</g>
<!-- Node10 -->
<g id="Node000010" class="node">
<title>Node10</title>
<g id="a_Node000010"><a xlink:href="../../db/d0f/classapplication_1_1app__num_1_1arithmetic_1_1ArithmeticSolution.html#ae5e8086548ea01c34ae11168a51c1735" target="_top" xlink:title="The multiplication method.">
<polygon fill="white" stroke="#666666" points="376,-174 206,-174 206,-133 376,-133 376,-174"/>
<text text-anchor="start" x="214" y="-162" font-family="Helvetica,sans-Serif" font-size="10.00">application::app_num</text>
<text text-anchor="start" x="214" y="-151" font-family="Helvetica,sans-Serif" font-size="10.00">::arithmetic::ArithmeticSolution</text>
<text text-anchor="middle" x="291" y="-140" font-family="Helvetica,sans-Serif" font-size="10.00">::multiplicationMethod</text>
</a>
</g>
</g>
<!-- Node9&#45;&gt;Node10 -->
<g id="edge10_Node000009_Node000010" class="edge">
<title>Node9&#45;&gt;Node10</title>
<g id="a_edge10_Node000009_Node000010"><a xlink:title=" ">
<path fill="none" stroke="#63b8ff" d="M401.72,-153.5C393.23,-153.5 384.59,-153.5 376.08,-153.5"/>
<polygon fill="#63b8ff" stroke="#63b8ff" points="402,-157 412,-153.5 402,-150 402,-157"/>
</a>
</g>
</g>
<!-- Node11 -->
<g id="Node000011" class="node">
<title>Node11</title>
<g id="a_Node000011"><a xlink:href="../../da/df6/namespacetest_1_1tst__num.html#a9e43394fd616e8639fdb14125b44d02f" target="_top" xlink:title="Test for the multiplication method in the solution of arithmetic.">
<polygon fill="white" stroke="#666666" points="352,-115 230,-115 230,-96 352,-96 352,-115"/>
<text text-anchor="middle" x="291" y="-103" font-family="Helvetica,sans-Serif" font-size="10.00">test::tst_num::TEST_F</text>
</a>
</g>
</g>
<!-- Node9&#45;&gt;Node11 -->
<g id="edge11_Node000009_Node000011" class="edge">
<title>Node9&#45;&gt;Node11</title>
<g id="a_edge11_Node000009_Node000011"><a xlink:title=" ">
<path fill="none" stroke="#63b8ff" d="M420.1,-135.85C405.62,-132 390.3,-128.03 376,-124.5 362.93,-121.28 348.67,-117.97 335.67,-115.04"/>
<polygon fill="#63b8ff" stroke="#63b8ff" points="419.4,-139.28 429.97,-138.48 421.21,-132.52 419.4,-139.28"/>
</a>
</g>
</g>
<!-- Node13 -->
<g id="Node000013" class="node">
<title>Node13</title>
<g id="a_Node000013"><a xlink:href="../../db/d0f/classapplication_1_1app__num_1_1arithmetic_1_1ArithmeticSolution.html#a04f0031c4d3c54c8b6ebaa1c4233b15a" target="_top" xlink:title="The subtraction method.">
<polygon fill="white" stroke="#666666" points="376,-78 206,-78 206,-37 376,-37 376,-78"/>
<text text-anchor="start" x="214" y="-66" font-family="Helvetica,sans-Serif" font-size="10.00">application::app_num</text>
<text text-anchor="start" x="214" y="-55" font-family="Helvetica,sans-Serif" font-size="10.00">::arithmetic::ArithmeticSolution</text>
<text text-anchor="middle" x="291" y="-44" font-family="Helvetica,sans-Serif" font-size="10.00">::subtractionMethod</text>
</a>
</g>
</g>
<!-- Node12&#45;&gt;Node13 -->
<g id="edge13_Node000012_Node000013" class="edge">
<title>Node12&#45;&gt;Node13</title>
<g id="a_edge13_Node000012_Node000013"><a xlink:title=" ">
<path fill="none" stroke="#63b8ff" d="M408.24,-57.5C397.66,-57.5 386.75,-57.5 376.05,-57.5"/>
<polygon fill="#63b8ff" stroke="#63b8ff" points="408.25,-61 418.25,-57.5 408.25,-54 408.25,-61"/>
</a>
</g>
</g>
<!-- Node14 -->
<g id="Node000014" class="node">
<title>Node14</title>
<g id="a_Node000014"><a xlink:href="../../da/df6/namespacetest_1_1tst__num.html#a122086ce51f3643293f6402b2c97ad96" target="_top" xlink:title="Test for the subtraction method in the solution of arithmetic.">
<polygon fill="white" stroke="#666666" points="352,-19 230,-19 230,0 352,0 352,-19"/>
<text text-anchor="middle" x="291" y="-7" font-family="Helvetica,sans-Serif" font-size="10.00">test::tst_num::TEST_F</text>
</a>
</g>
</g>
<!-- Node12&#45;&gt;Node14 -->
<g id="edge14_Node000012_Node000014" class="edge">
<title>Node12&#45;&gt;Node14</title>
<g id="a_edge14_Node000012_Node000014"><a xlink:title=" ">
<path fill="none" stroke="#63b8ff" d="M422.69,-39.73C407.47,-35.55 391.18,-31.22 376,-27.5 363.98,-24.55 350.92,-21.62 338.76,-19.01"/>
<polygon fill="#63b8ff" stroke="#63b8ff" points="421.94,-43.16 432.51,-42.46 423.81,-36.41 421.94,-43.16"/>
</a>
</g>
</g>
</g>
</svg>
