<?xml version="1.0" encoding="UTF-8" standalone="no"?>
<!DOCTYPE svg PUBLIC "-//W3C//DTD SVG 1.1//EN"
 "http://www.w3.org/Graphics/SVG/1.1/DTD/svg11.dtd">
<!-- Generated by graphviz version 2.43.0 (0)
 -->
<!-- Title: numeric::arithmetic::Arithmetic::division Pages: 1 -->
<svg width="332pt" height="86pt"
 viewBox="0.00 0.00 332.00 86.00" xmlns="http://www.w3.org/2000/svg" xmlns:xlink="http://www.w3.org/1999/xlink">
<g id="graph0" class="graph" transform="scale(1 1) rotate(0) translate(4 82)">
<title>numeric::arithmetic::Arithmetic::division</title>
<!-- Node1 -->
<g id="Node000001" class="node">
<title>Node1</title>
<g id="a_Node000001"><a xlink:title="Division.">
<polygon fill="#999999" stroke="#666666" points="324,-48.5 206,-48.5 206,-18.5 324,-18.5 324,-48.5"/>
<text text-anchor="start" x="214" y="-36.5" font-family="Helvetica,sans-Serif" font-size="10.00">numeric::arithmetic</text>
<text text-anchor="middle" x="265" y="-25.5" font-family="Helvetica,sans-Serif" font-size="10.00">::Arithmetic::division</text>
</a>
</g>
</g>
<!-- Node2 -->
<g id="Node000002" class="node">
<title>Node2</title>
<g id="a_Node000002"><a xlink:href="../../db/d0f/classapplication_1_1app__num_1_1arithmetic_1_1ArithmeticSolution.html#a82888741832d6fc23881f508373378d3" target="_top" xlink:title="The division method.">
<polygon fill="white" stroke="#666666" points="170,-78 0,-78 0,-37 170,-37 170,-78"/>
<text text-anchor="start" x="8" y="-66" font-family="Helvetica,sans-Serif" font-size="10.00">application::app_num</text>
<text text-anchor="start" x="8" y="-55" font-family="Helvetica,sans-Serif" font-size="10.00">::arithmetic::ArithmeticSolution</text>
<text text-anchor="middle" x="85" y="-44" font-family="Helvetica,sans-Serif" font-size="10.00">::divisionMethod</text>
</a>
</g>
</g>
<!-- Node1&#45;&gt;Node2 -->
<g id="edge1_Node000001_Node000002" class="edge">
<title>Node1&#45;&gt;Node2</title>
<g id="a_edge1_Node000001_Node000002"><a xlink:title=" ">
<path fill="none" stroke="#63b8ff" d="M195.7,-42.71C187.37,-43.83 178.78,-44.99 170.24,-46.14"/>
<polygon fill="#63b8ff" stroke="#63b8ff" points="196.27,-46.16 205.72,-41.36 195.34,-39.23 196.27,-46.16"/>
</a>
</g>
</g>
<!-- Node3 -->
<g id="Node000003" class="node">
<title>Node3</title>
<g id="a_Node000003"><a xlink:href="../../da/df6/namespacetest_1_1tst__num.html#a26d8fe33b5871e04098cc3160f735601" target="_top" xlink:title="Test for the division method in the solution of arithmetic.">
<polygon fill="white" stroke="#666666" points="146,-19 24,-19 24,0 146,0 146,-19"/>
<text text-anchor="middle" x="85" y="-7" font-family="Helvetica,sans-Serif" font-size="10.00">test::tst_num::TEST_F</text>
</a>
</g>
</g>
<!-- Node1&#45;&gt;Node3 -->
<g id="edge2_Node000001_Node000003" class="edge">
<title>Node1&#45;&gt;Node3</title>
<g id="a_edge2_Node000001_Node000003"><a xlink:title=" ">
<path fill="none" stroke="#63b8ff" d="M195.72,-24.29C179.42,-22.1 162.15,-19.77 146.25,-17.62"/>
<polygon fill="#63b8ff" stroke="#63b8ff" points="195.34,-27.77 205.72,-25.64 196.27,-20.84 195.34,-27.77"/>
</a>
</g>
</g>
</g>
</svg>
