<?xml version="1.0" encoding="UTF-8" standalone="no"?>
<!DOCTYPE svg PUBLIC "-//W3C//DTD SVG 1.1//EN"
 "http://www.w3.org/Graphics/SVG/1.1/DTD/svg11.dtd">
<!-- Generated by graphviz version 2.43.0 (0)
 -->
<!-- Title: numeric::arithmetic::Arithmetic::subtraction Pages: 1 -->
<svg width="348pt" height="86pt"
 viewBox="0.00 0.00 348.00 86.00" xmlns="http://www.w3.org/2000/svg" xmlns:xlink="http://www.w3.org/1999/xlink">
<g id="graph0" class="graph" transform="scale(1 1) rotate(0) translate(4 82)">
<title>numeric::arithmetic::Arithmetic::subtraction</title>
<!-- Node1 -->
<g id="Node000001" class="node">
<title>Node1</title>
<g id="a_Node000001"><a xlink:title="Subtraction.">
<polygon fill="#999999" stroke="#666666" points="340,-48.5 206,-48.5 206,-18.5 340,-18.5 340,-48.5"/>
<text text-anchor="start" x="214" y="-36.5" font-family="Helvetica,sans-Serif" font-size="10.00">numeric::arithmetic</text>
<text text-anchor="middle" x="273" y="-25.5" font-family="Helvetica,sans-Serif" font-size="10.00">::Arithmetic::subtraction</text>
</a>
</g>
</g>
<!-- Node2 -->
<g id="Node000002" class="node">
<title>Node2</title>
<g id="a_Node000002"><a xlink:href="../../db/d0f/classapplication_1_1app__num_1_1arithmetic_1_1ArithmeticSolution.html#a04f0031c4d3c54c8b6ebaa1c4233b15a" target="_top" xlink:title="The subtraction method.">
<polygon fill="white" stroke="#666666" points="170,-78 0,-78 0,-37 170,-37 170,-78"/>
<text text-anchor="start" x="8" y="-66" font-family="Helvetica,sans-Serif" font-size="10.00">application::app_num</text>
<text text-anchor="start" x="8" y="-55" font-family="Helvetica,sans-Serif" font-size="10.00">::arithmetic::ArithmeticSolution</text>
<text text-anchor="middle" x="85" y="-44" font-family="Helvetica,sans-Serif" font-size="10.00">::subtractionMethod</text>
</a>
</g>
</g>
<!-- Node1&#45;&gt;Node2 -->
<g id="edge1_Node000001_Node000002" class="edge">
<title>Node1&#45;&gt;Node2</title>
<g id="a_edge1_Node000001_Node000002"><a xlink:title=" ">
<path fill="none" stroke="#63b8ff" d="M195.72,-43.34C187.27,-44.43 178.64,-45.55 170.11,-46.65"/>
<polygon fill="#63b8ff" stroke="#63b8ff" points="196.43,-46.78 205.9,-42.03 195.53,-39.84 196.43,-46.78"/>
</a>
</g>
</g>
<!-- Node3 -->
<g id="Node000003" class="node">
<title>Node3</title>
<g id="a_Node000003"><a xlink:href="../../da/df6/namespacetest_1_1tst__num.html#a122086ce51f3643293f6402b2c97ad96" target="_top" xlink:title="Test for the subtraction method in the solution of arithmetic.">
<polygon fill="white" stroke="#666666" points="146,-19 24,-19 24,0 146,0 146,-19"/>
<text text-anchor="middle" x="85" y="-7" font-family="Helvetica,sans-Serif" font-size="10.00">test::tst_num::TEST_F</text>
</a>
</g>
</g>
<!-- Node1&#45;&gt;Node3 -->
<g id="edge2_Node000001_Node000003" class="edge">
<title>Node1&#45;&gt;Node3</title>
<g id="a_edge2_Node000001_Node000003"><a xlink:title=" ">
<path fill="none" stroke="#63b8ff" d="M195.75,-23.66C179.28,-21.54 162.07,-19.32 146.3,-17.28"/>
<polygon fill="#63b8ff" stroke="#63b8ff" points="195.53,-27.16 205.9,-24.97 196.43,-20.22 195.53,-27.16"/>
</a>
</g>
</g>
</g>
</svg>
