<?xml version="1.0" encoding="UTF-8" standalone="no"?>
<!DOCTYPE svg PUBLIC "-//W3C//DTD SVG 1.1//EN"
 "http://www.w3.org/Graphics/SVG/1.1/DTD/svg11.dtd">
<!-- Generated by graphviz version 2.43.0 (0)
 -->
<!-- Title: numeric::arithmetic::Arithmetic::addition Pages: 1 -->
<svg width="333pt" height="86pt"
 viewBox="0.00 0.00 333.00 86.00" xmlns="http://www.w3.org/2000/svg" xmlns:xlink="http://www.w3.org/1999/xlink">
<g id="graph0" class="graph" transform="scale(1 1) rotate(0) translate(4 82)">
<title>numeric::arithmetic::Arithmetic::addition</title>
<!-- Node1 -->
<g id="Node000001" class="node">
<title>Node1</title>
<g id="a_Node000001"><a xlink:title="Addition.">
<polygon fill="#999999" stroke="#666666" points="325,-48.5 206,-48.5 206,-18.5 325,-18.5 325,-48.5"/>
<text text-anchor="start" x="214" y="-36.5" font-family="Helvetica,sans-Serif" font-size="10.00">numeric::arithmetic</text>
<text text-anchor="middle" x="265.5" y="-25.5" font-family="Helvetica,sans-Serif" font-size="10.00">::Arithmetic::addition</text>
</a>
</g>
</g>
<!-- Node2 -->
<g id="Node000002" class="node">
<title>Node2</title>
<g id="a_Node000002"><a xlink:href="../../db/d0f/classapplication_1_1app__num_1_1arithmetic_1_1ArithmeticSolution.html#aeba5ee527dc0a0b46e772eea7b29234d" target="_top" xlink:title="The addition method.">
<polygon fill="white" stroke="#666666" points="170,-78 0,-78 0,-37 170,-37 170,-78"/>
<text text-anchor="start" x="8" y="-66" font-family="Helvetica,sans-Serif" font-size="10.00">application::app_num</text>
<text text-anchor="start" x="8" y="-55" font-family="Helvetica,sans-Serif" font-size="10.00">::arithmetic::ArithmeticSolution</text>
<text text-anchor="middle" x="85" y="-44" font-family="Helvetica,sans-Serif" font-size="10.00">::additionMethod</text>
</a>
</g>
</g>
<!-- Node1&#45;&gt;Node2 -->
<g id="edge1_Node000001_Node000002" class="edge">
<title>Node1&#45;&gt;Node2</title>
<g id="a_edge1_Node000001_Node000002"><a xlink:title=" ">
<path fill="none" stroke="#63b8ff" d="M195.53,-42.77C187.19,-43.89 178.6,-45.05 170.07,-46.2"/>
<polygon fill="#63b8ff" stroke="#63b8ff" points="196.11,-46.23 205.56,-41.43 195.18,-39.29 196.11,-46.23"/>
</a>
</g>
</g>
<!-- Node3 -->
<g id="Node000003" class="node">
<title>Node3</title>
<g id="a_Node000003"><a xlink:href="../../da/df6/namespacetest_1_1tst__num.html#ace534d30fe3c2a4e59d280d6f6ae0460" target="_top" xlink:title="Test for the addition method in the solution of arithmetic.">
<polygon fill="white" stroke="#666666" points="146,-19 24,-19 24,0 146,0 146,-19"/>
<text text-anchor="middle" x="85" y="-7" font-family="Helvetica,sans-Serif" font-size="10.00">test::tst_num::TEST_F</text>
</a>
</g>
</g>
<!-- Node1&#45;&gt;Node3 -->
<g id="edge2_Node000001_Node000003" class="edge">
<title>Node1&#45;&gt;Node3</title>
<g id="a_edge2_Node000001_Node000003"><a xlink:title=" ">
<path fill="none" stroke="#63b8ff" d="M195.55,-24.23C179.24,-22.04 161.98,-19.72 146.1,-17.58"/>
<polygon fill="#63b8ff" stroke="#63b8ff" points="195.18,-27.71 205.56,-25.57 196.11,-20.77 195.18,-27.71"/>
</a>
</g>
</g>
</g>
</svg>
