<?xml version="1.0" encoding="UTF-8" standalone="no"?>
<!DOCTYPE svg PUBLIC "-//W3C//DTD SVG 1.1//EN"
 "http://www.w3.org/Graphics/SVG/1.1/DTD/svg11.dtd">
<!-- Generated by graphviz version 2.43.0 (0)
 -->
<!-- Title: design_pattern::structural::decorator::output Pages: 1 -->
<svg width="361pt" height="167pt"
 viewBox="0.00 0.00 361.00 167.00" xmlns="http://www.w3.org/2000/svg" xmlns:xlink="http://www.w3.org/1999/xlink">
<g id="graph0" class="graph" transform="scale(1 1) rotate(0) translate(4 163)">
<title>design_pattern::structural::decorator::output</title>
<!-- Node1 -->
<g id="Node000001" class="node">
<title>Node1</title>
<g id="a_Node000001"><a xlink:title="Output stream for the decorator pattern. Need to be cleared manually.">
<polygon fill="#999999" stroke="#666666" points="353,-94.5 211,-94.5 211,-64.5 353,-64.5 353,-94.5"/>
<text text-anchor="start" x="219" y="-82.5" font-family="Helvetica,sans-Serif" font-size="10.00">design_pattern::structural</text>
<text text-anchor="middle" x="282" y="-71.5" font-family="Helvetica,sans-Serif" font-size="10.00">::decorator::output</text>
</a>
</g>
</g>
<!-- Node2 -->
<g id="Node000002" class="node">
<title>Node2</title>
<g id="a_Node000002"><a xlink:href="../../d1/dd0/classdesign__pattern_1_1structural_1_1decorator_1_1ConcreteComponent.html#ad2b7a211060815533e3476d7e2ab910e" target="_top" xlink:title="The related operation.">
<polygon fill="white" stroke="#666666" points="175,-159 0,-159 0,-118 175,-118 175,-159"/>
<text text-anchor="start" x="8" y="-147" font-family="Helvetica,sans-Serif" font-size="10.00">design_pattern::structural</text>
<text text-anchor="start" x="8" y="-136" font-family="Helvetica,sans-Serif" font-size="10.00">::decorator::ConcreteComponent</text>
<text text-anchor="middle" x="87.5" y="-125" font-family="Helvetica,sans-Serif" font-size="10.00">::operation</text>
</a>
</g>
</g>
<!-- Node1&#45;&gt;Node2 -->
<g id="edge1_Node000001_Node000002" class="edge">
<title>Node1&#45;&gt;Node2</title>
<g id="a_edge1_Node000001_Node000002"><a xlink:title=" ">
<path fill="none" stroke="#63b8ff" d="M222.17,-97.53C201.15,-103.97 177.31,-111.28 155.64,-117.92"/>
<polygon fill="#63b8ff" stroke="#63b8ff" points="223.39,-100.82 231.93,-94.54 221.34,-94.12 223.39,-100.82"/>
</a>
</g>
</g>
<!-- Node3 -->
<g id="Node000003" class="node">
<title>Node3</title>
<g id="a_Node000003"><a xlink:href="../../d4/d7a/classdesign__pattern_1_1structural_1_1decorator_1_1ConcreteDecoratorA.html#ab51a43aa910517582d7b77023f3ed6c3" target="_top" xlink:title="The related operation.">
<polygon fill="white" stroke="#666666" points="174,-100 1,-100 1,-59 174,-59 174,-100"/>
<text text-anchor="start" x="9" y="-88" font-family="Helvetica,sans-Serif" font-size="10.00">design_pattern::structural</text>
<text text-anchor="start" x="9" y="-77" font-family="Helvetica,sans-Serif" font-size="10.00">::decorator::ConcreteDecoratorA</text>
<text text-anchor="middle" x="87.5" y="-66" font-family="Helvetica,sans-Serif" font-size="10.00">::operation</text>
</a>
</g>
</g>
<!-- Node1&#45;&gt;Node3 -->
<g id="edge2_Node000001_Node000003" class="edge">
<title>Node1&#45;&gt;Node3</title>
<g id="a_edge2_Node000001_Node000003"><a xlink:title=" ">
<path fill="none" stroke="#63b8ff" d="M200.77,-79.5C192,-79.5 183.06,-79.5 174.23,-79.5"/>
<polygon fill="#63b8ff" stroke="#63b8ff" points="200.96,-83 210.96,-79.5 200.96,-76 200.96,-83"/>
</a>
</g>
</g>
<!-- Node4 -->
<g id="Node000004" class="node">
<title>Node4</title>
<g id="a_Node000004"><a xlink:href="../../d7/d99/classdesign__pattern_1_1structural_1_1decorator_1_1ConcreteDecoratorB.html#a9ed8094e2d8f0411d9ce40881b7061e9" target="_top" xlink:title="The related operation.">
<polygon fill="white" stroke="#666666" points="174,-41 1,-41 1,0 174,0 174,-41"/>
<text text-anchor="start" x="9" y="-29" font-family="Helvetica,sans-Serif" font-size="10.00">design_pattern::structural</text>
<text text-anchor="start" x="9" y="-18" font-family="Helvetica,sans-Serif" font-size="10.00">::decorator::ConcreteDecoratorB</text>
<text text-anchor="middle" x="87.5" y="-7" font-family="Helvetica,sans-Serif" font-size="10.00">::operation</text>
</a>
</g>
</g>
<!-- Node1&#45;&gt;Node4 -->
<g id="edge3_Node000001_Node000004" class="edge">
<title>Node1&#45;&gt;Node4</title>
<g id="a_edge3_Node000001_Node000004"><a xlink:title=" ">
<path fill="none" stroke="#63b8ff" d="M222.17,-61.47C201.15,-55.03 177.31,-47.72 155.64,-41.08"/>
<polygon fill="#63b8ff" stroke="#63b8ff" points="221.34,-64.88 231.93,-64.46 223.39,-58.18 221.34,-64.88"/>
</a>
</g>
</g>
</g>
</svg>
