<?xml version="1.0" encoding="UTF-8" standalone="no"?>
<!DOCTYPE svg PUBLIC "-//W3C//DTD SVG 1.1//EN"
 "http://www.w3.org/Graphics/SVG/1.1/DTD/svg11.dtd">
<!-- Generated by graphviz version 2.43.0 (0)
 -->
<!-- Title: application::view::View Pages: 1 -->
<svg width="924pt" height="395pt"
 viewBox="0.00 0.00 924.00 394.50" xmlns="http://www.w3.org/2000/svg" xmlns:xlink="http://www.w3.org/1999/xlink">
<g id="graph0" class="graph" transform="scale(1 1) rotate(0) translate(4 390.5)">
<title>application::view::View</title>
<!-- Node1 -->
<g id="Node000001" class="node">
<title>Node1</title>
<g id="a_Node000001"><a xlink:title="Viewer.">
<polygon fill="#999999" stroke="#666666" points="916,-184 787,-184 787,-165 916,-165 916,-184"/>
<text text-anchor="middle" x="851.5" y="-172" font-family="Helvetica,sans-Serif" font-size="10.00">application::view::View</text>
</a>
</g>
</g>
<!-- Node2 -->
<g id="Node000002" class="node">
<title>Node2</title>
<g id="a_Node000002"><a xlink:href="../../d1/d46/classutility_1_1fsm_1_1FSM.html" target="_top" xlink:title=" ">
<polygon fill="white" stroke="#666666" points="627.5,-330.5 523.5,-330.5 523.5,-300.5 627.5,-300.5 627.5,-330.5"/>
<text text-anchor="start" x="531.5" y="-318.5" font-family="Helvetica,sans-Serif" font-size="10.00">utility::fsm::FSM&lt;</text>
<text text-anchor="middle" x="575.5" y="-307.5" font-family="Helvetica,sans-Serif" font-size="10.00"> View &gt;</text>
</a>
</g>
</g>
<!-- Node2&#45;&gt;Node1 -->
<g id="edge1_Node000001_Node000002" class="edge">
<title>Node2&#45;&gt;Node1</title>
<g id="a_edge1_Node000001_Node000002"><a xlink:title=" ">
<path fill="none" stroke="#63b8ff" d="M637.33,-301.95C676.88,-291.36 728.45,-274.09 769,-248.5 798.74,-229.73 827.83,-199.72 841.84,-184.31"/>
<polygon fill="#63b8ff" stroke="#63b8ff" points="636.35,-298.59 627.55,-304.5 638.11,-305.37 636.35,-298.59"/>
</a>
</g>
</g>
<!-- Node3 -->
<g id="Node000003" class="node">
<title>Node3</title>
<g id="a_Node000003"><a target="_parent" xlink:href="https://gcc.gnu.org/onlinedocs/gcc-12.3.0/libstdc++/api/a01975.html" xlink:title=" ">
<polygon fill="white" stroke="#666666" points="115,-329 0,-329 0,-310 115,-310 115,-329"/>
<text text-anchor="middle" x="57.5" y="-317" font-family="Helvetica,sans-Serif" font-size="10.00">std::atomic&lt; bool &gt;</text>
</a>
</g>
</g>
<!-- Node3&#45;&gt;Node1 -->
<g id="edge13_Node000001_Node000003" class="edge">
<title>Node3&#45;&gt;Node1</title>
<g id="a_edge13_Node000001_Node000003"><a xlink:title=" ">
<path fill="none" stroke="#9a32cd" stroke-dasharray="5,2" d="M111.09,-331.02C217.52,-352.22 465.19,-390.76 664,-339.5 715.62,-326.19 728.65,-316.34 769,-281.5 803.82,-251.44 833.31,-204.28 845.06,-184.14"/>
<polygon fill="#9a32cd" stroke="#9a32cd" points="111.74,-327.58 101.24,-329.03 110.35,-334.44 111.74,-327.58"/>
</a>
</g>
<text text-anchor="middle" x="426" y="-378.5" font-family="Helvetica,sans-Serif" font-size="10.00" fill="grey"> isViewing</text>
<text text-anchor="middle" x="426" y="-367.5" font-family="Helvetica,sans-Serif" font-size="10.00" fill="grey">rollbackRequest</text>
</g>
<!-- Node3&#45;&gt;Node2 -->
<g id="edge2_Node000002_Node000003" class="edge">
<title>Node3&#45;&gt;Node2</title>
<g id="a_edge2_Node000002_Node000003"><a xlink:title=" ">
<path fill="none" stroke="#9a32cd" stroke-dasharray="5,2" d="M125.31,-318.98C229.81,-318.17 429.66,-316.62 523.48,-315.9"/>
<polygon fill="#9a32cd" stroke="#9a32cd" points="125.17,-315.48 115.2,-319.06 125.22,-322.48 125.17,-315.48"/>
</a>
</g>
<text text-anchor="middle" x="290" y="-320.5" font-family="Helvetica,sans-Serif" font-size="10.00" fill="grey"> isProcessing</text>
</g>
<!-- Node4 -->
<g id="Node000004" class="node">
<title>Node4</title>
<g id="a_Node000004"><a xlink:href="../../d1/d46/classutility_1_1fsm_1_1FSM.html" target="_top" xlink:title="Finite state machine.">
<polygon fill="white" stroke="#666666" points="342,-283.5 238,-283.5 238,-253.5 342,-253.5 342,-283.5"/>
<text text-anchor="start" x="246" y="-271.5" font-family="Helvetica,sans-Serif" font-size="10.00">utility::fsm::FSM&lt;</text>
<text text-anchor="middle" x="290" y="-260.5" font-family="Helvetica,sans-Serif" font-size="10.00"> Derived, State &gt;</text>
</a>
</g>
</g>
<!-- Node3&#45;&gt;Node4 -->
<g id="edge4_Node000004_Node000003" class="edge">
<title>Node3&#45;&gt;Node4</title>
<g id="a_edge4_Node000004_Node000003"><a xlink:title=" ">
<path fill="none" stroke="#9a32cd" stroke-dasharray="5,2" d="M93.25,-306.57C105.66,-302.29 119.84,-297.78 133,-294.5 167.63,-285.86 207.32,-279.29 238,-274.92"/>
<polygon fill="#9a32cd" stroke="#9a32cd" points="91.99,-303.3 83.72,-309.93 94.31,-309.9 91.99,-303.3"/>
</a>
</g>
<text text-anchor="middle" x="165" y="-297.5" font-family="Helvetica,sans-Serif" font-size="10.00" fill="grey"> isProcessing</text>
</g>
<!-- Node4&#45;&gt;Node2 -->
<g id="edge3_Node000002_Node000004" class="edge">
<title>Node4&#45;&gt;Node2</title>
<g id="a_edge3_Node000002_Node000004"><a xlink:title=" ">
<path fill="none" stroke="orange" stroke-dasharray="5,2" d="M352.48,-276.69C386.83,-281.46 430.37,-287.84 469,-294.5 486.76,-297.56 506.12,-301.3 523.35,-304.77"/>
<polygon fill="orange" stroke="orange" points="352.52,-273.16 342.13,-275.26 351.56,-280.09 352.52,-273.16"/>
</a>
</g>
<text text-anchor="middle" x="426" y="-297.5" font-family="Helvetica,sans-Serif" font-size="10.00" fill="grey"> &lt; View &gt;</text>
</g>
<!-- Node5 -->
<g id="Node000005" class="node">
<title>Node5</title>
<g id="a_Node000005"><a target="_parent" xlink:href="https://gcc.gnu.org/onlinedocs/gcc-12.3.0/libstdc++/api/a08631.html" xlink:title=" ">
<polygon fill="white" stroke="#666666" points="664,-282.5 487,-282.5 487,-230.5 664,-230.5 664,-282.5"/>
<text text-anchor="start" x="495" y="-270.5" font-family="Helvetica,sans-Serif" font-size="10.00">std::map&lt; typename</text>
<text text-anchor="start" x="495" y="-259.5" font-family="Helvetica,sans-Serif" font-size="10.00"> _Key, typename _Tp,</text>
<text text-anchor="start" x="495" y="-248.5" font-family="Helvetica,sans-Serif" font-size="10.00"> typename _Compare, typename</text>
<text text-anchor="middle" x="575.5" y="-237.5" font-family="Helvetica,sans-Serif" font-size="10.00"> _Alloc &gt;</text>
</a>
</g>
</g>
<!-- Node5&#45;&gt;Node1 -->
<g id="edge5_Node000001_Node000005" class="edge">
<title>Node5&#45;&gt;Node1</title>
<g id="a_edge5_Node000001_Node000005"><a xlink:title=" ">
<path fill="none" stroke="#9a32cd" stroke-dasharray="5,2" d="M674.03,-236.81C704.75,-229.65 738.59,-220.75 769,-210.5 790.99,-203.09 815.19,-192 831.46,-184.09"/>
<polygon fill="#9a32cd" stroke="#9a32cd" points="673.13,-233.43 664.17,-239.08 674.7,-240.25 673.13,-233.43"/>
</a>
</g>
<text text-anchor="middle" x="725.5" y="-236.5" font-family="Helvetica,sans-Serif" font-size="10.00" fill="grey"> optionDispatcher</text>
</g>
<!-- Node6 -->
<g id="Node000006" class="node">
<title>Node6</title>
<g id="a_Node000006"><a target="_parent" xlink:href="https://gcc.gnu.org/onlinedocs/gcc-12.3.0/libstdc++/api/a05563.html" xlink:title=" ">
<polygon fill="white" stroke="#666666" points="656,-212 495,-212 495,-171 656,-171 656,-212"/>
<text text-anchor="start" x="503" y="-200" font-family="Helvetica,sans-Serif" font-size="10.00">std::basic_string&lt;</text>
<text text-anchor="start" x="503" y="-189" font-family="Helvetica,sans-Serif" font-size="10.00"> typename _CharT, typename</text>
<text text-anchor="middle" x="575.5" y="-178" font-family="Helvetica,sans-Serif" font-size="10.00"> _Traits, typename _Alloc &gt;</text>
</a>
</g>
</g>
<!-- Node6&#45;&gt;Node1 -->
<g id="edge6_Node000001_Node000006" class="edge">
<title>Node6&#45;&gt;Node1</title>
<g id="a_edge6_Node000001_Node000006"><a xlink:title=" ">
<path fill="none" stroke="#9a32cd" stroke-dasharray="5,2" d="M666.26,-185.93C705.64,-183.49 750.95,-180.68 786.78,-178.45"/>
<polygon fill="#9a32cd" stroke="#9a32cd" points="665.88,-182.45 656.12,-186.56 666.32,-189.43 665.88,-182.45"/>
</a>
</g>
<text text-anchor="middle" x="725.5" y="-198.5" font-family="Helvetica,sans-Serif" font-size="10.00" fill="grey"> tcpHost</text>
<text text-anchor="middle" x="725.5" y="-187.5" font-family="Helvetica,sans-Serif" font-size="10.00" fill="grey">udpHost</text>
</g>
<!-- Node7 -->
<g id="Node000007" class="node">
<title>Node7</title>
<g id="a_Node000007"><a target="_parent" xlink:href="https://gcc.gnu.org/onlinedocs/gcc-12.3.0/libstdc++/api/a07571.html" xlink:title=" ">
<polygon fill="white" stroke="#666666" points="640,-152.5 511,-152.5 511,-122.5 640,-122.5 640,-152.5"/>
<text text-anchor="start" x="519" y="-140.5" font-family="Helvetica,sans-Serif" font-size="10.00">std::shared_ptr&lt; utility</text>
<text text-anchor="middle" x="575.5" y="-129.5" font-family="Helvetica,sans-Serif" font-size="10.00">::socket::TCPServer &gt;</text>
</a>
</g>
</g>
<!-- Node7&#45;&gt;Node1 -->
<g id="edge7_Node000001_Node000007" class="edge">
<title>Node7&#45;&gt;Node1</title>
<g id="a_edge7_Node000001_Node000007"><a xlink:title=" ">
<path fill="none" stroke="#9a32cd" stroke-dasharray="5,2" d="M650.1,-147.44C692.77,-153.2 745.96,-160.38 786.82,-165.9"/>
<polygon fill="#9a32cd" stroke="#9a32cd" points="650.43,-143.95 640.05,-146.08 649.49,-150.89 650.43,-143.95"/>
</a>
</g>
<text text-anchor="middle" x="725.5" y="-165.5" font-family="Helvetica,sans-Serif" font-size="10.00" fill="grey"> tcpServer</text>
</g>
<!-- Node8 -->
<g id="Node000008" class="node">
<title>Node8</title>
<g id="a_Node000008"><a target="_parent" xlink:href="https://gcc.gnu.org/onlinedocs/gcc-12.3.0/libstdc++/api/a07571.html" xlink:title=" ">
<polygon fill="white" stroke="#666666" points="365,-128.5 215,-128.5 215,-98.5 365,-98.5 365,-128.5"/>
<text text-anchor="start" x="223" y="-116.5" font-family="Helvetica,sans-Serif" font-size="10.00">std::shared_ptr&lt; typename</text>
<text text-anchor="middle" x="290" y="-105.5" font-family="Helvetica,sans-Serif" font-size="10.00"> _Tp &gt;</text>
</a>
</g>
</g>
<!-- Node8&#45;&gt;Node7 -->
<g id="edge8_Node000007_Node000008" class="edge">
<title>Node8&#45;&gt;Node7</title>
<g id="a_edge8_Node000007_Node000008"><a xlink:title=" ">
<path fill="none" stroke="orange" stroke-dasharray="5,2" d="M375.11,-120.62C418.61,-124.3 470.83,-128.72 510.91,-132.12"/>
<polygon fill="orange" stroke="orange" points="375.38,-117.13 365.12,-119.77 374.79,-124.11 375.38,-117.13"/>
</a>
</g>
<text text-anchor="start" x="383" y="-142.5" font-family="Helvetica,sans-Serif" font-size="10.00" fill="grey"> &lt; utility::socket::</text>
<text text-anchor="middle" x="426" y="-131.5" font-family="Helvetica,sans-Serif" font-size="10.00" fill="grey">TCPServer &gt;</text>
</g>
<!-- Node9 -->
<g id="Node000009" class="node">
<title>Node9</title>
<g id="a_Node000009"><a target="_parent" xlink:href="https://gcc.gnu.org/onlinedocs/gcc-12.3.0/libstdc++/api/a07571.html" xlink:title=" ">
<polygon fill="white" stroke="#666666" points="640,-104.5 511,-104.5 511,-74.5 640,-74.5 640,-104.5"/>
<text text-anchor="start" x="519" y="-92.5" font-family="Helvetica,sans-Serif" font-size="10.00">std::shared_ptr&lt; utility</text>
<text text-anchor="middle" x="575.5" y="-81.5" font-family="Helvetica,sans-Serif" font-size="10.00">::socket::UDPServer &gt;</text>
</a>
</g>
</g>
<!-- Node8&#45;&gt;Node9 -->
<g id="edge10_Node000009_Node000008" class="edge">
<title>Node8&#45;&gt;Node9</title>
<g id="a_edge10_Node000009_Node000008"><a xlink:title=" ">
<path fill="none" stroke="orange" stroke-dasharray="5,2" d="M375.28,-97.42C377.88,-97.09 380.46,-96.78 383,-96.5 425.49,-91.82 473.58,-90.08 510.93,-89.5"/>
<polygon fill="orange" stroke="orange" points="374.6,-93.99 365.18,-98.83 375.56,-100.92 374.6,-93.99"/>
</a>
</g>
<text text-anchor="start" x="383" y="-110.5" font-family="Helvetica,sans-Serif" font-size="10.00" fill="grey"> &lt; utility::socket::</text>
<text text-anchor="middle" x="426" y="-99.5" font-family="Helvetica,sans-Serif" font-size="10.00" fill="grey">UDPServer &gt;</text>
</g>
<!-- Node9&#45;&gt;Node1 -->
<g id="edge9_Node000001_Node000009" class="edge">
<title>Node9&#45;&gt;Node1</title>
<g id="a_edge9_Node000001_Node000009"><a xlink:title=" ">
<path fill="none" stroke="#9a32cd" stroke-dasharray="5,2" d="M650.21,-104.57C686.45,-112.81 730.5,-124.09 769,-137.5 791.3,-145.27 815.85,-156.86 832.12,-164.99"/>
<polygon fill="#9a32cd" stroke="#9a32cd" points="650.73,-101.1 640.2,-102.33 649.2,-107.93 650.73,-101.1"/>
</a>
</g>
<text text-anchor="middle" x="725.5" y="-140.5" font-family="Helvetica,sans-Serif" font-size="10.00" fill="grey"> udpServer</text>
</g>
<!-- Node10 -->
<g id="Node000010" class="node">
<title>Node10</title>
<g id="a_Node000010"><a target="_parent" xlink:href="https://gcc.gnu.org/onlinedocs/gcc-12.3.0/libstdc++/api/a07923.html" xlink:title=" ">
<polygon fill="white" stroke="#666666" points="610,-56 541,-56 541,-37 610,-37 610,-56"/>
<text text-anchor="middle" x="575.5" y="-44" font-family="Helvetica,sans-Serif" font-size="10.00">std::mutex</text>
</a>
</g>
</g>
<!-- Node10&#45;&gt;Node1 -->
<g id="edge11_Node000001_Node000010" class="edge">
<title>Node10&#45;&gt;Node1</title>
<g id="a_edge11_Node000001_Node000010"><a xlink:title=" ">
<path fill="none" stroke="#9a32cd" stroke-dasharray="5,2" d="M620.37,-51.67C661.12,-57.97 722.36,-71.33 769,-98.5 800.26,-116.71 829.34,-148.87 842.74,-164.88"/>
<polygon fill="#9a32cd" stroke="#9a32cd" points="620.62,-48.17 610.22,-50.18 619.6,-55.09 620.62,-48.17"/>
</a>
</g>
<text text-anchor="middle" x="725.5" y="-101.5" font-family="Helvetica,sans-Serif" font-size="10.00" fill="grey"> mtx</text>
</g>
<!-- Node11 -->
<g id="Node000011" class="node">
<title>Node11</title>
<g id="a_Node000011"><a target="_parent" xlink:href="https://gcc.gnu.org/onlinedocs/gcc-12.3.0/libstdc++/api/a02343.html" xlink:title=" ">
<polygon fill="white" stroke="#666666" points="639.5,-19 511.5,-19 511.5,0 639.5,0 639.5,-19"/>
<text text-anchor="middle" x="575.5" y="-7" font-family="Helvetica,sans-Serif" font-size="10.00">std::condition_variable</text>
</a>
</g>
</g>
<!-- Node11&#45;&gt;Node1 -->
<g id="edge12_Node000001_Node000011" class="edge">
<title>Node11&#45;&gt;Node1</title>
<g id="a_edge12_Node000001_Node000011"><a xlink:title=" ">
<path fill="none" stroke="#9a32cd" stroke-dasharray="5,2" d="M649.91,-11.87C688.23,-16.21 734.24,-26.59 769,-50.5 812.3,-80.28 838.34,-141.34 847.14,-164.92"/>
<polygon fill="#9a32cd" stroke="#9a32cd" points="650.14,-8.37 639.84,-10.84 649.43,-15.33 650.14,-8.37"/>
</a>
</g>
<text text-anchor="middle" x="725.5" y="-53.5" font-family="Helvetica,sans-Serif" font-size="10.00" fill="grey"> cv</text>
</g>
</g>
</svg>
