<?xml version="1.0" encoding="UTF-8" standalone="no"?>
<!DOCTYPE svg PUBLIC "-//W3C//DTD SVG 1.1//EN"
 "http://www.w3.org/Graphics/SVG/1.1/DTD/svg11.dtd">
<!-- Generated by graphviz version 2.43.0 (0)
 -->
<!-- Title: utility/source/fsm.tpp Pages: 1 -->
<svg width="1256pt" height="225pt"
 viewBox="0.00 0.00 1255.50 225.00" xmlns="http://www.w3.org/2000/svg" xmlns:xlink="http://www.w3.org/1999/xlink">
<g id="graph0" class="graph" transform="scale(1 1) rotate(0) translate(4 221)">
<title>utility/source/fsm.tpp</title>
<!-- Node1 -->
<g id="Node000001" class="node">
<title>Node1</title>
<g id="a_Node000001"><a xlink:title="The definitions (fsm) in the utility module.">
<polygon fill="#999999" stroke="#666666" points="425.5,-217 304.5,-217 304.5,-198 425.5,-198 425.5,-217"/>
<text text-anchor="middle" x="365" y="-205" font-family="Helvetica,sans-Serif" font-size="10.00">utility/source/fsm.tpp</text>
</a>
</g>
</g>
<!-- Node2 -->
<g id="Node000002" class="node">
<title>Node2</title>
<g id="a_Node000002"><a xlink:href="../../df/df2/fsm_8hpp.html" target="_top" xlink:title="The declarations (fsm) in the utility module.">
<polygon fill="white" stroke="#666666" points="428,-162 302,-162 302,-143 428,-143 428,-162"/>
<text text-anchor="middle" x="365" y="-150" font-family="Helvetica,sans-Serif" font-size="10.00">utility/include/fsm.hpp</text>
</a>
</g>
</g>
<!-- Node1&#45;&gt;Node2 -->
<g id="edge1_Node000001_Node000002" class="edge">
<title>Node1&#45;&gt;Node2</title>
<g id="a_edge1_Node000001_Node000002"><a xlink:title=" ">
<path fill="none" stroke="#63b8ff" d="M358.51,-187.66C357.91,-178.93 358.36,-168.99 359.87,-162.09"/>
<polygon fill="#63b8ff" stroke="#63b8ff" points="355.06,-188.29 359.83,-197.75 362,-187.38 355.06,-188.29"/>
</a>
</g>
</g>
<!-- Node2&#45;&gt;Node1 -->
<g id="edge15_Node000002_Node000001" class="edge">
<title>Node2&#45;&gt;Node1</title>
<g id="a_edge15_Node000002_Node000001"><a xlink:title=" ">
<path fill="none" stroke="#63b8ff" d="M371.48,-172.13C372.1,-180.85 371.66,-190.8 370.17,-197.75"/>
<polygon fill="#63b8ff" stroke="#63b8ff" points="374.93,-171.53 370.13,-162.09 367.99,-172.47 374.93,-171.53"/>
</a>
</g>
</g>
<!-- Node3 -->
<g id="Node000003" class="node">
<title>Node3</title>
<g id="a_Node000003"><a xlink:href="../../d4/d3d/log_8hpp.html" target="_top" xlink:title="The declarations (log) in the application module.">
<polygon fill="white" stroke="#666666" points="584.5,-107 451.5,-107 451.5,-77 584.5,-77 584.5,-107"/>
<text text-anchor="start" x="459.5" y="-95" font-family="Helvetica,sans-Serif" font-size="10.00">application/core/include</text>
<text text-anchor="middle" x="518" y="-84" font-family="Helvetica,sans-Serif" font-size="10.00">/log.hpp</text>
</a>
</g>
</g>
<!-- Node2&#45;&gt;Node3 -->
<g id="edge2_Node000002_Node000003" class="edge">
<title>Node2&#45;&gt;Node3</title>
<g id="a_edge2_Node000002_Node000003"><a xlink:title=" ">
<path fill="none" stroke="#63b8ff" d="M396.82,-139.33C421.41,-129.93 455.47,-116.91 481.22,-107.06"/>
<polygon fill="#63b8ff" stroke="#63b8ff" points="395.34,-136.15 387.25,-142.99 397.84,-142.69 395.34,-136.15"/>
</a>
</g>
</g>
<!-- Node12 -->
<g id="Node000012" class="node">
<title>Node12</title>
<g id="a_Node000012"><a xlink:href="../../d8/d11/view_8hpp.html" target="_top" xlink:title="The declarations (view) in the application module.">
<polygon fill="white" stroke="#666666" points="353.5,-107 220.5,-107 220.5,-77 353.5,-77 353.5,-107"/>
<text text-anchor="start" x="228.5" y="-95" font-family="Helvetica,sans-Serif" font-size="10.00">application/core/include</text>
<text text-anchor="middle" x="287" y="-84" font-family="Helvetica,sans-Serif" font-size="10.00">/view.hpp</text>
</a>
</g>
</g>
<!-- Node2&#45;&gt;Node12 -->
<g id="edge11_Node000002_Node000012" class="edge">
<title>Node2&#45;&gt;Node12</title>
<g id="a_edge11_Node000002_Node000012"><a xlink:title=" ">
<path fill="none" stroke="#63b8ff" d="M345.36,-136.77C333.24,-127.68 317.78,-116.09 305.82,-107.11"/>
<polygon fill="#63b8ff" stroke="#63b8ff" points="343.39,-139.67 353.49,-142.87 347.59,-134.07 343.39,-139.67"/>
</a>
</g>
</g>
<!-- Node4 -->
<g id="Node000004" class="node">
<title>Node4</title>
<g id="a_Node000004"><a xlink:href="../../d1/d81/command_8cpp.html" target="_top" xlink:title="The definitions (command) in the application module.">
<polygon fill="white" stroke="#666666" points="130,-35.5 0,-35.5 0,-5.5 130,-5.5 130,-35.5"/>
<text text-anchor="start" x="8" y="-23.5" font-family="Helvetica,sans-Serif" font-size="10.00">application/core/source</text>
<text text-anchor="middle" x="65" y="-12.5" font-family="Helvetica,sans-Serif" font-size="10.00">/command.cpp</text>
</a>
</g>
</g>
<!-- Node3&#45;&gt;Node4 -->
<g id="edge3_Node000003_Node000004" class="edge">
<title>Node3&#45;&gt;Node4</title>
<g id="a_edge3_Node000003_Node000004"><a xlink:title=" ">
<path fill="none" stroke="#63b8ff" d="M441.09,-83.74C364.19,-75.8 242.76,-61.43 139,-41 131.18,-39.46 122.96,-37.57 114.96,-35.58"/>
<polygon fill="#63b8ff" stroke="#63b8ff" points="440.87,-87.23 451.18,-84.77 441.58,-80.27 440.87,-87.23"/>
</a>
</g>
</g>
<!-- Node5 -->
<g id="Node000005" class="node">
<title>Node5</title>
<g id="a_Node000005"><a xlink:href="../../d9/db8/log_8cpp.html" target="_top" xlink:title="The definitions (log) in the application module.">
<polygon fill="white" stroke="#666666" points="740,-35.5 610,-35.5 610,-5.5 740,-5.5 740,-35.5"/>
<text text-anchor="start" x="618" y="-23.5" font-family="Helvetica,sans-Serif" font-size="10.00">application/core/source</text>
<text text-anchor="middle" x="675" y="-12.5" font-family="Helvetica,sans-Serif" font-size="10.00">/log.cpp</text>
</a>
</g>
</g>
<!-- Node3&#45;&gt;Node5 -->
<g id="edge4_Node000003_Node000005" class="edge">
<title>Node3&#45;&gt;Node5</title>
<g id="a_edge4_Node000003_Node000005"><a xlink:title=" ">
<path fill="none" stroke="#63b8ff" d="M559.1,-72.81C585.41,-61.16 619.03,-46.28 643.28,-35.54"/>
<polygon fill="#63b8ff" stroke="#63b8ff" points="557.5,-69.69 549.77,-76.94 560.33,-76.09 557.5,-69.69"/>
</a>
</g>
</g>
<!-- Node6 -->
<g id="Node000006" class="node">
<title>Node6</title>
<g id="a_Node000006"><a xlink:href="../../df/d92/application_2core_2source_2main_8cpp.html" target="_top" xlink:title="The definitions (main) in the application module.">
<polygon fill="white" stroke="#666666" points="278,-35.5 148,-35.5 148,-5.5 278,-5.5 278,-35.5"/>
<text text-anchor="start" x="156" y="-23.5" font-family="Helvetica,sans-Serif" font-size="10.00">application/core/source</text>
<text text-anchor="middle" x="213" y="-12.5" font-family="Helvetica,sans-Serif" font-size="10.00">/main.cpp</text>
</a>
</g>
</g>
<!-- Node3&#45;&gt;Node6 -->
<g id="edge5_Node000003_Node000006" class="edge">
<title>Node3&#45;&gt;Node6</title>
<g id="a_edge5_Node000003_Node000006"><a xlink:title=" ">
<path fill="none" stroke="#63b8ff" d="M441.36,-75.3C396.3,-65.85 338.28,-53.3 287,-41 279.89,-39.3 272.43,-37.42 265.08,-35.53"/>
<polygon fill="#63b8ff" stroke="#63b8ff" points="440.85,-78.77 451.36,-77.39 442.28,-71.92 440.85,-78.77"/>
</a>
</g>
</g>
<!-- Node7 -->
<g id="Node000007" class="node">
<title>Node7</title>
<g id="a_Node000007"><a xlink:href="../../dd/dc2/view_8cpp.html" target="_top" xlink:title="The definitions (view) in the application module.">
<polygon fill="white" stroke="#666666" points="426,-35.5 296,-35.5 296,-5.5 426,-5.5 426,-35.5"/>
<text text-anchor="start" x="304" y="-23.5" font-family="Helvetica,sans-Serif" font-size="10.00">application/core/source</text>
<text text-anchor="middle" x="361" y="-12.5" font-family="Helvetica,sans-Serif" font-size="10.00">/view.cpp</text>
</a>
</g>
</g>
<!-- Node3&#45;&gt;Node7 -->
<g id="edge6_Node000003_Node000007" class="edge">
<title>Node3&#45;&gt;Node7</title>
<g id="a_edge6_Node000003_Node000007"><a xlink:title=" ">
<path fill="none" stroke="#63b8ff" d="M476.9,-72.81C450.59,-61.16 416.97,-46.28 392.72,-35.54"/>
<polygon fill="#63b8ff" stroke="#63b8ff" points="475.67,-76.09 486.23,-76.94 478.5,-69.69 475.67,-76.09"/>
</a>
</g>
</g>
<!-- Node8 -->
<g id="Node000008" class="node">
<title>Node8</title>
<g id="a_Node000008"><a xlink:href="../../d8/d64/apply__algorithm_8cpp.html" target="_top" xlink:title="The definitions (apply_algorithm) in the application module.">
<polygon fill="white" stroke="#666666" points="913.5,-35.5 758.5,-35.5 758.5,-5.5 913.5,-5.5 913.5,-35.5"/>
<text text-anchor="start" x="766.5" y="-23.5" font-family="Helvetica,sans-Serif" font-size="10.00">application/example</text>
<text text-anchor="middle" x="836" y="-12.5" font-family="Helvetica,sans-Serif" font-size="10.00">/source/apply_algorithm.cpp</text>
</a>
</g>
</g>
<!-- Node3&#45;&gt;Node8 -->
<g id="edge7_Node000003_Node000008" class="edge">
<title>Node3&#45;&gt;Node8</title>
<g id="a_edge7_Node000003_Node000008"><a xlink:title=" ">
<path fill="none" stroke="#63b8ff" d="M593.74,-74.75C638.85,-65.04 697.22,-52.41 749,-41 757.01,-39.24 765.44,-37.37 773.76,-35.51"/>
<polygon fill="#63b8ff" stroke="#63b8ff" points="592.78,-71.38 583.74,-76.9 594.26,-78.22 592.78,-71.38"/>
</a>
</g>
</g>
<!-- Node9 -->
<g id="Node000009" class="node">
<title>Node9</title>
<g id="a_Node000009"><a xlink:href="../../d1/d3d/apply__data__structure_8cpp.html" target="_top" xlink:title="The definitions (apply_data_structure) in the application module.">
<polygon fill="white" stroke="#666666" points="1110,-35.5 932,-35.5 932,-5.5 1110,-5.5 1110,-35.5"/>
<text text-anchor="start" x="940" y="-23.5" font-family="Helvetica,sans-Serif" font-size="10.00">application/example</text>
<text text-anchor="middle" x="1021" y="-12.5" font-family="Helvetica,sans-Serif" font-size="10.00">/source/apply_data_structure.cpp</text>
</a>
</g>
</g>
<!-- Node3&#45;&gt;Node9 -->
<g id="edge8_Node000003_Node000009" class="edge">
<title>Node3&#45;&gt;Node9</title>
<g id="a_edge8_Node000003_Node000009"><a xlink:title=" ">
<path fill="none" stroke="#63b8ff" d="M594.69,-83.23C676.32,-74.57 809.14,-59.33 923,-41 933.02,-39.39 943.58,-37.49 953.9,-35.53"/>
<polygon fill="#63b8ff" stroke="#63b8ff" points="594.08,-79.78 584.51,-84.31 594.82,-86.74 594.08,-79.78"/>
</a>
</g>
</g>
<!-- Node10 -->
<g id="Node000010" class="node">
<title>Node10</title>
<g id="a_Node000010"><a xlink:href="../../de/d6b/apply__design__pattern_8cpp.html" target="_top" xlink:title="The definitions (apply_design_pattern) in the application module.">
<polygon fill="white" stroke="#666666" points="1247.5,-41 1128.5,-41 1128.5,0 1247.5,0 1247.5,-41"/>
<text text-anchor="start" x="1136.5" y="-29" font-family="Helvetica,sans-Serif" font-size="10.00">application/example</text>
<text text-anchor="start" x="1136.5" y="-18" font-family="Helvetica,sans-Serif" font-size="10.00">/source/apply_design</text>
<text text-anchor="middle" x="1188" y="-7" font-family="Helvetica,sans-Serif" font-size="10.00">_pattern.cpp</text>
</a>
</g>
</g>
<!-- Node3&#45;&gt;Node10 -->
<g id="edge9_Node000003_Node000010" class="edge">
<title>Node3&#45;&gt;Node10</title>
<g id="a_edge9_Node000003_Node000010"><a xlink:title=" ">
<path fill="none" stroke="#63b8ff" d="M594.91,-89.33C709.81,-85.76 932.74,-74.74 1119,-41 1122.06,-40.45 1125.18,-39.81 1128.33,-39.12"/>
<polygon fill="#63b8ff" stroke="#63b8ff" points="594.69,-85.83 584.8,-89.63 594.9,-92.83 594.69,-85.83"/>
</a>
</g>
</g>
<!-- Node11 -->
<g id="Node000011" class="node">
<title>Node11</title>
<g id="a_Node000011"><a xlink:href="../../d1/dee/apply__numeric_8cpp.html" target="_top" xlink:title="The definitions (apply_numeric) in the application module.">
<polygon fill="white" stroke="#666666" points="591.5,-35.5 444.5,-35.5 444.5,-5.5 591.5,-5.5 591.5,-35.5"/>
<text text-anchor="start" x="452.5" y="-23.5" font-family="Helvetica,sans-Serif" font-size="10.00">application/example</text>
<text text-anchor="middle" x="518" y="-12.5" font-family="Helvetica,sans-Serif" font-size="10.00">/source/apply_numeric.cpp</text>
</a>
</g>
</g>
<!-- Node3&#45;&gt;Node11 -->
<g id="edge10_Node000003_Node000011" class="edge">
<title>Node3&#45;&gt;Node11</title>
<g id="a_edge10_Node000003_Node000011"><a xlink:title=" ">
<path fill="none" stroke="#63b8ff" d="M518,-66.75C518,-56.31 518,-44.49 518,-35.54"/>
<polygon fill="#63b8ff" stroke="#63b8ff" points="514.5,-66.94 518,-76.94 521.5,-66.94 514.5,-66.94"/>
</a>
</g>
</g>
<!-- Node12&#45;&gt;Node4 -->
<g id="edge12_Node000012_Node000004" class="edge">
<title>Node12&#45;&gt;Node4</title>
<g id="a_edge12_Node000012_Node000004"><a xlink:title=" ">
<path fill="none" stroke="#63b8ff" d="M232.28,-73.87C194.61,-62.08 145.2,-46.61 109.86,-35.54"/>
<polygon fill="#63b8ff" stroke="#63b8ff" points="231.49,-77.29 242.07,-76.94 233.58,-70.61 231.49,-77.29"/>
</a>
</g>
</g>
<!-- Node12&#45;&gt;Node6 -->
<g id="edge13_Node000012_Node000006" class="edge">
<title>Node12&#45;&gt;Node6</title>
<g id="a_edge13_Node000012_Node000006"><a xlink:title=" ">
<path fill="none" stroke="#63b8ff" d="M264.63,-69.99C252.75,-58.84 238.48,-45.43 227.95,-35.54"/>
<polygon fill="#63b8ff" stroke="#63b8ff" points="262.34,-72.64 272.02,-76.94 267.13,-67.54 262.34,-72.64"/>
</a>
</g>
</g>
<!-- Node12&#45;&gt;Node7 -->
<g id="edge14_Node000012_Node000007" class="edge">
<title>Node12&#45;&gt;Node7</title>
<g id="a_edge14_Node000012_Node000007"><a xlink:title=" ">
<path fill="none" stroke="#63b8ff" d="M309.37,-69.99C321.25,-58.84 335.52,-45.43 346.05,-35.54"/>
<polygon fill="#63b8ff" stroke="#63b8ff" points="306.87,-67.54 301.98,-76.94 311.66,-72.64 306.87,-67.54"/>
</a>
</g>
</g>
</g>
</svg>
