<?xml version="1.0" encoding="UTF-8" standalone="no"?>
<!DOCTYPE svg PUBLIC "-//W3C//DTD SVG 1.1//EN"
 "http://www.w3.org/Graphics/SVG/1.1/DTD/svg11.dtd">
<!-- Generated by graphviz version 2.43.0 (0)
 -->
<!-- Title: utility::socket::TCPSocket::toRecv Pages: 1 -->
<svg width="494pt" height="86pt"
 viewBox="0.00 0.00 494.00 86.00" xmlns="http://www.w3.org/2000/svg" xmlns:xlink="http://www.w3.org/1999/xlink">
<g id="graph0" class="graph" transform="scale(1 1) rotate(0) translate(4 82)">
<title>utility::socket::TCPSocket::toRecv</title>
<!-- Node1 -->
<g id="Node000001" class="node">
<title>Node1</title>
<g id="a_Node000001"><a xlink:title="Receive bytes from socket FD.">
<polygon fill="#999999" stroke="#666666" points="486,-54 348,-54 348,-24 486,-24 486,-54"/>
<text text-anchor="start" x="356" y="-42" font-family="Helvetica,sans-Serif" font-size="10.00">utility::socket::TCPSocket</text>
<text text-anchor="middle" x="417" y="-31" font-family="Helvetica,sans-Serif" font-size="10.00">::toRecv</text>
</a>
</g>
</g>
<!-- Node2 -->
<g id="Node000002" class="node">
<title>Node2</title>
<g id="a_Node000002"><a xlink:href="../../d1/daf/classutility_1_1socket_1_1TCPSocket.html#a9e6bf335b0aa20620c5fec4fcd00da72" target="_top" xlink:title="Create a thread to receive.">
<polygon fill="white" stroke="#666666" points="312,-54 174,-54 174,-24 312,-24 312,-54"/>
<text text-anchor="start" x="182" y="-42" font-family="Helvetica,sans-Serif" font-size="10.00">utility::socket::TCPSocket</text>
<text text-anchor="middle" x="243" y="-31" font-family="Helvetica,sans-Serif" font-size="10.00">::toReceive</text>
</a>
</g>
</g>
<!-- Node1&#45;&gt;Node2 -->
<g id="edge1_Node000001_Node000002" class="edge">
<title>Node1&#45;&gt;Node2</title>
<g id="a_edge1_Node000001_Node000002"><a xlink:title=" ">
<path fill="none" stroke="#63b8ff" d="M337.36,-39C328.97,-39 320.49,-39 312.24,-39"/>
<polygon fill="#63b8ff" stroke="#63b8ff" points="337.53,-42.5 347.53,-39 337.53,-35.5 337.53,-42.5"/>
</a>
</g>
</g>
<!-- Node3 -->
<g id="Node000003" class="node">
<title>Node3</title>
<g id="a_Node000003"><a xlink:href="../../de/de4/classutility_1_1socket_1_1TCPServer.html#a20bc6bdc19f7d6a5167047ef8c673b40" target="_top" xlink:title="Accept the connection on socket FD.">
<polygon fill="white" stroke="#666666" points="137.5,-78 0.5,-78 0.5,-48 137.5,-48 137.5,-78"/>
<text text-anchor="start" x="8.5" y="-66" font-family="Helvetica,sans-Serif" font-size="10.00">utility::socket::TCPServer</text>
<text text-anchor="middle" x="69" y="-55" font-family="Helvetica,sans-Serif" font-size="10.00">::toAccept</text>
</a>
</g>
</g>
<!-- Node2&#45;&gt;Node3 -->
<g id="edge2_Node000002_Node000003" class="edge">
<title>Node2&#45;&gt;Node3</title>
<g id="a_edge2_Node000002_Node000003"><a xlink:title=" ">
<path fill="none" stroke="#63b8ff" d="M163.48,-49.96C154.86,-51.16 146.14,-52.38 137.68,-53.56"/>
<polygon fill="#63b8ff" stroke="#63b8ff" points="164.11,-53.4 173.53,-48.55 163.14,-46.47 164.11,-53.4"/>
</a>
</g>
</g>
<!-- Node4 -->
<g id="Node000004" class="node">
<title>Node4</title>
<g id="a_Node000004"><a xlink:href="../../d1/daf/classutility_1_1socket_1_1TCPSocket.html#aa9ca7e929f74adeeb0a920984b9adf2f" target="_top" xlink:title="Open a connection on socket FD to peer.">
<polygon fill="white" stroke="#666666" points="138,-30 0,-30 0,0 138,0 138,-30"/>
<text text-anchor="start" x="8" y="-18" font-family="Helvetica,sans-Serif" font-size="10.00">utility::socket::TCPSocket</text>
<text text-anchor="middle" x="69" y="-7" font-family="Helvetica,sans-Serif" font-size="10.00">::toConnect</text>
</a>
</g>
</g>
<!-- Node2&#45;&gt;Node4 -->
<g id="edge3_Node000002_Node000004" class="edge">
<title>Node2&#45;&gt;Node4</title>
<g id="a_edge3_Node000002_Node000004"><a xlink:title=" ">
<path fill="none" stroke="#63b8ff" d="M163.36,-28.03C154.97,-26.86 146.49,-25.67 138.24,-24.52"/>
<polygon fill="#63b8ff" stroke="#63b8ff" points="163.14,-31.53 173.53,-29.45 164.11,-24.6 163.14,-31.53"/>
</a>
</g>
</g>
</g>
</svg>
