<?xml version="1.0" encoding="UTF-8" standalone="no"?>
<!DOCTYPE svg PUBLIC "-//W3C//DTD SVG 1.1//EN"
 "http://www.w3.org/Graphics/SVG/1.1/DTD/svg11.dtd">
<!-- Generated by graphviz version 2.43.0 (0)
 -->
<!-- Title: application::app_dp::behavioral::Behavioral::chainOfResponsibility Pages: 1 -->
<svg width="347pt" height="86pt"
 viewBox="0.00 0.00 347.00 86.00" xmlns="http://www.w3.org/2000/svg" xmlns:xlink="http://www.w3.org/1999/xlink">
<g id="graph0" class="graph" transform="scale(1 1) rotate(0) translate(4 82)">
<title>application::app_dp::behavioral::Behavioral::chainOfResponsibility</title>
<!-- Node1 -->
<g id="Node000001" class="node">
<title>Node1</title>
<g id="a_Node000001"><a xlink:title="Chain of responsibility.">
<polygon fill="#999999" stroke="#666666" points="339,-54 206,-54 206,-13 339,-13 339,-54"/>
<text text-anchor="start" x="214" y="-42" font-family="Helvetica,sans-Serif" font-size="10.00">application::app_dp</text>
<text text-anchor="start" x="214" y="-31" font-family="Helvetica,sans-Serif" font-size="10.00">::behavioral::Behavioral</text>
<text text-anchor="middle" x="272.5" y="-20" font-family="Helvetica,sans-Serif" font-size="10.00">::chainOfResponsibility</text>
</a>
</g>
</g>
<!-- Node2 -->
<g id="Node000002" class="node">
<title>Node2</title>
<g id="a_Node000002"><a xlink:href="../../d1/d45/classapplication_1_1app__dp_1_1behavioral_1_1BehavioralPattern.html#a5a43b76c5f398c758081a016e697dc6b" target="_top" xlink:title="The chain of responsibility instance.">
<polygon fill="white" stroke="#666666" points="170,-78 0,-78 0,-37 170,-37 170,-78"/>
<text text-anchor="start" x="8" y="-66" font-family="Helvetica,sans-Serif" font-size="10.00">application::app_dp</text>
<text text-anchor="start" x="8" y="-55" font-family="Helvetica,sans-Serif" font-size="10.00">::behavioral::BehavioralPattern</text>
<text text-anchor="middle" x="85" y="-44" font-family="Helvetica,sans-Serif" font-size="10.00">::chainOfResponsibilityInstance</text>
</a>
</g>
</g>
<!-- Node1&#45;&gt;Node2 -->
<g id="edge1_Node000001_Node000002" class="edge">
<title>Node1&#45;&gt;Node2</title>
<g id="a_edge1_Node000001_Node000002"><a xlink:title=" ">
<path fill="none" stroke="#63b8ff" d="M195.67,-43.31C187.24,-44.4 178.62,-45.52 170.09,-46.62"/>
<polygon fill="#63b8ff" stroke="#63b8ff" points="196.37,-46.75 205.84,-42 195.47,-39.81 196.37,-46.75"/>
</a>
</g>
</g>
<!-- Node3 -->
<g id="Node000003" class="node">
<title>Node3</title>
<g id="a_Node000003"><a xlink:href="../../d5/ddd/namespacetest_1_1tst__dp.html#ab53c88bcedcbe940435ef8127459636e" target="_top" xlink:title="Test for the chain of responsibility instance in the pattern of behavioral.">
<polygon fill="white" stroke="#666666" points="141.5,-19 28.5,-19 28.5,0 141.5,0 141.5,-19"/>
<text text-anchor="middle" x="85" y="-7" font-family="Helvetica,sans-Serif" font-size="10.00">test::tst_dp::TEST_F</text>
</a>
</g>
</g>
<!-- Node1&#45;&gt;Node3 -->
<g id="edge2_Node000001_Node000003" class="edge">
<title>Node1&#45;&gt;Node3</title>
<g id="a_edge2_Node000001_Node000003"><a xlink:title=" ">
<path fill="none" stroke="#63b8ff" d="M195.89,-23.72C177.78,-21.37 158.77,-18.91 141.74,-16.71"/>
<polygon fill="#63b8ff" stroke="#63b8ff" points="195.47,-27.19 205.84,-25 196.37,-20.25 195.47,-27.19"/>
</a>
</g>
</g>
</g>
</svg>
