<?xml version="1.0" encoding="UTF-8" standalone="no"?>
<!DOCTYPE svg PUBLIC "-//W3C//DTD SVG 1.1//EN"
 "http://www.w3.org/Graphics/SVG/1.1/DTD/svg11.dtd">
<!-- Generated by graphviz version 2.43.0 (0)
 -->
<!-- Title: application::app_dp::behavioral::Behavioral::iterator Pages: 1 -->
<svg width="344pt" height="86pt"
 viewBox="0.00 0.00 344.00 86.00" xmlns="http://www.w3.org/2000/svg" xmlns:xlink="http://www.w3.org/1999/xlink">
<g id="graph0" class="graph" transform="scale(1 1) rotate(0) translate(4 82)">
<title>application::app_dp::behavioral::Behavioral::iterator</title>
<!-- Node1 -->
<g id="Node000001" class="node">
<title>Node1</title>
<g id="a_Node000001"><a xlink:title="Iterator.">
<polygon fill="#999999" stroke="#666666" points="336,-54 203,-54 203,-13 336,-13 336,-54"/>
<text text-anchor="start" x="211" y="-42" font-family="Helvetica,sans-Serif" font-size="10.00">application::app_dp</text>
<text text-anchor="start" x="211" y="-31" font-family="Helvetica,sans-Serif" font-size="10.00">::behavioral::Behavioral</text>
<text text-anchor="middle" x="269.5" y="-20" font-family="Helvetica,sans-Serif" font-size="10.00">::iterator</text>
</a>
</g>
</g>
<!-- Node1&#45;&gt;Node1 -->
<g id="edge1_Node000001_Node000001" class="edge">
<title>Node1&#45;&gt;Node1</title>
<g id="a_edge1_Node000001_Node000001"><a xlink:title=" ">
<path fill="none" stroke="#63b8ff" d="M301.5,-63.96C296.74,-68.74 286.07,-72 269.5,-72 242.98,-72 231.59,-63.65 235.31,-54.1"/>
<polygon fill="#63b8ff" stroke="#63b8ff" points="304.94,-64.62 303.69,-54.1 298.11,-63.1 304.94,-64.62"/>
</a>
</g>
</g>
<!-- Node2 -->
<g id="Node000002" class="node">
<title>Node2</title>
<g id="a_Node000002"><a xlink:href="../../d1/d45/classapplication_1_1app__dp_1_1behavioral_1_1BehavioralPattern.html#a9b2f9e77caaf164aeb0095e17e876479" target="_top" xlink:title="The iterator instance.">
<polygon fill="white" stroke="#666666" points="167,-78 0,-78 0,-37 167,-37 167,-78"/>
<text text-anchor="start" x="8" y="-66" font-family="Helvetica,sans-Serif" font-size="10.00">application::app_dp</text>
<text text-anchor="start" x="8" y="-55" font-family="Helvetica,sans-Serif" font-size="10.00">::behavioral::BehavioralPattern</text>
<text text-anchor="middle" x="83.5" y="-44" font-family="Helvetica,sans-Serif" font-size="10.00">::iteratorInstance</text>
</a>
</g>
</g>
<!-- Node1&#45;&gt;Node2 -->
<g id="edge2_Node000001_Node000002" class="edge">
<title>Node1&#45;&gt;Node2</title>
<g id="a_edge2_Node000001_Node000002"><a xlink:title=" ">
<path fill="none" stroke="#63b8ff" d="M192.69,-43.39C184.28,-44.49 175.67,-45.61 167.17,-46.72"/>
<polygon fill="#63b8ff" stroke="#63b8ff" points="193.39,-46.83 202.85,-42.06 192.48,-39.89 193.39,-46.83"/>
</a>
</g>
</g>
<!-- Node3 -->
<g id="Node000003" class="node">
<title>Node3</title>
<g id="a_Node000003"><a xlink:href="../../d5/ddd/namespacetest_1_1tst__dp.html#a650a8a0e85f0034252d58293fc2017ad" target="_top" xlink:title="Test for the iterator instance in the pattern of behavioral.">
<polygon fill="white" stroke="#666666" points="140,-19 27,-19 27,0 140,0 140,-19"/>
<text text-anchor="middle" x="83.5" y="-7" font-family="Helvetica,sans-Serif" font-size="10.00">test::tst_dp::TEST_F</text>
</a>
</g>
</g>
<!-- Node1&#45;&gt;Node3 -->
<g id="edge3_Node000001_Node000003" class="edge">
<title>Node1&#45;&gt;Node3</title>
<g id="a_edge3_Node000001_Node000003"><a xlink:title=" ">
<path fill="none" stroke="#63b8ff" d="M192.61,-23.6C175.02,-21.31 156.62,-18.91 140.09,-16.75"/>
<polygon fill="#63b8ff" stroke="#63b8ff" points="192.48,-27.11 202.85,-24.94 193.39,-20.17 192.48,-27.11"/>
</a>
</g>
</g>
</g>
</svg>
