<?xml version="1.0" encoding="UTF-8" standalone="no"?>
<!DOCTYPE svg PUBLIC "-//W3C//DTD SVG 1.1//EN"
 "http://www.w3.org/Graphics/SVG/1.1/DTD/svg11.dtd">
<!-- Generated by graphviz version 2.43.0 (0)
 -->
<!-- Title: design_pattern::behavioral::interpreter::NonTerminalExpression Pages: 1 -->
<svg width="810pt" height="98pt"
 viewBox="0.00 0.00 810.00 97.50" xmlns="http://www.w3.org/2000/svg" xmlns:xlink="http://www.w3.org/1999/xlink">
<g id="graph0" class="graph" transform="scale(1 1) rotate(0) translate(4 93.5)">
<title>design_pattern::behavioral::interpreter::NonTerminalExpression</title>
<!-- Node1 -->
<g id="Node000001" class="node">
<title>Node1</title>
<g id="a_Node000001"><a xlink:title="The non&#45;terminal interpret operation. One such class is required for every rule in grammar.">
<polygon fill="#999999" stroke="#666666" points="802,-62.5 607,-62.5 607,-32.5 802,-32.5 802,-62.5"/>
<text text-anchor="start" x="615" y="-50.5" font-family="Helvetica,sans-Serif" font-size="10.00">design_pattern::behavioral</text>
<text text-anchor="middle" x="704.5" y="-39.5" font-family="Helvetica,sans-Serif" font-size="10.00">::interpreter::NonTerminalExpression</text>
</a>
</g>
</g>
<!-- Node2 -->
<g id="Node000002" class="node">
<title>Node2</title>
<g id="a_Node000002"><a xlink:href="../../dd/d49/classdesign__pattern_1_1behavioral_1_1interpreter_1_1AbstractExpression.html" target="_top" xlink:title="The abstract interpret operation.">
<polygon fill="white" stroke="#666666" points="531.5,-89.5 357.5,-89.5 357.5,-59.5 531.5,-59.5 531.5,-89.5"/>
<text text-anchor="start" x="365.5" y="-77.5" font-family="Helvetica,sans-Serif" font-size="10.00">design_pattern::behavioral</text>
<text text-anchor="middle" x="444.5" y="-66.5" font-family="Helvetica,sans-Serif" font-size="10.00">::interpreter::AbstractExpression</text>
</a>
</g>
</g>
<!-- Node2&#45;&gt;Node1 -->
<g id="edge1_Node000001_Node000002" class="edge">
<title>Node2&#45;&gt;Node1</title>
<g id="a_edge1_Node000001_Node000002"><a xlink:title=" ">
<path fill="none" stroke="#63b8ff" d="M541.74,-64.43C562.94,-62.21 585.41,-59.86 606.64,-57.64"/>
<polygon fill="#63b8ff" stroke="#63b8ff" points="541.35,-60.95 531.77,-65.47 542.08,-67.91 541.35,-60.95"/>
</a>
</g>
</g>
<!-- Node3 -->
<g id="Node000003" class="node">
<title>Node3</title>
<g id="a_Node000003"><a target="_parent" xlink:href="https://gcc.gnu.org/onlinedocs/gcc-12.3.0/libstdc++/api/a07571.html" xlink:title=" ">
<polygon fill="white" stroke="#666666" points="534,-41 355,-41 355,0 534,0 534,-41"/>
<text text-anchor="start" x="363" y="-29" font-family="Helvetica,sans-Serif" font-size="10.00">std::shared_ptr&lt; design</text>
<text text-anchor="start" x="363" y="-18" font-family="Helvetica,sans-Serif" font-size="10.00">_pattern::behavioral::</text>
<text text-anchor="middle" x="444.5" y="-7" font-family="Helvetica,sans-Serif" font-size="10.00">interpreter::AbstractExpression &gt;</text>
</a>
</g>
</g>
<!-- Node3&#45;&gt;Node1 -->
<g id="edge2_Node000001_Node000003" class="edge">
<title>Node3&#45;&gt;Node1</title>
<g id="a_edge2_Node000001_Node000003"><a xlink:title=" ">
<path fill="none" stroke="#9a32cd" stroke-dasharray="5,2" d="M544.59,-29.07C559.48,-30.47 574.65,-31.97 589,-33.5 594.78,-34.11 600.71,-34.77 606.7,-35.45"/>
<polygon fill="#9a32cd" stroke="#9a32cd" points="544.62,-25.56 534.34,-28.11 543.97,-32.53 544.62,-25.56"/>
</a>
</g>
<text text-anchor="middle" x="570.5" y="-47.5" font-family="Helvetica,sans-Serif" font-size="10.00" fill="grey"> leftOp</text>
<text text-anchor="middle" x="570.5" y="-36.5" font-family="Helvetica,sans-Serif" font-size="10.00" fill="grey">rightOp</text>
</g>
<!-- Node4 -->
<g id="Node000004" class="node">
<title>Node4</title>
<g id="a_Node000004"><a target="_parent" xlink:href="https://gcc.gnu.org/onlinedocs/gcc-12.3.0/libstdc++/api/a07571.html" xlink:title=" ">
<polygon fill="white" stroke="#666666" points="150,-35.5 0,-35.5 0,-5.5 150,-5.5 150,-35.5"/>
<text text-anchor="start" x="8" y="-23.5" font-family="Helvetica,sans-Serif" font-size="10.00">std::shared_ptr&lt; typename</text>
<text text-anchor="middle" x="75" y="-12.5" font-family="Helvetica,sans-Serif" font-size="10.00"> _Tp &gt;</text>
</a>
</g>
</g>
<!-- Node4&#45;&gt;Node3 -->
<g id="edge3_Node000003_Node000004" class="edge">
<title>Node4&#45;&gt;Node3</title>
<g id="a_edge3_Node000003_Node000004"><a xlink:title=" ">
<path fill="none" stroke="orange" stroke-dasharray="5,2" d="M160.64,-20.5C218.84,-20.5 295.98,-20.5 354.99,-20.5"/>
<polygon fill="orange" stroke="orange" points="160.37,-17 150.37,-20.5 160.37,-24 160.37,-17"/>
</a>
</g>
<text text-anchor="start" x="168" y="-34.5" font-family="Helvetica,sans-Serif" font-size="10.00" fill="grey"> &lt; design_pattern::behavioral</text>
<text text-anchor="middle" x="252.5" y="-23.5" font-family="Helvetica,sans-Serif" font-size="10.00" fill="grey">::interpreter::AbstractExpression &gt;</text>
</g>
</g>
</svg>
