<?xml version="1.0" encoding="UTF-8" standalone="no"?>
<!DOCTYPE svg PUBLIC "-//W3C//DTD SVG 1.1//EN"
 "http://www.w3.org/Graphics/SVG/1.1/DTD/svg11.dtd">
<!-- Generated by graphviz version 2.43.0 (0)
 -->
<!-- Title: numeric::integral::Integral Pages: 1 -->
<svg width="256pt" height="230pt"
 viewBox="0.00 0.00 256.00 230.00" xmlns="http://www.w3.org/2000/svg" xmlns:xlink="http://www.w3.org/1999/xlink">
<g id="graph0" class="graph" transform="scale(1 1) rotate(0) translate(4 226)">
<title>numeric::integral::Integral</title>
<!-- Node1 -->
<g id="Node000001" class="node">
<title>Node1</title>
<g id="a_Node000001"><a xlink:title="Integral methods.">
<polygon fill="#999999" stroke="#666666" points="106,-126 0,-126 0,-96 106,-96 106,-126"/>
<text text-anchor="start" x="8" y="-114" font-family="Helvetica,sans-Serif" font-size="10.00">numeric::integral::</text>
<text text-anchor="middle" x="53" y="-103" font-family="Helvetica,sans-Serif" font-size="10.00">Integral</text>
</a>
</g>
</g>
<!-- Node2 -->
<g id="Node000002" class="node">
<title>Node2</title>
<g id="a_Node000002"><a xlink:href="../../d2/dcf/classnumeric_1_1integral_1_1Gauss.html" target="_top" xlink:title="The Gauss&#45;Legendre&#39;s 5&#45;points method.">
<polygon fill="white" stroke="#666666" points="248,-222 142,-222 142,-192 248,-192 248,-222"/>
<text text-anchor="start" x="150" y="-210" font-family="Helvetica,sans-Serif" font-size="10.00">numeric::integral::</text>
<text text-anchor="middle" x="195" y="-199" font-family="Helvetica,sans-Serif" font-size="10.00">Gauss</text>
</a>
</g>
</g>
<!-- Node1&#45;&gt;Node2 -->
<g id="edge1_Node000001_Node000002" class="edge">
<title>Node1&#45;&gt;Node2</title>
<g id="a_edge1_Node000001_Node000002"><a xlink:title=" ">
<path fill="none" stroke="#63b8ff" d="M77.69,-133.18C94.72,-148.41 118.7,-168.42 142,-183 147.06,-186.16 152.6,-189.16 158.12,-191.9"/>
<polygon fill="#63b8ff" stroke="#63b8ff" points="79.67,-130.26 69.92,-126.13 74.97,-135.44 79.67,-130.26"/>
</a>
</g>
</g>
<!-- Node3 -->
<g id="Node000003" class="node">
<title>Node3</title>
<g id="a_Node000003"><a xlink:href="../../d0/d64/classnumeric_1_1integral_1_1MonteCarlo.html" target="_top" xlink:title="The Monte&#45;Carlo method.">
<polygon fill="white" stroke="#666666" points="248,-174 142,-174 142,-144 248,-144 248,-174"/>
<text text-anchor="start" x="150" y="-162" font-family="Helvetica,sans-Serif" font-size="10.00">numeric::integral::</text>
<text text-anchor="middle" x="195" y="-151" font-family="Helvetica,sans-Serif" font-size="10.00">MonteCarlo</text>
</a>
</g>
</g>
<!-- Node1&#45;&gt;Node3 -->
<g id="edge2_Node000001_Node000003" class="edge">
<title>Node1&#45;&gt;Node3</title>
<g id="a_edge2_Node000001_Node000003"><a xlink:title=" ">
<path fill="none" stroke="#63b8ff" d="M107.51,-129.35C121.63,-134.19 136.7,-139.36 150.24,-144"/>
<polygon fill="#63b8ff" stroke="#63b8ff" points="108.51,-125.99 97.91,-126.06 106.24,-132.61 108.51,-125.99"/>
</a>
</g>
</g>
<!-- Node4 -->
<g id="Node000004" class="node">
<title>Node4</title>
<g id="a_Node000004"><a xlink:href="../../d5/d9e/classnumeric_1_1integral_1_1Romberg.html" target="_top" xlink:title="The Romberg method.">
<polygon fill="white" stroke="#666666" points="248,-126 142,-126 142,-96 248,-96 248,-126"/>
<text text-anchor="start" x="150" y="-114" font-family="Helvetica,sans-Serif" font-size="10.00">numeric::integral::</text>
<text text-anchor="middle" x="195" y="-103" font-family="Helvetica,sans-Serif" font-size="10.00">Romberg</text>
</a>
</g>
</g>
<!-- Node1&#45;&gt;Node4 -->
<g id="edge3_Node000001_Node000004" class="edge">
<title>Node1&#45;&gt;Node4</title>
<g id="a_edge3_Node000001_Node000004"><a xlink:title=" ">
<path fill="none" stroke="#63b8ff" d="M116.39,-111C124.88,-111 133.53,-111 141.83,-111"/>
<polygon fill="#63b8ff" stroke="#63b8ff" points="116.13,-107.5 106.13,-111 116.13,-114.5 116.13,-107.5"/>
</a>
</g>
</g>
<!-- Node5 -->
<g id="Node000005" class="node">
<title>Node5</title>
<g id="a_Node000005"><a xlink:href="../../d2/d45/classnumeric_1_1integral_1_1Simpson.html" target="_top" xlink:title="The adaptive Simpson&#39;s 1/3 method.">
<polygon fill="white" stroke="#666666" points="248,-78 142,-78 142,-48 248,-48 248,-78"/>
<text text-anchor="start" x="150" y="-66" font-family="Helvetica,sans-Serif" font-size="10.00">numeric::integral::</text>
<text text-anchor="middle" x="195" y="-55" font-family="Helvetica,sans-Serif" font-size="10.00">Simpson</text>
</a>
</g>
</g>
<!-- Node1&#45;&gt;Node5 -->
<g id="edge4_Node000001_Node000005" class="edge">
<title>Node1&#45;&gt;Node5</title>
<g id="a_edge4_Node000001_Node000005"><a xlink:title=" ">
<path fill="none" stroke="#63b8ff" d="M107.51,-92.65C121.63,-87.81 136.7,-82.64 150.24,-78"/>
<polygon fill="#63b8ff" stroke="#63b8ff" points="106.24,-89.39 97.91,-95.94 108.51,-96.01 106.24,-89.39"/>
</a>
</g>
</g>
<!-- Node6 -->
<g id="Node000006" class="node">
<title>Node6</title>
<g id="a_Node000006"><a xlink:href="../../d0/d64/classnumeric_1_1integral_1_1Trapezoidal.html" target="_top" xlink:title="The trapezoidal method.">
<polygon fill="white" stroke="#666666" points="248,-30 142,-30 142,0 248,0 248,-30"/>
<text text-anchor="start" x="150" y="-18" font-family="Helvetica,sans-Serif" font-size="10.00">numeric::integral::</text>
<text text-anchor="middle" x="195" y="-7" font-family="Helvetica,sans-Serif" font-size="10.00">Trapezoidal</text>
</a>
</g>
</g>
<!-- Node1&#45;&gt;Node6 -->
<g id="edge5_Node000001_Node000006" class="edge">
<title>Node1&#45;&gt;Node6</title>
<g id="a_edge5_Node000001_Node000006"><a xlink:title=" ">
<path fill="none" stroke="#63b8ff" d="M77.69,-88.82C94.72,-73.59 118.7,-53.58 142,-39 147.06,-35.84 152.6,-32.84 158.12,-30.1"/>
<polygon fill="#63b8ff" stroke="#63b8ff" points="74.97,-86.56 69.92,-95.87 79.67,-91.74 74.97,-86.56"/>
</a>
</g>
</g>
</g>
</svg>
