<?xml version="1.0" encoding="UTF-8" standalone="no"?>
<!DOCTYPE svg PUBLIC "-//W3C//DTD SVG 1.1//EN"
 "http://www.w3.org/Graphics/SVG/1.1/DTD/svg11.dtd">
<!-- Generated by graphviz version 2.43.0 (0)
 -->
<!-- Title: application::app_num::NumericTask Pages: 1 -->
<svg width="1197pt" height="309pt"
 viewBox="0.00 0.00 1197.00 309.28" xmlns="http://www.w3.org/2000/svg" xmlns:xlink="http://www.w3.org/1999/xlink">
<g id="graph0" class="graph" transform="scale(1 1) rotate(0) translate(4 305.28)">
<title>application::app_num::NumericTask</title>
<!-- Node1 -->
<g id="Node000001" class="node">
<title>Node1</title>
<g id="a_Node000001"><a xlink:title="Manage numeric tasks.">
<polygon fill="#999999" stroke="#666666" points="1189,-160.56 1067,-160.56 1067,-130.56 1189,-130.56 1189,-160.56"/>
<text text-anchor="start" x="1075" y="-148.56" font-family="Helvetica,sans-Serif" font-size="10.00">application::app_num</text>
<text text-anchor="middle" x="1128" y="-137.56" font-family="Helvetica,sans-Serif" font-size="10.00">::NumericTask</text>
</a>
</g>
</g>
<!-- Node2 -->
<g id="Node000002" class="node">
<title>Node2</title>
<g id="a_Node000002"><a target="_parent" xlink:href="https://gcc.gnu.org/onlinedocs/gcc-12.3.0/libstdc++/api/a02103.html" xlink:title=" ">
<polygon fill="white" stroke="#666666" points="964,-196.06 755,-196.06 755,-155.06 964,-155.06 964,-196.06"/>
<text text-anchor="start" x="763" y="-184.06" font-family="Helvetica,sans-Serif" font-size="10.00">std::bitset&lt; application</text>
<text text-anchor="start" x="763" y="-173.06" font-family="Helvetica,sans-Serif" font-size="10.00">::app_num::Bottom&lt; ArithmeticMethod</text>
<text text-anchor="middle" x="859.5" y="-162.06" font-family="Helvetica,sans-Serif" font-size="10.00"> &gt;::value &gt;</text>
</a>
</g>
</g>
<!-- Node2&#45;&gt;Node1 -->
<g id="edge1_Node000001_Node000002" class="edge">
<title>Node2&#45;&gt;Node1</title>
<g id="a_edge1_Node000001_Node000002"><a xlink:title=" ">
<path fill="none" stroke="#9a32cd" stroke-dasharray="5,2" d="M974.56,-162.72C1006.36,-159.14 1039.64,-155.4 1066.97,-152.32"/>
<polygon fill="#9a32cd" stroke="#9a32cd" points="973.84,-159.28 964.3,-163.88 974.63,-166.24 973.84,-159.28"/>
</a>
</g>
<text text-anchor="middle" x="1015.5" y="-163.56" font-family="Helvetica,sans-Serif" font-size="10.00" fill="grey"> arithmeticBit</text>
</g>
<!-- Node3 -->
<g id="Node000003" class="node">
<title>Node3</title>
<g id="a_Node000003"><a target="_parent" xlink:href="https://gcc.gnu.org/onlinedocs/gcc-12.3.0/libstdc++/api/a02075.html" xlink:title=" ">
<polygon fill="white" stroke="#666666" points="408,-183.56 265,-183.56 265,-109.56 408,-109.56 408,-183.56"/>
<text text-anchor="start" x="273" y="-171.56" font-family="Helvetica,sans-Serif" font-size="10.00">std::_Base_bitset&lt;</text>
<text text-anchor="start" x="273" y="-160.56" font-family="Helvetica,sans-Serif" font-size="10.00">((_Nb)/(__CHAR_BIT_</text>
<text text-anchor="start" x="273" y="-149.56" font-family="Helvetica,sans-Serif" font-size="10.00">_ *__SIZEOF_LONG__)+</text>
<text text-anchor="start" x="273" y="-138.56" font-family="Helvetica,sans-Serif" font-size="10.00">((_Nb) %(__CHAR_BIT__</text>
<text text-anchor="start" x="273" y="-127.56" font-family="Helvetica,sans-Serif" font-size="10.00"> *__SIZEOF_LONG__)==0 </text>
<text text-anchor="middle" x="336.5" y="-116.56" font-family="Helvetica,sans-Serif" font-size="10.00">? 0 :1))&gt;</text>
</a>
</g>
</g>
<!-- Node3&#45;&gt;Node2 -->
<g id="edge2_Node000002_Node000003" class="edge">
<title>Node3&#45;&gt;Node2</title>
<g id="a_edge2_Node000002_Node000003"><a xlink:title=" ">
<path fill="none" stroke="#8b1a1a" d="M400.56,-189.23C445.17,-216.73 507.57,-249.99 568,-264.56 641.02,-282.17 676.63,-309.26 737,-264.56 759.03,-248.25 735.48,-224.81 755,-205.56 758.6,-202.02 762.59,-198.88 766.85,-196.12"/>
<polygon fill="#8b1a1a" stroke="#8b1a1a" points="402.21,-186.14 391.88,-183.81 398.51,-192.07 402.21,-186.14"/>
</a>
</g>
</g>
<!-- Node5 -->
<g id="Node000005" class="node">
<title>Node5</title>
<g id="a_Node000005"><a target="_parent" xlink:href="https://gcc.gnu.org/onlinedocs/gcc-12.3.0/libstdc++/api/a02103.html" xlink:title=" ">
<polygon fill="white" stroke="#666666" points="550,-161.56 445,-161.56 445,-131.56 550,-131.56 550,-161.56"/>
<text text-anchor="start" x="453" y="-149.56" font-family="Helvetica,sans-Serif" font-size="10.00">std::bitset&lt; size_t</text>
<text text-anchor="middle" x="497.5" y="-138.56" font-family="Helvetica,sans-Serif" font-size="10.00"> _Nb &gt;</text>
</a>
</g>
</g>
<!-- Node3&#45;&gt;Node5 -->
<g id="edge5_Node000005_Node000003" class="edge">
<title>Node3&#45;&gt;Node5</title>
<g id="a_edge5_Node000005_Node000003"><a xlink:title=" ">
<path fill="none" stroke="#8b1a1a" d="M418.27,-146.56C427.24,-146.56 436.19,-146.56 444.65,-146.56"/>
<polygon fill="#8b1a1a" stroke="#8b1a1a" points="418.17,-143.06 408.17,-146.56 418.17,-150.06 418.17,-143.06"/>
</a>
</g>
</g>
<!-- Node6 -->
<g id="Node000006" class="node">
<title>Node6</title>
<g id="a_Node000006"><a target="_parent" xlink:href="https://gcc.gnu.org/onlinedocs/gcc-12.3.0/libstdc++/api/a02103.html" xlink:title=" ">
<polygon fill="white" stroke="#666666" points="955.5,-255.06 763.5,-255.06 763.5,-214.06 955.5,-214.06 955.5,-255.06"/>
<text text-anchor="start" x="771.5" y="-243.06" font-family="Helvetica,sans-Serif" font-size="10.00">std::bitset&lt; application</text>
<text text-anchor="start" x="771.5" y="-232.06" font-family="Helvetica,sans-Serif" font-size="10.00">::app_num::Bottom&lt; DivisorMethod</text>
<text text-anchor="middle" x="859.5" y="-221.06" font-family="Helvetica,sans-Serif" font-size="10.00"> &gt;::value &gt;</text>
</a>
</g>
</g>
<!-- Node3&#45;&gt;Node6 -->
<g id="edge7_Node000006_Node000003" class="edge">
<title>Node3&#45;&gt;Node6</title>
<g id="a_edge7_Node000006_Node000003"><a xlink:title=" ">
<path fill="none" stroke="#8b1a1a" d="M374.86,-191.1C394.04,-211.61 418.84,-234.82 445,-250.56 494.26,-280.2 511.22,-281.56 568,-290.56 642.18,-302.32 663.63,-306.66 737,-290.56 768.08,-283.74 800.69,-268.19 824.29,-255.19"/>
<polygon fill="#8b1a1a" stroke="#8b1a1a" points="377.4,-188.69 368.06,-183.69 372.24,-193.42 377.4,-188.69"/>
</a>
</g>
</g>
<!-- Node7 -->
<g id="Node000007" class="node">
<title>Node7</title>
<g id="a_Node000007"><a target="_parent" xlink:href="https://gcc.gnu.org/onlinedocs/gcc-12.3.0/libstdc++/api/a02103.html" xlink:title=" ">
<polygon fill="white" stroke="#666666" points="957,-78.06 762,-78.06 762,-37.06 957,-37.06 957,-78.06"/>
<text text-anchor="start" x="770" y="-66.06" font-family="Helvetica,sans-Serif" font-size="10.00">std::bitset&lt; application</text>
<text text-anchor="start" x="770" y="-55.06" font-family="Helvetica,sans-Serif" font-size="10.00">::app_num::Bottom&lt; IntegralMethod</text>
<text text-anchor="middle" x="859.5" y="-44.06" font-family="Helvetica,sans-Serif" font-size="10.00"> &gt;::value &gt;</text>
</a>
</g>
</g>
<!-- Node3&#45;&gt;Node7 -->
<g id="edge10_Node000007_Node000003" class="edge">
<title>Node3&#45;&gt;Node7</title>
<g id="a_edge10_Node000007_Node000003"><a xlink:title=" ">
<path fill="none" stroke="#8b1a1a" d="M374.37,-101.77C393.43,-81.4 418.28,-58.73 445,-44.56 560.14,16.5 608.31,3.08 737,-17.56 761.01,-21.41 786.71,-29.29 808.26,-37.04"/>
<polygon fill="#8b1a1a" stroke="#8b1a1a" points="371.78,-99.41 367.61,-109.15 376.95,-104.14 371.78,-99.41"/>
</a>
</g>
</g>
<!-- Node8 -->
<g id="Node000008" class="node">
<title>Node8</title>
<g id="a_Node000008"><a target="_parent" xlink:href="https://gcc.gnu.org/onlinedocs/gcc-12.3.0/libstdc++/api/a02103.html" xlink:title=" ">
<polygon fill="white" stroke="#666666" points="952.5,-137.06 766.5,-137.06 766.5,-96.06 952.5,-96.06 952.5,-137.06"/>
<text text-anchor="start" x="774.5" y="-125.06" font-family="Helvetica,sans-Serif" font-size="10.00">std::bitset&lt; application</text>
<text text-anchor="start" x="774.5" y="-114.06" font-family="Helvetica,sans-Serif" font-size="10.00">::app_num::Bottom&lt; PrimeMethod</text>
<text text-anchor="middle" x="859.5" y="-103.06" font-family="Helvetica,sans-Serif" font-size="10.00"> &gt;::value &gt;</text>
</a>
</g>
</g>
<!-- Node3&#45;&gt;Node8 -->
<g id="edge13_Node000008_Node000003" class="edge">
<title>Node3&#45;&gt;Node8</title>
<g id="a_edge13_Node000008_Node000003"><a xlink:title=" ">
<path fill="none" stroke="#8b1a1a" d="M409.98,-104.68C454.09,-81.65 512.46,-55.41 568,-43.56 641.46,-27.9 674.47,-1.95 737,-43.56 754.25,-55.04 739.54,-72.77 755,-86.56 758.91,-90.05 763.2,-93.13 767.75,-95.86"/>
<polygon fill="#8b1a1a" stroke="#8b1a1a" points="408.28,-101.62 401.08,-109.39 411.55,-107.81 408.28,-101.62"/>
</a>
</g>
</g>
<!-- Node4 -->
<g id="Node000004" class="node">
<title>Node4</title>
<g id="a_Node000004"><a target="_parent" xlink:href="https://gcc.gnu.org/onlinedocs/gcc-12.3.0/libstdc++/api/a02075.html" xlink:title=" ">
<polygon fill="white" stroke="#666666" points="108,-161.56 0,-161.56 0,-131.56 108,-131.56 108,-161.56"/>
<text text-anchor="start" x="8" y="-149.56" font-family="Helvetica,sans-Serif" font-size="10.00">std::_Base_bitset&lt;</text>
<text text-anchor="middle" x="54" y="-138.56" font-family="Helvetica,sans-Serif" font-size="10.00"> size_t _Nw &gt;</text>
</a>
</g>
</g>
<!-- Node4&#45;&gt;Node3 -->
<g id="edge3_Node000003_Node000004" class="edge">
<title>Node4&#45;&gt;Node3</title>
<g id="a_edge3_Node000003_Node000004"><a xlink:title=" ">
<path fill="none" stroke="orange" stroke-dasharray="5,2" d="M118.28,-146.56C161.85,-146.56 219.79,-146.56 264.87,-146.56"/>
<polygon fill="orange" stroke="orange" points="118.09,-143.06 108.09,-146.56 118.09,-150.06 118.09,-143.06"/>
</a>
</g>
<text text-anchor="start" x="126" y="-193.56" font-family="Helvetica,sans-Serif" font-size="10.00" fill="grey"> &lt;((_Nb)/(__CHAR_BIT</text>
<text text-anchor="start" x="126" y="-182.56" font-family="Helvetica,sans-Serif" font-size="10.00" fill="grey">__ *__SIZEOF_LONG__)</text>
<text text-anchor="start" x="126" y="-171.56" font-family="Helvetica,sans-Serif" font-size="10.00" fill="grey">+((_Nb) %(__CHAR_BIT</text>
<text text-anchor="start" x="126" y="-160.56" font-family="Helvetica,sans-Serif" font-size="10.00" fill="grey">__ *__SIZEOF_LONG__)=</text>
<text text-anchor="middle" x="186.5" y="-149.56" font-family="Helvetica,sans-Serif" font-size="10.00" fill="grey">=0 ? 0 :1))&gt;</text>
</g>
<!-- Node5&#45;&gt;Node2 -->
<g id="edge4_Node000002_Node000005" class="edge">
<title>Node5&#45;&gt;Node2</title>
<g id="a_edge4_Node000002_Node000005"><a xlink:title=" ">
<path fill="none" stroke="orange" stroke-dasharray="5,2" d="M560.27,-151.92C562.88,-152.14 565.47,-152.35 568,-152.56 630.02,-157.69 699.5,-163.2 754.96,-167.54"/>
<polygon fill="orange" stroke="orange" points="560.37,-148.41 550.11,-151.06 559.78,-155.39 560.37,-148.41"/>
</a>
</g>
<text text-anchor="start" x="568" y="-190.56" font-family="Helvetica,sans-Serif" font-size="10.00" fill="grey"> &lt; application::app</text>
<text text-anchor="start" x="568" y="-179.56" font-family="Helvetica,sans-Serif" font-size="10.00" fill="grey">_num::Bottom&lt; ArithmeticMethod</text>
<text text-anchor="middle" x="652.5" y="-168.56" font-family="Helvetica,sans-Serif" font-size="10.00" fill="grey"> &gt;::value &gt;</text>
</g>
<!-- Node5&#45;&gt;Node6 -->
<g id="edge8_Node000006_Node000005" class="edge">
<title>Node5&#45;&gt;Node6</title>
<g id="a_edge8_Node000006_Node000005"><a xlink:title=" ">
<path fill="none" stroke="orange" stroke-dasharray="5,2" d="M519.65,-168.99C532.44,-181.05 549.75,-194.98 568,-202.56 629.73,-228.22 704.86,-235.95 763.25,-237.4"/>
<polygon fill="orange" stroke="orange" points="521.9,-166.29 512.31,-161.79 517,-171.29 521.9,-166.29"/>
</a>
</g>
<text text-anchor="start" x="576.5" y="-260.56" font-family="Helvetica,sans-Serif" font-size="10.00" fill="grey"> &lt; application::app</text>
<text text-anchor="start" x="576.5" y="-249.56" font-family="Helvetica,sans-Serif" font-size="10.00" fill="grey">_num::Bottom&lt; DivisorMethod</text>
<text text-anchor="middle" x="652.5" y="-238.56" font-family="Helvetica,sans-Serif" font-size="10.00" fill="grey"> &gt;::value &gt;</text>
</g>
<!-- Node5&#45;&gt;Node7 -->
<g id="edge11_Node000007_Node000005" class="edge">
<title>Node5&#45;&gt;Node7</title>
<g id="a_edge11_Node000007_Node000005"><a xlink:title=" ">
<path fill="none" stroke="orange" stroke-dasharray="5,2" d="M511.96,-122.67C523.97,-103.94 543.45,-79.18 568,-67.56 627.99,-39.19 703,-37.32 761.77,-42.22"/>
<polygon fill="orange" stroke="orange" points="508.91,-120.94 506.67,-131.3 514.88,-124.6 508.91,-120.94"/>
</a>
</g>
<text text-anchor="start" x="575" y="-92.56" font-family="Helvetica,sans-Serif" font-size="10.00" fill="grey"> &lt; application::app</text>
<text text-anchor="start" x="575" y="-81.56" font-family="Helvetica,sans-Serif" font-size="10.00" fill="grey">_num::Bottom&lt; IntegralMethod</text>
<text text-anchor="middle" x="652.5" y="-70.56" font-family="Helvetica,sans-Serif" font-size="10.00" fill="grey"> &gt;::value &gt;</text>
</g>
<!-- Node5&#45;&gt;Node8 -->
<g id="edge14_Node000008_Node000005" class="edge">
<title>Node5&#45;&gt;Node8</title>
<g id="a_edge14_Node000008_Node000005"><a xlink:title=" ">
<path fill="none" stroke="orange" stroke-dasharray="5,2" d="M534.58,-127.04C545.05,-122.33 556.72,-117.96 568,-115.56 633.24,-101.67 708.6,-102.4 766.21,-106.35"/>
<polygon fill="orange" stroke="orange" points="532.87,-123.98 525.33,-131.42 535.87,-130.31 532.87,-123.98"/>
</a>
</g>
<text text-anchor="start" x="579.5" y="-140.56" font-family="Helvetica,sans-Serif" font-size="10.00" fill="grey"> &lt; application::app</text>
<text text-anchor="start" x="579.5" y="-129.56" font-family="Helvetica,sans-Serif" font-size="10.00" fill="grey">_num::Bottom&lt; PrimeMethod</text>
<text text-anchor="middle" x="652.5" y="-118.56" font-family="Helvetica,sans-Serif" font-size="10.00" fill="grey"> &gt;::value &gt;</text>
</g>
<!-- Node6&#45;&gt;Node1 -->
<g id="edge6_Node000001_Node000006" class="edge">
<title>Node6&#45;&gt;Node1</title>
<g id="a_edge6_Node000001_Node000006"><a xlink:title=" ">
<path fill="none" stroke="#9a32cd" stroke-dasharray="5,2" d="M945.84,-211.13C952,-209.29 958.1,-207.43 964,-205.56 1002.2,-193.48 1011.41,-189.42 1049,-175.56 1061.93,-170.79 1076.01,-165.43 1088.6,-160.58"/>
<polygon fill="#9a32cd" stroke="#9a32cd" points="944.74,-207.81 936.14,-213.99 946.72,-214.52 944.74,-207.81"/>
</a>
</g>
<text text-anchor="middle" x="1015.5" y="-202.56" font-family="Helvetica,sans-Serif" font-size="10.00" fill="grey"> divisorBit</text>
</g>
<!-- Node7&#45;&gt;Node1 -->
<g id="edge9_Node000001_Node000007" class="edge">
<title>Node7&#45;&gt;Node1</title>
<g id="a_edge9_Node000001_Node000007"><a xlink:title=" ">
<path fill="none" stroke="#9a32cd" stroke-dasharray="5,2" d="M945.25,-80.97C951.6,-82.83 957.91,-84.71 964,-86.56 1002.05,-98.15 1011.61,-100.99 1049,-114.56 1062.56,-119.49 1077.3,-125.24 1090.27,-130.44"/>
<polygon fill="#9a32cd" stroke="#9a32cd" points="945.82,-77.49 935.24,-78.07 943.87,-84.22 945.82,-77.49"/>
</a>
</g>
<text text-anchor="middle" x="1015.5" y="-117.56" font-family="Helvetica,sans-Serif" font-size="10.00" fill="grey"> integralBit</text>
</g>
<!-- Node8&#45;&gt;Node1 -->
<g id="edge12_Node000001_Node000008" class="edge">
<title>Node8&#45;&gt;Node1</title>
<g id="a_edge12_Node000001_Node000008"><a xlink:title=" ">
<path fill="none" stroke="#9a32cd" stroke-dasharray="5,2" d="M962.79,-126.36C990.76,-129.18 1021.06,-132.36 1049,-135.56 1054.83,-136.23 1060.91,-136.96 1066.98,-137.7"/>
<polygon fill="#9a32cd" stroke="#9a32cd" points="962.89,-122.86 952.59,-125.34 962.2,-129.82 962.89,-122.86"/>
</a>
</g>
<text text-anchor="middle" x="1015.5" y="-138.56" font-family="Helvetica,sans-Serif" font-size="10.00" fill="grey"> primeBit</text>
</g>
</g>
</svg>
