<?xml version="1.0" encoding="UTF-8" standalone="no"?>
<!DOCTYPE svg PUBLIC "-//W3C//DTD SVG 1.1//EN"
 "http://www.w3.org/Graphics/SVG/1.1/DTD/svg11.dtd">
<!-- Generated by graphviz version 2.43.0 (0)
 -->
<!-- Title: application::app_algo::AlgorithmTask Pages: 1 -->
<svg width="1167pt" height="394pt"
 viewBox="0.00 0.00 1167.00 393.97" xmlns="http://www.w3.org/2000/svg" xmlns:xlink="http://www.w3.org/1999/xlink">
<g id="graph0" class="graph" transform="scale(1 1) rotate(0) translate(4 389.97)">
<title>application::app_algo::AlgorithmTask</title>
<!-- Node1 -->
<g id="Node000001" class="node">
<title>Node1</title>
<g id="a_Node000001"><a xlink:title="Manage algorithm tasks.">
<polygon fill="#999999" stroke="#666666" points="1159,-214.17 1038,-214.17 1038,-184.17 1159,-184.17 1159,-214.17"/>
<text text-anchor="start" x="1046" y="-202.17" font-family="Helvetica,sans-Serif" font-size="10.00">application::app_algo</text>
<text text-anchor="middle" x="1098.5" y="-191.17" font-family="Helvetica,sans-Serif" font-size="10.00">::AlgorithmTask</text>
</a>
</g>
</g>
<!-- Node2 -->
<g id="Node000002" class="node">
<title>Node2</title>
<g id="a_Node000002"><a target="_parent" xlink:href="https://gcc.gnu.org/onlinedocs/gcc-12.3.0/libstdc++/api/a02103.html" xlink:title=" ">
<polygon fill="white" stroke="#666666" points="938,-278.67 751,-278.67 751,-237.67 938,-237.67 938,-278.67"/>
<text text-anchor="start" x="759" y="-266.67" font-family="Helvetica,sans-Serif" font-size="10.00">std::bitset&lt; application</text>
<text text-anchor="start" x="759" y="-255.67" font-family="Helvetica,sans-Serif" font-size="10.00">::app_algo::Bottom&lt; MatchMethod</text>
<text text-anchor="middle" x="844.5" y="-244.67" font-family="Helvetica,sans-Serif" font-size="10.00"> &gt;::value &gt;</text>
</a>
</g>
</g>
<!-- Node2&#45;&gt;Node1 -->
<g id="edge1_Node000001_Node000002" class="edge">
<title>Node2&#45;&gt;Node1</title>
<g id="a_edge1_Node000001_Node000002"><a xlink:title=" ">
<path fill="none" stroke="#9a32cd" stroke-dasharray="5,2" d="M943.09,-235.32C975,-227.86 1009.47,-219.79 1037.73,-213.17"/>
<polygon fill="#9a32cd" stroke="#9a32cd" points="942.22,-231.93 933.28,-237.62 943.82,-238.75 942.22,-231.93"/>
</a>
</g>
<text text-anchor="middle" x="991" y="-233.17" font-family="Helvetica,sans-Serif" font-size="10.00" fill="grey"> matchBit</text>
</g>
<!-- Node3 -->
<g id="Node000003" class="node">
<title>Node3</title>
<g id="a_Node000003"><a target="_parent" xlink:href="https://gcc.gnu.org/onlinedocs/gcc-12.3.0/libstdc++/api/a02075.html" xlink:title=" ">
<polygon fill="white" stroke="#666666" points="408,-173.17 265,-173.17 265,-99.17 408,-99.17 408,-173.17"/>
<text text-anchor="start" x="273" y="-161.17" font-family="Helvetica,sans-Serif" font-size="10.00">std::_Base_bitset&lt;</text>
<text text-anchor="start" x="273" y="-150.17" font-family="Helvetica,sans-Serif" font-size="10.00">((_Nb)/(__CHAR_BIT_</text>
<text text-anchor="start" x="273" y="-139.17" font-family="Helvetica,sans-Serif" font-size="10.00">_ *__SIZEOF_LONG__)+</text>
<text text-anchor="start" x="273" y="-128.17" font-family="Helvetica,sans-Serif" font-size="10.00">((_Nb) %(__CHAR_BIT__</text>
<text text-anchor="start" x="273" y="-117.17" font-family="Helvetica,sans-Serif" font-size="10.00"> *__SIZEOF_LONG__)==0 </text>
<text text-anchor="middle" x="336.5" y="-106.17" font-family="Helvetica,sans-Serif" font-size="10.00">? 0 :1))&gt;</text>
</a>
</g>
</g>
<!-- Node3&#45;&gt;Node2 -->
<g id="edge2_Node000002_Node000003" class="edge">
<title>Node3&#45;&gt;Node2</title>
<g id="a_edge2_Node000002_Node000003"><a xlink:title=" ">
<path fill="none" stroke="#8b1a1a" d="M369.64,-181.46C409.39,-233.13 482.41,-314.8 568,-348.17 633.84,-373.85 670.3,-390.36 727,-348.17 749.34,-331.56 725.35,-307.9 745,-288.17 748.53,-284.63 752.47,-281.5 756.68,-278.74"/>
<polygon fill="#8b1a1a" stroke="#8b1a1a" points="372.38,-179.28 363.54,-173.43 366.8,-183.51 372.38,-179.28"/>
</a>
</g>
</g>
<!-- Node5 -->
<g id="Node000005" class="node">
<title>Node5</title>
<g id="a_Node000005"><a target="_parent" xlink:href="https://gcc.gnu.org/onlinedocs/gcc-12.3.0/libstdc++/api/a02103.html" xlink:title=" ">
<polygon fill="white" stroke="#666666" points="550,-194.17 445,-194.17 445,-164.17 550,-164.17 550,-194.17"/>
<text text-anchor="start" x="453" y="-182.17" font-family="Helvetica,sans-Serif" font-size="10.00">std::bitset&lt; size_t</text>
<text text-anchor="middle" x="497.5" y="-171.17" font-family="Helvetica,sans-Serif" font-size="10.00"> _Nb &gt;</text>
</a>
</g>
</g>
<!-- Node3&#45;&gt;Node5 -->
<g id="edge5_Node000005_Node000003" class="edge">
<title>Node3&#45;&gt;Node5</title>
<g id="a_edge5_Node000005_Node000003"><a xlink:title=" ">
<path fill="none" stroke="#8b1a1a" d="M417.99,-157.94C427.05,-160.39 436.1,-162.84 444.65,-165.15"/>
<polygon fill="#8b1a1a" stroke="#8b1a1a" points="418.73,-154.52 408.17,-155.29 416.91,-161.27 418.73,-154.52"/>
</a>
</g>
</g>
<!-- Node6 -->
<g id="Node000006" class="node">
<title>Node6</title>
<g id="a_Node000006"><a target="_parent" xlink:href="https://gcc.gnu.org/onlinedocs/gcc-12.3.0/libstdc++/api/a02103.html" xlink:title=" ">
<polygon fill="white" stroke="#666666" points="944,-337.67 745,-337.67 745,-296.67 944,-296.67 944,-337.67"/>
<text text-anchor="start" x="753" y="-325.67" font-family="Helvetica,sans-Serif" font-size="10.00">std::bitset&lt; application</text>
<text text-anchor="start" x="753" y="-314.67" font-family="Helvetica,sans-Serif" font-size="10.00">::app_algo::Bottom&lt; NotationMethod</text>
<text text-anchor="middle" x="844.5" y="-303.67" font-family="Helvetica,sans-Serif" font-size="10.00"> &gt;::value &gt;</text>
</a>
</g>
</g>
<!-- Node3&#45;&gt;Node6 -->
<g id="edge7_Node000006_Node000003" class="edge">
<title>Node3&#45;&gt;Node6</title>
<g id="a_edge7_Node000006_Node000003"><a xlink:title=" ">
<path fill="none" stroke="#8b1a1a" d="M355.92,-182.53C373.69,-222.31 403.94,-278.94 445,-316.17 489.77,-356.77 509.02,-360.97 568,-374.17 636.96,-389.62 658.15,-390.11 727,-374.17 757.27,-367.17 788.76,-351.15 811.36,-337.87"/>
<polygon fill="#8b1a1a" stroke="#8b1a1a" points="359.1,-181.07 351.88,-173.31 352.68,-183.87 359.1,-181.07"/>
</a>
</g>
</g>
<!-- Node7 -->
<g id="Node000007" class="node">
<title>Node7</title>
<g id="a_Node000007"><a target="_parent" xlink:href="https://gcc.gnu.org/onlinedocs/gcc-12.3.0/libstdc++/api/a02103.html" xlink:title=" ">
<polygon fill="white" stroke="#666666" points="942.5,-160.67 746.5,-160.67 746.5,-119.67 942.5,-119.67 942.5,-160.67"/>
<text text-anchor="start" x="754.5" y="-148.67" font-family="Helvetica,sans-Serif" font-size="10.00">std::bitset&lt; application</text>
<text text-anchor="start" x="754.5" y="-137.67" font-family="Helvetica,sans-Serif" font-size="10.00">::app_algo::Bottom&lt; OptimalMethod</text>
<text text-anchor="middle" x="844.5" y="-126.67" font-family="Helvetica,sans-Serif" font-size="10.00"> &gt;::value &gt;</text>
</a>
</g>
</g>
<!-- Node3&#45;&gt;Node7 -->
<g id="edge10_Node000007_Node000003" class="edge">
<title>Node3&#45;&gt;Node7</title>
<g id="a_edge10_Node000007_Node000003"><a xlink:title=" ">
<path fill="none" stroke="#8b1a1a" d="M404.88,-94.28C487.12,-49.06 627.5,8.49 727,-55.17 743.08,-65.46 731.53,-80.64 745,-94.17 755.45,-104.67 768.76,-113.06 782.18,-119.64"/>
<polygon fill="#8b1a1a" stroke="#8b1a1a" points="403.15,-91.23 396.12,-99.16 406.56,-97.35 403.15,-91.23"/>
</a>
</g>
</g>
<!-- Node8 -->
<g id="Node000008" class="node">
<title>Node8</title>
<g id="a_Node000008"><a target="_parent" xlink:href="https://gcc.gnu.org/onlinedocs/gcc-12.3.0/libstdc++/api/a02103.html" xlink:title=" ">
<polygon fill="white" stroke="#666666" points="939.5,-85.67 749.5,-85.67 749.5,-44.67 939.5,-44.67 939.5,-85.67"/>
<text text-anchor="start" x="757.5" y="-73.67" font-family="Helvetica,sans-Serif" font-size="10.00">std::bitset&lt; application</text>
<text text-anchor="start" x="757.5" y="-62.67" font-family="Helvetica,sans-Serif" font-size="10.00">::app_algo::Bottom&lt; SearchMethod</text>
<text text-anchor="middle" x="844.5" y="-51.67" font-family="Helvetica,sans-Serif" font-size="10.00"> &gt;::value &gt;</text>
</a>
</g>
</g>
<!-- Node3&#45;&gt;Node8 -->
<g id="edge13_Node000008_Node000003" class="edge">
<title>Node3&#45;&gt;Node8</title>
<g id="a_edge13_Node000008_Node000003"><a xlink:title=" ">
<path fill="none" stroke="#8b1a1a" d="M371.25,-91.17C390.31,-69.35 416.08,-45.12 445,-32.17 559.45,19.07 603.47,-1.59 727,-23.17 751.14,-27.39 776.89,-36.18 798.02,-44.64"/>
<polygon fill="#8b1a1a" stroke="#8b1a1a" points="368.35,-89.18 364.54,-99.07 373.68,-93.72 368.35,-89.18"/>
</a>
</g>
</g>
<!-- Node9 -->
<g id="Node000009" class="node">
<title>Node9</title>
<g id="a_Node000009"><a target="_parent" xlink:href="https://gcc.gnu.org/onlinedocs/gcc-12.3.0/libstdc++/api/a02103.html" xlink:title=" ">
<polygon fill="white" stroke="#666666" points="932.5,-219.67 756.5,-219.67 756.5,-178.67 932.5,-178.67 932.5,-219.67"/>
<text text-anchor="start" x="764.5" y="-207.67" font-family="Helvetica,sans-Serif" font-size="10.00">std::bitset&lt; application</text>
<text text-anchor="start" x="764.5" y="-196.67" font-family="Helvetica,sans-Serif" font-size="10.00">::app_algo::Bottom&lt; SortMethod</text>
<text text-anchor="middle" x="844.5" y="-185.67" font-family="Helvetica,sans-Serif" font-size="10.00"> &gt;::value &gt;</text>
</a>
</g>
</g>
<!-- Node3&#45;&gt;Node9 -->
<g id="edge16_Node000009_Node000003" class="edge">
<title>Node3&#45;&gt;Node9</title>
<g id="a_edge16_Node000009_Node000003"><a xlink:title=" ">
<path fill="none" stroke="#8b1a1a" d="M418.28,-124.05C517.35,-110.95 678.14,-95.96 727,-128.17 743.95,-139.35 729.81,-156.69 745,-170.17 748.47,-173.25 752.24,-176 756.23,-178.46"/>
<polygon fill="#8b1a1a" stroke="#8b1a1a" points="417.74,-120.59 408.3,-125.39 418.68,-127.53 417.74,-120.59"/>
</a>
</g>
</g>
<!-- Node4 -->
<g id="Node000004" class="node">
<title>Node4</title>
<g id="a_Node000004"><a target="_parent" xlink:href="https://gcc.gnu.org/onlinedocs/gcc-12.3.0/libstdc++/api/a02075.html" xlink:title=" ">
<polygon fill="white" stroke="#666666" points="108,-151.17 0,-151.17 0,-121.17 108,-121.17 108,-151.17"/>
<text text-anchor="start" x="8" y="-139.17" font-family="Helvetica,sans-Serif" font-size="10.00">std::_Base_bitset&lt;</text>
<text text-anchor="middle" x="54" y="-128.17" font-family="Helvetica,sans-Serif" font-size="10.00"> size_t _Nw &gt;</text>
</a>
</g>
</g>
<!-- Node4&#45;&gt;Node3 -->
<g id="edge3_Node000003_Node000004" class="edge">
<title>Node4&#45;&gt;Node3</title>
<g id="a_edge3_Node000003_Node000004"><a xlink:title=" ">
<path fill="none" stroke="orange" stroke-dasharray="5,2" d="M118.28,-136.17C161.85,-136.17 219.79,-136.17 264.87,-136.17"/>
<polygon fill="orange" stroke="orange" points="118.09,-132.67 108.09,-136.17 118.09,-139.67 118.09,-132.67"/>
</a>
</g>
<text text-anchor="start" x="126" y="-183.17" font-family="Helvetica,sans-Serif" font-size="10.00" fill="grey"> &lt;((_Nb)/(__CHAR_BIT</text>
<text text-anchor="start" x="126" y="-172.17" font-family="Helvetica,sans-Serif" font-size="10.00" fill="grey">__ *__SIZEOF_LONG__)</text>
<text text-anchor="start" x="126" y="-161.17" font-family="Helvetica,sans-Serif" font-size="10.00" fill="grey">+((_Nb) %(__CHAR_BIT</text>
<text text-anchor="start" x="126" y="-150.17" font-family="Helvetica,sans-Serif" font-size="10.00" fill="grey">__ *__SIZEOF_LONG__)=</text>
<text text-anchor="middle" x="186.5" y="-139.17" font-family="Helvetica,sans-Serif" font-size="10.00" fill="grey">=0 ? 0 :1))&gt;</text>
</g>
<!-- Node5&#45;&gt;Node2 -->
<g id="edge4_Node000002_Node000005" class="edge">
<title>Node5&#45;&gt;Node2</title>
<g id="a_edge4_Node000002_Node000005"><a xlink:title=" ">
<path fill="none" stroke="orange" stroke-dasharray="5,2" d="M522.55,-200.73C535.18,-210.8 551.46,-221.92 568,-228.17 626.28,-250.2 696.1,-257.62 750.87,-259.57"/>
<polygon fill="orange" stroke="orange" points="524.74,-198 514.8,-194.32 520.28,-203.39 524.74,-198"/>
</a>
</g>
<text text-anchor="start" x="574" y="-282.17" font-family="Helvetica,sans-Serif" font-size="10.00" fill="grey"> &lt; application::app</text>
<text text-anchor="start" x="574" y="-271.17" font-family="Helvetica,sans-Serif" font-size="10.00" fill="grey">_algo::Bottom&lt; MatchMethod</text>
<text text-anchor="middle" x="647.5" y="-260.17" font-family="Helvetica,sans-Serif" font-size="10.00" fill="grey"> &gt;::value &gt;</text>
</g>
<!-- Node5&#45;&gt;Node6 -->
<g id="edge8_Node000006_Node000005" class="edge">
<title>Node5&#45;&gt;Node6</title>
<g id="a_edge8_Node000006_Node000005"><a xlink:title=" ">
<path fill="none" stroke="orange" stroke-dasharray="5,2" d="M506.34,-204.23C516.15,-230.95 535.68,-272.14 568,-292.17 620.25,-324.56 689.12,-330.81 744.94,-328.97"/>
<polygon fill="orange" stroke="orange" points="509.53,-202.73 502.95,-194.43 502.92,-205.03 509.53,-202.73"/>
</a>
</g>
<text text-anchor="start" x="568" y="-354.17" font-family="Helvetica,sans-Serif" font-size="10.00" fill="grey"> &lt; application::app</text>
<text text-anchor="start" x="568" y="-343.17" font-family="Helvetica,sans-Serif" font-size="10.00" fill="grey">_algo::Bottom&lt; NotationMethod</text>
<text text-anchor="middle" x="647.5" y="-332.17" font-family="Helvetica,sans-Serif" font-size="10.00" fill="grey"> &gt;::value &gt;</text>
</g>
<!-- Node5&#45;&gt;Node7 -->
<g id="edge11_Node000007_Node000005" class="edge">
<title>Node5&#45;&gt;Node7</title>
<g id="a_edge11_Node000007_Node000005"><a xlink:title=" ">
<path fill="none" stroke="orange" stroke-dasharray="5,2" d="M532.79,-159.39C543.69,-154.07 556.04,-149.01 568,-146.17 626.08,-132.42 692.97,-130.65 746.3,-132.44"/>
<polygon fill="orange" stroke="orange" points="530.93,-156.41 523.62,-164.08 534.12,-162.64 530.93,-156.41"/>
</a>
</g>
<text text-anchor="start" x="569.5" y="-171.17" font-family="Helvetica,sans-Serif" font-size="10.00" fill="grey"> &lt; application::app</text>
<text text-anchor="start" x="569.5" y="-160.17" font-family="Helvetica,sans-Serif" font-size="10.00" fill="grey">_algo::Bottom&lt; OptimalMethod</text>
<text text-anchor="middle" x="647.5" y="-149.17" font-family="Helvetica,sans-Serif" font-size="10.00" fill="grey"> &gt;::value &gt;</text>
</g>
<!-- Node5&#45;&gt;Node8 -->
<g id="edge14_Node000008_Node000005" class="edge">
<title>Node5&#45;&gt;Node8</title>
<g id="a_edge14_Node000008_Node000005"><a xlink:title=" ">
<path fill="none" stroke="orange" stroke-dasharray="5,2" d="M511.27,-155.24C523.16,-135.54 542.82,-108.73 568,-95.17 623.17,-65.46 693.52,-58.22 749.32,-58.27"/>
<polygon fill="orange" stroke="orange" points="508.19,-153.58 506.21,-163.98 514.25,-157.08 508.19,-153.58"/>
</a>
</g>
<text text-anchor="start" x="572.5" y="-120.17" font-family="Helvetica,sans-Serif" font-size="10.00" fill="grey"> &lt; application::app</text>
<text text-anchor="start" x="572.5" y="-109.17" font-family="Helvetica,sans-Serif" font-size="10.00" fill="grey">_algo::Bottom&lt; SearchMethod</text>
<text text-anchor="middle" x="647.5" y="-98.17" font-family="Helvetica,sans-Serif" font-size="10.00" fill="grey"> &gt;::value &gt;</text>
</g>
<!-- Node5&#45;&gt;Node9 -->
<g id="edge17_Node000009_Node000005" class="edge">
<title>Node5&#45;&gt;Node9</title>
<g id="a_edge17_Node000009_Node000005"><a xlink:title=" ">
<path fill="none" stroke="orange" stroke-dasharray="5,2" d="M560.38,-182.76C614.98,-185.93 695.17,-190.58 756.28,-194.12"/>
<polygon fill="orange" stroke="orange" points="560.34,-179.25 550.15,-182.17 559.93,-186.24 560.34,-179.25"/>
</a>
</g>
<text text-anchor="start" x="579.5" y="-216.17" font-family="Helvetica,sans-Serif" font-size="10.00" fill="grey"> &lt; application::app</text>
<text text-anchor="start" x="579.5" y="-205.17" font-family="Helvetica,sans-Serif" font-size="10.00" fill="grey">_algo::Bottom&lt; SortMethod</text>
<text text-anchor="middle" x="647.5" y="-194.17" font-family="Helvetica,sans-Serif" font-size="10.00" fill="grey"> &gt;::value &gt;</text>
</g>
<!-- Node6&#45;&gt;Node1 -->
<g id="edge6_Node000001_Node000006" class="edge">
<title>Node6&#45;&gt;Node1</title>
<g id="a_edge6_Node000001_Node000006"><a xlink:title=" ">
<path fill="none" stroke="#9a32cd" stroke-dasharray="5,2" d="M931.26,-293.22C935.6,-291.61 939.87,-289.92 944,-288.17 979.74,-273.04 986.42,-264.64 1020,-245.17 1037.6,-234.97 1057.31,-223.27 1072.45,-214.22"/>
<polygon fill="#9a32cd" stroke="#9a32cd" points="929.91,-289.99 921.67,-296.65 932.27,-296.58 929.91,-289.99"/>
</a>
</g>
<text text-anchor="middle" x="991" y="-282.17" font-family="Helvetica,sans-Serif" font-size="10.00" fill="grey"> notationBit</text>
</g>
<!-- Node7&#45;&gt;Node1 -->
<g id="edge9_Node000001_Node000007" class="edge">
<title>Node7&#45;&gt;Node1</title>
<g id="a_edge9_Node000001_Node000007"><a xlink:title=" ">
<path fill="none" stroke="#9a32cd" stroke-dasharray="5,2" d="M943.09,-163.02C975,-170.49 1009.47,-178.56 1037.73,-185.18"/>
<polygon fill="#9a32cd" stroke="#9a32cd" points="943.82,-159.6 933.28,-160.73 942.22,-166.41 943.82,-159.6"/>
</a>
</g>
<text text-anchor="middle" x="991" y="-182.17" font-family="Helvetica,sans-Serif" font-size="10.00" fill="grey"> optimalBit</text>
</g>
<!-- Node8&#45;&gt;Node1 -->
<g id="edge12_Node000001_Node000008" class="edge">
<title>Node8&#45;&gt;Node1</title>
<g id="a_edge12_Node000001_Node000008"><a xlink:title=" ">
<path fill="none" stroke="#9a32cd" stroke-dasharray="5,2" d="M901.88,-90.04C915.75,-96.4 930.49,-103.37 944,-110.17 978.47,-127.54 986.61,-132.83 1020,-152.17 1037.97,-162.59 1058.02,-174.76 1073.22,-184.1"/>
<polygon fill="#9a32cd" stroke="#9a32cd" points="903,-86.7 892.45,-85.74 900.1,-93.07 903,-86.7"/>
</a>
</g>
<text text-anchor="middle" x="991" y="-155.17" font-family="Helvetica,sans-Serif" font-size="10.00" fill="grey"> searchBit</text>
</g>
<!-- Node9&#45;&gt;Node1 -->
<g id="edge15_Node000001_Node000009" class="edge">
<title>Node9&#45;&gt;Node1</title>
<g id="a_edge15_Node000001_Node000009"><a xlink:title=" ">
<path fill="none" stroke="#9a32cd" stroke-dasharray="5,2" d="M942.86,-199.17C974.85,-199.17 1009.44,-199.17 1037.78,-199.17"/>
<polygon fill="#9a32cd" stroke="#9a32cd" points="942.58,-195.67 932.58,-199.17 942.58,-202.67 942.58,-195.67"/>
</a>
</g>
<text text-anchor="middle" x="991" y="-202.17" font-family="Helvetica,sans-Serif" font-size="10.00" fill="grey"> sortBit</text>
</g>
</g>
</svg>
