<?xml version="1.0" encoding="UTF-8" standalone="no"?>
<!DOCTYPE svg PUBLIC "-//W3C//DTD SVG 1.1//EN"
 "http://www.w3.org/Graphics/SVG/1.1/DTD/svg11.dtd">
<!-- Generated by graphviz version 2.43.0 (0)
 -->
<!-- Title: test::tst_algo::OptimalTestBase Pages: 1 -->
<svg width="250pt" height="171pt"
 viewBox="0.00 0.00 249.50 171.00" xmlns="http://www.w3.org/2000/svg" xmlns:xlink="http://www.w3.org/1999/xlink">
<g id="graph0" class="graph" transform="scale(1 1) rotate(0) translate(4 167)">
<title>test::tst_algo::OptimalTestBase</title>
<!-- Node1 -->
<g id="Node000001" class="node">
<title>Node1</title>
<g id="a_Node000001"><a xlink:title="Test base of optimal.">
<polygon fill="#999999" stroke="#666666" points="169,-19 0,-19 0,0 169,0 169,-19"/>
<text text-anchor="middle" x="84.5" y="-7" font-family="Helvetica,sans-Serif" font-size="10.00">test::tst_algo::OptimalTestBase</text>
</a>
</g>
</g>
<!-- Node2 -->
<g id="Node000002" class="node">
<title>Node2</title>
<g id="a_Node000002"><a xlink:title=" ">
<polygon fill="white" stroke="#666666" points="83.5,-90.5 7.5,-90.5 7.5,-71.5 83.5,-71.5 83.5,-90.5"/>
<text text-anchor="middle" x="45.5" y="-78.5" font-family="Helvetica,sans-Serif" font-size="10.00">testing::Test</text>
</a>
</g>
</g>
<!-- Node2&#45;&gt;Node1 -->
<g id="edge1_Node000001_Node000002" class="edge">
<title>Node2&#45;&gt;Node1</title>
<g id="a_edge1_Node000001_Node000002"><a xlink:title=" ">
<path fill="none" stroke="#63b8ff" d="M55.36,-62.43C63.13,-48.58 73.64,-29.86 79.68,-19.09"/>
<polygon fill="#63b8ff" stroke="#63b8ff" points="52.12,-61.04 50.28,-71.48 58.23,-64.47 52.12,-61.04"/>
</a>
</g>
</g>
<!-- Node3 -->
<g id="Node000003" class="node">
<title>Node3</title>
<g id="a_Node000003"><a xlink:href="../../d3/d97/classapplication_1_1app__algo_1_1optimal_1_1input_1_1Rastrigin.html" target="_top" xlink:title="Rastrigin function.">
<polygon fill="white" stroke="#666666" points="241.5,-96 101.5,-96 101.5,-66 241.5,-66 241.5,-96"/>
<text text-anchor="start" x="109.5" y="-84" font-family="Helvetica,sans-Serif" font-size="10.00">application::app_algo</text>
<text text-anchor="middle" x="171.5" y="-73" font-family="Helvetica,sans-Serif" font-size="10.00">::optimal::input::Rastrigin</text>
</a>
</g>
</g>
<!-- Node3&#45;&gt;Node1 -->
<g id="edge2_Node000001_Node000003" class="edge">
<title>Node3&#45;&gt;Node1</title>
<g id="a_edge2_Node000001_Node000003"><a xlink:title=" ">
<path fill="none" stroke="#9a32cd" stroke-dasharray="5,2" d="M146.06,-59.68C129.26,-46.26 108.1,-29.36 95.47,-19.27"/>
<polygon fill="#9a32cd" stroke="#9a32cd" points="143.9,-62.43 153.89,-65.94 148.27,-56.96 143.9,-62.43"/>
</a>
</g>
<text text-anchor="middle" x="152.5" y="-40" font-family="Helvetica,sans-Serif" font-size="10.00" fill="grey"> rastrigin</text>
</g>
<!-- Node4 -->
<g id="Node000004" class="node">
<title>Node4</title>
<g id="a_Node000004"><a xlink:href="../../d2/dfb/classalgorithm_1_1optimal_1_1Function.html" target="_top" xlink:title="Target functions.">
<polygon fill="white" stroke="#666666" points="225,-163 118,-163 118,-133 225,-133 225,-163"/>
<text text-anchor="start" x="126" y="-151" font-family="Helvetica,sans-Serif" font-size="10.00">algorithm::optimal</text>
<text text-anchor="middle" x="171.5" y="-140" font-family="Helvetica,sans-Serif" font-size="10.00">::Function</text>
</a>
</g>
</g>
<!-- Node4&#45;&gt;Node3 -->
<g id="edge3_Node000003_Node000004" class="edge">
<title>Node4&#45;&gt;Node3</title>
<g id="a_edge3_Node000003_Node000004"><a xlink:title=" ">
<path fill="none" stroke="#63b8ff" d="M171.5,-122.61C171.5,-113.65 171.5,-103.82 171.5,-96.08"/>
<polygon fill="#63b8ff" stroke="#63b8ff" points="168,-122.9 171.5,-132.9 175,-122.9 168,-122.9"/>
</a>
</g>
</g>
</g>
</svg>
