<?xml version="1.0" encoding="UTF-8" standalone="no"?>
<!DOCTYPE svg PUBLIC "-//W3C//DTD SVG 1.1//EN"
 "http://www.w3.org/Graphics/SVG/1.1/DTD/svg11.dtd">
<!-- Generated by graphviz version 2.43.0 (0)
 -->
<!-- Title: numeric::prime::Prime::eratosthenes Pages: 1 -->
<svg width="294pt" height="86pt"
 viewBox="0.00 0.00 294.00 86.00" xmlns="http://www.w3.org/2000/svg" xmlns:xlink="http://www.w3.org/1999/xlink">
<g id="graph0" class="graph" transform="scale(1 1) rotate(0) translate(4 82)">
<title>numeric::prime::Prime::eratosthenes</title>
<!-- Node1 -->
<g id="Node000001" class="node">
<title>Node1</title>
<g id="a_Node000001"><a xlink:title="Eratosthenes.">
<polygon fill="#999999" stroke="#666666" points="286,-48.5 161,-48.5 161,-18.5 286,-18.5 286,-48.5"/>
<text text-anchor="start" x="169" y="-36.5" font-family="Helvetica,sans-Serif" font-size="10.00">numeric::prime::Prime</text>
<text text-anchor="middle" x="223.5" y="-25.5" font-family="Helvetica,sans-Serif" font-size="10.00">::eratosthenes</text>
</a>
</g>
</g>
<!-- Node2 -->
<g id="Node000002" class="node">
<title>Node2</title>
<g id="a_Node000002"><a xlink:href="../../d1/d8e/classapplication_1_1app__num_1_1prime_1_1PrimeSolution.html#ad7ff1a30940126df34a8a03602ded4af" target="_top" xlink:title="The Eratosthenes method.">
<polygon fill="white" stroke="#666666" points="125,-78 0,-78 0,-37 125,-37 125,-78"/>
<text text-anchor="start" x="8" y="-66" font-family="Helvetica,sans-Serif" font-size="10.00">application::app_num</text>
<text text-anchor="start" x="8" y="-55" font-family="Helvetica,sans-Serif" font-size="10.00">::prime::PrimeSolution</text>
<text text-anchor="middle" x="62.5" y="-44" font-family="Helvetica,sans-Serif" font-size="10.00">::eratosthenesMethod</text>
</a>
</g>
</g>
<!-- Node1&#45;&gt;Node2 -->
<g id="edge1_Node000001_Node000002" class="edge">
<title>Node1&#45;&gt;Node2</title>
<g id="a_edge1_Node000001_Node000002"><a xlink:title=" ">
<path fill="none" stroke="#63b8ff" d="M150.41,-44.38C142.01,-45.65 133.5,-46.93 125.26,-48.18"/>
<polygon fill="#63b8ff" stroke="#63b8ff" points="151.21,-47.8 160.57,-42.85 150.16,-40.88 151.21,-47.8"/>
</a>
</g>
</g>
<!-- Node3 -->
<g id="Node000003" class="node">
<title>Node3</title>
<g id="a_Node000003"><a xlink:href="../../da/df6/namespacetest_1_1tst__num.html#a494cc188d9b96a4bdd50abf2c73f7692" target="_top" xlink:title="Test for the Eratosthenes method in the solution of prime.">
<polygon fill="white" stroke="#666666" points="123.5,-19 1.5,-19 1.5,0 123.5,0 123.5,-19"/>
<text text-anchor="middle" x="62.5" y="-7" font-family="Helvetica,sans-Serif" font-size="10.00">test::tst_num::TEST_F</text>
</a>
</g>
</g>
<!-- Node1&#45;&gt;Node3 -->
<g id="edge2_Node000001_Node000003" class="edge">
<title>Node1&#45;&gt;Node3</title>
<g id="a_edge2_Node000001_Node000003"><a xlink:title=" ">
<path fill="none" stroke="#63b8ff" d="M150.52,-22.64C141.56,-21.28 132.46,-19.91 123.69,-18.59"/>
<polygon fill="#63b8ff" stroke="#63b8ff" points="150.16,-26.12 160.57,-24.15 151.21,-19.2 150.16,-26.12"/>
</a>
</g>
</g>
</g>
</svg>
