<?xml version="1.0" encoding="UTF-8" standalone="no"?>
<!DOCTYPE svg PUBLIC "-//W3C//DTD SVG 1.1//EN"
 "http://www.w3.org/Graphics/SVG/1.1/DTD/svg11.dtd">
<!-- Generated by graphviz version 2.43.0 (0)
 -->
<!-- Title: numeric::integral::Simpson::simpsonOneThird Pages: 1 -->
<svg width="699pt" height="69pt"
 viewBox="0.00 0.00 699.00 68.50" xmlns="http://www.w3.org/2000/svg" xmlns:xlink="http://www.w3.org/1999/xlink">
<g id="graph0" class="graph" transform="scale(1 1) rotate(0) translate(4 64.5)">
<title>numeric::integral::Simpson::simpsonOneThird</title>
<!-- Node1 -->
<g id="Node000001" class="node">
<title>Node1</title>
<g id="a_Node000001"><a xlink:title="Simpson&#39;s 1/3 formula.">
<polygon fill="#999999" stroke="#666666" points="691,-30 541,-30 541,0 691,0 691,-30"/>
<text text-anchor="start" x="549" y="-18" font-family="Helvetica,sans-Serif" font-size="10.00">numeric::integral::</text>
<text text-anchor="middle" x="616" y="-7" font-family="Helvetica,sans-Serif" font-size="10.00">Simpson::simpsonOneThird</text>
</a>
</g>
</g>
<!-- Node2 -->
<g id="Node000002" class="node">
<title>Node2</title>
<g id="a_Node000002"><a xlink:href="../../d2/d45/classnumeric_1_1integral_1_1Simpson.html#aa7e5e04c3ba6f948a8d226954cc71210" target="_top" xlink:title="Composite Simpson&#39;s 1/3 formula.">
<polygon fill="white" stroke="#666666" points="505,-60.5 328,-60.5 328,-19.5 505,-19.5 505,-60.5"/>
<text text-anchor="start" x="336" y="-48.5" font-family="Helvetica,sans-Serif" font-size="10.00">numeric::integral::</text>
<text text-anchor="start" x="336" y="-37.5" font-family="Helvetica,sans-Serif" font-size="10.00">Simpson::compositeSimpsonOne</text>
<text text-anchor="middle" x="416.5" y="-26.5" font-family="Helvetica,sans-Serif" font-size="10.00">Third</text>
</a>
</g>
</g>
<!-- Node1&#45;&gt;Node2 -->
<g id="edge1_Node000001_Node000002" class="edge">
<title>Node1&#45;&gt;Node2</title>
<g id="a_edge1_Node000001_Node000002"><a xlink:title=" ">
<path fill="none" stroke="#63b8ff" d="M530.73,-25.67C522.32,-26.73 513.77,-27.81 505.33,-28.88"/>
<polygon fill="#63b8ff" stroke="#63b8ff" points="531.42,-29.11 540.9,-24.38 530.54,-22.16 531.42,-29.11"/>
</a>
</g>
</g>
<!-- Node3 -->
<g id="Node000003" class="node">
<title>Node3</title>
<g id="a_Node000003"><a xlink:href="../../d2/d45/classnumeric_1_1integral_1_1Simpson.html#a5ac924085661cb015f9dba7b42c05c44" target="_top" xlink:title="Calculate the value of the definite integral with the Simpson&#39;s rule.">
<polygon fill="white" stroke="#666666" points="292,-30 149,-30 149,0 292,0 292,-30"/>
<text text-anchor="start" x="157" y="-18" font-family="Helvetica,sans-Serif" font-size="10.00">numeric::integral::</text>
<text text-anchor="middle" x="220.5" y="-7" font-family="Helvetica,sans-Serif" font-size="10.00">Simpson::simpsonIntegral</text>
</a>
</g>
</g>
<!-- Node1&#45;&gt;Node3 -->
<g id="edge5_Node000001_Node000003" class="edge">
<title>Node1&#45;&gt;Node3</title>
<g id="a_edge5_Node000001_Node000003"><a xlink:title=" ">
<path fill="none" stroke="#63b8ff" d="M530.62,-11.62C521.97,-11.37 513.31,-11.15 505,-11 426.35,-9.57 406.65,-9.52 328,-11 316.44,-11.22 304.17,-11.57 292.24,-11.97"/>
<polygon fill="#63b8ff" stroke="#63b8ff" points="530.65,-15.12 540.75,-11.93 530.86,-8.13 530.65,-15.12"/>
</a>
</g>
</g>
<!-- Node2&#45;&gt;Node3 -->
<g id="edge2_Node000002_Node000003" class="edge">
<title>Node2&#45;&gt;Node3</title>
<g id="a_edge2_Node000002_Node000003"><a xlink:title=" ">
<path fill="none" stroke="#63b8ff" d="M317.75,-27.4C309.13,-26.29 300.51,-25.18 292.18,-24.11"/>
<polygon fill="#63b8ff" stroke="#63b8ff" points="317.5,-30.9 327.86,-28.71 318.39,-23.96 317.5,-30.9"/>
</a>
</g>
</g>
<!-- Node3&#45;&gt;Node3 -->
<g id="edge4_Node000003_Node000003" class="edge">
<title>Node3&#45;&gt;Node3</title>
<g id="a_edge4_Node000003_Node000003"><a xlink:title=" ">
<path fill="none" stroke="#63b8ff" d="M249.21,-40.6C245.28,-44.97 235.71,-48 220.5,-48 194.88,-48 185.27,-39.41 191.67,-30.28"/>
<polygon fill="#63b8ff" stroke="#63b8ff" points="252.71,-40.32 249.33,-30.28 245.71,-40.23 252.71,-40.32"/>
</a>
</g>
</g>
<!-- Node4 -->
<g id="Node000004" class="node">
<title>Node4</title>
<g id="a_Node000004"><a xlink:href="../../d2/d45/classnumeric_1_1integral_1_1Simpson.html#a86fbe76ee6556785e6cd455929aaee32" target="_top" xlink:title="The operator (()) overloading of Simpson class.">
<polygon fill="white" stroke="#666666" points="113,-30 0,-30 0,0 113,0 113,-30"/>
<text text-anchor="start" x="8" y="-18" font-family="Helvetica,sans-Serif" font-size="10.00">numeric::integral::</text>
<text text-anchor="middle" x="56.5" y="-7" font-family="Helvetica,sans-Serif" font-size="10.00">Simpson::operator()</text>
</a>
</g>
</g>
<!-- Node3&#45;&gt;Node4 -->
<g id="edge3_Node000003_Node000004" class="edge">
<title>Node3&#45;&gt;Node4</title>
<g id="a_edge3_Node000003_Node000004"><a xlink:title=" ">
<path fill="none" stroke="#63b8ff" d="M138.79,-15C130.15,-15 121.5,-15 113.24,-15"/>
<polygon fill="#63b8ff" stroke="#63b8ff" points="138.92,-18.5 148.92,-15 138.92,-11.5 138.92,-18.5"/>
</a>
</g>
</g>
</g>
</svg>
