<?xml version="1.0" encoding="UTF-8" standalone="no"?>
<!DOCTYPE svg PUBLIC "-//W3C//DTD SVG 1.1//EN"
 "http://www.w3.org/Graphics/SVG/1.1/DTD/svg11.dtd">
<!-- Generated by graphviz version 2.43.0 (0)
 -->
<!-- Title: numeric::integral::Simpson::simpsonIntegral Pages: 1 -->
<svg width="300pt" height="56pt"
 viewBox="0.00 0.00 300.00 56.00" xmlns="http://www.w3.org/2000/svg" xmlns:xlink="http://www.w3.org/1999/xlink">
<g id="graph0" class="graph" transform="scale(1 1) rotate(0) translate(4 52)">
<title>numeric::integral::Simpson::simpsonIntegral</title>
<!-- Node1 -->
<g id="Node000001" class="node">
<title>Node1</title>
<g id="a_Node000001"><a xlink:title="Calculate the value of the definite integral with the Simpson&#39;s rule.">
<polygon fill="#999999" stroke="#666666" points="292,-30 149,-30 149,0 292,0 292,-30"/>
<text text-anchor="start" x="157" y="-18" font-family="Helvetica,sans-Serif" font-size="10.00">numeric::integral::</text>
<text text-anchor="middle" x="220.5" y="-7" font-family="Helvetica,sans-Serif" font-size="10.00">Simpson::simpsonIntegral</text>
</a>
</g>
</g>
<!-- Node1&#45;&gt;Node1 -->
<g id="edge2_Node000001_Node000001" class="edge">
<title>Node1&#45;&gt;Node1</title>
<g id="a_edge2_Node000001_Node000001"><a xlink:title=" ">
<path fill="none" stroke="#63b8ff" d="M249.21,-40.6C245.28,-44.97 235.71,-48 220.5,-48 194.88,-48 185.27,-39.41 191.67,-30.28"/>
<polygon fill="#63b8ff" stroke="#63b8ff" points="252.71,-40.32 249.33,-30.28 245.71,-40.23 252.71,-40.32"/>
</a>
</g>
</g>
<!-- Node2 -->
<g id="Node000002" class="node">
<title>Node2</title>
<g id="a_Node000002"><a xlink:href="../../d2/d45/classnumeric_1_1integral_1_1Simpson.html#a86fbe76ee6556785e6cd455929aaee32" target="_top" xlink:title="The operator (()) overloading of Simpson class.">
<polygon fill="white" stroke="#666666" points="113,-30 0,-30 0,0 113,0 113,-30"/>
<text text-anchor="start" x="8" y="-18" font-family="Helvetica,sans-Serif" font-size="10.00">numeric::integral::</text>
<text text-anchor="middle" x="56.5" y="-7" font-family="Helvetica,sans-Serif" font-size="10.00">Simpson::operator()</text>
</a>
</g>
</g>
<!-- Node1&#45;&gt;Node2 -->
<g id="edge1_Node000001_Node000002" class="edge">
<title>Node1&#45;&gt;Node2</title>
<g id="a_edge1_Node000001_Node000002"><a xlink:title=" ">
<path fill="none" stroke="#63b8ff" d="M138.79,-15C130.15,-15 121.5,-15 113.24,-15"/>
<polygon fill="#63b8ff" stroke="#63b8ff" points="138.92,-18.5 148.92,-15 138.92,-11.5 138.92,-18.5"/>
</a>
</g>
</g>
</g>
</svg>
