<?xml version="1.0" encoding="UTF-8" standalone="no"?>
<!DOCTYPE svg PUBLIC "-//W3C//DTD SVG 1.1//EN"
 "http://www.w3.org/Graphics/SVG/1.1/DTD/svg11.dtd">
<!-- Generated by graphviz version 2.43.0 (0)
 -->
<!-- Title: numeric::integral::Simpson::compositeSimpsonOneThird Pages: 1 -->
<svg width="513pt" height="62pt"
 viewBox="0.00 0.00 513.00 61.50" xmlns="http://www.w3.org/2000/svg" xmlns:xlink="http://www.w3.org/1999/xlink">
<g id="graph0" class="graph" transform="scale(1 1) rotate(0) translate(4 57.5)">
<title>numeric::integral::Simpson::compositeSimpsonOneThird</title>
<!-- Node1 -->
<g id="Node000001" class="node">
<title>Node1</title>
<g id="a_Node000001"><a xlink:title="Composite Simpson&#39;s 1/3 formula.">
<polygon fill="#999999" stroke="#666666" points="505,-41 328,-41 328,0 505,0 505,-41"/>
<text text-anchor="start" x="336" y="-29" font-family="Helvetica,sans-Serif" font-size="10.00">numeric::integral::</text>
<text text-anchor="start" x="336" y="-18" font-family="Helvetica,sans-Serif" font-size="10.00">Simpson::compositeSimpsonOne</text>
<text text-anchor="middle" x="416.5" y="-7" font-family="Helvetica,sans-Serif" font-size="10.00">Third</text>
</a>
</g>
</g>
<!-- Node2 -->
<g id="Node000002" class="node">
<title>Node2</title>
<g id="a_Node000002"><a xlink:href="../../d2/d45/classnumeric_1_1integral_1_1Simpson.html#a5ac924085661cb015f9dba7b42c05c44" target="_top" xlink:title="Calculate the value of the definite integral with the Simpson&#39;s rule.">
<polygon fill="white" stroke="#666666" points="292,-35.5 149,-35.5 149,-5.5 292,-5.5 292,-35.5"/>
<text text-anchor="start" x="157" y="-23.5" font-family="Helvetica,sans-Serif" font-size="10.00">numeric::integral::</text>
<text text-anchor="middle" x="220.5" y="-12.5" font-family="Helvetica,sans-Serif" font-size="10.00">Simpson::simpsonIntegral</text>
</a>
</g>
</g>
<!-- Node1&#45;&gt;Node2 -->
<g id="edge1_Node000001_Node000002" class="edge">
<title>Node1&#45;&gt;Node2</title>
<g id="a_edge1_Node000001_Node000002"><a xlink:title=" ">
<path fill="none" stroke="#63b8ff" d="M317.75,-20.5C309.13,-20.5 300.51,-20.5 292.18,-20.5"/>
<polygon fill="#63b8ff" stroke="#63b8ff" points="317.86,-24 327.86,-20.5 317.86,-17 317.86,-24"/>
</a>
</g>
</g>
<!-- Node2&#45;&gt;Node2 -->
<g id="edge3_Node000002_Node000002" class="edge">
<title>Node2&#45;&gt;Node2</title>
<g id="a_edge3_Node000002_Node000002"><a xlink:title=" ">
<path fill="none" stroke="#63b8ff" d="M249.21,-46.1C245.28,-50.47 235.71,-53.5 220.5,-53.5 194.88,-53.5 185.27,-44.91 191.67,-35.78"/>
<polygon fill="#63b8ff" stroke="#63b8ff" points="252.71,-45.82 249.33,-35.78 245.71,-45.73 252.71,-45.82"/>
</a>
</g>
</g>
<!-- Node3 -->
<g id="Node000003" class="node">
<title>Node3</title>
<g id="a_Node000003"><a xlink:href="../../d2/d45/classnumeric_1_1integral_1_1Simpson.html#a86fbe76ee6556785e6cd455929aaee32" target="_top" xlink:title="The operator (()) overloading of Simpson class.">
<polygon fill="white" stroke="#666666" points="113,-35.5 0,-35.5 0,-5.5 113,-5.5 113,-35.5"/>
<text text-anchor="start" x="8" y="-23.5" font-family="Helvetica,sans-Serif" font-size="10.00">numeric::integral::</text>
<text text-anchor="middle" x="56.5" y="-12.5" font-family="Helvetica,sans-Serif" font-size="10.00">Simpson::operator()</text>
</a>
</g>
</g>
<!-- Node2&#45;&gt;Node3 -->
<g id="edge2_Node000002_Node000003" class="edge">
<title>Node2&#45;&gt;Node3</title>
<g id="a_edge2_Node000002_Node000003"><a xlink:title=" ">
<path fill="none" stroke="#63b8ff" d="M138.79,-20.5C130.15,-20.5 121.5,-20.5 113.24,-20.5"/>
<polygon fill="#63b8ff" stroke="#63b8ff" points="138.92,-24 148.92,-20.5 138.92,-17 138.92,-24"/>
</a>
</g>
</g>
</g>
</svg>
