<?xml version="1.0" encoding="UTF-8" standalone="no"?>
<!DOCTYPE svg PUBLIC "-//W3C//DTD SVG 1.1//EN"
 "http://www.w3.org/Graphics/SVG/1.1/DTD/svg11.dtd">
<!-- Generated by graphviz version 2.43.0 (0)
 -->
<!-- Title: numeric/include/prime.hpp Pages: 1 -->
<svg width="479pt" height="93pt"
 viewBox="0.00 0.00 478.50 93.00" xmlns="http://www.w3.org/2000/svg" xmlns:xlink="http://www.w3.org/1999/xlink">
<g id="graph0" class="graph" transform="scale(1 1) rotate(0) translate(4 89)">
<title>numeric/include/prime.hpp</title>
<!-- Node1 -->
<g id="Node000001" class="node">
<title>Node1</title>
<g id="a_Node000001"><a xlink:title="The declarations (prime) in the numeric module.">
<polygon fill="#999999" stroke="#666666" points="310,-85 163,-85 163,-66 310,-66 310,-85"/>
<text text-anchor="middle" x="236.5" y="-73" font-family="Helvetica,sans-Serif" font-size="10.00">numeric/include/prime.hpp</text>
</a>
</g>
</g>
<!-- Node2 -->
<g id="Node000002" class="node">
<title>Node2</title>
<g id="a_Node000002"><a xlink:href="../../d1/dee/apply__numeric_8cpp.html" target="_top" xlink:title="The definitions (apply_numeric) in the application module.">
<polygon fill="white" stroke="#666666" points="147,-30 0,-30 0,0 147,0 147,-30"/>
<text text-anchor="start" x="8" y="-18" font-family="Helvetica,sans-Serif" font-size="10.00">application/example</text>
<text text-anchor="middle" x="73.5" y="-7" font-family="Helvetica,sans-Serif" font-size="10.00">/source/apply_numeric.cpp</text>
</a>
</g>
</g>
<!-- Node1&#45;&gt;Node2 -->
<g id="edge1_Node000001_Node000002" class="edge">
<title>Node1&#45;&gt;Node2</title>
<g id="a_edge1_Node000001_Node000002"><a xlink:title=" ">
<path fill="none" stroke="#63b8ff" d="M203.29,-62.58C177.05,-53.16 140.37,-40 112.69,-30.06"/>
<polygon fill="#63b8ff" stroke="#63b8ff" points="202.2,-65.91 212.8,-65.99 204.57,-59.32 202.2,-65.91"/>
</a>
</g>
</g>
<!-- Node3 -->
<g id="Node000003" class="node">
<title>Node3</title>
<g id="a_Node000003"><a xlink:href="../../d3/d71/prime_8cpp.html" target="_top" xlink:title="The definitions (prime) in the numeric module.">
<polygon fill="white" stroke="#666666" points="308,-24.5 165,-24.5 165,-5.5 308,-5.5 308,-24.5"/>
<text text-anchor="middle" x="236.5" y="-12.5" font-family="Helvetica,sans-Serif" font-size="10.00">numeric/source/prime.cpp</text>
</a>
</g>
</g>
<!-- Node1&#45;&gt;Node3 -->
<g id="edge2_Node000001_Node000003" class="edge">
<title>Node1&#45;&gt;Node3</title>
<g id="a_edge2_Node000001_Node000003"><a xlink:title=" ">
<path fill="none" stroke="#63b8ff" d="M236.5,-55.66C236.5,-45.24 236.5,-32.8 236.5,-24.67"/>
<polygon fill="#63b8ff" stroke="#63b8ff" points="233,-55.87 236.5,-65.87 240,-55.87 233,-55.87"/>
</a>
</g>
</g>
<!-- Node4 -->
<g id="Node000004" class="node">
<title>Node4</title>
<g id="a_Node000004"><a xlink:href="../../d8/d25/test__numeric_8cpp.html" target="_top" xlink:title="The definitions (test_numeric) in the test module.">
<polygon fill="white" stroke="#666666" points="470.5,-24.5 326.5,-24.5 326.5,-5.5 470.5,-5.5 470.5,-24.5"/>
<text text-anchor="middle" x="398.5" y="-12.5" font-family="Helvetica,sans-Serif" font-size="10.00">test/unit/test_numeric.cpp</text>
</a>
</g>
</g>
<!-- Node1&#45;&gt;Node4 -->
<g id="edge3_Node000001_Node000004" class="edge">
<title>Node1&#45;&gt;Node4</title>
<g id="a_edge3_Node000001_Node000004"><a xlink:title=" ">
<path fill="none" stroke="#63b8ff" d="M269.66,-62.52C300.99,-51.21 347.19,-34.53 374.92,-24.52"/>
<polygon fill="#63b8ff" stroke="#63b8ff" points="268.27,-59.31 260.06,-65.99 270.65,-65.89 268.27,-59.31"/>
</a>
</g>
</g>
</g>
</svg>
