<?xml version="1.0" encoding="UTF-8" standalone="no"?>
<!DOCTYPE svg PUBLIC "-//W3C//DTD SVG 1.1//EN"
 "http://www.w3.org/Graphics/SVG/1.1/DTD/svg11.dtd">
<!-- Generated by graphviz version 2.43.0 (0)
 -->
<!-- Title: utility::socket::Socket Pages: 1 -->
<svg width="128pt" height="237pt"
 viewBox="0.00 0.00 128.00 237.00" xmlns="http://www.w3.org/2000/svg" xmlns:xlink="http://www.w3.org/1999/xlink">
<g id="graph0" class="graph" transform="scale(1 1) rotate(0) translate(4 233)">
<title>utility::socket::Socket</title>
<!-- Node1 -->
<g id="Node000001" class="node">
<title>Node1</title>
<g id="a_Node000001"><a xlink:title="Network socket.">
<polygon fill="#999999" stroke="#666666" points="120,-19 0,-19 0,0 120,0 120,-19"/>
<text text-anchor="middle" x="60" y="-7" font-family="Helvetica,sans-Serif" font-size="10.00">utility::socket::Socket</text>
</a>
</g>
</g>
<!-- Node2 -->
<g id="Node000002" class="node">
<title>Node2</title>
<g id="a_Node000002"><a target="_parent" xlink:href="https://gcc.gnu.org/onlinedocs/gcc-12.3.0/libstdc++/api/a02559.html" xlink:title=" ">
<polygon fill="white" stroke="#666666" points="115,-85 5,-85 5,-66 115,-66 115,-85"/>
<text text-anchor="middle" x="60" y="-73" font-family="Helvetica,sans-Serif" font-size="10.00">std::future&lt; void &gt;</text>
</a>
</g>
</g>
<!-- Node2&#45;&gt;Node1 -->
<g id="edge1_Node000001_Node000002" class="edge">
<title>Node2&#45;&gt;Node1</title>
<g id="a_edge1_Node000001_Node000002"><a xlink:title=" ">
<path fill="none" stroke="#9a32cd" stroke-dasharray="5,2" d="M60,-55.58C60,-43.63 60,-28.72 60,-19.41"/>
<polygon fill="#9a32cd" stroke="#9a32cd" points="56.5,-55.87 60,-65.87 63.5,-55.87 56.5,-55.87"/>
</a>
</g>
<text text-anchor="middle" x="68.5" y="-40" font-family="Helvetica,sans-Serif" font-size="10.00" fill="grey"> fut</text>
</g>
<!-- Node3 -->
<g id="Node000003" class="node">
<title>Node3</title>
<g id="a_Node000003"><a target="_parent" xlink:href="https://gcc.gnu.org/onlinedocs/gcc-12.3.0/libstdc++/api/a02547.html" xlink:title=" ">
<polygon fill="white" stroke="#666666" points="114,-152 6,-152 6,-122 114,-122 114,-152"/>
<text text-anchor="start" x="14" y="-140" font-family="Helvetica,sans-Serif" font-size="10.00">std::__basic_future</text>
<text text-anchor="middle" x="60" y="-129" font-family="Helvetica,sans-Serif" font-size="10.00">&lt; void &gt;</text>
</a>
</g>
</g>
<!-- Node3&#45;&gt;Node2 -->
<g id="edge2_Node000002_Node000003" class="edge">
<title>Node3&#45;&gt;Node2</title>
<g id="a_edge2_Node000002_Node000003"><a xlink:title=" ">
<path fill="none" stroke="#63b8ff" d="M60,-111.79C60,-102.36 60,-92.15 60,-85.16"/>
<polygon fill="#63b8ff" stroke="#63b8ff" points="56.5,-111.9 60,-121.9 63.5,-111.9 56.5,-111.9"/>
</a>
</g>
</g>
<!-- Node4 -->
<g id="Node000004" class="node">
<title>Node4</title>
<g id="a_Node000004"><a target="_parent" xlink:href="https://gcc.gnu.org/onlinedocs/gcc-12.3.0/libstdc++/api/a02547.html" xlink:title=" ">
<polygon fill="white" stroke="#666666" points="117.5,-229 2.5,-229 2.5,-199 117.5,-199 117.5,-229"/>
<text text-anchor="start" x="10.5" y="-217" font-family="Helvetica,sans-Serif" font-size="10.00">std::__basic_future</text>
<text text-anchor="middle" x="60" y="-206" font-family="Helvetica,sans-Serif" font-size="10.00">&lt; typename _Res &gt;</text>
</a>
</g>
</g>
<!-- Node4&#45;&gt;Node3 -->
<g id="edge3_Node000003_Node000004" class="edge">
<title>Node4&#45;&gt;Node3</title>
<g id="a_edge3_Node000003_Node000004"><a xlink:title=" ">
<path fill="none" stroke="orange" stroke-dasharray="5,2" d="M60,-188.54C60,-176.45 60,-162.29 60,-152.04"/>
<polygon fill="orange" stroke="orange" points="56.5,-188.89 60,-198.89 63.5,-188.89 56.5,-188.89"/>
</a>
</g>
<text text-anchor="middle" x="83.5" y="-173" font-family="Helvetica,sans-Serif" font-size="10.00" fill="grey"> &lt; void &gt;</text>
</g>
</g>
</svg>
