<?xml version="1.0" encoding="UTF-8" standalone="no"?>
<!DOCTYPE svg PUBLIC "-//W3C//DTD SVG 1.1//EN"
 "http://www.w3.org/Graphics/SVG/1.1/DTD/svg11.dtd">
<!-- Generated by graphviz version 2.43.0 (0)
 -->
<!-- Title: application::app_ds::linear::Linear::stack Pages: 1 -->
<svg width="294pt" height="86pt"
 viewBox="0.00 0.00 294.00 86.00" xmlns="http://www.w3.org/2000/svg" xmlns:xlink="http://www.w3.org/1999/xlink">
<g id="graph0" class="graph" transform="scale(1 1) rotate(0) translate(4 82)">
<title>application::app_ds::linear::Linear::stack</title>
<!-- Node1 -->
<g id="Node000001" class="node">
<title>Node1</title>
<g id="a_Node000001"><a xlink:title="Stack.">
<polygon fill="#999999" stroke="#666666" points="286,-48.5 167,-48.5 167,-18.5 286,-18.5 286,-48.5"/>
<text text-anchor="start" x="175" y="-36.5" font-family="Helvetica,sans-Serif" font-size="10.00">application::app_ds</text>
<text text-anchor="middle" x="226.5" y="-25.5" font-family="Helvetica,sans-Serif" font-size="10.00">::linear::Linear::stack</text>
</a>
</g>
</g>
<!-- Node1&#45;&gt;Node1 -->
<g id="edge1_Node000001_Node000001" class="edge">
<title>Node1&#45;&gt;Node1</title>
<g id="a_edge1_Node000001_Node000001"><a xlink:title=" ">
<path fill="none" stroke="#63b8ff" d="M254.51,-59.1C250.68,-63.47 241.34,-66.5 226.5,-66.5 201.5,-66.5 192.12,-57.91 198.38,-48.78"/>
<polygon fill="#63b8ff" stroke="#63b8ff" points="258.01,-58.82 254.62,-48.78 251.01,-58.73 258.01,-58.82"/>
</a>
</g>
</g>
<!-- Node2 -->
<g id="Node000002" class="node">
<title>Node2</title>
<g id="a_Node000002"><a xlink:href="../../d5/da6/classapplication_1_1app__ds_1_1linear_1_1LinearStructure.html#abb098beccaabb33a09f248251ccad078" target="_top" xlink:title="The stack instance.">
<polygon fill="white" stroke="#666666" points="131,-78 0,-78 0,-37 131,-37 131,-78"/>
<text text-anchor="start" x="8" y="-66" font-family="Helvetica,sans-Serif" font-size="10.00">application::app_ds</text>
<text text-anchor="start" x="8" y="-55" font-family="Helvetica,sans-Serif" font-size="10.00">::linear::LinearStructure</text>
<text text-anchor="middle" x="65.5" y="-44" font-family="Helvetica,sans-Serif" font-size="10.00">::stackInstance</text>
</a>
</g>
</g>
<!-- Node1&#45;&gt;Node2 -->
<g id="edge2_Node000001_Node000002" class="edge">
<title>Node1&#45;&gt;Node2</title>
<g id="a_edge2_Node000001_Node000002"><a xlink:title=" ">
<path fill="none" stroke="#63b8ff" d="M156.84,-43.86C148.32,-45.15 139.63,-46.46 131.17,-47.74"/>
<polygon fill="#63b8ff" stroke="#63b8ff" points="157.38,-47.32 166.75,-42.37 156.34,-40.4 157.38,-47.32"/>
</a>
</g>
</g>
<!-- Node3 -->
<g id="Node000003" class="node">
<title>Node3</title>
<g id="a_Node000003"><a xlink:href="../../d4/db9/namespacetest_1_1tst__ds.html#af3f1ddd282ebd89eec79cdc339de0a19" target="_top" xlink:title="Test for the stack instance in the structure of linear.">
<polygon fill="white" stroke="#666666" points="121.5,-19 9.5,-19 9.5,0 121.5,0 121.5,-19"/>
<text text-anchor="middle" x="65.5" y="-7" font-family="Helvetica,sans-Serif" font-size="10.00">test::tst_ds::TEST_F</text>
</a>
</g>
</g>
<!-- Node1&#45;&gt;Node3 -->
<g id="edge3_Node000001_Node000003" class="edge">
<title>Node1&#45;&gt;Node3</title>
<g id="a_edge3_Node000001_Node000003"><a xlink:title=" ">
<path fill="none" stroke="#63b8ff" d="M156.57,-23.1C144.88,-21.33 132.87,-19.52 121.59,-17.81"/>
<polygon fill="#63b8ff" stroke="#63b8ff" points="156.34,-26.6 166.75,-24.63 157.38,-19.68 156.34,-26.6"/>
</a>
</g>
</g>
</g>
</svg>
