<?xml version="1.0" encoding="UTF-8" standalone="no"?>
<!DOCTYPE svg PUBLIC "-//W3C//DTD SVG 1.1//EN"
 "http://www.w3.org/Graphics/SVG/1.1/DTD/svg11.dtd">
<!-- Generated by graphviz version 2.43.0 (0)
 -->
<!-- Title: application::app_ds::linear::Linear::queue Pages: 1 -->
<svg width="297pt" height="86pt"
 viewBox="0.00 0.00 297.00 86.00" xmlns="http://www.w3.org/2000/svg" xmlns:xlink="http://www.w3.org/1999/xlink">
<g id="graph0" class="graph" transform="scale(1 1) rotate(0) translate(4 82)">
<title>application::app_ds::linear::Linear::queue</title>
<!-- Node1 -->
<g id="Node000001" class="node">
<title>Node1</title>
<g id="a_Node000001"><a xlink:title="Queue.">
<polygon fill="#999999" stroke="#666666" points="289,-48.5 167,-48.5 167,-18.5 289,-18.5 289,-48.5"/>
<text text-anchor="start" x="175" y="-36.5" font-family="Helvetica,sans-Serif" font-size="10.00">application::app_ds</text>
<text text-anchor="middle" x="228" y="-25.5" font-family="Helvetica,sans-Serif" font-size="10.00">::linear::Linear::queue</text>
</a>
</g>
</g>
<!-- Node1&#45;&gt;Node1 -->
<g id="edge1_Node000001_Node000001" class="edge">
<title>Node1&#45;&gt;Node1</title>
<g id="a_edge1_Node000001_Node000001"><a xlink:title=" ">
<path fill="none" stroke="#63b8ff" d="M256.36,-59.1C252.48,-63.47 243.03,-66.5 228,-66.5 202.69,-66.5 193.2,-57.91 199.52,-48.78"/>
<polygon fill="#63b8ff" stroke="#63b8ff" points="259.86,-58.82 256.48,-48.78 252.86,-58.73 259.86,-58.82"/>
</a>
</g>
</g>
<!-- Node2 -->
<g id="Node000002" class="node">
<title>Node2</title>
<g id="a_Node000002"><a xlink:href="../../d5/da6/classapplication_1_1app__ds_1_1linear_1_1LinearStructure.html#a328a3361e2f6d32e84a73eac6c0805eb" target="_top" xlink:title="The queue instance.">
<polygon fill="white" stroke="#666666" points="131,-78 0,-78 0,-37 131,-37 131,-78"/>
<text text-anchor="start" x="8" y="-66" font-family="Helvetica,sans-Serif" font-size="10.00">application::app_ds</text>
<text text-anchor="start" x="8" y="-55" font-family="Helvetica,sans-Serif" font-size="10.00">::linear::LinearStructure</text>
<text text-anchor="middle" x="65.5" y="-44" font-family="Helvetica,sans-Serif" font-size="10.00">::queueInstance</text>
</a>
</g>
</g>
<!-- Node1&#45;&gt;Node2 -->
<g id="edge2_Node000001_Node000002" class="edge">
<title>Node1&#45;&gt;Node2</title>
<g id="a_edge2_Node000001_Node000002"><a xlink:title=" ">
<path fill="none" stroke="#63b8ff" d="M156.83,-43.99C148.27,-45.27 139.56,-46.58 131.09,-47.84"/>
<polygon fill="#63b8ff" stroke="#63b8ff" points="157.41,-47.45 166.78,-42.5 156.37,-40.52 157.41,-47.45"/>
</a>
</g>
</g>
<!-- Node3 -->
<g id="Node000003" class="node">
<title>Node3</title>
<g id="a_Node000003"><a xlink:href="../../d4/db9/namespacetest_1_1tst__ds.html#a892ccca3259360d096dc4a6eb0b3a926" target="_top" xlink:title="Test for the queue instance in the structure of linear.">
<polygon fill="white" stroke="#666666" points="121.5,-19 9.5,-19 9.5,0 121.5,0 121.5,-19"/>
<text text-anchor="middle" x="65.5" y="-7" font-family="Helvetica,sans-Serif" font-size="10.00">test::tst_ds::TEST_F</text>
</a>
</g>
</g>
<!-- Node1&#45;&gt;Node3 -->
<g id="edge3_Node000001_Node000003" class="edge">
<title>Node1&#45;&gt;Node3</title>
<g id="a_edge3_Node000001_Node000003"><a xlink:title=" ">
<path fill="none" stroke="#63b8ff" d="M156.62,-22.98C144.95,-21.23 132.99,-19.44 121.76,-17.76"/>
<polygon fill="#63b8ff" stroke="#63b8ff" points="156.37,-26.48 166.78,-24.5 157.41,-19.55 156.37,-26.48"/>
</a>
</g>
</g>
</g>
</svg>
