<?xml version="1.0" encoding="UTF-8" standalone="no"?>
<!DOCTYPE svg PUBLIC "-//W3C//DTD SVG 1.1//EN"
 "http://www.w3.org/Graphics/SVG/1.1/DTD/svg11.dtd">
<!-- Generated by graphviz version 2.43.0 (0)
 -->
<!-- Title: application::app_ds::linear::Linear::linkedList Pages: 1 -->
<svg width="314pt" height="86pt"
 viewBox="0.00 0.00 314.00 86.00" xmlns="http://www.w3.org/2000/svg" xmlns:xlink="http://www.w3.org/1999/xlink">
<g id="graph0" class="graph" transform="scale(1 1) rotate(0) translate(4 82)">
<title>application::app_ds::linear::Linear::linkedList</title>
<!-- Node1 -->
<g id="Node000001" class="node">
<title>Node1</title>
<g id="a_Node000001"><a xlink:title="Linked list.">
<polygon fill="#999999" stroke="#666666" points="306,-48.5 167,-48.5 167,-18.5 306,-18.5 306,-48.5"/>
<text text-anchor="start" x="175" y="-36.5" font-family="Helvetica,sans-Serif" font-size="10.00">application::app_ds</text>
<text text-anchor="middle" x="236.5" y="-25.5" font-family="Helvetica,sans-Serif" font-size="10.00">::linear::Linear::linkedList</text>
</a>
</g>
</g>
<!-- Node2 -->
<g id="Node000002" class="node">
<title>Node2</title>
<g id="a_Node000002"><a xlink:href="../../d5/da6/classapplication_1_1app__ds_1_1linear_1_1LinearStructure.html#a9777d504fa05b78e2966dcd79408511f" target="_top" xlink:title="The linked list instance.">
<polygon fill="white" stroke="#666666" points="131,-78 0,-78 0,-37 131,-37 131,-78"/>
<text text-anchor="start" x="8" y="-66" font-family="Helvetica,sans-Serif" font-size="10.00">application::app_ds</text>
<text text-anchor="start" x="8" y="-55" font-family="Helvetica,sans-Serif" font-size="10.00">::linear::LinearStructure</text>
<text text-anchor="middle" x="65.5" y="-44" font-family="Helvetica,sans-Serif" font-size="10.00">::linkedListInstance</text>
</a>
</g>
</g>
<!-- Node1&#45;&gt;Node2 -->
<g id="edge1_Node000001_Node000002" class="edge">
<title>Node1&#45;&gt;Node2</title>
<g id="a_edge1_Node000001_Node000002"><a xlink:title=" ">
<path fill="none" stroke="#63b8ff" d="M156.74,-44.69C148.15,-45.91 139.48,-47.14 131.08,-48.33"/>
<polygon fill="#63b8ff" stroke="#63b8ff" points="157.35,-48.13 166.76,-43.26 156.37,-41.2 157.35,-48.13"/>
</a>
</g>
</g>
<!-- Node3 -->
<g id="Node000003" class="node">
<title>Node3</title>
<g id="a_Node000003"><a xlink:href="../../d4/db9/namespacetest_1_1tst__ds.html#a6883ca0b5e95b9ebd5e30ecac75aac78" target="_top" xlink:title="Test for the linked list instance in the structure of linear.">
<polygon fill="white" stroke="#666666" points="121.5,-19 9.5,-19 9.5,0 121.5,0 121.5,-19"/>
<text text-anchor="middle" x="65.5" y="-7" font-family="Helvetica,sans-Serif" font-size="10.00">test::tst_ds::TEST_F</text>
</a>
</g>
</g>
<!-- Node1&#45;&gt;Node3 -->
<g id="edge2_Node000001_Node000003" class="edge">
<title>Node1&#45;&gt;Node3</title>
<g id="a_edge2_Node000001_Node000003"><a xlink:title=" ">
<path fill="none" stroke="#63b8ff" d="M156.85,-22.33C144.98,-20.64 132.96,-18.94 121.72,-17.34"/>
<polygon fill="#63b8ff" stroke="#63b8ff" points="156.37,-25.8 166.76,-23.74 157.35,-18.87 156.37,-25.8"/>
</a>
</g>
</g>
</g>
</svg>
