<?xml version="1.0" encoding="UTF-8" standalone="no"?>
<!DOCTYPE svg PUBLIC "-//W3C//DTD SVG 1.1//EN"
 "http://www.w3.org/Graphics/SVG/1.1/DTD/svg11.dtd">
<!-- Generated by graphviz version 2.43.0 (0)
 -->
<!-- Title: utility::fsm::FSM&lt; Derived, State &gt; Pages: 1 -->
<svg width="270pt" height="171pt"
 viewBox="0.00 0.00 270.00 171.00" xmlns="http://www.w3.org/2000/svg" xmlns:xlink="http://www.w3.org/1999/xlink">
<g id="graph0" class="graph" transform="scale(1 1) rotate(0) translate(4 167)">
<title>utility::fsm::FSM&lt; Derived, State &gt;</title>
<!-- Node1 -->
<g id="Node000001" class="node">
<title>Node1</title>
<g id="a_Node000001"><a xlink:title="Finite state machine.">
<polygon fill="#999999" stroke="#666666" points="175.5,-163 71.5,-163 71.5,-133 175.5,-133 175.5,-163"/>
<text text-anchor="start" x="79.5" y="-151" font-family="Helvetica,sans-Serif" font-size="10.00">utility::fsm::FSM&lt;</text>
<text text-anchor="middle" x="123.5" y="-140" font-family="Helvetica,sans-Serif" font-size="10.00"> Derived, State &gt;</text>
</a>
</g>
</g>
<!-- Node2 -->
<g id="Node000002" class="node">
<title>Node2</title>
<g id="a_Node000002"><a xlink:href="../../d1/d46/classutility_1_1fsm_1_1FSM.html" target="_top" xlink:title=" ">
<polygon fill="white" stroke="#666666" points="114.5,-86 10.5,-86 10.5,-56 114.5,-56 114.5,-86"/>
<text text-anchor="start" x="18.5" y="-74" font-family="Helvetica,sans-Serif" font-size="10.00">utility::fsm::FSM&lt;</text>
<text text-anchor="middle" x="62.5" y="-63" font-family="Helvetica,sans-Serif" font-size="10.00"> Log &gt;</text>
</a>
</g>
</g>
<!-- Node1&#45;&gt;Node2 -->
<g id="edge1_Node000001_Node000002" class="edge">
<title>Node1&#45;&gt;Node2</title>
<g id="a_edge1_Node000001_Node000002"><a xlink:title=" ">
<path fill="none" stroke="orange" stroke-dasharray="5,2" d="M105.69,-125.1C95.43,-112.49 82.85,-97.03 73.92,-86.04"/>
<polygon fill="orange" stroke="orange" points="103,-127.34 112.03,-132.89 108.43,-122.93 103,-127.34"/>
</a>
</g>
<text text-anchor="middle" x="119" y="-107" font-family="Helvetica,sans-Serif" font-size="10.00" fill="grey"> &lt; Log &gt;</text>
</g>
<!-- Node4 -->
<g id="Node000004" class="node">
<title>Node4</title>
<g id="a_Node000004"><a xlink:href="../../d1/d46/classutility_1_1fsm_1_1FSM.html" target="_top" xlink:title=" ">
<polygon fill="white" stroke="#666666" points="245.5,-86 141.5,-86 141.5,-56 245.5,-56 245.5,-86"/>
<text text-anchor="start" x="149.5" y="-74" font-family="Helvetica,sans-Serif" font-size="10.00">utility::fsm::FSM&lt;</text>
<text text-anchor="middle" x="193.5" y="-63" font-family="Helvetica,sans-Serif" font-size="10.00"> View &gt;</text>
</a>
</g>
</g>
<!-- Node1&#45;&gt;Node4 -->
<g id="edge3_Node000001_Node000004" class="edge">
<title>Node1&#45;&gt;Node4</title>
<g id="a_edge3_Node000001_Node000004"><a xlink:title=" ">
<path fill="none" stroke="orange" stroke-dasharray="5,2" d="M143.61,-125.46C155.43,-112.79 170.04,-97.13 180.39,-86.04"/>
<polygon fill="orange" stroke="orange" points="140.93,-123.19 136.67,-132.89 146.05,-127.97 140.93,-123.19"/>
</a>
</g>
<text text-anchor="middle" x="188.5" y="-107" font-family="Helvetica,sans-Serif" font-size="10.00" fill="grey"> &lt; View &gt;</text>
</g>
<!-- Node3 -->
<g id="Node000003" class="node">
<title>Node3</title>
<g id="a_Node000003"><a xlink:href="../../d9/d9b/classapplication_1_1log_1_1Log.html" target="_top" xlink:title="Logger.">
<polygon fill="white" stroke="#666666" points="115,-19 0,-19 0,0 115,0 115,-19"/>
<text text-anchor="middle" x="57.5" y="-7" font-family="Helvetica,sans-Serif" font-size="10.00">application::log::Log</text>
</a>
</g>
</g>
<!-- Node2&#45;&gt;Node3 -->
<g id="edge2_Node000002_Node000003" class="edge">
<title>Node2&#45;&gt;Node3</title>
<g id="a_edge2_Node000002_Node000003"><a xlink:title=" ">
<path fill="none" stroke="#63b8ff" d="M60.47,-45.79C59.67,-36.36 58.82,-26.15 58.23,-19.16"/>
<polygon fill="#63b8ff" stroke="#63b8ff" points="56.99,-46.23 61.32,-55.9 63.97,-45.64 56.99,-46.23"/>
</a>
</g>
</g>
<!-- Node5 -->
<g id="Node000005" class="node">
<title>Node5</title>
<g id="a_Node000005"><a xlink:href="../../d5/dbb/classapplication_1_1view_1_1View.html" target="_top" xlink:title="Viewer.">
<polygon fill="white" stroke="#666666" points="262,-19 133,-19 133,0 262,0 262,-19"/>
<text text-anchor="middle" x="197.5" y="-7" font-family="Helvetica,sans-Serif" font-size="10.00">application::view::View</text>
</a>
</g>
</g>
<!-- Node4&#45;&gt;Node5 -->
<g id="edge4_Node000004_Node000005" class="edge">
<title>Node4&#45;&gt;Node5</title>
<g id="a_edge4_Node000004_Node000005"><a xlink:title=" ">
<path fill="none" stroke="#63b8ff" d="M195.13,-45.79C195.76,-36.36 196.45,-26.15 196.92,-19.16"/>
<polygon fill="#63b8ff" stroke="#63b8ff" points="191.63,-45.69 194.45,-55.9 198.61,-46.16 191.63,-45.69"/>
</a>
</g>
</g>
</g>
</svg>
