<?xml version="1.0" encoding="UTF-8" standalone="no"?>
<!DOCTYPE svg PUBLIC "-//W3C//DTD SVG 1.1//EN"
 "http://www.w3.org/Graphics/SVG/1.1/DTD/svg11.dtd">
<!-- Generated by graphviz version 2.43.0 (0)
 -->
<!-- Title: test/unit Pages: 1 -->
<svg width="236pt" height="117pt"
 viewBox="0.00 0.00 235.50 117.00" xmlns="http://www.w3.org/2000/svg" xmlns:xlink="http://www.w3.org/1999/xlink">
<g id="graph0" class="graph" transform="scale(1 1) rotate(0) translate(4 113)">
<title>test/unit</title>
<g id="clust1" class="cluster">
<title>clusterdir_13e138d54eb8818da29c3992edef070a</title>
<g id="a_clust1"><a xlink:href="dir_13e138d54eb8818da29c3992edef070a.html" target="_top" xlink:title="test">
<polygon fill="#edf0f7" stroke="#404040" stroke-dasharray="5,2" points="84,-47 84,-101 136,-101 136,-47 84,-47"/>
<text text-anchor="middle" x="110" y="-89" font-family="Helvetica,sans-Serif" font-size="10.00">test</text>
</a>
</g>
</g>
<!-- dir_6a07fdbc4b50e86806a88566ca8f66e4 -->
<g id="node1" class="node">
<title>dir_6a07fdbc4b50e86806a88566ca8f66e4</title>
<g id="a_node1"><a xlink:href="dir_6a07fdbc4b50e86806a88566ca8f66e4.html" target="_top" xlink:title="unit">
<polygon fill="#edf0f7" stroke="#404040" stroke-width="2" points="127.5,-74 92.5,-74 92.5,-55 127.5,-55 127.5,-74"/>
<text text-anchor="middle" x="110" y="-62" font-family="Helvetica,sans-Serif" font-size="10.00">unit</text>
</a>
</g>
</g>
<!-- dir_692f640cc74363071c5c0e14282656e9 -->
<g id="node2" class="node">
<title>dir_692f640cc74363071c5c0e14282656e9</title>
<g id="a_node2"><a xlink:href="dir_692f640cc74363071c5c0e14282656e9.html" target="_top" xlink:title="algorithm">
<polygon fill="#edf0f7" stroke="red" points="64,-19 0,-19 0,0 64,0 64,-19"/>
<text text-anchor="middle" x="32" y="-7" font-family="Helvetica,sans-Serif" font-size="10.00">algorithm</text>
</a>
</g>
</g>
<!-- dir_6a07fdbc4b50e86806a88566ca8f66e4&#45;&gt;dir_692f640cc74363071c5c0e14282656e9 -->
<g id="edge1" class="edge">
<title>dir_6a07fdbc4b50e86806a88566ca8f66e4&#45;&gt;dir_692f640cc74363071c5c0e14282656e9</title>
<path fill="none" stroke="#63b8ff" d="M97.47,-54.98C85.6,-46.92 67.54,-34.65 53.39,-25.03"/>
<polygon fill="#63b8ff" stroke="#63b8ff" points="55,-21.9 44.76,-19.17 51.06,-27.69 55,-21.9"/>
<g id="a_edge1&#45;headlabel"><a xlink:href="dir_000022_000000.html" target="_top" xlink:title="5">
<text text-anchor="middle" x="59.57" y="-19.07" font-family="Helvetica,sans-Serif" font-size="10.00" fill="#63b8ff">5</text>
</a>
</g>
</g>
<!-- dir_c6a84fe5d17415326939931ef0fa4cf0 -->
<g id="node3" class="node">
<title>dir_c6a84fe5d17415326939931ef0fa4cf0</title>
<g id="a_node3"><a xlink:href="dir_c6a84fe5d17415326939931ef0fa4cf0.html" target="_top" xlink:title="numeric">
<polygon fill="#edf0f7" stroke="red" points="138,-19 82,-19 82,0 138,0 138,-19"/>
<text text-anchor="middle" x="110" y="-7" font-family="Helvetica,sans-Serif" font-size="10.00">numeric</text>
</a>
</g>
</g>
<!-- dir_6a07fdbc4b50e86806a88566ca8f66e4&#45;&gt;dir_c6a84fe5d17415326939931ef0fa4cf0 -->
<g id="edge2" class="edge">
<title>dir_6a07fdbc4b50e86806a88566ca8f66e4&#45;&gt;dir_c6a84fe5d17415326939931ef0fa4cf0</title>
<path fill="none" stroke="#63b8ff" d="M110,-54.75C110,-47.8 110,-37.85 110,-29.13"/>
<polygon fill="#63b8ff" stroke="#63b8ff" points="113.5,-29.09 110,-19.09 106.5,-29.09 113.5,-29.09"/>
<g id="a_edge2&#45;headlabel"><a xlink:href="dir_000022_000013.html" target="_top" xlink:title="4">
<text text-anchor="middle" x="116.34" y="-30.18" font-family="Helvetica,sans-Serif" font-size="10.00" fill="#63b8ff">4</text>
</a>
</g>
</g>
<!-- dir_d75c23162a2652451dce46d2e7e8aead -->
<g id="node4" class="node">
<title>dir_d75c23162a2652451dce46d2e7e8aead</title>
<g id="a_node4"><a xlink:href="dir_d75c23162a2652451dce46d2e7e8aead.html" target="_top" xlink:title="application">
<polygon fill="#edf0f7" stroke="red" points="227.5,-19 156.5,-19 156.5,0 227.5,0 227.5,-19"/>
<text text-anchor="middle" x="192" y="-7" font-family="Helvetica,sans-Serif" font-size="10.00">application</text>
</a>
</g>
</g>
<!-- dir_6a07fdbc4b50e86806a88566ca8f66e4&#45;&gt;dir_d75c23162a2652451dce46d2e7e8aead -->
<g id="edge3" class="edge">
<title>dir_6a07fdbc4b50e86806a88566ca8f66e4&#45;&gt;dir_d75c23162a2652451dce46d2e7e8aead</title>
<path fill="none" stroke="#63b8ff" d="M123.17,-54.98C135.77,-46.84 155,-34.41 169.94,-24.76"/>
<polygon fill="#63b8ff" stroke="#63b8ff" points="172.09,-27.54 178.59,-19.17 168.29,-21.66 172.09,-27.54"/>
<g id="a_edge3&#45;headlabel"><a xlink:href="dir_000022_000001.html" target="_top" xlink:title="4">
<text text-anchor="middle" x="170.61" y="-29.37" font-family="Helvetica,sans-Serif" font-size="10.00" fill="#63b8ff">4</text>
</a>
</g>
</g>
</g>
</svg>
