<?xml version="1.0" encoding="UTF-8" standalone="no"?>
<!DOCTYPE svg PUBLIC "-//W3C//DTD SVG 1.1//EN"
 "http://www.w3.org/Graphics/SVG/1.1/DTD/svg11.dtd">
<!-- Generated by graphviz version 2.43.0 (0)
 -->
<!-- Title: test Pages: 1 -->
<svg width="236pt" height="98pt"
 viewBox="0.00 0.00 236.00 98.00" xmlns="http://www.w3.org/2000/svg" xmlns:xlink="http://www.w3.org/1999/xlink">
<g id="graph0" class="graph" transform="scale(1 1) rotate(0) translate(4 94)">
<title>test</title>
<g id="clust1" class="cluster">
<title>clusterdir_13e138d54eb8818da29c3992edef070a</title>
<g id="a_clust1"><a xlink:href="dir_13e138d54eb8818da29c3992edef070a.html" target="_top">
<polygon fill="#edf0f7" stroke="#404040" stroke-width="2" points="92,-47 92,-82 197,-82 197,-47 92,-47"/>
</a>
</g>
</g>
<!-- dir_13e138d54eb8818da29c3992edef070a -->
<g id="node1" class="node">
<title>dir_13e138d54eb8818da29c3992edef070a</title>
<text text-anchor="middle" x="171" y="-62" font-family="Helvetica,sans-Serif" font-size="10.00">test</text>
</g>
<!-- dir_6a07fdbc4b50e86806a88566ca8f66e4 -->
<g id="node2" class="node">
<title>dir_6a07fdbc4b50e86806a88566ca8f66e4</title>
<g id="a_node2"><a xlink:href="dir_6a07fdbc4b50e86806a88566ca8f66e4.html" target="_top" xlink:title="unit">
<polygon fill="#a2b4d6" stroke="#404040" points="135.5,-74 100.5,-74 100.5,-55 135.5,-55 135.5,-74"/>
<text text-anchor="middle" x="118" y="-62" font-family="Helvetica,sans-Serif" font-size="10.00">unit</text>
</a>
</g>
</g>
<!-- dir_692f640cc74363071c5c0e14282656e9 -->
<g id="node3" class="node">
<title>dir_692f640cc74363071c5c0e14282656e9</title>
<g id="a_node3"><a xlink:href="dir_692f640cc74363071c5c0e14282656e9.html" target="_top" xlink:title="algorithm">
<polygon fill="#edf0f7" stroke="red" points="64,-19 0,-19 0,0 64,0 64,-19"/>
<text text-anchor="middle" x="32" y="-7" font-family="Helvetica,sans-Serif" font-size="10.00">algorithm</text>
</a>
</g>
</g>
<!-- dir_6a07fdbc4b50e86806a88566ca8f66e4&#45;&gt;dir_692f640cc74363071c5c0e14282656e9 -->
<g id="edge1" class="edge">
<title>dir_6a07fdbc4b50e86806a88566ca8f66e4&#45;&gt;dir_692f640cc74363071c5c0e14282656e9</title>
<path fill="none" stroke="#63b8ff" d="M104.18,-54.98C90.85,-46.77 70.42,-34.18 54.69,-24.49"/>
<polygon fill="#63b8ff" stroke="#63b8ff" points="56.42,-21.44 46.07,-19.17 52.75,-27.4 56.42,-21.44"/>
<g id="a_edge1&#45;headlabel"><a xlink:href="dir_000022_000000.html" target="_top" xlink:title="5">
<text text-anchor="middle" x="60.97" y="-18.41" font-family="Helvetica,sans-Serif" font-size="10.00" fill="#63b8ff">5</text>
</a>
</g>
</g>
<!-- dir_d75c23162a2652451dce46d2e7e8aead -->
<g id="node4" class="node">
<title>dir_d75c23162a2652451dce46d2e7e8aead</title>
<g id="a_node4"><a xlink:href="dir_d75c23162a2652451dce46d2e7e8aead.html" target="_top" xlink:title="application">
<polygon fill="#edf0f7" stroke="red" points="153.5,-19 82.5,-19 82.5,0 153.5,0 153.5,-19"/>
<text text-anchor="middle" x="118" y="-7" font-family="Helvetica,sans-Serif" font-size="10.00">application</text>
</a>
</g>
</g>
<!-- dir_6a07fdbc4b50e86806a88566ca8f66e4&#45;&gt;dir_d75c23162a2652451dce46d2e7e8aead -->
<g id="edge3" class="edge">
<title>dir_6a07fdbc4b50e86806a88566ca8f66e4&#45;&gt;dir_d75c23162a2652451dce46d2e7e8aead</title>
<path fill="none" stroke="#63b8ff" d="M118,-54.75C118,-47.8 118,-37.85 118,-29.13"/>
<polygon fill="#63b8ff" stroke="#63b8ff" points="121.5,-29.09 118,-19.09 114.5,-29.09 121.5,-29.09"/>
<g id="a_edge3&#45;headlabel"><a xlink:href="dir_000022_000001.html" target="_top" xlink:title="4">
<text text-anchor="middle" x="124.34" y="-30.18" font-family="Helvetica,sans-Serif" font-size="10.00" fill="#63b8ff">4</text>
</a>
</g>
</g>
<!-- dir_c6a84fe5d17415326939931ef0fa4cf0 -->
<g id="node5" class="node">
<title>dir_c6a84fe5d17415326939931ef0fa4cf0</title>
<g id="a_node5"><a xlink:href="dir_c6a84fe5d17415326939931ef0fa4cf0.html" target="_top" xlink:title="numeric">
<polygon fill="#edf0f7" stroke="red" points="228,-19 172,-19 172,0 228,0 228,-19"/>
<text text-anchor="middle" x="200" y="-7" font-family="Helvetica,sans-Serif" font-size="10.00">numeric</text>
</a>
</g>
</g>
<!-- dir_6a07fdbc4b50e86806a88566ca8f66e4&#45;&gt;dir_c6a84fe5d17415326939931ef0fa4cf0 -->
<g id="edge2" class="edge">
<title>dir_6a07fdbc4b50e86806a88566ca8f66e4&#45;&gt;dir_c6a84fe5d17415326939931ef0fa4cf0</title>
<path fill="none" stroke="#63b8ff" d="M131.17,-54.98C143.77,-46.84 163,-34.41 177.94,-24.76"/>
<polygon fill="#63b8ff" stroke="#63b8ff" points="180.09,-27.54 186.59,-19.17 176.29,-21.66 180.09,-27.54"/>
<g id="a_edge2&#45;headlabel"><a xlink:href="dir_000022_000013.html" target="_top" xlink:title="4">
<text text-anchor="middle" x="178.61" y="-29.37" font-family="Helvetica,sans-Serif" font-size="10.00" fill="#63b8ff">4</text>
</a>
</g>
</g>
</g>
</svg>
