<?xml version="1.0" encoding="UTF-8" standalone="no"?>
<!DOCTYPE svg PUBLIC "-//W3C//DTD SVG 1.1//EN"
 "http://www.w3.org/Graphics/SVG/1.1/DTD/svg11.dtd">
<!-- Generated by graphviz version 2.43.0 (0)
 -->
<!-- Title: application/example/source Pages: 1 -->
<svg width="352pt" height="133pt"
 viewBox="0.00 0.00 352.00 133.00" xmlns="http://www.w3.org/2000/svg" xmlns:xlink="http://www.w3.org/1999/xlink">
<g id="graph0" class="graph" transform="scale(1 1) rotate(0) translate(4 129)">
<title>application/example/source</title>
<g id="clust1" class="cluster">
<title>clusterdir_63d837b10e3128e2d1f8560ce8004903</title>
<g id="a_clust1"><a xlink:href="dir_63d837b10e3128e2d1f8560ce8004903.html" target="_top" xlink:title="example">
<polygon fill="#edf0f7" stroke="#7f7f7f" stroke-dasharray="5,2" points="8,-8 8,-117 76,-117 76,-8 8,-8"/>
<text text-anchor="middle" x="42" y="-105" font-family="Helvetica,sans-Serif" font-size="10.00">example</text>
</a>
</g>
</g>
<!-- dir_1ce8cbcfe90791fd5ec387415c69477d -->
<g id="node1" class="node">
<title>dir_1ce8cbcfe90791fd5ec387415c69477d</title>
<g id="a_node1"><a xlink:href="dir_1ce8cbcfe90791fd5ec387415c69477d.html" target="_top" xlink:title="include">
<polygon fill="#a2b4d6" stroke="#404040" points="68,-35 16,-35 16,-16 68,-16 68,-35"/>
<text text-anchor="middle" x="42" y="-23" font-family="Helvetica,sans-Serif" font-size="10.00">include</text>
</a>
</g>
</g>
<!-- dir_ac8f2cfd8108404330d43acda1502020 -->
<g id="node2" class="node">
<title>dir_ac8f2cfd8108404330d43acda1502020</title>
<g id="a_node2"><a xlink:href="dir_ac8f2cfd8108404330d43acda1502020.html" target="_top" xlink:title="source">
<polygon fill="#edf0f7" stroke="#404040" stroke-width="2" points="67.5,-90 18.5,-90 18.5,-71 67.5,-71 67.5,-90"/>
<text text-anchor="middle" x="43" y="-78" font-family="Helvetica,sans-Serif" font-size="10.00">source</text>
</a>
</g>
</g>
<!-- dir_ac8f2cfd8108404330d43acda1502020&#45;&gt;dir_1ce8cbcfe90791fd5ec387415c69477d -->
<g id="edge1" class="edge">
<title>dir_ac8f2cfd8108404330d43acda1502020&#45;&gt;dir_1ce8cbcfe90791fd5ec387415c69477d</title>
<path fill="none" stroke="#63b8ff" d="M42.83,-70.75C42.7,-63.8 42.52,-53.85 42.35,-45.13"/>
<polygon fill="#63b8ff" stroke="#63b8ff" points="45.85,-45.02 42.16,-35.09 38.85,-45.15 45.85,-45.02"/>
<g id="a_edge1&#45;headlabel"><a xlink:href="dir_000016_000008.html" target="_top" xlink:title="4">
<text text-anchor="middle" x="48.76" y="-46.06" font-family="Helvetica,sans-Serif" font-size="10.00" fill="#63b8ff">4</text>
</a>
</g>
</g>
<!-- dir_64e73385a8b7738563c26ce10415b58d -->
<g id="node3" class="node">
<title>dir_64e73385a8b7738563c26ce10415b58d</title>
<g id="a_node3"><a xlink:href="dir_64e73385a8b7738563c26ce10415b58d.html" target="_top" xlink:title="utility">
<polygon fill="#edf0f7" stroke="red" points="131.5,-35 86.5,-35 86.5,-16 131.5,-16 131.5,-35"/>
<text text-anchor="middle" x="109" y="-23" font-family="Helvetica,sans-Serif" font-size="10.00">utility</text>
</a>
</g>
</g>
<!-- dir_ac8f2cfd8108404330d43acda1502020&#45;&gt;dir_64e73385a8b7738563c26ce10415b58d -->
<g id="edge2" class="edge">
<title>dir_ac8f2cfd8108404330d43acda1502020&#45;&gt;dir_64e73385a8b7738563c26ce10415b58d</title>
<path fill="none" stroke="#63b8ff" d="M53.6,-70.98C63.46,-63.07 78.35,-51.11 90.22,-41.58"/>
<polygon fill="#63b8ff" stroke="#63b8ff" points="92.6,-44.16 98.2,-35.17 88.21,-38.7 92.6,-44.16"/>
<g id="a_edge2&#45;headlabel"><a xlink:href="dir_000016_000023.html" target="_top" xlink:title="4">
<text text-anchor="middle" x="91.57" y="-46.13" font-family="Helvetica,sans-Serif" font-size="10.00" fill="#63b8ff">4</text>
</a>
</g>
</g>
<!-- dir_692f640cc74363071c5c0e14282656e9 -->
<g id="node4" class="node">
<title>dir_692f640cc74363071c5c0e14282656e9</title>
<g id="a_node4"><a xlink:href="dir_692f640cc74363071c5c0e14282656e9.html" target="_top" xlink:title="algorithm">
<polygon fill="#edf0f7" stroke="red" points="214,-35 150,-35 150,-16 214,-16 214,-35"/>
<text text-anchor="middle" x="182" y="-23" font-family="Helvetica,sans-Serif" font-size="10.00">algorithm</text>
</a>
</g>
</g>
<!-- dir_ac8f2cfd8108404330d43acda1502020&#45;&gt;dir_692f640cc74363071c5c0e14282656e9 -->
<g id="edge3" class="edge">
<title>dir_ac8f2cfd8108404330d43acda1502020&#45;&gt;dir_692f640cc74363071c5c0e14282656e9</title>
<path fill="none" stroke="#63b8ff" d="M65.33,-70.98C88.2,-62.27 123.96,-48.63 149.86,-38.75"/>
<polygon fill="#63b8ff" stroke="#63b8ff" points="151.16,-42 159.26,-35.17 148.67,-35.46 151.16,-42"/>
<g id="a_edge3&#45;headlabel"><a xlink:href="dir_000016_000000.html" target="_top" xlink:title="5">
<text text-anchor="middle" x="148.82" y="-43.44" font-family="Helvetica,sans-Serif" font-size="10.00" fill="#63b8ff">5</text>
</a>
</g>
</g>
<!-- dir_c6a84fe5d17415326939931ef0fa4cf0 -->
<g id="node5" class="node">
<title>dir_c6a84fe5d17415326939931ef0fa4cf0</title>
<g id="a_node5"><a xlink:href="dir_c6a84fe5d17415326939931ef0fa4cf0.html" target="_top" xlink:title="numeric">
<polygon fill="#edf0f7" stroke="red" points="288,-35 232,-35 232,-16 288,-16 288,-35"/>
<text text-anchor="middle" x="260" y="-23" font-family="Helvetica,sans-Serif" font-size="10.00">numeric</text>
</a>
</g>
</g>
<!-- dir_ac8f2cfd8108404330d43acda1502020&#45;&gt;dir_c6a84fe5d17415326939931ef0fa4cf0 -->
<g id="edge4" class="edge">
<title>dir_ac8f2cfd8108404330d43acda1502020&#45;&gt;dir_c6a84fe5d17415326939931ef0fa4cf0</title>
<path fill="none" stroke="#63b8ff" d="M67.89,-73.42C105.69,-64.19 177.85,-46.56 222.17,-35.74"/>
<polygon fill="#63b8ff" stroke="#63b8ff" points="223.1,-39.12 231.99,-33.34 221.44,-32.31 223.1,-39.12"/>
<g id="a_edge4&#45;headlabel"><a xlink:href="dir_000016_000013.html" target="_top" xlink:title="4">
<text text-anchor="middle" x="220.28" y="-40.23" font-family="Helvetica,sans-Serif" font-size="10.00" fill="#63b8ff">4</text>
</a>
</g>
</g>
<!-- dir_dd7203712b918cee33f6bc4a130d95f5 -->
<g id="node6" class="node">
<title>dir_dd7203712b918cee33f6bc4a130d95f5</title>
<g id="a_node6"><a xlink:href="dir_dd7203712b918cee33f6bc4a130d95f5.html" target="_top" xlink:title="core">
<polygon fill="#edf0f7" stroke="red" stroke-dasharray="5,2" points="344,-35 306,-35 306,-16 344,-16 344,-35"/>
<text text-anchor="middle" x="325" y="-23" font-family="Helvetica,sans-Serif" font-size="10.00">core</text>
</a>
</g>
</g>
<!-- dir_ac8f2cfd8108404330d43acda1502020&#45;&gt;dir_dd7203712b918cee33f6bc4a130d95f5 -->
<g id="edge5" class="edge">
<title>dir_ac8f2cfd8108404330d43acda1502020&#45;&gt;dir_dd7203712b918cee33f6bc4a130d95f5</title>
<path fill="none" stroke="#63b8ff" d="M67.72,-76.19C111.77,-70.07 206.83,-55.88 296.07,-34.97"/>
<polygon fill="#63b8ff" stroke="#63b8ff" points="296.88,-38.38 305.8,-32.66 295.27,-31.57 296.88,-38.38"/>
<g id="a_edge5&#45;headlabel"><a xlink:href="dir_000016_000002.html" target="_top" xlink:title="8">
<text text-anchor="middle" x="294.04" y="-39.47" font-family="Helvetica,sans-Serif" font-size="10.00" fill="#63b8ff">8</text>
</a>
</g>
</g>
</g>
</svg>
