<?xml version="1.0" encoding="UTF-8" standalone="no"?>
<!DOCTYPE svg PUBLIC "-//W3C//DTD SVG 1.1//EN"
 "http://www.w3.org/Graphics/SVG/1.1/DTD/svg11.dtd">
<!-- Generated by graphviz version 2.43.0 (0)
 -->
<!-- Title: application/example/include Pages: 1 -->
<svg width="360pt" height="117pt"
 viewBox="0.00 0.00 359.50 117.00" xmlns="http://www.w3.org/2000/svg" xmlns:xlink="http://www.w3.org/1999/xlink">
<g id="graph0" class="graph" transform="scale(1 1) rotate(0) translate(4 113)">
<title>application/example/include</title>
<g id="clust1" class="cluster">
<title>clusterdir_63d837b10e3128e2d1f8560ce8004903</title>
<g id="a_clust1"><a xlink:href="dir_63d837b10e3128e2d1f8560ce8004903.html" target="_top" xlink:title="example">
<polygon fill="#edf0f7" stroke="#7f7f7f" stroke-dasharray="5,2" points="137,-47 137,-101 205,-101 205,-47 137,-47"/>
<text text-anchor="middle" x="171" y="-89" font-family="Helvetica,sans-Serif" font-size="10.00">example</text>
</a>
</g>
</g>
<!-- dir_1ce8cbcfe90791fd5ec387415c69477d -->
<g id="node1" class="node">
<title>dir_1ce8cbcfe90791fd5ec387415c69477d</title>
<g id="a_node1"><a xlink:href="dir_1ce8cbcfe90791fd5ec387415c69477d.html" target="_top" xlink:title="include">
<polygon fill="#edf0f7" stroke="#404040" stroke-width="2" points="197,-74 145,-74 145,-55 197,-55 197,-74"/>
<text text-anchor="middle" x="171" y="-62" font-family="Helvetica,sans-Serif" font-size="10.00">include</text>
</a>
</g>
</g>
<!-- dir_692f640cc74363071c5c0e14282656e9 -->
<g id="node2" class="node">
<title>dir_692f640cc74363071c5c0e14282656e9</title>
<g id="a_node2"><a xlink:href="dir_692f640cc74363071c5c0e14282656e9.html" target="_top" xlink:title="algorithm">
<polygon fill="#edf0f7" stroke="red" points="64,-19 0,-19 0,0 64,0 64,-19"/>
<text text-anchor="middle" x="32" y="-7" font-family="Helvetica,sans-Serif" font-size="10.00">algorithm</text>
</a>
</g>
</g>
<!-- dir_1ce8cbcfe90791fd5ec387415c69477d&#45;&gt;dir_692f640cc74363071c5c0e14282656e9 -->
<g id="edge1" class="edge">
<title>dir_1ce8cbcfe90791fd5ec387415c69477d&#45;&gt;dir_692f640cc74363071c5c0e14282656e9</title>
<path fill="none" stroke="#63b8ff" d="M148.67,-54.98C125.8,-46.27 90.04,-32.63 64.14,-22.75"/>
<polygon fill="#63b8ff" stroke="#63b8ff" points="65.33,-19.46 54.74,-19.17 62.84,-26 65.33,-19.46"/>
<g id="a_edge1&#45;headlabel"><a xlink:href="dir_000008_000000.html" target="_top" xlink:title="1">
<text text-anchor="middle" x="69.7" y="-15.59" font-family="Helvetica,sans-Serif" font-size="10.00" fill="#63b8ff">1</text>
</a>
</g>
</g>
<!-- dir_b8d8e9e6d882cbdac7436f7026baf609 -->
<g id="node3" class="node">
<title>dir_b8d8e9e6d882cbdac7436f7026baf609</title>
<g id="a_node3"><a xlink:href="dir_b8d8e9e6d882cbdac7436f7026baf609.html" target="_top" xlink:title="data_structure">
<polygon fill="#edf0f7" stroke="red" points="169.5,-19 82.5,-19 82.5,0 169.5,0 169.5,-19"/>
<text text-anchor="middle" x="126" y="-7" font-family="Helvetica,sans-Serif" font-size="10.00">data_structure</text>
</a>
</g>
</g>
<!-- dir_1ce8cbcfe90791fd5ec387415c69477d&#45;&gt;dir_b8d8e9e6d882cbdac7436f7026baf609 -->
<g id="edge2" class="edge">
<title>dir_1ce8cbcfe90791fd5ec387415c69477d&#45;&gt;dir_b8d8e9e6d882cbdac7436f7026baf609</title>
<path fill="none" stroke="#63b8ff" d="M163.57,-54.75C157.15,-47.18 147.69,-36.05 139.88,-26.84"/>
<polygon fill="#63b8ff" stroke="#63b8ff" points="142.43,-24.45 133.29,-19.09 137.1,-28.98 142.43,-24.45"/>
<g id="a_edge2&#45;headlabel"><a xlink:href="dir_000008_000003.html" target="_top" xlink:title="2">
<text text-anchor="middle" x="146.92" y="-22.85" font-family="Helvetica,sans-Serif" font-size="10.00" fill="#63b8ff">2</text>
</a>
</g>
</g>
<!-- dir_c6a84fe5d17415326939931ef0fa4cf0 -->
<g id="node4" class="node">
<title>dir_c6a84fe5d17415326939931ef0fa4cf0</title>
<g id="a_node4"><a xlink:href="dir_c6a84fe5d17415326939931ef0fa4cf0.html" target="_top" xlink:title="numeric">
<polygon fill="#edf0f7" stroke="red" points="244,-19 188,-19 188,0 244,0 244,-19"/>
<text text-anchor="middle" x="216" y="-7" font-family="Helvetica,sans-Serif" font-size="10.00">numeric</text>
</a>
</g>
</g>
<!-- dir_1ce8cbcfe90791fd5ec387415c69477d&#45;&gt;dir_c6a84fe5d17415326939931ef0fa4cf0 -->
<g id="edge3" class="edge">
<title>dir_1ce8cbcfe90791fd5ec387415c69477d&#45;&gt;dir_c6a84fe5d17415326939931ef0fa4cf0</title>
<path fill="none" stroke="#63b8ff" d="M178.43,-54.75C184.85,-47.18 194.31,-36.05 202.12,-26.84"/>
<polygon fill="#63b8ff" stroke="#63b8ff" points="204.9,-28.98 208.71,-19.09 199.57,-24.45 204.9,-28.98"/>
<g id="a_edge3&#45;headlabel"><a xlink:href="dir_000008_000013.html" target="_top" xlink:title="1">
<text text-anchor="middle" x="204.74" y="-31.06" font-family="Helvetica,sans-Serif" font-size="10.00" fill="#63b8ff">1</text>
</a>
</g>
</g>
<!-- dir_e0a7cfc3531cc26603db8805721b6f47 -->
<g id="node5" class="node">
<title>dir_e0a7cfc3531cc26603db8805721b6f47</title>
<g id="a_node5"><a xlink:href="dir_e0a7cfc3531cc26603db8805721b6f47.html" target="_top" xlink:title="design_pattern">
<polygon fill="#edf0f7" stroke="red" points="351.5,-19 262.5,-19 262.5,0 351.5,0 351.5,-19"/>
<text text-anchor="middle" x="307" y="-7" font-family="Helvetica,sans-Serif" font-size="10.00">design_pattern</text>
</a>
</g>
</g>
<!-- dir_1ce8cbcfe90791fd5ec387415c69477d&#45;&gt;dir_e0a7cfc3531cc26603db8805721b6f47 -->
<g id="edge4" class="edge">
<title>dir_1ce8cbcfe90791fd5ec387415c69477d&#45;&gt;dir_e0a7cfc3531cc26603db8805721b6f47</title>
<path fill="none" stroke="#63b8ff" d="M192.85,-54.98C215.12,-46.3 249.9,-32.75 275.22,-22.88"/>
<polygon fill="#63b8ff" stroke="#63b8ff" points="276.71,-26.06 284.75,-19.17 274.16,-19.54 276.71,-26.06"/>
<g id="a_edge4&#45;headlabel"><a xlink:href="dir_000008_000004.html" target="_top" xlink:title="3">
<text text-anchor="middle" x="274.39" y="-27.51" font-family="Helvetica,sans-Serif" font-size="10.00" fill="#63b8ff">3</text>
</a>
</g>
</g>
</g>
</svg>
