<?xml version="1.0" encoding="UTF-8" standalone="no"?>
<!DOCTYPE svg PUBLIC "-//W3C//DTD SVG 1.1//EN"
 "http://www.w3.org/Graphics/SVG/1.1/DTD/svg11.dtd">
<!-- Generated by graphviz version 2.43.0 (0)
 -->
<!-- Title: application/example Pages: 1 -->
<svg width="397pt" height="180pt"
 viewBox="0.00 0.00 396.50 180.00" xmlns="http://www.w3.org/2000/svg" xmlns:xlink="http://www.w3.org/1999/xlink">
<g id="graph0" class="graph" transform="scale(1 1) rotate(0) translate(4 176)">
<title>application/example</title>
<g id="clust1" class="cluster">
<title>clusterdir_d75c23162a2652451dce46d2e7e8aead</title>
<g id="a_clust1"><a xlink:href="dir_d75c23162a2652451dce46d2e7e8aead.html" target="_top" xlink:title="application">
<polygon fill="#edf0f7" stroke="#404040" stroke-dasharray="5,2" points="90,-39 90,-164 295,-164 295,-39 90,-39"/>
<text text-anchor="middle" x="192.5" y="-152" font-family="Helvetica,sans-Serif" font-size="10.00">application</text>
</a>
</g>
</g>
<g id="clust2" class="cluster">
<title>clusterdir_63d837b10e3128e2d1f8560ce8004903</title>
<g id="a_clust2"><a xlink:href="dir_63d837b10e3128e2d1f8560ce8004903.html" target="_top">
<polygon fill="#edf0f7" stroke="#404040" stroke-width="2" points="98,-47 98,-137 241,-137 241,-47 98,-47"/>
</a>
</g>
</g>
<!-- dir_dd7203712b918cee33f6bc4a130d95f5 -->
<g id="node1" class="node">
<title>dir_dd7203712b918cee33f6bc4a130d95f5</title>
<g id="a_node1"><a xlink:href="dir_dd7203712b918cee33f6bc4a130d95f5.html" target="_top" xlink:title="core">
<polygon fill="#a2b4d6" stroke="red" points="287,-74 249,-74 249,-55 287,-55 287,-74"/>
<text text-anchor="middle" x="268" y="-62" font-family="Helvetica,sans-Serif" font-size="10.00">core</text>
</a>
</g>
</g>
<!-- dir_63d837b10e3128e2d1f8560ce8004903 -->
<g id="node2" class="node">
<title>dir_63d837b10e3128e2d1f8560ce8004903</title>
<text text-anchor="middle" x="203" y="-117" font-family="Helvetica,sans-Serif" font-size="10.00">example</text>
</g>
<!-- dir_1ce8cbcfe90791fd5ec387415c69477d -->
<g id="node3" class="node">
<title>dir_1ce8cbcfe90791fd5ec387415c69477d</title>
<g id="a_node3"><a xlink:href="dir_1ce8cbcfe90791fd5ec387415c69477d.html" target="_top" xlink:title="include">
<polygon fill="#a2b4d6" stroke="#404040" points="158,-74 106,-74 106,-55 158,-55 158,-74"/>
<text text-anchor="middle" x="132" y="-62" font-family="Helvetica,sans-Serif" font-size="10.00">include</text>
</a>
</g>
</g>
<!-- dir_692f640cc74363071c5c0e14282656e9 -->
<g id="node5" class="node">
<title>dir_692f640cc74363071c5c0e14282656e9</title>
<g id="a_node5"><a xlink:href="dir_692f640cc74363071c5c0e14282656e9.html" target="_top" xlink:title="algorithm">
<polygon fill="#edf0f7" stroke="red" points="64,-19 0,-19 0,0 64,0 64,-19"/>
<text text-anchor="middle" x="32" y="-7" font-family="Helvetica,sans-Serif" font-size="10.00">algorithm</text>
</a>
</g>
</g>
<!-- dir_1ce8cbcfe90791fd5ec387415c69477d&#45;&gt;dir_692f640cc74363071c5c0e14282656e9 -->
<g id="edge1" class="edge">
<title>dir_1ce8cbcfe90791fd5ec387415c69477d&#45;&gt;dir_692f640cc74363071c5c0e14282656e9</title>
<path fill="none" stroke="#63b8ff" d="M115.93,-54.98C100.14,-46.61 75.78,-33.7 57.37,-23.95"/>
<polygon fill="#63b8ff" stroke="#63b8ff" points="58.83,-20.76 48.36,-19.17 55.56,-26.95 58.83,-20.76"/>
<g id="a_edge1&#45;headlabel"><a xlink:href="dir_000008_000000.html" target="_top" xlink:title="1">
<text text-anchor="middle" x="63.34" y="-17.44" font-family="Helvetica,sans-Serif" font-size="10.00" fill="#63b8ff">1</text>
</a>
</g>
</g>
<!-- dir_b8d8e9e6d882cbdac7436f7026baf609 -->
<g id="node6" class="node">
<title>dir_b8d8e9e6d882cbdac7436f7026baf609</title>
<g id="a_node6"><a xlink:href="dir_b8d8e9e6d882cbdac7436f7026baf609.html" target="_top" xlink:title="data_structure">
<polygon fill="#edf0f7" stroke="red" points="169.5,-19 82.5,-19 82.5,0 169.5,0 169.5,-19"/>
<text text-anchor="middle" x="126" y="-7" font-family="Helvetica,sans-Serif" font-size="10.00">data_structure</text>
</a>
</g>
</g>
<!-- dir_1ce8cbcfe90791fd5ec387415c69477d&#45;&gt;dir_b8d8e9e6d882cbdac7436f7026baf609 -->
<g id="edge2" class="edge">
<title>dir_1ce8cbcfe90791fd5ec387415c69477d&#45;&gt;dir_b8d8e9e6d882cbdac7436f7026baf609</title>
<path fill="none" stroke="#63b8ff" d="M131.01,-54.75C130.22,-47.8 129.1,-37.85 128.11,-29.13"/>
<polygon fill="#63b8ff" stroke="#63b8ff" points="131.58,-28.63 126.97,-19.09 124.62,-29.42 131.58,-28.63"/>
<g id="a_edge2&#45;headlabel"><a xlink:href="dir_000008_000003.html" target="_top" xlink:title="2">
<text text-anchor="middle" x="134.8" y="-29.38" font-family="Helvetica,sans-Serif" font-size="10.00" fill="#63b8ff">2</text>
</a>
</g>
</g>
<!-- dir_e0a7cfc3531cc26603db8805721b6f47 -->
<g id="node7" class="node">
<title>dir_e0a7cfc3531cc26603db8805721b6f47</title>
<g id="a_node7"><a xlink:href="dir_e0a7cfc3531cc26603db8805721b6f47.html" target="_top" xlink:title="design_pattern">
<polygon fill="#edf0f7" stroke="red" points="276.5,-19 187.5,-19 187.5,0 276.5,0 276.5,-19"/>
<text text-anchor="middle" x="232" y="-7" font-family="Helvetica,sans-Serif" font-size="10.00">design_pattern</text>
</a>
</g>
</g>
<!-- dir_1ce8cbcfe90791fd5ec387415c69477d&#45;&gt;dir_e0a7cfc3531cc26603db8805721b6f47 -->
<g id="edge4" class="edge">
<title>dir_1ce8cbcfe90791fd5ec387415c69477d&#45;&gt;dir_e0a7cfc3531cc26603db8805721b6f47</title>
<path fill="none" stroke="#63b8ff" d="M141.19,-54.78C146.86,-49.71 154.48,-43.46 162,-39 172.65,-32.68 184.95,-27.15 196.25,-22.68"/>
<polygon fill="#63b8ff" stroke="#63b8ff" points="197.75,-25.86 205.86,-19.03 195.26,-19.31 197.75,-25.86"/>
<g id="a_edge4&#45;headlabel"><a xlink:href="dir_000008_000004.html" target="_top" xlink:title="3">
<text text-anchor="middle" x="195.4" y="-27.29" font-family="Helvetica,sans-Serif" font-size="10.00" fill="#63b8ff">3</text>
</a>
</g>
</g>
<!-- dir_c6a84fe5d17415326939931ef0fa4cf0 -->
<g id="node8" class="node">
<title>dir_c6a84fe5d17415326939931ef0fa4cf0</title>
<g id="a_node8"><a xlink:href="dir_c6a84fe5d17415326939931ef0fa4cf0.html" target="_top" xlink:title="numeric">
<polygon fill="#edf0f7" stroke="red" points="350,-19 294,-19 294,0 350,0 350,-19"/>
<text text-anchor="middle" x="322" y="-7" font-family="Helvetica,sans-Serif" font-size="10.00">numeric</text>
</a>
</g>
</g>
<!-- dir_1ce8cbcfe90791fd5ec387415c69477d&#45;&gt;dir_c6a84fe5d17415326939931ef0fa4cf0 -->
<g id="edge3" class="edge">
<title>dir_1ce8cbcfe90791fd5ec387415c69477d&#45;&gt;dir_c6a84fe5d17415326939931ef0fa4cf0</title>
<path fill="none" stroke="#63b8ff" d="M140.1,-54.87C145.72,-49.43 153.66,-42.75 162,-39 209.74,-17.51 228.57,-28.29 283.8,-19.01"/>
<polygon fill="#63b8ff" stroke="#63b8ff" points="284.55,-22.43 293.76,-17.19 283.29,-15.54 284.55,-22.43"/>
<g id="a_edge3&#45;headlabel"><a xlink:href="dir_000008_000013.html" target="_top" xlink:title="1">
<text text-anchor="middle" x="281.53" y="-23.37" font-family="Helvetica,sans-Serif" font-size="10.00" fill="#63b8ff">1</text>
</a>
</g>
</g>
<!-- dir_ac8f2cfd8108404330d43acda1502020 -->
<g id="node4" class="node">
<title>dir_ac8f2cfd8108404330d43acda1502020</title>
<g id="a_node4"><a xlink:href="dir_ac8f2cfd8108404330d43acda1502020.html" target="_top" xlink:title="source">
<polygon fill="#a2b4d6" stroke="#404040" points="155.5,-129 106.5,-129 106.5,-110 155.5,-110 155.5,-129"/>
<text text-anchor="middle" x="131" y="-117" font-family="Helvetica,sans-Serif" font-size="10.00">source</text>
</a>
</g>
</g>
<!-- dir_ac8f2cfd8108404330d43acda1502020&#45;&gt;dir_dd7203712b918cee33f6bc4a130d95f5 -->
<g id="edge9" class="edge">
<title>dir_ac8f2cfd8108404330d43acda1502020&#45;&gt;dir_dd7203712b918cee33f6bc4a130d95f5</title>
<path fill="none" stroke="#63b8ff" d="M153.01,-109.98C176.38,-100.94 213.42,-86.61 239.12,-76.67"/>
<polygon fill="#63b8ff" stroke="#63b8ff" points="240.64,-79.84 248.7,-72.97 238.11,-73.31 240.64,-79.84"/>
<g id="a_edge9&#45;headlabel"><a xlink:href="dir_000016_000002.html" target="_top" xlink:title="8">
<text text-anchor="middle" x="238.31" y="-81.28" font-family="Helvetica,sans-Serif" font-size="10.00" fill="#63b8ff">8</text>
</a>
</g>
</g>
<!-- dir_ac8f2cfd8108404330d43acda1502020&#45;&gt;dir_1ce8cbcfe90791fd5ec387415c69477d -->
<g id="edge5" class="edge">
<title>dir_ac8f2cfd8108404330d43acda1502020&#45;&gt;dir_1ce8cbcfe90791fd5ec387415c69477d</title>
<path fill="none" stroke="#63b8ff" d="M131.17,-109.75C131.3,-102.8 131.48,-92.85 131.65,-84.13"/>
<polygon fill="#63b8ff" stroke="#63b8ff" points="135.15,-84.15 131.84,-74.09 128.15,-84.02 135.15,-84.15"/>
<g id="a_edge5&#45;headlabel"><a xlink:href="dir_000016_000008.html" target="_top" xlink:title="4">
<text text-anchor="middle" x="137.92" y="-85.3" font-family="Helvetica,sans-Serif" font-size="10.00" fill="#63b8ff">4</text>
</a>
</g>
</g>
<!-- dir_ac8f2cfd8108404330d43acda1502020&#45;&gt;dir_692f640cc74363071c5c0e14282656e9 -->
<g id="edge7" class="edge">
<title>dir_ac8f2cfd8108404330d43acda1502020&#45;&gt;dir_692f640cc74363071c5c0e14282656e9</title>
<path fill="none" stroke="#63b8ff" d="M122.9,-109.66C106.28,-91.54 68.13,-49.91 46.91,-26.77"/>
<polygon fill="#63b8ff" stroke="#63b8ff" points="49.27,-24.16 39.94,-19.16 44.11,-28.89 49.27,-24.16"/>
<g id="a_edge7&#45;headlabel"><a xlink:href="dir_000016_000000.html" target="_top" xlink:title="5">
<text text-anchor="middle" x="53.8" y="-22.4" font-family="Helvetica,sans-Serif" font-size="10.00" fill="#63b8ff">5</text>
</a>
</g>
</g>
<!-- dir_ac8f2cfd8108404330d43acda1502020&#45;&gt;dir_c6a84fe5d17415326939931ef0fa4cf0 -->
<g id="edge8" class="edge">
<title>dir_ac8f2cfd8108404330d43acda1502020&#45;&gt;dir_c6a84fe5d17415326939931ef0fa4cf0</title>
<path fill="none" stroke="#63b8ff" d="M155.55,-112.15C201.87,-100.15 297.65,-75.23 299,-74 311.56,-62.51 317.27,-43.63 319.86,-29.43"/>
<polygon fill="#63b8ff" stroke="#63b8ff" points="323.36,-29.69 321.34,-19.29 316.43,-28.68 323.36,-29.69"/>
<g id="a_edge8&#45;headlabel"><a xlink:href="dir_000016_000013.html" target="_top" xlink:title="4">
<text text-anchor="middle" x="325.65" y="-31.15" font-family="Helvetica,sans-Serif" font-size="10.00" fill="#63b8ff">4</text>
</a>
</g>
</g>
<!-- dir_64e73385a8b7738563c26ce10415b58d -->
<g id="node9" class="node">
<title>dir_64e73385a8b7738563c26ce10415b58d</title>
<g id="a_node9"><a xlink:href="dir_64e73385a8b7738563c26ce10415b58d.html" target="_top" xlink:title="utility">
<polygon fill="#edf0f7" stroke="red" points="388.5,-74 343.5,-74 343.5,-55 388.5,-55 388.5,-74"/>
<text text-anchor="middle" x="366" y="-62" font-family="Helvetica,sans-Serif" font-size="10.00">utility</text>
</a>
</g>
</g>
<!-- dir_ac8f2cfd8108404330d43acda1502020&#45;&gt;dir_64e73385a8b7738563c26ce10415b58d -->
<g id="edge6" class="edge">
<title>dir_ac8f2cfd8108404330d43acda1502020&#45;&gt;dir_64e73385a8b7738563c26ce10415b58d</title>
<path fill="none" stroke="#63b8ff" d="M155.84,-112C158.59,-111.31 161.35,-110.63 164,-110 237.02,-92.64 255.76,-90.4 329,-74 330.45,-73.68 331.93,-73.34 333.42,-73.01"/>
<polygon fill="#63b8ff" stroke="#63b8ff" points="334.34,-76.39 343.31,-70.75 332.78,-69.56 334.34,-76.39"/>
<g id="a_edge6&#45;headlabel"><a xlink:href="dir_000016_000023.html" target="_top" xlink:title="4">
<text text-anchor="middle" x="331.46" y="-77.45" font-family="Helvetica,sans-Serif" font-size="10.00" fill="#63b8ff">4</text>
</a>
</g>
</g>
</g>
</svg>
