<?xml version="1.0" encoding="UTF-8" standalone="no"?>
<!DOCTYPE svg PUBLIC "-//W3C//DTD SVG 1.1//EN"
 "http://www.w3.org/Graphics/SVG/1.1/DTD/svg11.dtd">
<!-- Generated by graphviz version 2.43.0 (0)
 -->
<!-- Title: application/core Pages: 1 -->
<svg width="208pt" height="196pt"
 viewBox="0.00 0.00 207.50 196.00" xmlns="http://www.w3.org/2000/svg" xmlns:xlink="http://www.w3.org/1999/xlink">
<g id="graph0" class="graph" transform="scale(1 1) rotate(0) translate(4 192)">
<title>application/core</title>
<g id="clust1" class="cluster">
<title>clusterdir_d75c23162a2652451dce46d2e7e8aead</title>
<g id="a_clust1"><a xlink:href="dir_d75c23162a2652451dce46d2e7e8aead.html" target="_top" xlink:title="application">
<polygon fill="#edf0f7" stroke="#404040" stroke-dasharray="5,2" points="8,-8 8,-180 146,-180 146,-8 8,-8"/>
<text text-anchor="middle" x="77" y="-168" font-family="Helvetica,sans-Serif" font-size="10.00">application</text>
</a>
</g>
</g>
<g id="clust2" class="cluster">
<title>clusterdir_dd7203712b918cee33f6bc4a130d95f5</title>
<g id="a_clust2"><a xlink:href="dir_dd7203712b918cee33f6bc4a130d95f5.html" target="_top">
<polygon fill="#edf0f7" stroke="#404040" stroke-width="2" points="16,-63 16,-153 138,-153 138,-63 16,-63"/>
</a>
</g>
</g>
<!-- dir_63d837b10e3128e2d1f8560ce8004903 -->
<g id="node1" class="node">
<title>dir_63d837b10e3128e2d1f8560ce8004903</title>
<g id="a_node1"><a xlink:href="dir_63d837b10e3128e2d1f8560ce8004903.html" target="_top" xlink:title="example">
<polygon fill="#a2b4d6" stroke="red" points="106.5,-35 47.5,-35 47.5,-16 106.5,-16 106.5,-35"/>
<text text-anchor="middle" x="77" y="-23" font-family="Helvetica,sans-Serif" font-size="10.00">example</text>
</a>
</g>
</g>
<!-- dir_dd7203712b918cee33f6bc4a130d95f5 -->
<g id="node2" class="node">
<title>dir_dd7203712b918cee33f6bc4a130d95f5</title>
<text text-anchor="middle" x="111" y="-133" font-family="Helvetica,sans-Serif" font-size="10.00">core</text>
</g>
<!-- dir_29453b71e65be92f4ffbba7698424673 -->
<g id="node3" class="node">
<title>dir_29453b71e65be92f4ffbba7698424673</title>
<g id="a_node3"><a xlink:href="dir_29453b71e65be92f4ffbba7698424673.html" target="_top" xlink:title="include">
<polygon fill="#a2b4d6" stroke="#404040" points="103,-90 51,-90 51,-71 103,-71 103,-90"/>
<text text-anchor="middle" x="77" y="-78" font-family="Helvetica,sans-Serif" font-size="10.00">include</text>
</a>
</g>
</g>
<!-- dir_29453b71e65be92f4ffbba7698424673&#45;&gt;dir_63d837b10e3128e2d1f8560ce8004903 -->
<g id="edge1" class="edge">
<title>dir_29453b71e65be92f4ffbba7698424673&#45;&gt;dir_63d837b10e3128e2d1f8560ce8004903</title>
<path fill="none" stroke="#63b8ff" d="M77,-70.75C77,-63.8 77,-53.85 77,-45.13"/>
<polygon fill="#63b8ff" stroke="#63b8ff" points="80.5,-45.09 77,-35.09 73.5,-45.09 80.5,-45.09"/>
<g id="a_edge1&#45;headlabel"><a xlink:href="dir_000007_000005.html" target="_top" xlink:title="4">
<text text-anchor="middle" x="83.34" y="-46.18" font-family="Helvetica,sans-Serif" font-size="10.00" fill="#63b8ff">4</text>
</a>
</g>
</g>
<!-- dir_64e73385a8b7738563c26ce10415b58d -->
<g id="node5" class="node">
<title>dir_64e73385a8b7738563c26ce10415b58d</title>
<g id="a_node5"><a xlink:href="dir_64e73385a8b7738563c26ce10415b58d.html" target="_top" xlink:title="utility">
<polygon fill="#edf0f7" stroke="red" points="199.5,-35 154.5,-35 154.5,-16 199.5,-16 199.5,-35"/>
<text text-anchor="middle" x="177" y="-23" font-family="Helvetica,sans-Serif" font-size="10.00">utility</text>
</a>
</g>
</g>
<!-- dir_29453b71e65be92f4ffbba7698424673&#45;&gt;dir_64e73385a8b7738563c26ce10415b58d -->
<g id="edge2" class="edge">
<title>dir_29453b71e65be92f4ffbba7698424673&#45;&gt;dir_64e73385a8b7738563c26ce10415b58d</title>
<path fill="none" stroke="#63b8ff" d="M93.07,-70.98C108.86,-62.61 133.22,-49.7 151.63,-39.95"/>
<polygon fill="#63b8ff" stroke="#63b8ff" points="153.44,-42.95 160.64,-35.17 150.17,-36.76 153.44,-42.95"/>
<g id="a_edge2&#45;headlabel"><a xlink:href="dir_000007_000023.html" target="_top" xlink:title="11">
<text text-anchor="middle" x="151.6" y="-44.64" font-family="Helvetica,sans-Serif" font-size="10.00" fill="#63b8ff">11</text>
</a>
</g>
</g>
<!-- dir_39f2129d09690bc7507cbfac9d7fb54d -->
<g id="node4" class="node">
<title>dir_39f2129d09690bc7507cbfac9d7fb54d</title>
<g id="a_node4"><a xlink:href="dir_39f2129d09690bc7507cbfac9d7fb54d.html" target="_top" xlink:title="source">
<polygon fill="#a2b4d6" stroke="#404040" points="73.5,-145 24.5,-145 24.5,-126 73.5,-126 73.5,-145"/>
<text text-anchor="middle" x="49" y="-133" font-family="Helvetica,sans-Serif" font-size="10.00">source</text>
</a>
</g>
</g>
<!-- dir_39f2129d09690bc7507cbfac9d7fb54d&#45;&gt;dir_29453b71e65be92f4ffbba7698424673 -->
<g id="edge3" class="edge">
<title>dir_39f2129d09690bc7507cbfac9d7fb54d&#45;&gt;dir_29453b71e65be92f4ffbba7698424673</title>
<path fill="none" stroke="#63b8ff" d="M53.62,-125.75C57.46,-118.49 63.02,-107.95 67.76,-98.98"/>
<polygon fill="#63b8ff" stroke="#63b8ff" points="70.89,-100.57 72.46,-90.09 64.7,-97.3 70.89,-100.57"/>
<g id="a_edge3&#45;headlabel"><a xlink:href="dir_000015_000007.html" target="_top" xlink:title="12">
<text text-anchor="middle" x="71.72" y="-102.57" font-family="Helvetica,sans-Serif" font-size="10.00" fill="#63b8ff">12</text>
</a>
</g>
</g>
<!-- dir_39f2129d09690bc7507cbfac9d7fb54d&#45;&gt;dir_64e73385a8b7738563c26ce10415b58d -->
<g id="edge4" class="edge">
<title>dir_39f2129d09690bc7507cbfac9d7fb54d&#45;&gt;dir_64e73385a8b7738563c26ce10415b58d</title>
<path fill="none" stroke="#63b8ff" d="M62.48,-125.88C75.55,-117.32 95.74,-103.54 112,-90 130.07,-74.95 149.14,-55.9 161.91,-42.61"/>
<polygon fill="#63b8ff" stroke="#63b8ff" points="164.63,-44.82 168.99,-35.16 159.56,-40 164.63,-44.82"/>
<g id="a_edge4&#45;headlabel"><a xlink:href="dir_000015_000023.html" target="_top" xlink:title="4">
<text text-anchor="middle" x="164.21" y="-46.88" font-family="Helvetica,sans-Serif" font-size="10.00" fill="#63b8ff">4</text>
</a>
</g>
</g>
</g>
</svg>
