<?xml version="1.0" encoding="UTF-8" standalone="no"?>
<!DOCTYPE svg PUBLIC "-//W3C//DTD SVG 1.1//EN"
 "http://www.w3.org/Graphics/SVG/1.1/DTD/svg11.dtd">
<!-- Generated by graphviz version 2.43.0 (0)
 -->
<!-- Title: application/core/source Pages: 1 -->
<svg width="140pt" height="133pt"
 viewBox="0.00 0.00 139.50 133.00" xmlns="http://www.w3.org/2000/svg" xmlns:xlink="http://www.w3.org/1999/xlink">
<g id="graph0" class="graph" transform="scale(1 1) rotate(0) translate(4 129)">
<title>application/core/source</title>
<g id="clust1" class="cluster">
<title>clusterdir_dd7203712b918cee33f6bc4a130d95f5</title>
<g id="a_clust1"><a xlink:href="dir_dd7203712b918cee33f6bc4a130d95f5.html" target="_top" xlink:title="core">
<polygon fill="#edf0f7" stroke="#7f7f7f" stroke-dasharray="5,2" points="8,-8 8,-117 76,-117 76,-8 8,-8"/>
<text text-anchor="middle" x="42" y="-105" font-family="Helvetica,sans-Serif" font-size="10.00">core</text>
</a>
</g>
</g>
<!-- dir_29453b71e65be92f4ffbba7698424673 -->
<g id="node1" class="node">
<title>dir_29453b71e65be92f4ffbba7698424673</title>
<g id="a_node1"><a xlink:href="dir_29453b71e65be92f4ffbba7698424673.html" target="_top" xlink:title="include">
<polygon fill="#a2b4d6" stroke="#404040" points="68,-35 16,-35 16,-16 68,-16 68,-35"/>
<text text-anchor="middle" x="42" y="-23" font-family="Helvetica,sans-Serif" font-size="10.00">include</text>
</a>
</g>
</g>
<!-- dir_39f2129d09690bc7507cbfac9d7fb54d -->
<g id="node2" class="node">
<title>dir_39f2129d09690bc7507cbfac9d7fb54d</title>
<g id="a_node2"><a xlink:href="dir_39f2129d09690bc7507cbfac9d7fb54d.html" target="_top" xlink:title="source">
<polygon fill="#edf0f7" stroke="#404040" stroke-width="2" points="66.5,-90 17.5,-90 17.5,-71 66.5,-71 66.5,-90"/>
<text text-anchor="middle" x="42" y="-78" font-family="Helvetica,sans-Serif" font-size="10.00">source</text>
</a>
</g>
</g>
<!-- dir_39f2129d09690bc7507cbfac9d7fb54d&#45;&gt;dir_29453b71e65be92f4ffbba7698424673 -->
<g id="edge1" class="edge">
<title>dir_39f2129d09690bc7507cbfac9d7fb54d&#45;&gt;dir_29453b71e65be92f4ffbba7698424673</title>
<path fill="none" stroke="#63b8ff" d="M42,-70.75C42,-63.8 42,-53.85 42,-45.13"/>
<polygon fill="#63b8ff" stroke="#63b8ff" points="45.5,-45.09 42,-35.09 38.5,-45.09 45.5,-45.09"/>
<g id="a_edge1&#45;headlabel"><a xlink:href="dir_000015_000007.html" target="_top" xlink:title="12">
<text text-anchor="middle" x="48.34" y="-46.18" font-family="Helvetica,sans-Serif" font-size="10.00" fill="#63b8ff">12</text>
</a>
</g>
</g>
<!-- dir_64e73385a8b7738563c26ce10415b58d -->
<g id="node3" class="node">
<title>dir_64e73385a8b7738563c26ce10415b58d</title>
<g id="a_node3"><a xlink:href="dir_64e73385a8b7738563c26ce10415b58d.html" target="_top" xlink:title="utility">
<polygon fill="#edf0f7" stroke="red" points="131.5,-35 86.5,-35 86.5,-16 131.5,-16 131.5,-35"/>
<text text-anchor="middle" x="109" y="-23" font-family="Helvetica,sans-Serif" font-size="10.00">utility</text>
</a>
</g>
</g>
<!-- dir_39f2129d09690bc7507cbfac9d7fb54d&#45;&gt;dir_64e73385a8b7738563c26ce10415b58d -->
<g id="edge2" class="edge">
<title>dir_39f2129d09690bc7507cbfac9d7fb54d&#45;&gt;dir_64e73385a8b7738563c26ce10415b58d</title>
<path fill="none" stroke="#63b8ff" d="M52.76,-70.98C62.77,-63.07 77.89,-51.11 89.93,-41.58"/>
<polygon fill="#63b8ff" stroke="#63b8ff" points="92.37,-44.12 98.04,-35.17 88.03,-38.63 92.37,-44.12"/>
<g id="a_edge2&#45;headlabel"><a xlink:href="dir_000015_000023.html" target="_top" xlink:title="4">
<text text-anchor="middle" x="91.31" y="-46.08" font-family="Helvetica,sans-Serif" font-size="10.00" fill="#63b8ff">4</text>
</a>
</g>
</g>
</g>
</svg>
