<?xml version="1.0" encoding="UTF-8" standalone="no"?>
<!DOCTYPE svg PUBLIC "-//W3C//DTD SVG 1.1//EN"
 "http://www.w3.org/Graphics/SVG/1.1/DTD/svg11.dtd">
<!-- Generated by graphviz version 2.43.0 (0)
 -->
<!-- Title: application Pages: 1 -->
<svg width="422pt" height="153pt"
 viewBox="0.00 0.00 421.50 153.00" xmlns="http://www.w3.org/2000/svg" xmlns:xlink="http://www.w3.org/1999/xlink">
<g id="graph0" class="graph" transform="scale(1 1) rotate(0) translate(4 149)">
<title>application</title>
<g id="clust1" class="cluster">
<title>clusterdir_d75c23162a2652451dce46d2e7e8aead</title>
<g id="a_clust1"><a xlink:href="dir_d75c23162a2652451dce46d2e7e8aead.html" target="_top">
<polygon fill="#edf0f7" stroke="#404040" stroke-width="2" points="104.5,-47 104.5,-137 248.5,-137 248.5,-47 104.5,-47"/>
</a>
</g>
</g>
<!-- dir_d75c23162a2652451dce46d2e7e8aead -->
<g id="node1" class="node">
<title>dir_d75c23162a2652451dce46d2e7e8aead</title>
<text text-anchor="middle" x="204.5" y="-117" font-family="Helvetica,sans-Serif" font-size="10.00">application</text>
</g>
<!-- dir_dd7203712b918cee33f6bc4a130d95f5 -->
<g id="node2" class="node">
<title>dir_dd7203712b918cee33f6bc4a130d95f5</title>
<g id="a_node2"><a xlink:href="dir_dd7203712b918cee33f6bc4a130d95f5.html" target="_top" xlink:title="core">
<polygon fill="#a2b4d6" stroke="#404040" points="150.5,-129 112.5,-129 112.5,-110 150.5,-110 150.5,-129"/>
<text text-anchor="middle" x="131.5" y="-117" font-family="Helvetica,sans-Serif" font-size="10.00">core</text>
</a>
</g>
</g>
<!-- dir_63d837b10e3128e2d1f8560ce8004903 -->
<g id="node3" class="node">
<title>dir_63d837b10e3128e2d1f8560ce8004903</title>
<g id="a_node3"><a xlink:href="dir_63d837b10e3128e2d1f8560ce8004903.html" target="_top" xlink:title="example">
<polygon fill="#a2b4d6" stroke="#404040" points="172,-74 113,-74 113,-55 172,-55 172,-74"/>
<text text-anchor="middle" x="142.5" y="-62" font-family="Helvetica,sans-Serif" font-size="10.00">example</text>
</a>
</g>
</g>
<!-- dir_dd7203712b918cee33f6bc4a130d95f5&#45;&gt;dir_63d837b10e3128e2d1f8560ce8004903 -->
<g id="edge1" class="edge">
<title>dir_dd7203712b918cee33f6bc4a130d95f5&#45;&gt;dir_63d837b10e3128e2d1f8560ce8004903</title>
<path fill="none" stroke="#63b8ff" d="M128.15,-109.75C128.1,-102.65 129.8,-92.4 132.32,-83.56"/>
<polygon fill="#63b8ff" stroke="#63b8ff" points="135.63,-84.68 135.59,-74.09 129.01,-82.4 135.63,-84.68"/>
<g id="a_edge1&#45;headlabel"><a xlink:href="dir_000002_000005.html" target="_top" xlink:title="4">
<text text-anchor="middle" x="137.14" y="-86.51" font-family="Helvetica,sans-Serif" font-size="10.00" fill="#63b8ff">4</text>
</a>
</g>
</g>
<!-- dir_64e73385a8b7738563c26ce10415b58d -->
<g id="node4" class="node">
<title>dir_64e73385a8b7738563c26ce10415b58d</title>
<g id="a_node4"><a xlink:href="dir_64e73385a8b7738563c26ce10415b58d.html" target="_top" xlink:title="utility">
<polygon fill="#edf0f7" stroke="red" points="45,-19 0,-19 0,0 45,0 45,-19"/>
<text text-anchor="middle" x="22.5" y="-7" font-family="Helvetica,sans-Serif" font-size="10.00">utility</text>
</a>
</g>
</g>
<!-- dir_dd7203712b918cee33f6bc4a130d95f5&#45;&gt;dir_64e73385a8b7738563c26ce10415b58d -->
<g id="edge2" class="edge">
<title>dir_dd7203712b918cee33f6bc4a130d95f5&#45;&gt;dir_64e73385a8b7738563c26ce10415b58d</title>
<path fill="none" stroke="#63b8ff" d="M122.58,-109.66C104.21,-91.46 61.91,-49.55 38.62,-26.47"/>
<polygon fill="#63b8ff" stroke="#63b8ff" points="40.81,-23.71 31.24,-19.16 35.88,-28.68 40.81,-23.71"/>
<g id="a_edge2&#45;headlabel"><a xlink:href="dir_000002_000023.html" target="_top" xlink:title="15">
<text text-anchor="middle" x="45.36" y="-21.72" font-family="Helvetica,sans-Serif" font-size="10.00" fill="#63b8ff">15</text>
</a>
</g>
</g>
<!-- dir_63d837b10e3128e2d1f8560ce8004903&#45;&gt;dir_dd7203712b918cee33f6bc4a130d95f5 -->
<g id="edge7" class="edge">
<title>dir_63d837b10e3128e2d1f8560ce8004903&#45;&gt;dir_dd7203712b918cee33f6bc4a130d95f5</title>
<path fill="none" stroke="#63b8ff" d="M145.85,-74.09C145.93,-81.14 144.24,-91.37 141.74,-100.24"/>
<polygon fill="#63b8ff" stroke="#63b8ff" points="138.41,-99.15 138.48,-109.75 145.04,-101.42 138.41,-99.15"/>
<g id="a_edge7&#45;headlabel"><a xlink:href="dir_000005_000002.html" target="_top" xlink:title="8">
<text text-anchor="middle" x="136.89" y="-92.33" font-family="Helvetica,sans-Serif" font-size="10.00" fill="#63b8ff">8</text>
</a>
</g>
</g>
<!-- dir_63d837b10e3128e2d1f8560ce8004903&#45;&gt;dir_64e73385a8b7738563c26ce10415b58d -->
<g id="edge8" class="edge">
<title>dir_63d837b10e3128e2d1f8560ce8004903&#45;&gt;dir_64e73385a8b7738563c26ce10415b58d</title>
<path fill="none" stroke="#63b8ff" d="M123.22,-54.98C103.83,-46.42 73.69,-33.11 51.43,-23.28"/>
<polygon fill="#63b8ff" stroke="#63b8ff" points="52.69,-20.01 42.13,-19.17 49.86,-26.41 52.69,-20.01"/>
<g id="a_edge8&#45;headlabel"><a xlink:href="dir_000005_000023.html" target="_top" xlink:title="4">
<text text-anchor="middle" x="57.13" y="-16.36" font-family="Helvetica,sans-Serif" font-size="10.00" fill="#63b8ff">4</text>
</a>
</g>
</g>
<!-- dir_692f640cc74363071c5c0e14282656e9 -->
<g id="node5" class="node">
<title>dir_692f640cc74363071c5c0e14282656e9</title>
<g id="a_node5"><a xlink:href="dir_692f640cc74363071c5c0e14282656e9.html" target="_top" xlink:title="algorithm">
<polygon fill="#edf0f7" stroke="red" points="127.5,-19 63.5,-19 63.5,0 127.5,0 127.5,-19"/>
<text text-anchor="middle" x="95.5" y="-7" font-family="Helvetica,sans-Serif" font-size="10.00">algorithm</text>
</a>
</g>
</g>
<!-- dir_63d837b10e3128e2d1f8560ce8004903&#45;&gt;dir_692f640cc74363071c5c0e14282656e9 -->
<g id="edge3" class="edge">
<title>dir_63d837b10e3128e2d1f8560ce8004903&#45;&gt;dir_692f640cc74363071c5c0e14282656e9</title>
<path fill="none" stroke="#63b8ff" d="M134.74,-54.75C128.03,-47.18 118.16,-36.05 109.99,-26.84"/>
<polygon fill="#63b8ff" stroke="#63b8ff" points="112.37,-24.25 103.12,-19.09 107.13,-28.89 112.37,-24.25"/>
<g id="a_edge3&#45;headlabel"><a xlink:href="dir_000005_000000.html" target="_top" xlink:title="6">
<text text-anchor="middle" x="116.88" y="-22.55" font-family="Helvetica,sans-Serif" font-size="10.00" fill="#63b8ff">6</text>
</a>
</g>
</g>
<!-- dir_b8d8e9e6d882cbdac7436f7026baf609 -->
<g id="node6" class="node">
<title>dir_b8d8e9e6d882cbdac7436f7026baf609</title>
<g id="a_node6"><a xlink:href="dir_b8d8e9e6d882cbdac7436f7026baf609.html" target="_top" xlink:title="data_structure">
<polygon fill="#edf0f7" stroke="red" points="233,-19 146,-19 146,0 233,0 233,-19"/>
<text text-anchor="middle" x="189.5" y="-7" font-family="Helvetica,sans-Serif" font-size="10.00">data_structure</text>
</a>
</g>
</g>
<!-- dir_63d837b10e3128e2d1f8560ce8004903&#45;&gt;dir_b8d8e9e6d882cbdac7436f7026baf609 -->
<g id="edge4" class="edge">
<title>dir_63d837b10e3128e2d1f8560ce8004903&#45;&gt;dir_b8d8e9e6d882cbdac7436f7026baf609</title>
<path fill="none" stroke="#63b8ff" d="M150.26,-54.75C156.97,-47.18 166.84,-36.05 175.01,-26.84"/>
<polygon fill="#63b8ff" stroke="#63b8ff" points="177.87,-28.89 181.88,-19.09 172.63,-24.25 177.87,-28.89"/>
<g id="a_edge4&#45;headlabel"><a xlink:href="dir_000005_000003.html" target="_top" xlink:title="2">
<text text-anchor="middle" x="177.61" y="-30.97" font-family="Helvetica,sans-Serif" font-size="10.00" fill="#63b8ff">2</text>
</a>
</g>
</g>
<!-- dir_e0a7cfc3531cc26603db8805721b6f47 -->
<g id="node7" class="node">
<title>dir_e0a7cfc3531cc26603db8805721b6f47</title>
<g id="a_node7"><a xlink:href="dir_e0a7cfc3531cc26603db8805721b6f47.html" target="_top" xlink:title="design_pattern">
<polygon fill="#edf0f7" stroke="red" points="340,-19 251,-19 251,0 340,0 340,-19"/>
<text text-anchor="middle" x="295.5" y="-7" font-family="Helvetica,sans-Serif" font-size="10.00">design_pattern</text>
</a>
</g>
</g>
<!-- dir_63d837b10e3128e2d1f8560ce8004903&#45;&gt;dir_e0a7cfc3531cc26603db8805721b6f47 -->
<g id="edge5" class="edge">
<title>dir_63d837b10e3128e2d1f8560ce8004903&#45;&gt;dir_e0a7cfc3531cc26603db8805721b6f47</title>
<path fill="none" stroke="#63b8ff" d="M167.08,-54.98C192.55,-46.16 232.54,-32.31 261.13,-22.41"/>
<polygon fill="#63b8ff" stroke="#63b8ff" points="262.42,-25.66 270.73,-19.08 260.13,-19.05 262.42,-25.66"/>
<g id="a_edge5&#45;headlabel"><a xlink:href="dir_000005_000004.html" target="_top" xlink:title="3">
<text text-anchor="middle" x="259.95" y="-27.02" font-family="Helvetica,sans-Serif" font-size="10.00" fill="#63b8ff">3</text>
</a>
</g>
</g>
<!-- dir_c6a84fe5d17415326939931ef0fa4cf0 -->
<g id="node8" class="node">
<title>dir_c6a84fe5d17415326939931ef0fa4cf0</title>
<g id="a_node8"><a xlink:href="dir_c6a84fe5d17415326939931ef0fa4cf0.html" target="_top" xlink:title="numeric">
<polygon fill="#edf0f7" stroke="red" points="413.5,-19 357.5,-19 357.5,0 413.5,0 413.5,-19"/>
<text text-anchor="middle" x="385.5" y="-7" font-family="Helvetica,sans-Serif" font-size="10.00">numeric</text>
</a>
</g>
</g>
<!-- dir_63d837b10e3128e2d1f8560ce8004903&#45;&gt;dir_c6a84fe5d17415326939931ef0fa4cf0 -->
<g id="edge6" class="edge">
<title>dir_63d837b10e3128e2d1f8560ce8004903&#45;&gt;dir_c6a84fe5d17415326939931ef0fa4cf0</title>
<path fill="none" stroke="#63b8ff" d="M172.02,-57.35C210.33,-49.32 279.51,-34.69 347.24,-19.48"/>
<polygon fill="#63b8ff" stroke="#63b8ff" points="348.23,-22.85 357.21,-17.24 346.69,-16.02 348.23,-22.85"/>
<g id="a_edge6&#45;headlabel"><a xlink:href="dir_000005_000013.html" target="_top" xlink:title="5">
<text text-anchor="middle" x="345.34" y="-23.91" font-family="Helvetica,sans-Serif" font-size="10.00" fill="#63b8ff">5</text>
</a>
</g>
</g>
</g>
</svg>
