<?xml version="1.0" encoding="UTF-8" standalone="no"?>
<!DOCTYPE svg PUBLIC "-//W3C//DTD SVG 1.1//EN"
 "http://www.w3.org/Graphics/SVG/1.1/DTD/svg11.dtd">
<!-- Generated by graphviz version 2.43.0 (0)
 -->
<!-- Title: Graphical Class Hierarchy Pages: 1 -->
<svg width="392pt" height="86pt"
 viewBox="0.00 0.00 392.00 86.00" xmlns="http://www.w3.org/2000/svg" xmlns:xlink="http://www.w3.org/1999/xlink">
<g id="graph0" class="graph" transform="scale(1 1) rotate(0) translate(4 82)">
<title>Graphical Class Hierarchy</title>
<!-- Node0 -->
<g id="Node000000" class="node">
<title>Node0</title>
<g id="a_Node000000"><a xlink:href="d5/d5b/classdesign__pattern_1_1behavioral_1_1mediator_1_1Colleague.html" target="_top" xlink:title="The colleague communicates with its mediator. Whenever it would have otherwise communicated with anot...">
<polygon fill="white" stroke="#666666" points="165,-78 18,-78 18,-48 165,-48 165,-78"/>
<text text-anchor="start" x="26" y="-66" font-family="Helvetica,sans-Serif" font-size="10.00">design_pattern::behavioral</text>
<text text-anchor="middle" x="91.5" y="-55" font-family="Helvetica,sans-Serif" font-size="10.00">::mediator::Colleague</text>
</a>
</g>
</g>
<!-- Node1 -->
<g id="Node000001" class="node">
<title>Node1</title>
<g id="a_Node000001"><a xlink:href="d7/d4e/classdesign__pattern_1_1behavioral_1_1mediator_1_1ConcreteColleague.html" target="_top" xlink:title="The concrete colleague.">
<polygon fill="white" stroke="#666666" points="384,-54 219,-54 219,-24 384,-24 384,-54"/>
<text text-anchor="start" x="227" y="-42" font-family="Helvetica,sans-Serif" font-size="10.00">design_pattern::behavioral</text>
<text text-anchor="middle" x="301.5" y="-31" font-family="Helvetica,sans-Serif" font-size="10.00">::mediator::ConcreteColleague</text>
</a>
</g>
</g>
<!-- Node0&#45;&gt;Node1 -->
<g id="edge17_Node000000_Node000001" class="edge">
<title>Node0&#45;&gt;Node1</title>
<g id="a_edge17_Node000000_Node000001"><a xlink:title=" ">
<path fill="none" stroke="#63b8ff" d="M175.54,-53.42C189.82,-51.77 204.66,-50.06 218.91,-48.41"/>
<polygon fill="#63b8ff" stroke="#63b8ff" points="174.78,-49.98 165.25,-54.61 175.58,-56.94 174.78,-49.98"/>
</a>
</g>
</g>
<!-- Node2 -->
<g id="Node000002" class="node">
<title>Node2</title>
<g id="a_Node000002"><a target="_parent" xlink:href="https://gcc.gnu.org/onlinedocs/gcc-12.3.0/libstdc++/api/a07595.html" xlink:title=" ">
<polygon fill="white" stroke="#666666" points="183,-30 0,-30 0,0 183,0 183,-30"/>
<text text-anchor="start" x="8" y="-18" font-family="Helvetica,sans-Serif" font-size="10.00">std::enable_shared</text>
<text text-anchor="middle" x="91.5" y="-7" font-family="Helvetica,sans-Serif" font-size="10.00">_from_this&lt; ConcreteColleague &gt;</text>
</a>
</g>
</g>
<!-- Node2&#45;&gt;Node1 -->
<g id="edge18_Node000002_Node000001" class="edge">
<title>Node2&#45;&gt;Node1</title>
<g id="a_edge18_Node000002_Node000001"><a xlink:title=" ">
<path fill="none" stroke="#63b8ff" d="M193.24,-26.62C201.87,-27.62 210.54,-28.62 219,-29.6"/>
<polygon fill="#63b8ff" stroke="#63b8ff" points="193.46,-23.13 183.13,-25.46 192.66,-30.08 193.46,-23.13"/>
</a>
</g>
</g>
</g>
</svg>
