<?xml version="1.0" encoding="UTF-8" standalone="no"?>
<!DOCTYPE svg PUBLIC "-//W3C//DTD SVG 1.1//EN"
 "http://www.w3.org/Graphics/SVG/1.1/DTD/svg11.dtd">
<!-- Generated by graphviz version 2.43.0 (0)
 -->
<!-- Title: Graphical Class Hierarchy Pages: 1 -->
<svg width="359pt" height="86pt"
 viewBox="0.00 0.00 359.00 86.00" xmlns="http://www.w3.org/2000/svg" xmlns:xlink="http://www.w3.org/1999/xlink">
<g id="graph0" class="graph" transform="scale(1 1) rotate(0) translate(4 82)">
<title>Graphical Class Hierarchy</title>
<!-- Node0 -->
<g id="Node000000" class="node">
<title>Node0</title>
<g id="a_Node000000"><a xlink:href="d9/dd9/classdesign__pattern_1_1structural_1_1bridge_1_1Implementor.html" target="_top" xlink:title="The interface for implementation.">
<polygon fill="white" stroke="#666666" points="142,-54 0,-54 0,-24 142,-24 142,-54"/>
<text text-anchor="start" x="8" y="-42" font-family="Helvetica,sans-Serif" font-size="10.00">design_pattern::structural</text>
<text text-anchor="middle" x="71" y="-31" font-family="Helvetica,sans-Serif" font-size="10.00">::bridge::Implementor</text>
</a>
</g>
</g>
<!-- Node1 -->
<g id="Node000001" class="node">
<title>Node1</title>
<g id="a_Node000001"><a xlink:href="d5/d81/classdesign__pattern_1_1structural_1_1bridge_1_1ConcreteImplementorA.html" target="_top" xlink:title="The concrete implementor.">
<polygon fill="white" stroke="#666666" points="351,-78 178,-78 178,-48 351,-48 351,-78"/>
<text text-anchor="start" x="186" y="-66" font-family="Helvetica,sans-Serif" font-size="10.00">design_pattern::structural</text>
<text text-anchor="middle" x="264.5" y="-55" font-family="Helvetica,sans-Serif" font-size="10.00">::bridge::ConcreteImplementorA</text>
</a>
</g>
</g>
<!-- Node0&#45;&gt;Node1 -->
<g id="edge47_Node000000_Node000001" class="edge">
<title>Node0&#45;&gt;Node1</title>
<g id="a_edge47_Node000000_Node000001"><a xlink:title=" ">
<path fill="none" stroke="#63b8ff" d="M152.15,-49.04C160.69,-50.12 169.4,-51.21 178,-52.28"/>
<polygon fill="#63b8ff" stroke="#63b8ff" points="152.58,-45.57 142.22,-47.8 151.71,-52.52 152.58,-45.57"/>
</a>
</g>
</g>
<!-- Node2 -->
<g id="Node000002" class="node">
<title>Node2</title>
<g id="a_Node000002"><a xlink:href="d7/dbd/classdesign__pattern_1_1structural_1_1bridge_1_1ConcreteImplementorB.html" target="_top" xlink:title="The concrete implementor.">
<polygon fill="white" stroke="#666666" points="351,-30 178,-30 178,0 351,0 351,-30"/>
<text text-anchor="start" x="186" y="-18" font-family="Helvetica,sans-Serif" font-size="10.00">design_pattern::structural</text>
<text text-anchor="middle" x="264.5" y="-7" font-family="Helvetica,sans-Serif" font-size="10.00">::bridge::ConcreteImplementorB</text>
</a>
</g>
</g>
<!-- Node0&#45;&gt;Node2 -->
<g id="edge48_Node000000_Node000002" class="edge">
<title>Node0&#45;&gt;Node2</title>
<g id="a_edge48_Node000000_Node000002"><a xlink:title=" ">
<path fill="none" stroke="#63b8ff" d="M152.15,-28.96C160.69,-27.88 169.4,-26.79 178,-25.72"/>
<polygon fill="#63b8ff" stroke="#63b8ff" points="151.71,-25.48 142.22,-30.2 152.58,-32.43 151.71,-25.48"/>
</a>
</g>
</g>
</g>
</svg>
