<?xml version="1.0" encoding="UTF-8" standalone="no"?>
<!DOCTYPE svg PUBLIC "-//W3C//DTD SVG 1.1//EN"
 "http://www.w3.org/Graphics/SVG/1.1/DTD/svg11.dtd">
<!-- Generated by graphviz version 2.43.0 (0)
 -->
<!-- Title: Graphical Class Hierarchy Pages: 1 -->
<svg width="328pt" height="86pt"
 viewBox="0.00 0.00 328.00 86.00" xmlns="http://www.w3.org/2000/svg" xmlns:xlink="http://www.w3.org/1999/xlink">
<g id="graph0" class="graph" transform="scale(1 1) rotate(0) translate(4 82)">
<title>Graphical Class Hierarchy</title>
<!-- Node0 -->
<g id="Node000000" class="node">
<title>Node0</title>
<g id="a_Node000000"><a xlink:href="dc/d5e/classdesign__pattern_1_1structural_1_1proxy_1_1Subject.html" target="_top" xlink:title="Make the proxy can be used anywhere a real subject is expected.">
<polygon fill="white" stroke="#666666" points="142,-54 0,-54 0,-24 142,-24 142,-54"/>
<text text-anchor="start" x="8" y="-42" font-family="Helvetica,sans-Serif" font-size="10.00">design_pattern::structural</text>
<text text-anchor="middle" x="71" y="-31" font-family="Helvetica,sans-Serif" font-size="10.00">::proxy::Subject</text>
</a>
</g>
</g>
<!-- Node1 -->
<g id="Node000001" class="node">
<title>Node1</title>
<g id="a_Node000001"><a xlink:href="d1/da3/classdesign__pattern_1_1structural_1_1proxy_1_1Proxy.html" target="_top" xlink:title="Let the proxy access the real subject.">
<polygon fill="white" stroke="#666666" points="320,-78 178,-78 178,-48 320,-48 320,-78"/>
<text text-anchor="start" x="186" y="-66" font-family="Helvetica,sans-Serif" font-size="10.00">design_pattern::structural</text>
<text text-anchor="middle" x="249" y="-55" font-family="Helvetica,sans-Serif" font-size="10.00">::proxy::Proxy</text>
</a>
</g>
</g>
<!-- Node0&#45;&gt;Node1 -->
<g id="edge57_Node000000_Node000001" class="edge">
<title>Node0&#45;&gt;Node1</title>
<g id="a_edge57_Node000000_Node000001"><a xlink:title=" ">
<path fill="none" stroke="#63b8ff" d="M152.1,-49.92C160.71,-51.1 169.41,-52.28 177.89,-53.44"/>
<polygon fill="#63b8ff" stroke="#63b8ff" points="152.45,-46.44 142.07,-48.55 151.5,-53.37 152.45,-46.44"/>
</a>
</g>
</g>
<!-- Node2 -->
<g id="Node000002" class="node">
<title>Node2</title>
<g id="a_Node000002"><a xlink:href="de/d19/classdesign__pattern_1_1structural_1_1proxy_1_1RealSubject.html" target="_top" xlink:title="The real object that the proxy represents.">
<polygon fill="white" stroke="#666666" points="320,-30 178,-30 178,0 320,0 320,-30"/>
<text text-anchor="start" x="186" y="-18" font-family="Helvetica,sans-Serif" font-size="10.00">design_pattern::structural</text>
<text text-anchor="middle" x="249" y="-7" font-family="Helvetica,sans-Serif" font-size="10.00">::proxy::RealSubject</text>
</a>
</g>
</g>
<!-- Node0&#45;&gt;Node2 -->
<g id="edge58_Node000000_Node000002" class="edge">
<title>Node0&#45;&gt;Node2</title>
<g id="a_edge58_Node000000_Node000002"><a xlink:title=" ">
<path fill="none" stroke="#63b8ff" d="M152.1,-28.08C160.71,-26.9 169.41,-25.72 177.89,-24.56"/>
<polygon fill="#63b8ff" stroke="#63b8ff" points="151.5,-24.63 142.07,-29.45 152.45,-31.56 151.5,-24.63"/>
</a>
</g>
</g>
</g>
</svg>
