<?xml version="1.0" encoding="UTF-8" standalone="no"?>
<!DOCTYPE svg PUBLIC "-//W3C//DTD SVG 1.1//EN"
 "http://www.w3.org/Graphics/SVG/1.1/DTD/svg11.dtd">
<!-- Generated by graphviz version 2.43.0 (0)
 -->
<!-- Title: Graphical Class Hierarchy Pages: 1 -->
<svg width="376pt" height="134pt"
 viewBox="0.00 0.00 376.00 134.00" xmlns="http://www.w3.org/2000/svg" xmlns:xlink="http://www.w3.org/1999/xlink">
<g id="graph0" class="graph" transform="scale(1 1) rotate(0) translate(4 130)">
<title>Graphical Class Hierarchy</title>
<!-- Node0 -->
<g id="Node000000" class="node">
<title>Node0</title>
<g id="a_Node000000"><a xlink:href="d4/d81/classdesign__pattern_1_1behavioral_1_1visitor_1_1Element.html" target="_top" xlink:title="Implement the accept operation that takes a visitor as an argument.">
<polygon fill="white" stroke="#666666" points="164.5,-78 17.5,-78 17.5,-48 164.5,-48 164.5,-78"/>
<text text-anchor="start" x="25.5" y="-66" font-family="Helvetica,sans-Serif" font-size="10.00">design_pattern::behavioral</text>
<text text-anchor="middle" x="91" y="-55" font-family="Helvetica,sans-Serif" font-size="10.00">::visitor::Element</text>
</a>
</g>
</g>
<!-- Node1 -->
<g id="Node000001" class="node">
<title>Node1</title>
<g id="a_Node000001"><a xlink:href="df/d82/classdesign__pattern_1_1behavioral_1_1visitor_1_1ConcreteElementA.html" target="_top" xlink:title="The concrete element.">
<polygon fill="white" stroke="#666666" points="368,-102 218,-102 218,-72 368,-72 368,-102"/>
<text text-anchor="start" x="226" y="-90" font-family="Helvetica,sans-Serif" font-size="10.00">design_pattern::behavioral</text>
<text text-anchor="middle" x="293" y="-79" font-family="Helvetica,sans-Serif" font-size="10.00">::visitor::ConcreteElementA</text>
</a>
</g>
</g>
<!-- Node0&#45;&gt;Node1 -->
<g id="edge26_Node000000_Node000001" class="edge">
<title>Node0&#45;&gt;Node1</title>
<g id="a_edge26_Node000000_Node000001"><a xlink:title=" ">
<path fill="none" stroke="#63b8ff" d="M175.03,-72.96C189.26,-74.67 203.96,-76.44 217.94,-78.11"/>
<polygon fill="#63b8ff" stroke="#63b8ff" points="175.12,-69.45 164.77,-71.73 174.28,-76.4 175.12,-69.45"/>
</a>
</g>
</g>
<!-- Node3 -->
<g id="Node000003" class="node">
<title>Node3</title>
<g id="a_Node000003"><a xlink:href="da/d45/classdesign__pattern_1_1behavioral_1_1visitor_1_1ConcreteElementB.html" target="_top" xlink:title="The concrete element.">
<polygon fill="white" stroke="#666666" points="368,-42 218,-42 218,-12 368,-12 368,-42"/>
<text text-anchor="start" x="226" y="-30" font-family="Helvetica,sans-Serif" font-size="10.00">design_pattern::behavioral</text>
<text text-anchor="middle" x="293" y="-19" font-family="Helvetica,sans-Serif" font-size="10.00">::visitor::ConcreteElementB</text>
</a>
</g>
</g>
<!-- Node0&#45;&gt;Node3 -->
<g id="edge27_Node000000_Node000003" class="edge">
<title>Node0&#45;&gt;Node3</title>
<g id="a_edge27_Node000000_Node000003"><a xlink:title=" ">
<path fill="none" stroke="#63b8ff" d="M174.62,-48.13C188.98,-45.54 203.83,-42.87 217.94,-40.33"/>
<polygon fill="#63b8ff" stroke="#63b8ff" points="173.99,-44.69 164.77,-49.9 175.23,-51.57 173.99,-44.69"/>
</a>
</g>
</g>
<!-- Node2 -->
<g id="Node000002" class="node">
<title>Node2</title>
<g id="a_Node000002"><a target="_parent" xlink:href="https://gcc.gnu.org/onlinedocs/gcc-12.3.0/libstdc++/api/a07595.html" xlink:title=" ">
<polygon fill="white" stroke="#666666" points="182,-126 0,-126 0,-96 182,-96 182,-126"/>
<text text-anchor="start" x="8" y="-114" font-family="Helvetica,sans-Serif" font-size="10.00">std::enable_shared</text>
<text text-anchor="middle" x="91" y="-103" font-family="Helvetica,sans-Serif" font-size="10.00">_from_this&lt; ConcreteElementA &gt;</text>
</a>
</g>
</g>
<!-- Node2&#45;&gt;Node1 -->
<g id="edge28_Node000002_Node000001" class="edge">
<title>Node2&#45;&gt;Node1</title>
<g id="a_edge28_Node000002_Node000001"><a xlink:title=" ">
<path fill="none" stroke="#63b8ff" d="M192.14,-98.98C200.75,-97.95 209.36,-96.92 217.71,-95.91"/>
<polygon fill="#63b8ff" stroke="#63b8ff" points="191.57,-95.53 182.05,-100.19 192.4,-102.48 191.57,-95.53"/>
</a>
</g>
</g>
<!-- Node4 -->
<g id="Node000004" class="node">
<title>Node4</title>
<g id="a_Node000004"><a target="_parent" xlink:href="https://gcc.gnu.org/onlinedocs/gcc-12.3.0/libstdc++/api/a07595.html" xlink:title=" ">
<polygon fill="white" stroke="#666666" points="182,-30 0,-30 0,0 182,0 182,-30"/>
<text text-anchor="start" x="8" y="-18" font-family="Helvetica,sans-Serif" font-size="10.00">std::enable_shared</text>
<text text-anchor="middle" x="91" y="-7" font-family="Helvetica,sans-Serif" font-size="10.00">_from_this&lt; ConcreteElementB &gt;</text>
</a>
</g>
</g>
<!-- Node4&#45;&gt;Node3 -->
<g id="edge29_Node000004_Node000003" class="edge">
<title>Node4&#45;&gt;Node3</title>
<g id="a_edge29_Node000004_Node000003"><a xlink:title=" ">
<path fill="none" stroke="#63b8ff" d="M192.14,-21.01C200.75,-21.53 209.36,-22.04 217.71,-22.54"/>
<polygon fill="#63b8ff" stroke="#63b8ff" points="192.25,-17.51 182.05,-20.4 191.83,-24.5 192.25,-17.51"/>
</a>
</g>
</g>
</g>
</svg>
