<?xml version="1.0" encoding="UTF-8" standalone="no"?>
<!DOCTYPE svg PUBLIC "-//W3C//DTD SVG 1.1//EN"
 "http://www.w3.org/Graphics/SVG/1.1/DTD/svg11.dtd">
<!-- Generated by graphviz version 2.43.0 (0)
 -->
<!-- Title: Graphical Class Hierarchy Pages: 1 -->
<svg width="289pt" height="566pt"
 viewBox="0.00 0.00 289.00 566.00" xmlns="http://www.w3.org/2000/svg" xmlns:xlink="http://www.w3.org/1999/xlink">
<g id="graph0" class="graph" transform="scale(1 1) rotate(0) translate(4 562)">
<title>Graphical Class Hierarchy</title>
<!-- Node0 -->
<g id="Node000000" class="node">
<title>Node0</title>
<g id="a_Node000000"><a xlink:title=" ">
<polygon fill="#e0e0e0" stroke="#999999" points="76,-283 0,-283 0,-264 76,-264 76,-283"/>
<text text-anchor="middle" x="38" y="-271" font-family="Helvetica,sans-Serif" font-size="10.00">testing::Test</text>
</a>
</g>
</g>
<!-- Node1 -->
<g id="Node000001" class="node">
<title>Node1</title>
<g id="a_Node000001"><a xlink:href="d4/d62/classtest_1_1tst__algo_1_1MatchTestBase.html" target="_top" xlink:title="Test base of match.">
<polygon fill="white" stroke="#666666" points="276.5,-558 116.5,-558 116.5,-539 276.5,-539 276.5,-558"/>
<text text-anchor="middle" x="196.5" y="-546" font-family="Helvetica,sans-Serif" font-size="10.00">test::tst_algo::MatchTestBase</text>
</a>
</g>
</g>
<!-- Node0&#45;&gt;Node1 -->
<g id="edge74_Node000000_Node000001" class="edge">
<title>Node0&#45;&gt;Node1</title>
<g id="a_edge74_Node000000_Node000001"><a xlink:title=" ">
<path fill="none" stroke="#63b8ff" d="M38.34,-293.41C37.88,-341.52 43.81,-464.9 112,-529.5 115.99,-533.28 120.58,-536.37 125.5,-538.88"/>
<polygon fill="#63b8ff" stroke="#63b8ff" points="41.84,-293.18 38.55,-283.12 34.84,-293.04 41.84,-293.18"/>
</a>
</g>
</g>
<!-- Node2 -->
<g id="Node000002" class="node">
<title>Node2</title>
<g id="a_Node000002"><a xlink:href="d9/d28/classtest_1_1tst__algo_1_1NotationTestBase.html" target="_top" xlink:title="Test base of notation.">
<polygon fill="white" stroke="#666666" points="260.5,-520.5 132.5,-520.5 132.5,-490.5 260.5,-490.5 260.5,-520.5"/>
<text text-anchor="start" x="140.5" y="-508.5" font-family="Helvetica,sans-Serif" font-size="10.00">test::tst_algo::Notation</text>
<text text-anchor="middle" x="196.5" y="-497.5" font-family="Helvetica,sans-Serif" font-size="10.00">TestBase</text>
</a>
</g>
</g>
<!-- Node0&#45;&gt;Node2 -->
<g id="edge75_Node000000_Node000002" class="edge">
<title>Node0&#45;&gt;Node2</title>
<g id="a_edge75_Node000000_Node000002"><a xlink:title=" ">
<path fill="none" stroke="#63b8ff" d="M40.13,-293.6C43.57,-334.93 57.31,-429.87 112,-481.5 117.81,-486.99 124.8,-491.23 132.22,-494.51"/>
<polygon fill="#63b8ff" stroke="#63b8ff" points="43.61,-293.18 39.41,-283.45 36.63,-293.67 43.61,-293.18"/>
</a>
</g>
</g>
<!-- Node3 -->
<g id="Node000003" class="node">
<title>Node3</title>
<g id="a_Node000003"><a xlink:href="df/d4c/classtest_1_1tst__algo_1_1OptimalTestBase.html" target="_top" xlink:title="Test base of optimal.">
<polygon fill="white" stroke="#666666" points="281,-472 112,-472 112,-453 281,-453 281,-472"/>
<text text-anchor="middle" x="196.5" y="-460" font-family="Helvetica,sans-Serif" font-size="10.00">test::tst_algo::OptimalTestBase</text>
</a>
</g>
</g>
<!-- Node0&#45;&gt;Node3 -->
<g id="edge76_Node000000_Node000003" class="edge">
<title>Node0&#45;&gt;Node3</title>
<g id="a_edge76_Node000000_Node000003"><a xlink:title=" ">
<path fill="none" stroke="#63b8ff" d="M41.5,-293.22C47.16,-329.15 64.37,-405.2 112,-444.5 116.12,-447.9 120.73,-450.7 125.61,-453"/>
<polygon fill="#63b8ff" stroke="#63b8ff" points="44.93,-292.46 40.05,-283.06 38,-293.45 44.93,-292.46"/>
</a>
</g>
</g>
<!-- Node4 -->
<g id="Node000004" class="node">
<title>Node4</title>
<g id="a_Node000004"><a xlink:href="dc/d11/classtest_1_1tst__algo_1_1SearchTestBase.html" target="_top" xlink:title="Test base of search.">
<polygon fill="white" stroke="#666666" points="278,-435 115,-435 115,-416 278,-416 278,-435"/>
<text text-anchor="middle" x="196.5" y="-423" font-family="Helvetica,sans-Serif" font-size="10.00">test::tst_algo::SearchTestBase</text>
</a>
</g>
</g>
<!-- Node0&#45;&gt;Node4 -->
<g id="edge77_Node000000_Node000004" class="edge">
<title>Node0&#45;&gt;Node4</title>
<g id="a_edge77_Node000000_Node000004"><a xlink:title=" ">
<path fill="none" stroke="#63b8ff" d="M44,-293.05C52.63,-322.67 73.25,-378.52 112,-407.5 116.51,-410.88 121.53,-413.64 126.79,-415.91"/>
<polygon fill="#63b8ff" stroke="#63b8ff" points="47.29,-291.81 41.26,-283.1 40.54,-293.67 47.29,-291.81"/>
</a>
</g>
</g>
<!-- Node5 -->
<g id="Node000005" class="node">
<title>Node5</title>
<g id="a_Node000005"><a xlink:href="df/da9/classtest_1_1tst__algo_1_1SortTestBase.html" target="_top" xlink:title="Test base of sort.">
<polygon fill="white" stroke="#666666" points="271,-398 122,-398 122,-379 271,-379 271,-398"/>
<text text-anchor="middle" x="196.5" y="-386" font-family="Helvetica,sans-Serif" font-size="10.00">test::tst_algo::SortTestBase</text>
</a>
</g>
</g>
<!-- Node0&#45;&gt;Node5 -->
<g id="edge78_Node000000_Node000005" class="edge">
<title>Node0&#45;&gt;Node5</title>
<g id="a_edge78_Node000000_Node000005"><a xlink:title=" ">
<path fill="none" stroke="#63b8ff" d="M48.05,-292.21C59.71,-314.23 82.08,-350.23 112,-369.5 118,-373.36 124.68,-376.45 131.59,-378.91"/>
<polygon fill="#63b8ff" stroke="#63b8ff" points="51.12,-290.51 43.46,-283.19 44.88,-293.69 51.12,-290.51"/>
</a>
</g>
</g>
<!-- Node6 -->
<g id="Node000006" class="node">
<title>Node6</title>
<g id="a_Node000006"><a xlink:href="df/d72/classtest_1_1tst__dp_1_1BehavioralTestBase.html" target="_top" xlink:title="Test base of behavioral.">
<polygon fill="white" stroke="#666666" points="261.5,-360.5 131.5,-360.5 131.5,-330.5 261.5,-330.5 261.5,-360.5"/>
<text text-anchor="start" x="139.5" y="-348.5" font-family="Helvetica,sans-Serif" font-size="10.00">test::tst_dp::Behavioral</text>
<text text-anchor="middle" x="196.5" y="-337.5" font-family="Helvetica,sans-Serif" font-size="10.00">TestBase</text>
</a>
</g>
</g>
<!-- Node0&#45;&gt;Node6 -->
<g id="edge79_Node000000_Node000006" class="edge">
<title>Node0&#45;&gt;Node6</title>
<g id="a_edge79_Node000000_Node000006"><a xlink:title=" ">
<path fill="none" stroke="#63b8ff" d="M59.02,-289.06C73.17,-299.44 92.94,-312.74 112,-321.5 119.26,-324.84 127.1,-327.82 134.96,-330.46"/>
<polygon fill="#63b8ff" stroke="#63b8ff" points="61.09,-286.23 50.99,-283.04 56.89,-291.83 61.09,-286.23"/>
</a>
</g>
</g>
<!-- Node7 -->
<g id="Node000007" class="node">
<title>Node7</title>
<g id="a_Node000007"><a xlink:href="dd/d0b/classtest_1_1tst__dp_1_1CreationalTestBase.html" target="_top" xlink:title="Test base of creational.">
<polygon fill="white" stroke="#666666" points="260.5,-312.5 132.5,-312.5 132.5,-282.5 260.5,-282.5 260.5,-312.5"/>
<text text-anchor="start" x="140.5" y="-300.5" font-family="Helvetica,sans-Serif" font-size="10.00">test::tst_dp::Creational</text>
<text text-anchor="middle" x="196.5" y="-289.5" font-family="Helvetica,sans-Serif" font-size="10.00">TestBase</text>
</a>
</g>
</g>
<!-- Node0&#45;&gt;Node7 -->
<g id="edge80_Node000000_Node000007" class="edge">
<title>Node0&#45;&gt;Node7</title>
<g id="a_edge80_Node000000_Node000007"><a xlink:title=" ">
<path fill="none" stroke="#63b8ff" d="M86.31,-280.76C100.8,-282.98 116.99,-285.46 132.36,-287.82"/>
<polygon fill="#63b8ff" stroke="#63b8ff" points="86.5,-277.24 76.09,-279.19 85.44,-284.16 86.5,-277.24"/>
</a>
</g>
</g>
<!-- Node8 -->
<g id="Node000008" class="node">
<title>Node8</title>
<g id="a_Node000008"><a xlink:href="d8/d2f/classtest_1_1tst__dp_1_1StructuralTestBase.html" target="_top" xlink:title="Test base of structural.">
<polygon fill="white" stroke="#666666" points="259,-264.5 134,-264.5 134,-234.5 259,-234.5 259,-264.5"/>
<text text-anchor="start" x="142" y="-252.5" font-family="Helvetica,sans-Serif" font-size="10.00">test::tst_dp::Structural</text>
<text text-anchor="middle" x="196.5" y="-241.5" font-family="Helvetica,sans-Serif" font-size="10.00">TestBase</text>
</a>
</g>
</g>
<!-- Node0&#45;&gt;Node8 -->
<g id="edge81_Node000000_Node000008" class="edge">
<title>Node0&#45;&gt;Node8</title>
<g id="a_edge81_Node000000_Node000008"><a xlink:title=" ">
<path fill="none" stroke="#63b8ff" d="M86.16,-266.27C101.18,-263.96 118.02,-261.38 133.9,-258.95"/>
<polygon fill="#63b8ff" stroke="#63b8ff" points="85.44,-262.84 76.09,-267.81 86.5,-269.76 85.44,-262.84"/>
</a>
</g>
</g>
<!-- Node9 -->
<g id="Node000009" class="node">
<title>Node9</title>
<g id="a_Node000009"><a xlink:href="d1/d53/classtest_1_1tst__ds_1_1LinearTestBase.html" target="_top" xlink:title="Test base of linear.">
<polygon fill="white" stroke="#666666" points="271.5,-216 121.5,-216 121.5,-197 271.5,-197 271.5,-216"/>
<text text-anchor="middle" x="196.5" y="-204" font-family="Helvetica,sans-Serif" font-size="10.00">test::tst_ds::LinearTestBase</text>
</a>
</g>
</g>
<!-- Node0&#45;&gt;Node9 -->
<g id="edge82_Node000000_Node000009" class="edge">
<title>Node0&#45;&gt;Node9</title>
<g id="a_edge82_Node000000_Node000009"><a xlink:title=" ">
<path fill="none" stroke="#63b8ff" d="M58.61,-257.79C72.71,-247.23 92.59,-233.77 112,-225.5 121.03,-221.65 130.95,-218.53 140.71,-216.01"/>
<polygon fill="#63b8ff" stroke="#63b8ff" points="56.43,-255.05 50.64,-263.92 60.7,-260.6 56.43,-255.05"/>
</a>
</g>
</g>
<!-- Node10 -->
<g id="Node000010" class="node">
<title>Node10</title>
<g id="a_Node000010"><a xlink:href="de/d9d/classtest_1_1tst__ds_1_1TreeTestBase.html" target="_top" xlink:title="Test base of tree.">
<polygon fill="white" stroke="#666666" points="266.5,-179 126.5,-179 126.5,-160 266.5,-160 266.5,-179"/>
<text text-anchor="middle" x="196.5" y="-167" font-family="Helvetica,sans-Serif" font-size="10.00">test::tst_ds::TreeTestBase</text>
</a>
</g>
</g>
<!-- Node0&#45;&gt;Node10 -->
<g id="edge83_Node000000_Node000010" class="edge">
<title>Node0&#45;&gt;Node10</title>
<g id="a_edge83_Node000000_Node000010"><a xlink:title=" ">
<path fill="none" stroke="#63b8ff" d="M49.69,-255.2C62.13,-235.59 84.51,-205.07 112,-188.5 118.49,-184.59 125.71,-181.48 133.11,-179.01"/>
<polygon fill="#63b8ff" stroke="#63b8ff" points="46.64,-253.48 44.41,-263.83 52.61,-257.13 46.64,-253.48"/>
</a>
</g>
</g>
<!-- Node11 -->
<g id="Node000011" class="node">
<title>Node11</title>
<g id="a_Node000011"><a xlink:href="dc/dc9/classtest_1_1tst__num_1_1ArithmeticTestBase.html" target="_top" xlink:title="Test base of arithmetic.">
<polygon fill="white" stroke="#666666" points="265.5,-141.5 127.5,-141.5 127.5,-111.5 265.5,-111.5 265.5,-141.5"/>
<text text-anchor="start" x="135.5" y="-129.5" font-family="Helvetica,sans-Serif" font-size="10.00">test::tst_num::Arithmetic</text>
<text text-anchor="middle" x="196.5" y="-118.5" font-family="Helvetica,sans-Serif" font-size="10.00">TestBase</text>
</a>
</g>
</g>
<!-- Node0&#45;&gt;Node11 -->
<g id="edge84_Node000000_Node000011" class="edge">
<title>Node0&#45;&gt;Node11</title>
<g id="a_edge84_Node000000_Node000011"><a xlink:title=" ">
<path fill="none" stroke="#63b8ff" d="M45.34,-254.49C55.28,-227.58 77.09,-178.66 112,-151.5 117.02,-147.6 122.63,-144.3 128.52,-141.52"/>
<polygon fill="#63b8ff" stroke="#63b8ff" points="42.03,-253.34 42.01,-263.93 48.64,-255.67 42.03,-253.34"/>
</a>
</g>
</g>
<!-- Node12 -->
<g id="Node000012" class="node">
<title>Node12</title>
<g id="a_Node000012"><a xlink:href="d7/d7a/classtest_1_1tst__num_1_1DivisorTestBase.html" target="_top" xlink:title="Test base of divisor.">
<polygon fill="white" stroke="#666666" points="279,-93 114,-93 114,-74 279,-74 279,-93"/>
<text text-anchor="middle" x="196.5" y="-81" font-family="Helvetica,sans-Serif" font-size="10.00">test::tst_num::DivisorTestBase</text>
</a>
</g>
</g>
<!-- Node0&#45;&gt;Node12 -->
<g id="edge85_Node000000_Node000012" class="edge">
<title>Node0&#45;&gt;Node12</title>
<g id="a_edge85_Node000000_Node000012"><a xlink:title=" ">
<path fill="none" stroke="#63b8ff" d="M41.55,-253.83C47.27,-217.99 64.59,-142.07 112,-102.5 116.57,-98.69 121.74,-95.61 127.23,-93.11"/>
<polygon fill="#63b8ff" stroke="#63b8ff" points="38.05,-253.57 40.07,-263.97 44.98,-254.58 38.05,-253.57"/>
</a>
</g>
</g>
<!-- Node13 -->
<g id="Node000013" class="node">
<title>Node13</title>
<g id="a_Node000013"><a xlink:href="da/de7/classtest_1_1tst__num_1_1IntegralTestBase.html" target="_top" xlink:title="Test base of integral.">
<polygon fill="white" stroke="#666666" points="280.5,-56 112.5,-56 112.5,-37 280.5,-37 280.5,-56"/>
<text text-anchor="middle" x="196.5" y="-44" font-family="Helvetica,sans-Serif" font-size="10.00">test::tst_num::IntegralTestBase</text>
</a>
</g>
</g>
<!-- Node0&#45;&gt;Node13 -->
<g id="edge86_Node000000_Node000013" class="edge">
<title>Node0&#45;&gt;Node13</title>
<g id="a_edge86_Node000000_Node000013"><a xlink:title=" ">
<path fill="none" stroke="#63b8ff" d="M39.86,-253.72C42.78,-212.24 55.62,-115.8 112,-65.5 116.22,-61.74 121.02,-58.68 126.14,-56.19"/>
<polygon fill="#63b8ff" stroke="#63b8ff" points="36.36,-253.7 39.27,-263.88 43.35,-254.1 36.36,-253.7"/>
</a>
</g>
</g>
<!-- Node14 -->
<g id="Node000014" class="node">
<title>Node14</title>
<g id="a_Node000014"><a xlink:href="d8/d71/classtest_1_1tst__num_1_1PrimeTestBase.html" target="_top" xlink:title="Test base of prime.">
<polygon fill="white" stroke="#666666" points="276,-19 117,-19 117,0 276,0 276,-19"/>
<text text-anchor="middle" x="196.5" y="-7" font-family="Helvetica,sans-Serif" font-size="10.00">test::tst_num::PrimeTestBase</text>
</a>
</g>
</g>
<!-- Node0&#45;&gt;Node14 -->
<g id="edge87_Node000000_Node000014" class="edge">
<title>Node0&#45;&gt;Node14</title>
<g id="a_edge87_Node000000_Node000014"><a xlink:title=" ">
<path fill="none" stroke="#63b8ff" d="M38.64,-253.5C38.95,-206.76 46.59,-89.74 112,-28.5 116.02,-24.74 120.61,-21.67 125.54,-19.17"/>
<polygon fill="#63b8ff" stroke="#63b8ff" points="35.14,-253.81 38.69,-263.79 42.14,-253.77 35.14,-253.81"/>
</a>
</g>
</g>
</g>
</svg>
