<?xml version="1.0" encoding="UTF-8" standalone="no"?>
<!DOCTYPE svg PUBLIC "-//W3C//DTD SVG 1.1//EN"
 "http://www.w3.org/Graphics/SVG/1.1/DTD/svg11.dtd">
<!-- Generated by graphviz version 2.43.0 (0)
 -->
<!-- Title: Graphical Class Hierarchy Pages: 1 -->
<svg width="369pt" height="200pt"
 viewBox="0.00 0.00 369.00 200.00" xmlns="http://www.w3.org/2000/svg" xmlns:xlink="http://www.w3.org/1999/xlink">
<g id="graph0" class="graph" transform="scale(1 1) rotate(0) translate(4 196)">
<title>Graphical Class Hierarchy</title>
<!-- Node0 -->
<g id="Node000000" class="node">
<title>Node0</title>
<g id="a_Node000000"><a xlink:href="d2/d4f/structutility_1_1fsm_1_1FSM_1_1RowBased.html" target="_top" xlink:title="Row&#45;based.">
<polygon fill="white" stroke="#666666" points="158,-116.5 0,-116.5 0,-75.5 158,-75.5 158,-116.5"/>
<text text-anchor="start" x="8" y="-104.5" font-family="Helvetica,sans-Serif" font-size="10.00">utility::fsm::FSM&lt;</text>
<text text-anchor="start" x="8" y="-93.5" font-family="Helvetica,sans-Serif" font-size="10.00"> Derived, State &gt;::RowBased</text>
<text text-anchor="middle" x="79" y="-82.5" font-family="Helvetica,sans-Serif" font-size="10.00">&lt; Source, Event, Target &gt;</text>
</a>
</g>
</g>
<!-- Node1 -->
<g id="Node000001" class="node">
<title>Node1</title>
<g id="a_Node000001"><a xlink:href="d5/d2c/structutility_1_1fsm_1_1FSM_1_1BasicRow.html" target="_top" xlink:title="The basic row of the transition map.">
<polygon fill="white" stroke="#666666" points="361,-192 194,-192 194,-140 361,-140 361,-192"/>
<text text-anchor="start" x="202" y="-180" font-family="Helvetica,sans-Serif" font-size="10.00">utility::fsm::FSM&lt;</text>
<text text-anchor="start" x="202" y="-169" font-family="Helvetica,sans-Serif" font-size="10.00"> Derived, State &gt;::BasicRow</text>
<text text-anchor="start" x="202" y="-158" font-family="Helvetica,sans-Serif" font-size="10.00">&lt; Source, Event, Target,</text>
<text text-anchor="middle" x="277.5" y="-147" font-family="Helvetica,sans-Serif" font-size="10.00"> Action, action, Guard, guard &gt;</text>
</a>
</g>
</g>
<!-- Node0&#45;&gt;Node1 -->
<g id="edge88_Node000000_Node000001" class="edge">
<title>Node0&#45;&gt;Node1</title>
<g id="a_edge88_Node000000_Node000001"><a xlink:title=" ">
<path fill="none" stroke="#63b8ff" d="M147.23,-119.95C165.36,-126.41 185.06,-133.42 203.48,-139.99"/>
<polygon fill="#63b8ff" stroke="#63b8ff" points="148.22,-116.59 137.63,-116.53 145.87,-123.18 148.22,-116.59"/>
</a>
</g>
</g>
<!-- Node2 -->
<g id="Node000002" class="node">
<title>Node2</title>
<g id="a_Node000002"><a xlink:href="d6/dbc/structutility_1_1fsm_1_1FSM_1_1MemFuncRow.html" target="_top" xlink:title="Member function row of the transition map.">
<polygon fill="white" stroke="#666666" points="355,-122 200,-122 200,-70 355,-70 355,-122"/>
<text text-anchor="start" x="208" y="-110" font-family="Helvetica,sans-Serif" font-size="10.00">utility::fsm::FSM&lt;</text>
<text text-anchor="start" x="208" y="-99" font-family="Helvetica,sans-Serif" font-size="10.00"> Derived, State &gt;::MemFunc</text>
<text text-anchor="start" x="208" y="-88" font-family="Helvetica,sans-Serif" font-size="10.00">Row&lt; Source, Event, Target,</text>
<text text-anchor="middle" x="277.5" y="-77" font-family="Helvetica,sans-Serif" font-size="10.00"> action, guard &gt;</text>
</a>
</g>
</g>
<!-- Node0&#45;&gt;Node2 -->
<g id="edge89_Node000000_Node000002" class="edge">
<title>Node0&#45;&gt;Node2</title>
<g id="a_edge89_Node000000_Node000002"><a xlink:title=" ">
<path fill="none" stroke="#63b8ff" d="M168.26,-96C178.79,-96 189.48,-96 199.82,-96"/>
<polygon fill="#63b8ff" stroke="#63b8ff" points="168.23,-92.5 158.23,-96 168.23,-99.5 168.23,-92.5"/>
</a>
</g>
</g>
<!-- Node3 -->
<g id="Node000003" class="node">
<title>Node3</title>
<g id="a_Node000003"><a xlink:href="d8/dd1/structutility_1_1fsm_1_1FSM_1_1Row.html" target="_top" xlink:title="The generic row of the transition map.">
<polygon fill="white" stroke="#666666" points="344.5,-52 210.5,-52 210.5,0 344.5,0 344.5,-52"/>
<text text-anchor="start" x="218.5" y="-40" font-family="Helvetica,sans-Serif" font-size="10.00">utility::fsm::FSM&lt;</text>
<text text-anchor="start" x="218.5" y="-29" font-family="Helvetica,sans-Serif" font-size="10.00"> Derived, State &gt;::Row</text>
<text text-anchor="start" x="218.5" y="-18" font-family="Helvetica,sans-Serif" font-size="10.00">&lt; Source, Event, Target,</text>
<text text-anchor="middle" x="277.5" y="-7" font-family="Helvetica,sans-Serif" font-size="10.00"> action, guard &gt;</text>
</a>
</g>
</g>
<!-- Node0&#45;&gt;Node3 -->
<g id="edge90_Node000000_Node000003" class="edge">
<title>Node0&#45;&gt;Node3</title>
<g id="a_edge90_Node000000_Node000003"><a xlink:title=" ">
<path fill="none" stroke="#63b8ff" d="M147.15,-72.08C167.53,-64.82 189.9,-56.85 210.23,-49.61"/>
<polygon fill="#63b8ff" stroke="#63b8ff" points="145.87,-68.82 137.63,-75.47 148.22,-75.41 145.87,-68.82"/>
</a>
</g>
</g>
</g>
</svg>
