<?xml version="1.0" encoding="UTF-8" standalone="no"?>
<!DOCTYPE svg PUBLIC "-//W3C//DTD SVG 1.1//EN"
 "http://www.w3.org/Graphics/SVG/1.1/DTD/svg11.dtd">
<!-- Generated by graphviz version 2.43.0 (0)
 -->
<!-- Title: Graphical Class Hierarchy Pages: 1 -->
<svg width="351pt" height="86pt"
 viewBox="0.00 0.00 351.00 86.00" xmlns="http://www.w3.org/2000/svg" xmlns:xlink="http://www.w3.org/1999/xlink">
<g id="graph0" class="graph" transform="scale(1 1) rotate(0) translate(4 82)">
<title>Graphical Class Hierarchy</title>
<!-- Node0 -->
<g id="Node000000" class="node">
<title>Node0</title>
<g id="a_Node000000"><a xlink:href="d7/de5/classdesign__pattern_1_1behavioral_1_1strategy_1_1Strategy.html" target="_top" xlink:title="Implement the algorithm using the strategy interface. Common to all supported algorithms.">
<polygon fill="white" stroke="#666666" points="147,-54 0,-54 0,-24 147,-24 147,-54"/>
<text text-anchor="start" x="8" y="-42" font-family="Helvetica,sans-Serif" font-size="10.00">design_pattern::behavioral</text>
<text text-anchor="middle" x="73.5" y="-31" font-family="Helvetica,sans-Serif" font-size="10.00">::strategy::Strategy</text>
</a>
</g>
</g>
<!-- Node1 -->
<g id="Node000001" class="node">
<title>Node1</title>
<g id="a_Node000001"><a xlink:href="dd/dd7/classdesign__pattern_1_1behavioral_1_1strategy_1_1ConcreteStrategyA.html" target="_top" xlink:title="The concrete strategy.">
<polygon fill="white" stroke="#666666" points="343,-78 183,-78 183,-48 343,-48 343,-78"/>
<text text-anchor="start" x="191" y="-66" font-family="Helvetica,sans-Serif" font-size="10.00">design_pattern::behavioral</text>
<text text-anchor="middle" x="263" y="-55" font-family="Helvetica,sans-Serif" font-size="10.00">::strategy::ConcreteStrategyA</text>
</a>
</g>
</g>
<!-- Node0&#45;&gt;Node1 -->
<g id="edge23_Node000000_Node000001" class="edge">
<title>Node0&#45;&gt;Node1</title>
<g id="a_edge23_Node000000_Node000001"><a xlink:title=" ">
<path fill="none" stroke="#63b8ff" d="M157.44,-49.62C165.85,-50.69 174.38,-51.79 182.75,-52.86"/>
<polygon fill="#63b8ff" stroke="#63b8ff" points="157.62,-46.11 147.26,-48.31 156.74,-53.05 157.62,-46.11"/>
</a>
</g>
</g>
<!-- Node2 -->
<g id="Node000002" class="node">
<title>Node2</title>
<g id="a_Node000002"><a xlink:href="d2/dd7/classdesign__pattern_1_1behavioral_1_1strategy_1_1ConcreteStrategyB.html" target="_top" xlink:title="The concrete strategy.">
<polygon fill="white" stroke="#666666" points="343,-30 183,-30 183,0 343,0 343,-30"/>
<text text-anchor="start" x="191" y="-18" font-family="Helvetica,sans-Serif" font-size="10.00">design_pattern::behavioral</text>
<text text-anchor="middle" x="263" y="-7" font-family="Helvetica,sans-Serif" font-size="10.00">::strategy::ConcreteStrategyB</text>
</a>
</g>
</g>
<!-- Node0&#45;&gt;Node2 -->
<g id="edge24_Node000000_Node000002" class="edge">
<title>Node0&#45;&gt;Node2</title>
<g id="a_edge24_Node000000_Node000002"><a xlink:title=" ">
<path fill="none" stroke="#63b8ff" d="M157.44,-28.38C165.85,-27.31 174.38,-26.21 182.75,-25.14"/>
<polygon fill="#63b8ff" stroke="#63b8ff" points="156.74,-24.95 147.26,-29.69 157.62,-31.89 156.74,-24.95"/>
</a>
</g>
</g>
</g>
</svg>
