<?xml version="1.0" encoding="UTF-8" standalone="no"?>
<!DOCTYPE svg PUBLIC "-//W3C//DTD SVG 1.1//EN"
 "http://www.w3.org/Graphics/SVG/1.1/DTD/svg11.dtd">
<!-- Generated by graphviz version 2.43.0 (0)
 -->
<!-- Title: Graphical Class Hierarchy Pages: 1 -->
<svg width="481pt" height="101pt"
 viewBox="0.00 0.00 481.00 101.00" xmlns="http://www.w3.org/2000/svg" xmlns:xlink="http://www.w3.org/1999/xlink">
<g id="graph0" class="graph" transform="scale(1 1) rotate(0) translate(4 97)">
<title>Graphical Class Hierarchy</title>
<!-- Node0 -->
<g id="Node000000" class="node">
<title>Node0</title>
<g id="a_Node000000"><a xlink:href="dd/dcb/classutility_1_1socket_1_1Socket.html" target="_top" xlink:title="Network socket.">
<polygon fill="white" stroke="#666666" points="120,-56 0,-56 0,-37 120,-37 120,-56"/>
<text text-anchor="middle" x="60" y="-44" font-family="Helvetica,sans-Serif" font-size="10.00">utility::socket::Socket</text>
</a>
</g>
</g>
<!-- Node1 -->
<g id="Node000001" class="node">
<title>Node1</title>
<g id="a_Node000001"><a xlink:href="de/de4/classutility_1_1socket_1_1TCPServer.html" target="_top" xlink:title="TCP server.">
<polygon fill="white" stroke="#666666" points="295,-93 158,-93 158,-74 295,-74 295,-93"/>
<text text-anchor="middle" x="226.5" y="-81" font-family="Helvetica,sans-Serif" font-size="10.00">utility::socket::TCPServer</text>
</a>
</g>
</g>
<!-- Node0&#45;&gt;Node1 -->
<g id="edge93_Node000000_Node000001" class="edge">
<title>Node0&#45;&gt;Node1</title>
<g id="a_edge93_Node000000_Node000001"><a xlink:title=" ">
<path fill="none" stroke="#63b8ff" d="M113.41,-58.29C135.87,-63.34 161.76,-69.16 183,-73.94"/>
<polygon fill="#63b8ff" stroke="#63b8ff" points="113.89,-54.81 103.36,-56.03 112.35,-61.64 113.89,-54.81"/>
</a>
</g>
</g>
<!-- Node2 -->
<g id="Node000002" class="node">
<title>Node2</title>
<g id="a_Node000002"><a xlink:href="d1/daf/classutility_1_1socket_1_1TCPSocket.html" target="_top" xlink:title="TCP socket.">
<polygon fill="white" stroke="#666666" points="295.5,-56 157.5,-56 157.5,-37 295.5,-37 295.5,-56"/>
<text text-anchor="middle" x="226.5" y="-44" font-family="Helvetica,sans-Serif" font-size="10.00">utility::socket::TCPSocket</text>
</a>
</g>
</g>
<!-- Node0&#45;&gt;Node2 -->
<g id="edge94_Node000000_Node000002" class="edge">
<title>Node0&#45;&gt;Node2</title>
<g id="a_edge94_Node000000_Node000002"><a xlink:title=" ">
<path fill="none" stroke="#63b8ff" d="M130.62,-46.5C139.44,-46.5 148.46,-46.5 157.26,-46.5"/>
<polygon fill="#63b8ff" stroke="#63b8ff" points="130.39,-43 120.39,-46.5 130.39,-50 130.39,-43"/>
</a>
</g>
</g>
<!-- Node3 -->
<g id="Node000003" class="node">
<title>Node3</title>
<g id="a_Node000003"><a xlink:href="db/d57/classutility_1_1socket_1_1UDPSocket.html" target="_top" xlink:title="UDP socket.">
<polygon fill="white" stroke="#666666" points="297,-19 156,-19 156,0 297,0 297,-19"/>
<text text-anchor="middle" x="226.5" y="-7" font-family="Helvetica,sans-Serif" font-size="10.00">utility::socket::UDPSocket</text>
</a>
</g>
</g>
<!-- Node0&#45;&gt;Node3 -->
<g id="edge95_Node000000_Node000003" class="edge">
<title>Node0&#45;&gt;Node3</title>
<g id="a_edge95_Node000000_Node000003"><a xlink:title=" ">
<path fill="none" stroke="#63b8ff" d="M113.41,-34.71C135.87,-29.66 161.76,-23.84 183,-19.06"/>
<polygon fill="#63b8ff" stroke="#63b8ff" points="112.35,-31.36 103.36,-36.97 113.89,-38.19 112.35,-31.36"/>
</a>
</g>
</g>
<!-- Node4 -->
<g id="Node000004" class="node">
<title>Node4</title>
<g id="a_Node000004"><a xlink:href="de/dc3/classutility_1_1socket_1_1UDPServer.html" target="_top" xlink:title="UDP server.">
<polygon fill="white" stroke="#666666" points="473,-19 333,-19 333,0 473,0 473,-19"/>
<text text-anchor="middle" x="403" y="-7" font-family="Helvetica,sans-Serif" font-size="10.00">utility::socket::UDPServer</text>
</a>
</g>
</g>
<!-- Node3&#45;&gt;Node4 -->
<g id="edge96_Node000003_Node000004" class="edge">
<title>Node3&#45;&gt;Node4</title>
<g id="a_edge96_Node000003_Node000004"><a xlink:title=" ">
<path fill="none" stroke="#63b8ff" d="M307.24,-9.5C315.83,-9.5 324.51,-9.5 332.96,-9.5"/>
<polygon fill="#63b8ff" stroke="#63b8ff" points="307.22,-6 297.22,-9.5 307.22,-13 307.22,-6"/>
</a>
</g>
</g>
</g>
</svg>
