<?xml version="1.0" encoding="UTF-8" standalone="no"?>
<!DOCTYPE svg PUBLIC "-//W3C//DTD SVG 1.1//EN"
 "http://www.w3.org/Graphics/SVG/1.1/DTD/svg11.dtd">
<!-- Generated by graphviz version 2.43.0 (0)
 -->
<!-- Title: Graphical Class Hierarchy Pages: 1 -->
<svg width="387pt" height="86pt"
 viewBox="0.00 0.00 387.00 86.00" xmlns="http://www.w3.org/2000/svg" xmlns:xlink="http://www.w3.org/1999/xlink">
<g id="graph0" class="graph" transform="scale(1 1) rotate(0) translate(4 82)">
<title>Graphical Class Hierarchy</title>
<!-- Node0 -->
<g id="Node000000" class="node">
<title>Node0</title>
<g id="a_Node000000"><a xlink:href="d9/def/classdesign__pattern_1_1behavioral_1_1iterator_1_1Aggregate.html" target="_top" xlink:title="The aggregate decouples the client from the implementation of the collection of items.">
<polygon fill="white" stroke="#666666" points="166,-78 19,-78 19,-48 166,-48 166,-78"/>
<text text-anchor="start" x="27" y="-66" font-family="Helvetica,sans-Serif" font-size="10.00">design_pattern::behavioral</text>
<text text-anchor="middle" x="92.5" y="-55" font-family="Helvetica,sans-Serif" font-size="10.00">::iterator::Aggregate</text>
</a>
</g>
</g>
<!-- Node1 -->
<g id="Node000001" class="node">
<title>Node1</title>
<g id="a_Node000001"><a xlink:href="dc/d62/classdesign__pattern_1_1behavioral_1_1iterator_1_1ConcreteAggregate.html" target="_top" xlink:title="The concrete aggregate.">
<polygon fill="white" stroke="#666666" points="379,-54 221,-54 221,-24 379,-24 379,-54"/>
<text text-anchor="start" x="229" y="-42" font-family="Helvetica,sans-Serif" font-size="10.00">design_pattern::behavioral</text>
<text text-anchor="middle" x="300" y="-31" font-family="Helvetica,sans-Serif" font-size="10.00">::iterator::ConcreteAggregate</text>
</a>
</g>
</g>
<!-- Node0&#45;&gt;Node1 -->
<g id="edge14_Node000000_Node000001" class="edge">
<title>Node0&#45;&gt;Node1</title>
<g id="a_edge14_Node000000_Node000001"><a xlink:title=" ">
<path fill="none" stroke="#63b8ff" d="M176.3,-53.33C190.98,-51.62 206.23,-49.83 220.78,-48.14"/>
<polygon fill="#63b8ff" stroke="#63b8ff" points="175.77,-49.87 166.24,-54.5 176.58,-56.82 175.77,-49.87"/>
</a>
</g>
</g>
<!-- Node2 -->
<g id="Node000002" class="node">
<title>Node2</title>
<g id="a_Node000002"><a target="_parent" xlink:href="https://gcc.gnu.org/onlinedocs/gcc-12.3.0/libstdc++/api/a07595.html" xlink:title=" ">
<polygon fill="white" stroke="#666666" points="185,-30 0,-30 0,0 185,0 185,-30"/>
<text text-anchor="start" x="8" y="-18" font-family="Helvetica,sans-Serif" font-size="10.00">std::enable_shared</text>
<text text-anchor="middle" x="92.5" y="-7" font-family="Helvetica,sans-Serif" font-size="10.00">_from_this&lt; ConcreteAggregate &gt;</text>
</a>
</g>
</g>
<!-- Node2&#45;&gt;Node1 -->
<g id="edge15_Node000002_Node000001" class="edge">
<title>Node2&#45;&gt;Node1</title>
<g id="a_edge15_Node000002_Node000001"><a xlink:title=" ">
<path fill="none" stroke="#63b8ff" d="M195.19,-26.88C203.77,-27.88 212.37,-28.88 220.73,-29.86"/>
<polygon fill="#63b8ff" stroke="#63b8ff" points="195.47,-23.39 185.13,-25.7 194.66,-30.34 195.47,-23.39"/>
</a>
</g>
</g>
</g>
</svg>
