<?xml version="1.0" encoding="UTF-8" standalone="no"?>
<!DOCTYPE svg PUBLIC "-//W3C//DTD SVG 1.1//EN"
 "http://www.w3.org/Graphics/SVG/1.1/DTD/svg11.dtd">
<!-- Generated by graphviz version 2.43.0 (0)
 -->
<!-- Title: Graphical Class Hierarchy Pages: 1 -->
<svg width="338pt" height="86pt"
 viewBox="0.00 0.00 338.00 86.00" xmlns="http://www.w3.org/2000/svg" xmlns:xlink="http://www.w3.org/1999/xlink">
<g id="graph0" class="graph" transform="scale(1 1) rotate(0) translate(4 82)">
<title>Graphical Class Hierarchy</title>
<!-- Node0 -->
<g id="Node000000" class="node">
<title>Node0</title>
<g id="a_Node000000"><a xlink:href="d7/dcb/classdesign__pattern_1_1behavioral_1_1state_1_1State.html" target="_top" xlink:title="Behaviors associated with a particular state of the context.">
<polygon fill="white" stroke="#666666" points="147,-54 0,-54 0,-24 147,-24 147,-54"/>
<text text-anchor="start" x="8" y="-42" font-family="Helvetica,sans-Serif" font-size="10.00">design_pattern::behavioral</text>
<text text-anchor="middle" x="73.5" y="-31" font-family="Helvetica,sans-Serif" font-size="10.00">::state::State</text>
</a>
</g>
</g>
<!-- Node1 -->
<g id="Node000001" class="node">
<title>Node1</title>
<g id="a_Node000001"><a xlink:href="d8/d2d/classdesign__pattern_1_1behavioral_1_1state_1_1ConcreteStateA.html" target="_top" xlink:title="The concrete state.">
<polygon fill="white" stroke="#666666" points="330,-78 183,-78 183,-48 330,-48 330,-78"/>
<text text-anchor="start" x="191" y="-66" font-family="Helvetica,sans-Serif" font-size="10.00">design_pattern::behavioral</text>
<text text-anchor="middle" x="256.5" y="-55" font-family="Helvetica,sans-Serif" font-size="10.00">::state::ConcreteStateA</text>
</a>
</g>
</g>
<!-- Node0&#45;&gt;Node1 -->
<g id="edge21_Node000000_Node000001" class="edge">
<title>Node0&#45;&gt;Node1</title>
<g id="a_edge21_Node000000_Node000001"><a xlink:title=" ">
<path fill="none" stroke="#63b8ff" d="M157.12,-49.95C165.72,-51.1 174.42,-52.25 182.91,-53.37"/>
<polygon fill="#63b8ff" stroke="#63b8ff" points="157.45,-46.47 147.08,-48.62 156.53,-53.41 157.45,-46.47"/>
</a>
</g>
</g>
<!-- Node2 -->
<g id="Node000002" class="node">
<title>Node2</title>
<g id="a_Node000002"><a xlink:href="d3/d28/classdesign__pattern_1_1behavioral_1_1state_1_1ConcreteStateB.html" target="_top" xlink:title="The concrete state.">
<polygon fill="white" stroke="#666666" points="330,-30 183,-30 183,0 330,0 330,-30"/>
<text text-anchor="start" x="191" y="-18" font-family="Helvetica,sans-Serif" font-size="10.00">design_pattern::behavioral</text>
<text text-anchor="middle" x="256.5" y="-7" font-family="Helvetica,sans-Serif" font-size="10.00">::state::ConcreteStateB</text>
</a>
</g>
</g>
<!-- Node0&#45;&gt;Node2 -->
<g id="edge22_Node000000_Node000002" class="edge">
<title>Node0&#45;&gt;Node2</title>
<g id="a_edge22_Node000000_Node000002"><a xlink:title=" ">
<path fill="none" stroke="#63b8ff" d="M157.12,-28.05C165.72,-26.9 174.42,-25.75 182.91,-24.63"/>
<polygon fill="#63b8ff" stroke="#63b8ff" points="156.53,-24.59 147.08,-29.38 157.45,-31.53 156.53,-24.59"/>
</a>
</g>
</g>
</g>
</svg>
