<?xml version="1.0" encoding="UTF-8" standalone="no"?>
<!DOCTYPE svg PUBLIC "-//W3C//DTD SVG 1.1//EN"
 "http://www.w3.org/Graphics/SVG/1.1/DTD/svg11.dtd">
<!-- Generated by graphviz version 2.43.0 (0)
 -->
<!-- Title: Graphical Class Hierarchy Pages: 1 -->
<svg width="377pt" height="422pt"
 viewBox="0.00 0.00 377.00 422.00" xmlns="http://www.w3.org/2000/svg" xmlns:xlink="http://www.w3.org/1999/xlink">
<g id="graph0" class="graph" transform="scale(1 1) rotate(0) translate(4 418)">
<title>Graphical Class Hierarchy</title>
<!-- Node0 -->
<g id="Node000000" class="node">
<title>Node0</title>
<g id="a_Node000000"><a target="_parent" xlink:href="https://gcc.gnu.org/onlinedocs/gcc-12.3.0/libstdc++/api/a03667.html" xlink:title=" ">
<polygon fill="white" stroke="#666666" points="152,-204.5 0,-204.5 0,-174.5 152,-174.5 152,-204.5"/>
<text text-anchor="start" x="8" y="-192.5" font-family="Helvetica,sans-Serif" font-size="10.00">std::integral_constant</text>
<text text-anchor="middle" x="76" y="-181.5" font-family="Helvetica,sans-Serif" font-size="10.00">&lt; typename _Tp, _Tp __v &gt;</text>
</a>
</g>
</g>
<!-- Node1 -->
<g id="Node000001" class="node">
<title>Node1</title>
<g id="a_Node000001"><a xlink:href="dc/d43/structutility_1_1argument_1_1HasContainerTraits.html" target="_top" xlink:title="Confirm container traits. Value is false.">
<polygon fill="white" stroke="#666666" points="337,-414 220,-414 220,-373 337,-373 337,-414"/>
<text text-anchor="start" x="228" y="-402" font-family="Helvetica,sans-Serif" font-size="10.00">utility::argument::</text>
<text text-anchor="start" x="228" y="-391" font-family="Helvetica,sans-Serif" font-size="10.00">HasContainerTraits&lt;</text>
<text text-anchor="middle" x="278.5" y="-380" font-family="Helvetica,sans-Serif" font-size="10.00"> T, typename &gt;</text>
</a>
</g>
</g>
<!-- Node0&#45;&gt;Node1 -->
<g id="edge68_Node000000_Node000001" class="edge">
<title>Node0&#45;&gt;Node1</title>
<g id="a_edge68_Node000000_Node000001"><a xlink:title=" ">
<path fill="none" stroke="#63b8ff" d="M86.37,-214.14C101.88,-251.71 136.38,-323.17 188,-363.5 197.3,-370.76 208.45,-376.32 219.67,-380.54"/>
<polygon fill="#63b8ff" stroke="#63b8ff" points="89.48,-212.48 82.5,-204.5 82.98,-215.09 89.48,-212.48"/>
</a>
</g>
</g>
<!-- Node2 -->
<g id="Node000002" class="node">
<title>Node2</title>
<g id="a_Node000002"><a xlink:href="d6/dcd/structutility_1_1argument_1_1HasContainerTraits_3_01T_00_01std_1_1void__t_3_01typename_01T_1_1va43307f845ad1eb60ba691c2838cb618d.html" target="_top" xlink:title="Confirm container traits. Value is true.">
<polygon fill="white" stroke="#666666" points="354.5,-354.5 202.5,-354.5 202.5,-258.5 354.5,-258.5 354.5,-354.5"/>
<text text-anchor="start" x="210.5" y="-342.5" font-family="Helvetica,sans-Serif" font-size="10.00">utility::argument::</text>
<text text-anchor="start" x="210.5" y="-331.5" font-family="Helvetica,sans-Serif" font-size="10.00">HasContainerTraits&lt;</text>
<text text-anchor="start" x="210.5" y="-320.5" font-family="Helvetica,sans-Serif" font-size="10.00"> T, std::void_t&lt; typename</text>
<text text-anchor="start" x="210.5" y="-309.5" font-family="Helvetica,sans-Serif" font-size="10.00"> T::value_type, decltype</text>
<text text-anchor="start" x="210.5" y="-298.5" font-family="Helvetica,sans-Serif" font-size="10.00">(std::declval&lt; T &gt;().begin</text>
<text text-anchor="start" x="210.5" y="-287.5" font-family="Helvetica,sans-Serif" font-size="10.00">()), decltype(std::declval</text>
<text text-anchor="start" x="210.5" y="-276.5" font-family="Helvetica,sans-Serif" font-size="10.00">&lt; T &gt;().end()), decltype(std</text>
<text text-anchor="middle" x="278.5" y="-265.5" font-family="Helvetica,sans-Serif" font-size="10.00">::declval&lt; T &gt;().size())&gt; &gt;</text>
</a>
</g>
</g>
<!-- Node0&#45;&gt;Node2 -->
<g id="edge69_Node000000_Node000002" class="edge">
<title>Node0&#45;&gt;Node2</title>
<g id="a_edge69_Node000000_Node000002"><a xlink:title=" ">
<path fill="none" stroke="#63b8ff" d="M111.51,-209.64C136.41,-224.17 170.99,-244.34 202.14,-262.52"/>
<polygon fill="#63b8ff" stroke="#63b8ff" points="113.2,-206.57 102.8,-204.56 109.67,-212.62 113.2,-206.57"/>
</a>
</g>
</g>
<!-- Node3 -->
<g id="Node000003" class="node">
<title>Node3</title>
<g id="a_Node000003"><a xlink:href="d4/d8d/structutility_1_1argument_1_1HasContainerTraits_3_01std_1_1string_01_4.html" target="_top" xlink:title="Confirm container traits (std::string). Value is false.">
<polygon fill="white" stroke="#666666" points="337,-240 220,-240 220,-199 337,-199 337,-240"/>
<text text-anchor="start" x="228" y="-228" font-family="Helvetica,sans-Serif" font-size="10.00">utility::argument::</text>
<text text-anchor="start" x="228" y="-217" font-family="Helvetica,sans-Serif" font-size="10.00">HasContainerTraits&lt;</text>
<text text-anchor="middle" x="278.5" y="-206" font-family="Helvetica,sans-Serif" font-size="10.00"> std::string &gt;</text>
</a>
</g>
</g>
<!-- Node0&#45;&gt;Node3 -->
<g id="edge70_Node000000_Node000003" class="edge">
<title>Node0&#45;&gt;Node3</title>
<g id="a_edge70_Node000000_Node000003"><a xlink:title=" ">
<path fill="none" stroke="#63b8ff" d="M162.28,-202.26C181.65,-205.16 201.79,-208.17 219.71,-210.85"/>
<polygon fill="#63b8ff" stroke="#63b8ff" points="162.64,-198.77 152.23,-200.76 161.6,-205.7 162.64,-198.77"/>
</a>
</g>
</g>
<!-- Node4 -->
<g id="Node000004" class="node">
<title>Node4</title>
<g id="a_Node000004"><a xlink:href="de/d51/structutility_1_1argument_1_1HasContainerTraits_3_01std_1_1string__view_01_4.html" target="_top" xlink:title="Confirm container traits (std::string_view). Value is false.">
<polygon fill="white" stroke="#666666" points="337,-181 220,-181 220,-140 337,-140 337,-181"/>
<text text-anchor="start" x="228" y="-169" font-family="Helvetica,sans-Serif" font-size="10.00">utility::argument::</text>
<text text-anchor="start" x="228" y="-158" font-family="Helvetica,sans-Serif" font-size="10.00">HasContainerTraits&lt;</text>
<text text-anchor="middle" x="278.5" y="-147" font-family="Helvetica,sans-Serif" font-size="10.00"> std::string_view &gt;</text>
</a>
</g>
</g>
<!-- Node0&#45;&gt;Node4 -->
<g id="edge71_Node000000_Node000004" class="edge">
<title>Node0&#45;&gt;Node4</title>
<g id="a_edge71_Node000000_Node000004"><a xlink:title=" ">
<path fill="none" stroke="#63b8ff" d="M162.28,-177.17C181.65,-174.36 201.79,-171.45 219.71,-168.86"/>
<polygon fill="#63b8ff" stroke="#63b8ff" points="161.63,-173.72 152.23,-178.62 162.63,-180.65 161.63,-173.72"/>
</a>
</g>
</g>
<!-- Node5 -->
<g id="Node000005" class="node">
<title>Node5</title>
<g id="a_Node000005"><a xlink:href="d5/d5c/structutility_1_1argument_1_1HasStreamableTraits.html" target="_top" xlink:title="Confirm streamable traits. Value is false.">
<polygon fill="white" stroke="#666666" points="337.5,-122 219.5,-122 219.5,-81 337.5,-81 337.5,-122"/>
<text text-anchor="start" x="227.5" y="-110" font-family="Helvetica,sans-Serif" font-size="10.00">utility::argument::</text>
<text text-anchor="start" x="227.5" y="-99" font-family="Helvetica,sans-Serif" font-size="10.00">HasStreamableTraits</text>
<text text-anchor="middle" x="278.5" y="-88" font-family="Helvetica,sans-Serif" font-size="10.00">&lt; T, typename &gt;</text>
</a>
</g>
</g>
<!-- Node0&#45;&gt;Node5 -->
<g id="edge72_Node000000_Node000005" class="edge">
<title>Node0&#45;&gt;Node5</title>
<g id="a_edge72_Node000000_Node000005"><a xlink:title=" ">
<path fill="none" stroke="#63b8ff" d="M111.68,-169.57C133.23,-157.64 161.74,-142.68 188,-131.5 197.95,-127.26 208.72,-123.22 219.22,-119.55"/>
<polygon fill="#63b8ff" stroke="#63b8ff" points="109.92,-166.54 102.9,-174.47 113.33,-172.65 109.92,-166.54"/>
</a>
</g>
</g>
<!-- Node6 -->
<g id="Node000006" class="node">
<title>Node6</title>
<g id="a_Node000006"><a xlink:href="dc/d95/structutility_1_1argument_1_1HasStreamableTraits_3_01T_00_01std_1_1void__t_3_01decltype_07std_1_ec1a26e692565d70096271814c5a2357.html" target="_top" xlink:title="Confirm streamable traits. Value is true.">
<polygon fill="white" stroke="#666666" points="369,-63 188,-63 188,0 369,0 369,-63"/>
<text text-anchor="start" x="196" y="-51" font-family="Helvetica,sans-Serif" font-size="10.00">utility::argument::</text>
<text text-anchor="start" x="196" y="-40" font-family="Helvetica,sans-Serif" font-size="10.00">HasStreamableTraits</text>
<text text-anchor="start" x="196" y="-29" font-family="Helvetica,sans-Serif" font-size="10.00">&lt; T, std::void_t&lt; decltype</text>
<text text-anchor="start" x="196" y="-18" font-family="Helvetica,sans-Serif" font-size="10.00">(std::declval&lt; std::ostream</text>
<text text-anchor="middle" x="278.5" y="-7" font-family="Helvetica,sans-Serif" font-size="10.00"> &amp; &gt;()&lt;&lt; std::declval&lt; T &gt;())&gt; &gt;</text>
</a>
</g>
</g>
<!-- Node0&#45;&gt;Node6 -->
<g id="edge73_Node000000_Node000006" class="edge">
<title>Node0&#45;&gt;Node6</title>
<g id="a_edge73_Node000000_Node000006"><a xlink:title=" ">
<path fill="none" stroke="#63b8ff" d="M94.41,-166.41C114.65,-140.81 150.14,-99.56 188,-72.5 192.59,-69.22 197.48,-66.1 202.52,-63.17"/>
<polygon fill="#63b8ff" stroke="#63b8ff" points="91.54,-164.4 88.15,-174.44 97.06,-168.7 91.54,-164.4"/>
</a>
</g>
</g>
</g>
</svg>
