<?xml version="1.0" encoding="UTF-8" standalone="no"?>
<!DOCTYPE svg PUBLIC "-//W3C//DTD SVG 1.1//EN"
 "http://www.w3.org/Graphics/SVG/1.1/DTD/svg11.dtd">
<!-- Generated by graphviz version 2.43.0 (0)
 -->
<!-- Title: Graphical Class Hierarchy Pages: 1 -->
<svg width="361pt" height="86pt"
 viewBox="0.00 0.00 361.00 86.00" xmlns="http://www.w3.org/2000/svg" xmlns:xlink="http://www.w3.org/1999/xlink">
<g id="graph0" class="graph" transform="scale(1 1) rotate(0) translate(4 82)">
<title>Graphical Class Hierarchy</title>
<!-- Node0 -->
<g id="Node000000" class="node">
<title>Node0</title>
<g id="a_Node000000"><a xlink:href="d5/db0/classdesign__pattern_1_1creational_1_1prototype_1_1Prototype.html" target="_top" xlink:title="The interface for cloning itself.">
<polygon fill="white" stroke="#666666" points="144,-54 0,-54 0,-24 144,-24 144,-54"/>
<text text-anchor="start" x="8" y="-42" font-family="Helvetica,sans-Serif" font-size="10.00">design_pattern::creational</text>
<text text-anchor="middle" x="72" y="-31" font-family="Helvetica,sans-Serif" font-size="10.00">::prototype::Prototype</text>
</a>
</g>
</g>
<!-- Node1 -->
<g id="Node000001" class="node">
<title>Node1</title>
<g id="a_Node000001"><a xlink:href="d5/dde/classdesign__pattern_1_1creational_1_1prototype_1_1ConcretePrototypeA.html" target="_top" xlink:title="The concrete prototype.">
<polygon fill="white" stroke="#666666" points="353,-78 180,-78 180,-48 353,-48 353,-78"/>
<text text-anchor="start" x="188" y="-66" font-family="Helvetica,sans-Serif" font-size="10.00">design_pattern::creational</text>
<text text-anchor="middle" x="266.5" y="-55" font-family="Helvetica,sans-Serif" font-size="10.00">::prototype::ConcretePrototypeA</text>
</a>
</g>
</g>
<!-- Node0&#45;&gt;Node1 -->
<g id="edge43_Node000000_Node000001" class="edge">
<title>Node0&#45;&gt;Node1</title>
<g id="a_edge43_Node000000_Node000001"><a xlink:title=" ">
<path fill="none" stroke="#63b8ff" d="M154.09,-49.11C162.65,-50.18 171.38,-51.27 179.99,-52.34"/>
<polygon fill="#63b8ff" stroke="#63b8ff" points="154.49,-45.63 144.13,-47.87 153.62,-52.58 154.49,-45.63"/>
</a>
</g>
</g>
<!-- Node2 -->
<g id="Node000002" class="node">
<title>Node2</title>
<g id="a_Node000002"><a xlink:href="dd/d0b/classdesign__pattern_1_1creational_1_1prototype_1_1ConcretePrototypeB.html" target="_top" xlink:title="The concrete prototype.">
<polygon fill="white" stroke="#666666" points="353,-30 180,-30 180,0 353,0 353,-30"/>
<text text-anchor="start" x="188" y="-18" font-family="Helvetica,sans-Serif" font-size="10.00">design_pattern::creational</text>
<text text-anchor="middle" x="266.5" y="-7" font-family="Helvetica,sans-Serif" font-size="10.00">::prototype::ConcretePrototypeB</text>
</a>
</g>
</g>
<!-- Node0&#45;&gt;Node2 -->
<g id="edge44_Node000000_Node000002" class="edge">
<title>Node0&#45;&gt;Node2</title>
<g id="a_edge44_Node000000_Node000002"><a xlink:title=" ">
<path fill="none" stroke="#63b8ff" d="M154.09,-28.89C162.65,-27.82 171.38,-26.73 179.99,-25.66"/>
<polygon fill="#63b8ff" stroke="#63b8ff" points="153.62,-25.42 144.13,-30.13 154.49,-32.37 153.62,-25.42"/>
</a>
</g>
</g>
</g>
</svg>
