<?xml version="1.0" encoding="UTF-8" standalone="no"?>
<!DOCTYPE svg PUBLIC "-//W3C//DTD SVG 1.1//EN"
 "http://www.w3.org/Graphics/SVG/1.1/DTD/svg11.dtd">
<!-- Generated by graphviz version 2.43.0 (0)
 -->
<!-- Title: test::tst_num::PrimeTestBase Pages: 1 -->
<svg width="941pt" height="162pt"
 viewBox="0.00 0.00 941.00 161.50" xmlns="http://www.w3.org/2000/svg" xmlns:xlink="http://www.w3.org/1999/xlink">
<g id="graph0" class="graph" transform="scale(1 1) rotate(0) translate(4 157.5)">
<title>test::tst_num::PrimeTestBase</title>
<!-- Node1 -->
<g id="Node000001" class="node">
<title>Node1</title>
<g id="a_Node000001"><a xlink:title="Test base of prime.">
<polygon fill="#999999" stroke="#666666" points="933,-110.5 774,-110.5 774,-91.5 933,-91.5 933,-110.5"/>
<text text-anchor="middle" x="853.5" y="-98.5" font-family="Helvetica,sans-Serif" font-size="10.00">test::tst_num::PrimeTestBase</text>
</a>
</g>
</g>
<!-- Node2 -->
<g id="Node000002" class="node">
<title>Node2</title>
<g id="a_Node000002"><a xlink:title=" ">
<polygon fill="white" stroke="#666666" points="642,-153.5 566,-153.5 566,-134.5 642,-134.5 642,-153.5"/>
<text text-anchor="middle" x="604" y="-141.5" font-family="Helvetica,sans-Serif" font-size="10.00">testing::Test</text>
</a>
</g>
</g>
<!-- Node2&#45;&gt;Node1 -->
<g id="edge1_Node000001_Node000002" class="edge">
<title>Node2&#45;&gt;Node1</title>
<g id="a_edge1_Node000001_Node000002"><a xlink:title=" ">
<path fill="none" stroke="#63b8ff" d="M651.91,-135.85C693.43,-128.64 754.03,-118.11 797.75,-110.51"/>
<polygon fill="#63b8ff" stroke="#63b8ff" points="651.31,-132.4 642.05,-137.56 652.5,-139.3 651.31,-132.4"/>
</a>
</g>
</g>
<!-- Node3 -->
<g id="Node000003" class="node">
<title>Node3</title>
<g id="a_Node000003"><a target="_parent" xlink:href="https://gcc.gnu.org/onlinedocs/gcc-12.3.0/libstdc++/api/a07571.html" xlink:title=" ">
<polygon fill="white" stroke="#666666" points="696,-116 512,-116 512,-86 696,-86 696,-116"/>
<text text-anchor="start" x="520" y="-104" font-family="Helvetica,sans-Serif" font-size="10.00">std::shared_ptr&lt; application</text>
<text text-anchor="middle" x="604" y="-93" font-family="Helvetica,sans-Serif" font-size="10.00">::app_num::prime::TargetBuilder &gt;</text>
</a>
</g>
</g>
<!-- Node3&#45;&gt;Node1 -->
<g id="edge2_Node000001_Node000003" class="edge">
<title>Node3&#45;&gt;Node1</title>
<g id="a_edge2_Node000001_Node000003"><a xlink:title=" ">
<path fill="none" stroke="#9a32cd" stroke-dasharray="5,2" d="M706.36,-101C728.86,-101 752.38,-101 773.81,-101"/>
<polygon fill="#9a32cd" stroke="#9a32cd" points="706.11,-97.5 696.11,-101 706.11,-104.5 706.11,-97.5"/>
</a>
</g>
<text text-anchor="middle" x="735" y="-104" font-family="Helvetica,sans-Serif" font-size="10.00" fill="grey"> builder</text>
</g>
<!-- Node4 -->
<g id="Node000004" class="node">
<title>Node4</title>
<g id="a_Node000004"><a target="_parent" xlink:href="https://gcc.gnu.org/onlinedocs/gcc-12.3.0/libstdc++/api/a07571.html" xlink:title=" ">
<polygon fill="white" stroke="#666666" points="332,-116 182,-116 182,-86 332,-86 332,-116"/>
<text text-anchor="start" x="190" y="-104" font-family="Helvetica,sans-Serif" font-size="10.00">std::shared_ptr&lt; typename</text>
<text text-anchor="middle" x="257" y="-93" font-family="Helvetica,sans-Serif" font-size="10.00"> _Tp &gt;</text>
</a>
</g>
</g>
<!-- Node4&#45;&gt;Node3 -->
<g id="edge3_Node000003_Node000004" class="edge">
<title>Node4&#45;&gt;Node3</title>
<g id="a_edge3_Node000003_Node000004"><a xlink:title=" ">
<path fill="none" stroke="orange" stroke-dasharray="5,2" d="M342.09,-101C393.5,-101 459.27,-101 511.91,-101"/>
<polygon fill="orange" stroke="orange" points="342.01,-97.5 332.01,-101 342.01,-104.5 342.01,-97.5"/>
</a>
</g>
<text text-anchor="start" x="350" y="-115" font-family="Helvetica,sans-Serif" font-size="10.00" fill="grey"> &lt; application::app</text>
<text text-anchor="middle" x="422" y="-104" font-family="Helvetica,sans-Serif" font-size="10.00" fill="grey">_num::prime::TargetBuilder &gt;</text>
</g>
<!-- Node5 -->
<g id="Node000005" class="node">
<title>Node5</title>
<g id="a_Node000005"><a target="_parent" xlink:href="https://gcc.gnu.org/onlinedocs/gcc-12.3.0/libstdc++/api/a08791.html" xlink:title=" ">
<polygon fill="white" stroke="#666666" points="680,-67.5 528,-67.5 528,-48.5 680,-48.5 680,-67.5"/>
<text text-anchor="middle" x="604" y="-55.5" font-family="Helvetica,sans-Serif" font-size="10.00">std::vector&lt; std::uint32_t &gt;</text>
</a>
</g>
</g>
<!-- Node5&#45;&gt;Node1 -->
<g id="edge4_Node000001_Node000005" class="edge">
<title>Node5&#45;&gt;Node1</title>
<g id="a_edge4_Node000001_Node000005"><a xlink:title=" ">
<path fill="none" stroke="#9a32cd" stroke-dasharray="5,2" d="M669.8,-69.26C709.57,-76.17 759.95,-84.92 797.73,-91.48"/>
<polygon fill="#9a32cd" stroke="#9a32cd" points="670.38,-65.81 659.93,-67.54 669.18,-72.7 670.38,-65.81"/>
</a>
</g>
<text text-anchor="middle" x="735" y="-86" font-family="Helvetica,sans-Serif" font-size="10.00" fill="grey"> expCntr</text>
</g>
<!-- Node6 -->
<g id="Node000006" class="node">
<title>Node6</title>
<g id="a_Node000006"><a target="_parent" xlink:href="https://gcc.gnu.org/onlinedocs/gcc-12.3.0/libstdc++/api/a08779.html" xlink:title=" ">
<polygon fill="white" stroke="#666666" points="145,-56.5 0,-56.5 0,-15.5 145,-15.5 145,-56.5"/>
<text text-anchor="start" x="8" y="-44.5" font-family="Helvetica,sans-Serif" font-size="10.00">std::_Vector_base&lt;</text>
<text text-anchor="start" x="8" y="-33.5" font-family="Helvetica,sans-Serif" font-size="10.00"> typename _Tp, typename</text>
<text text-anchor="middle" x="72.5" y="-22.5" font-family="Helvetica,sans-Serif" font-size="10.00"> _Alloc &gt;</text>
</a>
</g>
</g>
<!-- Node6&#45;&gt;Node5 -->
<g id="edge5_Node000005_Node000006" class="edge">
<title>Node6&#45;&gt;Node5</title>
<g id="a_edge5_Node000005_Node000006"><a xlink:title=" ">
<path fill="none" stroke="darkgreen" d="M155.35,-39.67C157.93,-39.78 160.48,-39.89 163,-40 291.13,-45.48 440.27,-51.51 527.87,-55.01"/>
<polygon fill="darkgreen" stroke="darkgreen" points="155.45,-36.17 145.31,-39.23 155.15,-43.17 155.45,-36.17"/>
</a>
</g>
</g>
<!-- Node7 -->
<g id="Node000007" class="node">
<title>Node7</title>
<g id="a_Node000007"><a target="_parent" xlink:href="https://gcc.gnu.org/onlinedocs/gcc-12.3.0/libstdc++/api/a08791.html" xlink:title=" ">
<polygon fill="white" stroke="#666666" points="325,-30 189,-30 189,0 325,0 325,-30"/>
<text text-anchor="start" x="197" y="-18" font-family="Helvetica,sans-Serif" font-size="10.00">std::vector&lt; typename</text>
<text text-anchor="middle" x="257" y="-7" font-family="Helvetica,sans-Serif" font-size="10.00"> _Tp, typename _Alloc &gt;</text>
</a>
</g>
</g>
<!-- Node6&#45;&gt;Node7 -->
<g id="edge7_Node000007_Node000006" class="edge">
<title>Node6&#45;&gt;Node7</title>
<g id="a_edge7_Node000007_Node000006"><a xlink:title=" ">
<path fill="none" stroke="darkgreen" d="M155.31,-26.59C166.5,-25.3 177.88,-23.99 188.77,-22.74"/>
<polygon fill="darkgreen" stroke="darkgreen" points="154.64,-23.14 145.11,-27.76 155.44,-30.09 154.64,-23.14"/>
</a>
</g>
</g>
<!-- Node7&#45;&gt;Node5 -->
<g id="edge6_Node000005_Node000007" class="edge">
<title>Node7&#45;&gt;Node5</title>
<g id="a_edge6_Node000005_Node000007"><a xlink:title=" ">
<path fill="none" stroke="orange" stroke-dasharray="5,2" d="M335.43,-17.99C381.65,-20.5 441.41,-25.01 494,-33 518.76,-36.76 546.25,-43.08 567.42,-48.42"/>
<polygon fill="orange" stroke="orange" points="335.36,-14.48 325.19,-17.45 334.99,-21.47 335.36,-14.48"/>
</a>
</g>
<text text-anchor="middle" x="422" y="-36" font-family="Helvetica,sans-Serif" font-size="10.00" fill="grey"> &lt; std::uint32_t &gt;</text>
</g>
</g>
</svg>
