<?xml version="1.0" encoding="UTF-8" standalone="no"?>
<!DOCTYPE svg PUBLIC "-//W3C//DTD SVG 1.1//EN"
 "http://www.w3.org/Graphics/SVG/1.1/DTD/svg11.dtd">
<!-- Generated by graphviz version 2.43.0 (0)
 -->
<!-- Title: design_pattern::creational::builder::ConcreteBuilderY Pages: 1 -->
<svg width="154pt" height="182pt"
 viewBox="0.00 0.00 154.00 182.00" xmlns="http://www.w3.org/2000/svg" xmlns:xlink="http://www.w3.org/1999/xlink">
<g id="graph0" class="graph" transform="scale(1 1) rotate(0) translate(4 178)">
<title>design_pattern::creational::builder::ConcreteBuilderY</title>
<!-- Node1 -->
<g id="Node000001" class="node">
<title>Node1</title>
<g id="a_Node000001"><a xlink:title="The concrete builder.">
<polygon fill="#999999" stroke="#666666" points="146,-30 0,-30 0,0 146,0 146,-30"/>
<text text-anchor="start" x="8" y="-18" font-family="Helvetica,sans-Serif" font-size="10.00">design_pattern::creational</text>
<text text-anchor="middle" x="73" y="-7" font-family="Helvetica,sans-Serif" font-size="10.00">::builder::ConcreteBuilderY</text>
</a>
</g>
</g>
<!-- Node2 -->
<g id="Node000002" class="node">
<title>Node2</title>
<g id="a_Node000002"><a xlink:href="../../d0/d6a/classdesign__pattern_1_1creational_1_1builder_1_1Builder.html" target="_top" xlink:title="The builder for creating products.">
<polygon fill="white" stroke="#666666" points="145,-97 1,-97 1,-67 145,-67 145,-97"/>
<text text-anchor="start" x="9" y="-85" font-family="Helvetica,sans-Serif" font-size="10.00">design_pattern::creational</text>
<text text-anchor="middle" x="73" y="-74" font-family="Helvetica,sans-Serif" font-size="10.00">::builder::Builder</text>
</a>
</g>
</g>
<!-- Node2&#45;&gt;Node1 -->
<g id="edge1_Node000001_Node000002" class="edge">
<title>Node2&#45;&gt;Node1</title>
<g id="a_edge1_Node000001_Node000002"><a xlink:title=" ">
<path fill="none" stroke="#63b8ff" d="M73,-56.61C73,-47.65 73,-37.82 73,-30.08"/>
<polygon fill="#63b8ff" stroke="#63b8ff" points="69.5,-56.9 73,-66.9 76.5,-56.9 69.5,-56.9"/>
</a>
</g>
</g>
<!-- Node3 -->
<g id="Node000003" class="node">
<title>Node3</title>
<g id="a_Node000003"><a xlink:href="../../d9/dad/classdesign__pattern_1_1creational_1_1builder_1_1Product.html" target="_top" xlink:title="Product properties.">
<polygon fill="white" stroke="#666666" points="145,-174 1,-174 1,-144 145,-144 145,-174"/>
<text text-anchor="start" x="9" y="-162" font-family="Helvetica,sans-Serif" font-size="10.00">design_pattern::creational</text>
<text text-anchor="middle" x="73" y="-151" font-family="Helvetica,sans-Serif" font-size="10.00">::builder::Product</text>
</a>
</g>
</g>
<!-- Node3&#45;&gt;Node2 -->
<g id="edge2_Node000002_Node000003" class="edge">
<title>Node3&#45;&gt;Node2</title>
<g id="a_edge2_Node000002_Node000003"><a xlink:title=" ">
<path fill="none" stroke="#9a32cd" stroke-dasharray="5,2" d="M73,-133.54C73,-121.45 73,-107.29 73,-97.04"/>
<polygon fill="#9a32cd" stroke="#9a32cd" points="69.5,-133.89 73,-143.89 76.5,-133.89 69.5,-133.89"/>
</a>
</g>
<text text-anchor="middle" x="93" y="-118" font-family="Helvetica,sans-Serif" font-size="10.00" fill="grey"> product</text>
</g>
</g>
</svg>
