<?xml version="1.0" encoding="UTF-8" standalone="no"?>
<!DOCTYPE svg PUBLIC "-//W3C//DTD SVG 1.1//EN"
 "http://www.w3.org/Graphics/SVG/1.1/DTD/svg11.dtd">
<!-- Generated by graphviz version 2.43.0 (0)
 -->
<!-- Title: algorithm::optimal::Optimal Pages: 1 -->
<svg width="258pt" height="182pt"
 viewBox="0.00 0.00 258.00 182.00" xmlns="http://www.w3.org/2000/svg" xmlns:xlink="http://www.w3.org/1999/xlink">
<g id="graph0" class="graph" transform="scale(1 1) rotate(0) translate(4 178)">
<title>algorithm::optimal::Optimal</title>
<!-- Node1 -->
<g id="Node000001" class="node">
<title>Node1</title>
<g id="a_Node000001"><a xlink:title="Optimal methods.">
<polygon fill="#999999" stroke="#666666" points="107,-102 0,-102 0,-72 107,-72 107,-102"/>
<text text-anchor="start" x="8" y="-90" font-family="Helvetica,sans-Serif" font-size="10.00">algorithm::optimal</text>
<text text-anchor="middle" x="53.5" y="-79" font-family="Helvetica,sans-Serif" font-size="10.00">::Optimal</text>
</a>
</g>
</g>
<!-- Node2 -->
<g id="Node000002" class="node">
<title>Node2</title>
<g id="a_Node000002"><a xlink:href="../../d5/dbe/classalgorithm_1_1optimal_1_1Annealing.html" target="_top" xlink:title="Simulated annealing.">
<polygon fill="white" stroke="#666666" points="250,-174 143,-174 143,-144 250,-144 250,-174"/>
<text text-anchor="start" x="151" y="-162" font-family="Helvetica,sans-Serif" font-size="10.00">algorithm::optimal</text>
<text text-anchor="middle" x="196.5" y="-151" font-family="Helvetica,sans-Serif" font-size="10.00">::Annealing</text>
</a>
</g>
</g>
<!-- Node1&#45;&gt;Node2 -->
<g id="edge1_Node000001_Node000002" class="edge">
<title>Node1&#45;&gt;Node2</title>
<g id="a_edge1_Node000001_Node000002"><a xlink:title=" ">
<path fill="none" stroke="#63b8ff" d="M90.37,-107.18C106.35,-115.98 125.48,-126.26 143,-135 149.01,-138 155.47,-141.07 161.73,-143.97"/>
<polygon fill="#63b8ff" stroke="#63b8ff" points="91.81,-103.97 81.36,-102.19 88.42,-110.09 91.81,-103.97"/>
</a>
</g>
</g>
<!-- Node3 -->
<g id="Node000003" class="node">
<title>Node3</title>
<g id="a_Node000003"><a xlink:href="../../db/df4/classalgorithm_1_1optimal_1_1Genetic.html" target="_top" xlink:title="Genetic.">
<polygon fill="white" stroke="#666666" points="250,-126 143,-126 143,-96 250,-96 250,-126"/>
<text text-anchor="start" x="151" y="-114" font-family="Helvetica,sans-Serif" font-size="10.00">algorithm::optimal</text>
<text text-anchor="middle" x="196.5" y="-103" font-family="Helvetica,sans-Serif" font-size="10.00">::Genetic</text>
</a>
</g>
</g>
<!-- Node1&#45;&gt;Node3 -->
<g id="edge2_Node000001_Node000003" class="edge">
<title>Node1&#45;&gt;Node3</title>
<g id="a_edge2_Node000001_Node000003"><a xlink:title=" ">
<path fill="none" stroke="#63b8ff" d="M117.05,-97.65C125.7,-99.12 134.51,-100.62 142.95,-102.06"/>
<polygon fill="#63b8ff" stroke="#63b8ff" points="117.45,-94.16 107,-95.94 116.27,-101.07 117.45,-94.16"/>
</a>
</g>
</g>
<!-- Node4 -->
<g id="Node000004" class="node">
<title>Node4</title>
<g id="a_Node000004"><a xlink:href="../../d9/df0/classalgorithm_1_1optimal_1_1Gradient.html" target="_top" xlink:title="Gradient descent.">
<polygon fill="white" stroke="#666666" points="250,-78 143,-78 143,-48 250,-48 250,-78"/>
<text text-anchor="start" x="151" y="-66" font-family="Helvetica,sans-Serif" font-size="10.00">algorithm::optimal</text>
<text text-anchor="middle" x="196.5" y="-55" font-family="Helvetica,sans-Serif" font-size="10.00">::Gradient</text>
</a>
</g>
</g>
<!-- Node1&#45;&gt;Node4 -->
<g id="edge3_Node000001_Node000004" class="edge">
<title>Node1&#45;&gt;Node4</title>
<g id="a_edge3_Node000001_Node000004"><a xlink:title=" ">
<path fill="none" stroke="#63b8ff" d="M117.05,-76.35C125.7,-74.88 134.51,-73.38 142.95,-71.94"/>
<polygon fill="#63b8ff" stroke="#63b8ff" points="116.27,-72.93 107,-78.06 117.45,-79.84 116.27,-72.93"/>
</a>
</g>
</g>
<!-- Node5 -->
<g id="Node000005" class="node">
<title>Node5</title>
<g id="a_Node000005"><a xlink:href="../../db/dd6/classalgorithm_1_1optimal_1_1Particle.html" target="_top" xlink:title="Particle swarm.">
<polygon fill="white" stroke="#666666" points="250,-30 143,-30 143,0 250,0 250,-30"/>
<text text-anchor="start" x="151" y="-18" font-family="Helvetica,sans-Serif" font-size="10.00">algorithm::optimal</text>
<text text-anchor="middle" x="196.5" y="-7" font-family="Helvetica,sans-Serif" font-size="10.00">::Particle</text>
</a>
</g>
</g>
<!-- Node1&#45;&gt;Node5 -->
<g id="edge4_Node000001_Node000005" class="edge">
<title>Node1&#45;&gt;Node5</title>
<g id="a_edge4_Node000001_Node000005"><a xlink:title=" ">
<path fill="none" stroke="#63b8ff" d="M90.37,-66.82C106.35,-58.02 125.48,-47.74 143,-39 149.01,-36 155.47,-32.93 161.73,-30.03"/>
<polygon fill="#63b8ff" stroke="#63b8ff" points="88.42,-63.91 81.36,-71.81 91.81,-70.03 88.42,-63.91"/>
</a>
</g>
</g>
</g>
</svg>
