<?xml version="1.0" encoding="UTF-8" standalone="no"?>
<!DOCTYPE svg PUBLIC "-//W3C//DTD SVG 1.1//EN"
 "http://www.w3.org/Graphics/SVG/1.1/DTD/svg11.dtd">
<!-- Generated by graphviz version 2.43.0 (0)
 -->
<!-- Title: design_pattern::behavioral::memento::CareTaker Pages: 1 -->
<svg width="932pt" height="141pt"
 viewBox="0.00 0.00 932.00 141.00" xmlns="http://www.w3.org/2000/svg" xmlns:xlink="http://www.w3.org/1999/xlink">
<g id="graph0" class="graph" transform="scale(1 1) rotate(0) translate(4 137)">
<title>design_pattern::behavioral::memento::CareTaker</title>
<!-- Node1 -->
<g id="Node000001" class="node">
<title>Node1</title>
<g id="a_Node000001"><a xlink:title="Safeguard memento.">
<polygon fill="#999999" stroke="#666666" points="924,-96 777,-96 777,-66 924,-66 924,-96"/>
<text text-anchor="start" x="785" y="-84" font-family="Helvetica,sans-Serif" font-size="10.00">design_pattern::behavioral</text>
<text text-anchor="middle" x="850.5" y="-73" font-family="Helvetica,sans-Serif" font-size="10.00">::memento::CareTaker</text>
</a>
</g>
</g>
<!-- Node2 -->
<g id="Node000002" class="node">
<title>Node2</title>
<g id="a_Node000002"><a target="_parent" xlink:href="https://gcc.gnu.org/onlinedocs/gcc-12.3.0/libstdc++/api/a07571.html" xlink:title=" ">
<polygon fill="white" stroke="#666666" points="668,-131.5 535,-131.5 535,-90.5 668,-90.5 668,-131.5"/>
<text text-anchor="start" x="543" y="-119.5" font-family="Helvetica,sans-Serif" font-size="10.00">std::shared_ptr&lt; design</text>
<text text-anchor="start" x="543" y="-108.5" font-family="Helvetica,sans-Serif" font-size="10.00">_pattern::behavioral::</text>
<text text-anchor="middle" x="601.5" y="-97.5" font-family="Helvetica,sans-Serif" font-size="10.00">memento::Originator &gt;</text>
</a>
</g>
</g>
<!-- Node2&#45;&gt;Node1 -->
<g id="edge1_Node000001_Node000002" class="edge">
<title>Node2&#45;&gt;Node1</title>
<g id="a_edge1_Node000001_Node000002"><a xlink:title=" ">
<path fill="none" stroke="#9a32cd" stroke-dasharray="5,2" d="M678.04,-101.83C709.39,-98.02 745.62,-93.62 776.68,-89.84"/>
<polygon fill="#9a32cd" stroke="#9a32cd" points="677.55,-98.36 668.04,-103.04 678.39,-105.31 677.55,-98.36"/>
</a>
</g>
<text text-anchor="middle" x="733.5" y="-100" font-family="Helvetica,sans-Serif" font-size="10.00" fill="grey"> originator</text>
</g>
<!-- Node3 -->
<g id="Node000003" class="node">
<title>Node3</title>
<g id="a_Node000003"><a target="_parent" xlink:href="https://gcc.gnu.org/onlinedocs/gcc-12.3.0/libstdc++/api/a07571.html" xlink:title=" ">
<polygon fill="white" stroke="#666666" points="332,-126 182,-126 182,-96 332,-96 332,-126"/>
<text text-anchor="start" x="190" y="-114" font-family="Helvetica,sans-Serif" font-size="10.00">std::shared_ptr&lt; typename</text>
<text text-anchor="middle" x="257" y="-103" font-family="Helvetica,sans-Serif" font-size="10.00"> _Tp &gt;</text>
</a>
</g>
</g>
<!-- Node3&#45;&gt;Node2 -->
<g id="edge2_Node000002_Node000003" class="edge">
<title>Node3&#45;&gt;Node2</title>
<g id="a_edge2_Node000002_Node000003"><a xlink:title=" ">
<path fill="none" stroke="orange" stroke-dasharray="5,2" d="M342.43,-111C401.87,-111 480.27,-111 535,-111"/>
<polygon fill="orange" stroke="orange" points="342.32,-107.5 332.32,-111 342.32,-114.5 342.32,-107.5"/>
</a>
</g>
<text text-anchor="start" x="350" y="-125" font-family="Helvetica,sans-Serif" font-size="10.00" fill="grey"> &lt; design_pattern::behavioral</text>
<text text-anchor="middle" x="422.5" y="-114" font-family="Helvetica,sans-Serif" font-size="10.00" fill="grey">::memento::Originator &gt;</text>
</g>
<!-- Node4 -->
<g id="Node000004" class="node">
<title>Node4</title>
<g id="a_Node000004"><a target="_parent" xlink:href="https://gcc.gnu.org/onlinedocs/gcc-12.3.0/libstdc++/api/a08791.html" xlink:title=" ">
<polygon fill="white" stroke="#666666" points="690,-72.5 513,-72.5 513,-31.5 690,-31.5 690,-72.5"/>
<text text-anchor="start" x="521" y="-60.5" font-family="Helvetica,sans-Serif" font-size="10.00">std::vector&lt; std::shared</text>
<text text-anchor="start" x="521" y="-49.5" font-family="Helvetica,sans-Serif" font-size="10.00">_ptr&lt; design_pattern::behavioral</text>
<text text-anchor="middle" x="601.5" y="-38.5" font-family="Helvetica,sans-Serif" font-size="10.00">::memento::Memento &gt; &gt;</text>
</a>
</g>
</g>
<!-- Node4&#45;&gt;Node1 -->
<g id="edge3_Node000001_Node000004" class="edge">
<title>Node4&#45;&gt;Node1</title>
<g id="a_edge3_Node000001_Node000004"><a xlink:title=" ">
<path fill="none" stroke="#9a32cd" stroke-dasharray="5,2" d="M700.33,-63.49C725.78,-66.47 752.76,-69.64 776.68,-72.45"/>
<polygon fill="#9a32cd" stroke="#9a32cd" points="700.62,-60 690.28,-62.31 699.8,-66.95 700.62,-60"/>
</a>
</g>
<text text-anchor="middle" x="733.5" y="-72" font-family="Helvetica,sans-Serif" font-size="10.00" fill="grey"> history</text>
</g>
<!-- Node5 -->
<g id="Node000005" class="node">
<title>Node5</title>
<g id="a_Node000005"><a target="_parent" xlink:href="https://gcc.gnu.org/onlinedocs/gcc-12.3.0/libstdc++/api/a08779.html" xlink:title=" ">
<polygon fill="white" stroke="#666666" points="145,-58.5 0,-58.5 0,-17.5 145,-17.5 145,-58.5"/>
<text text-anchor="start" x="8" y="-46.5" font-family="Helvetica,sans-Serif" font-size="10.00">std::_Vector_base&lt;</text>
<text text-anchor="start" x="8" y="-35.5" font-family="Helvetica,sans-Serif" font-size="10.00"> typename _Tp, typename</text>
<text text-anchor="middle" x="72.5" y="-24.5" font-family="Helvetica,sans-Serif" font-size="10.00"> _Alloc &gt;</text>
</a>
</g>
</g>
<!-- Node5&#45;&gt;Node4 -->
<g id="edge4_Node000004_Node000005" class="edge">
<title>Node5&#45;&gt;Node4</title>
<g id="a_edge4_Node000004_Node000005"><a xlink:title=" ">
<path fill="none" stroke="darkgreen" d="M155.16,-40.47C210.21,-42.11 284.47,-44.27 350,-46 404.14,-47.43 464.87,-48.89 512.97,-50.01"/>
<polygon fill="darkgreen" stroke="darkgreen" points="155.21,-36.97 145.11,-40.17 155,-43.97 155.21,-36.97"/>
</a>
</g>
</g>
<!-- Node6 -->
<g id="Node000006" class="node">
<title>Node6</title>
<g id="a_Node000006"><a target="_parent" xlink:href="https://gcc.gnu.org/onlinedocs/gcc-12.3.0/libstdc++/api/a08791.html" xlink:title=" ">
<polygon fill="white" stroke="#666666" points="325,-30 189,-30 189,0 325,0 325,-30"/>
<text text-anchor="start" x="197" y="-18" font-family="Helvetica,sans-Serif" font-size="10.00">std::vector&lt; typename</text>
<text text-anchor="middle" x="257" y="-7" font-family="Helvetica,sans-Serif" font-size="10.00"> _Tp, typename _Alloc &gt;</text>
</a>
</g>
</g>
<!-- Node5&#45;&gt;Node6 -->
<g id="edge6_Node000006_Node000005" class="edge">
<title>Node5&#45;&gt;Node6</title>
<g id="a_edge6_Node000006_Node000005"><a xlink:title=" ">
<path fill="none" stroke="darkgreen" d="M155.31,-27.69C166.5,-26.28 177.88,-24.85 188.77,-23.47"/>
<polygon fill="darkgreen" stroke="darkgreen" points="154.59,-24.25 145.11,-28.98 155.46,-31.2 154.59,-24.25"/>
</a>
</g>
</g>
<!-- Node6&#45;&gt;Node4 -->
<g id="edge5_Node000004_Node000006" class="edge">
<title>Node6&#45;&gt;Node4</title>
<g id="a_edge5_Node000004_Node000006"><a xlink:title=" ">
<path fill="none" stroke="orange" stroke-dasharray="5,2" d="M335.24,-7.19C381.87,-4.24 442.26,-3.56 495,-13 515.57,-16.68 537.37,-24.1 555.79,-31.48"/>
<polygon fill="orange" stroke="orange" points="334.95,-3.7 325.21,-7.87 335.43,-10.69 334.95,-3.7"/>
</a>
</g>
<text text-anchor="start" x="355.5" y="-38" font-family="Helvetica,sans-Serif" font-size="10.00" fill="grey"> &lt; std::shared_ptr&lt;</text>
<text text-anchor="start" x="355.5" y="-27" font-family="Helvetica,sans-Serif" font-size="10.00" fill="grey"> design_pattern::behavioral</text>
<text text-anchor="middle" x="422.5" y="-16" font-family="Helvetica,sans-Serif" font-size="10.00" fill="grey">::memento::Memento &gt; &gt;</text>
</g>
</g>
</svg>
