<?xml version="1.0" encoding="UTF-8" standalone="no"?>
<!DOCTYPE svg PUBLIC "-//W3C//DTD SVG 1.1//EN"
 "http://www.w3.org/Graphics/SVG/1.1/DTD/svg11.dtd">
<!-- Generated by graphviz version 2.43.0 (0)
 -->
<!-- Title: numeric::integral::MonteCarlo Pages: 1 -->
<svg width="719pt" height="155pt"
 viewBox="0.00 0.00 719.00 155.00" xmlns="http://www.w3.org/2000/svg" xmlns:xlink="http://www.w3.org/1999/xlink">
<g id="graph0" class="graph" transform="scale(1 1) rotate(0) translate(4 151)">
<title>numeric::integral::MonteCarlo</title>
<!-- Node1 -->
<g id="Node000001" class="node">
<title>Node1</title>
<g id="a_Node000001"><a xlink:title="The Monte&#45;Carlo method.">
<polygon fill="#999999" stroke="#666666" points="711,-99 605,-99 605,-69 711,-69 711,-99"/>
<text text-anchor="start" x="613" y="-87" font-family="Helvetica,sans-Serif" font-size="10.00">numeric::integral::</text>
<text text-anchor="middle" x="658" y="-76" font-family="Helvetica,sans-Serif" font-size="10.00">MonteCarlo</text>
</a>
</g>
</g>
<!-- Node2 -->
<g id="Node000002" class="node">
<title>Node2</title>
<g id="a_Node000002"><a xlink:href="../../d9/d17/classnumeric_1_1integral_1_1Integral.html" target="_top" xlink:title="Integral methods.">
<polygon fill="white" stroke="#666666" points="528,-147 422,-147 422,-117 528,-117 528,-147"/>
<text text-anchor="start" x="430" y="-135" font-family="Helvetica,sans-Serif" font-size="10.00">numeric::integral::</text>
<text text-anchor="middle" x="475" y="-124" font-family="Helvetica,sans-Serif" font-size="10.00">Integral</text>
</a>
</g>
</g>
<!-- Node2&#45;&gt;Node1 -->
<g id="edge1_Node000001_Node000002" class="edge">
<title>Node2&#45;&gt;Node1</title>
<g id="a_edge1_Node000001_Node000002"><a xlink:title=" ">
<path fill="none" stroke="#63b8ff" d="M538.13,-115.52C559.83,-109.77 583.95,-103.37 604.76,-97.85"/>
<polygon fill="#63b8ff" stroke="#63b8ff" points="537.12,-112.17 528.35,-118.12 538.92,-118.94 537.12,-112.17"/>
</a>
</g>
</g>
<!-- Node3 -->
<g id="Node000003" class="node">
<title>Node3</title>
<g id="a_Node000003"><a xlink:href="../../dc/d59/classnumeric_1_1integral_1_1Expression.html" target="_top" xlink:title="Target expressions.">
<polygon fill="white" stroke="#666666" points="528,-99 422,-99 422,-69 528,-69 528,-99"/>
<text text-anchor="start" x="430" y="-87" font-family="Helvetica,sans-Serif" font-size="10.00">numeric::integral::</text>
<text text-anchor="middle" x="475" y="-76" font-family="Helvetica,sans-Serif" font-size="10.00">Expression</text>
</a>
</g>
</g>
<!-- Node3&#45;&gt;Node1 -->
<g id="edge2_Node000001_Node000003" class="edge">
<title>Node3&#45;&gt;Node1</title>
<g id="a_edge2_Node000001_Node000003"><a xlink:title=" ">
<path fill="none" stroke="#9a32cd" stroke-dasharray="5,2" d="M538.43,-84C560.05,-84 584.05,-84 604.76,-84"/>
<polygon fill="#9a32cd" stroke="#9a32cd" points="538.35,-80.5 528.35,-84 538.35,-87.5 538.35,-80.5"/>
</a>
</g>
<text text-anchor="middle" x="571" y="-87" font-family="Helvetica,sans-Serif" font-size="10.00" fill="grey"> expr</text>
</g>
<!-- Node4 -->
<g id="Node000004" class="node">
<title>Node4</title>
<g id="a_Node000004"><a target="_parent" xlink:href="https://gcc.gnu.org/onlinedocs/gcc-12.3.0/libstdc++/api/a08791.html" xlink:title=" ">
<polygon fill="white" stroke="#666666" points="537,-50.5 413,-50.5 413,-31.5 537,-31.5 537,-50.5"/>
<text text-anchor="middle" x="475" y="-38.5" font-family="Helvetica,sans-Serif" font-size="10.00">std::vector&lt; double &gt;</text>
</a>
</g>
</g>
<!-- Node4&#45;&gt;Node1 -->
<g id="edge3_Node000001_Node000004" class="edge">
<title>Node4&#45;&gt;Node1</title>
<g id="a_edge3_Node000001_Node000004"><a xlink:title=" ">
<path fill="none" stroke="#9a32cd" stroke-dasharray="5,2" d="M526,-52.88C550.54,-58.71 580.09,-65.73 604.9,-71.62"/>
<polygon fill="#9a32cd" stroke="#9a32cd" points="526.71,-49.45 516.17,-50.54 525.09,-56.26 526.71,-49.45"/>
</a>
</g>
<text text-anchor="middle" x="571" y="-69" font-family="Helvetica,sans-Serif" font-size="10.00" fill="grey"> cache</text>
</g>
<!-- Node5 -->
<g id="Node000005" class="node">
<title>Node5</title>
<g id="a_Node000005"><a target="_parent" xlink:href="https://gcc.gnu.org/onlinedocs/gcc-12.3.0/libstdc++/api/a08779.html" xlink:title=" ">
<polygon fill="white" stroke="#666666" points="145,-56.5 0,-56.5 0,-15.5 145,-15.5 145,-56.5"/>
<text text-anchor="start" x="8" y="-44.5" font-family="Helvetica,sans-Serif" font-size="10.00">std::_Vector_base&lt;</text>
<text text-anchor="start" x="8" y="-33.5" font-family="Helvetica,sans-Serif" font-size="10.00"> typename _Tp, typename</text>
<text text-anchor="middle" x="72.5" y="-22.5" font-family="Helvetica,sans-Serif" font-size="10.00"> _Alloc &gt;</text>
</a>
</g>
</g>
<!-- Node5&#45;&gt;Node4 -->
<g id="edge4_Node000004_Node000005" class="edge">
<title>Node5&#45;&gt;Node4</title>
<g id="a_edge4_Node000004_Node000005"><a xlink:title=" ">
<path fill="none" stroke="darkgreen" d="M155.18,-40.01C220.16,-42.72 313.4,-45.55 395,-44 400.76,-43.89 406.76,-43.74 412.76,-43.55"/>
<polygon fill="darkgreen" stroke="darkgreen" points="155.14,-36.5 145,-39.58 154.84,-43.5 155.14,-36.5"/>
</a>
</g>
</g>
<!-- Node6 -->
<g id="Node000006" class="node">
<title>Node6</title>
<g id="a_Node000006"><a target="_parent" xlink:href="https://gcc.gnu.org/onlinedocs/gcc-12.3.0/libstdc++/api/a08791.html" xlink:title=" ">
<polygon fill="white" stroke="#666666" points="318,-30 182,-30 182,0 318,0 318,-30"/>
<text text-anchor="start" x="190" y="-18" font-family="Helvetica,sans-Serif" font-size="10.00">std::vector&lt; typename</text>
<text text-anchor="middle" x="250" y="-7" font-family="Helvetica,sans-Serif" font-size="10.00"> _Tp, typename _Alloc &gt;</text>
</a>
</g>
</g>
<!-- Node5&#45;&gt;Node6 -->
<g id="edge6_Node000006_Node000005" class="edge">
<title>Node5&#45;&gt;Node6</title>
<g id="a_edge6_Node000006_Node000005"><a xlink:title=" ">
<path fill="none" stroke="darkgreen" d="M155.16,-26.23C164.09,-25.16 173.11,-24.08 181.84,-23.04"/>
<polygon fill="darkgreen" stroke="darkgreen" points="154.65,-22.76 145.14,-27.43 155.48,-29.72 154.65,-22.76"/>
</a>
</g>
</g>
<!-- Node6&#45;&gt;Node4 -->
<g id="edge5_Node000004_Node000006" class="edge">
<title>Node6&#45;&gt;Node4</title>
<g id="a_edge5_Node000004_Node000006"><a xlink:title=" ">
<path fill="none" stroke="orange" stroke-dasharray="5,2" d="M328.23,-24C355.83,-27.22 386.54,-30.8 412.63,-33.84"/>
<polygon fill="orange" stroke="orange" points="328.55,-20.52 318.21,-22.84 327.74,-27.47 328.55,-20.52"/>
</a>
</g>
<text text-anchor="middle" x="365.5" y="-35" font-family="Helvetica,sans-Serif" font-size="10.00" fill="grey"> &lt; double &gt;</text>
</g>
</g>
</svg>
