<?xml version="1.0" encoding="UTF-8" standalone="no"?>
<!DOCTYPE svg PUBLIC "-//W3C//DTD SVG 1.1//EN"
 "http://www.w3.org/Graphics/SVG/1.1/DTD/svg11.dtd">
<!-- Generated by graphviz version 2.43.0 (0)
 -->
<!-- Title: design_pattern::behavioral::observer::ConcreteSubject Pages: 1 -->
<svg width="169pt" height="249pt"
 viewBox="0.00 0.00 169.00 249.00" xmlns="http://www.w3.org/2000/svg" xmlns:xlink="http://www.w3.org/1999/xlink">
<g id="graph0" class="graph" transform="scale(1 1) rotate(0) translate(4 245)">
<title>design_pattern::behavioral::observer::ConcreteSubject</title>
<!-- Node1 -->
<g id="Node000001" class="node">
<title>Node1</title>
<g id="a_Node000001"><a xlink:title="The concrete subject.">
<polygon fill="#999999" stroke="#666666" points="156,-30 5,-30 5,0 156,0 156,-30"/>
<text text-anchor="start" x="13" y="-18" font-family="Helvetica,sans-Serif" font-size="10.00">design_pattern::behavioral</text>
<text text-anchor="middle" x="80.5" y="-7" font-family="Helvetica,sans-Serif" font-size="10.00">::observer::ConcreteSubject</text>
</a>
</g>
</g>
<!-- Node2 -->
<g id="Node000002" class="node">
<title>Node2</title>
<g id="a_Node000002"><a xlink:href="../../dc/dc1/classdesign__pattern_1_1behavioral_1_1observer_1_1Subject.html" target="_top" xlink:title="Attach, detach and notify observers.">
<polygon fill="white" stroke="#666666" points="154,-97 7,-97 7,-67 154,-67 154,-97"/>
<text text-anchor="start" x="15" y="-85" font-family="Helvetica,sans-Serif" font-size="10.00">design_pattern::behavioral</text>
<text text-anchor="middle" x="80.5" y="-74" font-family="Helvetica,sans-Serif" font-size="10.00">::observer::Subject</text>
</a>
</g>
</g>
<!-- Node2&#45;&gt;Node1 -->
<g id="edge1_Node000001_Node000002" class="edge">
<title>Node2&#45;&gt;Node1</title>
<g id="a_edge1_Node000001_Node000002"><a xlink:title=" ">
<path fill="none" stroke="#63b8ff" d="M80.5,-56.61C80.5,-47.65 80.5,-37.82 80.5,-30.08"/>
<polygon fill="#63b8ff" stroke="#63b8ff" points="77,-56.9 80.5,-66.9 84,-56.9 77,-56.9"/>
</a>
</g>
</g>
<!-- Node3 -->
<g id="Node000003" class="node">
<title>Node3</title>
<g id="a_Node000003"><a target="_parent" xlink:href="https://gcc.gnu.org/onlinedocs/gcc-12.3.0/libstdc++/api/a07595.html" xlink:title=" ">
<polygon fill="white" stroke="#666666" points="144,-164 17,-164 17,-134 144,-134 144,-164"/>
<text text-anchor="start" x="25" y="-152" font-family="Helvetica,sans-Serif" font-size="10.00">std::enable_shared</text>
<text text-anchor="middle" x="80.5" y="-141" font-family="Helvetica,sans-Serif" font-size="10.00">_from_this&lt; Subject &gt;</text>
</a>
</g>
</g>
<!-- Node3&#45;&gt;Node2 -->
<g id="edge2_Node000002_Node000003" class="edge">
<title>Node3&#45;&gt;Node2</title>
<g id="a_edge2_Node000002_Node000003"><a xlink:title=" ">
<path fill="none" stroke="#63b8ff" d="M80.5,-123.61C80.5,-114.65 80.5,-104.82 80.5,-97.08"/>
<polygon fill="#63b8ff" stroke="#63b8ff" points="77,-123.9 80.5,-133.9 84,-123.9 77,-123.9"/>
</a>
</g>
</g>
<!-- Node4 -->
<g id="Node000004" class="node">
<title>Node4</title>
<g id="a_Node000004"><a target="_parent" xlink:href="https://gcc.gnu.org/onlinedocs/gcc-12.3.0/libstdc++/api/a07595.html" xlink:title=" ">
<polygon fill="white" stroke="#666666" points="161,-241 0,-241 0,-211 161,-211 161,-241"/>
<text text-anchor="start" x="8" y="-229" font-family="Helvetica,sans-Serif" font-size="10.00">std::enable_shared</text>
<text text-anchor="middle" x="80.5" y="-218" font-family="Helvetica,sans-Serif" font-size="10.00">_from_this&lt; typename _Tp &gt;</text>
</a>
</g>
</g>
<!-- Node4&#45;&gt;Node3 -->
<g id="edge3_Node000003_Node000004" class="edge">
<title>Node4&#45;&gt;Node3</title>
<g id="a_edge3_Node000003_Node000004"><a xlink:title=" ">
<path fill="none" stroke="orange" stroke-dasharray="5,2" d="M80.5,-200.54C80.5,-188.45 80.5,-174.29 80.5,-164.04"/>
<polygon fill="orange" stroke="orange" points="77,-200.89 80.5,-210.89 84,-200.89 77,-200.89"/>
</a>
</g>
<text text-anchor="middle" x="111.5" y="-185" font-family="Helvetica,sans-Serif" font-size="10.00" fill="grey"> &lt; Subject &gt;</text>
</g>
</g>
</svg>
