<?xml version="1.0" encoding="UTF-8" standalone="no"?>
<!DOCTYPE svg PUBLIC "-//W3C//DTD SVG 1.1//EN"
 "http://www.w3.org/Graphics/SVG/1.1/DTD/svg11.dtd">
<!-- Generated by graphviz version 2.43.0 (0)
 -->
<!-- Title: numeric::divisor::Divisor::euclidean Pages: 1 -->
<svg width="316pt" height="86pt"
 viewBox="0.00 0.00 316.00 86.00" xmlns="http://www.w3.org/2000/svg" xmlns:xlink="http://www.w3.org/1999/xlink">
<g id="graph0" class="graph" transform="scale(1 1) rotate(0) translate(4 82)">
<title>numeric::divisor::Divisor::euclidean</title>
<!-- Node1 -->
<g id="Node000001" class="node">
<title>Node1</title>
<g id="a_Node000001"><a xlink:title="Euclidean.">
<polygon fill="#999999" stroke="#666666" points="308,-48.5 172,-48.5 172,-18.5 308,-18.5 308,-48.5"/>
<text text-anchor="start" x="180" y="-36.5" font-family="Helvetica,sans-Serif" font-size="10.00">numeric::divisor::Divisor</text>
<text text-anchor="middle" x="240" y="-25.5" font-family="Helvetica,sans-Serif" font-size="10.00">::euclidean</text>
</a>
</g>
</g>
<!-- Node2 -->
<g id="Node000002" class="node">
<title>Node2</title>
<g id="a_Node000002"><a xlink:href="../../da/d79/classapplication_1_1app__num_1_1divisor_1_1DivisorSolution.html#ab122b9adbbd914a249a14349bad4ff25" target="_top" xlink:title="The Euclidean method.">
<polygon fill="white" stroke="#666666" points="136,-78 0,-78 0,-37 136,-37 136,-78"/>
<text text-anchor="start" x="8" y="-66" font-family="Helvetica,sans-Serif" font-size="10.00">application::app_num</text>
<text text-anchor="start" x="8" y="-55" font-family="Helvetica,sans-Serif" font-size="10.00">::divisor::DivisorSolution</text>
<text text-anchor="middle" x="68" y="-44" font-family="Helvetica,sans-Serif" font-size="10.00">::euclideanMethod</text>
</a>
</g>
</g>
<!-- Node1&#45;&gt;Node2 -->
<g id="edge1_Node000001_Node000002" class="edge">
<title>Node1&#45;&gt;Node2</title>
<g id="a_edge1_Node000001_Node000002"><a xlink:title=" ">
<path fill="none" stroke="#63b8ff" d="M161.85,-44.39C153.31,-45.6 144.66,-46.82 136.26,-48"/>
<polygon fill="#63b8ff" stroke="#63b8ff" points="162.4,-47.85 171.81,-42.99 161.42,-40.92 162.4,-47.85"/>
</a>
</g>
</g>
<!-- Node3 -->
<g id="Node000003" class="node">
<title>Node3</title>
<g id="a_Node000003"><a xlink:href="../../da/df6/namespacetest_1_1tst__num.html#a4a37419be7ce007738df31cae4fc08f0" target="_top" xlink:title="Test for the Euclidean method in the solution of divisor.">
<polygon fill="white" stroke="#666666" points="129,-19 7,-19 7,0 129,0 129,-19"/>
<text text-anchor="middle" x="68" y="-7" font-family="Helvetica,sans-Serif" font-size="10.00">test::tst_num::TEST_F</text>
</a>
</g>
</g>
<!-- Node1&#45;&gt;Node3 -->
<g id="edge2_Node000001_Node000003" class="edge">
<title>Node1&#45;&gt;Node3</title>
<g id="a_edge2_Node000001_Node000003"><a xlink:title=" ">
<path fill="none" stroke="#63b8ff" d="M161.8,-22.6C150.82,-21.05 139.67,-19.48 129.09,-17.98"/>
<polygon fill="#63b8ff" stroke="#63b8ff" points="161.42,-26.08 171.81,-24.01 162.4,-19.15 161.42,-26.08"/>
</a>
</g>
</g>
</g>
</svg>
