<?xml version="1.0" encoding="UTF-8" standalone="no"?>
<!DOCTYPE svg PUBLIC "-//W3C//DTD SVG 1.1//EN"
 "http://www.w3.org/Graphics/SVG/1.1/DTD/svg11.dtd">
<!-- Generated by graphviz version 2.43.0 (0)
 -->
<!-- Title: numeric::divisor::Divisor::steinRecursive Pages: 1 -->
<svg width="488pt" height="86pt"
 viewBox="0.00 0.00 488.00 86.00" xmlns="http://www.w3.org/2000/svg" xmlns:xlink="http://www.w3.org/1999/xlink">
<g id="graph0" class="graph" transform="scale(1 1) rotate(0) translate(4 82)">
<title>numeric::divisor::Divisor::steinRecursive</title>
<!-- Node1 -->
<g id="Node000001" class="node">
<title>Node1</title>
<g id="a_Node000001"><a xlink:title="Recursive for the Stein method.">
<polygon fill="#999999" stroke="#666666" points="480,-48.5 344,-48.5 344,-18.5 480,-18.5 480,-48.5"/>
<text text-anchor="start" x="352" y="-36.5" font-family="Helvetica,sans-Serif" font-size="10.00">numeric::divisor::Divisor</text>
<text text-anchor="middle" x="412" y="-25.5" font-family="Helvetica,sans-Serif" font-size="10.00">::steinRecursive</text>
</a>
</g>
</g>
<!-- Node1&#45;&gt;Node1 -->
<g id="edge4_Node000001_Node000001" class="edge">
<title>Node1&#45;&gt;Node1</title>
<g id="a_edge4_Node000001_Node000001"><a xlink:title=" ">
<path fill="none" stroke="#63b8ff" d="M442.11,-59.1C437.99,-63.47 427.96,-66.5 412,-66.5 385.12,-66.5 375.05,-57.91 381.77,-48.78"/>
<polygon fill="#63b8ff" stroke="#63b8ff" points="445.61,-58.82 442.23,-48.78 438.61,-58.73 445.61,-58.82"/>
</a>
</g>
</g>
<!-- Node2 -->
<g id="Node000002" class="node">
<title>Node2</title>
<g id="a_Node000002"><a xlink:href="../../dc/df7/classnumeric_1_1divisor_1_1Divisor.html#a7ad04bfc5581379af7a203c785d97b37" target="_top" xlink:title="Stein.">
<polygon fill="white" stroke="#666666" points="308,-48.5 172,-48.5 172,-18.5 308,-18.5 308,-48.5"/>
<text text-anchor="start" x="180" y="-36.5" font-family="Helvetica,sans-Serif" font-size="10.00">numeric::divisor::Divisor</text>
<text text-anchor="middle" x="240" y="-25.5" font-family="Helvetica,sans-Serif" font-size="10.00">::stein</text>
</a>
</g>
</g>
<!-- Node1&#45;&gt;Node2 -->
<g id="edge1_Node000001_Node000002" class="edge">
<title>Node1&#45;&gt;Node2</title>
<g id="a_edge1_Node000001_Node000002"><a xlink:title=" ">
<path fill="none" stroke="#63b8ff" d="M333.58,-33.5C325.12,-33.5 316.57,-33.5 308.26,-33.5"/>
<polygon fill="#63b8ff" stroke="#63b8ff" points="333.81,-37 343.81,-33.5 333.81,-30 333.81,-37"/>
</a>
</g>
</g>
<!-- Node3 -->
<g id="Node000003" class="node">
<title>Node3</title>
<g id="a_Node000003"><a xlink:href="../../da/d79/classapplication_1_1app__num_1_1divisor_1_1DivisorSolution.html#ae765bc53c1cbe003a0587ec101ae879a" target="_top" xlink:title="The Stein method.">
<polygon fill="white" stroke="#666666" points="136,-78 0,-78 0,-37 136,-37 136,-78"/>
<text text-anchor="start" x="8" y="-66" font-family="Helvetica,sans-Serif" font-size="10.00">application::app_num</text>
<text text-anchor="start" x="8" y="-55" font-family="Helvetica,sans-Serif" font-size="10.00">::divisor::DivisorSolution</text>
<text text-anchor="middle" x="68" y="-44" font-family="Helvetica,sans-Serif" font-size="10.00">::steinMethod</text>
</a>
</g>
</g>
<!-- Node2&#45;&gt;Node3 -->
<g id="edge2_Node000002_Node000003" class="edge">
<title>Node2&#45;&gt;Node3</title>
<g id="a_edge2_Node000002_Node000003"><a xlink:title=" ">
<path fill="none" stroke="#63b8ff" d="M161.85,-44.39C153.31,-45.6 144.66,-46.82 136.26,-48"/>
<polygon fill="#63b8ff" stroke="#63b8ff" points="162.4,-47.85 171.81,-42.99 161.42,-40.92 162.4,-47.85"/>
</a>
</g>
</g>
<!-- Node4 -->
<g id="Node000004" class="node">
<title>Node4</title>
<g id="a_Node000004"><a xlink:href="../../da/df6/namespacetest_1_1tst__num.html#ae40e6e4d4ca0adde789e9790f6864eab" target="_top" xlink:title="Test for the Stein method in the solution of divisor.">
<polygon fill="white" stroke="#666666" points="129,-19 7,-19 7,0 129,0 129,-19"/>
<text text-anchor="middle" x="68" y="-7" font-family="Helvetica,sans-Serif" font-size="10.00">test::tst_num::TEST_F</text>
</a>
</g>
</g>
<!-- Node2&#45;&gt;Node4 -->
<g id="edge3_Node000002_Node000004" class="edge">
<title>Node2&#45;&gt;Node4</title>
<g id="a_edge3_Node000002_Node000004"><a xlink:title=" ">
<path fill="none" stroke="#63b8ff" d="M161.8,-22.6C150.82,-21.05 139.67,-19.48 129.09,-17.98"/>
<polygon fill="#63b8ff" stroke="#63b8ff" points="161.42,-26.08 171.81,-24.01 162.4,-19.15 161.42,-26.08"/>
</a>
</g>
</g>
</g>
</svg>
