<?xml version="1.0" encoding="UTF-8" standalone="no"?>
<!DOCTYPE svg PUBLIC "-//W3C//DTD SVG 1.1//EN"
 "http://www.w3.org/Graphics/SVG/1.1/DTD/svg11.dtd">
<!-- Generated by graphviz version 2.43.0 (0)
 -->
<!-- Title: numeric::divisor::Divisor::getAllDivisors Pages: 1 -->
<svg width="488pt" height="182pt"
 viewBox="0.00 0.00 488.00 182.00" xmlns="http://www.w3.org/2000/svg" xmlns:xlink="http://www.w3.org/1999/xlink">
<g id="graph0" class="graph" transform="scale(1 1) rotate(0) translate(4 178)">
<title>numeric::divisor::Divisor::getAllDivisors</title>
<!-- Node1 -->
<g id="Node000001" class="node">
<title>Node1</title>
<g id="a_Node000001"><a xlink:title="Get all common divisors by the greatest common divisor.">
<polygon fill="#999999" stroke="#666666" points="480,-96.5 344,-96.5 344,-66.5 480,-66.5 480,-96.5"/>
<text text-anchor="start" x="352" y="-84.5" font-family="Helvetica,sans-Serif" font-size="10.00">numeric::divisor::Divisor</text>
<text text-anchor="middle" x="412" y="-73.5" font-family="Helvetica,sans-Serif" font-size="10.00">::getAllDivisors</text>
</a>
</g>
</g>
<!-- Node2 -->
<g id="Node000002" class="node">
<title>Node2</title>
<g id="a_Node000002"><a xlink:href="../../dc/df7/classnumeric_1_1divisor_1_1Divisor.html#a5402a9771c2ca3b0a0b875d35867000c" target="_top" xlink:title="Euclidean.">
<polygon fill="white" stroke="#666666" points="308,-120.5 172,-120.5 172,-90.5 308,-90.5 308,-120.5"/>
<text text-anchor="start" x="180" y="-108.5" font-family="Helvetica,sans-Serif" font-size="10.00">numeric::divisor::Divisor</text>
<text text-anchor="middle" x="240" y="-97.5" font-family="Helvetica,sans-Serif" font-size="10.00">::euclidean</text>
</a>
</g>
</g>
<!-- Node1&#45;&gt;Node2 -->
<g id="edge1_Node000001_Node000002" class="edge">
<title>Node1&#45;&gt;Node2</title>
<g id="a_edge1_Node000001_Node000002"><a xlink:title=" ">
<path fill="none" stroke="#63b8ff" d="M333.85,-92.39C325.31,-93.6 316.66,-94.82 308.26,-96"/>
<polygon fill="#63b8ff" stroke="#63b8ff" points="334.4,-95.85 343.81,-90.99 333.42,-88.92 334.4,-95.85"/>
</a>
</g>
</g>
<!-- Node5 -->
<g id="Node000005" class="node">
<title>Node5</title>
<g id="a_Node000005"><a xlink:href="../../dc/df7/classnumeric_1_1divisor_1_1Divisor.html#a7ad04bfc5581379af7a203c785d97b37" target="_top" xlink:title="Stein.">
<polygon fill="white" stroke="#666666" points="308,-72.5 172,-72.5 172,-42.5 308,-42.5 308,-72.5"/>
<text text-anchor="start" x="180" y="-60.5" font-family="Helvetica,sans-Serif" font-size="10.00">numeric::divisor::Divisor</text>
<text text-anchor="middle" x="240" y="-49.5" font-family="Helvetica,sans-Serif" font-size="10.00">::stein</text>
</a>
</g>
</g>
<!-- Node1&#45;&gt;Node5 -->
<g id="edge4_Node000001_Node000005" class="edge">
<title>Node1&#45;&gt;Node5</title>
<g id="a_edge4_Node000001_Node000005"><a xlink:title=" ">
<path fill="none" stroke="#63b8ff" d="M333.85,-70.61C325.31,-69.4 316.66,-68.18 308.26,-67"/>
<polygon fill="#63b8ff" stroke="#63b8ff" points="333.42,-74.08 343.81,-72.01 334.4,-67.15 333.42,-74.08"/>
</a>
</g>
</g>
<!-- Node3 -->
<g id="Node000003" class="node">
<title>Node3</title>
<g id="a_Node000003"><a xlink:href="../../da/d79/classapplication_1_1app__num_1_1divisor_1_1DivisorSolution.html#ab122b9adbbd914a249a14349bad4ff25" target="_top" xlink:title="The Euclidean method.">
<polygon fill="white" stroke="#666666" points="136,-174 0,-174 0,-133 136,-133 136,-174"/>
<text text-anchor="start" x="8" y="-162" font-family="Helvetica,sans-Serif" font-size="10.00">application::app_num</text>
<text text-anchor="start" x="8" y="-151" font-family="Helvetica,sans-Serif" font-size="10.00">::divisor::DivisorSolution</text>
<text text-anchor="middle" x="68" y="-140" font-family="Helvetica,sans-Serif" font-size="10.00">::euclideanMethod</text>
</a>
</g>
</g>
<!-- Node2&#45;&gt;Node3 -->
<g id="edge2_Node000002_Node000003" class="edge">
<title>Node2&#45;&gt;Node3</title>
<g id="a_edge2_Node000002_Node000003"><a xlink:title=" ">
<path fill="none" stroke="#63b8ff" d="M175.94,-123.31C162.99,-126.96 149.31,-130.82 136.22,-134.52"/>
<polygon fill="#63b8ff" stroke="#63b8ff" points="177,-126.64 185.68,-120.56 175.1,-119.9 177,-126.64"/>
</a>
</g>
</g>
<!-- Node4 -->
<g id="Node000004" class="node">
<title>Node4</title>
<g id="a_Node000004"><a xlink:href="../../da/df6/namespacetest_1_1tst__num.html#a4a37419be7ce007738df31cae4fc08f0" target="_top" xlink:title="Test for the Euclidean method in the solution of divisor.">
<polygon fill="white" stroke="#666666" points="129,-115 7,-115 7,-96 129,-96 129,-115"/>
<text text-anchor="middle" x="68" y="-103" font-family="Helvetica,sans-Serif" font-size="10.00">test::tst_num::TEST_F</text>
</a>
</g>
</g>
<!-- Node2&#45;&gt;Node4 -->
<g id="edge3_Node000002_Node000004" class="edge">
<title>Node2&#45;&gt;Node4</title>
<g id="a_edge3_Node000002_Node000004"><a xlink:title=" ">
<path fill="none" stroke="#63b8ff" d="M161.8,-105.5C150.82,-105.5 139.67,-105.5 129.09,-105.5"/>
<polygon fill="#63b8ff" stroke="#63b8ff" points="161.81,-109 171.81,-105.5 161.81,-102 161.81,-109"/>
</a>
</g>
</g>
<!-- Node6 -->
<g id="Node000006" class="node">
<title>Node6</title>
<g id="a_Node000006"><a xlink:href="../../da/d79/classapplication_1_1app__num_1_1divisor_1_1DivisorSolution.html#ae765bc53c1cbe003a0587ec101ae879a" target="_top" xlink:title="The Stein method.">
<polygon fill="white" stroke="#666666" points="136,-78 0,-78 0,-37 136,-37 136,-78"/>
<text text-anchor="start" x="8" y="-66" font-family="Helvetica,sans-Serif" font-size="10.00">application::app_num</text>
<text text-anchor="start" x="8" y="-55" font-family="Helvetica,sans-Serif" font-size="10.00">::divisor::DivisorSolution</text>
<text text-anchor="middle" x="68" y="-44" font-family="Helvetica,sans-Serif" font-size="10.00">::steinMethod</text>
</a>
</g>
</g>
<!-- Node5&#45;&gt;Node6 -->
<g id="edge5_Node000005_Node000006" class="edge">
<title>Node5&#45;&gt;Node6</title>
<g id="a_edge5_Node000005_Node000006"><a xlink:title=" ">
<path fill="none" stroke="#63b8ff" d="M161.58,-57.5C153.12,-57.5 144.57,-57.5 136.26,-57.5"/>
<polygon fill="#63b8ff" stroke="#63b8ff" points="161.81,-61 171.81,-57.5 161.81,-54 161.81,-61"/>
</a>
</g>
</g>
<!-- Node7 -->
<g id="Node000007" class="node">
<title>Node7</title>
<g id="a_Node000007"><a xlink:href="../../da/df6/namespacetest_1_1tst__num.html#ae40e6e4d4ca0adde789e9790f6864eab" target="_top" xlink:title="Test for the Stein method in the solution of divisor.">
<polygon fill="white" stroke="#666666" points="129,-19 7,-19 7,0 129,0 129,-19"/>
<text text-anchor="middle" x="68" y="-7" font-family="Helvetica,sans-Serif" font-size="10.00">test::tst_num::TEST_F</text>
</a>
</g>
</g>
<!-- Node5&#45;&gt;Node7 -->
<g id="edge6_Node000005_Node000007" class="edge">
<title>Node5&#45;&gt;Node7</title>
<g id="a_edge6_Node000005_Node000007"><a xlink:title=" ">
<path fill="none" stroke="#63b8ff" d="M175.98,-39.71C151.21,-32.71 123.76,-24.96 102.87,-19.06"/>
<polygon fill="#63b8ff" stroke="#63b8ff" points="175.1,-43.1 185.68,-42.44 177,-36.36 175.1,-43.1"/>
</a>
</g>
</g>
</g>
</svg>
