<?xml version="1.0" encoding="UTF-8" standalone="no"?>
<!DOCTYPE svg PUBLIC "-//W3C//DTD SVG 1.1//EN"
 "http://www.w3.org/Graphics/SVG/1.1/DTD/svg11.dtd">
<!-- Generated by graphviz version 2.43.0 (0)
 -->
<!-- Title: application::log::Log Pages: 1 -->
<svg width="886pt" height="405pt"
 viewBox="0.00 0.00 886.00 404.50" xmlns="http://www.w3.org/2000/svg" xmlns:xlink="http://www.w3.org/1999/xlink">
<g id="graph0" class="graph" transform="scale(1 1) rotate(0) translate(4 400.5)">
<title>application::log::Log</title>
<!-- Node1 -->
<g id="Node000001" class="node">
<title>Node1</title>
<g id="a_Node000001"><a xlink:title="Logger.">
<polygon fill="#999999" stroke="#666666" points="878,-214 763,-214 763,-195 878,-195 878,-214"/>
<text text-anchor="middle" x="820.5" y="-202" font-family="Helvetica,sans-Serif" font-size="10.00">application::log::Log</text>
</a>
</g>
</g>
<!-- Node2 -->
<g id="Node000002" class="node">
<title>Node2</title>
<g id="a_Node000002"><a xlink:href="../../d1/d46/classutility_1_1fsm_1_1FSM.html" target="_top" xlink:title=" ">
<polygon fill="white" stroke="#666666" points="648.5,-311.5 544.5,-311.5 544.5,-281.5 648.5,-281.5 648.5,-311.5"/>
<text text-anchor="start" x="552.5" y="-299.5" font-family="Helvetica,sans-Serif" font-size="10.00">utility::fsm::FSM&lt;</text>
<text text-anchor="middle" x="596.5" y="-288.5" font-family="Helvetica,sans-Serif" font-size="10.00"> Log &gt;</text>
</a>
</g>
</g>
<!-- Node2&#45;&gt;Node1 -->
<g id="edge1_Node000001_Node000002" class="edge">
<title>Node2&#45;&gt;Node1</title>
<g id="a_edge1_Node000001_Node000002"><a xlink:title=" ">
<path fill="none" stroke="#63b8ff" d="M658.51,-278.83C664.78,-276.79 671.04,-274.66 677,-272.5 707.88,-261.29 715.31,-257.57 745,-243.5 764.92,-234.06 787.26,-222.18 802.24,-214.03"/>
<polygon fill="#63b8ff" stroke="#63b8ff" points="657.14,-275.59 648.67,-281.96 659.26,-282.27 657.14,-275.59"/>
</a>
</g>
</g>
<!-- Node3 -->
<g id="Node000003" class="node">
<title>Node3</title>
<g id="a_Node000003"><a target="_parent" xlink:href="https://gcc.gnu.org/onlinedocs/gcc-12.3.0/libstdc++/api/a01975.html" xlink:title=" ">
<polygon fill="white" stroke="#666666" points="115,-346 0,-346 0,-327 115,-327 115,-346"/>
<text text-anchor="middle" x="57.5" y="-334" font-family="Helvetica,sans-Serif" font-size="10.00">std::atomic&lt; bool &gt;</text>
</a>
</g>
</g>
<!-- Node3&#45;&gt;Node1 -->
<g id="edge9_Node000001_Node000003" class="edge">
<title>Node3&#45;&gt;Node1</title>
<g id="a_edge9_Node000001_Node000003"><a xlink:title=" ">
<path fill="none" stroke="#9a32cd" stroke-dasharray="5,2" d="M112.49,-347.96C119.38,-349.25 126.34,-350.47 133,-351.5 169.23,-357.12 178.39,-358.5 215,-360.5 420.79,-371.76 486.9,-400.12 677,-320.5 736.73,-295.48 791.34,-237.2 811.39,-214.14"/>
<polygon fill="#9a32cd" stroke="#9a32cd" points="112.99,-344.49 102.5,-346.04 111.66,-351.37 112.99,-344.49"/>
</a>
</g>
<text text-anchor="middle" x="445" y="-388.5" font-family="Helvetica,sans-Serif" font-size="10.00" fill="grey"> isLogging</text>
<text text-anchor="middle" x="445" y="-377.5" font-family="Helvetica,sans-Serif" font-size="10.00" fill="grey">rollbackRequest</text>
</g>
<!-- Node3&#45;&gt;Node2 -->
<g id="edge2_Node000002_Node000003" class="edge">
<title>Node3&#45;&gt;Node2</title>
<g id="a_edge2_Node000002_Node000003"><a xlink:title=" ">
<path fill="none" stroke="#9a32cd" stroke-dasharray="5,2" d="M101.42,-324.38C132.64,-316.19 176.08,-306.06 215,-301.5 332.13,-287.78 470.91,-290.76 544.2,-293.83"/>
<polygon fill="#9a32cd" stroke="#9a32cd" points="100.5,-321 91.74,-326.96 102.3,-327.77 100.5,-321"/>
</a>
</g>
<text text-anchor="middle" x="294.5" y="-304.5" font-family="Helvetica,sans-Serif" font-size="10.00" fill="grey"> isProcessing</text>
</g>
<!-- Node4 -->
<g id="Node000004" class="node">
<title>Node4</title>
<g id="a_Node000004"><a xlink:href="../../d1/d46/classutility_1_1fsm_1_1FSM.html" target="_top" xlink:title="Finite state machine.">
<polygon fill="white" stroke="#666666" points="346.5,-351.5 242.5,-351.5 242.5,-321.5 346.5,-321.5 346.5,-351.5"/>
<text text-anchor="start" x="250.5" y="-339.5" font-family="Helvetica,sans-Serif" font-size="10.00">utility::fsm::FSM&lt;</text>
<text text-anchor="middle" x="294.5" y="-328.5" font-family="Helvetica,sans-Serif" font-size="10.00"> Derived, State &gt;</text>
</a>
</g>
</g>
<!-- Node3&#45;&gt;Node4 -->
<g id="edge4_Node000004_Node000003" class="edge">
<title>Node3&#45;&gt;Node4</title>
<g id="a_edge4_Node000004_Node000003"><a xlink:title=" ">
<path fill="none" stroke="#9a32cd" stroke-dasharray="5,2" d="M125.32,-336.5C162.44,-336.5 207.91,-336.5 242.21,-336.5"/>
<polygon fill="#9a32cd" stroke="#9a32cd" points="125.09,-333 115.09,-336.5 125.09,-340 125.09,-333"/>
</a>
</g>
<text text-anchor="middle" x="165" y="-339.5" font-family="Helvetica,sans-Serif" font-size="10.00" fill="grey"> isProcessing</text>
</g>
<!-- Node4&#45;&gt;Node2 -->
<g id="edge3_Node000002_Node000004" class="edge">
<title>Node4&#45;&gt;Node2</title>
<g id="a_edge3_Node000002_Node000004"><a xlink:title=" ">
<path fill="none" stroke="orange" stroke-dasharray="5,2" d="M356.76,-328.33C412.09,-320.96 492.57,-310.22 544.48,-303.3"/>
<polygon fill="orange" stroke="orange" points="356.18,-324.88 346.73,-329.67 357.11,-331.82 356.18,-324.88"/>
</a>
</g>
<text text-anchor="middle" x="445" y="-326.5" font-family="Helvetica,sans-Serif" font-size="10.00" fill="grey"> &lt; Log &gt;</text>
</g>
<!-- Node5 -->
<g id="Node000005" class="node">
<title>Node5</title>
<g id="a_Node000005"><a target="_parent" xlink:href="https://gcc.gnu.org/onlinedocs/gcc-12.3.0/libstdc++/api/a08683.html" xlink:title=" ">
<polygon fill="white" stroke="#666666" points="659,-263.5 534,-263.5 534,-233.5 659,-233.5 659,-263.5"/>
<text text-anchor="start" x="542" y="-251.5" font-family="Helvetica,sans-Serif" font-size="10.00">std::queue&lt; std::basic</text>
<text text-anchor="middle" x="596.5" y="-240.5" font-family="Helvetica,sans-Serif" font-size="10.00">_string &gt;</text>
</a>
</g>
</g>
<!-- Node5&#45;&gt;Node1 -->
<g id="edge5_Node000001_Node000005" class="edge">
<title>Node5&#45;&gt;Node1</title>
<g id="a_edge5_Node000001_Node000005"><a xlink:title=" ">
<path fill="none" stroke="#9a32cd" stroke-dasharray="5,2" d="M669.21,-234.29C702.59,-227.67 741.41,-219.98 771.23,-214.07"/>
<polygon fill="#9a32cd" stroke="#9a32cd" points="668.17,-230.92 659.04,-236.3 669.53,-237.79 668.17,-230.92"/>
</a>
</g>
<text text-anchor="middle" x="720" y="-231.5" font-family="Helvetica,sans-Serif" font-size="10.00" fill="grey"> logQueue</text>
</g>
<!-- Node6 -->
<g id="Node000006" class="node">
<title>Node6</title>
<g id="a_Node000006"><a target="_parent" xlink:href="https://gcc.gnu.org/onlinedocs/gcc-12.3.0/libstdc++/api/a08683.html" xlink:title=" ">
<polygon fill="white" stroke="#666666" points="374,-256.5 215,-256.5 215,-226.5 374,-226.5 374,-256.5"/>
<text text-anchor="start" x="223" y="-244.5" font-family="Helvetica,sans-Serif" font-size="10.00">std::queue&lt; typename</text>
<text text-anchor="middle" x="294.5" y="-233.5" font-family="Helvetica,sans-Serif" font-size="10.00"> _Tp, typename _Sequence &gt;</text>
</a>
</g>
</g>
<!-- Node6&#45;&gt;Node5 -->
<g id="edge6_Node000005_Node000006" class="edge">
<title>Node6&#45;&gt;Node5</title>
<g id="a_edge6_Node000005_Node000006"><a xlink:title=" ">
<path fill="none" stroke="orange" stroke-dasharray="5,2" d="M384.42,-243.57C432.5,-244.7 490.67,-246.05 533.77,-247.06"/>
<polygon fill="orange" stroke="orange" points="384.4,-240.07 374.32,-243.34 384.24,-247.07 384.4,-240.07"/>
</a>
</g>
<text text-anchor="middle" x="445" y="-248.5" font-family="Helvetica,sans-Serif" font-size="10.00" fill="grey"> &lt; std::basic_string &gt;</text>
</g>
<!-- Node7 -->
<g id="Node000007" class="node">
<title>Node7</title>
<g id="a_Node000007"><a target="_parent" xlink:href="https://gcc.gnu.org/onlinedocs/gcc-12.3.0/libstdc++/api/a07923.html" xlink:title=" ">
<polygon fill="white" stroke="#666666" points="329,-202 260,-202 260,-183 329,-183 329,-202"/>
<text text-anchor="middle" x="294.5" y="-190" font-family="Helvetica,sans-Serif" font-size="10.00">std::mutex</text>
</a>
</g>
</g>
<!-- Node7&#45;&gt;Node1 -->
<g id="edge7_Node000001_Node000007" class="edge">
<title>Node7&#45;&gt;Node1</title>
<g id="a_edge7_Node000001_Node000007"><a xlink:title=" ">
<path fill="none" stroke="#9a32cd" stroke-dasharray="5,2" d="M339.16,-193.5C433.79,-195.67 657.72,-200.8 762.98,-203.21"/>
<polygon fill="#9a32cd" stroke="#9a32cd" points="339.15,-190 329.08,-193.27 338.99,-197 339.15,-190"/>
</a>
</g>
<text text-anchor="middle" x="596.5" y="-203.5" font-family="Helvetica,sans-Serif" font-size="10.00" fill="grey"> mtx</text>
</g>
<!-- Node10 -->
<g id="Node000010" class="node">
<title>Node10</title>
<g id="a_Node000010"><a xlink:href="../../d5/d7d/classutility_1_1file_1_1ReadWriteLock.html" target="_top" xlink:title="Lock for reading and writing files.">
<polygon fill="white" stroke="#666666" points="669,-161 524,-161 524,-142 669,-142 669,-161"/>
<text text-anchor="middle" x="596.5" y="-149" font-family="Helvetica,sans-Serif" font-size="10.00">utility::file::ReadWriteLock</text>
</a>
</g>
</g>
<!-- Node7&#45;&gt;Node10 -->
<g id="edge13_Node000010_Node000007" class="edge">
<title>Node7&#45;&gt;Node10</title>
<g id="a_edge13_Node000010_Node000007"><a xlink:title=" ">
<path fill="none" stroke="#9a32cd" stroke-dasharray="5,2" d="M339,-186.56C387.97,-179.86 468.23,-168.89 525.93,-161.01"/>
<polygon fill="#9a32cd" stroke="#9a32cd" points="338.47,-183.09 329.04,-187.92 339.42,-190.03 338.47,-183.09"/>
</a>
</g>
<text text-anchor="middle" x="445" y="-181.5" font-family="Helvetica,sans-Serif" font-size="10.00" fill="grey"> mtx</text>
</g>
<!-- Node8 -->
<g id="Node000008" class="node">
<title>Node8</title>
<g id="a_Node000008"><a target="_parent" xlink:href="https://gcc.gnu.org/onlinedocs/gcc-12.3.0/libstdc++/api/a02343.html" xlink:title=" ">
<polygon fill="white" stroke="#666666" points="358.5,-102 230.5,-102 230.5,-83 358.5,-83 358.5,-102"/>
<text text-anchor="middle" x="294.5" y="-90" font-family="Helvetica,sans-Serif" font-size="10.00">std::condition_variable</text>
</a>
</g>
</g>
<!-- Node8&#45;&gt;Node1 -->
<g id="edge8_Node000001_Node000008" class="edge">
<title>Node8&#45;&gt;Node1</title>
<g id="a_edge8_Node000001_Node000008"><a xlink:title=" ">
<path fill="none" stroke="#9a32cd" stroke-dasharray="5,2" d="M368.9,-88.38C447.16,-86.24 573.8,-89.31 677,-122.5 729.17,-139.28 783.24,-177.02 807.02,-194.83"/>
<polygon fill="#9a32cd" stroke="#9a32cd" points="368.54,-84.89 358.65,-88.7 368.76,-91.89 368.54,-84.89"/>
</a>
</g>
<text text-anchor="middle" x="596.5" y="-125.5" font-family="Helvetica,sans-Serif" font-size="10.00" fill="grey"> cv</text>
</g>
<!-- Node8&#45;&gt;Node10 -->
<g id="edge14_Node000010_Node000008" class="edge">
<title>Node8&#45;&gt;Node10</title>
<g id="a_edge14_Node000010_Node000008"><a xlink:title=" ">
<path fill="none" stroke="#9a32cd" stroke-dasharray="5,2" d="M364.15,-103.73C403.45,-110.4 453.61,-119.33 498,-128.5 517.59,-132.55 539.25,-137.6 557.17,-141.94"/>
<polygon fill="#9a32cd" stroke="#9a32cd" points="364.59,-100.25 354.15,-102.04 363.43,-107.15 364.59,-100.25"/>
</a>
</g>
<text text-anchor="middle" x="445" y="-131.5" font-family="Helvetica,sans-Serif" font-size="10.00" fill="grey"> cv</text>
</g>
<!-- Node9 -->
<g id="Node000009" class="node">
<title>Node9</title>
<g id="a_Node000009"><a target="_parent" xlink:href="https://gcc.gnu.org/onlinedocs/gcc-12.3.0/libstdc++/api/a05563.html" xlink:title=" ">
<polygon fill="white" stroke="#666666" points="677,-41 516,-41 516,0 677,0 677,-41"/>
<text text-anchor="start" x="524" y="-29" font-family="Helvetica,sans-Serif" font-size="10.00">std::basic_string&lt;</text>
<text text-anchor="start" x="524" y="-18" font-family="Helvetica,sans-Serif" font-size="10.00"> typename _CharT, typename</text>
<text text-anchor="middle" x="596.5" y="-7" font-family="Helvetica,sans-Serif" font-size="10.00"> _Traits, typename _Alloc &gt;</text>
</a>
</g>
</g>
<!-- Node9&#45;&gt;Node1 -->
<g id="edge10_Node000001_Node000009" class="edge">
<title>Node9&#45;&gt;Node1</title>
<g id="a_edge10_Node000001_Node000009"><a xlink:title=" ">
<path fill="none" stroke="#9a32cd" stroke-dasharray="5,2" d="M686.84,-26.62C707.53,-31.46 728.35,-39.46 745,-52.5 793.36,-90.37 812.41,-167.72 817.78,-194.84"/>
<polygon fill="#9a32cd" stroke="#9a32cd" points="687.54,-23.19 677.03,-24.55 686.09,-30.04 687.54,-23.19"/>
</a>
</g>
<text text-anchor="middle" x="720" y="-55.5" font-family="Helvetica,sans-Serif" font-size="10.00" fill="grey"> filePath</text>
</g>
<!-- Node10&#45;&gt;Node1 -->
<g id="edge11_Node000001_Node000010" class="edge">
<title>Node10&#45;&gt;Node1</title>
<g id="a_edge11_Node000001_Node000010"><a xlink:title=" ">
<path fill="none" stroke="#9a32cd" stroke-dasharray="5,2" d="M667.81,-162.83C692.39,-167.32 720.07,-172.98 745,-179.5 761.5,-183.81 779.65,-189.87 793.9,-194.95"/>
<polygon fill="#9a32cd" stroke="#9a32cd" points="668.3,-159.36 657.84,-161.04 667.06,-166.25 668.3,-159.36"/>
</a>
</g>
<text text-anchor="middle" x="720" y="-182.5" font-family="Helvetica,sans-Serif" font-size="10.00" fill="grey"> fileLock</text>
</g>
<!-- Node11 -->
<g id="Node000011" class="node">
<title>Node11</title>
<g id="a_Node000011"><a target="_parent" xlink:href="https://gcc.gnu.org/onlinedocs/gcc-12.3.0/libstdc++/api/a03315.html" xlink:title=" ">
<polygon fill="white" stroke="#666666" points="348,-154 241,-154 241,-135 348,-135 348,-154"/>
<text text-anchor="middle" x="294.5" y="-142" font-family="Helvetica,sans-Serif" font-size="10.00">std::shared_mutex</text>
</a>
</g>
</g>
<!-- Node11&#45;&gt;Node10 -->
<g id="edge12_Node000010_Node000011" class="edge">
<title>Node11&#45;&gt;Node10</title>
<g id="a_edge12_Node000010_Node000011"><a xlink:title=" ">
<path fill="none" stroke="#9a32cd" stroke-dasharray="5,2" d="M358.52,-143.9C398.49,-143.74 451.29,-143.95 498,-145.5 506.39,-145.78 515.18,-146.17 523.9,-146.63"/>
<polygon fill="#9a32cd" stroke="#9a32cd" points="358.37,-140.4 348.39,-143.94 358.4,-147.4 358.37,-140.4"/>
</a>
</g>
<text text-anchor="middle" x="445" y="-148.5" font-family="Helvetica,sans-Serif" font-size="10.00" fill="grey"> rwLock</text>
</g>
</g>
</svg>
