<?xml version="1.0" encoding="UTF-8" standalone="no"?>
<!DOCTYPE svg PUBLIC "-//W3C//DTD SVG 1.1//EN"
 "http://www.w3.org/Graphics/SVG/1.1/DTD/svg11.dtd">
<!-- Generated by graphviz version 2.43.0 (0)
 -->
<!-- Title: application::app_algo::search::TargetBuilder&lt; T &gt; Pages: 1 -->
<svg width="162pt" height="181pt"
 viewBox="0.00 0.00 162.00 181.00" xmlns="http://www.w3.org/2000/svg" xmlns:xlink="http://www.w3.org/1999/xlink">
<g id="graph0" class="graph" transform="scale(1 1) rotate(0) translate(4 177)">
<title>application::app_algo::search::TargetBuilder&lt; T &gt;</title>
<!-- Node1 -->
<g id="Node000001" class="node">
<title>Node1</title>
<g id="a_Node000001"><a xlink:title="Builder for the target.">
<polygon fill="#999999" stroke="#666666" points="154,-30 0,-30 0,0 154,0 154,-30"/>
<text text-anchor="start" x="8" y="-18" font-family="Helvetica,sans-Serif" font-size="10.00">application::app_algo</text>
<text text-anchor="middle" x="77" y="-7" font-family="Helvetica,sans-Serif" font-size="10.00">::search::TargetBuilder&lt; T &gt;</text>
</a>
</g>
</g>
<!-- Node2 -->
<g id="Node000002" class="node">
<title>Node2</title>
<g id="a_Node000002"><a target="_parent" xlink:href="https://gcc.gnu.org/onlinedocs/gcc-12.3.0/libstdc++/api/a08835.html" xlink:title=" ">
<polygon fill="white" stroke="#666666" points="138,-96 16,-96 16,-77 138,-77 138,-96"/>
<text text-anchor="middle" x="77" y="-84" font-family="Helvetica,sans-Serif" font-size="10.00">std::unique_ptr&lt; T[]&gt;</text>
</a>
</g>
</g>
<!-- Node2&#45;&gt;Node1 -->
<g id="edge1_Node000001_Node000002" class="edge">
<title>Node2&#45;&gt;Node1</title>
<g id="a_edge1_Node000001_Node000002"><a xlink:title=" ">
<path fill="none" stroke="#9a32cd" stroke-dasharray="5,2" d="M77,-66.71C77,-55.19 77,-40.68 77,-30.14"/>
<polygon fill="#9a32cd" stroke="#9a32cd" points="73.5,-66.98 77,-76.98 80.5,-66.98 73.5,-66.98"/>
</a>
</g>
<text text-anchor="middle" x="110.5" y="-51" font-family="Helvetica,sans-Serif" font-size="10.00" fill="grey"> orderedArray</text>
</g>
<!-- Node3 -->
<g id="Node000003" class="node">
<title>Node3</title>
<g id="a_Node000003"><a target="_parent" xlink:href="https://gcc.gnu.org/onlinedocs/gcc-12.3.0/libstdc++/api/a08835.html" xlink:title=" ">
<polygon fill="white" stroke="#666666" points="152,-173 2,-173 2,-143 152,-143 152,-173"/>
<text text-anchor="start" x="10" y="-161" font-family="Helvetica,sans-Serif" font-size="10.00">std::unique_ptr&lt; typename</text>
<text text-anchor="middle" x="77" y="-150" font-family="Helvetica,sans-Serif" font-size="10.00"> _Tp, typename _Dp &gt;</text>
</a>
</g>
</g>
<!-- Node3&#45;&gt;Node2 -->
<g id="edge2_Node000002_Node000003" class="edge">
<title>Node3&#45;&gt;Node2</title>
<g id="a_edge2_Node000002_Node000003"><a xlink:title=" ">
<path fill="none" stroke="orange" stroke-dasharray="5,2" d="M77,-132.56C77,-119.95 77,-105.35 77,-96.27"/>
<polygon fill="orange" stroke="orange" points="73.5,-132.94 77,-142.94 80.5,-132.94 73.5,-132.94"/>
</a>
</g>
<text text-anchor="middle" x="95.5" y="-117" font-family="Helvetica,sans-Serif" font-size="10.00" fill="grey"> &lt; T[]&gt;</text>
</g>
</g>
</svg>
