<?xml version="1.0" encoding="UTF-8" standalone="no"?>
<!DOCTYPE svg PUBLIC "-//W3C//DTD SVG 1.1//EN"
 "http://www.w3.org/Graphics/SVG/1.1/DTD/svg11.dtd">
<!-- Generated by graphviz version 2.43.0 (0)
 -->
<!-- Title: utility::currying::curry Pages: 1 -->
<svg width="423pt" height="861pt"
 viewBox="0.00 0.00 423.00 861.00" xmlns="http://www.w3.org/2000/svg" xmlns:xlink="http://www.w3.org/1999/xlink">
<g id="graph0" class="graph" transform="scale(1 1) rotate(0) translate(4 857)">
<title>utility::currying::curry</title>
<!-- Node1 -->
<g id="Node000001" class="node">
<title>Node1</title>
<g id="a_Node000001"><a xlink:title="To curry.">
<polygon fill="#999999" stroke="#666666" points="415,-433 319,-433 319,-403 415,-403 415,-433"/>
<text text-anchor="start" x="327" y="-421" font-family="Helvetica,sans-Serif" font-size="10.00">utility::currying::</text>
<text text-anchor="middle" x="367" y="-410" font-family="Helvetica,sans-Serif" font-size="10.00">curry</text>
</a>
</g>
</g>
<!-- Node2 -->
<g id="Node000002" class="node">
<title>Node2</title>
<g id="a_Node000002"><a xlink:href="../../d4/d1c/namespaceutility_1_1currying.html#a83df4094efc393250052890df025446d" target="_top" xlink:title="To curry.">
<polygon fill="white" stroke="#666666" points="268.5,-853 172.5,-853 172.5,-823 268.5,-823 268.5,-853"/>
<text text-anchor="start" x="180.5" y="-841" font-family="Helvetica,sans-Serif" font-size="10.00">utility::currying::</text>
<text text-anchor="middle" x="220.5" y="-830" font-family="Helvetica,sans-Serif" font-size="10.00">curry</text>
</a>
</g>
</g>
<!-- Node1&#45;&gt;Node2 -->
<g id="edge1_Node000001_Node000002" class="edge">
<title>Node1&#45;&gt;Node2</title>
<g id="a_edge1_Node000001_Node000002"><a xlink:title=" ">
<path fill="none" stroke="#63b8ff" d="M363.81,-443.43C356.59,-521.68 331.24,-757.03 283,-814 279.07,-818.64 274.14,-822.38 268.78,-825.4"/>
<polygon fill="#63b8ff" stroke="#63b8ff" points="367.33,-443.34 364.74,-433.06 360.36,-442.71 367.33,-443.34"/>
</a>
</g>
</g>
<!-- Node3 -->
<g id="Node000003" class="node">
<title>Node3</title>
<g id="a_Node000003"><a xlink:href="../../d4/d1c/namespaceutility_1_1currying.html#ab9c1cb708c616897e583a9b5fc35eef7" target="_top" xlink:title="To curry.">
<polygon fill="white" stroke="#666666" points="268.5,-805 172.5,-805 172.5,-775 268.5,-775 268.5,-805"/>
<text text-anchor="start" x="180.5" y="-793" font-family="Helvetica,sans-Serif" font-size="10.00">utility::currying::</text>
<text text-anchor="middle" x="220.5" y="-782" font-family="Helvetica,sans-Serif" font-size="10.00">curry</text>
</a>
</g>
</g>
<!-- Node1&#45;&gt;Node3 -->
<g id="edge2_Node000001_Node000003" class="edge">
<title>Node1&#45;&gt;Node3</title>
<g id="a_edge2_Node000001_Node000003"><a xlink:title=" ">
<path fill="none" stroke="#63b8ff" d="M363.04,-443.18C354.17,-514.67 325.77,-716.88 283,-766 279.01,-770.58 274.04,-774.29 268.66,-777.3"/>
<polygon fill="#63b8ff" stroke="#63b8ff" points="366.51,-443.59 364.25,-433.24 359.57,-442.74 366.51,-443.59"/>
</a>
</g>
</g>
<!-- Node4 -->
<g id="Node000004" class="node">
<title>Node4</title>
<g id="a_Node000004"><a xlink:href="../../d4/d1c/namespaceutility_1_1currying.html#a0d81f97b1c61b1e8ee03c4e5b7412265" target="_top" xlink:title="To curry.">
<polygon fill="white" stroke="#666666" points="268.5,-757 172.5,-757 172.5,-727 268.5,-727 268.5,-757"/>
<text text-anchor="start" x="180.5" y="-745" font-family="Helvetica,sans-Serif" font-size="10.00">utility::currying::</text>
<text text-anchor="middle" x="220.5" y="-734" font-family="Helvetica,sans-Serif" font-size="10.00">curry</text>
</a>
</g>
</g>
<!-- Node1&#45;&gt;Node4 -->
<g id="edge3_Node000001_Node000004" class="edge">
<title>Node1&#45;&gt;Node4</title>
<g id="a_edge3_Node000001_Node000004"><a xlink:title=" ">
<path fill="none" stroke="#63b8ff" d="M365.65,-443.51C363.58,-499.01 351.32,-632.25 283,-713 278.27,-718.59 272.23,-723.17 265.78,-726.91"/>
<polygon fill="#63b8ff" stroke="#63b8ff" points="369.16,-443.28 365.95,-433.18 362.16,-443.08 369.16,-443.28"/>
</a>
</g>
</g>
<!-- Node5 -->
<g id="Node000005" class="node">
<title>Node5</title>
<g id="a_Node000005"><a xlink:href="../../d7/dd4/namespaceapplication_1_1app__algo.html#ac782d4d9122dbb4a0a9b6f72edcf12ca" target="_top" xlink:title="Get the task name curried.">
<polygon fill="white" stroke="#666666" points="283,-595 158,-595 158,-565 283,-565 283,-595"/>
<text text-anchor="start" x="166" y="-583" font-family="Helvetica,sans-Serif" font-size="10.00">application::app_algo</text>
<text text-anchor="middle" x="220.5" y="-572" font-family="Helvetica,sans-Serif" font-size="10.00">::getTaskNameCurried</text>
</a>
</g>
</g>
<!-- Node1&#45;&gt;Node5 -->
<g id="edge4_Node000001_Node000005" class="edge">
<title>Node1&#45;&gt;Node5</title>
<g id="a_edge4_Node000001_Node000005"><a xlink:title=" ">
<path fill="none" stroke="#63b8ff" d="M355.89,-442.56C342.82,-471.72 317.57,-520.26 283,-551 276.91,-556.41 269.64,-561.01 262.26,-564.85"/>
<polygon fill="#63b8ff" stroke="#63b8ff" points="359.22,-443.68 360,-433.11 352.8,-440.88 359.22,-443.68"/>
</a>
</g>
</g>
<!-- Node6 -->
<g id="Node000006" class="node">
<title>Node6</title>
<g id="a_Node000006"><a xlink:href="../../d7/dd4/namespaceapplication_1_1app__algo.html#a317a232febf9ceb60c8e49be2ba06c36" target="_top" xlink:title="Run match tasks.">
<polygon fill="white" stroke="#666666" points="121.5,-713 0.5,-713 0.5,-683 121.5,-683 121.5,-713"/>
<text text-anchor="start" x="8.5" y="-701" font-family="Helvetica,sans-Serif" font-size="10.00">application::app_algo</text>
<text text-anchor="middle" x="61" y="-690" font-family="Helvetica,sans-Serif" font-size="10.00">::runMatchTasks</text>
</a>
</g>
</g>
<!-- Node1&#45;&gt;Node6 -->
<g id="edge28_Node000001_Node000006" class="edge">
<title>Node1&#45;&gt;Node6</title>
<g id="a_edge28_Node000001_Node000006"><a xlink:title=" ">
<path fill="none" stroke="#63b8ff" d="M365.27,-443.16C362.39,-492.72 348.54,-603.02 283,-659 238.71,-696.83 170.78,-703.78 121.93,-703.01"/>
<polygon fill="#63b8ff" stroke="#63b8ff" points="368.78,-443.16 365.76,-433.01 361.79,-442.83 368.78,-443.16"/>
</a>
</g>
</g>
<!-- Node7 -->
<g id="Node000007" class="node">
<title>Node7</title>
<g id="a_Node000007"><a xlink:href="../../d7/dd4/namespaceapplication_1_1app__algo.html#a99fbd5b654baa6c2f19c08245d348030" target="_top" xlink:title="Run notation tasks.">
<polygon fill="white" stroke="#666666" points="121.5,-665 0.5,-665 0.5,-635 121.5,-635 121.5,-665"/>
<text text-anchor="start" x="8.5" y="-653" font-family="Helvetica,sans-Serif" font-size="10.00">application::app_algo</text>
<text text-anchor="middle" x="61" y="-642" font-family="Helvetica,sans-Serif" font-size="10.00">::runNotationTasks</text>
</a>
</g>
</g>
<!-- Node1&#45;&gt;Node7 -->
<g id="edge29_Node000001_Node000007" class="edge">
<title>Node1&#45;&gt;Node7</title>
<g id="a_edge29_Node000001_Node000007"><a xlink:title=" ">
<path fill="none" stroke="#63b8ff" d="M364.26,-443.32C359.66,-488.81 342.99,-583.83 283,-629 237.12,-663.54 169.78,-664.99 121.51,-660.16"/>
<polygon fill="#63b8ff" stroke="#63b8ff" points="367.77,-443.4 365.17,-433.13 360.8,-442.78 367.77,-443.4"/>
</a>
</g>
</g>
<!-- Node8 -->
<g id="Node000008" class="node">
<title>Node8</title>
<g id="a_Node000008"><a xlink:href="../../d7/dd4/namespaceapplication_1_1app__algo.html#a73b5411d7029e486a45ed588c4bb60e2" target="_top" xlink:title="Run optimal tasks.">
<polygon fill="white" stroke="#666666" points="121.5,-617 0.5,-617 0.5,-587 121.5,-587 121.5,-617"/>
<text text-anchor="start" x="8.5" y="-605" font-family="Helvetica,sans-Serif" font-size="10.00">application::app_algo</text>
<text text-anchor="middle" x="61" y="-594" font-family="Helvetica,sans-Serif" font-size="10.00">::runOptimalTasks</text>
</a>
</g>
</g>
<!-- Node1&#45;&gt;Node8 -->
<g id="edge30_Node000001_Node000008" class="edge">
<title>Node1&#45;&gt;Node8</title>
<g id="a_edge30_Node000001_Node000008"><a xlink:title=" ">
<path fill="none" stroke="#63b8ff" d="M363.32,-442.96C357.32,-484.76 338.67,-567.88 283,-604 231.98,-637.1 159.42,-628.45 111.55,-617.05"/>
<polygon fill="#63b8ff" stroke="#63b8ff" points="366.79,-443.41 364.61,-433.05 359.84,-442.51 366.79,-443.41"/>
</a>
</g>
</g>
<!-- Node9 -->
<g id="Node000009" class="node">
<title>Node9</title>
<g id="a_Node000009"><a xlink:href="../../d7/dd4/namespaceapplication_1_1app__algo.html#a4e99e8963e76e52eb6b30f9cb1714b11" target="_top" xlink:title="Run search tasks.">
<polygon fill="white" stroke="#666666" points="121.5,-568 0.5,-568 0.5,-538 121.5,-538 121.5,-568"/>
<text text-anchor="start" x="8.5" y="-556" font-family="Helvetica,sans-Serif" font-size="10.00">application::app_algo</text>
<text text-anchor="middle" x="61" y="-545" font-family="Helvetica,sans-Serif" font-size="10.00">::runSearchTasks</text>
</a>
</g>
</g>
<!-- Node1&#45;&gt;Node9 -->
<g id="edge32_Node000001_Node000009" class="edge">
<title>Node1&#45;&gt;Node9</title>
<g id="a_edge32_Node000001_Node000009"><a xlink:title=" ">
<path fill="none" stroke="#63b8ff" d="M345.03,-440.45C329.3,-456.07 306.52,-476.31 283,-489 232.03,-516.5 167.9,-533.38 121.87,-542.85"/>
<polygon fill="#63b8ff" stroke="#63b8ff" points="347.64,-442.78 352.15,-433.2 342.64,-437.87 347.64,-442.78"/>
</a>
</g>
</g>
<!-- Node10 -->
<g id="Node000010" class="node">
<title>Node10</title>
<g id="a_Node000010"><a xlink:href="../../d7/dd4/namespaceapplication_1_1app__algo.html#a416a09be4668a0e27464d7ca94048aef" target="_top" xlink:title="Run sort tasks.">
<polygon fill="white" stroke="#666666" points="121.5,-518 0.5,-518 0.5,-488 121.5,-488 121.5,-518"/>
<text text-anchor="start" x="8.5" y="-506" font-family="Helvetica,sans-Serif" font-size="10.00">application::app_algo</text>
<text text-anchor="middle" x="61" y="-495" font-family="Helvetica,sans-Serif" font-size="10.00">::runSortTasks</text>
</a>
</g>
</g>
<!-- Node1&#45;&gt;Node10 -->
<g id="edge33_Node000001_Node000010" class="edge">
<title>Node1&#45;&gt;Node10</title>
<g id="a_edge33_Node000001_Node000010"><a xlink:title=" ">
<path fill="none" stroke="#63b8ff" d="M331.51,-438.15C316.94,-445.94 299.54,-454.33 283,-460 229.94,-478.19 166.93,-489.5 121.79,-495.93"/>
<polygon fill="#63b8ff" stroke="#63b8ff" points="333.55,-441.02 340.64,-433.15 330.19,-434.88 333.55,-441.02"/>
</a>
</g>
</g>
<!-- Node11 -->
<g id="Node000011" class="node">
<title>Node11</title>
<g id="a_Node000011"><a xlink:href="../../d0/dc3/namespaceapplication_1_1app__ds.html#a341c68ad9e2a6d2dbd98a71512ed09dc" target="_top" xlink:title="Get the task name curried.">
<polygon fill="white" stroke="#666666" points="283,-433 158,-433 158,-403 283,-403 283,-433"/>
<text text-anchor="start" x="166" y="-421" font-family="Helvetica,sans-Serif" font-size="10.00">application::app_ds</text>
<text text-anchor="middle" x="220.5" y="-410" font-family="Helvetica,sans-Serif" font-size="10.00">::getTaskNameCurried</text>
</a>
</g>
</g>
<!-- Node1&#45;&gt;Node11 -->
<g id="edge10_Node000001_Node000011" class="edge">
<title>Node1&#45;&gt;Node11</title>
<g id="a_edge10_Node000001_Node000011"><a xlink:title=" ">
<path fill="none" stroke="#63b8ff" d="M308.63,-418C300.25,-418 291.59,-418 283.13,-418"/>
<polygon fill="#63b8ff" stroke="#63b8ff" points="308.69,-421.5 318.69,-418 308.69,-414.5 308.69,-421.5"/>
</a>
</g>
</g>
<!-- Node12 -->
<g id="Node000012" class="node">
<title>Node12</title>
<g id="a_Node000012"><a xlink:href="../../d0/dc3/namespaceapplication_1_1app__ds.html#a73a7a1dd5adb60174e10d8a779fd1c70" target="_top" xlink:title="Run linear tasks.">
<polygon fill="white" stroke="#666666" points="116.5,-465 5.5,-465 5.5,-435 116.5,-435 116.5,-465"/>
<text text-anchor="start" x="13.5" y="-453" font-family="Helvetica,sans-Serif" font-size="10.00">application::app_ds</text>
<text text-anchor="middle" x="61" y="-442" font-family="Helvetica,sans-Serif" font-size="10.00">::runLinearTasks</text>
</a>
</g>
</g>
<!-- Node1&#45;&gt;Node12 -->
<g id="edge27_Node000001_Node000012" class="edge">
<title>Node1&#45;&gt;Node12</title>
<g id="a_edge27_Node000001_Node000012"><a xlink:title=" ">
<path fill="none" stroke="#63b8ff" d="M311.56,-435.8C302.12,-438.29 292.34,-440.5 283,-442 226.89,-450.99 161.8,-452.26 116.85,-451.73"/>
<polygon fill="#63b8ff" stroke="#63b8ff" points="312.52,-439.16 321.23,-433.12 310.65,-432.41 312.52,-439.16"/>
</a>
</g>
</g>
<!-- Node13 -->
<g id="Node000013" class="node">
<title>Node13</title>
<g id="a_Node000013"><a xlink:href="../../d0/dc3/namespaceapplication_1_1app__ds.html#ab2ea91a2405f21fbb7e07b5e5ac25f43" target="_top" xlink:title="Run tree tasks.">
<polygon fill="white" stroke="#666666" points="116.5,-407 5.5,-407 5.5,-377 116.5,-377 116.5,-407"/>
<text text-anchor="start" x="13.5" y="-395" font-family="Helvetica,sans-Serif" font-size="10.00">application::app_ds</text>
<text text-anchor="middle" x="61" y="-384" font-family="Helvetica,sans-Serif" font-size="10.00">::runTreeTasks</text>
</a>
</g>
</g>
<!-- Node1&#45;&gt;Node13 -->
<g id="edge35_Node000001_Node000013" class="edge">
<title>Node1&#45;&gt;Node13</title>
<g id="a_edge35_Node000001_Node000013"><a xlink:title=" ">
<path fill="none" stroke="#63b8ff" d="M312.25,-400.16C302.61,-397.62 292.58,-395.4 283,-394 226.81,-385.78 161.73,-386.4 116.81,-388.38"/>
<polygon fill="#63b8ff" stroke="#63b8ff" points="311.55,-403.6 322.12,-402.9 313.42,-396.85 311.55,-403.6"/>
</a>
</g>
</g>
<!-- Node14 -->
<g id="Node000014" class="node">
<title>Node14</title>
<g id="a_Node000014"><a xlink:href="../../d2/dc1/namespaceapplication_1_1app__dp.html#a15d6626ccd29c8d793326c7972bc0e65" target="_top" xlink:title="Get the task name curried.">
<polygon fill="white" stroke="#666666" points="283,-271 158,-271 158,-241 283,-241 283,-271"/>
<text text-anchor="start" x="166" y="-259" font-family="Helvetica,sans-Serif" font-size="10.00">application::app_dp</text>
<text text-anchor="middle" x="220.5" y="-248" font-family="Helvetica,sans-Serif" font-size="10.00">::getTaskNameCurried</text>
</a>
</g>
</g>
<!-- Node1&#45;&gt;Node14 -->
<g id="edge13_Node000001_Node000014" class="edge">
<title>Node1&#45;&gt;Node14</title>
<g id="a_edge13_Node000001_Node000014"><a xlink:title=" ">
<path fill="none" stroke="#63b8ff" d="M355.89,-393.44C342.82,-364.28 317.57,-315.74 283,-285 276.91,-279.59 269.64,-274.99 262.26,-271.15"/>
<polygon fill="#63b8ff" stroke="#63b8ff" points="352.8,-395.12 360,-402.89 359.22,-392.32 352.8,-395.12"/>
</a>
</g>
</g>
<!-- Node15 -->
<g id="Node000015" class="node">
<title>Node15</title>
<g id="a_Node000015"><a xlink:href="../../d2/dc1/namespaceapplication_1_1app__dp.html#ade97c7790ecb64cb85d2567effedcc19" target="_top" xlink:title="Run behavioral tasks.">
<polygon fill="white" stroke="#666666" points="120,-350 2,-350 2,-320 120,-320 120,-350"/>
<text text-anchor="start" x="10" y="-338" font-family="Helvetica,sans-Serif" font-size="10.00">application::app_dp</text>
<text text-anchor="middle" x="61" y="-327" font-family="Helvetica,sans-Serif" font-size="10.00">::runBehavioralTasks</text>
</a>
</g>
</g>
<!-- Node1&#45;&gt;Node15 -->
<g id="edge23_Node000001_Node000015" class="edge">
<title>Node1&#45;&gt;Node15</title>
<g id="a_edge23_Node000001_Node000015"><a xlink:title=" ">
<path fill="none" stroke="#63b8ff" d="M324.91,-398.9C311.72,-393.25 296.92,-387.4 283,-383 228.72,-365.82 165.03,-352.71 120,-344.56"/>
<polygon fill="#63b8ff" stroke="#63b8ff" points="323.63,-402.16 334.2,-402.96 326.44,-395.75 323.63,-402.16"/>
</a>
</g>
</g>
<!-- Node16 -->
<g id="Node000016" class="node">
<title>Node16</title>
<g id="a_Node000016"><a xlink:href="../../d2/dc1/namespaceapplication_1_1app__dp.html#a58cd5292c4ecae6e2b4d529530105b44" target="_top" xlink:title="Run creational tasks.">
<polygon fill="white" stroke="#666666" points="119,-297 3,-297 3,-267 119,-267 119,-297"/>
<text text-anchor="start" x="11" y="-285" font-family="Helvetica,sans-Serif" font-size="10.00">application::app_dp</text>
<text text-anchor="middle" x="61" y="-274" font-family="Helvetica,sans-Serif" font-size="10.00">::runCreationalTasks</text>
</a>
</g>
</g>
<!-- Node1&#45;&gt;Node16 -->
<g id="edge24_Node000001_Node000016" class="edge">
<title>Node1&#45;&gt;Node16</title>
<g id="a_edge24_Node000001_Node000016"><a xlink:title=" ">
<path fill="none" stroke="#63b8ff" d="M345.01,-395.58C329.28,-379.97 306.49,-359.74 283,-347 230.97,-318.79 165.23,-301.47 119.03,-291.88"/>
<polygon fill="#63b8ff" stroke="#63b8ff" points="342.63,-398.15 352.14,-402.82 347.62,-393.24 342.63,-398.15"/>
</a>
</g>
</g>
<!-- Node17 -->
<g id="Node000017" class="node">
<title>Node17</title>
<g id="a_Node000017"><a xlink:href="../../d2/dc1/namespaceapplication_1_1app__dp.html#af2fe424904e6361cfd8a1ce1e85453cd" target="_top" xlink:title="Run structural tasks.">
<polygon fill="white" stroke="#666666" points="117.5,-240 4.5,-240 4.5,-210 117.5,-210 117.5,-240"/>
<text text-anchor="start" x="12.5" y="-228" font-family="Helvetica,sans-Serif" font-size="10.00">application::app_dp</text>
<text text-anchor="middle" x="61" y="-217" font-family="Helvetica,sans-Serif" font-size="10.00">::runStructuralTasks</text>
</a>
</g>
</g>
<!-- Node1&#45;&gt;Node17 -->
<g id="edge34_Node000001_Node000017" class="edge">
<title>Node1&#45;&gt;Node17</title>
<g id="a_edge34_Node000001_Node000017"><a xlink:title=" ">
<path fill="none" stroke="#63b8ff" d="M363.11,-392.65C356.84,-350.95 337.84,-268.83 283,-232 234.56,-199.47 165.73,-203.1 117.8,-211.42"/>
<polygon fill="#63b8ff" stroke="#63b8ff" points="359.67,-393.37 364.5,-402.8 366.61,-392.42 359.67,-393.37"/>
</a>
</g>
</g>
<!-- Node18 -->
<g id="Node000018" class="node">
<title>Node18</title>
<g id="a_Node000018"><a xlink:href="../../de/dbe/namespaceapplication_1_1app__num.html#a6a449c0b8e849e653ff17cd978f27548" target="_top" xlink:title="Get the task name curried.">
<polygon fill="white" stroke="#666666" points="283,-109 158,-109 158,-79 283,-79 283,-109"/>
<text text-anchor="start" x="166" y="-97" font-family="Helvetica,sans-Serif" font-size="10.00">application::app_num</text>
<text text-anchor="middle" x="220.5" y="-86" font-family="Helvetica,sans-Serif" font-size="10.00">::getTaskNameCurried</text>
</a>
</g>
</g>
<!-- Node1&#45;&gt;Node18 -->
<g id="edge17_Node000001_Node000018" class="edge">
<title>Node1&#45;&gt;Node18</title>
<g id="a_edge17_Node000001_Node000018"><a xlink:title=" ">
<path fill="none" stroke="#63b8ff" d="M365.65,-392.49C363.58,-336.99 351.32,-203.75 283,-123 278.27,-117.41 272.23,-112.83 265.78,-109.09"/>
<polygon fill="#63b8ff" stroke="#63b8ff" points="362.16,-392.92 365.95,-402.82 369.16,-392.72 362.16,-392.92"/>
</a>
</g>
</g>
<!-- Node19 -->
<g id="Node000019" class="node">
<title>Node19</title>
<g id="a_Node000019"><a xlink:href="../../de/dbe/namespaceapplication_1_1app__num.html#a76b424f8e3b3a6445fc56f41c37afa1d" target="_top" xlink:title="Run arithmetic tasks.">
<polygon fill="white" stroke="#666666" points="122,-189 0,-189 0,-159 122,-159 122,-189"/>
<text text-anchor="start" x="8" y="-177" font-family="Helvetica,sans-Serif" font-size="10.00">application::app_num</text>
<text text-anchor="middle" x="61" y="-166" font-family="Helvetica,sans-Serif" font-size="10.00">::runArithmeticTasks</text>
</a>
</g>
</g>
<!-- Node1&#45;&gt;Node19 -->
<g id="edge22_Node000001_Node000019" class="edge">
<title>Node1&#45;&gt;Node19</title>
<g id="a_edge22_Node000001_Node000019"><a xlink:title=" ">
<path fill="none" stroke="#63b8ff" d="M364.45,-392.77C360.13,-346.54 343.9,-248.61 283,-201 237.78,-165.65 170.66,-162.22 122.26,-165.58"/>
<polygon fill="#63b8ff" stroke="#63b8ff" points="360.97,-393.16 365.27,-402.85 367.94,-392.59 360.97,-393.16"/>
</a>
</g>
</g>
<!-- Node20 -->
<g id="Node000020" class="node">
<title>Node20</title>
<g id="a_Node000020"><a xlink:href="../../de/dbe/namespaceapplication_1_1app__num.html#a45c0729aaa51fd36c4ddd79758b88a6a" target="_top" xlink:title="Run divisor tasks.">
<polygon fill="white" stroke="#666666" points="122,-139 0,-139 0,-109 122,-109 122,-139"/>
<text text-anchor="start" x="8" y="-127" font-family="Helvetica,sans-Serif" font-size="10.00">application::app_num</text>
<text text-anchor="middle" x="61" y="-116" font-family="Helvetica,sans-Serif" font-size="10.00">::runDivisorTasks</text>
</a>
</g>
</g>
<!-- Node1&#45;&gt;Node20 -->
<g id="edge25_Node000001_Node000020" class="edge">
<title>Node1&#45;&gt;Node20</title>
<g id="a_edge25_Node000001_Node000020"><a xlink:title=" ">
<path fill="none" stroke="#63b8ff" d="M366,-392.83C364.54,-340.63 353.26,-220.45 283,-160 238.95,-122.1 170.98,-116.18 122.05,-117.83"/>
<polygon fill="#63b8ff" stroke="#63b8ff" points="362.5,-392.95 366.18,-402.89 369.5,-392.83 362.5,-392.95"/>
</a>
</g>
</g>
<!-- Node21 -->
<g id="Node000021" class="node">
<title>Node21</title>
<g id="a_Node000021"><a xlink:href="../../de/dbe/namespaceapplication_1_1app__num.html#a8f6bdfbd61df7461f8dec4cc6e1db146" target="_top" xlink:title="Run integral tasks.">
<polygon fill="white" stroke="#666666" points="122,-87 0,-87 0,-57 122,-57 122,-87"/>
<text text-anchor="start" x="8" y="-75" font-family="Helvetica,sans-Serif" font-size="10.00">application::app_num</text>
<text text-anchor="middle" x="61" y="-64" font-family="Helvetica,sans-Serif" font-size="10.00">::runIntegralTasks</text>
</a>
</g>
</g>
<!-- Node1&#45;&gt;Node21 -->
<g id="edge26_Node000001_Node000021" class="edge">
<title>Node1&#45;&gt;Node21</title>
<g id="a_edge26_Node000001_Node000021"><a xlink:title=" ">
<path fill="none" stroke="#63b8ff" d="M363.9,-392.46C357.29,-319.11 334.24,-110.45 283,-70 232.86,-30.41 154.46,-43.17 105.76,-56.92"/>
<polygon fill="#63b8ff" stroke="#63b8ff" points="360.43,-392.99 364.79,-402.65 367.41,-392.38 360.43,-392.99"/>
</a>
</g>
</g>
<!-- Node22 -->
<g id="Node000022" class="node">
<title>Node22</title>
<g id="a_Node000022"><a xlink:href="../../de/dbe/namespaceapplication_1_1app__num.html#a7fcb02610a31797f6736b02a36617a1b" target="_top" xlink:title="Run prime tasks.">
<polygon fill="white" stroke="#666666" points="122,-30 0,-30 0,0 122,0 122,-30"/>
<text text-anchor="start" x="8" y="-18" font-family="Helvetica,sans-Serif" font-size="10.00">application::app_num</text>
<text text-anchor="middle" x="61" y="-7" font-family="Helvetica,sans-Serif" font-size="10.00">::runPrimeTasks</text>
</a>
</g>
</g>
<!-- Node1&#45;&gt;Node22 -->
<g id="edge31_Node000001_Node000022" class="edge">
<title>Node1&#45;&gt;Node22</title>
<g id="a_edge31_Node000001_Node000022"><a xlink:title=" ">
<path fill="none" stroke="#63b8ff" d="M364.2,-392.56C358.2,-315.46 336.14,-86.72 283,-39 239.93,-0.32 171.46,1.27 122.14,-4.04"/>
<polygon fill="#63b8ff" stroke="#63b8ff" points="360.73,-393.09 364.97,-402.8 367.71,-392.57 360.73,-393.09"/>
</a>
</g>
</g>
<!-- Node5&#45;&gt;Node6 -->
<g id="edge5_Node000005_Node000006" class="edge">
<title>Node5&#45;&gt;Node6</title>
<g id="a_edge5_Node000005_Node000006"><a xlink:title=" ">
<path fill="none" stroke="#63b8ff" d="M200.37,-602.96C182.04,-623.78 152.68,-654.17 122,-674 116.91,-677.29 111.3,-680.26 105.61,-682.9"/>
<polygon fill="#63b8ff" stroke="#63b8ff" points="203.17,-605.07 207.07,-595.22 197.88,-600.49 203.17,-605.07"/>
</a>
</g>
</g>
<!-- Node5&#45;&gt;Node7 -->
<g id="edge6_Node000005_Node000007" class="edge">
<title>Node5&#45;&gt;Node7</title>
<g id="a_edge6_Node000005_Node000007"><a xlink:title=" ">
<path fill="none" stroke="#63b8ff" d="M179.21,-599.68C161.73,-608.04 140.97,-617.74 122,-626 115.11,-629 107.71,-632.07 100.55,-634.98"/>
<polygon fill="#63b8ff" stroke="#63b8ff" points="181.05,-602.68 188.54,-595.19 178.01,-596.37 181.05,-602.68"/>
</a>
</g>
</g>
<!-- Node5&#45;&gt;Node8 -->
<g id="edge7_Node000005_Node000008" class="edge">
<title>Node5&#45;&gt;Node8</title>
<g id="a_edge7_Node000005_Node000008"><a xlink:title=" ">
<path fill="none" stroke="#63b8ff" d="M147.57,-590.05C138.87,-591.26 130.05,-592.49 121.56,-593.68"/>
<polygon fill="#63b8ff" stroke="#63b8ff" points="148.28,-593.48 157.7,-588.63 147.32,-586.55 148.28,-593.48"/>
</a>
</g>
</g>
<!-- Node5&#45;&gt;Node9 -->
<g id="edge8_Node000005_Node000009" class="edge">
<title>Node5&#45;&gt;Node9</title>
<g id="a_edge8_Node000005_Node000009"><a xlink:title=" ">
<path fill="none" stroke="#63b8ff" d="M147.57,-567.67C138.87,-566.18 130.05,-564.67 121.56,-563.21"/>
<polygon fill="#63b8ff" stroke="#63b8ff" points="147.26,-571.17 157.7,-569.41 148.44,-564.27 147.26,-571.17"/>
</a>
</g>
</g>
<!-- Node5&#45;&gt;Node10 -->
<g id="edge9_Node000005_Node000010" class="edge">
<title>Node5&#45;&gt;Node10</title>
<g id="a_edge9_Node000005_Node000010"><a xlink:title=" ">
<path fill="none" stroke="#63b8ff" d="M182.95,-560.07C164.79,-550.38 142.41,-538.74 122,-529 114.32,-525.33 105.98,-521.58 98.04,-518.11"/>
<polygon fill="#63b8ff" stroke="#63b8ff" points="181.57,-563.3 192.03,-564.95 184.88,-557.14 181.57,-563.3"/>
</a>
</g>
</g>
<!-- Node11&#45;&gt;Node12 -->
<g id="edge11_Node000011_Node000012" class="edge">
<title>Node11&#45;&gt;Node12</title>
<g id="a_edge11_Node000011_Node000012"><a xlink:title=" ">
<path fill="none" stroke="#63b8ff" d="M147.77,-432.57C137.34,-434.69 126.74,-436.85 116.71,-438.88"/>
<polygon fill="#63b8ff" stroke="#63b8ff" points="148.6,-435.98 157.7,-430.56 147.21,-429.12 148.6,-435.98"/>
</a>
</g>
</g>
<!-- Node11&#45;&gt;Node13 -->
<g id="edge12_Node000011_Node000013" class="edge">
<title>Node11&#45;&gt;Node13</title>
<g id="a_edge12_Node000011_Node000013"><a xlink:title=" ">
<path fill="none" stroke="#63b8ff" d="M147.77,-406.16C137.34,-404.44 126.74,-402.69 116.71,-401.03"/>
<polygon fill="#63b8ff" stroke="#63b8ff" points="147.27,-409.62 157.7,-407.8 148.41,-402.72 147.27,-409.62"/>
</a>
</g>
</g>
<!-- Node14&#45;&gt;Node15 -->
<g id="edge14_Node000014_Node000015" class="edge">
<title>Node14&#45;&gt;Node15</title>
<g id="a_edge14_Node000014_Node000015"><a xlink:title=" ">
<path fill="none" stroke="#63b8ff" d="M181.55,-275.72C163.55,-285.01 141.72,-296.18 122,-306 112.78,-310.59 102.72,-315.49 93.52,-319.94"/>
<polygon fill="#63b8ff" stroke="#63b8ff" points="183.3,-278.76 190.58,-271.06 180.09,-272.54 183.3,-278.76"/>
</a>
</g>
</g>
<!-- Node14&#45;&gt;Node16 -->
<g id="edge15_Node000014_Node000016" class="edge">
<title>Node14&#45;&gt;Node16</title>
<g id="a_edge15_Node000014_Node000016"><a xlink:title=" ">
<path fill="none" stroke="#63b8ff" d="M147.81,-267.84C138.24,-269.41 128.53,-271.02 119.25,-272.55"/>
<polygon fill="#63b8ff" stroke="#63b8ff" points="148.41,-271.28 157.7,-266.2 147.27,-264.38 148.41,-271.28"/>
</a>
</g>
</g>
<!-- Node14&#45;&gt;Node17 -->
<g id="edge16_Node000014_Node000017" class="edge">
<title>Node14&#45;&gt;Node17</title>
<g id="a_edge16_Node000014_Node000017"><a xlink:title=" ">
<path fill="none" stroke="#63b8ff" d="M147.71,-241.87C137.65,-239.89 127.43,-237.88 117.73,-235.97"/>
<polygon fill="#63b8ff" stroke="#63b8ff" points="147.22,-245.34 157.7,-243.84 148.57,-238.47 147.22,-245.34"/>
</a>
</g>
</g>
<!-- Node18&#45;&gt;Node19 -->
<g id="edge18_Node000018_Node000019" class="edge">
<title>Node18&#45;&gt;Node19</title>
<g id="a_edge18_Node000018_Node000019"><a xlink:title=" ">
<path fill="none" stroke="#63b8ff" d="M184.88,-114.24C166.44,-124.75 143.24,-137.55 122,-148 114.46,-151.71 106.27,-155.45 98.43,-158.89"/>
<polygon fill="#63b8ff" stroke="#63b8ff" points="186.86,-117.15 193.79,-109.13 183.38,-111.07 186.86,-117.15"/>
</a>
</g>
</g>
<!-- Node18&#45;&gt;Node20 -->
<g id="edge19_Node000018_Node000020" class="edge">
<title>Node18&#45;&gt;Node20</title>
<g id="a_edge19_Node000018_Node000020"><a xlink:title=" ">
<path fill="none" stroke="#63b8ff" d="M147.71,-107.67C139.14,-109.31 130.46,-110.96 122.07,-112.56"/>
<polygon fill="#63b8ff" stroke="#63b8ff" points="148.54,-111.08 157.7,-105.77 147.23,-104.2 148.54,-111.08"/>
</a>
</g>
</g>
<!-- Node18&#45;&gt;Node21 -->
<g id="edge20_Node000018_Node000021" class="edge">
<title>Node18&#45;&gt;Node21</title>
<g id="a_edge20_Node000018_Node000021"><a xlink:title=" ">
<path fill="none" stroke="#63b8ff" d="M147.71,-83.97C139.14,-82.78 130.46,-81.56 122.07,-80.39"/>
<polygon fill="#63b8ff" stroke="#63b8ff" points="147.32,-87.45 157.7,-85.37 148.28,-80.52 147.32,-87.45"/>
</a>
</g>
</g>
<!-- Node18&#45;&gt;Node22 -->
<g id="edge21_Node000018_Node000022" class="edge">
<title>Node18&#45;&gt;Node22</title>
<g id="a_edge21_Node000018_Node000022"><a xlink:title=" ">
<path fill="none" stroke="#63b8ff" d="M180.25,-74.31C152.98,-60.63 117.19,-42.68 92.15,-30.12"/>
<polygon fill="#63b8ff" stroke="#63b8ff" points="179,-77.6 189.5,-78.95 182.14,-71.34 179,-77.6"/>
</a>
</g>
</g>
</g>
</svg>
