<?xml version="1.0" encoding="UTF-8" standalone="no"?>
<!DOCTYPE svg PUBLIC "-//W3C//DTD SVG 1.1//EN"
 "http://www.w3.org/Graphics/SVG/1.1/DTD/svg11.dtd">
<!-- Generated by graphviz version 2.43.0 (0)
 -->
<!-- Title: design_pattern::behavioral::iterator::ConcreteIterator Pages: 1 -->
<svg width="714pt" height="98pt"
 viewBox="0.00 0.00 714.00 97.50" xmlns="http://www.w3.org/2000/svg" xmlns:xlink="http://www.w3.org/1999/xlink">
<g id="graph0" class="graph" transform="scale(1 1) rotate(0) translate(4 93.5)">
<title>design_pattern::behavioral::iterator::ConcreteIterator</title>
<!-- Node1 -->
<g id="Node000001" class="node">
<title>Node1</title>
<g id="a_Node000001"><a xlink:title="The concrete iterator.">
<polygon fill="#999999" stroke="#666666" points="706,-62.5 559,-62.5 559,-32.5 706,-32.5 706,-62.5"/>
<text text-anchor="start" x="567" y="-50.5" font-family="Helvetica,sans-Serif" font-size="10.00">design_pattern::behavioral</text>
<text text-anchor="middle" x="632.5" y="-39.5" font-family="Helvetica,sans-Serif" font-size="10.00">::iterator::ConcreteIterator</text>
</a>
</g>
</g>
<!-- Node2 -->
<g id="Node000002" class="node">
<title>Node2</title>
<g id="a_Node000002"><a xlink:href="../../d7/d7d/classdesign__pattern_1_1behavioral_1_1iterator_1_1Iterator.html" target="_top" xlink:title="Manage the current index of the iterator. A set of methods for traversing over items.">
<polygon fill="white" stroke="#666666" points="495.5,-89.5 348.5,-89.5 348.5,-59.5 495.5,-59.5 495.5,-89.5"/>
<text text-anchor="start" x="356.5" y="-77.5" font-family="Helvetica,sans-Serif" font-size="10.00">design_pattern::behavioral</text>
<text text-anchor="middle" x="422" y="-66.5" font-family="Helvetica,sans-Serif" font-size="10.00">::iterator::Iterator</text>
</a>
</g>
</g>
<!-- Node2&#45;&gt;Node1 -->
<g id="edge1_Node000001_Node000002" class="edge">
<title>Node2&#45;&gt;Node1</title>
<g id="a_edge1_Node000001_Node000002"><a xlink:title=" ">
<path fill="none" stroke="#63b8ff" d="M505.82,-63.77C523.33,-61.51 541.68,-59.13 558.78,-56.92"/>
<polygon fill="#63b8ff" stroke="#63b8ff" points="505.1,-60.34 495.63,-65.09 506,-67.28 505.1,-60.34"/>
</a>
</g>
</g>
<!-- Node3 -->
<g id="Node000003" class="node">
<title>Node3</title>
<g id="a_Node000003"><a target="_parent" xlink:href="https://gcc.gnu.org/onlinedocs/gcc-12.3.0/libstdc++/api/a07571.html" xlink:title=" ">
<polygon fill="white" stroke="#666666" points="504,-41 340,-41 340,0 504,0 504,-41"/>
<text text-anchor="start" x="348" y="-29" font-family="Helvetica,sans-Serif" font-size="10.00">std::shared_ptr&lt; design</text>
<text text-anchor="start" x="348" y="-18" font-family="Helvetica,sans-Serif" font-size="10.00">_pattern::behavioral::</text>
<text text-anchor="middle" x="422" y="-7" font-family="Helvetica,sans-Serif" font-size="10.00">iterator::ConcreteAggregate &gt;</text>
</a>
</g>
</g>
<!-- Node3&#45;&gt;Node1 -->
<g id="edge2_Node000001_Node000003" class="edge">
<title>Node3&#45;&gt;Node1</title>
<g id="a_edge2_Node000001_Node000003"><a xlink:title=" ">
<path fill="none" stroke="#9a32cd" stroke-dasharray="5,2" d="M514.39,-32.34C529.21,-34.25 544.37,-36.22 558.67,-38.07"/>
<polygon fill="#9a32cd" stroke="#9a32cd" points="514.58,-28.83 504.21,-31.02 513.68,-35.77 514.58,-28.83"/>
</a>
</g>
<text text-anchor="middle" x="531.5" y="-39.5" font-family="Helvetica,sans-Serif" font-size="10.00" fill="grey"> list</text>
</g>
<!-- Node4 -->
<g id="Node000004" class="node">
<title>Node4</title>
<g id="a_Node000004"><a target="_parent" xlink:href="https://gcc.gnu.org/onlinedocs/gcc-12.3.0/libstdc++/api/a07571.html" xlink:title=" ">
<polygon fill="white" stroke="#666666" points="150,-35.5 0,-35.5 0,-5.5 150,-5.5 150,-35.5"/>
<text text-anchor="start" x="8" y="-23.5" font-family="Helvetica,sans-Serif" font-size="10.00">std::shared_ptr&lt; typename</text>
<text text-anchor="middle" x="75" y="-12.5" font-family="Helvetica,sans-Serif" font-size="10.00"> _Tp &gt;</text>
</a>
</g>
</g>
<!-- Node4&#45;&gt;Node3 -->
<g id="edge3_Node000003_Node000004" class="edge">
<title>Node4&#45;&gt;Node3</title>
<g id="a_edge3_Node000003_Node000004"><a xlink:title=" ">
<path fill="none" stroke="orange" stroke-dasharray="5,2" d="M160.03,-20.5C214.75,-20.5 285.75,-20.5 339.88,-20.5"/>
<polygon fill="orange" stroke="orange" points="160.01,-17 150.01,-20.5 160.01,-24 160.01,-17"/>
</a>
</g>
<text text-anchor="start" x="168" y="-34.5" font-family="Helvetica,sans-Serif" font-size="10.00" fill="grey"> &lt; design_pattern::behavioral</text>
<text text-anchor="middle" x="245" y="-23.5" font-family="Helvetica,sans-Serif" font-size="10.00" fill="grey">::iterator::ConcreteAggregate &gt;</text>
</g>
</g>
</svg>
