<?xml version="1.0" encoding="UTF-8" standalone="no"?>
<!DOCTYPE svg PUBLIC "-//W3C//DTD SVG 1.1//EN"
 "http://www.w3.org/Graphics/SVG/1.1/DTD/svg11.dtd">
<!-- Generated by graphviz version 2.43.0 (0)
 -->
<!-- Title: application::app_num::getTaskNameCurried Pages: 1 -->
<svg width="291pt" height="182pt"
 viewBox="0.00 0.00 291.00 182.00" xmlns="http://www.w3.org/2000/svg" xmlns:xlink="http://www.w3.org/1999/xlink">
<g id="graph0" class="graph" transform="scale(1 1) rotate(0) translate(4 178)">
<title>application::app_num::getTaskNameCurried</title>
<!-- Node1 -->
<g id="Node000001" class="node">
<title>Node1</title>
<g id="a_Node000001"><a xlink:title="Get the task name curried.">
<polygon fill="#999999" stroke="#666666" points="283,-102 158,-102 158,-72 283,-72 283,-102"/>
<text text-anchor="start" x="166" y="-90" font-family="Helvetica,sans-Serif" font-size="10.00">application::app_num</text>
<text text-anchor="middle" x="220.5" y="-79" font-family="Helvetica,sans-Serif" font-size="10.00">::getTaskNameCurried</text>
</a>
</g>
</g>
<!-- Node2 -->
<g id="Node000002" class="node">
<title>Node2</title>
<g id="a_Node000002"><a xlink:href="../../de/dbe/namespaceapplication_1_1app__num.html#a76b424f8e3b3a6445fc56f41c37afa1d" target="_top" xlink:title="Run arithmetic tasks.">
<polygon fill="white" stroke="#666666" points="122,-174 0,-174 0,-144 122,-144 122,-174"/>
<text text-anchor="start" x="8" y="-162" font-family="Helvetica,sans-Serif" font-size="10.00">application::app_num</text>
<text text-anchor="middle" x="61" y="-151" font-family="Helvetica,sans-Serif" font-size="10.00">::runArithmeticTasks</text>
</a>
</g>
</g>
<!-- Node1&#45;&gt;Node2 -->
<g id="edge1_Node000001_Node000002" class="edge">
<title>Node1&#45;&gt;Node2</title>
<g id="a_edge1_Node000001_Node000002"><a xlink:title=" ">
<path fill="none" stroke="#63b8ff" d="M181.37,-106.62C163.49,-115.6 141.81,-126.18 122,-135 115.24,-138.01 107.97,-141.07 100.91,-143.94"/>
<polygon fill="#63b8ff" stroke="#63b8ff" points="182.99,-109.72 190.34,-102.09 179.84,-103.47 182.99,-109.72"/>
</a>
</g>
</g>
<!-- Node3 -->
<g id="Node000003" class="node">
<title>Node3</title>
<g id="a_Node000003"><a xlink:href="../../de/dbe/namespaceapplication_1_1app__num.html#a45c0729aaa51fd36c4ddd79758b88a6a" target="_top" xlink:title="Run divisor tasks.">
<polygon fill="white" stroke="#666666" points="122,-126 0,-126 0,-96 122,-96 122,-126"/>
<text text-anchor="start" x="8" y="-114" font-family="Helvetica,sans-Serif" font-size="10.00">application::app_num</text>
<text text-anchor="middle" x="61" y="-103" font-family="Helvetica,sans-Serif" font-size="10.00">::runDivisorTasks</text>
</a>
</g>
</g>
<!-- Node1&#45;&gt;Node3 -->
<g id="edge2_Node000001_Node000003" class="edge">
<title>Node1&#45;&gt;Node3</title>
<g id="a_edge2_Node000001_Node000003"><a xlink:title=" ">
<path fill="none" stroke="#63b8ff" d="M147.71,-97.94C139.14,-99.25 130.46,-100.57 122.07,-101.85"/>
<polygon fill="#63b8ff" stroke="#63b8ff" points="148.35,-101.38 157.7,-96.42 147.29,-94.46 148.35,-101.38"/>
</a>
</g>
</g>
<!-- Node4 -->
<g id="Node000004" class="node">
<title>Node4</title>
<g id="a_Node000004"><a xlink:href="../../de/dbe/namespaceapplication_1_1app__num.html#a8f6bdfbd61df7461f8dec4cc6e1db146" target="_top" xlink:title="Run integral tasks.">
<polygon fill="white" stroke="#666666" points="122,-78 0,-78 0,-48 122,-48 122,-78"/>
<text text-anchor="start" x="8" y="-66" font-family="Helvetica,sans-Serif" font-size="10.00">application::app_num</text>
<text text-anchor="middle" x="61" y="-55" font-family="Helvetica,sans-Serif" font-size="10.00">::runIntegralTasks</text>
</a>
</g>
</g>
<!-- Node1&#45;&gt;Node4 -->
<g id="edge3_Node000001_Node000004" class="edge">
<title>Node1&#45;&gt;Node4</title>
<g id="a_edge3_Node000001_Node000004"><a xlink:title=" ">
<path fill="none" stroke="#63b8ff" d="M147.71,-76.06C139.14,-74.75 130.46,-73.43 122.07,-72.15"/>
<polygon fill="#63b8ff" stroke="#63b8ff" points="147.29,-79.54 157.7,-77.58 148.35,-72.62 147.29,-79.54"/>
</a>
</g>
</g>
<!-- Node5 -->
<g id="Node000005" class="node">
<title>Node5</title>
<g id="a_Node000005"><a xlink:href="../../de/dbe/namespaceapplication_1_1app__num.html#a7fcb02610a31797f6736b02a36617a1b" target="_top" xlink:title="Run prime tasks.">
<polygon fill="white" stroke="#666666" points="122,-30 0,-30 0,0 122,0 122,-30"/>
<text text-anchor="start" x="8" y="-18" font-family="Helvetica,sans-Serif" font-size="10.00">application::app_num</text>
<text text-anchor="middle" x="61" y="-7" font-family="Helvetica,sans-Serif" font-size="10.00">::runPrimeTasks</text>
</a>
</g>
</g>
<!-- Node1&#45;&gt;Node5 -->
<g id="edge4_Node000001_Node000005" class="edge">
<title>Node1&#45;&gt;Node5</title>
<g id="a_edge4_Node000001_Node000005"><a xlink:title=" ">
<path fill="none" stroke="#63b8ff" d="M181.37,-67.38C163.49,-58.4 141.81,-47.82 122,-39 115.24,-35.99 107.97,-32.93 100.91,-30.06"/>
<polygon fill="#63b8ff" stroke="#63b8ff" points="179.84,-70.53 190.34,-71.91 182.99,-64.28 179.84,-70.53"/>
</a>
</g>
</g>
</g>
</svg>
