<?xml version="1.0" encoding="UTF-8" standalone="no"?>
<!DOCTYPE svg PUBLIC "-//W3C//DTD SVG 1.1//EN"
 "http://www.w3.org/Graphics/SVG/1.1/DTD/svg11.dtd">
<!-- Generated by graphviz version 2.43.0 (0)
 -->
<!-- Title: design_pattern::behavioral::visitor::ConcreteElementA Pages: 1 -->
<svg width="691pt" height="86pt"
 viewBox="0.00 0.00 691.00 86.00" xmlns="http://www.w3.org/2000/svg" xmlns:xlink="http://www.w3.org/1999/xlink">
<g id="graph0" class="graph" transform="scale(1 1) rotate(0) translate(4 82)">
<title>design_pattern::behavioral::visitor::ConcreteElementA</title>
<!-- Node1 -->
<g id="Node000001" class="node">
<title>Node1</title>
<g id="a_Node000001"><a xlink:title="The concrete element.">
<polygon fill="#999999" stroke="#666666" points="683,-54 533,-54 533,-24 683,-24 683,-54"/>
<text text-anchor="start" x="541" y="-42" font-family="Helvetica,sans-Serif" font-size="10.00">design_pattern::behavioral</text>
<text text-anchor="middle" x="608" y="-31" font-family="Helvetica,sans-Serif" font-size="10.00">::visitor::ConcreteElementA</text>
</a>
</g>
</g>
<!-- Node2 -->
<g id="Node000002" class="node">
<title>Node2</title>
<g id="a_Node000002"><a xlink:href="../../d4/d81/classdesign__pattern_1_1behavioral_1_1visitor_1_1Element.html" target="_top" xlink:title="Implement the accept operation that takes a visitor as an argument.">
<polygon fill="white" stroke="#666666" points="478.5,-78 331.5,-78 331.5,-48 478.5,-48 478.5,-78"/>
<text text-anchor="start" x="339.5" y="-66" font-family="Helvetica,sans-Serif" font-size="10.00">design_pattern::behavioral</text>
<text text-anchor="middle" x="405" y="-55" font-family="Helvetica,sans-Serif" font-size="10.00">::visitor::Element</text>
</a>
</g>
</g>
<!-- Node2&#45;&gt;Node1 -->
<g id="edge1_Node000001_Node000002" class="edge">
<title>Node2&#45;&gt;Node1</title>
<g id="a_edge1_Node000001_Node000002"><a xlink:title=" ">
<path fill="none" stroke="#63b8ff" d="M488.61,-53.14C503.27,-51.39 518.45,-49.57 532.85,-47.85"/>
<polygon fill="#63b8ff" stroke="#63b8ff" points="488.08,-49.67 478.57,-54.34 488.91,-56.63 488.08,-49.67"/>
</a>
</g>
</g>
<!-- Node3 -->
<g id="Node000003" class="node">
<title>Node3</title>
<g id="a_Node000003"><a target="_parent" xlink:href="https://gcc.gnu.org/onlinedocs/gcc-12.3.0/libstdc++/api/a07595.html" xlink:title=" ">
<polygon fill="white" stroke="#666666" points="496,-30 314,-30 314,0 496,0 496,-30"/>
<text text-anchor="start" x="322" y="-18" font-family="Helvetica,sans-Serif" font-size="10.00">std::enable_shared</text>
<text text-anchor="middle" x="405" y="-7" font-family="Helvetica,sans-Serif" font-size="10.00">_from_this&lt; ConcreteElementA &gt;</text>
</a>
</g>
</g>
<!-- Node3&#45;&gt;Node1 -->
<g id="edge2_Node000001_Node000003" class="edge">
<title>Node3&#45;&gt;Node1</title>
<g id="a_edge2_Node000001_Node000003"><a xlink:title=" ">
<path fill="none" stroke="#63b8ff" d="M506.26,-26.97C515.17,-28.04 524.09,-29.1 532.73,-30.13"/>
<polygon fill="#63b8ff" stroke="#63b8ff" points="506.56,-23.48 496.21,-25.77 505.73,-30.43 506.56,-23.48"/>
</a>
</g>
</g>
<!-- Node4 -->
<g id="Node000004" class="node">
<title>Node4</title>
<g id="a_Node000004"><a target="_parent" xlink:href="https://gcc.gnu.org/onlinedocs/gcc-12.3.0/libstdc++/api/a07595.html" xlink:title=" ">
<polygon fill="white" stroke="#666666" points="161,-30 0,-30 0,0 161,0 161,-30"/>
<text text-anchor="start" x="8" y="-18" font-family="Helvetica,sans-Serif" font-size="10.00">std::enable_shared</text>
<text text-anchor="middle" x="80.5" y="-7" font-family="Helvetica,sans-Serif" font-size="10.00">_from_this&lt; typename _Tp &gt;</text>
</a>
</g>
</g>
<!-- Node4&#45;&gt;Node3 -->
<g id="edge3_Node000003_Node000004" class="edge">
<title>Node4&#45;&gt;Node3</title>
<g id="a_edge3_Node000003_Node000004"><a xlink:title=" ">
<path fill="none" stroke="orange" stroke-dasharray="5,2" d="M171.43,-15C215.86,-15 269.35,-15 313.82,-15"/>
<polygon fill="orange" stroke="orange" points="171.22,-11.5 161.22,-15 171.22,-18.5 171.22,-11.5"/>
</a>
</g>
<text text-anchor="middle" x="237.5" y="-18" font-family="Helvetica,sans-Serif" font-size="10.00" fill="grey"> &lt; ConcreteElementA &gt;</text>
</g>
</g>
</svg>
