<?xml version="1.0" encoding="UTF-8" standalone="no"?>
<!DOCTYPE svg PUBLIC "-//W3C//DTD SVG 1.1//EN"
 "http://www.w3.org/Graphics/SVG/1.1/DTD/svg11.dtd">
<!-- Generated by graphviz version 2.43.0 (0)
 -->
<!-- Title: application::app_dp::creational::Creational::abstractFactory Pages: 1 -->
<svg width="334pt" height="86pt"
 viewBox="0.00 0.00 334.00 86.00" xmlns="http://www.w3.org/2000/svg" xmlns:xlink="http://www.w3.org/1999/xlink">
<g id="graph0" class="graph" transform="scale(1 1) rotate(0) translate(4 82)">
<title>application::app_dp::creational::Creational::abstractFactory</title>
<!-- Node1 -->
<g id="Node000001" class="node">
<title>Node1</title>
<g id="a_Node000001"><a xlink:title="Abstract factory.">
<polygon fill="#999999" stroke="#666666" points="326,-54 198,-54 198,-13 326,-13 326,-54"/>
<text text-anchor="start" x="206" y="-42" font-family="Helvetica,sans-Serif" font-size="10.00">application::app_dp</text>
<text text-anchor="start" x="206" y="-31" font-family="Helvetica,sans-Serif" font-size="10.00">::creational::Creational</text>
<text text-anchor="middle" x="262" y="-20" font-family="Helvetica,sans-Serif" font-size="10.00">::abstractFactory</text>
</a>
</g>
</g>
<!-- Node2 -->
<g id="Node000002" class="node">
<title>Node2</title>
<g id="a_Node000002"><a xlink:href="../../da/daf/classapplication_1_1app__dp_1_1creational_1_1CreationalPattern.html#a59701498fc8cf642be87c40389168ce9" target="_top" xlink:title="The abstract factory instance.">
<polygon fill="white" stroke="#666666" points="162,-78 0,-78 0,-37 162,-37 162,-78"/>
<text text-anchor="start" x="8" y="-66" font-family="Helvetica,sans-Serif" font-size="10.00">application::app_dp</text>
<text text-anchor="start" x="8" y="-55" font-family="Helvetica,sans-Serif" font-size="10.00">::creational::CreationalPattern</text>
<text text-anchor="middle" x="81" y="-44" font-family="Helvetica,sans-Serif" font-size="10.00">::abstractFactoryInstance</text>
</a>
</g>
</g>
<!-- Node1&#45;&gt;Node2 -->
<g id="edge1_Node000001_Node000002" class="edge">
<title>Node1&#45;&gt;Node2</title>
<g id="a_edge1_Node000001_Node000002"><a xlink:title=" ">
<path fill="none" stroke="#63b8ff" d="M187.71,-43.33C179.27,-44.46 170.63,-45.62 162.1,-46.76"/>
<polygon fill="#63b8ff" stroke="#63b8ff" points="188.45,-46.76 197.89,-41.96 187.51,-39.82 188.45,-46.76"/>
</a>
</g>
</g>
<!-- Node3 -->
<g id="Node000003" class="node">
<title>Node3</title>
<g id="a_Node000003"><a xlink:href="../../d5/ddd/namespacetest_1_1tst__dp.html#ac3b9523ea19be9f1afa5e6cfeb2d8737" target="_top" xlink:title="Test for the abstract factory instance in the pattern of creational.">
<polygon fill="white" stroke="#666666" points="137.5,-19 24.5,-19 24.5,0 137.5,0 137.5,-19"/>
<text text-anchor="middle" x="81" y="-7" font-family="Helvetica,sans-Serif" font-size="10.00">test::tst_dp::TEST_F</text>
</a>
</g>
</g>
<!-- Node1&#45;&gt;Node3 -->
<g id="edge2_Node000001_Node000003" class="edge">
<title>Node1&#45;&gt;Node3</title>
<g id="a_edge2_Node000001_Node000003"><a xlink:title=" ">
<path fill="none" stroke="#63b8ff" d="M187.63,-23.66C170.95,-21.43 153.5,-19.09 137.69,-16.97"/>
<polygon fill="#63b8ff" stroke="#63b8ff" points="187.51,-27.18 197.89,-25.04 188.45,-20.24 187.51,-27.18"/>
</a>
</g>
</g>
</g>
</svg>
