<?xml version="1.0" encoding="UTF-8" standalone="no"?>
<!DOCTYPE svg PUBLIC "-//W3C//DTD SVG 1.1//EN"
 "http://www.w3.org/Graphics/SVG/1.1/DTD/svg11.dtd">
<!-- Generated by graphviz version 2.43.0 (0)
 -->
<!-- Title: algorithm/include/optimal.hpp Pages: 1 -->
<svg width="967pt" height="236pt"
 viewBox="0.00 0.00 966.50 236.00" xmlns="http://www.w3.org/2000/svg" xmlns:xlink="http://www.w3.org/1999/xlink">
<g id="graph0" class="graph" transform="scale(1 1) rotate(0) translate(4 232)">
<title>algorithm/include/optimal.hpp</title>
<!-- Node1 -->
<g id="Node000001" class="node">
<title>Node1</title>
<g id="a_Node000001"><a xlink:title="The declarations (optimal) in the algorithm module.">
<polygon fill="#999999" stroke="#666666" points="336,-228 172,-228 172,-209 336,-209 336,-228"/>
<text text-anchor="middle" x="254" y="-216" font-family="Helvetica,sans-Serif" font-size="10.00">algorithm/include/optimal.hpp</text>
</a>
</g>
</g>
<!-- Node2 -->
<g id="Node000002" class="node">
<title>Node2</title>
<g id="a_Node000002"><a xlink:href="../../d2/dc4/optimal_8cpp.html" target="_top" xlink:title="The definitions (optimal) in the algorithm module.">
<polygon fill="white" stroke="#666666" points="160,-167.5 0,-167.5 0,-148.5 160,-148.5 160,-167.5"/>
<text text-anchor="middle" x="80" y="-155.5" font-family="Helvetica,sans-Serif" font-size="10.00">algorithm/source/optimal.cpp</text>
</a>
</g>
</g>
<!-- Node1&#45;&gt;Node2 -->
<g id="edge1_Node000001_Node000002" class="edge">
<title>Node1&#45;&gt;Node2</title>
<g id="a_edge1_Node000001_Node000002"><a xlink:title=" ">
<path fill="none" stroke="#63b8ff" d="M218.82,-205.67C185.17,-194.36 135.24,-177.57 105.33,-167.52"/>
<polygon fill="#63b8ff" stroke="#63b8ff" points="218.1,-209.12 228.7,-208.99 220.34,-202.49 218.1,-209.12"/>
</a>
</g>
</g>
<!-- Node3 -->
<g id="Node000003" class="node">
<title>Node3</title>
<g id="a_Node000003"><a xlink:href="../../d9/daf/apply__algorithm_8hpp.html" target="_top" xlink:title="The declarations (apply_algorithm) in the application module.">
<polygon fill="white" stroke="#666666" points="387,-173 229,-173 229,-143 387,-143 387,-173"/>
<text text-anchor="start" x="237" y="-161" font-family="Helvetica,sans-Serif" font-size="10.00">application/example</text>
<text text-anchor="middle" x="308" y="-150" font-family="Helvetica,sans-Serif" font-size="10.00">/include/apply_algorithm.hpp</text>
</a>
</g>
</g>
<!-- Node1&#45;&gt;Node3 -->
<g id="edge2_Node000001_Node000003" class="edge">
<title>Node1&#45;&gt;Node3</title>
<g id="a_edge2_Node000001_Node000003"><a xlink:title=" ">
<path fill="none" stroke="#63b8ff" d="M268.84,-201.43C277.02,-192.56 287.09,-181.65 294.97,-173.11"/>
<polygon fill="#63b8ff" stroke="#63b8ff" points="266.18,-199.15 261.97,-208.87 271.32,-203.89 266.18,-199.15"/>
</a>
</g>
</g>
<!-- Node7 -->
<g id="Node000007" class="node">
<title>Node7</title>
<g id="a_Node000007"><a xlink:href="../../d8/d64/apply__algorithm_8cpp.html" target="_top" xlink:title="The definitions (apply_algorithm) in the application module.">
<polygon fill="white" stroke="#666666" points="163.5,-35.5 8.5,-35.5 8.5,-5.5 163.5,-5.5 163.5,-35.5"/>
<text text-anchor="start" x="16.5" y="-23.5" font-family="Helvetica,sans-Serif" font-size="10.00">application/example</text>
<text text-anchor="middle" x="86" y="-12.5" font-family="Helvetica,sans-Serif" font-size="10.00">/source/apply_algorithm.cpp</text>
</a>
</g>
</g>
<!-- Node1&#45;&gt;Node7 -->
<g id="edge12_Node000001_Node000007" class="edge">
<title>Node1&#45;&gt;Node7</title>
<g id="a_edge12_Node000001_Node000007"><a xlink:title=" ">
<path fill="none" stroke="#63b8ff" d="M239.69,-200.8C207.18,-162.87 128.24,-70.78 98.03,-35.54"/>
<polygon fill="#63b8ff" stroke="#63b8ff" points="237.4,-203.51 246.56,-208.83 242.71,-198.95 237.4,-203.51"/>
</a>
</g>
</g>
<!-- Node11 -->
<g id="Node000011" class="node">
<title>Node11</title>
<g id="a_Node000011"><a xlink:href="../../df/de8/test__algorithm_8cpp.html" target="_top" xlink:title="The definitions (test_algorithm) in the test module.">
<polygon fill="white" stroke="#666666" points="558,-101.5 406,-101.5 406,-82.5 558,-82.5 558,-101.5"/>
<text text-anchor="middle" x="482" y="-89.5" font-family="Helvetica,sans-Serif" font-size="10.00">test/unit/test_algorithm.cpp</text>
</a>
</g>
</g>
<!-- Node1&#45;&gt;Node11 -->
<g id="edge13_Node000001_Node000011" class="edge">
<title>Node1&#45;&gt;Node11</title>
<g id="a_edge13_Node000001_Node000011"><a xlink:title=" ">
<path fill="none" stroke="#63b8ff" d="M308.19,-206.55C335.7,-199.53 368.94,-188.72 396,-173 429.85,-153.33 461.3,-118.16 474.91,-101.81"/>
<polygon fill="#63b8ff" stroke="#63b8ff" points="307.21,-203.19 298.33,-208.97 308.87,-209.99 307.21,-203.19"/>
</a>
</g>
</g>
<!-- Node4 -->
<g id="Node000004" class="node">
<title>Node4</title>
<g id="a_Node000004"><a xlink:href="../../d7/dc7/command_8hpp.html" target="_top" xlink:title="The declarations (command) in the application module.">
<polygon fill="white" stroke="#666666" points="387.5,-107 254.5,-107 254.5,-77 387.5,-77 387.5,-107"/>
<text text-anchor="start" x="262.5" y="-95" font-family="Helvetica,sans-Serif" font-size="10.00">application/core/include</text>
<text text-anchor="middle" x="321" y="-84" font-family="Helvetica,sans-Serif" font-size="10.00">/command.hpp</text>
</a>
</g>
</g>
<!-- Node3&#45;&gt;Node4 -->
<g id="edge3_Node000003_Node000004" class="edge">
<title>Node3&#45;&gt;Node4</title>
<g id="a_edge3_Node000003_Node000004"><a xlink:title=" ">
<path fill="none" stroke="#63b8ff" d="M312.91,-132.83C314.67,-124.17 316.59,-114.7 318.12,-107.16"/>
<polygon fill="#63b8ff" stroke="#63b8ff" points="309.45,-132.3 310.89,-142.8 316.31,-133.69 309.45,-132.3"/>
</a>
</g>
</g>
<!-- Node3&#45;&gt;Node7 -->
<g id="edge10_Node000003_Node000007" class="edge">
<title>Node3&#45;&gt;Node7</title>
<g id="a_edge10_Node000003_Node000007"><a xlink:title=" ">
<path fill="none" stroke="#63b8ff" d="M282.28,-136.65C256.36,-116.32 218,-86.73 202,-77 175.49,-60.88 143.57,-45.9 119.93,-35.58"/>
<polygon fill="#63b8ff" stroke="#63b8ff" points="280.18,-139.45 290.21,-142.88 284.51,-133.95 280.18,-139.45"/>
</a>
</g>
</g>
<!-- Node3&#45;&gt;Node11 -->
<g id="edge11_Node000003_Node000011" class="edge">
<title>Node3&#45;&gt;Node11</title>
<g id="a_edge11_Node000003_Node000011"><a xlink:title=" ">
<path fill="none" stroke="#63b8ff" d="M355.8,-139.42C389.32,-127.09 432.66,-111.15 458.84,-101.52"/>
<polygon fill="#63b8ff" stroke="#63b8ff" points="354.36,-136.22 346.19,-142.95 356.78,-142.79 354.36,-136.22"/>
</a>
</g>
</g>
<!-- Node5 -->
<g id="Node000005" class="node">
<title>Node5</title>
<g id="a_Node000005"><a xlink:href="../../d1/d81/command_8cpp.html" target="_top" xlink:title="The definitions (command) in the application module.">
<polygon fill="white" stroke="#666666" points="312,-35.5 182,-35.5 182,-5.5 312,-5.5 312,-35.5"/>
<text text-anchor="start" x="190" y="-23.5" font-family="Helvetica,sans-Serif" font-size="10.00">application/core/source</text>
<text text-anchor="middle" x="247" y="-12.5" font-family="Helvetica,sans-Serif" font-size="10.00">/command.cpp</text>
</a>
</g>
</g>
<!-- Node4&#45;&gt;Node5 -->
<g id="edge4_Node000004_Node000005" class="edge">
<title>Node4&#45;&gt;Node5</title>
<g id="a_edge4_Node000004_Node000005"><a xlink:title=" ">
<path fill="none" stroke="#63b8ff" d="M298.63,-69.99C286.75,-58.84 272.48,-45.43 261.95,-35.54"/>
<polygon fill="#63b8ff" stroke="#63b8ff" points="296.34,-72.64 306.02,-76.94 301.13,-67.54 296.34,-72.64"/>
</a>
</g>
</g>
<!-- Node6 -->
<g id="Node000006" class="node">
<title>Node6</title>
<g id="a_Node000006"><a xlink:href="../../df/d92/application_2core_2source_2main_8cpp.html" target="_top" xlink:title="The definitions (main) in the application module.">
<polygon fill="white" stroke="#666666" points="460,-35.5 330,-35.5 330,-5.5 460,-5.5 460,-35.5"/>
<text text-anchor="start" x="338" y="-23.5" font-family="Helvetica,sans-Serif" font-size="10.00">application/core/source</text>
<text text-anchor="middle" x="395" y="-12.5" font-family="Helvetica,sans-Serif" font-size="10.00">/main.cpp</text>
</a>
</g>
</g>
<!-- Node4&#45;&gt;Node6 -->
<g id="edge5_Node000004_Node000006" class="edge">
<title>Node4&#45;&gt;Node6</title>
<g id="a_edge5_Node000004_Node000006"><a xlink:title=" ">
<path fill="none" stroke="#63b8ff" d="M343.37,-69.99C355.25,-58.84 369.52,-45.43 380.05,-35.54"/>
<polygon fill="#63b8ff" stroke="#63b8ff" points="340.87,-67.54 335.98,-76.94 345.66,-72.64 340.87,-67.54"/>
</a>
</g>
</g>
<!-- Node4&#45;&gt;Node7 -->
<g id="edge6_Node000004_Node000007" class="edge">
<title>Node4&#45;&gt;Node7</title>
<g id="a_edge6_Node000004_Node000007"><a xlink:title=" ">
<path fill="none" stroke="#63b8ff" d="M263.84,-74.09C223.87,-62.28 171.13,-46.68 133.49,-35.54"/>
<polygon fill="#63b8ff" stroke="#63b8ff" points="262.86,-77.46 273.44,-76.94 264.85,-70.74 262.86,-77.46"/>
</a>
</g>
</g>
<!-- Node8 -->
<g id="Node000008" class="node">
<title>Node8</title>
<g id="a_Node000008"><a xlink:href="../../d1/d3d/apply__data__structure_8cpp.html" target="_top" xlink:title="The definitions (apply_data_structure) in the application module.">
<polygon fill="white" stroke="#666666" points="656,-35.5 478,-35.5 478,-5.5 656,-5.5 656,-35.5"/>
<text text-anchor="start" x="486" y="-23.5" font-family="Helvetica,sans-Serif" font-size="10.00">application/example</text>
<text text-anchor="middle" x="567" y="-12.5" font-family="Helvetica,sans-Serif" font-size="10.00">/source/apply_data_structure.cpp</text>
</a>
</g>
</g>
<!-- Node4&#45;&gt;Node8 -->
<g id="edge7_Node000004_Node000008" class="edge">
<title>Node4&#45;&gt;Node8</title>
<g id="a_edge7_Node000004_Node000008"><a xlink:title=" ">
<path fill="none" stroke="#63b8ff" d="M380.58,-74.17C422.44,-62.34 477.8,-46.7 517.29,-35.54"/>
<polygon fill="#63b8ff" stroke="#63b8ff" points="379.45,-70.85 370.78,-76.94 381.36,-77.58 379.45,-70.85"/>
</a>
</g>
</g>
<!-- Node9 -->
<g id="Node000009" class="node">
<title>Node9</title>
<g id="a_Node000009"><a xlink:href="../../de/d6b/apply__design__pattern_8cpp.html" target="_top" xlink:title="The definitions (apply_design_pattern) in the application module.">
<polygon fill="white" stroke="#666666" points="793.5,-41 674.5,-41 674.5,0 793.5,0 793.5,-41"/>
<text text-anchor="start" x="682.5" y="-29" font-family="Helvetica,sans-Serif" font-size="10.00">application/example</text>
<text text-anchor="start" x="682.5" y="-18" font-family="Helvetica,sans-Serif" font-size="10.00">/source/apply_design</text>
<text text-anchor="middle" x="734" y="-7" font-family="Helvetica,sans-Serif" font-size="10.00">_pattern.cpp</text>
</a>
</g>
</g>
<!-- Node4&#45;&gt;Node9 -->
<g id="edge8_Node000004_Node000009" class="edge">
<title>Node4&#45;&gt;Node9</title>
<g id="a_edge8_Node000004_Node000009"><a xlink:title=" ">
<path fill="none" stroke="#63b8ff" d="M397.62,-76.97C517.41,-58.47 550.43,-64.76 665,-41 668.05,-40.37 671.16,-39.67 674.29,-38.93"/>
<polygon fill="#63b8ff" stroke="#63b8ff" points="397.03,-73.52 387.7,-78.52 398.12,-80.43 397.03,-73.52"/>
</a>
</g>
</g>
<!-- Node10 -->
<g id="Node000010" class="node">
<title>Node10</title>
<g id="a_Node000010"><a xlink:href="../../d1/dee/apply__numeric_8cpp.html" target="_top" xlink:title="The definitions (apply_numeric) in the application module.">
<polygon fill="white" stroke="#666666" points="958.5,-35.5 811.5,-35.5 811.5,-5.5 958.5,-5.5 958.5,-35.5"/>
<text text-anchor="start" x="819.5" y="-23.5" font-family="Helvetica,sans-Serif" font-size="10.00">application/example</text>
<text text-anchor="middle" x="885" y="-12.5" font-family="Helvetica,sans-Serif" font-size="10.00">/source/apply_numeric.cpp</text>
</a>
</g>
</g>
<!-- Node4&#45;&gt;Node10 -->
<g id="edge9_Node000004_Node000010" class="edge">
<title>Node4&#45;&gt;Node10</title>
<g id="a_edge9_Node000004_Node000010"><a xlink:title=" ">
<path fill="none" stroke="#63b8ff" d="M397.77,-77C578.26,-53.18 627.42,-69.51 803,-41 812.1,-39.52 821.69,-37.59 830.97,-35.52"/>
<polygon fill="#63b8ff" stroke="#63b8ff" points="397.12,-73.55 387.67,-78.35 398.05,-80.49 397.12,-73.55"/>
</a>
</g>
</g>
</g>
</svg>
