<?xml version="1.0" encoding="UTF-8" standalone="no"?>
<!DOCTYPE svg PUBLIC "-//W3C//DTD SVG 1.1//EN"
 "http://www.w3.org/Graphics/SVG/1.1/DTD/svg11.dtd">
<!-- Generated by graphviz version 2.43.0 (0)
 -->
<!-- Title: utility::console::Console::commandExecutor Pages: 1 -->
<svg width="479pt" height="86pt"
 viewBox="0.00 0.00 479.00 86.00" xmlns="http://www.w3.org/2000/svg" xmlns:xlink="http://www.w3.org/1999/xlink">
<g id="graph0" class="graph" transform="scale(1 1) rotate(0) translate(4 82)">
<title>utility::console::Console::commandExecutor</title>
<!-- Node1 -->
<g id="Node000001" class="node">
<title>Node1</title>
<g id="a_Node000001"><a xlink:title="Execute the target console command.">
<polygon fill="#999999" stroke="#666666" points="471,-54 338,-54 338,-24 471,-24 471,-54"/>
<text text-anchor="start" x="346" y="-42" font-family="Helvetica,sans-Serif" font-size="10.00">utility::console::Console</text>
<text text-anchor="middle" x="404.5" y="-31" font-family="Helvetica,sans-Serif" font-size="10.00">::commandExecutor</text>
</a>
</g>
</g>
<!-- Node2 -->
<g id="Node000002" class="node">
<title>Node2</title>
<g id="a_Node000002"><a xlink:href="../../d9/dd3/classutility_1_1console_1_1Console.html#a086f5aaa94f64e215e8458ecef2703cc" target="_top" xlink:title="Execute all console commands in the target file.">
<polygon fill="white" stroke="#666666" points="302,-78 169,-78 169,-48 302,-48 302,-78"/>
<text text-anchor="start" x="177" y="-66" font-family="Helvetica,sans-Serif" font-size="10.00">utility::console::Console</text>
<text text-anchor="middle" x="235.5" y="-55" font-family="Helvetica,sans-Serif" font-size="10.00">::fileExecutor</text>
</a>
</g>
</g>
<!-- Node1&#45;&gt;Node2 -->
<g id="edge1_Node000001_Node000002" class="edge">
<title>Node1&#45;&gt;Node2</title>
<g id="a_edge1_Node000001_Node000002"><a xlink:title=" ">
<path fill="none" stroke="#63b8ff" d="M327.93,-49.86C319.32,-51.1 310.58,-52.35 302.11,-53.57"/>
<polygon fill="#63b8ff" stroke="#63b8ff" points="328.58,-53.3 337.98,-48.42 327.58,-46.37 328.58,-53.3"/>
</a>
</g>
</g>
<!-- Node4 -->
<g id="Node000004" class="node">
<title>Node4</title>
<g id="a_Node000004"><a xlink:href="../../d9/dd3/classutility_1_1console_1_1Console.html#a349840e1dd8843db1aae0ae7c16d4dfd" target="_top" xlink:title="Read console command line.">
<polygon fill="white" stroke="#666666" points="302,-30 169,-30 169,0 302,0 302,-30"/>
<text text-anchor="start" x="177" y="-18" font-family="Helvetica,sans-Serif" font-size="10.00">utility::console::Console</text>
<text text-anchor="middle" x="235.5" y="-7" font-family="Helvetica,sans-Serif" font-size="10.00">::readCommandLine</text>
</a>
</g>
</g>
<!-- Node1&#45;&gt;Node4 -->
<g id="edge3_Node000001_Node000004" class="edge">
<title>Node1&#45;&gt;Node4</title>
<g id="a_edge3_Node000001_Node000004"><a xlink:title=" ">
<path fill="none" stroke="#63b8ff" d="M327.93,-28.14C319.32,-26.9 310.58,-25.65 302.11,-24.43"/>
<polygon fill="#63b8ff" stroke="#63b8ff" points="327.58,-31.63 337.98,-29.58 328.58,-24.7 327.58,-31.63"/>
</a>
</g>
</g>
<!-- Node3 -->
<g id="Node000003" class="node">
<title>Node3</title>
<g id="a_Node000003"><a xlink:href="../../d9/dd3/classutility_1_1console_1_1Console.html#a504677ee7dd4dff68b58fba0aff9c9b8" target="_top" xlink:title="Construct a new Console object.">
<polygon fill="white" stroke="#666666" points="133,-78 0,-78 0,-48 133,-48 133,-78"/>
<text text-anchor="start" x="8" y="-66" font-family="Helvetica,sans-Serif" font-size="10.00">utility::console::Console</text>
<text text-anchor="middle" x="66.5" y="-55" font-family="Helvetica,sans-Serif" font-size="10.00">::Console</text>
</a>
</g>
</g>
<!-- Node2&#45;&gt;Node3 -->
<g id="edge2_Node000002_Node000003" class="edge">
<title>Node2&#45;&gt;Node3</title>
<g id="a_edge2_Node000002_Node000003"><a xlink:title=" ">
<path fill="none" stroke="#63b8ff" d="M158.93,-63C150.32,-63 141.58,-63 133.11,-63"/>
<polygon fill="#63b8ff" stroke="#63b8ff" points="158.98,-66.5 168.98,-63 158.98,-59.5 158.98,-66.5"/>
</a>
</g>
</g>
</g>
</svg>
