<?xml version="1.0" encoding="UTF-8" standalone="no"?>
<!DOCTYPE svg PUBLIC "-//W3C//DTD SVG 1.1//EN"
 "http://www.w3.org/Graphics/SVG/1.1/DTD/svg11.dtd">
<!-- Generated by graphviz version 2.43.0 (0)
 -->
<!-- Title: utility::common::executeCommand Pages: 1 -->
<svg width="549pt" height="182pt"
 viewBox="0.00 0.00 549.00 182.00" xmlns="http://www.w3.org/2000/svg" xmlns:xlink="http://www.w3.org/1999/xlink">
<g id="graph0" class="graph" transform="scale(1 1) rotate(0) translate(4 178)">
<title>utility::common::executeCommand</title>
<!-- Node1 -->
<g id="Node000001" class="node">
<title>Node1</title>
<g id="a_Node000001"><a xlink:title="Execute the command line.">
<polygon fill="#999999" stroke="#666666" points="541,-102 404,-102 404,-72 541,-72 541,-102"/>
<text text-anchor="start" x="412" y="-90" font-family="Helvetica,sans-Serif" font-size="10.00">utility::common::execute</text>
<text text-anchor="middle" x="472.5" y="-79" font-family="Helvetica,sans-Serif" font-size="10.00">Command</text>
</a>
</g>
</g>
<!-- Node2 -->
<g id="Node000002" class="node">
<title>Node2</title>
<g id="a_Node000002"><a xlink:href="../../d5/dbb/classapplication_1_1view_1_1View.html#ad9cddd788ab4701fb35dfab0ee722daf" target="_top" xlink:title="Build the TLV packet to get bash outputs.">
<polygon fill="white" stroke="#666666" points="357.5,-174 208.5,-174 208.5,-144 357.5,-144 357.5,-174"/>
<text text-anchor="start" x="216.5" y="-162" font-family="Helvetica,sans-Serif" font-size="10.00">application::view::</text>
<text text-anchor="middle" x="283" y="-151" font-family="Helvetica,sans-Serif" font-size="10.00">View::buildTLVPacket2Bash</text>
</a>
</g>
</g>
<!-- Node1&#45;&gt;Node2 -->
<g id="edge1_Node000001_Node000002" class="edge">
<title>Node1&#45;&gt;Node2</title>
<g id="a_edge1_Node000001_Node000002"><a xlink:title=" ">
<path fill="none" stroke="#63b8ff" d="M433.08,-106.56C413.84,-115.9 390.01,-126.81 368,-135 359.47,-138.17 350.33,-141.18 341.32,-143.92"/>
<polygon fill="#63b8ff" stroke="#63b8ff" points="434.7,-109.67 442.13,-102.12 431.61,-103.38 434.7,-109.67"/>
</a>
</g>
</g>
<!-- Node3 -->
<g id="Node000003" class="node">
<title>Node3</title>
<g id="a_Node000003"><a xlink:href="../../de/dd7/classapplication_1_1command_1_1Command.html#aede5e9ad130ae416e1041df66d6a4039" target="_top" xlink:title="Enter console mode.">
<polygon fill="white" stroke="#666666" points="368,-126 198,-126 198,-96 368,-96 368,-126"/>
<text text-anchor="start" x="206" y="-114" font-family="Helvetica,sans-Serif" font-size="10.00">application::command</text>
<text text-anchor="middle" x="283" y="-103" font-family="Helvetica,sans-Serif" font-size="10.00">::Command::enterConsoleMode</text>
</a>
</g>
</g>
<!-- Node1&#45;&gt;Node3 -->
<g id="edge2_Node000001_Node000003" class="edge">
<title>Node1&#45;&gt;Node3</title>
<g id="a_edge2_Node000001_Node000003"><a xlink:title=" ">
<path fill="none" stroke="#63b8ff" d="M393.68,-96.96C385.29,-98.04 376.72,-99.13 368.25,-100.22"/>
<polygon fill="#63b8ff" stroke="#63b8ff" points="394.33,-100.41 403.81,-95.66 393.44,-93.46 394.33,-100.41"/>
</a>
</g>
</g>
<!-- Node5 -->
<g id="Node000005" class="node">
<title>Node5</title>
<g id="a_Node000005"><a xlink:href="../../d5/dbb/classapplication_1_1view_1_1View.html#a5d53302d3261c563a9435fbefbc92d06" target="_top" xlink:title="Get the status information.">
<polygon fill="white" stroke="#666666" points="357.5,-78 208.5,-78 208.5,-48 357.5,-48 357.5,-78"/>
<text text-anchor="start" x="216.5" y="-66" font-family="Helvetica,sans-Serif" font-size="10.00">application::view::</text>
<text text-anchor="middle" x="283" y="-55" font-family="Helvetica,sans-Serif" font-size="10.00">View::getStatusInformation</text>
</a>
</g>
</g>
<!-- Node1&#45;&gt;Node5 -->
<g id="edge4_Node000001_Node000005" class="edge">
<title>Node1&#45;&gt;Node5</title>
<g id="a_edge4_Node000001_Node000005"><a xlink:title=" ">
<path fill="none" stroke="#63b8ff" d="M393.84,-77.06C381.86,-75.53 369.51,-73.95 357.62,-72.42"/>
<polygon fill="#63b8ff" stroke="#63b8ff" points="393.44,-80.54 403.81,-78.34 394.33,-73.59 393.44,-80.54"/>
</a>
</g>
</g>
<!-- Node7 -->
<g id="Node000007" class="node">
<title>Node7</title>
<g id="a_Node000007"><a xlink:href="../../de/dd7/classapplication_1_1command_1_1Command.html#a17d5ecdf1edf54070f88af44c745049b" target="_top" xlink:title="Print version icon.">
<polygon fill="white" stroke="#666666" points="363.5,-30 202.5,-30 202.5,0 363.5,0 363.5,-30"/>
<text text-anchor="start" x="210.5" y="-18" font-family="Helvetica,sans-Serif" font-size="10.00">application::command</text>
<text text-anchor="middle" x="283" y="-7" font-family="Helvetica,sans-Serif" font-size="10.00">::Command::showVersionIcon</text>
</a>
</g>
</g>
<!-- Node1&#45;&gt;Node7 -->
<g id="edge6_Node000001_Node000007" class="edge">
<title>Node1&#45;&gt;Node7</title>
<g id="a_edge6_Node000001_Node000007"><a xlink:title=" ">
<path fill="none" stroke="#63b8ff" d="M433.08,-67.44C413.84,-58.1 390.01,-47.19 368,-39 359.47,-35.83 350.33,-32.82 341.32,-30.08"/>
<polygon fill="#63b8ff" stroke="#63b8ff" points="431.61,-70.62 442.13,-71.88 434.7,-64.33 431.61,-70.62"/>
</a>
</g>
</g>
<!-- Node4 -->
<g id="Node000004" class="node">
<title>Node4</title>
<g id="a_Node000004"><a xlink:href="../../de/dd7/classapplication_1_1command_1_1Command.html#a5d2584a4ee3f7e91ec82649f91b3b810" target="_top" xlink:title="Interface for running commander.">
<polygon fill="white" stroke="#666666" points="158.5,-126 3.5,-126 3.5,-96 158.5,-96 158.5,-126"/>
<text text-anchor="start" x="11.5" y="-114" font-family="Helvetica,sans-Serif" font-size="10.00">application::command</text>
<text text-anchor="middle" x="81" y="-103" font-family="Helvetica,sans-Serif" font-size="10.00">::Command::runCommander</text>
</a>
</g>
</g>
<!-- Node3&#45;&gt;Node4 -->
<g id="edge3_Node000003_Node000004" class="edge">
<title>Node3&#45;&gt;Node4</title>
<g id="a_edge3_Node000003_Node000004"><a xlink:title=" ">
<path fill="none" stroke="#63b8ff" d="M187.63,-111C177.87,-111 168.04,-111 158.51,-111"/>
<polygon fill="#63b8ff" stroke="#63b8ff" points="187.76,-114.5 197.76,-111 187.76,-107.5 187.76,-114.5"/>
</a>
</g>
</g>
<!-- Node6 -->
<g id="Node000006" class="node">
<title>Node6</title>
<g id="a_Node000006"><a xlink:href="../../d5/dbb/classapplication_1_1view_1_1View.html#a6b0cb8bf6198cc407906d81bdc6f0ffb" target="_top" xlink:title="Build the TLV packet to show status information.">
<polygon fill="white" stroke="#666666" points="162,-78 0,-78 0,-48 162,-48 162,-78"/>
<text text-anchor="start" x="8" y="-66" font-family="Helvetica,sans-Serif" font-size="10.00">application::view::</text>
<text text-anchor="middle" x="81" y="-55" font-family="Helvetica,sans-Serif" font-size="10.00">View::buildTLVPacket2Monitor</text>
</a>
</g>
</g>
<!-- Node5&#45;&gt;Node6 -->
<g id="edge5_Node000005_Node000006" class="edge">
<title>Node5&#45;&gt;Node6</title>
<g id="a_edge5_Node000005_Node000006"><a xlink:title=" ">
<path fill="none" stroke="#63b8ff" d="M198.04,-63C186.17,-63 173.99,-63 162.2,-63"/>
<polygon fill="#63b8ff" stroke="#63b8ff" points="198.38,-66.5 208.38,-63 198.38,-59.5 198.38,-66.5"/>
</a>
</g>
</g>
</g>
</svg>
