<?xml version="1.0" encoding="UTF-8" standalone="no"?>
<!DOCTYPE svg PUBLIC "-//W3C//DTD SVG 1.1//EN"
 "http://www.w3.org/Graphics/SVG/1.1/DTD/svg11.dtd">
<!-- Generated by graphviz version 2.43.0 (0)
 -->
<!-- Title: utility::common::bkdrHashInCompile Pages: 1 -->
<svg width="339pt" height="56pt"
 viewBox="0.00 0.00 339.00 56.00" xmlns="http://www.w3.org/2000/svg" xmlns:xlink="http://www.w3.org/1999/xlink">
<g id="graph0" class="graph" transform="scale(1 1) rotate(0) translate(4 52)">
<title>utility::common::bkdrHashInCompile</title>
<!-- Node1 -->
<g id="Node000001" class="node">
<title>Node1</title>
<g id="a_Node000001"><a xlink:title="The Brian&#45;Kernighan Dennis&#45;Ritchie hash function in compile time.">
<polygon fill="#999999" stroke="#666666" points="331,-30 185,-30 185,0 331,0 331,-30"/>
<text text-anchor="start" x="193" y="-18" font-family="Helvetica,sans-Serif" font-size="10.00">utility::common::bkdrHash</text>
<text text-anchor="middle" x="258" y="-7" font-family="Helvetica,sans-Serif" font-size="10.00">InCompile</text>
</a>
</g>
</g>
<!-- Node1&#45;&gt;Node1 -->
<g id="edge1_Node000001_Node000001" class="edge">
<title>Node1&#45;&gt;Node1</title>
<g id="a_edge1_Node000001_Node000001"><a xlink:title=" ">
<path fill="none" stroke="#63b8ff" d="M289.86,-40.6C285.5,-44.97 274.88,-48 258,-48 229.56,-48 218.9,-39.41 226.01,-30.28"/>
<polygon fill="#63b8ff" stroke="#63b8ff" points="293.36,-40.32 289.99,-30.28 286.36,-40.23 293.36,-40.32"/>
</a>
</g>
</g>
<!-- Node2 -->
<g id="Node000002" class="node">
<title>Node2</title>
<g id="a_Node000002"><a xlink:href="../../df/d92/namespaceutility_1_1common.html#aa28ac0297fd1dc308c8f82a251d924c6" target="_top" xlink:title="The operator (&quot;&quot;) overloading with BKDR hash function.">
<polygon fill="white" stroke="#666666" points="149,-30 0,-30 0,0 149,0 149,-30"/>
<text text-anchor="start" x="8" y="-18" font-family="Helvetica,sans-Serif" font-size="10.00">utility::common::operator&quot;&quot;</text>
<text text-anchor="middle" x="74.5" y="-7" font-family="Helvetica,sans-Serif" font-size="10.00">_bkdrHash</text>
</a>
</g>
</g>
<!-- Node1&#45;&gt;Node2 -->
<g id="edge2_Node000001_Node000002" class="edge">
<title>Node1&#45;&gt;Node2</title>
<g id="a_edge2_Node000001_Node000002"><a xlink:title=" ">
<path fill="none" stroke="#63b8ff" d="M174.54,-15C166.12,-15 157.61,-15 149.29,-15"/>
<polygon fill="#63b8ff" stroke="#63b8ff" points="174.74,-18.5 184.74,-15 174.74,-11.5 174.74,-18.5"/>
</a>
</g>
</g>
</g>
</svg>
