<?xml version="1.0" encoding="UTF-8" standalone="no"?>
<!DOCTYPE svg PUBLIC "-//W3C//DTD SVG 1.1//EN"
 "http://www.w3.org/Graphics/SVG/1.1/DTD/svg11.dtd">
<!-- Generated by graphviz version 2.43.0 (0)
 -->
<!-- Title: utility::common::formatString Pages: 1 -->
<svg width="622pt" height="38pt"
 viewBox="0.00 0.00 622.00 38.00" xmlns="http://www.w3.org/2000/svg" xmlns:xlink="http://www.w3.org/1999/xlink">
<g id="graph0" class="graph" transform="scale(1 1) rotate(0) translate(4 34)">
<title>utility::common::formatString</title>
<!-- Node1 -->
<g id="Node000001" class="node">
<title>Node1</title>
<g id="a_Node000001"><a xlink:title="Format as a string.">
<polygon fill="#999999" stroke="#666666" points="614,-24.5 453,-24.5 453,-5.5 614,-5.5 614,-24.5"/>
<text text-anchor="middle" x="533.5" y="-12.5" font-family="Helvetica,sans-Serif" font-size="10.00">utility::common::formatString</text>
</a>
</g>
</g>
<!-- Node2 -->
<g id="Node000002" class="node">
<title>Node2</title>
<g id="a_Node000002"><a xlink:href="../../d9/d9b/classapplication_1_1log_1_1Log.html#aaee64ba051d8af81b5aa019c3a2934d2" target="_top" xlink:title="Flush log to queue.">
<polygon fill="white" stroke="#666666" points="417,-30 302,-30 302,0 417,0 417,-30"/>
<text text-anchor="start" x="310" y="-18" font-family="Helvetica,sans-Serif" font-size="10.00">application::log::Log</text>
<text text-anchor="middle" x="359.5" y="-7" font-family="Helvetica,sans-Serif" font-size="10.00">::flush</text>
</a>
</g>
</g>
<!-- Node1&#45;&gt;Node2 -->
<g id="edge1_Node000001_Node000002" class="edge">
<title>Node1&#45;&gt;Node2</title>
<g id="a_edge1_Node000001_Node000002"><a xlink:title=" ">
<path fill="none" stroke="#63b8ff" d="M442.69,-15C434.09,-15 425.54,-15 417.38,-15"/>
<polygon fill="#63b8ff" stroke="#63b8ff" points="442.79,-18.5 452.79,-15 442.79,-11.5 442.79,-18.5"/>
</a>
</g>
</g>
<!-- Node3 -->
<g id="Node000003" class="node">
<title>Node3</title>
<g id="a_Node000003"><a xlink:href="../../d9/d29/classapplication_1_1log_1_1Log_1_1Holder.html#ab911851f1201c8e6e99e2e9c3e304456" target="_top" xlink:title="Flush the output stream.">
<polygon fill="white" stroke="#666666" points="266,-30 151,-30 151,0 266,0 266,-30"/>
<text text-anchor="start" x="159" y="-18" font-family="Helvetica,sans-Serif" font-size="10.00">application::log::Log</text>
<text text-anchor="middle" x="208.5" y="-7" font-family="Helvetica,sans-Serif" font-size="10.00">::Holder::flush</text>
</a>
</g>
</g>
<!-- Node2&#45;&gt;Node3 -->
<g id="edge2_Node000002_Node000003" class="edge">
<title>Node2&#45;&gt;Node3</title>
<g id="a_edge2_Node000002_Node000003"><a xlink:title=" ">
<path fill="none" stroke="#63b8ff" d="M291.49,-15C283.01,-15 274.4,-15 266.1,-15"/>
<polygon fill="#63b8ff" stroke="#63b8ff" points="291.74,-18.5 301.74,-15 291.74,-11.5 291.74,-18.5"/>
</a>
</g>
</g>
<!-- Node4 -->
<g id="Node000004" class="node">
<title>Node4</title>
<g id="a_Node000004"><a xlink:href="../../d9/d29/classapplication_1_1log_1_1Log_1_1Holder.html#a79e3171b1992117c6e3c538b70ea9209" target="_top" xlink:title="Destroy the Holder object.">
<polygon fill="white" stroke="#666666" points="115,-30 0,-30 0,0 115,0 115,-30"/>
<text text-anchor="start" x="8" y="-18" font-family="Helvetica,sans-Serif" font-size="10.00">application::log::Log</text>
<text text-anchor="middle" x="57.5" y="-7" font-family="Helvetica,sans-Serif" font-size="10.00">::Holder::~Holder</text>
</a>
</g>
</g>
<!-- Node3&#45;&gt;Node4 -->
<g id="edge3_Node000003_Node000004" class="edge">
<title>Node3&#45;&gt;Node4</title>
<g id="a_edge3_Node000003_Node000004"><a xlink:title=" ">
<path fill="none" stroke="#63b8ff" d="M140.49,-15C132.01,-15 123.4,-15 115.1,-15"/>
<polygon fill="#63b8ff" stroke="#63b8ff" points="140.74,-18.5 150.74,-15 140.74,-11.5 140.74,-18.5"/>
</a>
</g>
</g>
</g>
</svg>
