<?xml version="1.0" encoding="UTF-8" standalone="no"?>
<!DOCTYPE svg PUBLIC "-//W3C//DTD SVG 1.1//EN"
 "http://www.w3.org/Graphics/SVG/1.1/DTD/svg11.dtd">
<!-- Generated by graphviz version 2.43.0 (0)
 -->
<!-- Title: utility::common::bkdrHash Pages: 1 -->
<svg width="605pt" height="1382pt"
 viewBox="0.00 0.00 605.00 1382.00" xmlns="http://www.w3.org/2000/svg" xmlns:xlink="http://www.w3.org/1999/xlink">
<g id="graph0" class="graph" transform="scale(1 1) rotate(0) translate(4 1378)">
<title>utility::common::bkdrHash</title>
<!-- Node1 -->
<g id="Node000001" class="node">
<title>Node1</title>
<g id="a_Node000001"><a xlink:title="The Brian&#45;Kernighan Dennis&#45;Ritchie hash function.">
<polygon fill="#999999" stroke="#666666" points="597,-696.5 451,-696.5 451,-677.5 597,-677.5 597,-696.5"/>
<text text-anchor="middle" x="524" y="-684.5" font-family="Helvetica,sans-Serif" font-size="10.00">utility::common::bkdrHash</text>
</a>
</g>
</g>
<!-- Node2 -->
<g id="Node000002" class="node">
<title>Node2</title>
<g id="a_Node000002"><a xlink:href="../../de/dbe/namespaceapplication_1_1app__num.html#a76b424f8e3b3a6445fc56f41c37afa1d" target="_top" xlink:title="Run arithmetic tasks.">
<polygon fill="white" stroke="#666666" points="410.5,-1374 288.5,-1374 288.5,-1344 410.5,-1344 410.5,-1374"/>
<text text-anchor="start" x="296.5" y="-1362" font-family="Helvetica,sans-Serif" font-size="10.00">application::app_num</text>
<text text-anchor="middle" x="349.5" y="-1351" font-family="Helvetica,sans-Serif" font-size="10.00">::runArithmeticTasks</text>
</a>
</g>
</g>
<!-- Node1&#45;&gt;Node2 -->
<g id="edge1_Node000001_Node000002" class="edge">
<title>Node1&#45;&gt;Node2</title>
<g id="a_edge1_Node000001_Node000002"><a xlink:title=" ">
<path fill="none" stroke="#63b8ff" d="M522.3,-706.82C518.49,-804.66 497.21,-1235.36 415,-1335 412.19,-1338.41 408.84,-1341.34 405.17,-1343.85"/>
<polygon fill="#63b8ff" stroke="#63b8ff" points="525.8,-706.93 522.68,-696.81 518.81,-706.67 525.8,-706.93"/>
</a>
</g>
</g>
<!-- Node3 -->
<g id="Node000003" class="node">
<title>Node3</title>
<g id="a_Node000003"><a xlink:href="../../d2/dc1/namespaceapplication_1_1app__dp.html#ade97c7790ecb64cb85d2567effedcc19" target="_top" xlink:title="Run behavioral tasks.">
<polygon fill="white" stroke="#666666" points="408.5,-1326 290.5,-1326 290.5,-1296 408.5,-1296 408.5,-1326"/>
<text text-anchor="start" x="298.5" y="-1314" font-family="Helvetica,sans-Serif" font-size="10.00">application::app_dp</text>
<text text-anchor="middle" x="349.5" y="-1303" font-family="Helvetica,sans-Serif" font-size="10.00">::runBehavioralTasks</text>
</a>
</g>
</g>
<!-- Node1&#45;&gt;Node3 -->
<g id="edge2_Node000001_Node000003" class="edge">
<title>Node1&#45;&gt;Node3</title>
<g id="a_edge2_Node000001_Node000003"><a xlink:title=" ">
<path fill="none" stroke="#63b8ff" d="M522.02,-706.79C517.01,-800.12 491.5,-1195.5 415,-1287 412.16,-1290.39 408.8,-1293.3 405.12,-1295.81"/>
<polygon fill="#63b8ff" stroke="#63b8ff" points="525.53,-706.69 522.55,-696.52 518.54,-706.33 525.53,-706.69"/>
</a>
</g>
</g>
<!-- Node4 -->
<g id="Node000004" class="node">
<title>Node4</title>
<g id="a_Node000004"><a xlink:href="../../d2/dc1/namespaceapplication_1_1app__dp.html#a58cd5292c4ecae6e2b4d529530105b44" target="_top" xlink:title="Run creational tasks.">
<polygon fill="white" stroke="#666666" points="407.5,-1278 291.5,-1278 291.5,-1248 407.5,-1248 407.5,-1278"/>
<text text-anchor="start" x="299.5" y="-1266" font-family="Helvetica,sans-Serif" font-size="10.00">application::app_dp</text>
<text text-anchor="middle" x="349.5" y="-1255" font-family="Helvetica,sans-Serif" font-size="10.00">::runCreationalTasks</text>
</a>
</g>
</g>
<!-- Node1&#45;&gt;Node4 -->
<g id="edge3_Node000001_Node000004" class="edge">
<title>Node1&#45;&gt;Node4</title>
<g id="a_edge3_Node000001_Node000004"><a xlink:title=" ">
<path fill="none" stroke="#63b8ff" d="M521.69,-706.6C515.43,-794.97 485.84,-1155.56 415,-1239 412.06,-1242.46 408.57,-1245.42 404.77,-1247.96"/>
<polygon fill="#63b8ff" stroke="#63b8ff" points="525.19,-706.82 522.38,-696.6 518.2,-706.33 525.19,-706.82"/>
</a>
</g>
</g>
<!-- Node5 -->
<g id="Node000005" class="node">
<title>Node5</title>
<g id="a_Node000005"><a xlink:href="../../de/dbe/namespaceapplication_1_1app__num.html#a45c0729aaa51fd36c4ddd79758b88a6a" target="_top" xlink:title="Run divisor tasks.">
<polygon fill="white" stroke="#666666" points="410.5,-1230 288.5,-1230 288.5,-1200 410.5,-1200 410.5,-1230"/>
<text text-anchor="start" x="296.5" y="-1218" font-family="Helvetica,sans-Serif" font-size="10.00">application::app_num</text>
<text text-anchor="middle" x="349.5" y="-1207" font-family="Helvetica,sans-Serif" font-size="10.00">::runDivisorTasks</text>
</a>
</g>
</g>
<!-- Node1&#45;&gt;Node5 -->
<g id="edge4_Node000001_Node000005" class="edge">
<title>Node1&#45;&gt;Node5</title>
<g id="a_edge4_Node000001_Node000005"><a xlink:title=" ">
<path fill="none" stroke="#63b8ff" d="M521.28,-706.73C513.63,-790.47 480.12,-1115.68 415,-1191 412.03,-1194.43 408.52,-1197.38 404.7,-1199.9"/>
<polygon fill="#63b8ff" stroke="#63b8ff" points="524.79,-706.84 522.19,-696.56 517.82,-706.21 524.79,-706.84"/>
</a>
</g>
</g>
<!-- Node6 -->
<g id="Node000006" class="node">
<title>Node6</title>
<g id="a_Node000006"><a xlink:href="../../de/dbe/namespaceapplication_1_1app__num.html#a8f6bdfbd61df7461f8dec4cc6e1db146" target="_top" xlink:title="Run integral tasks.">
<polygon fill="white" stroke="#666666" points="410.5,-1182 288.5,-1182 288.5,-1152 410.5,-1152 410.5,-1182"/>
<text text-anchor="start" x="296.5" y="-1170" font-family="Helvetica,sans-Serif" font-size="10.00">application::app_num</text>
<text text-anchor="middle" x="349.5" y="-1159" font-family="Helvetica,sans-Serif" font-size="10.00">::runIntegralTasks</text>
</a>
</g>
</g>
<!-- Node1&#45;&gt;Node6 -->
<g id="edge5_Node000001_Node000006" class="edge">
<title>Node1&#45;&gt;Node6</title>
<g id="a_edge5_Node000001_Node000006"><a xlink:title=" ">
<path fill="none" stroke="#63b8ff" d="M520.79,-706.84C511.64,-785.67 474.42,-1075.73 415,-1143 411.99,-1146.4 408.46,-1149.32 404.62,-1151.83"/>
<polygon fill="#63b8ff" stroke="#63b8ff" points="524.28,-707.12 521.93,-696.79 517.32,-706.33 524.28,-707.12"/>
</a>
</g>
</g>
<!-- Node7 -->
<g id="Node000007" class="node">
<title>Node7</title>
<g id="a_Node000007"><a xlink:href="../../d0/dc3/namespaceapplication_1_1app__ds.html#a73a7a1dd5adb60174e10d8a779fd1c70" target="_top" xlink:title="Run linear tasks.">
<polygon fill="white" stroke="#666666" points="405,-1134 294,-1134 294,-1104 405,-1104 405,-1134"/>
<text text-anchor="start" x="302" y="-1122" font-family="Helvetica,sans-Serif" font-size="10.00">application::app_ds</text>
<text text-anchor="middle" x="349.5" y="-1111" font-family="Helvetica,sans-Serif" font-size="10.00">::runLinearTasks</text>
</a>
</g>
</g>
<!-- Node1&#45;&gt;Node7 -->
<g id="edge6_Node000001_Node000007" class="edge">
<title>Node1&#45;&gt;Node7</title>
<g id="a_edge6_Node000001_Node000007"><a xlink:title=" ">
<path fill="none" stroke="#63b8ff" d="M523.74,-706.83C525.04,-771.51 520.42,-978.78 415,-1095 411.87,-1098.45 408.2,-1101.41 404.22,-1103.94"/>
<polygon fill="#63b8ff" stroke="#63b8ff" points="527.23,-706.68 523.46,-696.78 520.24,-706.87 527.23,-706.68"/>
</a>
</g>
</g>
<!-- Node8 -->
<g id="Node000008" class="node">
<title>Node8</title>
<g id="a_Node000008"><a xlink:href="../../d7/dd4/namespaceapplication_1_1app__algo.html#a317a232febf9ceb60c8e49be2ba06c36" target="_top" xlink:title="Run match tasks.">
<polygon fill="white" stroke="#666666" points="410,-1086 289,-1086 289,-1056 410,-1056 410,-1086"/>
<text text-anchor="start" x="297" y="-1074" font-family="Helvetica,sans-Serif" font-size="10.00">application::app_algo</text>
<text text-anchor="middle" x="349.5" y="-1063" font-family="Helvetica,sans-Serif" font-size="10.00">::runMatchTasks</text>
</a>
</g>
</g>
<!-- Node1&#45;&gt;Node8 -->
<g id="edge7_Node000001_Node000008" class="edge">
<title>Node1&#45;&gt;Node8</title>
<g id="a_edge7_Node000001_Node000008"><a xlink:title=" ">
<path fill="none" stroke="#63b8ff" d="M522.9,-706.8C521.52,-766.43 509.33,-946.35 415,-1047 411.81,-1050.4 408.1,-1053.32 404.1,-1055.83"/>
<polygon fill="#63b8ff" stroke="#63b8ff" points="526.4,-706.59 523.05,-696.54 519.4,-706.49 526.4,-706.59"/>
</a>
</g>
</g>
<!-- Node9 -->
<g id="Node000009" class="node">
<title>Node9</title>
<g id="a_Node000009"><a xlink:href="../../d7/dd4/namespaceapplication_1_1app__algo.html#a99fbd5b654baa6c2f19c08245d348030" target="_top" xlink:title="Run notation tasks.">
<polygon fill="white" stroke="#666666" points="410,-1038 289,-1038 289,-1008 410,-1008 410,-1038"/>
<text text-anchor="start" x="297" y="-1026" font-family="Helvetica,sans-Serif" font-size="10.00">application::app_algo</text>
<text text-anchor="middle" x="349.5" y="-1015" font-family="Helvetica,sans-Serif" font-size="10.00">::runNotationTasks</text>
</a>
</g>
</g>
<!-- Node1&#45;&gt;Node9 -->
<g id="edge8_Node000001_Node000009" class="edge">
<title>Node1&#45;&gt;Node9</title>
<g id="a_edge8_Node000001_Node000009"><a xlink:title=" ">
<path fill="none" stroke="#63b8ff" d="M521.83,-706.65C517.58,-760.77 498.41,-913.65 415,-999 411.66,-1002.42 407.79,-1005.35 403.63,-1007.87"/>
<polygon fill="#63b8ff" stroke="#63b8ff" points="525.33,-706.88 522.53,-696.66 518.34,-706.39 525.33,-706.88"/>
</a>
</g>
</g>
<!-- Node10 -->
<g id="Node000010" class="node">
<title>Node10</title>
<g id="a_Node000010"><a xlink:href="../../d7/dd4/namespaceapplication_1_1app__algo.html#a73b5411d7029e486a45ed588c4bb60e2" target="_top" xlink:title="Run optimal tasks.">
<polygon fill="white" stroke="#666666" points="410,-990 289,-990 289,-960 410,-960 410,-990"/>
<text text-anchor="start" x="297" y="-978" font-family="Helvetica,sans-Serif" font-size="10.00">application::app_algo</text>
<text text-anchor="middle" x="349.5" y="-967" font-family="Helvetica,sans-Serif" font-size="10.00">::runOptimalTasks</text>
</a>
</g>
</g>
<!-- Node1&#45;&gt;Node10 -->
<g id="edge9_Node000001_Node000010" class="edge">
<title>Node1&#45;&gt;Node10</title>
<g id="a_edge9_Node000001_Node000010"><a xlink:title=" ">
<path fill="none" stroke="#63b8ff" d="M520.39,-706.79C512.98,-755.21 487.45,-880.84 415,-951 411.48,-954.41 407.43,-957.34 403.12,-959.86"/>
<polygon fill="#63b8ff" stroke="#63b8ff" points="523.88,-707.09 521.84,-696.7 516.95,-706.1 523.88,-707.09"/>
</a>
</g>
</g>
<!-- Node11 -->
<g id="Node000011" class="node">
<title>Node11</title>
<g id="a_Node000011"><a xlink:href="../../de/dbe/namespaceapplication_1_1app__num.html#a7fcb02610a31797f6736b02a36617a1b" target="_top" xlink:title="Run prime tasks.">
<polygon fill="white" stroke="#666666" points="410.5,-942 288.5,-942 288.5,-912 410.5,-912 410.5,-942"/>
<text text-anchor="start" x="296.5" y="-930" font-family="Helvetica,sans-Serif" font-size="10.00">application::app_num</text>
<text text-anchor="middle" x="349.5" y="-919" font-family="Helvetica,sans-Serif" font-size="10.00">::runPrimeTasks</text>
</a>
</g>
</g>
<!-- Node1&#45;&gt;Node11 -->
<g id="edge10_Node000001_Node000011" class="edge">
<title>Node1&#45;&gt;Node11</title>
<g id="a_edge10_Node000001_Node000011"><a xlink:title=" ">
<path fill="none" stroke="#63b8ff" d="M518.44,-706.52C507.68,-748.37 476.85,-847.46 415,-903 411.18,-906.43 406.82,-909.39 402.21,-911.93"/>
<polygon fill="#63b8ff" stroke="#63b8ff" points="521.85,-707.29 520.85,-696.74 515.06,-705.61 521.85,-707.29"/>
</a>
</g>
</g>
<!-- Node12 -->
<g id="Node000012" class="node">
<title>Node12</title>
<g id="a_Node000012"><a xlink:href="../../d7/dd4/namespaceapplication_1_1app__algo.html#a4e99e8963e76e52eb6b30f9cb1714b11" target="_top" xlink:title="Run search tasks.">
<polygon fill="white" stroke="#666666" points="410,-894 289,-894 289,-864 410,-864 410,-894"/>
<text text-anchor="start" x="297" y="-882" font-family="Helvetica,sans-Serif" font-size="10.00">application::app_algo</text>
<text text-anchor="middle" x="349.5" y="-871" font-family="Helvetica,sans-Serif" font-size="10.00">::runSearchTasks</text>
</a>
</g>
</g>
<!-- Node1&#45;&gt;Node12 -->
<g id="edge11_Node000001_Node000012" class="edge">
<title>Node1&#45;&gt;Node12</title>
<g id="a_edge11_Node000001_Node000012"><a xlink:title=" ">
<path fill="none" stroke="#63b8ff" d="M515.47,-706.33C501.06,-740.92 466.4,-813.62 415,-855 410.81,-858.37 406.1,-861.3 401.19,-863.84"/>
<polygon fill="#63b8ff" stroke="#63b8ff" points="518.78,-707.48 519.29,-696.9 512.29,-704.86 518.78,-707.48"/>
</a>
</g>
</g>
<!-- Node13 -->
<g id="Node000013" class="node">
<title>Node13</title>
<g id="a_Node000013"><a xlink:href="../../d7/dd4/namespaceapplication_1_1app__algo.html#a416a09be4668a0e27464d7ca94048aef" target="_top" xlink:title="Run sort tasks.">
<polygon fill="white" stroke="#666666" points="410,-846 289,-846 289,-816 410,-816 410,-846"/>
<text text-anchor="start" x="297" y="-834" font-family="Helvetica,sans-Serif" font-size="10.00">application::app_algo</text>
<text text-anchor="middle" x="349.5" y="-823" font-family="Helvetica,sans-Serif" font-size="10.00">::runSortTasks</text>
</a>
</g>
</g>
<!-- Node1&#45;&gt;Node13 -->
<g id="edge12_Node000001_Node000013" class="edge">
<title>Node1&#45;&gt;Node13</title>
<g id="a_edge12_Node000001_Node000013"><a xlink:title=" ">
<path fill="none" stroke="#63b8ff" d="M511.1,-704.99C493.13,-730.88 456.7,-778.65 415,-807 410.06,-810.36 404.59,-813.32 398.98,-815.91"/>
<polygon fill="#63b8ff" stroke="#63b8ff" points="514.13,-706.75 516.86,-696.52 508.34,-702.82 514.13,-706.75"/>
</a>
</g>
</g>
<!-- Node14 -->
<g id="Node000014" class="node">
<title>Node14</title>
<g id="a_Node000014"><a xlink:href="../../d2/dc1/namespaceapplication_1_1app__dp.html#af2fe424904e6361cfd8a1ce1e85453cd" target="_top" xlink:title="Run structural tasks.">
<polygon fill="white" stroke="#666666" points="406,-798 293,-798 293,-768 406,-768 406,-798"/>
<text text-anchor="start" x="301" y="-786" font-family="Helvetica,sans-Serif" font-size="10.00">application::app_dp</text>
<text text-anchor="middle" x="349.5" y="-775" font-family="Helvetica,sans-Serif" font-size="10.00">::runStructuralTasks</text>
</a>
</g>
</g>
<!-- Node1&#45;&gt;Node14 -->
<g id="edge13_Node000001_Node000014" class="edge">
<title>Node1&#45;&gt;Node14</title>
<g id="a_edge13_Node000001_Node000014"><a xlink:title=" ">
<path fill="none" stroke="#63b8ff" d="M502.42,-702.83C481.32,-718.54 447.14,-742.59 415,-759 408.72,-762.21 401.91,-765.21 395.15,-767.93"/>
<polygon fill="#63b8ff" stroke="#63b8ff" points="504.74,-705.46 510.62,-696.65 500.53,-699.87 504.74,-705.46"/>
</a>
</g>
</g>
<!-- Node15 -->
<g id="Node000015" class="node">
<title>Node15</title>
<g id="a_Node000015"><a xlink:href="../../d0/dc3/namespaceapplication_1_1app__ds.html#ab2ea91a2405f21fbb7e07b5e5ac25f43" target="_top" xlink:title="Run tree tasks.">
<polygon fill="white" stroke="#666666" points="405,-750 294,-750 294,-720 405,-720 405,-750"/>
<text text-anchor="start" x="302" y="-738" font-family="Helvetica,sans-Serif" font-size="10.00">application::app_ds</text>
<text text-anchor="middle" x="349.5" y="-727" font-family="Helvetica,sans-Serif" font-size="10.00">::runTreeTasks</text>
</a>
</g>
</g>
<!-- Node1&#45;&gt;Node15 -->
<g id="edge14_Node000001_Node000015" class="edge">
<title>Node1&#45;&gt;Node15</title>
<g id="a_edge14_Node000001_Node000015"><a xlink:title=" ">
<path fill="none" stroke="#63b8ff" d="M478.84,-699.29C456.23,-705.58 428.51,-713.29 404.63,-719.94"/>
<polygon fill="#63b8ff" stroke="#63b8ff" points="479.81,-702.65 488.51,-696.6 477.93,-695.91 479.81,-702.65"/>
</a>
</g>
</g>
<!-- Node16 -->
<g id="Node000016" class="node">
<title>Node16</title>
<g id="a_Node000016"><a xlink:href="../../de/dbe/namespaceapplication_1_1app__num.html#a6db454388e04bf0bcab1006a33ec2a84" target="_top" xlink:title="Update arithmetic methods in tasks.">
<polygon fill="white" stroke="#666666" points="414,-702 285,-702 285,-672 414,-672 414,-702"/>
<text text-anchor="start" x="293" y="-690" font-family="Helvetica,sans-Serif" font-size="10.00">application::app_num</text>
<text text-anchor="middle" x="349.5" y="-679" font-family="Helvetica,sans-Serif" font-size="10.00">::updateArithmeticTask</text>
</a>
</g>
</g>
<!-- Node1&#45;&gt;Node16 -->
<g id="edge15_Node000001_Node000016" class="edge">
<title>Node1&#45;&gt;Node16</title>
<g id="a_edge15_Node000001_Node000016"><a xlink:title=" ">
<path fill="none" stroke="#63b8ff" d="M440.78,-687C431.83,-687 422.82,-687 414.14,-687"/>
<polygon fill="#63b8ff" stroke="#63b8ff" points="440.84,-690.5 450.84,-687 440.84,-683.5 440.84,-690.5"/>
</a>
</g>
</g>
<!-- Node17 -->
<g id="Node000017" class="node">
<title>Node17</title>
<g id="a_Node000017"><a xlink:href="../../d2/dc1/namespaceapplication_1_1app__dp.html#a33fb52830d9eebd84fb6bb23416f299f" target="_top" xlink:title="Update behavioral instances in tasks.">
<polygon fill="white" stroke="#666666" points="415,-654 284,-654 284,-624 415,-624 415,-654"/>
<text text-anchor="start" x="292" y="-642" font-family="Helvetica,sans-Serif" font-size="10.00">application::app_dp</text>
<text text-anchor="middle" x="349.5" y="-631" font-family="Helvetica,sans-Serif" font-size="10.00">::updateBehavioralTask</text>
</a>
</g>
</g>
<!-- Node1&#45;&gt;Node17 -->
<g id="edge16_Node000001_Node000017" class="edge">
<title>Node1&#45;&gt;Node17</title>
<g id="a_edge16_Node000001_Node000017"><a xlink:title=" ">
<path fill="none" stroke="#63b8ff" d="M478.84,-674.71C456.23,-668.42 428.51,-660.71 404.63,-654.06"/>
<polygon fill="#63b8ff" stroke="#63b8ff" points="477.93,-678.09 488.51,-677.4 479.81,-671.35 477.93,-678.09"/>
</a>
</g>
</g>
<!-- Node18 -->
<g id="Node000018" class="node">
<title>Node18</title>
<g id="a_Node000018"><a xlink:href="../../d2/dc1/namespaceapplication_1_1app__dp.html#a9941fafb402630fe634842b0c91b5397" target="_top" xlink:title="Update creational instances in tasks.">
<polygon fill="white" stroke="#666666" points="413.5,-606 285.5,-606 285.5,-576 413.5,-576 413.5,-606"/>
<text text-anchor="start" x="293.5" y="-594" font-family="Helvetica,sans-Serif" font-size="10.00">application::app_dp</text>
<text text-anchor="middle" x="349.5" y="-583" font-family="Helvetica,sans-Serif" font-size="10.00">::updateCreationalTask</text>
</a>
</g>
</g>
<!-- Node1&#45;&gt;Node18 -->
<g id="edge17_Node000001_Node000018" class="edge">
<title>Node1&#45;&gt;Node18</title>
<g id="a_edge17_Node000001_Node000018"><a xlink:title=" ">
<path fill="none" stroke="#63b8ff" d="M502.42,-671.17C481.32,-655.46 447.14,-631.41 415,-615 408.72,-611.79 401.91,-608.79 395.15,-606.07"/>
<polygon fill="#63b8ff" stroke="#63b8ff" points="500.53,-674.13 510.62,-677.35 504.74,-668.54 500.53,-674.13"/>
</a>
</g>
</g>
<!-- Node19 -->
<g id="Node000019" class="node">
<title>Node19</title>
<g id="a_Node000019"><a xlink:href="../../de/dbe/namespaceapplication_1_1app__num.html#acd99940782cf721a00e287ee6a60608d" target="_top" xlink:title="Update divisor methods in tasks.">
<polygon fill="white" stroke="#666666" points="410.5,-558 288.5,-558 288.5,-528 410.5,-528 410.5,-558"/>
<text text-anchor="start" x="296.5" y="-546" font-family="Helvetica,sans-Serif" font-size="10.00">application::app_num</text>
<text text-anchor="middle" x="349.5" y="-535" font-family="Helvetica,sans-Serif" font-size="10.00">::updateDivisorTask</text>
</a>
</g>
</g>
<!-- Node1&#45;&gt;Node19 -->
<g id="edge18_Node000001_Node000019" class="edge">
<title>Node1&#45;&gt;Node19</title>
<g id="a_edge18_Node000001_Node000019"><a xlink:title=" ">
<path fill="none" stroke="#63b8ff" d="M511.1,-669.01C493.13,-643.12 456.7,-595.35 415,-567 410.06,-563.64 404.59,-560.68 398.98,-558.09"/>
<polygon fill="#63b8ff" stroke="#63b8ff" points="508.34,-671.18 516.86,-677.48 514.13,-667.25 508.34,-671.18"/>
</a>
</g>
</g>
<!-- Node20 -->
<g id="Node000020" class="node">
<title>Node20</title>
<g id="a_Node000020"><a xlink:href="../../de/dbe/namespaceapplication_1_1app__num.html#ac32e2c5ed0c19e98aa8a32c24996c29d" target="_top" xlink:title="Update integral methods in tasks.">
<polygon fill="white" stroke="#666666" points="410.5,-510 288.5,-510 288.5,-480 410.5,-480 410.5,-510"/>
<text text-anchor="start" x="296.5" y="-498" font-family="Helvetica,sans-Serif" font-size="10.00">application::app_num</text>
<text text-anchor="middle" x="349.5" y="-487" font-family="Helvetica,sans-Serif" font-size="10.00">::updateIntegralTask</text>
</a>
</g>
</g>
<!-- Node1&#45;&gt;Node20 -->
<g id="edge19_Node000001_Node000020" class="edge">
<title>Node1&#45;&gt;Node20</title>
<g id="a_edge19_Node000001_Node000020"><a xlink:title=" ">
<path fill="none" stroke="#63b8ff" d="M515.47,-667.67C501.06,-633.08 466.4,-560.38 415,-519 410.81,-515.63 406.1,-512.7 401.19,-510.16"/>
<polygon fill="#63b8ff" stroke="#63b8ff" points="512.29,-669.14 519.29,-677.1 518.78,-666.52 512.29,-669.14"/>
</a>
</g>
</g>
<!-- Node21 -->
<g id="Node000021" class="node">
<title>Node21</title>
<g id="a_Node000021"><a xlink:href="../../d0/dc3/namespaceapplication_1_1app__ds.html#a99680eaead9c8004bd1635edaeb85a06" target="_top" xlink:title="Update linear instances in tasks.">
<polygon fill="white" stroke="#666666" points="405,-462 294,-462 294,-432 405,-432 405,-462"/>
<text text-anchor="start" x="302" y="-450" font-family="Helvetica,sans-Serif" font-size="10.00">application::app_ds</text>
<text text-anchor="middle" x="349.5" y="-439" font-family="Helvetica,sans-Serif" font-size="10.00">::updateLinearTask</text>
</a>
</g>
</g>
<!-- Node1&#45;&gt;Node21 -->
<g id="edge20_Node000001_Node000021" class="edge">
<title>Node1&#45;&gt;Node21</title>
<g id="a_edge20_Node000001_Node000021"><a xlink:title=" ">
<path fill="none" stroke="#63b8ff" d="M518.44,-667.48C507.68,-625.63 476.85,-526.54 415,-471 411.18,-467.57 406.82,-464.61 402.21,-462.07"/>
<polygon fill="#63b8ff" stroke="#63b8ff" points="515.06,-668.39 520.85,-677.26 521.85,-666.71 515.06,-668.39"/>
</a>
</g>
</g>
<!-- Node22 -->
<g id="Node000022" class="node">
<title>Node22</title>
<g id="a_Node000022"><a xlink:href="../../d7/dd4/namespaceapplication_1_1app__algo.html#a04dd014f72a7b7a5daa0bf5b1fee91e1" target="_top" xlink:title="Update match methods in tasks.">
<polygon fill="white" stroke="#666666" points="410,-414 289,-414 289,-384 410,-384 410,-414"/>
<text text-anchor="start" x="297" y="-402" font-family="Helvetica,sans-Serif" font-size="10.00">application::app_algo</text>
<text text-anchor="middle" x="349.5" y="-391" font-family="Helvetica,sans-Serif" font-size="10.00">::updateMatchTask</text>
</a>
</g>
</g>
<!-- Node1&#45;&gt;Node22 -->
<g id="edge21_Node000001_Node000022" class="edge">
<title>Node1&#45;&gt;Node22</title>
<g id="a_edge21_Node000001_Node000022"><a xlink:title=" ">
<path fill="none" stroke="#63b8ff" d="M520.39,-667.21C512.98,-618.79 487.45,-493.16 415,-423 411.48,-419.59 407.43,-416.66 403.12,-414.14"/>
<polygon fill="#63b8ff" stroke="#63b8ff" points="516.95,-667.9 521.84,-677.3 523.88,-666.91 516.95,-667.9"/>
</a>
</g>
</g>
<!-- Node23 -->
<g id="Node000023" class="node">
<title>Node23</title>
<g id="a_Node000023"><a xlink:href="../../d7/dd4/namespaceapplication_1_1app__algo.html#a7546a6b06c0dd3a37fe8a6bab62f75a6" target="_top" xlink:title="Update notation methods in tasks.">
<polygon fill="white" stroke="#666666" points="410,-366 289,-366 289,-336 410,-336 410,-366"/>
<text text-anchor="start" x="297" y="-354" font-family="Helvetica,sans-Serif" font-size="10.00">application::app_algo</text>
<text text-anchor="middle" x="349.5" y="-343" font-family="Helvetica,sans-Serif" font-size="10.00">::updateNotationTask</text>
</a>
</g>
</g>
<!-- Node1&#45;&gt;Node23 -->
<g id="edge22_Node000001_Node000023" class="edge">
<title>Node1&#45;&gt;Node23</title>
<g id="a_edge22_Node000001_Node000023"><a xlink:title=" ">
<path fill="none" stroke="#63b8ff" d="M521.83,-667.35C517.58,-613.23 498.41,-460.35 415,-375 411.66,-371.58 407.79,-368.65 403.63,-366.13"/>
<polygon fill="#63b8ff" stroke="#63b8ff" points="518.34,-667.61 522.53,-677.34 525.33,-667.12 518.34,-667.61"/>
</a>
</g>
</g>
<!-- Node24 -->
<g id="Node000024" class="node">
<title>Node24</title>
<g id="a_Node000024"><a xlink:href="../../d7/dd4/namespaceapplication_1_1app__algo.html#ae24d898a891723b79439bbf0f78789a4" target="_top" xlink:title="Update optimal methods in tasks.">
<polygon fill="white" stroke="#666666" points="410,-318 289,-318 289,-288 410,-288 410,-318"/>
<text text-anchor="start" x="297" y="-306" font-family="Helvetica,sans-Serif" font-size="10.00">application::app_algo</text>
<text text-anchor="middle" x="349.5" y="-295" font-family="Helvetica,sans-Serif" font-size="10.00">::updateOptimalTask</text>
</a>
</g>
</g>
<!-- Node1&#45;&gt;Node24 -->
<g id="edge23_Node000001_Node000024" class="edge">
<title>Node1&#45;&gt;Node24</title>
<g id="a_edge23_Node000001_Node000024"><a xlink:title=" ">
<path fill="none" stroke="#63b8ff" d="M522.9,-667.2C521.52,-607.57 509.33,-427.65 415,-327 411.81,-323.6 408.1,-320.68 404.1,-318.17"/>
<polygon fill="#63b8ff" stroke="#63b8ff" points="519.4,-667.51 523.05,-677.46 526.4,-667.41 519.4,-667.51"/>
</a>
</g>
</g>
<!-- Node25 -->
<g id="Node000025" class="node">
<title>Node25</title>
<g id="a_Node000025"><a xlink:href="../../de/dbe/namespaceapplication_1_1app__num.html#aa2be33e8ac1462dfcf0be274bcb97547" target="_top" xlink:title="Update prime methods in tasks.">
<polygon fill="white" stroke="#666666" points="410.5,-270 288.5,-270 288.5,-240 410.5,-240 410.5,-270"/>
<text text-anchor="start" x="296.5" y="-258" font-family="Helvetica,sans-Serif" font-size="10.00">application::app_num</text>
<text text-anchor="middle" x="349.5" y="-247" font-family="Helvetica,sans-Serif" font-size="10.00">::updatePrimeTask</text>
</a>
</g>
</g>
<!-- Node1&#45;&gt;Node25 -->
<g id="edge24_Node000001_Node000025" class="edge">
<title>Node1&#45;&gt;Node25</title>
<g id="a_edge24_Node000001_Node000025"><a xlink:title=" ">
<path fill="none" stroke="#63b8ff" d="M523.74,-667.17C525.04,-602.49 520.42,-395.22 415,-279 411.87,-275.55 408.2,-272.59 404.22,-270.06"/>
<polygon fill="#63b8ff" stroke="#63b8ff" points="520.24,-667.13 523.46,-677.22 527.23,-667.32 520.24,-667.13"/>
</a>
</g>
</g>
<!-- Node26 -->
<g id="Node000026" class="node">
<title>Node26</title>
<g id="a_Node000026"><a xlink:href="../../d7/dd4/namespaceapplication_1_1app__algo.html#a3a656b4460f7f12a01aa7ee21ebaf779" target="_top" xlink:title="Update search methods in tasks.">
<polygon fill="white" stroke="#666666" points="410,-222 289,-222 289,-192 410,-192 410,-222"/>
<text text-anchor="start" x="297" y="-210" font-family="Helvetica,sans-Serif" font-size="10.00">application::app_algo</text>
<text text-anchor="middle" x="349.5" y="-199" font-family="Helvetica,sans-Serif" font-size="10.00">::updateSearchTask</text>
</a>
</g>
</g>
<!-- Node1&#45;&gt;Node26 -->
<g id="edge25_Node000001_Node000026" class="edge">
<title>Node1&#45;&gt;Node26</title>
<g id="a_edge25_Node000001_Node000026"><a xlink:title=" ">
<path fill="none" stroke="#63b8ff" d="M520.79,-667.16C511.64,-588.33 474.42,-298.27 415,-231 411.99,-227.6 408.46,-224.68 404.62,-222.17"/>
<polygon fill="#63b8ff" stroke="#63b8ff" points="517.32,-667.67 521.93,-677.21 524.28,-666.88 517.32,-667.67"/>
</a>
</g>
</g>
<!-- Node27 -->
<g id="Node000027" class="node">
<title>Node27</title>
<g id="a_Node000027"><a xlink:href="../../d7/dd4/namespaceapplication_1_1app__algo.html#a42e0672cae1cab3fcfee4546e5c774bd" target="_top" xlink:title="Update sort methods in tasks.">
<polygon fill="white" stroke="#666666" points="410,-174 289,-174 289,-144 410,-144 410,-174"/>
<text text-anchor="start" x="297" y="-162" font-family="Helvetica,sans-Serif" font-size="10.00">application::app_algo</text>
<text text-anchor="middle" x="349.5" y="-151" font-family="Helvetica,sans-Serif" font-size="10.00">::updateSortTask</text>
</a>
</g>
</g>
<!-- Node1&#45;&gt;Node27 -->
<g id="edge26_Node000001_Node000027" class="edge">
<title>Node1&#45;&gt;Node27</title>
<g id="a_edge26_Node000001_Node000027"><a xlink:title=" ">
<path fill="none" stroke="#63b8ff" d="M521.28,-667.27C513.63,-583.53 480.12,-258.32 415,-183 412.03,-179.57 408.52,-176.62 404.7,-174.1"/>
<polygon fill="#63b8ff" stroke="#63b8ff" points="517.82,-667.79 522.19,-677.44 524.79,-667.16 517.82,-667.79"/>
</a>
</g>
</g>
<!-- Node28 -->
<g id="Node000028" class="node">
<title>Node28</title>
<g id="a_Node000028"><a xlink:href="../../d2/dc1/namespaceapplication_1_1app__dp.html#a58fd8535b0292c522d1c423f8e72ec23" target="_top" xlink:title="Update structural instances in tasks.">
<polygon fill="white" stroke="#666666" points="412,-126 287,-126 287,-96 412,-96 412,-126"/>
<text text-anchor="start" x="295" y="-114" font-family="Helvetica,sans-Serif" font-size="10.00">application::app_dp</text>
<text text-anchor="middle" x="349.5" y="-103" font-family="Helvetica,sans-Serif" font-size="10.00">::updateStructuralTask</text>
</a>
</g>
</g>
<!-- Node1&#45;&gt;Node28 -->
<g id="edge27_Node000001_Node000028" class="edge">
<title>Node1&#45;&gt;Node28</title>
<g id="a_edge27_Node000001_Node000028"><a xlink:title=" ">
<path fill="none" stroke="#63b8ff" d="M521.69,-667.4C515.43,-579.03 485.84,-218.44 415,-135 412.06,-131.54 408.57,-128.58 404.77,-126.04"/>
<polygon fill="#63b8ff" stroke="#63b8ff" points="518.2,-667.67 522.38,-677.4 525.19,-667.18 518.2,-667.67"/>
</a>
</g>
</g>
<!-- Node29 -->
<g id="Node000029" class="node">
<title>Node29</title>
<g id="a_Node000029"><a xlink:href="../../d0/dc3/namespaceapplication_1_1app__ds.html#a234942cdedda4b128d0257b964e15fc9" target="_top" xlink:title="Update tree instances in tasks.">
<polygon fill="white" stroke="#666666" points="405,-78 294,-78 294,-48 405,-48 405,-78"/>
<text text-anchor="start" x="302" y="-66" font-family="Helvetica,sans-Serif" font-size="10.00">application::app_ds</text>
<text text-anchor="middle" x="349.5" y="-55" font-family="Helvetica,sans-Serif" font-size="10.00">::updateTreeTask</text>
</a>
</g>
</g>
<!-- Node1&#45;&gt;Node29 -->
<g id="edge28_Node000001_Node000029" class="edge">
<title>Node1&#45;&gt;Node29</title>
<g id="a_edge28_Node000001_Node000029"><a xlink:title=" ">
<path fill="none" stroke="#63b8ff" d="M522.02,-667.21C517.01,-573.88 491.5,-178.5 415,-87 412.16,-83.61 408.8,-80.7 405.12,-78.19"/>
<polygon fill="#63b8ff" stroke="#63b8ff" points="518.54,-667.67 522.55,-677.48 525.53,-667.31 518.54,-667.67"/>
</a>
</g>
</g>
<!-- Node30 -->
<g id="Node000030" class="node">
<title>Node30</title>
<g id="a_Node000030"><a xlink:href="../../d0/d11/classapplication_1_1config_1_1Config.html#adc220be047396cd0201fbd15d2093bd8" target="_top" xlink:title="Verify the data.">
<polygon fill="white" stroke="#666666" points="404.5,-30 294.5,-30 294.5,0 404.5,0 404.5,-30"/>
<text text-anchor="start" x="302.5" y="-18" font-family="Helvetica,sans-Serif" font-size="10.00">application::config</text>
<text text-anchor="middle" x="349.5" y="-7" font-family="Helvetica,sans-Serif" font-size="10.00">::Config::verifyData</text>
</a>
</g>
</g>
<!-- Node1&#45;&gt;Node30 -->
<g id="edge29_Node000001_Node000030" class="edge">
<title>Node1&#45;&gt;Node30</title>
<g id="a_edge29_Node000001_Node000030"><a xlink:title=" ">
<path fill="none" stroke="#63b8ff" d="M522.3,-667.18C518.49,-569.34 497.21,-138.64 415,-39 412.03,-35.41 408.48,-32.35 404.57,-29.75"/>
<polygon fill="#63b8ff" stroke="#63b8ff" points="518.81,-667.33 522.68,-677.19 525.8,-667.07 518.81,-667.33"/>
</a>
</g>
</g>
<!-- Node31 -->
<g id="Node000031" class="node">
<title>Node31</title>
<g id="a_Node000031"><a xlink:href="../../d0/d11/classapplication_1_1config_1_1Config.html#a8b8adf0f9a6ebcd90271dafafdcd2f62" target="_top" xlink:title="Parse the configuration file.">
<polygon fill="white" stroke="#666666" points="248,-30 142,-30 142,0 248,0 248,-30"/>
<text text-anchor="start" x="150" y="-18" font-family="Helvetica,sans-Serif" font-size="10.00">application::config</text>
<text text-anchor="middle" x="195" y="-7" font-family="Helvetica,sans-Serif" font-size="10.00">::Config::parseFile</text>
</a>
</g>
</g>
<!-- Node30&#45;&gt;Node31 -->
<g id="edge30_Node000030_Node000031" class="edge">
<title>Node30&#45;&gt;Node31</title>
<g id="a_edge30_Node000030_Node000031"><a xlink:title=" ">
<path fill="none" stroke="#63b8ff" d="M283.96,-15C272.04,-15 259.73,-15 248.23,-15"/>
<polygon fill="#63b8ff" stroke="#63b8ff" points="284.3,-18.5 294.3,-15 284.3,-11.5 284.3,-18.5"/>
</a>
</g>
</g>
<!-- Node32 -->
<g id="Node000032" class="node">
<title>Node32</title>
<g id="a_Node000032"><a xlink:href="../../d0/d11/classapplication_1_1config_1_1Config.html#ab3c2ccfa11cb8fd4df7a5442b5e20227" target="_top" xlink:title="Construct a new Config object.">
<polygon fill="white" stroke="#666666" points="106,-30 0,-30 0,0 106,0 106,-30"/>
<text text-anchor="start" x="8" y="-18" font-family="Helvetica,sans-Serif" font-size="10.00">application::config</text>
<text text-anchor="middle" x="53" y="-7" font-family="Helvetica,sans-Serif" font-size="10.00">::Config::Config</text>
</a>
</g>
</g>
<!-- Node31&#45;&gt;Node32 -->
<g id="edge31_Node000031_Node000032" class="edge">
<title>Node31&#45;&gt;Node32</title>
<g id="a_edge31_Node000031_Node000032"><a xlink:title=" ">
<path fill="none" stroke="#63b8ff" d="M131.61,-15C123.12,-15 114.47,-15 106.17,-15"/>
<polygon fill="#63b8ff" stroke="#63b8ff" points="131.87,-18.5 141.87,-15 131.87,-11.5 131.87,-18.5"/>
</a>
</g>
</g>
</g>
</svg>
