<?xml version="1.0" encoding="UTF-8" standalone="no"?>
<!DOCTYPE svg PUBLIC "-//W3C//DTD SVG 1.1//EN"
 "http://www.w3.org/Graphics/SVG/1.1/DTD/svg11.dtd">
<!-- Generated by graphviz version 2.43.0 (0)
 -->
<!-- Title: design_pattern::structural::composite::Composite Pages: 1 -->
<svg width="897pt" height="113pt"
 viewBox="0.00 0.00 897.00 113.00" xmlns="http://www.w3.org/2000/svg" xmlns:xlink="http://www.w3.org/1999/xlink">
<g id="graph0" class="graph" transform="scale(1 1) rotate(0) translate(4 109)">
<title>design_pattern::structural::composite::Composite</title>
<!-- Node1 -->
<g id="Node000001" class="node">
<title>Node1</title>
<g id="a_Node000001"><a xlink:title="The behavior of the components having children.">
<polygon fill="#999999" stroke="#666666" points="889,-78 747,-78 747,-48 889,-48 889,-78"/>
<text text-anchor="start" x="755" y="-66" font-family="Helvetica,sans-Serif" font-size="10.00">design_pattern::structural</text>
<text text-anchor="middle" x="818" y="-55" font-family="Helvetica,sans-Serif" font-size="10.00">::composite::Composite</text>
</a>
</g>
</g>
<!-- Node2 -->
<g id="Node000002" class="node">
<title>Node2</title>
<g id="a_Node000002"><a xlink:href="../../d4/da1/classdesign__pattern_1_1structural_1_1composite_1_1Component.html" target="_top" xlink:title="Both the composite and the leaf nodes are in the composition.">
<polygon fill="white" stroke="#666666" points="653,-105 511,-105 511,-75 653,-75 653,-105"/>
<text text-anchor="start" x="519" y="-93" font-family="Helvetica,sans-Serif" font-size="10.00">design_pattern::structural</text>
<text text-anchor="middle" x="582" y="-82" font-family="Helvetica,sans-Serif" font-size="10.00">::composite::Component</text>
</a>
</g>
</g>
<!-- Node2&#45;&gt;Node1 -->
<g id="edge1_Node000001_Node000002" class="edge">
<title>Node2&#45;&gt;Node1</title>
<g id="a_edge1_Node000001_Node000002"><a xlink:title=" ">
<path fill="none" stroke="#63b8ff" d="M663.44,-80.72C690.56,-77.59 720.58,-74.12 746.84,-71.1"/>
<polygon fill="#63b8ff" stroke="#63b8ff" points="662.74,-77.28 653.21,-81.9 663.54,-84.23 662.74,-77.28"/>
</a>
</g>
</g>
<!-- Node3 -->
<g id="Node000003" class="node">
<title>Node3</title>
<g id="a_Node000003"><a target="_parent" xlink:href="https://gcc.gnu.org/onlinedocs/gcc-12.3.0/libstdc++/api/a08791.html" xlink:title=" ">
<polygon fill="white" stroke="#666666" points="668,-56.5 496,-56.5 496,-15.5 668,-15.5 668,-56.5"/>
<text text-anchor="start" x="504" y="-44.5" font-family="Helvetica,sans-Serif" font-size="10.00">std::vector&lt; std::shared</text>
<text text-anchor="start" x="504" y="-33.5" font-family="Helvetica,sans-Serif" font-size="10.00">_ptr&lt; design_pattern::structural</text>
<text text-anchor="middle" x="582" y="-22.5" font-family="Helvetica,sans-Serif" font-size="10.00">::composite::Component &gt; &gt;</text>
</a>
</g>
</g>
<!-- Node3&#45;&gt;Node1 -->
<g id="edge2_Node000001_Node000003" class="edge">
<title>Node3&#45;&gt;Node1</title>
<g id="a_edge2_Node000001_Node000003"><a xlink:title=" ">
<path fill="none" stroke="#9a32cd" stroke-dasharray="5,2" d="M678.25,-46.99C701.21,-49.64 725.33,-52.42 746.9,-54.91"/>
<polygon fill="#9a32cd" stroke="#9a32cd" points="678.48,-43.49 668.14,-45.82 677.67,-50.45 678.48,-43.49"/>
</a>
</g>
<text text-anchor="middle" x="707.5" y="-55" font-family="Helvetica,sans-Serif" font-size="10.00" fill="grey"> children</text>
</g>
<!-- Node4 -->
<g id="Node000004" class="node">
<title>Node4</title>
<g id="a_Node000004"><a target="_parent" xlink:href="https://gcc.gnu.org/onlinedocs/gcc-12.3.0/libstdc++/api/a08779.html" xlink:title=" ">
<polygon fill="white" stroke="#666666" points="145,-58.5 0,-58.5 0,-17.5 145,-17.5 145,-58.5"/>
<text text-anchor="start" x="8" y="-46.5" font-family="Helvetica,sans-Serif" font-size="10.00">std::_Vector_base&lt;</text>
<text text-anchor="start" x="8" y="-35.5" font-family="Helvetica,sans-Serif" font-size="10.00"> typename _Tp, typename</text>
<text text-anchor="middle" x="72.5" y="-24.5" font-family="Helvetica,sans-Serif" font-size="10.00"> _Alloc &gt;</text>
</a>
</g>
</g>
<!-- Node4&#45;&gt;Node3 -->
<g id="edge3_Node000003_Node000004" class="edge">
<title>Node4&#45;&gt;Node3</title>
<g id="a_edge3_Node000003_Node000004"><a xlink:title=" ">
<path fill="none" stroke="darkgreen" d="M155.37,-42.89C237.12,-47 366.32,-51.41 478,-46 483.83,-45.72 489.84,-45.35 495.89,-44.91"/>
<polygon fill="darkgreen" stroke="darkgreen" points="155.32,-39.38 145.15,-42.36 154.96,-46.37 155.32,-39.38"/>
</a>
</g>
</g>
<!-- Node5 -->
<g id="Node000005" class="node">
<title>Node5</title>
<g id="a_Node000005"><a target="_parent" xlink:href="https://gcc.gnu.org/onlinedocs/gcc-12.3.0/libstdc++/api/a08791.html" xlink:title=" ">
<polygon fill="white" stroke="#666666" points="318,-30 182,-30 182,0 318,0 318,-30"/>
<text text-anchor="start" x="190" y="-18" font-family="Helvetica,sans-Serif" font-size="10.00">std::vector&lt; typename</text>
<text text-anchor="middle" x="250" y="-7" font-family="Helvetica,sans-Serif" font-size="10.00"> _Tp, typename _Alloc &gt;</text>
</a>
</g>
</g>
<!-- Node4&#45;&gt;Node5 -->
<g id="edge5_Node000005_Node000004" class="edge">
<title>Node4&#45;&gt;Node5</title>
<g id="a_edge5_Node000005_Node000004"><a xlink:title=" ">
<path fill="none" stroke="darkgreen" d="M155.16,-27.3C164.09,-26.13 173.11,-24.95 181.84,-23.8"/>
<polygon fill="darkgreen" stroke="darkgreen" points="154.6,-23.84 145.14,-28.61 155.51,-30.78 154.6,-23.84"/>
</a>
</g>
</g>
<!-- Node5&#45;&gt;Node3 -->
<g id="edge4_Node000003_Node000005" class="edge">
<title>Node5&#45;&gt;Node3</title>
<g id="a_edge4_Node000003_Node000005"><a xlink:title=" ">
<path fill="none" stroke="orange" stroke-dasharray="5,2" d="M328.34,-13.1C330.92,-13.06 333.48,-13.03 336,-13 399.11,-12.26 415.27,-6.08 478,-13 483.83,-13.64 489.81,-14.48 495.81,-15.46"/>
<polygon fill="orange" stroke="orange" points="328.21,-9.6 318.27,-13.27 328.33,-16.6 328.21,-9.6"/>
</a>
</g>
<text text-anchor="start" x="336" y="-38" font-family="Helvetica,sans-Serif" font-size="10.00" fill="grey"> &lt; std::shared_ptr&lt;</text>
<text text-anchor="start" x="336" y="-27" font-family="Helvetica,sans-Serif" font-size="10.00" fill="grey"> design_pattern::structural</text>
<text text-anchor="middle" x="407" y="-16" font-family="Helvetica,sans-Serif" font-size="10.00" fill="grey">::composite::Component &gt; &gt;</text>
</g>
</g>
</svg>
