<?xml version="1.0" encoding="UTF-8" standalone="no"?>
<!DOCTYPE svg PUBLIC "-//W3C//DTD SVG 1.1//EN"
 "http://www.w3.org/Graphics/SVG/1.1/DTD/svg11.dtd">
<!-- Generated by graphviz version 2.43.0 (0)
 -->
<!-- Title: design_pattern::behavioral::iterator::ConcreteAggregate Pages: 1 -->
<svg width="723pt" height="133pt"
 viewBox="0.00 0.00 723.00 133.00" xmlns="http://www.w3.org/2000/svg" xmlns:xlink="http://www.w3.org/1999/xlink">
<g id="graph0" class="graph" transform="scale(1 1) rotate(0) translate(4 129)">
<title>design_pattern::behavioral::iterator::ConcreteAggregate</title>
<!-- Node1 -->
<g id="Node000001" class="node">
<title>Node1</title>
<g id="a_Node000001"><a xlink:title="The concrete aggregate.">
<polygon fill="#999999" stroke="#666666" points="715,-77 557,-77 557,-47 715,-47 715,-77"/>
<text text-anchor="start" x="565" y="-65" font-family="Helvetica,sans-Serif" font-size="10.00">design_pattern::behavioral</text>
<text text-anchor="middle" x="636" y="-54" font-family="Helvetica,sans-Serif" font-size="10.00">::iterator::ConcreteAggregate</text>
</a>
</g>
</g>
<!-- Node2 -->
<g id="Node000002" class="node">
<title>Node2</title>
<g id="a_Node000002"><a xlink:href="../../d9/def/classdesign__pattern_1_1behavioral_1_1iterator_1_1Aggregate.html" target="_top" xlink:title="The aggregate decouples the client from the implementation of the collection of items.">
<polygon fill="white" stroke="#666666" points="483,-125 336,-125 336,-95 483,-95 483,-125"/>
<text text-anchor="start" x="344" y="-113" font-family="Helvetica,sans-Serif" font-size="10.00">design_pattern::behavioral</text>
<text text-anchor="middle" x="409.5" y="-102" font-family="Helvetica,sans-Serif" font-size="10.00">::iterator::Aggregate</text>
</a>
</g>
</g>
<!-- Node2&#45;&gt;Node1 -->
<g id="edge1_Node000001_Node000002" class="edge">
<title>Node2&#45;&gt;Node1</title>
<g id="a_edge1_Node000001_Node000002"><a xlink:title=" ">
<path fill="none" stroke="#63b8ff" d="M490.78,-92.83C514.98,-87.66 541.34,-82.02 564.83,-77"/>
<polygon fill="#63b8ff" stroke="#63b8ff" points="489.96,-89.43 480.92,-94.94 491.43,-96.28 489.96,-89.43"/>
</a>
</g>
</g>
<!-- Node3 -->
<g id="Node000003" class="node">
<title>Node3</title>
<g id="a_Node000003"><a target="_parent" xlink:href="https://gcc.gnu.org/onlinedocs/gcc-12.3.0/libstdc++/api/a07595.html" xlink:title=" ">
<polygon fill="white" stroke="#666666" points="502,-77 317,-77 317,-47 502,-47 502,-77"/>
<text text-anchor="start" x="325" y="-65" font-family="Helvetica,sans-Serif" font-size="10.00">std::enable_shared</text>
<text text-anchor="middle" x="409.5" y="-54" font-family="Helvetica,sans-Serif" font-size="10.00">_from_this&lt; ConcreteAggregate &gt;</text>
</a>
</g>
</g>
<!-- Node3&#45;&gt;Node1 -->
<g id="edge2_Node000001_Node000003" class="edge">
<title>Node3&#45;&gt;Node1</title>
<g id="a_edge2_Node000001_Node000003"><a xlink:title=" ">
<path fill="none" stroke="#63b8ff" d="M512.43,-62C527.38,-62 542.57,-62 556.94,-62"/>
<polygon fill="#63b8ff" stroke="#63b8ff" points="512.14,-58.5 502.14,-62 512.14,-65.5 512.14,-58.5"/>
</a>
</g>
</g>
<!-- Node4 -->
<g id="Node000004" class="node">
<title>Node4</title>
<g id="a_Node000004"><a target="_parent" xlink:href="https://gcc.gnu.org/onlinedocs/gcc-12.3.0/libstdc++/api/a07595.html" xlink:title=" ">
<polygon fill="white" stroke="#666666" points="161,-78 0,-78 0,-48 161,-48 161,-78"/>
<text text-anchor="start" x="8" y="-66" font-family="Helvetica,sans-Serif" font-size="10.00">std::enable_shared</text>
<text text-anchor="middle" x="80.5" y="-55" font-family="Helvetica,sans-Serif" font-size="10.00">_from_this&lt; typename _Tp &gt;</text>
</a>
</g>
</g>
<!-- Node4&#45;&gt;Node3 -->
<g id="edge3_Node000003_Node000004" class="edge">
<title>Node4&#45;&gt;Node3</title>
<g id="a_edge3_Node000003_Node000004"><a xlink:title=" ">
<path fill="none" stroke="orange" stroke-dasharray="5,2" d="M171.19,-62.73C216.51,-62.59 271.4,-62.42 316.98,-62.28"/>
<polygon fill="orange" stroke="orange" points="171.06,-59.23 161.08,-62.76 171.09,-66.23 171.06,-59.23"/>
</a>
</g>
<text text-anchor="middle" x="239" y="-65" font-family="Helvetica,sans-Serif" font-size="10.00" fill="grey"> &lt; ConcreteAggregate &gt;</text>
</g>
<!-- Node5 -->
<g id="Node000005" class="node">
<title>Node5</title>
<g id="a_Node000005"><a target="_parent" xlink:href="https://gcc.gnu.org/onlinedocs/gcc-12.3.0/libstdc++/api/a08835.html" xlink:title=" ">
<polygon fill="white" stroke="#666666" points="474,-26.5 345,-26.5 345,-7.5 474,-7.5 474,-26.5"/>
<text text-anchor="middle" x="409.5" y="-14.5" font-family="Helvetica,sans-Serif" font-size="10.00">std::unique_ptr&lt; int[]&gt;</text>
</a>
</g>
</g>
<!-- Node5&#45;&gt;Node1 -->
<g id="edge4_Node000001_Node000005" class="edge">
<title>Node5&#45;&gt;Node1</title>
<g id="a_edge4_Node000001_Node000005"><a xlink:title=" ">
<path fill="none" stroke="#9a32cd" stroke-dasharray="5,2" d="M468.13,-28.55C496.12,-34.16 530.1,-40.97 560.07,-46.98"/>
<polygon fill="#9a32cd" stroke="#9a32cd" points="468.6,-25.08 458.11,-26.54 467.23,-31.94 468.6,-25.08"/>
</a>
</g>
<text text-anchor="middle" x="529.5" y="-46" font-family="Helvetica,sans-Serif" font-size="10.00" fill="grey"> list</text>
</g>
<!-- Node6 -->
<g id="Node000006" class="node">
<title>Node6</title>
<g id="a_Node000006"><a target="_parent" xlink:href="https://gcc.gnu.org/onlinedocs/gcc-12.3.0/libstdc++/api/a08835.html" xlink:title=" ">
<polygon fill="white" stroke="#666666" points="155.5,-30 5.5,-30 5.5,0 155.5,0 155.5,-30"/>
<text text-anchor="start" x="13.5" y="-18" font-family="Helvetica,sans-Serif" font-size="10.00">std::unique_ptr&lt; typename</text>
<text text-anchor="middle" x="80.5" y="-7" font-family="Helvetica,sans-Serif" font-size="10.00"> _Tp, typename _Dp &gt;</text>
</a>
</g>
</g>
<!-- Node6&#45;&gt;Node5 -->
<g id="edge5_Node000005_Node000006" class="edge">
<title>Node6&#45;&gt;Node5</title>
<g id="a_edge5_Node000005_Node000006"><a xlink:title=" ">
<path fill="none" stroke="orange" stroke-dasharray="5,2" d="M165.93,-15.52C221.75,-15.86 293.77,-16.3 344.79,-16.61"/>
<polygon fill="orange" stroke="orange" points="165.72,-12.02 155.7,-15.45 165.68,-19.02 165.72,-12.02"/>
</a>
</g>
<text text-anchor="middle" x="239" y="-20" font-family="Helvetica,sans-Serif" font-size="10.00" fill="grey"> &lt; int[]&gt;</text>
</g>
</g>
</svg>
