<?xml version="1.0" encoding="UTF-8" standalone="no"?>
<!DOCTYPE svg PUBLIC "-//W3C//DTD SVG 1.1//EN"
 "http://www.w3.org/Graphics/SVG/1.1/DTD/svg11.dtd">
<!-- Generated by graphviz version 2.43.0 (0)
 -->
<!-- Title: numeric::integral::Integral::getSign Pages: 1 -->
<svg width="278pt" height="230pt"
 viewBox="0.00 0.00 278.00 230.00" xmlns="http://www.w3.org/2000/svg" xmlns:xlink="http://www.w3.org/1999/xlink">
<g id="graph0" class="graph" transform="scale(1 1) rotate(0) translate(4 226)">
<title>numeric::integral::Integral::getSign</title>
<!-- Node1 -->
<g id="Node000001" class="node">
<title>Node1</title>
<g id="a_Node000001"><a xlink:title="Get the sign.">
<polygon fill="#999999" stroke="#666666" points="270,-126 164,-126 164,-96 270,-96 270,-126"/>
<text text-anchor="start" x="172" y="-114" font-family="Helvetica,sans-Serif" font-size="10.00">numeric::integral::</text>
<text text-anchor="middle" x="217" y="-103" font-family="Helvetica,sans-Serif" font-size="10.00">Integral::getSign</text>
</a>
</g>
</g>
<!-- Node2 -->
<g id="Node000002" class="node">
<title>Node2</title>
<g id="a_Node000002"><a xlink:href="../../d0/d64/classnumeric_1_1integral_1_1Trapezoidal.html#a7b54826a8aacef0aa8128bb74dbd62d6" target="_top" xlink:title="The operator (()) overloading of Trapezoidal class.">
<polygon fill="white" stroke="#666666" points="127.5,-222 0.5,-222 0.5,-192 127.5,-192 127.5,-222"/>
<text text-anchor="start" x="8.5" y="-210" font-family="Helvetica,sans-Serif" font-size="10.00">numeric::integral::</text>
<text text-anchor="middle" x="64" y="-199" font-family="Helvetica,sans-Serif" font-size="10.00">Trapezoidal::operator()</text>
</a>
</g>
</g>
<!-- Node1&#45;&gt;Node2 -->
<g id="edge1_Node000001_Node000002" class="edge">
<title>Node1&#45;&gt;Node2</title>
<g id="a_edge1_Node000001_Node000002"><a xlink:title=" ">
<path fill="none" stroke="#63b8ff" d="M192.93,-133.4C176.02,-148.89 151.93,-169.14 128,-183 122.33,-186.28 116.12,-189.28 109.89,-191.96"/>
<polygon fill="#63b8ff" stroke="#63b8ff" points="195.7,-135.6 200.62,-126.22 190.92,-130.48 195.7,-135.6"/>
</a>
</g>
</g>
<!-- Node3 -->
<g id="Node000003" class="node">
<title>Node3</title>
<g id="a_Node000003"><a xlink:href="../../d2/d45/classnumeric_1_1integral_1_1Simpson.html#a86fbe76ee6556785e6cd455929aaee32" target="_top" xlink:title="The operator (()) overloading of Simpson class.">
<polygon fill="white" stroke="#666666" points="120.5,-174 7.5,-174 7.5,-144 120.5,-144 120.5,-174"/>
<text text-anchor="start" x="15.5" y="-162" font-family="Helvetica,sans-Serif" font-size="10.00">numeric::integral::</text>
<text text-anchor="middle" x="64" y="-151" font-family="Helvetica,sans-Serif" font-size="10.00">Simpson::operator()</text>
</a>
</g>
</g>
<!-- Node1&#45;&gt;Node3 -->
<g id="edge2_Node000001_Node000003" class="edge">
<title>Node1&#45;&gt;Node3</title>
<g id="a_edge2_Node000001_Node000003"><a xlink:title=" ">
<path fill="none" stroke="#63b8ff" d="M158.73,-129.21C143.37,-134.09 126.94,-139.31 112.19,-144"/>
<polygon fill="#63b8ff" stroke="#63b8ff" points="160.17,-132.42 168.64,-126.06 158.05,-125.75 160.17,-132.42"/>
</a>
</g>
</g>
<!-- Node4 -->
<g id="Node000004" class="node">
<title>Node4</title>
<g id="a_Node000004"><a xlink:href="../../d5/d9e/classnumeric_1_1integral_1_1Romberg.html#a2e8e957332bf7d24112750337f9bc51e" target="_top" xlink:title="The operator (()) overloading of Romberg class.">
<polygon fill="white" stroke="#666666" points="122,-126 6,-126 6,-96 122,-96 122,-126"/>
<text text-anchor="start" x="14" y="-114" font-family="Helvetica,sans-Serif" font-size="10.00">numeric::integral::</text>
<text text-anchor="middle" x="64" y="-103" font-family="Helvetica,sans-Serif" font-size="10.00">Romberg::operator()</text>
</a>
</g>
</g>
<!-- Node1&#45;&gt;Node4 -->
<g id="edge3_Node000001_Node000004" class="edge">
<title>Node1&#45;&gt;Node4</title>
<g id="a_edge3_Node000001_Node000004"><a xlink:title=" ">
<path fill="none" stroke="#63b8ff" d="M153.41,-111C143.07,-111 132.39,-111 122.19,-111"/>
<polygon fill="#63b8ff" stroke="#63b8ff" points="153.61,-114.5 163.61,-111 153.61,-107.5 153.61,-114.5"/>
</a>
</g>
</g>
<!-- Node5 -->
<g id="Node000005" class="node">
<title>Node5</title>
<g id="a_Node000005"><a xlink:href="../../d2/dcf/classnumeric_1_1integral_1_1Gauss.html#a10ebaa00df28143a16e571eac7f295c9" target="_top" xlink:title="The operator (()) overloading of Gauss class.">
<polygon fill="white" stroke="#666666" points="117,-78 11,-78 11,-48 117,-48 117,-78"/>
<text text-anchor="start" x="19" y="-66" font-family="Helvetica,sans-Serif" font-size="10.00">numeric::integral::</text>
<text text-anchor="middle" x="64" y="-55" font-family="Helvetica,sans-Serif" font-size="10.00">Gauss::operator()</text>
</a>
</g>
</g>
<!-- Node1&#45;&gt;Node5 -->
<g id="edge4_Node000001_Node000005" class="edge">
<title>Node1&#45;&gt;Node5</title>
<g id="a_edge4_Node000001_Node000005"><a xlink:title=" ">
<path fill="none" stroke="#63b8ff" d="M158.73,-92.79C143.37,-87.91 126.94,-82.69 112.19,-78"/>
<polygon fill="#63b8ff" stroke="#63b8ff" points="158.05,-96.25 168.64,-95.94 160.17,-89.58 158.05,-96.25"/>
</a>
</g>
</g>
<!-- Node6 -->
<g id="Node000006" class="node">
<title>Node6</title>
<g id="a_Node000006"><a xlink:href="../../d0/d64/classnumeric_1_1integral_1_1MonteCarlo.html#a1fb2d9599a6bf334578b2a9d8c93b3aa" target="_top" xlink:title="The operator (()) overloading of MonteCarlo class.">
<polygon fill="white" stroke="#666666" points="128,-30 0,-30 0,0 128,0 128,-30"/>
<text text-anchor="start" x="8" y="-18" font-family="Helvetica,sans-Serif" font-size="10.00">numeric::integral::</text>
<text text-anchor="middle" x="64" y="-7" font-family="Helvetica,sans-Serif" font-size="10.00">MonteCarlo::operator()</text>
</a>
</g>
</g>
<!-- Node1&#45;&gt;Node6 -->
<g id="edge5_Node000001_Node000006" class="edge">
<title>Node1&#45;&gt;Node6</title>
<g id="a_edge5_Node000001_Node000006"><a xlink:title=" ">
<path fill="none" stroke="#63b8ff" d="M192.93,-88.6C176.02,-73.11 151.93,-52.86 128,-39 122.33,-35.72 116.12,-32.72 109.89,-30.04"/>
<polygon fill="#63b8ff" stroke="#63b8ff" points="190.92,-91.52 200.62,-95.78 195.7,-86.4 190.92,-91.52"/>
</a>
</g>
</g>
</g>
</svg>
