<?xml version="1.0" encoding="UTF-8" standalone="no"?>
<!DOCTYPE svg PUBLIC "-//W3C//DTD SVG 1.1//EN"
 "http://www.w3.org/Graphics/SVG/1.1/DTD/svg11.dtd">
<!-- Generated by graphviz version 2.43.0 (0)
 -->
<!-- Title: date_structure::linear::doubly_linked_list::dllSize Pages: 1 -->
<svg width="286pt" height="167pt"
 viewBox="0.00 0.00 286.00 167.00" xmlns="http://www.w3.org/2000/svg" xmlns:xlink="http://www.w3.org/1999/xlink">
<g id="graph0" class="graph" transform="scale(1 1) rotate(0) translate(4 163)">
<title>date_structure::linear::doubly_linked_list::dllSize</title>
<!-- Node1 -->
<g id="Node000001" class="node">
<title>Node1</title>
<g id="a_Node000001"><a xlink:title="Get the size of the doubly linked list.">
<polygon fill="#999999" stroke="#666666" points="278,-100 157,-100 157,-59 278,-59 278,-100"/>
<text text-anchor="start" x="165" y="-88" font-family="Helvetica,sans-Serif" font-size="10.00">date_structure::linear</text>
<text text-anchor="start" x="165" y="-77" font-family="Helvetica,sans-Serif" font-size="10.00">::doubly_linked_list::</text>
<text text-anchor="middle" x="217.5" y="-66" font-family="Helvetica,sans-Serif" font-size="10.00">dllSize</text>
</a>
</g>
</g>
<!-- Node2 -->
<g id="Node000002" class="node">
<title>Node2</title>
<g id="a_Node000002"><a xlink:href="../../d6/d20/namespacedate__structure_1_1linear_1_1doubly__linked__list.html#a3a7db32277d37626de6fcbfa45be3dc7" target="_top" xlink:title="Delete the last node from the doubly linked list.">
<polygon fill="white" stroke="#666666" points="121,-159 0,-159 0,-118 121,-118 121,-159"/>
<text text-anchor="start" x="8" y="-147" font-family="Helvetica,sans-Serif" font-size="10.00">date_structure::linear</text>
<text text-anchor="start" x="8" y="-136" font-family="Helvetica,sans-Serif" font-size="10.00">::doubly_linked_list::</text>
<text text-anchor="middle" x="60.5" y="-125" font-family="Helvetica,sans-Serif" font-size="10.00">dllDeleteLast</text>
</a>
</g>
</g>
<!-- Node1&#45;&gt;Node2 -->
<g id="edge1_Node000001_Node000002" class="edge">
<title>Node1&#45;&gt;Node2</title>
<g id="a_edge1_Node000001_Node000002"><a xlink:title=" ">
<path fill="none" stroke="#63b8ff" d="M152.89,-103.71C140.45,-108.45 127.51,-113.37 115.42,-117.98"/>
<polygon fill="#63b8ff" stroke="#63b8ff" points="154.19,-106.96 162.29,-100.14 151.7,-100.42 154.19,-106.96"/>
</a>
</g>
</g>
<!-- Node3 -->
<g id="Node000003" class="node">
<title>Node3</title>
<g id="a_Node000003"><a xlink:href="../../d6/d20/namespacedate__structure_1_1linear_1_1doubly__linked__list.html#a002df9d7ae5dab9082c5b3adba6dbb62" target="_top" xlink:title="Get the last node of the doubly linked list.">
<polygon fill="white" stroke="#666666" points="121,-100 0,-100 0,-59 121,-59 121,-100"/>
<text text-anchor="start" x="8" y="-88" font-family="Helvetica,sans-Serif" font-size="10.00">date_structure::linear</text>
<text text-anchor="start" x="8" y="-77" font-family="Helvetica,sans-Serif" font-size="10.00">::doubly_linked_list::</text>
<text text-anchor="middle" x="60.5" y="-66" font-family="Helvetica,sans-Serif" font-size="10.00">dllGetLast</text>
</a>
</g>
</g>
<!-- Node1&#45;&gt;Node3 -->
<g id="edge2_Node000001_Node000003" class="edge">
<title>Node1&#45;&gt;Node3</title>
<g id="a_edge2_Node000001_Node000003"><a xlink:title=" ">
<path fill="none" stroke="#63b8ff" d="M146.34,-79.5C137.88,-79.5 129.3,-79.5 121.01,-79.5"/>
<polygon fill="#63b8ff" stroke="#63b8ff" points="146.57,-83 156.57,-79.5 146.57,-76 146.57,-83"/>
</a>
</g>
</g>
<!-- Node4 -->
<g id="Node000004" class="node">
<title>Node4</title>
<g id="a_Node000004"><a xlink:href="../../d6/d20/namespacedate__structure_1_1linear_1_1doubly__linked__list.html#a7682a59f8a6fe5c24a28bdba5ad08144" target="_top" xlink:title="Check whether any nodes do not exist in the doubly linked list.">
<polygon fill="white" stroke="#666666" points="121,-41 0,-41 0,0 121,0 121,-41"/>
<text text-anchor="start" x="8" y="-29" font-family="Helvetica,sans-Serif" font-size="10.00">date_structure::linear</text>
<text text-anchor="start" x="8" y="-18" font-family="Helvetica,sans-Serif" font-size="10.00">::doubly_linked_list::</text>
<text text-anchor="middle" x="60.5" y="-7" font-family="Helvetica,sans-Serif" font-size="10.00">dllIsEmpty</text>
</a>
</g>
</g>
<!-- Node1&#45;&gt;Node4 -->
<g id="edge3_Node000001_Node000004" class="edge">
<title>Node1&#45;&gt;Node4</title>
<g id="a_edge3_Node000001_Node000004"><a xlink:title=" ">
<path fill="none" stroke="#63b8ff" d="M152.89,-55.29C140.45,-50.55 127.51,-45.63 115.42,-41.02"/>
<polygon fill="#63b8ff" stroke="#63b8ff" points="151.7,-58.58 162.29,-58.86 154.19,-52.04 151.7,-58.58"/>
</a>
</g>
</g>
</g>
</svg>
