<?xml version="1.0" encoding="UTF-8" standalone="no"?>
<!DOCTYPE svg PUBLIC "-//W3C//DTD SVG 1.1//EN"
 "http://www.w3.org/Graphics/SVG/1.1/DTD/svg11.dtd">
<!-- Generated by graphviz version 2.43.0 (0)
 -->
<!-- Title: date_structure::linear::doubly_linked_list::createNode Pages: 1 -->
<svg width="443pt" height="206pt"
 viewBox="0.00 0.00 443.00 206.00" xmlns="http://www.w3.org/2000/svg" xmlns:xlink="http://www.w3.org/1999/xlink">
<g id="graph0" class="graph" transform="scale(1 1) rotate(0) translate(4 202)">
<title>date_structure::linear::doubly_linked_list::createNode</title>
<!-- Node1 -->
<g id="Node000001" class="node">
<title>Node1</title>
<g id="a_Node000001"><a xlink:title="Create a node of the doubly linked list.">
<polygon fill="#999999" stroke="#666666" points="435,-124 314,-124 314,-83 435,-83 435,-124"/>
<text text-anchor="start" x="322" y="-112" font-family="Helvetica,sans-Serif" font-size="10.00">date_structure::linear</text>
<text text-anchor="start" x="322" y="-101" font-family="Helvetica,sans-Serif" font-size="10.00">::doubly_linked_list::</text>
<text text-anchor="middle" x="374.5" y="-90" font-family="Helvetica,sans-Serif" font-size="10.00">createNode</text>
</a>
</g>
</g>
<!-- Node2 -->
<g id="Node000002" class="node">
<title>Node2</title>
<g id="a_Node000002"><a xlink:href="../../d6/d20/namespacedate__structure_1_1linear_1_1doubly__linked__list.html#a918bbc93cab0a4f9d010ef659406d6d9" target="_top" xlink:title="Create a doubly linked list.">
<polygon fill="white" stroke="#666666" points="278,-198 157,-198 157,-157 278,-157 278,-198"/>
<text text-anchor="start" x="165" y="-186" font-family="Helvetica,sans-Serif" font-size="10.00">date_structure::linear</text>
<text text-anchor="start" x="165" y="-175" font-family="Helvetica,sans-Serif" font-size="10.00">::doubly_linked_list::</text>
<text text-anchor="middle" x="217.5" y="-164" font-family="Helvetica,sans-Serif" font-size="10.00">createDll</text>
</a>
</g>
</g>
<!-- Node1&#45;&gt;Node2 -->
<g id="edge1_Node000001_Node000002" class="edge">
<title>Node1&#45;&gt;Node2</title>
<g id="a_edge1_Node000001_Node000002"><a xlink:title=" ">
<path fill="none" stroke="#63b8ff" d="M321.28,-128.43C301.82,-137.72 279.98,-148.15 261.44,-157"/>
<polygon fill="#63b8ff" stroke="#63b8ff" points="322.81,-131.58 330.32,-124.11 319.79,-125.26 322.81,-131.58"/>
</a>
</g>
</g>
<!-- Node3 -->
<g id="Node000003" class="node">
<title>Node3</title>
<g id="a_Node000003"><a xlink:href="../../d6/d20/namespacedate__structure_1_1linear_1_1doubly__linked__list.html#a243bc505b24f7185ec0d587315a96bd3" target="_top" xlink:title="Insert the target node into the doubly linked list by index.">
<polygon fill="white" stroke="#666666" points="121,-124 0,-124 0,-83 121,-83 121,-124"/>
<text text-anchor="start" x="8" y="-112" font-family="Helvetica,sans-Serif" font-size="10.00">date_structure::linear</text>
<text text-anchor="start" x="8" y="-101" font-family="Helvetica,sans-Serif" font-size="10.00">::doubly_linked_list::</text>
<text text-anchor="middle" x="60.5" y="-90" font-family="Helvetica,sans-Serif" font-size="10.00">dllInsert</text>
</a>
</g>
</g>
<!-- Node1&#45;&gt;Node3 -->
<g id="edge2_Node000001_Node000003" class="edge">
<title>Node1&#45;&gt;Node3</title>
<g id="a_edge2_Node000001_Node000003"><a xlink:title=" ">
<path fill="none" stroke="#63b8ff" d="M303.8,-108.39C295.11,-108.85 286.35,-109.24 278,-109.5 224.25,-111.19 210.75,-111.19 157,-109.5 145.38,-109.14 132.97,-108.52 121.08,-107.82"/>
<polygon fill="#63b8ff" stroke="#63b8ff" points="304.13,-111.87 313.92,-107.82 303.74,-104.89 304.13,-111.87"/>
</a>
</g>
</g>
<!-- Node4 -->
<g id="Node000004" class="node">
<title>Node4</title>
<g id="a_Node000004"><a xlink:href="../../d6/d20/namespacedate__structure_1_1linear_1_1doubly__linked__list.html#a273966dc96a9d31e787401f913d33baf" target="_top" xlink:title="Insert the target node into the doubly linked list as the first node.">
<polygon fill="white" stroke="#666666" points="278,-100 157,-100 157,-59 278,-59 278,-100"/>
<text text-anchor="start" x="165" y="-88" font-family="Helvetica,sans-Serif" font-size="10.00">date_structure::linear</text>
<text text-anchor="start" x="165" y="-77" font-family="Helvetica,sans-Serif" font-size="10.00">::doubly_linked_list::</text>
<text text-anchor="middle" x="217.5" y="-66" font-family="Helvetica,sans-Serif" font-size="10.00">dllInsertFirst</text>
</a>
</g>
</g>
<!-- Node1&#45;&gt;Node4 -->
<g id="edge3_Node000001_Node000004" class="edge">
<title>Node1&#45;&gt;Node4</title>
<g id="a_edge3_Node000001_Node000004"><a xlink:title=" ">
<path fill="none" stroke="#63b8ff" d="M303.62,-92.68C295.07,-91.36 286.39,-90.01 278.01,-88.71"/>
<polygon fill="#63b8ff" stroke="#63b8ff" points="303.16,-96.15 313.57,-94.22 304.23,-89.23 303.16,-96.15"/>
</a>
</g>
</g>
<!-- Node5 -->
<g id="Node000005" class="node">
<title>Node5</title>
<g id="a_Node000005"><a xlink:href="../../d6/d20/namespacedate__structure_1_1linear_1_1doubly__linked__list.html#af123c1bf87405537b38c59bfa2c15a69" target="_top" xlink:title="Insert the target node into the doubly linked list as the last node.">
<polygon fill="white" stroke="#666666" points="278,-41 157,-41 157,0 278,0 278,-41"/>
<text text-anchor="start" x="165" y="-29" font-family="Helvetica,sans-Serif" font-size="10.00">date_structure::linear</text>
<text text-anchor="start" x="165" y="-18" font-family="Helvetica,sans-Serif" font-size="10.00">::doubly_linked_list::</text>
<text text-anchor="middle" x="217.5" y="-7" font-family="Helvetica,sans-Serif" font-size="10.00">dllInsertLast</text>
</a>
</g>
</g>
<!-- Node1&#45;&gt;Node5 -->
<g id="edge5_Node000001_Node000005" class="edge">
<title>Node1&#45;&gt;Node5</title>
<g id="a_edge5_Node000001_Node000005"><a xlink:title=" ">
<path fill="none" stroke="#63b8ff" d="M327.94,-77.74C312.2,-68.96 294.39,-59.18 278,-50.5 272.17,-47.42 265.99,-44.22 259.9,-41.11"/>
<polygon fill="#63b8ff" stroke="#63b8ff" points="326.52,-80.95 336.95,-82.77 329.93,-74.84 326.52,-80.95"/>
</a>
</g>
</g>
<!-- Node4&#45;&gt;Node3 -->
<g id="edge4_Node000004_Node000003" class="edge">
<title>Node4&#45;&gt;Node3</title>
<g id="a_edge4_Node000004_Node000003"><a xlink:title=" ">
<path fill="none" stroke="#63b8ff" d="M146.62,-90.32C138.07,-91.64 129.39,-92.99 121.01,-94.29"/>
<polygon fill="#63b8ff" stroke="#63b8ff" points="147.23,-93.77 156.57,-88.78 146.16,-86.85 147.23,-93.77"/>
</a>
</g>
</g>
</g>
</svg>
