<?xml version="1.0" encoding="UTF-8" standalone="no"?>
<!DOCTYPE svg PUBLIC "-//W3C//DTD SVG 1.1//EN"
 "http://www.w3.org/Graphics/SVG/1.1/DTD/svg11.dtd">
<!-- Generated by graphviz version 2.43.0 (0)
 -->
<!-- Title: date_structure::linear::doubly_linked_list::getNode Pages: 1 -->
<svg width="443pt" height="226pt"
 viewBox="0.00 0.00 443.00 226.00" xmlns="http://www.w3.org/2000/svg" xmlns:xlink="http://www.w3.org/1999/xlink">
<g id="graph0" class="graph" transform="scale(1 1) rotate(0) translate(4 222)">
<title>date_structure::linear::doubly_linked_list::getNode</title>
<!-- Node1 -->
<g id="Node000001" class="node">
<title>Node1</title>
<g id="a_Node000001"><a xlink:title="Get the node of the doubly linked list by index.">
<polygon fill="#999999" stroke="#666666" points="435,-100 314,-100 314,-59 435,-59 435,-100"/>
<text text-anchor="start" x="322" y="-88" font-family="Helvetica,sans-Serif" font-size="10.00">date_structure::linear</text>
<text text-anchor="start" x="322" y="-77" font-family="Helvetica,sans-Serif" font-size="10.00">::doubly_linked_list::</text>
<text text-anchor="middle" x="374.5" y="-66" font-family="Helvetica,sans-Serif" font-size="10.00">getNode</text>
</a>
</g>
</g>
<!-- Node2 -->
<g id="Node000002" class="node">
<title>Node2</title>
<g id="a_Node000002"><a xlink:href="../../d6/d20/namespacedate__structure_1_1linear_1_1doubly__linked__list.html#a8147622a2c7c2dc42a46304db7ca7784" target="_top" xlink:title="Delete the target node from the doubly linked list by index.">
<polygon fill="white" stroke="#666666" points="278,-159 157,-159 157,-118 278,-118 278,-159"/>
<text text-anchor="start" x="165" y="-147" font-family="Helvetica,sans-Serif" font-size="10.00">date_structure::linear</text>
<text text-anchor="start" x="165" y="-136" font-family="Helvetica,sans-Serif" font-size="10.00">::doubly_linked_list::</text>
<text text-anchor="middle" x="217.5" y="-125" font-family="Helvetica,sans-Serif" font-size="10.00">dllDelete</text>
</a>
</g>
</g>
<!-- Node1&#45;&gt;Node2 -->
<g id="edge1_Node000001_Node000002" class="edge">
<title>Node1&#45;&gt;Node2</title>
<g id="a_edge1_Node000001_Node000002"><a xlink:title=" ">
<path fill="none" stroke="#63b8ff" d="M309.89,-103.71C297.45,-108.45 284.51,-113.37 272.42,-117.98"/>
<polygon fill="#63b8ff" stroke="#63b8ff" points="311.19,-106.96 319.29,-100.14 308.7,-100.42 311.19,-106.96"/>
</a>
</g>
</g>
<!-- Node5 -->
<g id="Node000005" class="node">
<title>Node5</title>
<g id="a_Node000005"><a xlink:href="../../d6/d20/namespacedate__structure_1_1linear_1_1doubly__linked__list.html#a6538732a5393e4ad7a4ea4f90514d472" target="_top" xlink:title="Get the node of the doubly linked list by index.">
<polygon fill="white" stroke="#666666" points="278,-100 157,-100 157,-59 278,-59 278,-100"/>
<text text-anchor="start" x="165" y="-88" font-family="Helvetica,sans-Serif" font-size="10.00">date_structure::linear</text>
<text text-anchor="start" x="165" y="-77" font-family="Helvetica,sans-Serif" font-size="10.00">::doubly_linked_list::</text>
<text text-anchor="middle" x="217.5" y="-66" font-family="Helvetica,sans-Serif" font-size="10.00">dllGet</text>
</a>
</g>
</g>
<!-- Node1&#45;&gt;Node5 -->
<g id="edge4_Node000001_Node000005" class="edge">
<title>Node1&#45;&gt;Node5</title>
<g id="a_edge4_Node000001_Node000005"><a xlink:title=" ">
<path fill="none" stroke="#63b8ff" d="M303.34,-79.5C294.88,-79.5 286.3,-79.5 278.01,-79.5"/>
<polygon fill="#63b8ff" stroke="#63b8ff" points="303.57,-83 313.57,-79.5 303.57,-76 303.57,-83"/>
</a>
</g>
</g>
<!-- Node8 -->
<g id="Node000008" class="node">
<title>Node8</title>
<g id="a_Node000008"><a xlink:href="../../d6/d20/namespacedate__structure_1_1linear_1_1doubly__linked__list.html#a243bc505b24f7185ec0d587315a96bd3" target="_top" xlink:title="Insert the target node into the doubly linked list by index.">
<polygon fill="white" stroke="#666666" points="278,-41 157,-41 157,0 278,0 278,-41"/>
<text text-anchor="start" x="165" y="-29" font-family="Helvetica,sans-Serif" font-size="10.00">date_structure::linear</text>
<text text-anchor="start" x="165" y="-18" font-family="Helvetica,sans-Serif" font-size="10.00">::doubly_linked_list::</text>
<text text-anchor="middle" x="217.5" y="-7" font-family="Helvetica,sans-Serif" font-size="10.00">dllInsert</text>
</a>
</g>
</g>
<!-- Node1&#45;&gt;Node8 -->
<g id="edge7_Node000001_Node000008" class="edge">
<title>Node1&#45;&gt;Node8</title>
<g id="a_edge7_Node000001_Node000008"><a xlink:title=" ">
<path fill="none" stroke="#63b8ff" d="M309.89,-55.29C297.45,-50.55 284.51,-45.63 272.42,-41.02"/>
<polygon fill="#63b8ff" stroke="#63b8ff" points="308.7,-58.58 319.29,-58.86 311.19,-52.04 308.7,-58.58"/>
</a>
</g>
</g>
<!-- Node3 -->
<g id="Node000003" class="node">
<title>Node3</title>
<g id="a_Node000003"><a xlink:href="../../d6/d20/namespacedate__structure_1_1linear_1_1doubly__linked__list.html#a7b81c797a9bd53a220f8407bb03229f7" target="_top" xlink:title="Delete the first node from the doubly linked list.">
<polygon fill="white" stroke="#666666" points="121,-218 0,-218 0,-177 121,-177 121,-218"/>
<text text-anchor="start" x="8" y="-206" font-family="Helvetica,sans-Serif" font-size="10.00">date_structure::linear</text>
<text text-anchor="start" x="8" y="-195" font-family="Helvetica,sans-Serif" font-size="10.00">::doubly_linked_list::</text>
<text text-anchor="middle" x="60.5" y="-184" font-family="Helvetica,sans-Serif" font-size="10.00">dllDeleteFirst</text>
</a>
</g>
</g>
<!-- Node2&#45;&gt;Node3 -->
<g id="edge2_Node000002_Node000003" class="edge">
<title>Node2&#45;&gt;Node3</title>
<g id="a_edge2_Node000002_Node000003"><a xlink:title=" ">
<path fill="none" stroke="#63b8ff" d="M152.89,-162.71C140.45,-167.45 127.51,-172.37 115.42,-176.98"/>
<polygon fill="#63b8ff" stroke="#63b8ff" points="154.19,-165.96 162.29,-159.14 151.7,-159.42 154.19,-165.96"/>
</a>
</g>
</g>
<!-- Node4 -->
<g id="Node000004" class="node">
<title>Node4</title>
<g id="a_Node000004"><a xlink:href="../../d6/d20/namespacedate__structure_1_1linear_1_1doubly__linked__list.html#a3a7db32277d37626de6fcbfa45be3dc7" target="_top" xlink:title="Delete the last node from the doubly linked list.">
<polygon fill="white" stroke="#666666" points="121,-159 0,-159 0,-118 121,-118 121,-159"/>
<text text-anchor="start" x="8" y="-147" font-family="Helvetica,sans-Serif" font-size="10.00">date_structure::linear</text>
<text text-anchor="start" x="8" y="-136" font-family="Helvetica,sans-Serif" font-size="10.00">::doubly_linked_list::</text>
<text text-anchor="middle" x="60.5" y="-125" font-family="Helvetica,sans-Serif" font-size="10.00">dllDeleteLast</text>
</a>
</g>
</g>
<!-- Node2&#45;&gt;Node4 -->
<g id="edge3_Node000002_Node000004" class="edge">
<title>Node2&#45;&gt;Node4</title>
<g id="a_edge3_Node000002_Node000004"><a xlink:title=" ">
<path fill="none" stroke="#63b8ff" d="M146.34,-138.5C137.88,-138.5 129.3,-138.5 121.01,-138.5"/>
<polygon fill="#63b8ff" stroke="#63b8ff" points="146.57,-142 156.57,-138.5 146.57,-135 146.57,-142"/>
</a>
</g>
</g>
<!-- Node6 -->
<g id="Node000006" class="node">
<title>Node6</title>
<g id="a_Node000006"><a xlink:href="../../d6/d20/namespacedate__structure_1_1linear_1_1doubly__linked__list.html#a56ee3d2adb2e0e31f5f8a44108a2f3ba" target="_top" xlink:title="Get the first node of the doubly linked list.">
<polygon fill="white" stroke="#666666" points="121,-100 0,-100 0,-59 121,-59 121,-100"/>
<text text-anchor="start" x="8" y="-88" font-family="Helvetica,sans-Serif" font-size="10.00">date_structure::linear</text>
<text text-anchor="start" x="8" y="-77" font-family="Helvetica,sans-Serif" font-size="10.00">::doubly_linked_list::</text>
<text text-anchor="middle" x="60.5" y="-66" font-family="Helvetica,sans-Serif" font-size="10.00">dllGetFirst</text>
</a>
</g>
</g>
<!-- Node5&#45;&gt;Node6 -->
<g id="edge5_Node000005_Node000006" class="edge">
<title>Node5&#45;&gt;Node6</title>
<g id="a_edge5_Node000005_Node000006"><a xlink:title=" ">
<path fill="none" stroke="#63b8ff" d="M146.34,-79.5C137.88,-79.5 129.3,-79.5 121.01,-79.5"/>
<polygon fill="#63b8ff" stroke="#63b8ff" points="146.57,-83 156.57,-79.5 146.57,-76 146.57,-83"/>
</a>
</g>
</g>
<!-- Node7 -->
<g id="Node000007" class="node">
<title>Node7</title>
<g id="a_Node000007"><a xlink:href="../../d6/d20/namespacedate__structure_1_1linear_1_1doubly__linked__list.html#a002df9d7ae5dab9082c5b3adba6dbb62" target="_top" xlink:title="Get the last node of the doubly linked list.">
<polygon fill="white" stroke="#666666" points="121,-41 0,-41 0,0 121,0 121,-41"/>
<text text-anchor="start" x="8" y="-29" font-family="Helvetica,sans-Serif" font-size="10.00">date_structure::linear</text>
<text text-anchor="start" x="8" y="-18" font-family="Helvetica,sans-Serif" font-size="10.00">::doubly_linked_list::</text>
<text text-anchor="middle" x="60.5" y="-7" font-family="Helvetica,sans-Serif" font-size="10.00">dllGetLast</text>
</a>
</g>
</g>
<!-- Node5&#45;&gt;Node7 -->
<g id="edge6_Node000005_Node000007" class="edge">
<title>Node5&#45;&gt;Node7</title>
<g id="a_edge6_Node000005_Node000007"><a xlink:title=" ">
<path fill="none" stroke="#63b8ff" d="M152.89,-55.29C140.45,-50.55 127.51,-45.63 115.42,-41.02"/>
<polygon fill="#63b8ff" stroke="#63b8ff" points="151.7,-58.58 162.29,-58.86 154.19,-52.04 151.7,-58.58"/>
</a>
</g>
</g>
</g>
</svg>
