<?xml version="1.0" encoding="UTF-8" standalone="no"?>
<!DOCTYPE svg PUBLIC "-//W3C//DTD SVG 1.1//EN"
 "http://www.w3.org/Graphics/SVG/1.1/DTD/svg11.dtd">
<!-- Generated by graphviz version 2.43.0 (0)
 -->
<!-- Title: application::log::Log Pages: 1 -->
<svg width="123pt" height="171pt"
 viewBox="0.00 0.00 123.00 171.00" xmlns="http://www.w3.org/2000/svg" xmlns:xlink="http://www.w3.org/1999/xlink">
<g id="graph0" class="graph" transform="scale(1 1) rotate(0) translate(4 167)">
<title>application::log::Log</title>
<!-- Node1 -->
<g id="Node000001" class="node">
<title>Node1</title>
<g id="a_Node000001"><a xlink:title="Logger.">
<polygon fill="#999999" stroke="#666666" points="115,-19 0,-19 0,0 115,0 115,-19"/>
<text text-anchor="middle" x="57.5" y="-7" font-family="Helvetica,sans-Serif" font-size="10.00">application::log::Log</text>
</a>
</g>
</g>
<!-- Node2 -->
<g id="Node000002" class="node">
<title>Node2</title>
<g id="a_Node000002"><a xlink:href="../../d1/d46/classutility_1_1fsm_1_1FSM.html" target="_top" xlink:title=" ">
<polygon fill="white" stroke="#666666" points="109.5,-86 5.5,-86 5.5,-56 109.5,-56 109.5,-86"/>
<text text-anchor="start" x="13.5" y="-74" font-family="Helvetica,sans-Serif" font-size="10.00">utility::fsm::FSM&lt;</text>
<text text-anchor="middle" x="57.5" y="-63" font-family="Helvetica,sans-Serif" font-size="10.00"> Log &gt;</text>
</a>
</g>
</g>
<!-- Node2&#45;&gt;Node1 -->
<g id="edge1_Node000001_Node000002" class="edge">
<title>Node2&#45;&gt;Node1</title>
<g id="a_edge1_Node000001_Node000002"><a xlink:title=" ">
<path fill="none" stroke="#63b8ff" d="M57.5,-45.79C57.5,-36.36 57.5,-26.15 57.5,-19.16"/>
<polygon fill="#63b8ff" stroke="#63b8ff" points="54,-45.9 57.5,-55.9 61,-45.9 54,-45.9"/>
</a>
</g>
</g>
<!-- Node3 -->
<g id="Node000003" class="node">
<title>Node3</title>
<g id="a_Node000003"><a xlink:href="../../d1/d46/classutility_1_1fsm_1_1FSM.html" target="_top" xlink:title="Finite state machine.">
<polygon fill="white" stroke="#666666" points="109.5,-163 5.5,-163 5.5,-133 109.5,-133 109.5,-163"/>
<text text-anchor="start" x="13.5" y="-151" font-family="Helvetica,sans-Serif" font-size="10.00">utility::fsm::FSM&lt;</text>
<text text-anchor="middle" x="57.5" y="-140" font-family="Helvetica,sans-Serif" font-size="10.00"> Derived, State &gt;</text>
</a>
</g>
</g>
<!-- Node3&#45;&gt;Node2 -->
<g id="edge2_Node000002_Node000003" class="edge">
<title>Node3&#45;&gt;Node2</title>
<g id="a_edge2_Node000002_Node000003"><a xlink:title=" ">
<path fill="none" stroke="orange" stroke-dasharray="5,2" d="M57.5,-122.54C57.5,-110.45 57.5,-96.29 57.5,-86.04"/>
<polygon fill="orange" stroke="orange" points="54,-122.89 57.5,-132.89 61,-122.89 54,-122.89"/>
</a>
</g>
<text text-anchor="middle" x="79" y="-107" font-family="Helvetica,sans-Serif" font-size="10.00" fill="grey"> &lt; Log &gt;</text>
</g>
</g>
</svg>
