<?xml version="1.0" encoding="UTF-8" standalone="no"?>
<!DOCTYPE svg PUBLIC "-//W3C//DTD SVG 1.1//EN"
 "http://www.w3.org/Graphics/SVG/1.1/DTD/svg11.dtd">
<!-- Generated by graphviz version 2.43.0 (0)
 -->
<!-- Title: numeric/include/integral.hpp Pages: 1 -->
<svg width="1065pt" height="236pt"
 viewBox="0.00 0.00 1065.00 236.00" xmlns="http://www.w3.org/2000/svg" xmlns:xlink="http://www.w3.org/1999/xlink">
<g id="graph0" class="graph" transform="scale(1 1) rotate(0) translate(4 232)">
<title>numeric/include/integral.hpp</title>
<!-- Node1 -->
<g id="Node000001" class="node">
<title>Node1</title>
<g id="a_Node000001"><a xlink:title="The declarations (integral) in the numeric module.">
<polygon fill="#999999" stroke="#666666" points="922,-228 766,-228 766,-209 922,-209 922,-228"/>
<text text-anchor="middle" x="844" y="-216" font-family="Helvetica,sans-Serif" font-size="10.00">numeric/include/integral.hpp</text>
</a>
</g>
</g>
<!-- Node2 -->
<g id="Node000002" class="node">
<title>Node2</title>
<g id="a_Node000002"><a xlink:href="../../df/d68/apply__numeric_8hpp.html" target="_top" xlink:title="The declarations (apply_numeric) in the application module.">
<polygon fill="white" stroke="#666666" points="767.5,-173 616.5,-173 616.5,-143 767.5,-143 767.5,-173"/>
<text text-anchor="start" x="624.5" y="-161" font-family="Helvetica,sans-Serif" font-size="10.00">application/example</text>
<text text-anchor="middle" x="692" y="-150" font-family="Helvetica,sans-Serif" font-size="10.00">/include/apply_numeric.hpp</text>
</a>
</g>
</g>
<!-- Node1&#45;&gt;Node2 -->
<g id="edge1_Node000001_Node000002" class="edge">
<title>Node1&#45;&gt;Node2</title>
<g id="a_edge1_Node000001_Node000002"><a xlink:title=" ">
<path fill="none" stroke="#63b8ff" d="M812.39,-205.33C787.96,-195.93 754.13,-182.91 728.54,-173.06"/>
<polygon fill="#63b8ff" stroke="#63b8ff" points="811.31,-208.67 821.9,-208.99 813.82,-202.14 811.31,-208.67"/>
</a>
</g>
</g>
<!-- Node9 -->
<g id="Node000009" class="node">
<title>Node9</title>
<g id="a_Node000009"><a xlink:href="../../d1/dee/apply__numeric_8cpp.html" target="_top" xlink:title="The definitions (apply_numeric) in the application module.">
<polygon fill="white" stroke="#666666" points="950.5,-35.5 803.5,-35.5 803.5,-5.5 950.5,-5.5 950.5,-35.5"/>
<text text-anchor="start" x="811.5" y="-23.5" font-family="Helvetica,sans-Serif" font-size="10.00">application/example</text>
<text text-anchor="middle" x="877" y="-12.5" font-family="Helvetica,sans-Serif" font-size="10.00">/source/apply_numeric.cpp</text>
</a>
</g>
</g>
<!-- Node1&#45;&gt;Node9 -->
<g id="edge11_Node000001_Node000009" class="edge">
<title>Node1&#45;&gt;Node9</title>
<g id="a_edge11_Node000001_Node000009"><a xlink:title=" ">
<path fill="none" stroke="#63b8ff" d="M847.14,-198.84C853.72,-159.78 868.8,-70.18 874.64,-35.54"/>
<polygon fill="#63b8ff" stroke="#63b8ff" points="843.67,-198.38 845.46,-208.83 850.57,-199.55 843.67,-198.38"/>
</a>
</g>
</g>
<!-- Node10 -->
<g id="Node000010" class="node">
<title>Node10</title>
<g id="a_Node000010"><a xlink:href="../../d8/d25/test__numeric_8cpp.html" target="_top" xlink:title="The definitions (test_numeric) in the test module.">
<polygon fill="white" stroke="#666666" points="849,-101.5 705,-101.5 705,-82.5 849,-82.5 849,-101.5"/>
<text text-anchor="middle" x="777" y="-89.5" font-family="Helvetica,sans-Serif" font-size="10.00">test/unit/test_numeric.cpp</text>
</a>
</g>
</g>
<!-- Node1&#45;&gt;Node10 -->
<g id="edge13_Node000001_Node000010" class="edge">
<title>Node1&#45;&gt;Node10</title>
<g id="a_edge13_Node000001_Node000010"><a xlink:title=" ">
<path fill="none" stroke="#63b8ff" d="M834.49,-199.82C819.89,-172.7 792.52,-121.85 781.64,-101.62"/>
<polygon fill="#63b8ff" stroke="#63b8ff" points="831.57,-201.8 839.39,-208.94 837.74,-198.48 831.57,-201.8"/>
</a>
</g>
</g>
<!-- Node11 -->
<g id="Node000011" class="node">
<title>Node11</title>
<g id="a_Node000011"><a xlink:href="../../da/d35/integral_8cpp.html" target="_top" xlink:title="The definitions (integral) in the numeric module.">
<polygon fill="white" stroke="#666666" points="1057,-167.5 905,-167.5 905,-148.5 1057,-148.5 1057,-167.5"/>
<text text-anchor="middle" x="981" y="-155.5" font-family="Helvetica,sans-Serif" font-size="10.00">numeric/source/integral.cpp</text>
</a>
</g>
</g>
<!-- Node1&#45;&gt;Node11 -->
<g id="edge12_Node000001_Node000011" class="edge">
<title>Node1&#45;&gt;Node11</title>
<g id="a_edge12_Node000001_Node000011"><a xlink:title=" ">
<path fill="none" stroke="#63b8ff" d="M873.43,-204.93C899.88,-193.64 938.01,-177.36 961.05,-167.52"/>
<polygon fill="#63b8ff" stroke="#63b8ff" points="871.74,-201.85 863.92,-208.99 874.49,-208.29 871.74,-201.85"/>
</a>
</g>
</g>
<!-- Node3 -->
<g id="Node000003" class="node">
<title>Node3</title>
<g id="a_Node000003"><a xlink:href="../../d7/dc7/command_8hpp.html" target="_top" xlink:title="The declarations (command) in the application module.">
<polygon fill="white" stroke="#666666" points="625.5,-107 492.5,-107 492.5,-77 625.5,-77 625.5,-107"/>
<text text-anchor="start" x="500.5" y="-95" font-family="Helvetica,sans-Serif" font-size="10.00">application/core/include</text>
<text text-anchor="middle" x="559" y="-84" font-family="Helvetica,sans-Serif" font-size="10.00">/command.hpp</text>
</a>
</g>
</g>
<!-- Node2&#45;&gt;Node3 -->
<g id="edge2_Node000002_Node000003" class="edge">
<title>Node2&#45;&gt;Node3</title>
<g id="a_edge2_Node000002_Node000003"><a xlink:title=" ">
<path fill="none" stroke="#63b8ff" d="M653.58,-138.51C632.72,-128.47 607.33,-116.26 588.12,-107.01"/>
<polygon fill="#63b8ff" stroke="#63b8ff" points="652.28,-141.77 662.81,-142.95 655.32,-135.46 652.28,-141.77"/>
</a>
</g>
</g>
<!-- Node2&#45;&gt;Node9 -->
<g id="edge9_Node000002_Node000009" class="edge">
<title>Node2&#45;&gt;Node9</title>
<g id="a_edge9_Node000002_Node000009"><a xlink:title=" ">
<path fill="none" stroke="#63b8ff" d="M686.48,-132.97C683.96,-115.63 683.83,-92.63 696,-77 703.9,-66.85 769.79,-48.37 819.81,-35.54"/>
<polygon fill="#63b8ff" stroke="#63b8ff" points="683.05,-133.68 688.26,-142.91 689.94,-132.45 683.05,-133.68"/>
</a>
</g>
</g>
<!-- Node2&#45;&gt;Node10 -->
<g id="edge10_Node000002_Node000010" class="edge">
<title>Node2&#45;&gt;Node10</title>
<g id="a_edge10_Node000002_Node000010"><a xlink:title=" ">
<path fill="none" stroke="#63b8ff" d="M719.11,-136.58C734.67,-124.87 753.4,-110.77 765.25,-101.84"/>
<polygon fill="#63b8ff" stroke="#63b8ff" points="716.75,-133.99 710.86,-142.8 720.96,-139.58 716.75,-133.99"/>
</a>
</g>
</g>
<!-- Node4 -->
<g id="Node000004" class="node">
<title>Node4</title>
<g id="a_Node000004"><a xlink:href="../../d1/d81/command_8cpp.html" target="_top" xlink:title="The definitions (command) in the application module.">
<polygon fill="white" stroke="#666666" points="130,-35.5 0,-35.5 0,-5.5 130,-5.5 130,-35.5"/>
<text text-anchor="start" x="8" y="-23.5" font-family="Helvetica,sans-Serif" font-size="10.00">application/core/source</text>
<text text-anchor="middle" x="65" y="-12.5" font-family="Helvetica,sans-Serif" font-size="10.00">/command.cpp</text>
</a>
</g>
</g>
<!-- Node3&#45;&gt;Node4 -->
<g id="edge3_Node000003_Node000004" class="edge">
<title>Node3&#45;&gt;Node4</title>
<g id="a_edge3_Node000003_Node000004"><a xlink:title=" ">
<path fill="none" stroke="#63b8ff" d="M482.33,-85.1C397.76,-77.84 257.88,-63.63 139,-41 131.04,-39.48 122.67,-37.58 114.54,-35.57"/>
<polygon fill="#63b8ff" stroke="#63b8ff" points="482.11,-88.59 492.37,-85.95 482.7,-81.62 482.11,-88.59"/>
</a>
</g>
</g>
<!-- Node5 -->
<g id="Node000005" class="node">
<title>Node5</title>
<g id="a_Node000005"><a xlink:href="../../df/d92/application_2core_2source_2main_8cpp.html" target="_top" xlink:title="The definitions (main) in the application module.">
<polygon fill="white" stroke="#666666" points="278,-35.5 148,-35.5 148,-5.5 278,-5.5 278,-35.5"/>
<text text-anchor="start" x="156" y="-23.5" font-family="Helvetica,sans-Serif" font-size="10.00">application/core/source</text>
<text text-anchor="middle" x="213" y="-12.5" font-family="Helvetica,sans-Serif" font-size="10.00">/main.cpp</text>
</a>
</g>
</g>
<!-- Node3&#45;&gt;Node5 -->
<g id="edge4_Node000003_Node000005" class="edge">
<title>Node3&#45;&gt;Node5</title>
<g id="a_edge4_Node000003_Node000005"><a xlink:title=" ">
<path fill="none" stroke="#63b8ff" d="M482.52,-78.54C427.84,-69.24 352.62,-55.65 287,-41 279.61,-39.35 271.84,-37.47 264.23,-35.54"/>
<polygon fill="#63b8ff" stroke="#63b8ff" points="482.04,-82.01 492.48,-80.22 483.21,-75.1 482.04,-82.01"/>
</a>
</g>
</g>
<!-- Node6 -->
<g id="Node000006" class="node">
<title>Node6</title>
<g id="a_Node000006"><a xlink:href="../../d8/d64/apply__algorithm_8cpp.html" target="_top" xlink:title="The definitions (apply_algorithm) in the application module.">
<polygon fill="white" stroke="#666666" points="451.5,-35.5 296.5,-35.5 296.5,-5.5 451.5,-5.5 451.5,-35.5"/>
<text text-anchor="start" x="304.5" y="-23.5" font-family="Helvetica,sans-Serif" font-size="10.00">application/example</text>
<text text-anchor="middle" x="374" y="-12.5" font-family="Helvetica,sans-Serif" font-size="10.00">/source/apply_algorithm.cpp</text>
</a>
</g>
</g>
<!-- Node3&#45;&gt;Node6 -->
<g id="edge5_Node000003_Node000006" class="edge">
<title>Node3&#45;&gt;Node6</title>
<g id="a_edge5_Node000003_Node000006"><a xlink:title=" ">
<path fill="none" stroke="#63b8ff" d="M512.19,-73.42C480.96,-61.68 440.45,-46.47 411.38,-35.54"/>
<polygon fill="#63b8ff" stroke="#63b8ff" points="510.97,-76.7 521.56,-76.94 513.43,-70.14 510.97,-76.7"/>
</a>
</g>
</g>
<!-- Node7 -->
<g id="Node000007" class="node">
<title>Node7</title>
<g id="a_Node000007"><a xlink:href="../../d1/d3d/apply__data__structure_8cpp.html" target="_top" xlink:title="The definitions (apply_data_structure) in the application module.">
<polygon fill="white" stroke="#666666" points="648,-35.5 470,-35.5 470,-5.5 648,-5.5 648,-35.5"/>
<text text-anchor="start" x="478" y="-23.5" font-family="Helvetica,sans-Serif" font-size="10.00">application/example</text>
<text text-anchor="middle" x="559" y="-12.5" font-family="Helvetica,sans-Serif" font-size="10.00">/source/apply_data_structure.cpp</text>
</a>
</g>
</g>
<!-- Node3&#45;&gt;Node7 -->
<g id="edge6_Node000003_Node000007" class="edge">
<title>Node3&#45;&gt;Node7</title>
<g id="a_edge6_Node000003_Node000007"><a xlink:title=" ">
<path fill="none" stroke="#63b8ff" d="M559,-66.75C559,-56.31 559,-44.49 559,-35.54"/>
<polygon fill="#63b8ff" stroke="#63b8ff" points="555.5,-66.94 559,-76.94 562.5,-66.94 555.5,-66.94"/>
</a>
</g>
</g>
<!-- Node8 -->
<g id="Node000008" class="node">
<title>Node8</title>
<g id="a_Node000008"><a xlink:href="../../de/d6b/apply__design__pattern_8cpp.html" target="_top" xlink:title="The definitions (apply_design_pattern) in the application module.">
<polygon fill="white" stroke="#666666" points="785.5,-41 666.5,-41 666.5,0 785.5,0 785.5,-41"/>
<text text-anchor="start" x="674.5" y="-29" font-family="Helvetica,sans-Serif" font-size="10.00">application/example</text>
<text text-anchor="start" x="674.5" y="-18" font-family="Helvetica,sans-Serif" font-size="10.00">/source/apply_design</text>
<text text-anchor="middle" x="726" y="-7" font-family="Helvetica,sans-Serif" font-size="10.00">_pattern.cpp</text>
</a>
</g>
</g>
<!-- Node3&#45;&gt;Node8 -->
<g id="edge7_Node000003_Node000008" class="edge">
<title>Node3&#45;&gt;Node8</title>
<g id="a_edge7_Node000003_Node000008"><a xlink:title=" ">
<path fill="none" stroke="#63b8ff" d="M602.17,-73.03C625.7,-63.24 654.86,-51.11 678.97,-41.07"/>
<polygon fill="#63b8ff" stroke="#63b8ff" points="600.68,-69.86 592.79,-76.94 603.37,-76.32 600.68,-69.86"/>
</a>
</g>
</g>
<!-- Node3&#45;&gt;Node9 -->
<g id="edge8_Node000003_Node000009" class="edge">
<title>Node3&#45;&gt;Node9</title>
<g id="a_edge8_Node000003_Node000009"><a xlink:title=" ">
<path fill="none" stroke="#63b8ff" d="M635.67,-75.26C681.88,-65.64 741.89,-52.94 795,-41 802.71,-39.27 810.82,-37.4 818.81,-35.53"/>
<polygon fill="#63b8ff" stroke="#63b8ff" points="634.8,-71.86 625.73,-77.32 636.23,-78.71 634.8,-71.86"/>
</a>
</g>
</g>
</g>
</svg>
