<?xml version="1.0" encoding="UTF-8" standalone="no"?>
<!DOCTYPE svg PUBLIC "-//W3C//DTD SVG 1.1//EN"
 "http://www.w3.org/Graphics/SVG/1.1/DTD/svg11.dtd">
<!-- Generated by graphviz version 2.43.0 (0)
 -->
<!-- Title: design_pattern::creational::factory_method::Product Pages: 1 -->
<svg width="381pt" height="86pt"
 viewBox="0.00 0.00 381.00 86.00" xmlns="http://www.w3.org/2000/svg" xmlns:xlink="http://www.w3.org/1999/xlink">
<g id="graph0" class="graph" transform="scale(1 1) rotate(0) translate(4 82)">
<title>design_pattern::creational::factory_method::Product</title>
<!-- Node1 -->
<g id="Node000001" class="node">
<title>Node1</title>
<g id="a_Node000001"><a xlink:title="Implement the same interface. The others can refer to the interface not the concrete product.">
<polygon fill="#999999" stroke="#666666" points="144,-54 0,-54 0,-24 144,-24 144,-54"/>
<text text-anchor="start" x="8" y="-42" font-family="Helvetica,sans-Serif" font-size="10.00">design_pattern::creational</text>
<text text-anchor="middle" x="72" y="-31" font-family="Helvetica,sans-Serif" font-size="10.00">::factory_method::Product</text>
</a>
</g>
</g>
<!-- Node2 -->
<g id="Node000002" class="node">
<title>Node2</title>
<g id="a_Node000002"><a xlink:href="../../d9/d6a/classdesign__pattern_1_1creational_1_1factory__method_1_1ConcreteProductA.html" target="_top" xlink:title="The concrete product.">
<polygon fill="white" stroke="#666666" points="373,-78 180,-78 180,-48 373,-48 373,-78"/>
<text text-anchor="start" x="188" y="-66" font-family="Helvetica,sans-Serif" font-size="10.00">design_pattern::creational</text>
<text text-anchor="middle" x="276.5" y="-55" font-family="Helvetica,sans-Serif" font-size="10.00">::factory_method::ConcreteProductA</text>
</a>
</g>
</g>
<!-- Node1&#45;&gt;Node2 -->
<g id="edge1_Node000001_Node000002" class="edge">
<title>Node1&#45;&gt;Node2</title>
<g id="a_edge1_Node000001_Node000002"><a xlink:title=" ">
<path fill="none" stroke="#63b8ff" d="M154.22,-48.63C162.6,-49.62 171.16,-50.63 179.68,-51.64"/>
<polygon fill="#63b8ff" stroke="#63b8ff" points="154.45,-45.13 144.11,-47.43 153.63,-52.08 154.45,-45.13"/>
</a>
</g>
</g>
<!-- Node3 -->
<g id="Node000003" class="node">
<title>Node3</title>
<g id="a_Node000003"><a xlink:href="../../df/d34/classdesign__pattern_1_1creational_1_1factory__method_1_1ConcreteProductB.html" target="_top" xlink:title="The concrete product.">
<polygon fill="white" stroke="#666666" points="373,-30 180,-30 180,0 373,0 373,-30"/>
<text text-anchor="start" x="188" y="-18" font-family="Helvetica,sans-Serif" font-size="10.00">design_pattern::creational</text>
<text text-anchor="middle" x="276.5" y="-7" font-family="Helvetica,sans-Serif" font-size="10.00">::factory_method::ConcreteProductB</text>
</a>
</g>
</g>
<!-- Node1&#45;&gt;Node3 -->
<g id="edge2_Node000001_Node000003" class="edge">
<title>Node1&#45;&gt;Node3</title>
<g id="a_edge2_Node000001_Node000003"><a xlink:title=" ">
<path fill="none" stroke="#63b8ff" d="M154.22,-29.37C162.6,-28.38 171.16,-27.37 179.68,-26.36"/>
<polygon fill="#63b8ff" stroke="#63b8ff" points="153.63,-25.92 144.11,-30.57 154.45,-32.87 153.63,-25.92"/>
</a>
</g>
</g>
</g>
</svg>
