<?xml version="1.0" encoding="UTF-8" standalone="no"?>
<!DOCTYPE svg PUBLIC "-//W3C//DTD SVG 1.1//EN"
 "http://www.w3.org/Graphics/SVG/1.1/DTD/svg11.dtd">
<!-- Generated by graphviz version 2.43.0 (0)
 -->
<!-- Title: test::tst_num::ArithmeticTestBase Pages: 1 -->
<svg width="371pt" height="203pt"
 viewBox="0.00 0.00 371.00 203.00" xmlns="http://www.w3.org/2000/svg" xmlns:xlink="http://www.w3.org/1999/xlink">
<g id="graph0" class="graph" transform="scale(1 1) rotate(0) translate(4 199)">
<title>test::tst_num::ArithmeticTestBase</title>
<!-- Node1 -->
<g id="Node000001" class="node">
<title>Node1</title>
<g id="a_Node000001"><a xlink:title="Test base of arithmetic.">
<polygon fill="#999999" stroke="#666666" points="155,-30 17,-30 17,0 155,0 155,-30"/>
<text text-anchor="start" x="25" y="-18" font-family="Helvetica,sans-Serif" font-size="10.00">test::tst_num::Arithmetic</text>
<text text-anchor="middle" x="86" y="-7" font-family="Helvetica,sans-Serif" font-size="10.00">TestBase</text>
</a>
</g>
</g>
<!-- Node2 -->
<g id="Node000002" class="node">
<title>Node2</title>
<g id="a_Node000002"><a xlink:title=" ">
<polygon fill="white" stroke="#666666" points="76,-101.5 0,-101.5 0,-82.5 76,-82.5 76,-101.5"/>
<text text-anchor="middle" x="38" y="-89.5" font-family="Helvetica,sans-Serif" font-size="10.00">testing::Test</text>
</a>
</g>
</g>
<!-- Node2&#45;&gt;Node1 -->
<g id="edge1_Node000001_Node000002" class="edge">
<title>Node2&#45;&gt;Node1</title>
<g id="a_edge1_Node000001_Node000002"><a xlink:title=" ">
<path fill="none" stroke="#63b8ff" d="M49.03,-73.76C57.5,-60.53 69.05,-42.49 76.97,-30.11"/>
<polygon fill="#63b8ff" stroke="#63b8ff" points="45.95,-72.09 43.51,-82.4 51.84,-75.86 45.95,-72.09"/>
</a>
</g>
</g>
<!-- Node3 -->
<g id="Node000003" class="node">
<title>Node3</title>
<g id="a_Node000003"><a target="_parent" xlink:href="https://gcc.gnu.org/onlinedocs/gcc-12.3.0/libstdc++/api/a07571.html" xlink:title=" ">
<polygon fill="white" stroke="#666666" points="300,-107 94,-107 94,-77 300,-77 300,-107"/>
<text text-anchor="start" x="102" y="-95" font-family="Helvetica,sans-Serif" font-size="10.00">std::shared_ptr&lt; application</text>
<text text-anchor="middle" x="197" y="-84" font-family="Helvetica,sans-Serif" font-size="10.00">::app_num::arithmetic::TargetBuilder &gt;</text>
</a>
</g>
</g>
<!-- Node3&#45;&gt;Node1 -->
<g id="edge2_Node000001_Node000003" class="edge">
<title>Node3&#45;&gt;Node1</title>
<g id="a_edge2_Node000001_Node000003"><a xlink:title=" ">
<path fill="none" stroke="#9a32cd" stroke-dasharray="5,2" d="M167.74,-71.23C148.57,-58.28 123.97,-41.65 106.78,-30.04"/>
<polygon fill="#9a32cd" stroke="#9a32cd" points="165.88,-74.19 176.12,-76.89 169.8,-68.39 165.88,-74.19"/>
</a>
</g>
<text text-anchor="middle" x="166.5" y="-51" font-family="Helvetica,sans-Serif" font-size="10.00" fill="grey"> builder</text>
</g>
<!-- Node4 -->
<g id="Node000004" class="node">
<title>Node4</title>
<g id="a_Node000004"><a target="_parent" xlink:href="https://gcc.gnu.org/onlinedocs/gcc-12.3.0/libstdc++/api/a07571.html" xlink:title=" ">
<polygon fill="white" stroke="#666666" points="272,-195 122,-195 122,-165 272,-165 272,-195"/>
<text text-anchor="start" x="130" y="-183" font-family="Helvetica,sans-Serif" font-size="10.00">std::shared_ptr&lt; typename</text>
<text text-anchor="middle" x="197" y="-172" font-family="Helvetica,sans-Serif" font-size="10.00"> _Tp &gt;</text>
</a>
</g>
</g>
<!-- Node4&#45;&gt;Node3 -->
<g id="edge3_Node000003_Node000004" class="edge">
<title>Node4&#45;&gt;Node3</title>
<g id="a_edge3_Node000003_Node000004"><a xlink:title=" ">
<path fill="none" stroke="orange" stroke-dasharray="5,2" d="M197,-154.49C197,-139.2 197,-120.05 197,-107.22"/>
<polygon fill="orange" stroke="orange" points="193.5,-154.8 197,-164.8 200.5,-154.8 193.5,-154.8"/>
</a>
</g>
<text text-anchor="start" x="197" y="-139" font-family="Helvetica,sans-Serif" font-size="10.00" fill="grey"> &lt; application::app</text>
<text text-anchor="middle" x="280" y="-128" font-family="Helvetica,sans-Serif" font-size="10.00" fill="grey">_num::arithmetic::TargetBuilder &gt;</text>
</g>
</g>
</svg>
