<?xml version="1.0" encoding="UTF-8" standalone="no"?>
<!DOCTYPE svg PUBLIC "-//W3C//DTD SVG 1.1//EN"
 "http://www.w3.org/Graphics/SVG/1.1/DTD/svg11.dtd">
<!-- Generated by graphviz version 2.43.0 (0)
 -->
<!-- Title: design_pattern/include/creational.hpp Pages: 1 -->
<svg width="985pt" height="258pt"
 viewBox="0.00 0.00 984.50 258.00" xmlns="http://www.w3.org/2000/svg" xmlns:xlink="http://www.w3.org/1999/xlink">
<g id="graph0" class="graph" transform="scale(1 1) rotate(0) translate(4 254)">
<title>design_pattern/include/creational.hpp</title>
<!-- Node1 -->
<g id="Node000001" class="node">
<title>Node1</title>
<g id="a_Node000001"><a xlink:title="The declarations (creational) in the design pattern module.">
<polygon fill="#999999" stroke="#666666" points="907,-250 779,-250 779,-220 907,-220 907,-250"/>
<text text-anchor="start" x="787" y="-238" font-family="Helvetica,sans-Serif" font-size="10.00">design_pattern/include</text>
<text text-anchor="middle" x="843" y="-227" font-family="Helvetica,sans-Serif" font-size="10.00">/creational.hpp</text>
</a>
</g>
</g>
<!-- Node2 -->
<g id="Node000002" class="node">
<title>Node2</title>
<g id="a_Node000002"><a xlink:href="../../d1/dfe/apply__design__pattern_8hpp.html" target="_top" xlink:title="The declarations (apply_design_pattern) in the application module.">
<polygon fill="white" stroke="#666666" points="833,-184 711,-184 711,-143 833,-143 833,-184"/>
<text text-anchor="start" x="719" y="-172" font-family="Helvetica,sans-Serif" font-size="10.00">application/example</text>
<text text-anchor="start" x="719" y="-161" font-family="Helvetica,sans-Serif" font-size="10.00">/include/apply_design</text>
<text text-anchor="middle" x="772" y="-150" font-family="Helvetica,sans-Serif" font-size="10.00">_pattern.hpp</text>
</a>
</g>
</g>
<!-- Node1&#45;&gt;Node2 -->
<g id="edge1_Node000001_Node000002" class="edge">
<title>Node1&#45;&gt;Node2</title>
<g id="a_edge1_Node000001_Node000002"><a xlink:title=" ">
<path fill="none" stroke="#63b8ff" d="M821.23,-212.69C811.91,-203.57 801.11,-192.99 792,-184.07"/>
<polygon fill="#63b8ff" stroke="#63b8ff" points="819.04,-215.44 828.63,-219.94 823.93,-210.44 819.04,-215.44"/>
</a>
</g>
</g>
<!-- Node11 -->
<g id="Node000011" class="node">
<title>Node11</title>
<g id="a_Node000011"><a xlink:href="../../d8/de1/creational_8cpp.html" target="_top" xlink:title="The definitions (creational) in the data structure module.">
<polygon fill="white" stroke="#666666" points="976.5,-178.5 851.5,-178.5 851.5,-148.5 976.5,-148.5 976.5,-178.5"/>
<text text-anchor="start" x="859.5" y="-166.5" font-family="Helvetica,sans-Serif" font-size="10.00">design_pattern/source</text>
<text text-anchor="middle" x="914" y="-155.5" font-family="Helvetica,sans-Serif" font-size="10.00">/creational.cpp</text>
</a>
</g>
</g>
<!-- Node1&#45;&gt;Node11 -->
<g id="edge11_Node000001_Node000011" class="edge">
<title>Node1&#45;&gt;Node11</title>
<g id="a_edge11_Node000001_Node000011"><a xlink:title=" ">
<path fill="none" stroke="#63b8ff" d="M864.79,-212.67C876.12,-201.58 889.65,-188.34 899.65,-178.54"/>
<polygon fill="#63b8ff" stroke="#63b8ff" points="862.07,-210.44 857.37,-219.94 866.96,-215.44 862.07,-210.44"/>
</a>
</g>
</g>
<!-- Node3 -->
<g id="Node000003" class="node">
<title>Node3</title>
<g id="a_Node000003"><a xlink:href="../../d7/dc7/command_8hpp.html" target="_top" xlink:title="The declarations (command) in the application module.">
<polygon fill="white" stroke="#666666" points="625.5,-107 492.5,-107 492.5,-77 625.5,-77 625.5,-107"/>
<text text-anchor="start" x="500.5" y="-95" font-family="Helvetica,sans-Serif" font-size="10.00">application/core/include</text>
<text text-anchor="middle" x="559" y="-84" font-family="Helvetica,sans-Serif" font-size="10.00">/command.hpp</text>
</a>
</g>
</g>
<!-- Node2&#45;&gt;Node3 -->
<g id="edge2_Node000002_Node000003" class="edge">
<title>Node2&#45;&gt;Node3</title>
<g id="a_edge2_Node000002_Node000003"><a xlink:title=" ">
<path fill="none" stroke="#63b8ff" d="M702.46,-139.81C669.32,-129 630.72,-116.4 601.92,-107"/>
<polygon fill="#63b8ff" stroke="#63b8ff" points="701.51,-143.18 712.1,-142.96 703.68,-136.53 701.51,-143.18"/>
</a>
</g>
</g>
<!-- Node8 -->
<g id="Node000008" class="node">
<title>Node8</title>
<g id="a_Node000008"><a xlink:href="../../de/d6b/apply__design__pattern_8cpp.html" target="_top" xlink:title="The definitions (apply_design_pattern) in the application module.">
<polygon fill="white" stroke="#666666" points="950.5,-41 831.5,-41 831.5,0 950.5,0 950.5,-41"/>
<text text-anchor="start" x="839.5" y="-29" font-family="Helvetica,sans-Serif" font-size="10.00">application/example</text>
<text text-anchor="start" x="839.5" y="-18" font-family="Helvetica,sans-Serif" font-size="10.00">/source/apply_design</text>
<text text-anchor="middle" x="891" y="-7" font-family="Helvetica,sans-Serif" font-size="10.00">_pattern.cpp</text>
</a>
</g>
</g>
<!-- Node2&#45;&gt;Node8 -->
<g id="edge9_Node000002_Node000008" class="edge">
<title>Node2&#45;&gt;Node8</title>
<g id="a_edge9_Node000002_Node000008"><a xlink:title=" ">
<path fill="none" stroke="#63b8ff" d="M772.65,-132.61C774.4,-114.92 779.1,-92.94 791,-77 802.64,-61.41 820.03,-49.62 837.05,-41.01"/>
<polygon fill="#63b8ff" stroke="#63b8ff" points="769.13,-132.74 771.9,-142.97 776.11,-133.24 769.13,-132.74"/>
</a>
</g>
</g>
<!-- Node10 -->
<g id="Node000010" class="node">
<title>Node10</title>
<g id="a_Node000010"><a xlink:href="../../df/dca/test__design__pattern_8cpp.html" target="_top" xlink:title="The definitions (test_design_pattern) in the test module.">
<polygon fill="white" stroke="#666666" points="916,-107 800,-107 800,-77 916,-77 916,-107"/>
<text text-anchor="start" x="808" y="-95" font-family="Helvetica,sans-Serif" font-size="10.00">test/unit/test_design</text>
<text text-anchor="middle" x="858" y="-84" font-family="Helvetica,sans-Serif" font-size="10.00">_pattern.cpp</text>
</a>
</g>
</g>
<!-- Node2&#45;&gt;Node10 -->
<g id="edge10_Node000002_Node000010" class="edge">
<title>Node2&#45;&gt;Node10</title>
<g id="a_edge10_Node000002_Node000010"><a xlink:title=" ">
<path fill="none" stroke="#63b8ff" d="M804.29,-136.41C816.62,-126.44 830.21,-115.46 840.63,-107.04"/>
<polygon fill="#63b8ff" stroke="#63b8ff" points="801.99,-133.76 796.41,-142.77 806.39,-139.21 801.99,-133.76"/>
</a>
</g>
</g>
<!-- Node4 -->
<g id="Node000004" class="node">
<title>Node4</title>
<g id="a_Node000004"><a xlink:href="../../d1/d81/command_8cpp.html" target="_top" xlink:title="The definitions (command) in the application module.">
<polygon fill="white" stroke="#666666" points="130,-35.5 0,-35.5 0,-5.5 130,-5.5 130,-35.5"/>
<text text-anchor="start" x="8" y="-23.5" font-family="Helvetica,sans-Serif" font-size="10.00">application/core/source</text>
<text text-anchor="middle" x="65" y="-12.5" font-family="Helvetica,sans-Serif" font-size="10.00">/command.cpp</text>
</a>
</g>
</g>
<!-- Node3&#45;&gt;Node4 -->
<g id="edge3_Node000003_Node000004" class="edge">
<title>Node3&#45;&gt;Node4</title>
<g id="a_edge3_Node000003_Node000004"><a xlink:title=" ">
<path fill="none" stroke="#63b8ff" d="M482.33,-85.1C397.76,-77.84 257.88,-63.63 139,-41 131.04,-39.48 122.67,-37.58 114.54,-35.57"/>
<polygon fill="#63b8ff" stroke="#63b8ff" points="482.11,-88.59 492.37,-85.95 482.7,-81.62 482.11,-88.59"/>
</a>
</g>
</g>
<!-- Node5 -->
<g id="Node000005" class="node">
<title>Node5</title>
<g id="a_Node000005"><a xlink:href="../../df/d92/application_2core_2source_2main_8cpp.html" target="_top" xlink:title="The definitions (main) in the application module.">
<polygon fill="white" stroke="#666666" points="278,-35.5 148,-35.5 148,-5.5 278,-5.5 278,-35.5"/>
<text text-anchor="start" x="156" y="-23.5" font-family="Helvetica,sans-Serif" font-size="10.00">application/core/source</text>
<text text-anchor="middle" x="213" y="-12.5" font-family="Helvetica,sans-Serif" font-size="10.00">/main.cpp</text>
</a>
</g>
</g>
<!-- Node3&#45;&gt;Node5 -->
<g id="edge4_Node000003_Node000005" class="edge">
<title>Node3&#45;&gt;Node5</title>
<g id="a_edge4_Node000003_Node000005"><a xlink:title=" ">
<path fill="none" stroke="#63b8ff" d="M482.52,-78.54C427.84,-69.24 352.62,-55.65 287,-41 279.61,-39.35 271.84,-37.47 264.23,-35.54"/>
<polygon fill="#63b8ff" stroke="#63b8ff" points="482.04,-82.01 492.48,-80.22 483.21,-75.1 482.04,-82.01"/>
</a>
</g>
</g>
<!-- Node6 -->
<g id="Node000006" class="node">
<title>Node6</title>
<g id="a_Node000006"><a xlink:href="../../d8/d64/apply__algorithm_8cpp.html" target="_top" xlink:title="The definitions (apply_algorithm) in the application module.">
<polygon fill="white" stroke="#666666" points="451.5,-35.5 296.5,-35.5 296.5,-5.5 451.5,-5.5 451.5,-35.5"/>
<text text-anchor="start" x="304.5" y="-23.5" font-family="Helvetica,sans-Serif" font-size="10.00">application/example</text>
<text text-anchor="middle" x="374" y="-12.5" font-family="Helvetica,sans-Serif" font-size="10.00">/source/apply_algorithm.cpp</text>
</a>
</g>
</g>
<!-- Node3&#45;&gt;Node6 -->
<g id="edge5_Node000003_Node000006" class="edge">
<title>Node3&#45;&gt;Node6</title>
<g id="a_edge5_Node000003_Node000006"><a xlink:title=" ">
<path fill="none" stroke="#63b8ff" d="M512.19,-73.42C480.96,-61.68 440.45,-46.47 411.38,-35.54"/>
<polygon fill="#63b8ff" stroke="#63b8ff" points="510.97,-76.7 521.56,-76.94 513.43,-70.14 510.97,-76.7"/>
</a>
</g>
</g>
<!-- Node7 -->
<g id="Node000007" class="node">
<title>Node7</title>
<g id="a_Node000007"><a xlink:href="../../d1/d3d/apply__data__structure_8cpp.html" target="_top" xlink:title="The definitions (apply_data_structure) in the application module.">
<polygon fill="white" stroke="#666666" points="648,-35.5 470,-35.5 470,-5.5 648,-5.5 648,-35.5"/>
<text text-anchor="start" x="478" y="-23.5" font-family="Helvetica,sans-Serif" font-size="10.00">application/example</text>
<text text-anchor="middle" x="559" y="-12.5" font-family="Helvetica,sans-Serif" font-size="10.00">/source/apply_data_structure.cpp</text>
</a>
</g>
</g>
<!-- Node3&#45;&gt;Node7 -->
<g id="edge6_Node000003_Node000007" class="edge">
<title>Node3&#45;&gt;Node7</title>
<g id="a_edge6_Node000003_Node000007"><a xlink:title=" ">
<path fill="none" stroke="#63b8ff" d="M559,-66.75C559,-56.31 559,-44.49 559,-35.54"/>
<polygon fill="#63b8ff" stroke="#63b8ff" points="555.5,-66.94 559,-76.94 562.5,-66.94 555.5,-66.94"/>
</a>
</g>
</g>
<!-- Node3&#45;&gt;Node8 -->
<g id="edge7_Node000003_Node000008" class="edge">
<title>Node3&#45;&gt;Node8</title>
<g id="a_edge7_Node000003_Node000008"><a xlink:title=" ">
<path fill="none" stroke="#63b8ff" d="M635.53,-78.43C688.44,-69.26 760.32,-55.89 823,-41 825.75,-40.35 828.55,-39.65 831.38,-38.93"/>
<polygon fill="#63b8ff" stroke="#63b8ff" points="634.8,-75 625.54,-80.14 635.99,-81.9 634.8,-75"/>
</a>
</g>
</g>
<!-- Node9 -->
<g id="Node000009" class="node">
<title>Node9</title>
<g id="a_Node000009"><a xlink:href="../../d1/dee/apply__numeric_8cpp.html" target="_top" xlink:title="The definitions (apply_numeric) in the application module.">
<polygon fill="white" stroke="#666666" points="813.5,-35.5 666.5,-35.5 666.5,-5.5 813.5,-5.5 813.5,-35.5"/>
<text text-anchor="start" x="674.5" y="-23.5" font-family="Helvetica,sans-Serif" font-size="10.00">application/example</text>
<text text-anchor="middle" x="740" y="-12.5" font-family="Helvetica,sans-Serif" font-size="10.00">/source/apply_numeric.cpp</text>
</a>
</g>
</g>
<!-- Node3&#45;&gt;Node9 -->
<g id="edge8_Node000003_Node000009" class="edge">
<title>Node3&#45;&gt;Node9</title>
<g id="a_edge8_Node000003_Node000009"><a xlink:title=" ">
<path fill="none" stroke="#63b8ff" d="M605.19,-73.26C635.69,-61.55 675.1,-46.42 703.43,-35.54"/>
<polygon fill="#63b8ff" stroke="#63b8ff" points="603.71,-70.08 595.63,-76.94 606.22,-76.62 603.71,-70.08"/>
</a>
</g>
</g>
</g>
</svg>
