<?xml version="1.0" encoding="UTF-8" standalone="no"?>
<!DOCTYPE svg PUBLIC "-//W3C//DTD SVG 1.1//EN"
 "http://www.w3.org/Graphics/SVG/1.1/DTD/svg11.dtd">
<!-- Generated by graphviz version 2.43.0 (0)
 -->
<!-- Title: numeric/include/divisor.hpp Pages: 1 -->
<svg width="483pt" height="93pt"
 viewBox="0.00 0.00 482.50 93.00" xmlns="http://www.w3.org/2000/svg" xmlns:xlink="http://www.w3.org/1999/xlink">
<g id="graph0" class="graph" transform="scale(1 1) rotate(0) translate(4 89)">
<title>numeric/include/divisor.hpp</title>
<!-- Node1 -->
<g id="Node000001" class="node">
<title>Node1</title>
<g id="a_Node000001"><a xlink:title="The declarations (divisor) in the numeric module.">
<polygon fill="#999999" stroke="#666666" points="314,-85 163,-85 163,-66 314,-66 314,-85"/>
<text text-anchor="middle" x="238.5" y="-73" font-family="Helvetica,sans-Serif" font-size="10.00">numeric/include/divisor.hpp</text>
</a>
</g>
</g>
<!-- Node2 -->
<g id="Node000002" class="node">
<title>Node2</title>
<g id="a_Node000002"><a xlink:href="../../d1/dee/apply__numeric_8cpp.html" target="_top" xlink:title="The definitions (apply_numeric) in the application module.">
<polygon fill="white" stroke="#666666" points="147,-30 0,-30 0,0 147,0 147,-30"/>
<text text-anchor="start" x="8" y="-18" font-family="Helvetica,sans-Serif" font-size="10.00">application/example</text>
<text text-anchor="middle" x="73.5" y="-7" font-family="Helvetica,sans-Serif" font-size="10.00">/source/apply_numeric.cpp</text>
</a>
</g>
</g>
<!-- Node1&#45;&gt;Node2 -->
<g id="edge1_Node000001_Node000002" class="edge">
<title>Node1&#45;&gt;Node2</title>
<g id="a_edge1_Node000001_Node000002"><a xlink:title=" ">
<path fill="none" stroke="#63b8ff" d="M204.89,-62.58C178.32,-53.16 141.19,-40 113.17,-30.06"/>
<polygon fill="#63b8ff" stroke="#63b8ff" points="203.91,-65.95 214.51,-65.99 206.25,-59.35 203.91,-65.95"/>
</a>
</g>
</g>
<!-- Node3 -->
<g id="Node000003" class="node">
<title>Node3</title>
<g id="a_Node000003"><a xlink:href="../../d3/d6a/divisor_8cpp.html" target="_top" xlink:title="The definitions (divisor) in the numeric module.">
<polygon fill="white" stroke="#666666" points="312,-24.5 165,-24.5 165,-5.5 312,-5.5 312,-24.5"/>
<text text-anchor="middle" x="238.5" y="-12.5" font-family="Helvetica,sans-Serif" font-size="10.00">numeric/source/divisor.cpp</text>
</a>
</g>
</g>
<!-- Node1&#45;&gt;Node3 -->
<g id="edge2_Node000001_Node000003" class="edge">
<title>Node1&#45;&gt;Node3</title>
<g id="a_edge2_Node000001_Node000003"><a xlink:title=" ">
<path fill="none" stroke="#63b8ff" d="M238.5,-55.66C238.5,-45.24 238.5,-32.8 238.5,-24.67"/>
<polygon fill="#63b8ff" stroke="#63b8ff" points="235,-55.87 238.5,-65.87 242,-55.87 235,-55.87"/>
</a>
</g>
</g>
<!-- Node4 -->
<g id="Node000004" class="node">
<title>Node4</title>
<g id="a_Node000004"><a xlink:href="../../d8/d25/test__numeric_8cpp.html" target="_top" xlink:title="The definitions (test_numeric) in the test module.">
<polygon fill="white" stroke="#666666" points="474.5,-24.5 330.5,-24.5 330.5,-5.5 474.5,-5.5 474.5,-24.5"/>
<text text-anchor="middle" x="402.5" y="-12.5" font-family="Helvetica,sans-Serif" font-size="10.00">test/unit/test_numeric.cpp</text>
</a>
</g>
</g>
<!-- Node1&#45;&gt;Node4 -->
<g id="edge3_Node000001_Node000004" class="edge">
<title>Node1&#45;&gt;Node4</title>
<g id="a_edge3_Node000001_Node000004"><a xlink:title=" ">
<path fill="none" stroke="#63b8ff" d="M272.07,-62.52C303.78,-51.21 350.55,-34.53 378.62,-24.52"/>
<polygon fill="#63b8ff" stroke="#63b8ff" points="270.59,-59.34 262.35,-65.99 272.94,-65.93 270.59,-59.34"/>
</a>
</g>
</g>
</g>
</svg>
