<?xml version="1.0" encoding="UTF-8" standalone="no"?>
<!DOCTYPE svg PUBLIC "-//W3C//DTD SVG 1.1//EN"
 "http://www.w3.org/Graphics/SVG/1.1/DTD/svg11.dtd">
<!-- Generated by graphviz version 2.43.0 (0)
 -->
<!-- Title: design_pattern::structural::flyweight::Flyweight Pages: 1 -->
<svg width="398pt" height="86pt"
 viewBox="0.00 0.00 398.00 86.00" xmlns="http://www.w3.org/2000/svg" xmlns:xlink="http://www.w3.org/1999/xlink">
<g id="graph0" class="graph" transform="scale(1 1) rotate(0) translate(4 82)">
<title>design_pattern::structural::flyweight::Flyweight</title>
<!-- Node1 -->
<g id="Node000001" class="node">
<title>Node1</title>
<g id="a_Node000001"><a xlink:title="Receive and act on the extrinsic state through which flyweights.">
<polygon fill="#999999" stroke="#666666" points="142,-54 0,-54 0,-24 142,-24 142,-54"/>
<text text-anchor="start" x="8" y="-42" font-family="Helvetica,sans-Serif" font-size="10.00">design_pattern::structural</text>
<text text-anchor="middle" x="71" y="-31" font-family="Helvetica,sans-Serif" font-size="10.00">::flyweight::Flyweight</text>
</a>
</g>
</g>
<!-- Node2 -->
<g id="Node000002" class="node">
<title>Node2</title>
<g id="a_Node000002"><a xlink:href="../../d1/db3/classdesign__pattern_1_1structural_1_1flyweight_1_1ConcreteFlyweight.html" target="_top" xlink:title="The concrete flyweight.">
<polygon fill="white" stroke="#666666" points="366.5,-78 201.5,-78 201.5,-48 366.5,-48 366.5,-78"/>
<text text-anchor="start" x="209.5" y="-66" font-family="Helvetica,sans-Serif" font-size="10.00">design_pattern::structural</text>
<text text-anchor="middle" x="284" y="-55" font-family="Helvetica,sans-Serif" font-size="10.00">::flyweight::ConcreteFlyweight</text>
</a>
</g>
</g>
<!-- Node1&#45;&gt;Node2 -->
<g id="edge1_Node000001_Node000002" class="edge">
<title>Node1&#45;&gt;Node2</title>
<g id="a_edge1_Node000001_Node000002"><a xlink:title=" ">
<path fill="none" stroke="#63b8ff" d="M152.62,-48.17C168.59,-49.99 185.36,-51.89 201.36,-53.71"/>
<polygon fill="#63b8ff" stroke="#63b8ff" points="152.59,-44.64 142.26,-46.99 151.8,-51.6 152.59,-44.64"/>
</a>
</g>
</g>
<!-- Node3 -->
<g id="Node000003" class="node">
<title>Node3</title>
<g id="a_Node000003"><a xlink:href="../../d7/da3/classdesign__pattern_1_1structural_1_1flyweight_1_1UnsharedConcreteFlyweight.html" target="_top" xlink:title="The unshared concrete flyweight.">
<polygon fill="white" stroke="#666666" points="390,-30 178,-30 178,0 390,0 390,-30"/>
<text text-anchor="start" x="186" y="-18" font-family="Helvetica,sans-Serif" font-size="10.00">design_pattern::structural</text>
<text text-anchor="middle" x="284" y="-7" font-family="Helvetica,sans-Serif" font-size="10.00">::flyweight::UnsharedConcreteFlyweight</text>
</a>
</g>
</g>
<!-- Node1&#45;&gt;Node3 -->
<g id="edge2_Node000001_Node000003" class="edge">
<title>Node1&#45;&gt;Node3</title>
<g id="a_edge2_Node000001_Node000003"><a xlink:title=" ">
<path fill="none" stroke="#63b8ff" d="M152.28,-29.87C160.59,-28.92 169.13,-27.95 177.66,-26.98"/>
<polygon fill="#63b8ff" stroke="#63b8ff" points="151.8,-26.4 142.26,-31.01 152.59,-33.36 151.8,-26.4"/>
</a>
</g>
</g>
</g>
</svg>
