<?xml version="1.0" encoding="UTF-8" standalone="no"?>
<!DOCTYPE svg PUBLIC "-//W3C//DTD SVG 1.1//EN"
 "http://www.w3.org/Graphics/SVG/1.1/DTD/svg11.dtd">
<!-- Generated by graphviz version 2.43.0 (0)
 -->
<!-- Title: design_pattern::structural::decorator::Decorator Pages: 1 -->
<svg width="537pt" height="86pt"
 viewBox="0.00 0.00 537.00 86.00" xmlns="http://www.w3.org/2000/svg" xmlns:xlink="http://www.w3.org/1999/xlink">
<g id="graph0" class="graph" transform="scale(1 1) rotate(0) translate(4 82)">
<title>design_pattern::structural::decorator::Decorator</title>
<!-- Node1 -->
<g id="Node000001" class="node">
<title>Node1</title>
<g id="a_Node000001"><a xlink:title="Reference to the component. Add responsibilities to the component.">
<polygon fill="#999999" stroke="#666666" points="320,-54 178,-54 178,-24 320,-24 320,-54"/>
<text text-anchor="start" x="186" y="-42" font-family="Helvetica,sans-Serif" font-size="10.00">design_pattern::structural</text>
<text text-anchor="middle" x="249" y="-31" font-family="Helvetica,sans-Serif" font-size="10.00">::decorator::Decorator</text>
</a>
</g>
</g>
<!-- Node3 -->
<g id="Node000003" class="node">
<title>Node3</title>
<g id="a_Node000003"><a xlink:href="../../d4/d7a/classdesign__pattern_1_1structural_1_1decorator_1_1ConcreteDecoratorA.html" target="_top" xlink:title="The concrete decorator.">
<polygon fill="white" stroke="#666666" points="529,-78 356,-78 356,-48 529,-48 529,-78"/>
<text text-anchor="start" x="364" y="-66" font-family="Helvetica,sans-Serif" font-size="10.00">design_pattern::structural</text>
<text text-anchor="middle" x="442.5" y="-55" font-family="Helvetica,sans-Serif" font-size="10.00">::decorator::ConcreteDecoratorA</text>
</a>
</g>
</g>
<!-- Node1&#45;&gt;Node3 -->
<g id="edge2_Node000001_Node000003" class="edge">
<title>Node1&#45;&gt;Node3</title>
<g id="a_edge2_Node000001_Node000003"><a xlink:title=" ">
<path fill="none" stroke="#63b8ff" d="M330.15,-49.04C338.69,-50.12 347.4,-51.21 356,-52.28"/>
<polygon fill="#63b8ff" stroke="#63b8ff" points="330.58,-45.57 320.22,-47.8 329.71,-52.52 330.58,-45.57"/>
</a>
</g>
</g>
<!-- Node4 -->
<g id="Node000004" class="node">
<title>Node4</title>
<g id="a_Node000004"><a xlink:href="../../d7/d99/classdesign__pattern_1_1structural_1_1decorator_1_1ConcreteDecoratorB.html" target="_top" xlink:title="The concrete decorator.">
<polygon fill="white" stroke="#666666" points="529,-30 356,-30 356,0 529,0 529,-30"/>
<text text-anchor="start" x="364" y="-18" font-family="Helvetica,sans-Serif" font-size="10.00">design_pattern::structural</text>
<text text-anchor="middle" x="442.5" y="-7" font-family="Helvetica,sans-Serif" font-size="10.00">::decorator::ConcreteDecoratorB</text>
</a>
</g>
</g>
<!-- Node1&#45;&gt;Node4 -->
<g id="edge3_Node000001_Node000004" class="edge">
<title>Node1&#45;&gt;Node4</title>
<g id="a_edge3_Node000001_Node000004"><a xlink:title=" ">
<path fill="none" stroke="#63b8ff" d="M330.15,-28.96C338.69,-27.88 347.4,-26.79 356,-25.72"/>
<polygon fill="#63b8ff" stroke="#63b8ff" points="329.71,-25.48 320.22,-30.2 330.58,-32.43 329.71,-25.48"/>
</a>
</g>
</g>
<!-- Node2 -->
<g id="Node000002" class="node">
<title>Node2</title>
<g id="a_Node000002"><a xlink:href="../../d1/d9b/classdesign__pattern_1_1structural_1_1decorator_1_1Component.html" target="_top" xlink:title="The component to which additional responsibilities can be attached.">
<polygon fill="white" stroke="#666666" points="142,-54 0,-54 0,-24 142,-24 142,-54"/>
<text text-anchor="start" x="8" y="-42" font-family="Helvetica,sans-Serif" font-size="10.00">design_pattern::structural</text>
<text text-anchor="middle" x="71" y="-31" font-family="Helvetica,sans-Serif" font-size="10.00">::decorator::Component</text>
</a>
</g>
</g>
<!-- Node2&#45;&gt;Node1 -->
<g id="edge1_Node000001_Node000002" class="edge">
<title>Node2&#45;&gt;Node1</title>
<g id="a_edge1_Node000001_Node000002"><a xlink:title=" ">
<path fill="none" stroke="#63b8ff" d="M152.1,-39C160.71,-39 169.41,-39 177.89,-39"/>
<polygon fill="#63b8ff" stroke="#63b8ff" points="152.07,-35.5 142.07,-39 152.07,-42.5 152.07,-35.5"/>
</a>
</g>
</g>
</g>
</svg>
