<?xml version="1.0" encoding="UTF-8" standalone="no"?>
<!DOCTYPE svg PUBLIC "-//W3C//DTD SVG 1.1//EN"
 "http://www.w3.org/Graphics/SVG/1.1/DTD/svg11.dtd">
<!-- Generated by graphviz version 2.43.0 (0)
 -->
<!-- Title: utility/include/time.hpp Pages: 1 -->
<svg width="1255pt" height="170pt"
 viewBox="0.00 0.00 1254.50 170.00" xmlns="http://www.w3.org/2000/svg" xmlns:xlink="http://www.w3.org/1999/xlink">
<g id="graph0" class="graph" transform="scale(1 1) rotate(0) translate(4 166)">
<title>utility/include/time.hpp</title>
<!-- Node1 -->
<g id="Node000001" class="node">
<title>Node1</title>
<g id="a_Node000001"><a xlink:title="The declarations (time) in the utility module.">
<polygon fill="#999999" stroke="#666666" points="574,-162 444,-162 444,-143 574,-143 574,-162"/>
<text text-anchor="middle" x="509" y="-150" font-family="Helvetica,sans-Serif" font-size="10.00">utility/include/time.hpp</text>
</a>
</g>
</g>
<!-- Node2 -->
<g id="Node000002" class="node">
<title>Node2</title>
<g id="a_Node000002"><a xlink:href="../../d4/d3d/log_8hpp.html" target="_top" xlink:title="The declarations (log) in the application module.">
<polygon fill="white" stroke="#666666" points="575.5,-107 442.5,-107 442.5,-77 575.5,-77 575.5,-107"/>
<text text-anchor="start" x="450.5" y="-95" font-family="Helvetica,sans-Serif" font-size="10.00">application/core/include</text>
<text text-anchor="middle" x="509" y="-84" font-family="Helvetica,sans-Serif" font-size="10.00">/log.hpp</text>
</a>
</g>
</g>
<!-- Node1&#45;&gt;Node2 -->
<g id="edge1_Node000001_Node000002" class="edge">
<title>Node1&#45;&gt;Node2</title>
<g id="a_edge1_Node000001_Node000002"><a xlink:title=" ">
<path fill="none" stroke="#63b8ff" d="M509,-132.65C509,-124.36 509,-114.78 509,-107.11"/>
<polygon fill="#63b8ff" stroke="#63b8ff" points="505.5,-132.87 509,-142.87 512.5,-132.87 505.5,-132.87"/>
</a>
</g>
</g>
<!-- Node6 -->
<g id="Node000006" class="node">
<title>Node6</title>
<g id="a_Node000006"><a xlink:href="../../dd/dc2/view_8cpp.html" target="_top" xlink:title="The definitions (view) in the application module.">
<polygon fill="white" stroke="#666666" points="130,-35.5 0,-35.5 0,-5.5 130,-5.5 130,-35.5"/>
<text text-anchor="start" x="8" y="-23.5" font-family="Helvetica,sans-Serif" font-size="10.00">application/core/source</text>
<text text-anchor="middle" x="65" y="-12.5" font-family="Helvetica,sans-Serif" font-size="10.00">/view.cpp</text>
</a>
</g>
</g>
<!-- Node1&#45;&gt;Node6 -->
<g id="edge10_Node000001_Node000006" class="edge">
<title>Node1&#45;&gt;Node6</title>
<g id="a_edge10_Node000001_Node000006"><a xlink:title=" ">
<path fill="none" stroke="#63b8ff" d="M470.04,-140.09C388.82,-116.31 201.57,-61.49 113.04,-35.57"/>
<polygon fill="#63b8ff" stroke="#63b8ff" points="469.29,-143.52 479.87,-142.97 471.25,-136.8 469.29,-143.52"/>
</a>
</g>
</g>
<!-- Node11 -->
<g id="Node000011" class="node">
<title>Node11</title>
<g id="a_Node000011"><a xlink:href="../../de/daf/time_8cpp.html" target="_top" xlink:title="The definitions (time) in the utility module.">
<polygon fill="white" stroke="#666666" points="720,-101.5 594,-101.5 594,-82.5 720,-82.5 720,-101.5"/>
<text text-anchor="middle" x="657" y="-89.5" font-family="Helvetica,sans-Serif" font-size="10.00">utility/source/time.cpp</text>
</a>
</g>
</g>
<!-- Node1&#45;&gt;Node11 -->
<g id="edge11_Node000001_Node000011" class="edge">
<title>Node1&#45;&gt;Node11</title>
<g id="a_edge11_Node000001_Node000011"><a xlink:title=" ">
<path fill="none" stroke="#63b8ff" d="M540.04,-139.23C568.64,-127.92 610.34,-111.44 635.45,-101.52"/>
<polygon fill="#63b8ff" stroke="#63b8ff" points="538.53,-136.06 530.52,-142.99 541.11,-142.57 538.53,-136.06"/>
</a>
</g>
</g>
<!-- Node3 -->
<g id="Node000003" class="node">
<title>Node3</title>
<g id="a_Node000003"><a xlink:href="../../d1/d81/command_8cpp.html" target="_top" xlink:title="The definitions (command) in the application module.">
<polygon fill="white" stroke="#666666" points="278,-35.5 148,-35.5 148,-5.5 278,-5.5 278,-35.5"/>
<text text-anchor="start" x="156" y="-23.5" font-family="Helvetica,sans-Serif" font-size="10.00">application/core/source</text>
<text text-anchor="middle" x="213" y="-12.5" font-family="Helvetica,sans-Serif" font-size="10.00">/command.cpp</text>
</a>
</g>
</g>
<!-- Node2&#45;&gt;Node3 -->
<g id="edge2_Node000002_Node000003" class="edge">
<title>Node2&#45;&gt;Node3</title>
<g id="a_edge2_Node000002_Node000003"><a xlink:title=" ">
<path fill="none" stroke="#63b8ff" d="M433.93,-74.8C390.84,-65.32 335.78,-52.92 287,-41 280.03,-39.3 272.71,-37.45 265.49,-35.58"/>
<polygon fill="#63b8ff" stroke="#63b8ff" points="433.25,-78.23 443.77,-76.96 434.75,-71.4 433.25,-78.23"/>
</a>
</g>
</g>
<!-- Node4 -->
<g id="Node000004" class="node">
<title>Node4</title>
<g id="a_Node000004"><a xlink:href="../../d9/db8/log_8cpp.html" target="_top" xlink:title="The definitions (log) in the application module.">
<polygon fill="white" stroke="#666666" points="426,-35.5 296,-35.5 296,-5.5 426,-5.5 426,-35.5"/>
<text text-anchor="start" x="304" y="-23.5" font-family="Helvetica,sans-Serif" font-size="10.00">application/core/source</text>
<text text-anchor="middle" x="361" y="-12.5" font-family="Helvetica,sans-Serif" font-size="10.00">/log.cpp</text>
</a>
</g>
</g>
<!-- Node2&#45;&gt;Node4 -->
<g id="edge3_Node000002_Node000004" class="edge">
<title>Node2&#45;&gt;Node4</title>
<g id="a_edge3_Node000002_Node000004"><a xlink:title=" ">
<path fill="none" stroke="#63b8ff" d="M469.93,-72.65C445.18,-61.03 413.66,-46.23 390.91,-35.54"/>
<polygon fill="#63b8ff" stroke="#63b8ff" points="468.51,-75.85 479.05,-76.94 471.49,-69.52 468.51,-75.85"/>
</a>
</g>
</g>
<!-- Node5 -->
<g id="Node000005" class="node">
<title>Node5</title>
<g id="a_Node000005"><a xlink:href="../../df/d92/application_2core_2source_2main_8cpp.html" target="_top" xlink:title="The definitions (main) in the application module.">
<polygon fill="white" stroke="#666666" points="574,-35.5 444,-35.5 444,-5.5 574,-5.5 574,-35.5"/>
<text text-anchor="start" x="452" y="-23.5" font-family="Helvetica,sans-Serif" font-size="10.00">application/core/source</text>
<text text-anchor="middle" x="509" y="-12.5" font-family="Helvetica,sans-Serif" font-size="10.00">/main.cpp</text>
</a>
</g>
</g>
<!-- Node2&#45;&gt;Node5 -->
<g id="edge4_Node000002_Node000005" class="edge">
<title>Node2&#45;&gt;Node5</title>
<g id="a_edge4_Node000002_Node000005"><a xlink:title=" ">
<path fill="none" stroke="#63b8ff" d="M509,-66.75C509,-56.31 509,-44.49 509,-35.54"/>
<polygon fill="#63b8ff" stroke="#63b8ff" points="505.5,-66.94 509,-76.94 512.5,-66.94 505.5,-66.94"/>
</a>
</g>
</g>
<!-- Node2&#45;&gt;Node6 -->
<g id="edge5_Node000002_Node000006" class="edge">
<title>Node2&#45;&gt;Node6</title>
<g id="a_edge5_Node000002_Node000006"><a xlink:title=" ">
<path fill="none" stroke="#63b8ff" d="M432.11,-83.41C356.95,-75.33 239.5,-60.95 139,-41 131.18,-39.45 122.96,-37.55 114.96,-35.56"/>
<polygon fill="#63b8ff" stroke="#63b8ff" points="432.11,-86.93 442.42,-84.5 432.85,-79.97 432.11,-86.93"/>
</a>
</g>
</g>
<!-- Node7 -->
<g id="Node000007" class="node">
<title>Node7</title>
<g id="a_Node000007"><a xlink:href="../../d8/d64/apply__algorithm_8cpp.html" target="_top" xlink:title="The definitions (apply_algorithm) in the application module.">
<polygon fill="white" stroke="#666666" points="747.5,-35.5 592.5,-35.5 592.5,-5.5 747.5,-5.5 747.5,-35.5"/>
<text text-anchor="start" x="600.5" y="-23.5" font-family="Helvetica,sans-Serif" font-size="10.00">application/example</text>
<text text-anchor="middle" x="670" y="-12.5" font-family="Helvetica,sans-Serif" font-size="10.00">/source/apply_algorithm.cpp</text>
</a>
</g>
</g>
<!-- Node2&#45;&gt;Node7 -->
<g id="edge6_Node000002_Node000007" class="edge">
<title>Node2&#45;&gt;Node7</title>
<g id="a_edge6_Node000002_Node000007"><a xlink:title=" ">
<path fill="none" stroke="#63b8ff" d="M550.79,-72.96C577.82,-61.29 612.49,-46.32 637.47,-35.54"/>
<polygon fill="#63b8ff" stroke="#63b8ff" points="549.37,-69.76 541.58,-76.94 552.15,-76.19 549.37,-69.76"/>
</a>
</g>
</g>
<!-- Node8 -->
<g id="Node000008" class="node">
<title>Node8</title>
<g id="a_Node000008"><a xlink:href="../../d1/d3d/apply__data__structure_8cpp.html" target="_top" xlink:title="The definitions (apply_data_structure) in the application module.">
<polygon fill="white" stroke="#666666" points="944,-35.5 766,-35.5 766,-5.5 944,-5.5 944,-35.5"/>
<text text-anchor="start" x="774" y="-23.5" font-family="Helvetica,sans-Serif" font-size="10.00">application/example</text>
<text text-anchor="middle" x="855" y="-12.5" font-family="Helvetica,sans-Serif" font-size="10.00">/source/apply_data_structure.cpp</text>
</a>
</g>
</g>
<!-- Node2&#45;&gt;Node8 -->
<g id="edge7_Node000002_Node000008" class="edge">
<title>Node2&#45;&gt;Node8</title>
<g id="a_edge7_Node000002_Node000008"><a xlink:title=" ">
<path fill="none" stroke="#63b8ff" d="M585.83,-75.57C645.47,-63.59 727.46,-47.12 785.23,-35.51"/>
<polygon fill="#63b8ff" stroke="#63b8ff" points="584.83,-72.2 575.71,-77.6 586.21,-79.06 584.83,-72.2"/>
</a>
</g>
</g>
<!-- Node9 -->
<g id="Node000009" class="node">
<title>Node9</title>
<g id="a_Node000009"><a xlink:href="../../de/d6b/apply__design__pattern_8cpp.html" target="_top" xlink:title="The definitions (apply_design_pattern) in the application module.">
<polygon fill="white" stroke="#666666" points="1081.5,-41 962.5,-41 962.5,0 1081.5,0 1081.5,-41"/>
<text text-anchor="start" x="970.5" y="-29" font-family="Helvetica,sans-Serif" font-size="10.00">application/example</text>
<text text-anchor="start" x="970.5" y="-18" font-family="Helvetica,sans-Serif" font-size="10.00">/source/apply_design</text>
<text text-anchor="middle" x="1022" y="-7" font-family="Helvetica,sans-Serif" font-size="10.00">_pattern.cpp</text>
</a>
</g>
</g>
<!-- Node2&#45;&gt;Node9 -->
<g id="edge8_Node000002_Node000009" class="edge">
<title>Node2&#45;&gt;Node9</title>
<g id="a_edge8_Node000002_Node000009"><a xlink:title=" ">
<path fill="none" stroke="#63b8ff" d="M585.61,-77.01C749.49,-54.75 794.67,-70.87 953,-41 956.06,-40.42 959.18,-39.77 962.32,-39.07"/>
<polygon fill="#63b8ff" stroke="#63b8ff" points="585.1,-73.55 575.68,-78.39 586.06,-80.48 585.1,-73.55"/>
</a>
</g>
</g>
<!-- Node10 -->
<g id="Node000010" class="node">
<title>Node10</title>
<g id="a_Node000010"><a xlink:href="../../d1/dee/apply__numeric_8cpp.html" target="_top" xlink:title="The definitions (apply_numeric) in the application module.">
<polygon fill="white" stroke="#666666" points="1246.5,-35.5 1099.5,-35.5 1099.5,-5.5 1246.5,-5.5 1246.5,-35.5"/>
<text text-anchor="start" x="1107.5" y="-23.5" font-family="Helvetica,sans-Serif" font-size="10.00">application/example</text>
<text text-anchor="middle" x="1173" y="-12.5" font-family="Helvetica,sans-Serif" font-size="10.00">/source/apply_numeric.cpp</text>
</a>
</g>
</g>
<!-- Node2&#45;&gt;Node10 -->
<g id="edge9_Node000002_Node000010" class="edge">
<title>Node2&#45;&gt;Node10</title>
<g id="a_edge9_Node000002_Node000010"><a xlink:title=" ">
<path fill="none" stroke="#63b8ff" d="M585.79,-77.02C810.43,-49.3 871.41,-74.69 1091,-41 1100.26,-39.58 1110.01,-37.65 1119.43,-35.56"/>
<polygon fill="#63b8ff" stroke="#63b8ff" points="585.15,-73.57 575.66,-78.29 586.02,-80.51 585.15,-73.57"/>
</a>
</g>
</g>
</g>
</svg>
