<?xml version="1.0" encoding="UTF-8" standalone="no"?>
<!DOCTYPE svg PUBLIC "-//W3C//DTD SVG 1.1//EN"
 "http://www.w3.org/Graphics/SVG/1.1/DTD/svg11.dtd">
<!-- Generated by graphviz version 2.43.0 (0)
 -->
<!-- Title: date_structure::tree::bs::getMinimum Pages: 1 -->
<svg width="568pt" height="38pt"
 viewBox="0.00 0.00 568.00 38.00" xmlns="http://www.w3.org/2000/svg" xmlns:xlink="http://www.w3.org/1999/xlink">
<g id="graph0" class="graph" transform="scale(1 1) rotate(0) translate(4 34)">
<title>date_structure::tree::bs::getMinimum</title>
<!-- Node1 -->
<g id="Node000001" class="node">
<title>Node1</title>
<g id="a_Node000001"><a xlink:title="Get the node where the minimum key is located in the binary search tree.">
<polygon fill="#999999" stroke="#666666" points="560,-30 447,-30 447,0 560,0 560,-30"/>
<text text-anchor="start" x="455" y="-18" font-family="Helvetica,sans-Serif" font-size="10.00">date_structure::tree</text>
<text text-anchor="middle" x="503.5" y="-7" font-family="Helvetica,sans-Serif" font-size="10.00">::bs::getMinimum</text>
</a>
</g>
</g>
<!-- Node2 -->
<g id="Node000002" class="node">
<title>Node2</title>
<g id="a_Node000002"><a xlink:href="../../d0/d4f/namespacedate__structure_1_1tree_1_1bs.html#ada26beed78cf0f85fc34a043c0c0bf06" target="_top" xlink:title="Get the successor node of the current node. The precursor of a node is the node that has the minimum ...">
<polygon fill="white" stroke="#666666" points="411,-30 298,-30 298,0 411,0 411,-30"/>
<text text-anchor="start" x="306" y="-18" font-family="Helvetica,sans-Serif" font-size="10.00">date_structure::tree</text>
<text text-anchor="middle" x="354.5" y="-7" font-family="Helvetica,sans-Serif" font-size="10.00">::bs::getSuccessor</text>
</a>
</g>
</g>
<!-- Node1&#45;&gt;Node2 -->
<g id="edge1_Node000001_Node000002" class="edge">
<title>Node1&#45;&gt;Node2</title>
<g id="a_edge1_Node000001_Node000002"><a xlink:title=" ">
<path fill="none" stroke="#63b8ff" d="M436.92,-15C428.32,-15 419.57,-15 411.15,-15"/>
<polygon fill="#63b8ff" stroke="#63b8ff" points="436.93,-18.5 446.93,-15 436.93,-11.5 436.93,-18.5"/>
</a>
</g>
</g>
<!-- Node3 -->
<g id="Node000003" class="node">
<title>Node3</title>
<g id="a_Node000003"><a xlink:href="../../d0/d4f/namespacedate__structure_1_1tree_1_1bs.html#a37d33ec883109792cf2a050b7c850dfc" target="_top" xlink:title="Delete target node from the binary search tree.">
<polygon fill="white" stroke="#666666" points="262,-30 149,-30 149,0 262,0 262,-30"/>
<text text-anchor="start" x="157" y="-18" font-family="Helvetica,sans-Serif" font-size="10.00">date_structure::tree</text>
<text text-anchor="middle" x="205.5" y="-7" font-family="Helvetica,sans-Serif" font-size="10.00">::bs::deleteNode</text>
</a>
</g>
</g>
<!-- Node2&#45;&gt;Node3 -->
<g id="edge2_Node000002_Node000003" class="edge">
<title>Node2&#45;&gt;Node3</title>
<g id="a_edge2_Node000002_Node000003"><a xlink:title=" ">
<path fill="none" stroke="#63b8ff" d="M287.92,-15C279.32,-15 270.57,-15 262.15,-15"/>
<polygon fill="#63b8ff" stroke="#63b8ff" points="287.93,-18.5 297.93,-15 287.93,-11.5 287.93,-18.5"/>
</a>
</g>
</g>
<!-- Node4 -->
<g id="Node000004" class="node">
<title>Node4</title>
<g id="a_Node000004"><a xlink:href="../../d0/d4f/namespacedate__structure_1_1tree_1_1bs.html#a2bb54f746747857a4cb852efa457bf40" target="_top" xlink:title="Delete target node into the binary search tree.">
<polygon fill="white" stroke="#666666" points="113,-30 0,-30 0,0 113,0 113,-30"/>
<text text-anchor="start" x="8" y="-18" font-family="Helvetica,sans-Serif" font-size="10.00">date_structure::tree</text>
<text text-anchor="middle" x="56.5" y="-7" font-family="Helvetica,sans-Serif" font-size="10.00">::bs::bsTreeDelete</text>
</a>
</g>
</g>
<!-- Node3&#45;&gt;Node4 -->
<g id="edge3_Node000003_Node000004" class="edge">
<title>Node3&#45;&gt;Node4</title>
<g id="a_edge3_Node000003_Node000004"><a xlink:title=" ">
<path fill="none" stroke="#63b8ff" d="M138.92,-15C130.32,-15 121.57,-15 113.15,-15"/>
<polygon fill="#63b8ff" stroke="#63b8ff" points="138.93,-18.5 148.93,-15 138.93,-11.5 138.93,-18.5"/>
</a>
</g>
</g>
</g>
</svg>
