<?xml version="1.0" encoding="UTF-8" standalone="no"?>
<!DOCTYPE svg PUBLIC "-//W3C//DTD SVG 1.1//EN"
 "http://www.w3.org/Graphics/SVG/1.1/DTD/svg11.dtd">
<!-- Generated by graphviz version 2.43.0 (0)
 -->
<!-- Title: application::getExecutableName Pages: 1 -->
<svg width="491pt" height="140pt"
 viewBox="0.00 0.00 491.00 140.00" xmlns="http://www.w3.org/2000/svg" xmlns:xlink="http://www.w3.org/1999/xlink">
<g id="graph0" class="graph" transform="scale(1 1) rotate(0) translate(4 136)">
<title>application::getExecutableName</title>
<!-- Node1 -->
<g id="Node000001" class="node">
<title>Node1</title>
<g id="a_Node000001"><a xlink:title="Get the executable name.">
<polygon fill="#999999" stroke="#666666" points="483,-75 308,-75 308,-56 483,-56 483,-75"/>
<text text-anchor="middle" x="395.5" y="-63" font-family="Helvetica,sans-Serif" font-size="10.00">application::getExecutableName</text>
</a>
</g>
</g>
<!-- Node2 -->
<g id="Node000002" class="node">
<title>Node2</title>
<g id="a_Node000002"><a xlink:href="../../d7/d2c/namespaceapplication.html#a1dcfa0ce1b9eb76b9c593a44aa172c6f" target="_top" xlink:title="The destructor function before finishing the main function. Check the signal status.">
<polygon fill="white" stroke="#666666" points="246,-132 154,-132 154,-113 246,-113 246,-132"/>
<text text-anchor="middle" x="200" y="-120" font-family="Helvetica,sans-Serif" font-size="10.00">application::fini</text>
</a>
</g>
</g>
<!-- Node1&#45;&gt;Node2 -->
<g id="edge1_Node000001_Node000002" class="edge">
<title>Node1&#45;&gt;Node2</title>
<g id="a_edge1_Node000001_Node000002"><a xlink:title=" ">
<path fill="none" stroke="#63b8ff" d="M352.46,-77.88C316.73,-88.41 266.18,-103.3 233.49,-112.93"/>
<polygon fill="#63b8ff" stroke="#63b8ff" points="353.51,-81.22 362.11,-75.04 351.53,-74.51 353.51,-81.22"/>
</a>
</g>
</g>
<!-- Node3 -->
<g id="Node000003" class="node">
<title>Node3</title>
<g id="a_Node000003"><a xlink:href="../../d7/d2c/namespaceapplication.html#acd710b6d6e0c67041a21f6a7ac95dcd9" target="_top" xlink:title="The constructor function before starting the main function. Switch to the target path.">
<polygon fill="white" stroke="#666666" points="92,-56 0,-56 0,-37 92,-37 92,-56"/>
<text text-anchor="middle" x="46" y="-44" font-family="Helvetica,sans-Serif" font-size="10.00">application::init</text>
</a>
</g>
</g>
<!-- Node1&#45;&gt;Node3 -->
<g id="edge2_Node000001_Node000003" class="edge">
<title>Node1&#45;&gt;Node3</title>
<g id="a_edge2_Node000001_Node000003"><a xlink:title=" ">
<path fill="none" stroke="#63b8ff" d="M297.5,-70.85C246.83,-72.29 183.9,-71.97 128,-65.5 111.93,-63.64 94.42,-59.77 79.8,-56.01"/>
<polygon fill="#63b8ff" stroke="#63b8ff" points="297.91,-74.34 307.8,-70.52 297.69,-67.34 297.91,-74.34"/>
</a>
</g>
</g>
<!-- Node4 -->
<g id="Node000004" class="node">
<title>Node4</title>
<g id="a_Node000004"><a xlink:href="../../df/d92/application_2core_2source_2main_8cpp.html#a0ddf1224851353fc92bfbff6f499fa97" target="_top" xlink:title="The main function.">
<polygon fill="white" stroke="#666666" points="220.5,-56 179.5,-56 179.5,-37 220.5,-37 220.5,-56"/>
<text text-anchor="middle" x="200" y="-44" font-family="Helvetica,sans-Serif" font-size="10.00">main</text>
</a>
</g>
</g>
<!-- Node1&#45;&gt;Node4 -->
<g id="edge3_Node000001_Node000004" class="edge">
<title>Node1&#45;&gt;Node4</title>
<g id="a_edge3_Node000001_Node000004"><a xlink:title=" ">
<path fill="none" stroke="#63b8ff" d="M297.65,-55.99C268.52,-53.13 239.41,-50.27 220.86,-48.45"/>
<polygon fill="#63b8ff" stroke="#63b8ff" points="297.64,-59.51 307.94,-57 298.33,-52.54 297.64,-59.51"/>
</a>
</g>
</g>
<!-- Node5 -->
<g id="Node000005" class="node">
<title>Node5</title>
<g id="a_Node000005"><a xlink:href="../../d7/d2c/namespaceapplication.html#af813e6358782153b5497a02012e4c7d4" target="_top" xlink:title="Signal handler for SIGSEGV signal, etc.">
<polygon fill="white" stroke="#666666" points="272,-19 128,-19 128,0 272,0 272,-19"/>
<text text-anchor="middle" x="200" y="-7" font-family="Helvetica,sans-Serif" font-size="10.00">application::signalHandler</text>
</a>
</g>
</g>
<!-- Node1&#45;&gt;Node5 -->
<g id="edge4_Node000001_Node000005" class="edge">
<title>Node1&#45;&gt;Node5</title>
<g id="a_edge4_Node000001_Node000005"><a xlink:title=" ">
<path fill="none" stroke="#63b8ff" d="M354.11,-52.95C330.27,-45.63 299.48,-36.33 272,-28.5 260.83,-25.32 248.63,-22 237.55,-19.04"/>
<polygon fill="#63b8ff" stroke="#63b8ff" points="353.28,-56.35 363.87,-55.95 355.34,-49.66 353.28,-56.35"/>
</a>
</g>
</g>
<!-- Node5&#45;&gt;Node3 -->
<g id="edge5_Node000005_Node000003" class="edge">
<title>Node5&#45;&gt;Node3</title>
<g id="a_edge5_Node000005_Node000003"><a xlink:title=" ">
<path fill="none" stroke="#63b8ff" d="M150.01,-21.43C129.39,-26.44 105.72,-32.21 86.28,-36.94"/>
<polygon fill="#63b8ff" stroke="#63b8ff" points="150.97,-24.79 159.86,-19.03 149.31,-17.99 150.97,-24.79"/>
</a>
</g>
</g>
</g>
</svg>
