<?xml version="1.0" encoding="UTF-8" standalone="no"?>
<!DOCTYPE svg PUBLIC "-//W3C//DTD SVG 1.1//EN"
 "http://www.w3.org/Graphics/SVG/1.1/DTD/svg11.dtd">
<!-- Generated by graphviz version 2.43.0 (0)
 -->
<!-- Title: utility::console::Console::Impl Pages: 1 -->
<svg width="940pt" height="146pt"
 viewBox="0.00 0.00 940.00 146.00" xmlns="http://www.w3.org/2000/svg" xmlns:xlink="http://www.w3.org/1999/xlink">
<g id="graph0" class="graph" transform="scale(1 1) rotate(0) translate(4 142)">
<title>utility::console::Console::Impl</title>
<!-- Node1 -->
<g id="Node000001" class="node">
<title>Node1</title>
<g id="a_Node000001"><a xlink:title="Implementation of running console.">
<polygon fill="#999999" stroke="#666666" points="932,-100 799,-100 799,-70 932,-70 932,-100"/>
<text text-anchor="start" x="807" y="-88" font-family="Helvetica,sans-Serif" font-size="10.00">utility::console::Console</text>
<text text-anchor="middle" x="865.5" y="-77" font-family="Helvetica,sans-Serif" font-size="10.00">::Impl</text>
</a>
</g>
</g>
<!-- Node2 -->
<g id="Node000002" class="node">
<title>Node2</title>
<g id="a_Node000002"><a target="_parent" xlink:href="https://gcc.gnu.org/onlinedocs/gcc-12.3.0/libstdc++/api/a08855.html" xlink:title=" ">
<polygon fill="white" stroke="#666666" points="717,-132.5 552,-132.5 552,-91.5 717,-91.5 717,-132.5"/>
<text text-anchor="start" x="560" y="-120.5" font-family="Helvetica,sans-Serif" font-size="10.00">std::unordered_map</text>
<text text-anchor="start" x="560" y="-109.5" font-family="Helvetica,sans-Serif" font-size="10.00">&lt; Command, std::pair</text>
<text text-anchor="middle" x="634.5" y="-98.5" font-family="Helvetica,sans-Serif" font-size="10.00">&lt; CommandFunctor, Help &gt; &gt;</text>
</a>
</g>
</g>
<!-- Node2&#45;&gt;Node1 -->
<g id="edge1_Node000001_Node000002" class="edge">
<title>Node2&#45;&gt;Node1</title>
<g id="a_edge1_Node000001_Node000002"><a xlink:title=" ">
<path fill="none" stroke="#9a32cd" stroke-dasharray="5,2" d="M727.33,-101.17C751.19,-98.36 776.42,-95.39 798.64,-92.77"/>
<polygon fill="#9a32cd" stroke="#9a32cd" points="726.73,-97.72 717.2,-102.37 727.55,-104.67 726.73,-97.72"/>
</a>
</g>
<text text-anchor="middle" x="758" y="-103" font-family="Helvetica,sans-Serif" font-size="10.00" fill="grey"> regMap</text>
</g>
<!-- Node3 -->
<g id="Node000003" class="node">
<title>Node3</title>
<g id="a_Node000003"><a target="_parent" xlink:href="https://gcc.gnu.org/onlinedocs/gcc-12.3.0/libstdc++/api/a08855.html" xlink:title=" ">
<polygon fill="white" stroke="#666666" points="367,-138 186,-138 186,-86 367,-86 367,-138"/>
<text text-anchor="start" x="194" y="-126" font-family="Helvetica,sans-Serif" font-size="10.00">std::unordered_map</text>
<text text-anchor="start" x="194" y="-115" font-family="Helvetica,sans-Serif" font-size="10.00">&lt; typename _Key, typename</text>
<text text-anchor="start" x="194" y="-104" font-family="Helvetica,sans-Serif" font-size="10.00"> _Tp, typename _Hash, typename</text>
<text text-anchor="middle" x="276.5" y="-93" font-family="Helvetica,sans-Serif" font-size="10.00"> _Pred, typename _Alloc &gt;</text>
</a>
</g>
</g>
<!-- Node3&#45;&gt;Node2 -->
<g id="edge2_Node000002_Node000003" class="edge">
<title>Node3&#45;&gt;Node2</title>
<g id="a_edge2_Node000002_Node000003"><a xlink:title=" ">
<path fill="none" stroke="orange" stroke-dasharray="5,2" d="M377.47,-112C432.55,-112 500.05,-112 551.92,-112"/>
<polygon fill="orange" stroke="orange" points="377.33,-108.5 367.33,-112 377.33,-115.5 377.33,-108.5"/>
</a>
</g>
<text text-anchor="start" x="385" y="-126" font-family="Helvetica,sans-Serif" font-size="10.00" fill="grey"> &lt; Command, std::pair</text>
<text text-anchor="middle" x="459.5" y="-115" font-family="Helvetica,sans-Serif" font-size="10.00" fill="grey">&lt; CommandFunctor, Help &gt; &gt;</text>
</g>
<!-- Node4 -->
<g id="Node000004" class="node">
<title>Node4</title>
<g id="a_Node000004"><a target="_parent" xlink:href="https://gcc.gnu.org/onlinedocs/gcc-12.3.0/libstdc++/api/a08619.html" xlink:title=" ">
<polygon fill="white" stroke="#666666" points="689.5,-73 579.5,-73 579.5,-43 689.5,-43 689.5,-73"/>
<text text-anchor="start" x="587.5" y="-61" font-family="Helvetica,sans-Serif" font-size="10.00">std::list&lt; std::basic</text>
<text text-anchor="middle" x="634.5" y="-50" font-family="Helvetica,sans-Serif" font-size="10.00">_string &gt;</text>
</a>
</g>
</g>
<!-- Node4&#45;&gt;Node1 -->
<g id="edge3_Node000001_Node000004" class="edge">
<title>Node4&#45;&gt;Node1</title>
<g id="a_edge3_Node000001_Node000004"><a xlink:title=" ">
<path fill="none" stroke="#9a32cd" stroke-dasharray="5,2" d="M699.99,-65.6C730.86,-69.24 767.76,-73.59 798.78,-77.25"/>
<polygon fill="#9a32cd" stroke="#9a32cd" points="700.11,-62.09 689.77,-64.4 699.29,-69.05 700.11,-62.09"/>
</a>
</g>
<text text-anchor="middle" x="758" y="-77" font-family="Helvetica,sans-Serif" font-size="10.00" fill="grey"> regOrder</text>
</g>
<!-- Node5 -->
<g id="Node000005" class="node">
<title>Node5</title>
<g id="a_Node000005"><a target="_parent" xlink:href="https://gcc.gnu.org/onlinedocs/gcc-12.3.0/libstdc++/api/a08611.html" xlink:title=" ">
<polygon fill="white" stroke="#666666" points="149,-51 0,-51 0,-21 149,-21 149,-51"/>
<text text-anchor="start" x="8" y="-39" font-family="Helvetica,sans-Serif" font-size="10.00">std::_List_base&lt; typename</text>
<text text-anchor="middle" x="74.5" y="-28" font-family="Helvetica,sans-Serif" font-size="10.00"> _Tp, typename _Alloc &gt;</text>
</a>
</g>
</g>
<!-- Node5&#45;&gt;Node4 -->
<g id="edge4_Node000004_Node000005" class="edge">
<title>Node5&#45;&gt;Node4</title>
<g id="a_edge4_Node000004_Node000005"><a xlink:title=" ">
<path fill="none" stroke="darkgreen" d="M159.66,-40.66C162.14,-40.78 164.59,-40.89 167,-41 316.17,-47.79 492.27,-53.61 579.26,-56.34"/>
<polygon fill="darkgreen" stroke="darkgreen" points="159.56,-37.15 149.4,-40.15 159.22,-44.14 159.56,-37.15"/>
</a>
</g>
</g>
<!-- Node6 -->
<g id="Node000006" class="node">
<title>Node6</title>
<g id="a_Node000006"><a target="_parent" xlink:href="https://gcc.gnu.org/onlinedocs/gcc-12.3.0/libstdc++/api/a08619.html" xlink:title=" ">
<polygon fill="white" stroke="#666666" points="344.5,-30 208.5,-30 208.5,0 344.5,0 344.5,-30"/>
<text text-anchor="start" x="216.5" y="-18" font-family="Helvetica,sans-Serif" font-size="10.00">std::list&lt; typename</text>
<text text-anchor="middle" x="276.5" y="-7" font-family="Helvetica,sans-Serif" font-size="10.00"> _Tp, typename _Alloc &gt;</text>
</a>
</g>
</g>
<!-- Node5&#45;&gt;Node6 -->
<g id="edge6_Node000006_Node000005" class="edge">
<title>Node5&#45;&gt;Node6</title>
<g id="a_edge6_Node000006_Node000005"><a xlink:title=" ">
<path fill="none" stroke="darkgreen" d="M159.22,-27.21C175.6,-25.49 192.57,-23.71 208.33,-22.05"/>
<polygon fill="darkgreen" stroke="darkgreen" points="158.7,-23.74 149.12,-28.27 159.43,-30.71 158.7,-23.74"/>
</a>
</g>
</g>
<!-- Node6&#45;&gt;Node4 -->
<g id="edge5_Node000004_Node000006" class="edge">
<title>Node6&#45;&gt;Node4</title>
<g id="a_edge5_Node000004_Node000006"><a xlink:title=" ">
<path fill="none" stroke="orange" stroke-dasharray="5,2" d="M354.88,-16.88C405.99,-19 474.3,-23.48 534,-33 549.39,-35.45 565.88,-39.15 580.93,-42.95"/>
<polygon fill="orange" stroke="orange" points="354.7,-13.37 344.57,-16.48 354.42,-20.37 354.7,-13.37"/>
</a>
</g>
<text text-anchor="middle" x="459.5" y="-36" font-family="Helvetica,sans-Serif" font-size="10.00" fill="grey"> &lt; std::basic_string &gt;</text>
</g>
</g>
</svg>
