<?xml version="1.0" encoding="UTF-8" standalone="no"?>
<!DOCTYPE svg PUBLIC "-//W3C//DTD SVG 1.1//EN"
 "http://www.w3.org/Graphics/SVG/1.1/DTD/svg11.dtd">
<!-- Generated by graphviz version 2.43.0 (0)
 -->
<!-- Title: algorithm/include/search.hpp Pages: 1 -->
<svg width="505pt" height="93pt"
 viewBox="0.00 0.00 504.50 93.00" xmlns="http://www.w3.org/2000/svg" xmlns:xlink="http://www.w3.org/1999/xlink">
<g id="graph0" class="graph" transform="scale(1 1) rotate(0) translate(4 89)">
<title>algorithm/include/search.hpp</title>
<!-- Node1 -->
<g id="Node000001" class="node">
<title>Node1</title>
<g id="a_Node000001"><a xlink:title="The declarations (search) in the algorithm module.">
<polygon fill="#999999" stroke="#666666" points="241.5,-85 83.5,-85 83.5,-66 241.5,-66 241.5,-85"/>
<text text-anchor="middle" x="162.5" y="-73" font-family="Helvetica,sans-Serif" font-size="10.00">algorithm/include/search.hpp</text>
</a>
</g>
</g>
<!-- Node2 -->
<g id="Node000002" class="node">
<title>Node2</title>
<g id="a_Node000002"><a xlink:href="../../d1/da9/search_8tpp.html" target="_top" xlink:title="The definitions (search) in the algorithm module.">
<polygon fill="white" stroke="#666666" points="153,-24.5 0,-24.5 0,-5.5 153,-5.5 153,-24.5"/>
<text text-anchor="middle" x="76.5" y="-12.5" font-family="Helvetica,sans-Serif" font-size="10.00">algorithm/source/search.tpp</text>
</a>
</g>
</g>
<!-- Node1&#45;&gt;Node2 -->
<g id="edge1_Node000001_Node000002" class="edge">
<title>Node1&#45;&gt;Node2</title>
<g id="a_edge1_Node000001_Node000002"><a xlink:title=" ">
<path fill="none" stroke="#63b8ff" d="M136.01,-60.47C118.2,-49.32 96.12,-34.1 84.28,-24.67"/>
<polygon fill="#63b8ff" stroke="#63b8ff" points="134.5,-63.64 144.86,-65.87 138.14,-57.67 134.5,-63.64"/>
</a>
</g>
</g>
<!-- Node3 -->
<g id="Node000003" class="node">
<title>Node3</title>
<g id="a_Node000003"><a xlink:href="../../d8/d64/apply__algorithm_8cpp.html" target="_top" xlink:title="The definitions (apply_algorithm) in the application module.">
<polygon fill="white" stroke="#666666" points="326,-30 171,-30 171,0 326,0 326,-30"/>
<text text-anchor="start" x="179" y="-18" font-family="Helvetica,sans-Serif" font-size="10.00">application/example</text>
<text text-anchor="middle" x="248.5" y="-7" font-family="Helvetica,sans-Serif" font-size="10.00">/source/apply_algorithm.cpp</text>
</a>
</g>
</g>
<!-- Node1&#45;&gt;Node3 -->
<g id="edge3_Node000001_Node000003" class="edge">
<title>Node1&#45;&gt;Node3</title>
<g id="a_edge3_Node000001_Node000003"><a xlink:title=" ">
<path fill="none" stroke="#63b8ff" d="M183.77,-60.03C197.19,-50.9 214.43,-39.17 227.75,-30.11"/>
<polygon fill="#63b8ff" stroke="#63b8ff" points="181.49,-57.35 175.19,-65.87 185.43,-63.14 181.49,-57.35"/>
</a>
</g>
</g>
<!-- Node4 -->
<g id="Node000004" class="node">
<title>Node4</title>
<g id="a_Node000004"><a xlink:href="../../df/de8/test__algorithm_8cpp.html" target="_top" xlink:title="The definitions (test_algorithm) in the test module.">
<polygon fill="white" stroke="#666666" points="496.5,-24.5 344.5,-24.5 344.5,-5.5 496.5,-5.5 496.5,-24.5"/>
<text text-anchor="middle" x="420.5" y="-12.5" font-family="Helvetica,sans-Serif" font-size="10.00">test/unit/test_algorithm.cpp</text>
</a>
</g>
</g>
<!-- Node1&#45;&gt;Node4 -->
<g id="edge4_Node000001_Node000004" class="edge">
<title>Node1&#45;&gt;Node4</title>
<g id="a_edge4_Node000001_Node000004"><a xlink:title=" ">
<path fill="none" stroke="#63b8ff" d="M209.9,-63.75C259.75,-52.45 337.16,-34.9 382.94,-24.52"/>
<polygon fill="#63b8ff" stroke="#63b8ff" points="208.99,-60.37 200.02,-65.99 210.54,-67.2 208.99,-60.37"/>
</a>
</g>
</g>
<!-- Node2&#45;&gt;Node1 -->
<g id="edge2_Node000002_Node000001" class="edge">
<title>Node2&#45;&gt;Node1</title>
<g id="a_edge2_Node000002_Node000001"><a xlink:title=" ">
<path fill="none" stroke="#63b8ff" d="M103.06,-30.08C120.88,-41.23 142.96,-56.45 154.77,-65.87"/>
<polygon fill="#63b8ff" stroke="#63b8ff" points="104.56,-26.89 94.2,-24.67 100.91,-32.87 104.56,-26.89"/>
</a>
</g>
</g>
</g>
</svg>
