<?xml version="1.0" encoding="UTF-8" standalone="no"?>
<!DOCTYPE svg PUBLIC "-//W3C//DTD SVG 1.1//EN"
 "http://www.w3.org/Graphics/SVG/1.1/DTD/svg11.dtd">
<!-- Generated by graphviz version 2.43.0 (0)
 -->
<!-- Title: utility::time::millisecondLevelSleep Pages: 1 -->
<svg width="781pt" height="369pt"
 viewBox="0.00 0.00 781.00 369.00" xmlns="http://www.w3.org/2000/svg" xmlns:xlink="http://www.w3.org/1999/xlink">
<g id="graph0" class="graph" transform="scale(1 1) rotate(0) translate(4 365)">
<title>utility::time::millisecondLevelSleep</title>
<!-- Node1 -->
<g id="Node000001" class="node">
<title>Node1</title>
<g id="a_Node000001"><a xlink:title="Perform millisecond&#45;level sleep.">
<polygon fill="#999999" stroke="#666666" points="773,-150 638,-150 638,-120 773,-120 773,-150"/>
<text text-anchor="start" x="646" y="-138" font-family="Helvetica,sans-Serif" font-size="10.00">utility::time::millisecond</text>
<text text-anchor="middle" x="705.5" y="-127" font-family="Helvetica,sans-Serif" font-size="10.00">LevelSleep</text>
</a>
</g>
</g>
<!-- Node2 -->
<g id="Node000002" class="node">
<title>Node2</title>
<g id="a_Node000002"><a xlink:href="../../de/dd7/classapplication_1_1command_1_1Command.html#aede5e9ad130ae416e1041df66d6a4039" target="_top" xlink:title="Enter console mode.">
<polygon fill="white" stroke="#666666" points="379,-217 209,-217 209,-187 379,-187 379,-217"/>
<text text-anchor="start" x="217" y="-205" font-family="Helvetica,sans-Serif" font-size="10.00">application::command</text>
<text text-anchor="middle" x="294" y="-194" font-family="Helvetica,sans-Serif" font-size="10.00">::Command::enterConsoleMode</text>
</a>
</g>
</g>
<!-- Node1&#45;&gt;Node2 -->
<g id="edge1_Node000001_Node000002" class="edge">
<title>Node1&#45;&gt;Node2</title>
<g id="a_edge1_Node000001_Node000002"><a xlink:title=" ">
<path fill="none" stroke="#63b8ff" d="M670.36,-154.96C650.98,-165.25 625.89,-176.9 602,-183 528.27,-201.82 441.5,-205.57 379.05,-205.2"/>
<polygon fill="#63b8ff" stroke="#63b8ff" points="672.28,-157.9 679.39,-150.04 668.93,-151.75 672.28,-157.9"/>
</a>
</g>
</g>
<!-- Node4 -->
<g id="Node000004" class="node">
<title>Node4</title>
<g id="a_Node000004"><a xlink:href="../../d5/dbb/classapplication_1_1view_1_1View.html#a139c1b9c58f1fa1778b6ae6c0acf2c69" target="_top" xlink:title="Fill the shared memory.">
<polygon fill="white" stroke="#666666" points="583.5,-289 451.5,-289 451.5,-259 583.5,-259 583.5,-289"/>
<text text-anchor="start" x="459.5" y="-277" font-family="Helvetica,sans-Serif" font-size="10.00">application::view::</text>
<text text-anchor="middle" x="517.5" y="-266" font-family="Helvetica,sans-Serif" font-size="10.00">View::fillSharedMemory</text>
</a>
</g>
</g>
<!-- Node1&#45;&gt;Node4 -->
<g id="edge3_Node000001_Node000004" class="edge">
<title>Node1&#45;&gt;Node4</title>
<g id="a_edge3_Node000001_Node000004"><a xlink:title=" ">
<path fill="none" stroke="#63b8ff" d="M677.94,-156.73C657.45,-173.31 628.26,-196.53 602,-216 581.72,-231.03 558.05,-247.37 541.09,-258.86"/>
<polygon fill="#63b8ff" stroke="#63b8ff" points="680.32,-159.3 685.88,-150.28 675.91,-153.87 680.32,-159.3"/>
</a>
</g>
</g>
<!-- Node8 -->
<g id="Node000008" class="node">
<title>Node8</title>
<g id="a_Node000008"><a xlink:href="../../d5/dbb/classapplication_1_1view_1_1View.html#aa649980547004b80b14e4fd808a05566" target="_top" xlink:title="Print the shared memory.">
<polygon fill="white" stroke="#666666" points="589,-126 446,-126 446,-96 589,-96 589,-126"/>
<text text-anchor="start" x="454" y="-114" font-family="Helvetica,sans-Serif" font-size="10.00">application::view::</text>
<text text-anchor="middle" x="517.5" y="-103" font-family="Helvetica,sans-Serif" font-size="10.00">View::printSharedMemory</text>
</a>
</g>
</g>
<!-- Node1&#45;&gt;Node8 -->
<g id="edge7_Node000001_Node000008" class="edge">
<title>Node1&#45;&gt;Node8</title>
<g id="a_edge7_Node000001_Node000008"><a xlink:title=" ">
<path fill="none" stroke="#63b8ff" d="M627.72,-125.09C614.92,-123.44 601.69,-121.73 589.06,-120.1"/>
<polygon fill="#63b8ff" stroke="#63b8ff" points="627.51,-128.59 637.88,-126.4 628.41,-121.65 627.51,-128.59"/>
</a>
</g>
</g>
<!-- Node12 -->
<g id="Node000012" class="node">
<title>Node12</title>
<g id="a_Node000012"><a xlink:href="../../de/dd7/classapplication_1_1command_1_1Command.html#a1b392abf635613d2f81e131fdd9b9d82" target="_top" xlink:title="Register the command line to console mode.">
<polygon fill="white" stroke="#666666" points="602,-174 433,-174 433,-144 602,-144 602,-174"/>
<text text-anchor="start" x="441" y="-162" font-family="Helvetica,sans-Serif" font-size="10.00">application::command</text>
<text text-anchor="middle" x="517.5" y="-151" font-family="Helvetica,sans-Serif" font-size="10.00">::Command::registerOnConsole</text>
</a>
</g>
</g>
<!-- Node1&#45;&gt;Node12 -->
<g id="edge11_Node000001_Node000012" class="edge">
<title>Node1&#45;&gt;Node12</title>
<g id="a_edge11_Node000001_Node000012"><a xlink:title=" ">
<path fill="none" stroke="#63b8ff" d="M627.71,-144.91C619.29,-145.99 610.68,-147.11 602.18,-148.2"/>
<polygon fill="#63b8ff" stroke="#63b8ff" points="628.41,-148.35 637.88,-143.6 627.51,-141.41 628.41,-148.35"/>
</a>
</g>
</g>
<!-- Node14 -->
<g id="Node000014" class="node">
<title>Node14</title>
<g id="a_Node000014"><a xlink:href="../../d9/d9b/classapplication_1_1log_1_1Log.html#a5a59c8f546a45aca98a1f1ead2da3cd6" target="_top" xlink:title="Wait for the logger to start. External use.">
<polygon fill="white" stroke="#666666" points="575,-78 460,-78 460,-48 575,-48 575,-78"/>
<text text-anchor="start" x="468" y="-66" font-family="Helvetica,sans-Serif" font-size="10.00">application::log::Log</text>
<text text-anchor="middle" x="517.5" y="-55" font-family="Helvetica,sans-Serif" font-size="10.00">::waitToStart</text>
</a>
</g>
</g>
<!-- Node1&#45;&gt;Node14 -->
<g id="edge14_Node000001_Node000014" class="edge">
<title>Node1&#45;&gt;Node14</title>
<g id="a_edge14_Node000001_Node000014"><a xlink:title=" ">
<path fill="none" stroke="#63b8ff" d="M666.21,-115.31C647.2,-105.99 623.72,-95.15 602,-87 593.39,-83.77 584.14,-80.71 575.04,-77.94"/>
<polygon fill="#63b8ff" stroke="#63b8ff" points="664.91,-118.57 675.43,-119.88 668.02,-112.3 664.91,-118.57"/>
</a>
</g>
</g>
<!-- Node15 -->
<g id="Node000015" class="node">
<title>Node15</title>
<g id="a_Node000015"><a xlink:href="../../d5/dbb/classapplication_1_1view_1_1View.html#a2d9f3d212d3478879cf300c0e5978c89" target="_top" xlink:title="Wait for the viewer to start. External use.">
<polygon fill="white" stroke="#666666" points="570,-30 465,-30 465,0 570,0 570,-30"/>
<text text-anchor="start" x="473" y="-18" font-family="Helvetica,sans-Serif" font-size="10.00">application::view::</text>
<text text-anchor="middle" x="517.5" y="-7" font-family="Helvetica,sans-Serif" font-size="10.00">View::waitToStart</text>
</a>
</g>
</g>
<!-- Node1&#45;&gt;Node15 -->
<g id="edge15_Node000001_Node000015" class="edge">
<title>Node1&#45;&gt;Node15</title>
<g id="a_edge15_Node000001_Node000015"><a xlink:title=" ">
<path fill="none" stroke="#63b8ff" d="M685.61,-111.86C666.63,-90.06 635.47,-58 602,-39 592.29,-33.49 581.22,-29.16 570.38,-25.79"/>
<polygon fill="#63b8ff" stroke="#63b8ff" points="683.11,-114.32 692.26,-119.66 688.44,-109.78 683.11,-114.32"/>
</a>
</g>
</g>
<!-- Node3 -->
<g id="Node000003" class="node">
<title>Node3</title>
<g id="a_Node000003"><a xlink:href="../../de/dd7/classapplication_1_1command_1_1Command.html#a5d2584a4ee3f7e91ec82649f91b3b810" target="_top" xlink:title="Interface for running commander.">
<polygon fill="white" stroke="#666666" points="155,-217 0,-217 0,-187 155,-187 155,-217"/>
<text text-anchor="start" x="8" y="-205" font-family="Helvetica,sans-Serif" font-size="10.00">application::command</text>
<text text-anchor="middle" x="77.5" y="-194" font-family="Helvetica,sans-Serif" font-size="10.00">::Command::runCommander</text>
</a>
</g>
</g>
<!-- Node2&#45;&gt;Node3 -->
<g id="edge2_Node000002_Node000003" class="edge">
<title>Node2&#45;&gt;Node3</title>
<g id="a_edge2_Node000002_Node000003"><a xlink:title=" ">
<path fill="none" stroke="#63b8ff" d="M198.79,-202C184.18,-202 169.24,-202 155.08,-202"/>
<polygon fill="#63b8ff" stroke="#63b8ff" points="198.84,-205.5 208.84,-202 198.84,-198.5 198.84,-205.5"/>
</a>
</g>
</g>
<!-- Node5 -->
<g id="Node000005" class="node">
<title>Node5</title>
<g id="a_Node000005"><a xlink:href="../../d5/dbb/classapplication_1_1view_1_1View.html#ad9cddd788ab4701fb35dfab0ee722daf" target="_top" xlink:title="Build the TLV packet to get bash outputs.">
<polygon fill="white" stroke="#666666" points="368.5,-361 219.5,-361 219.5,-331 368.5,-331 368.5,-361"/>
<text text-anchor="start" x="227.5" y="-349" font-family="Helvetica,sans-Serif" font-size="10.00">application::view::</text>
<text text-anchor="middle" x="294" y="-338" font-family="Helvetica,sans-Serif" font-size="10.00">View::buildTLVPacket2Bash</text>
</a>
</g>
</g>
<!-- Node4&#45;&gt;Node5 -->
<g id="edge4_Node000004_Node000005" class="edge">
<title>Node4&#45;&gt;Node5</title>
<g id="a_edge4_Node000004_Node000005"><a xlink:title=" ">
<path fill="none" stroke="#63b8ff" d="M473.72,-293.01C451.19,-302.55 422.92,-313.79 397,-322 386.77,-325.24 375.83,-328.26 365.06,-330.99"/>
<polygon fill="#63b8ff" stroke="#63b8ff" points="475.18,-296.19 483,-289.04 472.43,-289.75 475.18,-296.19"/>
</a>
</g>
</g>
<!-- Node6 -->
<g id="Node000006" class="node">
<title>Node6</title>
<g id="a_Node000006"><a xlink:href="../../d5/dbb/classapplication_1_1view_1_1View.html#a381fe394fde0c8c2d113c9f2419fe42f" target="_top" xlink:title="Build the TLV packet to view log contents.">
<polygon fill="white" stroke="#666666" points="373,-313 215,-313 215,-283 373,-283 373,-313"/>
<text text-anchor="start" x="223" y="-301" font-family="Helvetica,sans-Serif" font-size="10.00">application::view::</text>
<text text-anchor="middle" x="294" y="-290" font-family="Helvetica,sans-Serif" font-size="10.00">View::buildTLVPacket2Journal</text>
</a>
</g>
</g>
<!-- Node4&#45;&gt;Node6 -->
<g id="edge5_Node000004_Node000006" class="edge">
<title>Node4&#45;&gt;Node6</title>
<g id="a_edge5_Node000004_Node000006"><a xlink:title=" ">
<path fill="none" stroke="#63b8ff" d="M441.01,-282.18C419.1,-284.55 395.15,-287.15 373.09,-289.54"/>
<polygon fill="#63b8ff" stroke="#63b8ff" points="441.68,-285.63 451.24,-281.07 440.92,-278.67 441.68,-285.63"/>
</a>
</g>
</g>
<!-- Node7 -->
<g id="Node000007" class="node">
<title>Node7</title>
<g id="a_Node000007"><a xlink:href="../../d5/dbb/classapplication_1_1view_1_1View.html#a6b0cb8bf6198cc407906d81bdc6f0ffb" target="_top" xlink:title="Build the TLV packet to show status information.">
<polygon fill="white" stroke="#666666" points="375,-265 213,-265 213,-235 375,-235 375,-265"/>
<text text-anchor="start" x="221" y="-253" font-family="Helvetica,sans-Serif" font-size="10.00">application::view::</text>
<text text-anchor="middle" x="294" y="-242" font-family="Helvetica,sans-Serif" font-size="10.00">View::buildTLVPacket2Monitor</text>
</a>
</g>
</g>
<!-- Node4&#45;&gt;Node7 -->
<g id="edge6_Node000004_Node000007" class="edge">
<title>Node4&#45;&gt;Node7</title>
<g id="a_edge6_Node000004_Node000007"><a xlink:title=" ">
<path fill="none" stroke="#63b8ff" d="M441.28,-265.85C419.96,-263.54 396.68,-261.02 375.09,-258.68"/>
<polygon fill="#63b8ff" stroke="#63b8ff" points="440.92,-269.33 451.24,-266.93 441.68,-262.37 440.92,-269.33"/>
</a>
</g>
</g>
<!-- Node9 -->
<g id="Node000009" class="node">
<title>Node9</title>
<g id="a_Node000009"><a xlink:href="../../d5/dbb/classapplication_1_1view_1_1View.html#a90ba206204d63a2c6d2fbfc957dcdae6" target="_top" xlink:title="Parse the TLV packet.">
<polygon fill="white" stroke="#666666" points="355,-121 233,-121 233,-91 355,-91 355,-121"/>
<text text-anchor="start" x="241" y="-109" font-family="Helvetica,sans-Serif" font-size="10.00">application::view::</text>
<text text-anchor="middle" x="294" y="-98" font-family="Helvetica,sans-Serif" font-size="10.00">View::parseTLVPacket</text>
</a>
</g>
</g>
<!-- Node8&#45;&gt;Node9 -->
<g id="edge8_Node000008_Node000009" class="edge">
<title>Node8&#45;&gt;Node9</title>
<g id="a_edge8_Node000008_Node000009"><a xlink:title=" ">
<path fill="none" stroke="#63b8ff" d="M435.76,-109.18C409.19,-108.58 380.13,-107.92 355.35,-107.36"/>
<polygon fill="#63b8ff" stroke="#63b8ff" points="435.73,-112.68 445.81,-109.4 435.89,-105.68 435.73,-112.68"/>
</a>
</g>
</g>
<!-- Node10 -->
<g id="Node000010" class="node">
<title>Node10</title>
<g id="a_Node000010"><a xlink:href="../../d9/d4a/namespaceapplication_1_1command.html#a64dbe67371e9d51f5d632764647739e3" target="_top" xlink:title="Launch the TCP client for console mode.">
<polygon fill="white" stroke="#666666" points="140,-88.5 15,-88.5 15,-47.5 140,-47.5 140,-88.5"/>
<text text-anchor="start" x="23" y="-76.5" font-family="Helvetica,sans-Serif" font-size="10.00">application::command</text>
<text text-anchor="start" x="23" y="-65.5" font-family="Helvetica,sans-Serif" font-size="10.00">::launchClient&lt; utility</text>
<text text-anchor="middle" x="77.5" y="-54.5" font-family="Helvetica,sans-Serif" font-size="10.00">::socket::TCPSocket &gt;</text>
</a>
</g>
</g>
<!-- Node9&#45;&gt;Node10 -->
<g id="edge9_Node000009_Node000010" class="edge">
<title>Node9&#45;&gt;Node10</title>
<g id="a_edge9_Node000009_Node000010"><a xlink:title=" ">
<path fill="none" stroke="#63b8ff" d="M222.9,-93.58C196.16,-88.84 165.9,-83.48 140.01,-78.9"/>
<polygon fill="#63b8ff" stroke="#63b8ff" points="222.51,-97.07 232.96,-95.36 223.73,-90.17 222.51,-97.07"/>
</a>
</g>
</g>
<!-- Node11 -->
<g id="Node000011" class="node">
<title>Node11</title>
<g id="a_Node000011"><a xlink:href="../../d9/d4a/namespaceapplication_1_1command.html#a99ba246b4327e67bf754280c86994921" target="_top" xlink:title="Launch the UDP client for console mode.">
<polygon fill="white" stroke="#666666" points="140,-147.5 15,-147.5 15,-106.5 140,-106.5 140,-147.5"/>
<text text-anchor="start" x="23" y="-135.5" font-family="Helvetica,sans-Serif" font-size="10.00">application::command</text>
<text text-anchor="start" x="23" y="-124.5" font-family="Helvetica,sans-Serif" font-size="10.00">::launchClient&lt; utility</text>
<text text-anchor="middle" x="77.5" y="-113.5" font-family="Helvetica,sans-Serif" font-size="10.00">::socket::UDPSocket &gt;</text>
</a>
</g>
</g>
<!-- Node9&#45;&gt;Node11 -->
<g id="edge10_Node000009_Node000011" class="edge">
<title>Node9&#45;&gt;Node11</title>
<g id="a_edge10_Node000009_Node000011"><a xlink:title=" ">
<path fill="none" stroke="#63b8ff" d="M222.9,-112.86C196.16,-115.48 165.9,-118.44 140.01,-120.98"/>
<polygon fill="#63b8ff" stroke="#63b8ff" points="223.35,-116.34 232.96,-111.88 222.67,-109.37 223.35,-116.34"/>
</a>
</g>
</g>
<!-- Node12&#45;&gt;Node2 -->
<g id="edge12_Node000012_Node000002" class="edge">
<title>Node12&#45;&gt;Node2</title>
<g id="a_edge12_Node000012_Node000002"><a xlink:title=" ">
<path fill="none" stroke="#63b8ff" d="M429.05,-175.98C410.35,-179.61 390.72,-183.42 372.43,-186.97"/>
<polygon fill="#63b8ff" stroke="#63b8ff" points="429.88,-179.38 439.03,-174.04 428.55,-172.51 429.88,-179.38"/>
</a>
</g>
</g>
<!-- Node13 -->
<g id="Node000013" class="node">
<title>Node13</title>
<g id="a_Node000013"><a xlink:href="../../de/dd7/classapplication_1_1command_1_1Command.html#aee416554141b9470166d1852526f93ea" target="_top" xlink:title="Execute the command line of console mode.">
<polygon fill="white" stroke="#666666" points="397,-169 191,-169 191,-139 397,-139 397,-169"/>
<text text-anchor="start" x="199" y="-157" font-family="Helvetica,sans-Serif" font-size="10.00">application::command</text>
<text text-anchor="middle" x="294" y="-146" font-family="Helvetica,sans-Serif" font-size="10.00">::Command::executeConsoleCommand</text>
</a>
</g>
</g>
<!-- Node12&#45;&gt;Node13 -->
<g id="edge13_Node000012_Node000013" class="edge">
<title>Node12&#45;&gt;Node13</title>
<g id="a_edge13_Node000012_Node000013"><a xlink:title=" ">
<path fill="none" stroke="#63b8ff" d="M422.57,-156.88C414.16,-156.69 405.61,-156.5 397.13,-156.31"/>
<polygon fill="#63b8ff" stroke="#63b8ff" points="422.68,-160.38 432.76,-157.11 422.84,-153.38 422.68,-160.38"/>
</a>
</g>
</g>
</g>
</svg>
