<?xml version="1.0" encoding="UTF-8" standalone="no"?>
<!DOCTYPE svg PUBLIC "-//W3C//DTD SVG 1.1//EN"
 "http://www.w3.org/Graphics/SVG/1.1/DTD/svg11.dtd">
<!-- Generated by graphviz version 2.43.0 (0)
 -->
<!-- Title: application::app_algo::match::TargetBuilder::calculatePrecision Pages: 1 -->
<svg width="452pt" height="49pt"
 viewBox="0.00 0.00 452.00 49.00" xmlns="http://www.w3.org/2000/svg" xmlns:xlink="http://www.w3.org/1999/xlink">
<g id="graph0" class="graph" transform="scale(1 1) rotate(0) translate(4 45)">
<title>application::app_algo::match::TargetBuilder::calculatePrecision</title>
<!-- Node1 -->
<g id="Node000001" class="node">
<title>Node1</title>
<g id="a_Node000001"><a xlink:title="Calculate precision by digit.">
<polygon fill="#999999" stroke="#666666" points="444,-41 320,-41 320,0 444,0 444,-41"/>
<text text-anchor="start" x="328" y="-29" font-family="Helvetica,sans-Serif" font-size="10.00">application::app_algo</text>
<text text-anchor="start" x="328" y="-18" font-family="Helvetica,sans-Serif" font-size="10.00">::match::TargetBuilder</text>
<text text-anchor="middle" x="382" y="-7" font-family="Helvetica,sans-Serif" font-size="10.00">::calculatePrecision</text>
</a>
</g>
</g>
<!-- Node2 -->
<g id="Node000002" class="node">
<title>Node2</title>
<g id="a_Node000002"><a xlink:href="../../d7/d15/classapplication_1_1app__algo_1_1match_1_1TargetBuilder.html#a16274237692280755bed07b41ed6733b" target="_top" xlink:title="Create the matching text.">
<polygon fill="white" stroke="#666666" points="284,-41 160,-41 160,0 284,0 284,-41"/>
<text text-anchor="start" x="168" y="-29" font-family="Helvetica,sans-Serif" font-size="10.00">application::app_algo</text>
<text text-anchor="start" x="168" y="-18" font-family="Helvetica,sans-Serif" font-size="10.00">::match::TargetBuilder</text>
<text text-anchor="middle" x="222" y="-7" font-family="Helvetica,sans-Serif" font-size="10.00">::createMatchingText</text>
</a>
</g>
</g>
<!-- Node1&#45;&gt;Node2 -->
<g id="edge1_Node000001_Node000002" class="edge">
<title>Node1&#45;&gt;Node2</title>
<g id="a_edge1_Node000001_Node000002"><a xlink:title=" ">
<path fill="none" stroke="#63b8ff" d="M309.63,-20.5C301.14,-20.5 292.52,-20.5 284.18,-20.5"/>
<polygon fill="#63b8ff" stroke="#63b8ff" points="309.91,-24 319.91,-20.5 309.91,-17 309.91,-24"/>
</a>
</g>
</g>
<!-- Node3 -->
<g id="Node000003" class="node">
<title>Node3</title>
<g id="a_Node000003"><a xlink:href="../../d7/d15/classapplication_1_1app__algo_1_1match_1_1TargetBuilder.html#ac0b78ce00ea2d9f931e5bb3ee1c3dc3f" target="_top" xlink:title="Construct a new TargetBuilder object.">
<polygon fill="white" stroke="#666666" points="124,-41 0,-41 0,0 124,0 124,-41"/>
<text text-anchor="start" x="8" y="-29" font-family="Helvetica,sans-Serif" font-size="10.00">application::app_algo</text>
<text text-anchor="start" x="8" y="-18" font-family="Helvetica,sans-Serif" font-size="10.00">::match::TargetBuilder</text>
<text text-anchor="middle" x="62" y="-7" font-family="Helvetica,sans-Serif" font-size="10.00">::TargetBuilder</text>
</a>
</g>
</g>
<!-- Node2&#45;&gt;Node3 -->
<g id="edge2_Node000002_Node000003" class="edge">
<title>Node2&#45;&gt;Node3</title>
<g id="a_edge2_Node000002_Node000003"><a xlink:title=" ">
<path fill="none" stroke="#63b8ff" d="M149.63,-20.5C141.14,-20.5 132.52,-20.5 124.18,-20.5"/>
<polygon fill="#63b8ff" stroke="#63b8ff" points="149.91,-24 159.91,-20.5 149.91,-17 149.91,-24"/>
</a>
</g>
</g>
</g>
</svg>
