<?xml version="1.0" encoding="UTF-8" standalone="no"?>
<!DOCTYPE svg PUBLIC "-//W3C//DTD SVG 1.1//EN"
 "http://www.w3.org/Graphics/SVG/1.1/DTD/svg11.dtd">
<!-- Generated by graphviz version 2.43.0 (0)
 -->
<!-- Title: design_pattern::structural::facade::output Pages: 1 -->
<svg width="378pt" height="134pt"
 viewBox="0.00 0.00 378.00 134.00" xmlns="http://www.w3.org/2000/svg" xmlns:xlink="http://www.w3.org/1999/xlink">
<g id="graph0" class="graph" transform="scale(1 1) rotate(0) translate(4 130)">
<title>design_pattern::structural::facade::output</title>
<!-- Node1 -->
<g id="Node000001" class="node">
<title>Node1</title>
<g id="a_Node000001"><a xlink:title="Output stream for the facade pattern. Need to be cleared manually.">
<polygon fill="#999999" stroke="#666666" points="370,-78 228,-78 228,-48 370,-48 370,-78"/>
<text text-anchor="start" x="236" y="-66" font-family="Helvetica,sans-Serif" font-size="10.00">design_pattern::structural</text>
<text text-anchor="middle" x="299" y="-55" font-family="Helvetica,sans-Serif" font-size="10.00">::facade::output</text>
</a>
</g>
</g>
<!-- Node2 -->
<g id="Node000002" class="node">
<title>Node2</title>
<g id="a_Node000002"><a xlink:href="../../dd/dc3/classdesign__pattern_1_1structural_1_1facade_1_1SubsystemA.html#a8dd3c77dbc8bea21f4adda3c3960bf4a" target="_top" xlink:title="The sub&#45;operation.">
<polygon fill="white" stroke="#666666" points="192,-126 0,-126 0,-96 192,-96 192,-126"/>
<text text-anchor="start" x="8" y="-114" font-family="Helvetica,sans-Serif" font-size="10.00">design_pattern::structural</text>
<text text-anchor="middle" x="96" y="-103" font-family="Helvetica,sans-Serif" font-size="10.00">::facade::SubsystemA::suboperation</text>
</a>
</g>
</g>
<!-- Node1&#45;&gt;Node2 -->
<g id="edge1_Node000001_Node000002" class="edge">
<title>Node1&#45;&gt;Node2</title>
<g id="a_edge1_Node000001_Node000002"><a xlink:title=" ">
<path fill="none" stroke="#63b8ff" d="M224.96,-80.44C203.62,-85.54 180.48,-91.07 159.82,-96"/>
<polygon fill="#63b8ff" stroke="#63b8ff" points="226.04,-83.78 234.95,-78.06 224.41,-76.97 226.04,-83.78"/>
</a>
</g>
</g>
<!-- Node3 -->
<g id="Node000003" class="node">
<title>Node3</title>
<g id="a_Node000003"><a xlink:href="../../de/de4/classdesign__pattern_1_1structural_1_1facade_1_1SubsystemB.html#a799af5e707d64357e633dac7221889d1" target="_top" xlink:title="The sub&#45;operation.">
<polygon fill="white" stroke="#666666" points="192,-78 0,-78 0,-48 192,-48 192,-78"/>
<text text-anchor="start" x="8" y="-66" font-family="Helvetica,sans-Serif" font-size="10.00">design_pattern::structural</text>
<text text-anchor="middle" x="96" y="-55" font-family="Helvetica,sans-Serif" font-size="10.00">::facade::SubsystemB::suboperation</text>
</a>
</g>
</g>
<!-- Node1&#45;&gt;Node3 -->
<g id="edge2_Node000001_Node000003" class="edge">
<title>Node1&#45;&gt;Node3</title>
<g id="a_edge2_Node000001_Node000003"><a xlink:title=" ">
<path fill="none" stroke="#63b8ff" d="M217.83,-63C209.41,-63 200.79,-63 192.23,-63"/>
<polygon fill="#63b8ff" stroke="#63b8ff" points="217.98,-66.5 227.98,-63 217.98,-59.5 217.98,-66.5"/>
</a>
</g>
</g>
<!-- Node4 -->
<g id="Node000004" class="node">
<title>Node4</title>
<g id="a_Node000004"><a xlink:href="../../df/d4d/classdesign__pattern_1_1structural_1_1facade_1_1SubsystemC.html#a6b9d75643305d2290ed9845e32ed15a8" target="_top" xlink:title="The sub&#45;operation.">
<polygon fill="white" stroke="#666666" points="192,-30 0,-30 0,0 192,0 192,-30"/>
<text text-anchor="start" x="8" y="-18" font-family="Helvetica,sans-Serif" font-size="10.00">design_pattern::structural</text>
<text text-anchor="middle" x="96" y="-7" font-family="Helvetica,sans-Serif" font-size="10.00">::facade::SubsystemC::suboperation</text>
</a>
</g>
</g>
<!-- Node1&#45;&gt;Node4 -->
<g id="edge3_Node000001_Node000004" class="edge">
<title>Node1&#45;&gt;Node4</title>
<g id="a_edge3_Node000001_Node000004"><a xlink:title=" ">
<path fill="none" stroke="#63b8ff" d="M224.96,-45.56C203.62,-40.46 180.48,-34.93 159.82,-30"/>
<polygon fill="#63b8ff" stroke="#63b8ff" points="224.41,-49.03 234.95,-47.94 226.04,-42.22 224.41,-49.03"/>
</a>
</g>
</g>
</g>
</svg>
