<?xml version="1.0" encoding="UTF-8" standalone="no"?>
<!DOCTYPE svg PUBLIC "-//W3C//DTD SVG 1.1//EN"
 "http://www.w3.org/Graphics/SVG/1.1/DTD/svg11.dtd">
<!-- Generated by graphviz version 2.43.0 (0)
 -->
<!-- Title: application::app_ds::tree::Tree::avl Pages: 1 -->
<svg width="268pt" height="86pt"
 viewBox="0.00 0.00 268.00 86.00" xmlns="http://www.w3.org/2000/svg" xmlns:xlink="http://www.w3.org/1999/xlink">
<g id="graph0" class="graph" transform="scale(1 1) rotate(0) translate(4 82)">
<title>application::app_ds::tree::Tree::avl</title>
<!-- Node1 -->
<g id="Node000001" class="node">
<title>Node1</title>
<g id="a_Node000001"><a xlink:title="Adelson&#45;Velsky&#45;Landis.">
<polygon fill="#999999" stroke="#666666" points="260,-48.5 149,-48.5 149,-18.5 260,-18.5 260,-48.5"/>
<text text-anchor="start" x="157" y="-36.5" font-family="Helvetica,sans-Serif" font-size="10.00">application::app_ds</text>
<text text-anchor="middle" x="204.5" y="-25.5" font-family="Helvetica,sans-Serif" font-size="10.00">::tree::Tree::avl</text>
</a>
</g>
</g>
<!-- Node1&#45;&gt;Node1 -->
<g id="edge1_Node000001_Node000001" class="edge">
<title>Node1&#45;&gt;Node1</title>
<g id="a_edge1_Node000001_Node000001"><a xlink:title=" ">
<path fill="none" stroke="#63b8ff" d="M230.41,-59.1C226.87,-63.47 218.23,-66.5 204.5,-66.5 181.38,-66.5 172.7,-57.91 178.48,-48.78"/>
<polygon fill="#63b8ff" stroke="#63b8ff" points="233.91,-58.81 230.52,-48.78 226.91,-58.74 233.91,-58.81"/>
</a>
</g>
</g>
<!-- Node2 -->
<g id="Node000002" class="node">
<title>Node2</title>
<g id="a_Node000002"><a xlink:href="../../d8/dab/classapplication_1_1app__ds_1_1tree_1_1TreeStructure.html#ac93f77b902184f1f71db2ce4eca16c40" target="_top" xlink:title="The Adelson&#45;Velsky&#45;Landis instance.">
<polygon fill="white" stroke="#666666" points="113,-78 0,-78 0,-37 113,-37 113,-78"/>
<text text-anchor="start" x="8" y="-66" font-family="Helvetica,sans-Serif" font-size="10.00">application::app_ds</text>
<text text-anchor="start" x="8" y="-55" font-family="Helvetica,sans-Serif" font-size="10.00">::tree::TreeStructure</text>
<text text-anchor="middle" x="56.5" y="-44" font-family="Helvetica,sans-Serif" font-size="10.00">::avlInstance</text>
</a>
</g>
</g>
<!-- Node1&#45;&gt;Node2 -->
<g id="edge2_Node000001_Node000002" class="edge">
<title>Node1&#45;&gt;Node2</title>
<g id="a_edge2_Node000001_Node000002"><a xlink:title=" ">
<path fill="none" stroke="#63b8ff" d="M138.76,-44.14C130.19,-45.55 121.47,-46.98 113.07,-48.36"/>
<polygon fill="#63b8ff" stroke="#63b8ff" points="139.42,-47.58 148.72,-42.5 138.28,-40.67 139.42,-47.58"/>
</a>
</g>
</g>
<!-- Node3 -->
<g id="Node000003" class="node">
<title>Node3</title>
<g id="a_Node000003"><a xlink:href="../../d4/db9/namespacetest_1_1tst__ds.html#a03dfd4ff3797361902819c549f11ff7d" target="_top" xlink:title="Test for the Adelson&#45;Velsky&#45;Landis instance in the structure of tree.">
<polygon fill="white" stroke="#666666" points="112.5,-19 0.5,-19 0.5,0 112.5,0 112.5,-19"/>
<text text-anchor="middle" x="56.5" y="-7" font-family="Helvetica,sans-Serif" font-size="10.00">test::tst_ds::TEST_F</text>
</a>
</g>
</g>
<!-- Node1&#45;&gt;Node3 -->
<g id="edge3_Node000001_Node000003" class="edge">
<title>Node1&#45;&gt;Node3</title>
<g id="a_edge3_Node000001_Node000003"><a xlink:title=" ">
<path fill="none" stroke="#63b8ff" d="M138.62,-22.83C129.93,-21.41 121.09,-19.95 112.59,-18.56"/>
<polygon fill="#63b8ff" stroke="#63b8ff" points="138.28,-26.33 148.72,-24.5 139.42,-19.42 138.28,-26.33"/>
</a>
</g>
</g>
</g>
</svg>
