<?xml version="1.0" encoding="UTF-8" standalone="no"?>
<!DOCTYPE svg PUBLIC "-//W3C//DTD SVG 1.1//EN"
 "http://www.w3.org/Graphics/SVG/1.1/DTD/svg11.dtd">
<!-- Generated by graphviz version 2.43.0 (0)
 -->
<!-- Title: utility/include/currying.hpp Pages: 1 -->
<svg width="823pt" height="104pt"
 viewBox="0.00 0.00 822.50 104.00" xmlns="http://www.w3.org/2000/svg" xmlns:xlink="http://www.w3.org/1999/xlink">
<g id="graph0" class="graph" transform="scale(1 1) rotate(0) translate(4 100)">
<title>utility/include/currying.hpp</title>
<!-- Node1 -->
<g id="Node000001" class="node">
<title>Node1</title>
<g id="a_Node000001"><a xlink:title="The declarations (currying) in the utility module.">
<polygon fill="#999999" stroke="#666666" points="578,-96 431,-96 431,-77 578,-77 578,-96"/>
<text text-anchor="middle" x="504.5" y="-84" font-family="Helvetica,sans-Serif" font-size="10.00">utility/include/currying.hpp</text>
</a>
</g>
</g>
<!-- Node2 -->
<g id="Node000002" class="node">
<title>Node2</title>
<g id="a_Node000002"><a xlink:href="../../d8/d64/apply__algorithm_8cpp.html" target="_top" xlink:title="The definitions (apply_algorithm) in the application module.">
<polygon fill="white" stroke="#666666" points="155,-35.5 0,-35.5 0,-5.5 155,-5.5 155,-35.5"/>
<text text-anchor="start" x="8" y="-23.5" font-family="Helvetica,sans-Serif" font-size="10.00">application/example</text>
<text text-anchor="middle" x="77.5" y="-12.5" font-family="Helvetica,sans-Serif" font-size="10.00">/source/apply_algorithm.cpp</text>
</a>
</g>
</g>
<!-- Node1&#45;&gt;Node2 -->
<g id="edge1_Node000001_Node000002" class="edge">
<title>Node1&#45;&gt;Node2</title>
<g id="a_edge1_Node000001_Node000002"><a xlink:title=" ">
<path fill="none" stroke="#63b8ff" d="M420.97,-76.7C351.95,-68.92 251.52,-56.41 164.5,-41 155.51,-39.41 146.04,-37.51 136.79,-35.54"/>
<polygon fill="#63b8ff" stroke="#63b8ff" points="420.59,-80.18 430.92,-77.81 421.37,-73.22 420.59,-80.18"/>
</a>
</g>
</g>
<!-- Node3 -->
<g id="Node000003" class="node">
<title>Node3</title>
<g id="a_Node000003"><a xlink:href="../../d1/d3d/apply__data__structure_8cpp.html" target="_top" xlink:title="The definitions (apply_data_structure) in the application module.">
<polygon fill="white" stroke="#666666" points="351.5,-35.5 173.5,-35.5 173.5,-5.5 351.5,-5.5 351.5,-35.5"/>
<text text-anchor="start" x="181.5" y="-23.5" font-family="Helvetica,sans-Serif" font-size="10.00">application/example</text>
<text text-anchor="middle" x="262.5" y="-12.5" font-family="Helvetica,sans-Serif" font-size="10.00">/source/apply_data_structure.cpp</text>
</a>
</g>
</g>
<!-- Node1&#45;&gt;Node3 -->
<g id="edge2_Node000001_Node000003" class="edge">
<title>Node1&#45;&gt;Node3</title>
<g id="a_edge2_Node000001_Node000003"><a xlink:title=" ">
<path fill="none" stroke="#63b8ff" d="M462.22,-74.32C421.45,-63.54 359.59,-47.18 315.53,-35.52"/>
<polygon fill="#63b8ff" stroke="#63b8ff" points="461.55,-77.76 472.11,-76.94 463.34,-70.99 461.55,-77.76"/>
</a>
</g>
</g>
<!-- Node4 -->
<g id="Node000004" class="node">
<title>Node4</title>
<g id="a_Node000004"><a xlink:href="../../de/d6b/apply__design__pattern_8cpp.html" target="_top" xlink:title="The definitions (apply_design_pattern) in the application module.">
<polygon fill="white" stroke="#666666" points="489,-41 370,-41 370,0 489,0 489,-41"/>
<text text-anchor="start" x="378" y="-29" font-family="Helvetica,sans-Serif" font-size="10.00">application/example</text>
<text text-anchor="start" x="378" y="-18" font-family="Helvetica,sans-Serif" font-size="10.00">/source/apply_design</text>
<text text-anchor="middle" x="429.5" y="-7" font-family="Helvetica,sans-Serif" font-size="10.00">_pattern.cpp</text>
</a>
</g>
</g>
<!-- Node1&#45;&gt;Node4 -->
<g id="edge3_Node000001_Node000004" class="edge">
<title>Node1&#45;&gt;Node4</title>
<g id="a_edge3_Node000001_Node000004"><a xlink:title=" ">
<path fill="none" stroke="#63b8ff" d="M486.51,-70.15C476.27,-61.41 463.32,-50.36 452.36,-41.01"/>
<polygon fill="#63b8ff" stroke="#63b8ff" points="484.51,-73.04 494.39,-76.87 489.05,-67.72 484.51,-73.04"/>
</a>
</g>
</g>
<!-- Node5 -->
<g id="Node000005" class="node">
<title>Node5</title>
<g id="a_Node000005"><a xlink:href="../../d1/dee/apply__numeric_8cpp.html" target="_top" xlink:title="The definitions (apply_numeric) in the application module.">
<polygon fill="white" stroke="#666666" points="654,-35.5 507,-35.5 507,-5.5 654,-5.5 654,-35.5"/>
<text text-anchor="start" x="515" y="-23.5" font-family="Helvetica,sans-Serif" font-size="10.00">application/example</text>
<text text-anchor="middle" x="580.5" y="-12.5" font-family="Helvetica,sans-Serif" font-size="10.00">/source/apply_numeric.cpp</text>
</a>
</g>
</g>
<!-- Node1&#45;&gt;Node5 -->
<g id="edge4_Node000001_Node000005" class="edge">
<title>Node1&#45;&gt;Node5</title>
<g id="a_edge4_Node000001_Node000005"><a xlink:title=" ">
<path fill="none" stroke="#63b8ff" d="M522.65,-70.21C535.13,-59.71 551.57,-45.86 563.74,-35.62"/>
<polygon fill="#63b8ff" stroke="#63b8ff" points="520.14,-67.75 514.75,-76.87 524.65,-73.1 520.14,-67.75"/>
</a>
</g>
</g>
<!-- Node6 -->
<g id="Node000006" class="node">
<title>Node6</title>
<g id="a_Node000006"><a xlink:href="../../de/d44/currying_8tpp.html" target="_top" xlink:title="The definitions (currying) in the utility module.">
<polygon fill="white" stroke="#666666" points="814.5,-30 672.5,-30 672.5,-11 814.5,-11 814.5,-30"/>
<text text-anchor="middle" x="743.5" y="-18" font-family="Helvetica,sans-Serif" font-size="10.00">utility/source/currying.tpp</text>
</a>
</g>
</g>
<!-- Node1&#45;&gt;Node6 -->
<g id="edge5_Node000001_Node000006" class="edge">
<title>Node1&#45;&gt;Node6</title>
<g id="a_edge5_Node000001_Node000006"><a xlink:title=" ">
<path fill="none" stroke="#63b8ff" d="M541.61,-74.14C586.6,-61.53 661.72,-41.47 706.62,-30.1"/>
<polygon fill="#63b8ff" stroke="#63b8ff" points="540.62,-70.79 531.94,-76.87 542.52,-77.52 540.62,-70.79"/>
</a>
</g>
</g>
<!-- Node6&#45;&gt;Node1 -->
<g id="edge6_Node000006_Node000001" class="edge">
<title>Node6&#45;&gt;Node1</title>
<g id="a_edge6_Node000006_Node000001"><a xlink:title=" ">
<path fill="none" stroke="#63b8ff" d="M706.81,-32.74C661.83,-45.35 586.28,-65.54 541.26,-76.94"/>
<polygon fill="#63b8ff" stroke="#63b8ff" points="707.79,-36.1 716.47,-30.01 705.89,-29.36 707.79,-36.1"/>
</a>
</g>
</g>
</g>
</svg>
