<?xml version="1.0" encoding="UTF-8" standalone="no"?>
<!DOCTYPE svg PUBLIC "-//W3C//DTD SVG 1.1//EN"
 "http://www.w3.org/Graphics/SVG/1.1/DTD/svg11.dtd">
<!-- Generated by graphviz version 2.43.0 (0)
 -->
<!-- Title: application::app_dp::structural::Structural::proxy Pages: 1 -->
<svg width="323pt" height="86pt"
 viewBox="0.00 0.00 323.00 86.00" xmlns="http://www.w3.org/2000/svg" xmlns:xlink="http://www.w3.org/1999/xlink">
<g id="graph0" class="graph" transform="scale(1 1) rotate(0) translate(4 82)">
<title>application::app_dp::structural::Structural::proxy</title>
<!-- Node1 -->
<g id="Node000001" class="node">
<title>Node1</title>
<g id="a_Node000001"><a xlink:title="Proxy.">
<polygon fill="#999999" stroke="#666666" points="315,-54 193,-54 193,-13 315,-13 315,-54"/>
<text text-anchor="start" x="201" y="-42" font-family="Helvetica,sans-Serif" font-size="10.00">application::app_dp</text>
<text text-anchor="start" x="201" y="-31" font-family="Helvetica,sans-Serif" font-size="10.00">::structural::Structural</text>
<text text-anchor="middle" x="254" y="-20" font-family="Helvetica,sans-Serif" font-size="10.00">::proxy</text>
</a>
</g>
</g>
<!-- Node1&#45;&gt;Node1 -->
<g id="edge1_Node000001_Node000001" class="edge">
<title>Node1&#45;&gt;Node1</title>
<g id="a_edge1_Node000001_Node000001"><a xlink:title=" ">
<path fill="none" stroke="#63b8ff" d="M283.94,-63.96C279.48,-68.74 269.51,-72 254,-72 229.19,-72 218.53,-63.65 222.02,-54.1"/>
<polygon fill="#63b8ff" stroke="#63b8ff" points="287.38,-64.6 285.98,-54.1 280.52,-63.18 287.38,-64.6"/>
</a>
</g>
</g>
<!-- Node2 -->
<g id="Node000002" class="node">
<title>Node2</title>
<g id="a_Node000002"><a xlink:href="../../d5/d1d/classapplication_1_1app__dp_1_1structural_1_1StructuralPattern.html#a603daec2ed8de2041972af2ca245863a" target="_top" xlink:title="The proxy instance.">
<polygon fill="white" stroke="#666666" points="157,-78 0,-78 0,-37 157,-37 157,-78"/>
<text text-anchor="start" x="8" y="-66" font-family="Helvetica,sans-Serif" font-size="10.00">application::app_dp</text>
<text text-anchor="start" x="8" y="-55" font-family="Helvetica,sans-Serif" font-size="10.00">::structural::StructuralPattern</text>
<text text-anchor="middle" x="78.5" y="-44" font-family="Helvetica,sans-Serif" font-size="10.00">::proxyInstance</text>
</a>
</g>
</g>
<!-- Node1&#45;&gt;Node2 -->
<g id="edge2_Node000001_Node000002" class="edge">
<title>Node1&#45;&gt;Node2</title>
<g id="a_edge2_Node000001_Node000002"><a xlink:title=" ">
<path fill="none" stroke="#63b8ff" d="M182.64,-43.23C174.2,-44.4 165.54,-45.6 157.01,-46.78"/>
<polygon fill="#63b8ff" stroke="#63b8ff" points="183.38,-46.66 192.81,-41.83 182.42,-39.73 183.38,-46.66"/>
</a>
</g>
</g>
<!-- Node3 -->
<g id="Node000003" class="node">
<title>Node3</title>
<g id="a_Node000003"><a xlink:href="../../d5/ddd/namespacetest_1_1tst__dp.html#a1802008e3fd5f3bc09d598a32bf5cb07" target="_top" xlink:title="Test for the proxy instance in the pattern of structural.">
<polygon fill="white" stroke="#666666" points="135,-19 22,-19 22,0 135,0 135,-19"/>
<text text-anchor="middle" x="78.5" y="-7" font-family="Helvetica,sans-Serif" font-size="10.00">test::tst_dp::TEST_F</text>
</a>
</g>
</g>
<!-- Node1&#45;&gt;Node3 -->
<g id="edge3_Node000001_Node000003" class="edge">
<title>Node1&#45;&gt;Node3</title>
<g id="a_edge3_Node000001_Node000003"><a xlink:title=" ">
<path fill="none" stroke="#63b8ff" d="M182.57,-23.76C166.81,-21.58 150.3,-19.29 135.22,-17.21"/>
<polygon fill="#63b8ff" stroke="#63b8ff" points="182.42,-27.27 192.81,-25.17 183.38,-20.34 182.42,-27.27"/>
</a>
</g>
</g>
</g>
</svg>
