<?xml version="1.0" encoding="UTF-8" standalone="no"?>
<!DOCTYPE svg PUBLIC "-//W3C//DTD SVG 1.1//EN"
 "http://www.w3.org/Graphics/SVG/1.1/DTD/svg11.dtd">
<!-- Generated by graphviz version 2.43.0 (0)
 -->
<!-- Title: design_pattern::creational::builder::Builder Pages: 1 -->
<svg width="335pt" height="86pt"
 viewBox="0.00 0.00 335.00 86.00" xmlns="http://www.w3.org/2000/svg" xmlns:xlink="http://www.w3.org/1999/xlink">
<g id="graph0" class="graph" transform="scale(1 1) rotate(0) translate(4 82)">
<title>design_pattern::creational::builder::Builder</title>
<!-- Node1 -->
<g id="Node000001" class="node">
<title>Node1</title>
<g id="a_Node000001"><a xlink:title="The builder for creating products.">
<polygon fill="#999999" stroke="#666666" points="144,-54 0,-54 0,-24 144,-24 144,-54"/>
<text text-anchor="start" x="8" y="-42" font-family="Helvetica,sans-Serif" font-size="10.00">design_pattern::creational</text>
<text text-anchor="middle" x="72" y="-31" font-family="Helvetica,sans-Serif" font-size="10.00">::builder::Builder</text>
</a>
</g>
</g>
<!-- Node2 -->
<g id="Node000002" class="node">
<title>Node2</title>
<g id="a_Node000002"><a xlink:href="../../da/da9/classdesign__pattern_1_1creational_1_1builder_1_1ConcreteBuilderX.html" target="_top" xlink:title="The concrete builder.">
<polygon fill="white" stroke="#666666" points="327,-78 180,-78 180,-48 327,-48 327,-78"/>
<text text-anchor="start" x="188" y="-66" font-family="Helvetica,sans-Serif" font-size="10.00">design_pattern::creational</text>
<text text-anchor="middle" x="253.5" y="-55" font-family="Helvetica,sans-Serif" font-size="10.00">::builder::ConcreteBuilderX</text>
</a>
</g>
</g>
<!-- Node1&#45;&gt;Node2 -->
<g id="edge1_Node000001_Node000002" class="edge">
<title>Node1&#45;&gt;Node2</title>
<g id="a_edge1_Node000001_Node000002"><a xlink:title=" ">
<path fill="none" stroke="#63b8ff" d="M154.2,-49.86C162.77,-51 171.45,-52.16 179.91,-53.3"/>
<polygon fill="#63b8ff" stroke="#63b8ff" points="154.58,-46.38 144.2,-48.52 153.65,-53.31 154.58,-46.38"/>
</a>
</g>
</g>
<!-- Node3 -->
<g id="Node000003" class="node">
<title>Node3</title>
<g id="a_Node000003"><a xlink:href="../../de/d37/classdesign__pattern_1_1creational_1_1builder_1_1ConcreteBuilderY.html" target="_top" xlink:title="The concrete builder.">
<polygon fill="white" stroke="#666666" points="326.5,-30 180.5,-30 180.5,0 326.5,0 326.5,-30"/>
<text text-anchor="start" x="188.5" y="-18" font-family="Helvetica,sans-Serif" font-size="10.00">design_pattern::creational</text>
<text text-anchor="middle" x="253.5" y="-7" font-family="Helvetica,sans-Serif" font-size="10.00">::builder::ConcreteBuilderY</text>
</a>
</g>
</g>
<!-- Node1&#45;&gt;Node3 -->
<g id="edge2_Node000001_Node000003" class="edge">
<title>Node1&#45;&gt;Node3</title>
<g id="a_edge2_Node000001_Node000003"><a xlink:title=" ">
<path fill="none" stroke="#63b8ff" d="M154.28,-28.13C162.93,-26.98 171.68,-25.81 180.21,-24.67"/>
<polygon fill="#63b8ff" stroke="#63b8ff" points="153.65,-24.69 144.2,-29.48 154.58,-31.62 153.65,-24.69"/>
</a>
</g>
</g>
</g>
</svg>
