<?xml version="1.0" encoding="UTF-8" standalone="no"?>
<!DOCTYPE svg PUBLIC "-//W3C//DTD SVG 1.1//EN"
 "http://www.w3.org/Graphics/SVG/1.1/DTD/svg11.dtd">
<!-- Generated by graphviz version 2.43.0 (0)
 -->
<!-- Title: design_pattern::structural::proxy::Proxy Pages: 1 -->
<svg width="693pt" height="98pt"
 viewBox="0.00 0.00 693.00 97.50" xmlns="http://www.w3.org/2000/svg" xmlns:xlink="http://www.w3.org/1999/xlink">
<g id="graph0" class="graph" transform="scale(1 1) rotate(0) translate(4 93.5)">
<title>design_pattern::structural::proxy::Proxy</title>
<!-- Node1 -->
<g id="Node000001" class="node">
<title>Node1</title>
<g id="a_Node000001"><a xlink:title="Let the proxy access the real subject.">
<polygon fill="#999999" stroke="#666666" points="685,-62.5 543,-62.5 543,-32.5 685,-32.5 685,-62.5"/>
<text text-anchor="start" x="551" y="-50.5" font-family="Helvetica,sans-Serif" font-size="10.00">design_pattern::structural</text>
<text text-anchor="middle" x="614" y="-39.5" font-family="Helvetica,sans-Serif" font-size="10.00">::proxy::Proxy</text>
</a>
</g>
</g>
<!-- Node2 -->
<g id="Node000002" class="node">
<title>Node2</title>
<g id="a_Node000002"><a xlink:href="../../dc/d5e/classdesign__pattern_1_1structural_1_1proxy_1_1Subject.html" target="_top" xlink:title="Make the proxy can be used anywhere a real subject is expected.">
<polygon fill="white" stroke="#666666" points="468,-89.5 326,-89.5 326,-59.5 468,-59.5 468,-89.5"/>
<text text-anchor="start" x="334" y="-77.5" font-family="Helvetica,sans-Serif" font-size="10.00">design_pattern::structural</text>
<text text-anchor="middle" x="397" y="-66.5" font-family="Helvetica,sans-Serif" font-size="10.00">::proxy::Subject</text>
</a>
</g>
</g>
<!-- Node2&#45;&gt;Node1 -->
<g id="edge1_Node000001_Node000002" class="edge">
<title>Node2&#45;&gt;Node1</title>
<g id="a_edge1_Node000001_Node000002"><a xlink:title=" ">
<path fill="none" stroke="#63b8ff" d="M478.1,-64.44C499.41,-61.76 522.27,-58.89 542.99,-56.29"/>
<polygon fill="#63b8ff" stroke="#63b8ff" points="477.59,-60.98 468.1,-65.7 478.46,-67.92 477.59,-60.98"/>
</a>
</g>
</g>
<!-- Node3 -->
<g id="Node000003" class="node">
<title>Node3</title>
<g id="a_Node000003"><a target="_parent" xlink:href="https://gcc.gnu.org/onlinedocs/gcc-12.3.0/libstdc++/api/a08835.html" xlink:title=" ">
<polygon fill="white" stroke="#666666" points="463.5,-41 330.5,-41 330.5,0 463.5,0 463.5,-41"/>
<text text-anchor="start" x="338.5" y="-29" font-family="Helvetica,sans-Serif" font-size="10.00">std::unique_ptr&lt; design</text>
<text text-anchor="start" x="338.5" y="-18" font-family="Helvetica,sans-Serif" font-size="10.00">_pattern::structural::</text>
<text text-anchor="middle" x="397" y="-7" font-family="Helvetica,sans-Serif" font-size="10.00">proxy::RealSubject &gt;</text>
</a>
</g>
</g>
<!-- Node3&#45;&gt;Node1 -->
<g id="edge2_Node000001_Node000003" class="edge">
<title>Node3&#45;&gt;Node1</title>
<g id="a_edge2_Node000001_Node000003"><a xlink:title=" ">
<path fill="none" stroke="#9a32cd" stroke-dasharray="5,2" d="M473.84,-30.02C496.3,-32.84 520.79,-35.92 542.88,-38.69"/>
<polygon fill="#9a32cd" stroke="#9a32cd" points="474.03,-26.52 463.68,-28.75 473.16,-33.47 474.03,-26.52"/>
</a>
</g>
<text text-anchor="middle" x="505.5" y="-39.5" font-family="Helvetica,sans-Serif" font-size="10.00" fill="grey"> subject</text>
</g>
<!-- Node4 -->
<g id="Node000004" class="node">
<title>Node4</title>
<g id="a_Node000004"><a target="_parent" xlink:href="https://gcc.gnu.org/onlinedocs/gcc-12.3.0/libstdc++/api/a08835.html" xlink:title=" ">
<polygon fill="white" stroke="#666666" points="150,-35.5 0,-35.5 0,-5.5 150,-5.5 150,-35.5"/>
<text text-anchor="start" x="8" y="-23.5" font-family="Helvetica,sans-Serif" font-size="10.00">std::unique_ptr&lt; typename</text>
<text text-anchor="middle" x="75" y="-12.5" font-family="Helvetica,sans-Serif" font-size="10.00"> _Tp, typename _Dp &gt;</text>
</a>
</g>
</g>
<!-- Node4&#45;&gt;Node3 -->
<g id="edge3_Node000003_Node000004" class="edge">
<title>Node4&#45;&gt;Node3</title>
<g id="a_edge3_Node000003_Node000004"><a xlink:title=" ">
<path fill="none" stroke="orange" stroke-dasharray="5,2" d="M160.31,-20.5C213.48,-20.5 281.15,-20.5 330.33,-20.5"/>
<polygon fill="orange" stroke="orange" points="160.22,-17 150.22,-20.5 160.22,-24 160.22,-17"/>
</a>
</g>
<text text-anchor="start" x="168" y="-34.5" font-family="Helvetica,sans-Serif" font-size="10.00" fill="grey"> &lt; design_pattern::structural</text>
<text text-anchor="middle" x="238" y="-23.5" font-family="Helvetica,sans-Serif" font-size="10.00" fill="grey">::proxy::RealSubject &gt;</text>
</g>
</g>
</svg>
