<?xml version="1.0" encoding="UTF-8" standalone="no"?>
<!DOCTYPE svg PUBLIC "-//W3C//DTD SVG 1.1//EN"
 "http://www.w3.org/Graphics/SVG/1.1/DTD/svg11.dtd">
<!-- Generated by graphviz version 2.43.0 (0)
 -->
<!-- Title: numeric::integral::Trapezoidal Pages: 1 -->
<svg width="238pt" height="115pt"
 viewBox="0.00 0.00 238.00 115.00" xmlns="http://www.w3.org/2000/svg" xmlns:xlink="http://www.w3.org/1999/xlink">
<g id="graph0" class="graph" transform="scale(1 1) rotate(0) translate(4 111)">
<title>numeric::integral::Trapezoidal</title>
<!-- Node1 -->
<g id="Node000001" class="node">
<title>Node1</title>
<g id="a_Node000001"><a xlink:title="The trapezoidal method.">
<polygon fill="#999999" stroke="#666666" points="168,-30 62,-30 62,0 168,0 168,-30"/>
<text text-anchor="start" x="70" y="-18" font-family="Helvetica,sans-Serif" font-size="10.00">numeric::integral::</text>
<text text-anchor="middle" x="115" y="-7" font-family="Helvetica,sans-Serif" font-size="10.00">Trapezoidal</text>
</a>
</g>
</g>
<!-- Node2 -->
<g id="Node000002" class="node">
<title>Node2</title>
<g id="a_Node000002"><a xlink:href="../../d9/d17/classnumeric_1_1integral_1_1Integral.html" target="_top" xlink:title="Integral methods.">
<polygon fill="white" stroke="#666666" points="106,-107 0,-107 0,-77 106,-77 106,-107"/>
<text text-anchor="start" x="8" y="-95" font-family="Helvetica,sans-Serif" font-size="10.00">numeric::integral::</text>
<text text-anchor="middle" x="53" y="-84" font-family="Helvetica,sans-Serif" font-size="10.00">Integral</text>
</a>
</g>
</g>
<!-- Node2&#45;&gt;Node1 -->
<g id="edge1_Node000001_Node000002" class="edge">
<title>Node2&#45;&gt;Node1</title>
<g id="a_edge1_Node000001_Node000002"><a xlink:title=" ">
<path fill="none" stroke="#63b8ff" d="M71.11,-69.1C81.53,-56.49 94.31,-41.03 103.39,-30.04"/>
<polygon fill="#63b8ff" stroke="#63b8ff" points="68.34,-66.96 64.66,-76.89 73.73,-71.42 68.34,-66.96"/>
</a>
</g>
</g>
<!-- Node3 -->
<g id="Node000003" class="node">
<title>Node3</title>
<g id="a_Node000003"><a xlink:href="../../dc/d59/classnumeric_1_1integral_1_1Expression.html" target="_top" xlink:title="Target expressions.">
<polygon fill="white" stroke="#666666" points="230,-107 124,-107 124,-77 230,-77 230,-107"/>
<text text-anchor="start" x="132" y="-95" font-family="Helvetica,sans-Serif" font-size="10.00">numeric::integral::</text>
<text text-anchor="middle" x="177" y="-84" font-family="Helvetica,sans-Serif" font-size="10.00">Expression</text>
</a>
</g>
</g>
<!-- Node3&#45;&gt;Node1 -->
<g id="edge2_Node000001_Node000003" class="edge">
<title>Node3&#45;&gt;Node1</title>
<g id="a_edge2_Node000001_Node000003"><a xlink:title=" ">
<path fill="none" stroke="#9a32cd" stroke-dasharray="5,2" d="M158.89,-69.1C148.47,-56.49 135.69,-41.03 126.61,-30.04"/>
<polygon fill="#9a32cd" stroke="#9a32cd" points="156.27,-71.42 165.34,-76.89 161.66,-66.96 156.27,-71.42"/>
</a>
</g>
<text text-anchor="middle" x="161.5" y="-51" font-family="Helvetica,sans-Serif" font-size="10.00" fill="grey"> expr</text>
</g>
</g>
</svg>
