<?xml version="1.0" encoding="UTF-8" standalone="no"?>
<!DOCTYPE svg PUBLIC "-//W3C//DTD SVG 1.1//EN"
 "http://www.w3.org/Graphics/SVG/1.1/DTD/svg11.dtd">
<!-- Generated by graphviz version 2.43.0 (0)
 -->
<!-- Title: algorithm/source/sort.tpp Pages: 1 -->
<svg width="334pt" height="148pt"
 viewBox="0.00 0.00 333.50 148.00" xmlns="http://www.w3.org/2000/svg" xmlns:xlink="http://www.w3.org/1999/xlink">
<g id="graph0" class="graph" transform="scale(1 1) rotate(0) translate(4 144)">
<title>algorithm/source/sort.tpp</title>
<!-- Node1 -->
<g id="Node000001" class="node">
<title>Node1</title>
<g id="a_Node000001"><a xlink:title="The definitions (sort) in the algorithm module.">
<polygon fill="#999999" stroke="#666666" points="233.5,-140 93.5,-140 93.5,-121 233.5,-121 233.5,-140"/>
<text text-anchor="middle" x="163.5" y="-128" font-family="Helvetica,sans-Serif" font-size="10.00">algorithm/source/sort.tpp</text>
</a>
</g>
</g>
<!-- Node2 -->
<g id="Node000002" class="node">
<title>Node2</title>
<g id="a_Node000002"><a xlink:href="../../d4/d54/sort_8hpp.html" target="_top" xlink:title="The declarations (sort) in the algorithm module.">
<polygon fill="white" stroke="#666666" points="236,-85 91,-85 91,-66 236,-66 236,-85"/>
<text text-anchor="middle" x="163.5" y="-73" font-family="Helvetica,sans-Serif" font-size="10.00">algorithm/include/sort.hpp</text>
</a>
</g>
</g>
<!-- Node1&#45;&gt;Node2 -->
<g id="edge1_Node000001_Node000002" class="edge">
<title>Node1&#45;&gt;Node2</title>
<g id="a_edge1_Node000001_Node000002"><a xlink:title=" ">
<path fill="none" stroke="#63b8ff" d="M157.01,-110.66C156.41,-101.93 156.86,-91.99 158.37,-85.09"/>
<polygon fill="#63b8ff" stroke="#63b8ff" points="153.56,-111.29 158.33,-120.75 160.5,-110.38 153.56,-111.29"/>
</a>
</g>
</g>
<!-- Node2&#45;&gt;Node1 -->
<g id="edge2_Node000002_Node000001" class="edge">
<title>Node2&#45;&gt;Node1</title>
<g id="a_edge2_Node000002_Node000001"><a xlink:title=" ">
<path fill="none" stroke="#63b8ff" d="M169.98,-95.13C170.6,-103.85 170.16,-113.8 168.67,-120.75"/>
<polygon fill="#63b8ff" stroke="#63b8ff" points="173.43,-94.53 168.63,-85.09 166.49,-95.47 173.43,-94.53"/>
</a>
</g>
</g>
<!-- Node3 -->
<g id="Node000003" class="node">
<title>Node3</title>
<g id="a_Node000003"><a xlink:href="../../d8/d64/apply__algorithm_8cpp.html" target="_top" xlink:title="The definitions (apply_algorithm) in the application module.">
<polygon fill="white" stroke="#666666" points="155,-30 0,-30 0,0 155,0 155,-30"/>
<text text-anchor="start" x="8" y="-18" font-family="Helvetica,sans-Serif" font-size="10.00">application/example</text>
<text text-anchor="middle" x="77.5" y="-7" font-family="Helvetica,sans-Serif" font-size="10.00">/source/apply_algorithm.cpp</text>
</a>
</g>
</g>
<!-- Node2&#45;&gt;Node3 -->
<g id="edge3_Node000002_Node000003" class="edge">
<title>Node2&#45;&gt;Node3</title>
<g id="a_edge3_Node000002_Node000003"><a xlink:title=" ">
<path fill="none" stroke="#63b8ff" d="M142.23,-60.03C128.81,-50.9 111.57,-39.17 98.25,-30.11"/>
<polygon fill="#63b8ff" stroke="#63b8ff" points="140.57,-63.14 150.81,-65.87 144.51,-57.35 140.57,-63.14"/>
</a>
</g>
</g>
<!-- Node4 -->
<g id="Node000004" class="node">
<title>Node4</title>
<g id="a_Node000004"><a xlink:href="../../df/de8/test__algorithm_8cpp.html" target="_top" xlink:title="The definitions (test_algorithm) in the test module.">
<polygon fill="white" stroke="#666666" points="325.5,-24.5 173.5,-24.5 173.5,-5.5 325.5,-5.5 325.5,-24.5"/>
<text text-anchor="middle" x="249.5" y="-12.5" font-family="Helvetica,sans-Serif" font-size="10.00">test/unit/test_algorithm.cpp</text>
</a>
</g>
</g>
<!-- Node2&#45;&gt;Node4 -->
<g id="edge4_Node000002_Node000004" class="edge">
<title>Node2&#45;&gt;Node4</title>
<g id="a_edge4_Node000002_Node000004"><a xlink:title=" ">
<path fill="none" stroke="#63b8ff" d="M184.58,-60.16C200.92,-49.05 223.02,-34.01 236.76,-24.67"/>
<polygon fill="#63b8ff" stroke="#63b8ff" points="182.49,-57.35 176.19,-65.87 186.43,-63.14 182.49,-57.35"/>
</a>
</g>
</g>
</g>
</svg>
