<?xml version="1.0" encoding="UTF-8" standalone="no"?>
<!DOCTYPE svg PUBLIC "-//W3C//DTD SVG 1.1//EN"
 "http://www.w3.org/Graphics/SVG/1.1/DTD/svg11.dtd">
<!-- Generated by graphviz version 2.43.0 (0)
 -->
<!-- Title: utility::fsm::FSM::RowBased::processEvent Pages: 1 -->
<svg width="338pt" height="134pt"
 viewBox="0.00 0.00 338.00 134.00" xmlns="http://www.w3.org/2000/svg" xmlns:xlink="http://www.w3.org/1999/xlink">
<g id="graph0" class="graph" transform="scale(1 1) rotate(0) translate(4 130)">
<title>utility::fsm::FSM::RowBased::processEvent</title>
<!-- Node1 -->
<g id="Node000001" class="node">
<title>Node1</title>
<g id="a_Node000001"><a xlink:title="Process the specific event.">
<polygon fill="#999999" stroke="#666666" points="330,-78 191,-78 191,-48 330,-48 330,-78"/>
<text text-anchor="start" x="199" y="-66" font-family="Helvetica,sans-Serif" font-size="10.00">utility::fsm::FSM::</text>
<text text-anchor="middle" x="260.5" y="-55" font-family="Helvetica,sans-Serif" font-size="10.00">RowBased::processEvent</text>
</a>
</g>
</g>
<!-- Node2 -->
<g id="Node000002" class="node">
<title>Node2</title>
<g id="a_Node000002"><a xlink:href="../../d5/d2c/structutility_1_1fsm_1_1FSM_1_1BasicRow.html#aa372d7ea2e394b984a53b09e2c8d8e98" target="_top" xlink:title="Process the specific event.">
<polygon fill="white" stroke="#666666" points="144.5,-126 10.5,-126 10.5,-96 144.5,-96 144.5,-126"/>
<text text-anchor="start" x="18.5" y="-114" font-family="Helvetica,sans-Serif" font-size="10.00">utility::fsm::FSM::</text>
<text text-anchor="middle" x="77.5" y="-103" font-family="Helvetica,sans-Serif" font-size="10.00">BasicRow::processEvent</text>
</a>
</g>
</g>
<!-- Node1&#45;&gt;Node2 -->
<g id="edge1_Node000001_Node000002" class="edge">
<title>Node1&#45;&gt;Node2</title>
<g id="a_edge1_Node000001_Node000002"><a xlink:title=" ">
<path fill="none" stroke="#63b8ff" d="M192.95,-80.65C173.94,-85.69 153.42,-91.13 135.07,-96"/>
<polygon fill="#63b8ff" stroke="#63b8ff" points="193.96,-84 202.73,-78.06 192.16,-77.24 193.96,-84"/>
</a>
</g>
</g>
<!-- Node3 -->
<g id="Node000003" class="node">
<title>Node3</title>
<g id="a_Node000003"><a xlink:href="../../d6/dbc/structutility_1_1fsm_1_1FSM_1_1MemFuncRow.html#a9949f908e0e5d6d785716e18922f2932" target="_top" xlink:title="Process the specific event.">
<polygon fill="white" stroke="#666666" points="155,-78 0,-78 0,-48 155,-48 155,-78"/>
<text text-anchor="start" x="8" y="-66" font-family="Helvetica,sans-Serif" font-size="10.00">utility::fsm::FSM::</text>
<text text-anchor="middle" x="77.5" y="-55" font-family="Helvetica,sans-Serif" font-size="10.00">MemFuncRow::processEvent</text>
</a>
</g>
</g>
<!-- Node1&#45;&gt;Node3 -->
<g id="edge2_Node000001_Node000003" class="edge">
<title>Node1&#45;&gt;Node3</title>
<g id="a_edge2_Node000001_Node000003"><a xlink:title=" ">
<path fill="none" stroke="#63b8ff" d="M180.56,-63C172.08,-63 163.46,-63 155.01,-63"/>
<polygon fill="#63b8ff" stroke="#63b8ff" points="180.81,-66.5 190.81,-63 180.81,-59.5 180.81,-66.5"/>
</a>
</g>
</g>
<!-- Node4 -->
<g id="Node000004" class="node">
<title>Node4</title>
<g id="a_Node000004"><a xlink:href="../../d8/dd1/structutility_1_1fsm_1_1FSM_1_1Row.html#a6386db96d43fb45026be50dfc83b5f15" target="_top" xlink:title="Process the specific event.">
<polygon fill="white" stroke="#666666" points="131.5,-30 23.5,-30 23.5,0 131.5,0 131.5,-30"/>
<text text-anchor="start" x="31.5" y="-18" font-family="Helvetica,sans-Serif" font-size="10.00">utility::fsm::FSM::</text>
<text text-anchor="middle" x="77.5" y="-7" font-family="Helvetica,sans-Serif" font-size="10.00">Row::processEvent</text>
</a>
</g>
</g>
<!-- Node1&#45;&gt;Node4 -->
<g id="edge3_Node000001_Node000004" class="edge">
<title>Node1&#45;&gt;Node4</title>
<g id="a_edge3_Node000001_Node000004"><a xlink:title=" ">
<path fill="none" stroke="#63b8ff" d="M192.97,-45.36C172.78,-40 150.87,-34.19 131.68,-29.1"/>
<polygon fill="#63b8ff" stroke="#63b8ff" points="192.16,-48.76 202.73,-47.94 193.96,-42 192.16,-48.76"/>
</a>
</g>
</g>
</g>
</svg>
