<?xml version="1.0" encoding="UTF-8" standalone="no"?>
<!DOCTYPE svg PUBLIC "-//W3C//DTD SVG 1.1//EN"
 "http://www.w3.org/Graphics/SVG/1.1/DTD/svg11.dtd">
<!-- Generated by graphviz version 2.43.0 (0)
 -->
<!-- Title: utility::fsm::FSM::RowBased::checkGuard Pages: 1 -->
<svg width="323pt" height="134pt"
 viewBox="0.00 0.00 323.00 134.00" xmlns="http://www.w3.org/2000/svg" xmlns:xlink="http://www.w3.org/1999/xlink">
<g id="graph0" class="graph" transform="scale(1 1) rotate(0) translate(4 130)">
<title>utility::fsm::FSM::RowBased::checkGuard</title>
<!-- Node1 -->
<g id="Node000001" class="node">
<title>Node1</title>
<g id="a_Node000001"><a xlink:title="Check guard condition.">
<polygon fill="#999999" stroke="#666666" points="315,-78 184,-78 184,-48 315,-48 315,-78"/>
<text text-anchor="start" x="192" y="-66" font-family="Helvetica,sans-Serif" font-size="10.00">utility::fsm::FSM::</text>
<text text-anchor="middle" x="249.5" y="-55" font-family="Helvetica,sans-Serif" font-size="10.00">RowBased::checkGuard</text>
</a>
</g>
</g>
<!-- Node2 -->
<g id="Node000002" class="node">
<title>Node2</title>
<g id="a_Node000002"><a xlink:href="../../d5/d2c/structutility_1_1fsm_1_1FSM_1_1BasicRow.html#af999f68117d5a618b3b660adb474b224" target="_top" xlink:title="Check guard condition.">
<polygon fill="white" stroke="#666666" points="137.5,-126 10.5,-126 10.5,-96 137.5,-96 137.5,-126"/>
<text text-anchor="start" x="18.5" y="-114" font-family="Helvetica,sans-Serif" font-size="10.00">utility::fsm::FSM::</text>
<text text-anchor="middle" x="74" y="-103" font-family="Helvetica,sans-Serif" font-size="10.00">BasicRow::checkGuard</text>
</a>
</g>
</g>
<!-- Node1&#45;&gt;Node2 -->
<g id="edge1_Node000001_Node000002" class="edge">
<title>Node1&#45;&gt;Node2</title>
<g id="a_edge1_Node000001_Node000002"><a xlink:title=" ">
<path fill="none" stroke="#63b8ff" d="M184.2,-80.79C166.13,-85.79 146.65,-91.18 129.23,-96"/>
<polygon fill="#63b8ff" stroke="#63b8ff" points="185.37,-84.1 194.08,-78.06 183.51,-77.35 185.37,-84.1"/>
</a>
</g>
</g>
<!-- Node3 -->
<g id="Node000003" class="node">
<title>Node3</title>
<g id="a_Node000003"><a xlink:href="../../d6/dbc/structutility_1_1fsm_1_1FSM_1_1MemFuncRow.html#aaa589db0fc4c0f0d4bb42386d45bed9f" target="_top" xlink:title="Check guard condition.">
<polygon fill="white" stroke="#666666" points="148,-78 0,-78 0,-48 148,-48 148,-78"/>
<text text-anchor="start" x="8" y="-66" font-family="Helvetica,sans-Serif" font-size="10.00">utility::fsm::FSM::</text>
<text text-anchor="middle" x="74" y="-55" font-family="Helvetica,sans-Serif" font-size="10.00">MemFuncRow::checkGuard</text>
</a>
</g>
</g>
<!-- Node1&#45;&gt;Node3 -->
<g id="edge2_Node000001_Node000003" class="edge">
<title>Node1&#45;&gt;Node3</title>
<g id="a_edge2_Node000001_Node000003"><a xlink:title=" ">
<path fill="none" stroke="#63b8ff" d="M173.66,-63C165.2,-63 156.57,-63 148.13,-63"/>
<polygon fill="#63b8ff" stroke="#63b8ff" points="173.9,-66.5 183.9,-63 173.89,-59.5 173.9,-66.5"/>
</a>
</g>
</g>
<!-- Node4 -->
<g id="Node000004" class="node">
<title>Node4</title>
<g id="a_Node000004"><a xlink:href="../../d8/dd1/structutility_1_1fsm_1_1FSM_1_1Row.html#af26911cc27602897079423fa34d4c5d8" target="_top" xlink:title="Check guard condition.">
<polygon fill="white" stroke="#666666" points="124.5,-30 23.5,-30 23.5,0 124.5,0 124.5,-30"/>
<text text-anchor="start" x="31.5" y="-18" font-family="Helvetica,sans-Serif" font-size="10.00">utility::fsm::FSM::</text>
<text text-anchor="middle" x="74" y="-7" font-family="Helvetica,sans-Serif" font-size="10.00">Row::checkGuard</text>
</a>
</g>
</g>
<!-- Node1&#45;&gt;Node4 -->
<g id="edge3_Node000001_Node000004" class="edge">
<title>Node1&#45;&gt;Node4</title>
<g id="a_edge3_Node000001_Node000004"><a xlink:title=" ">
<path fill="none" stroke="#63b8ff" d="M184.24,-45.22C164.51,-39.76 143.1,-33.84 124.51,-28.7"/>
<polygon fill="#63b8ff" stroke="#63b8ff" points="183.51,-48.65 194.08,-47.94 185.37,-41.9 183.51,-48.65"/>
</a>
</g>
</g>
</g>
</svg>
