<?xml version="1.0" encoding="UTF-8" standalone="no"?>
<!DOCTYPE svg PUBLIC "-//W3C//DTD SVG 1.1//EN"
 "http://www.w3.org/Graphics/SVG/1.1/DTD/svg11.dtd">
<!-- Generated by graphviz version 2.43.0 (0)
 -->
<!-- Title: design_pattern::behavioral::observer::ConcreteSubject Pages: 1 -->
<svg width="1121pt" height="131pt"
 viewBox="0.00 0.00 1121.00 131.00" xmlns="http://www.w3.org/2000/svg" xmlns:xlink="http://www.w3.org/1999/xlink">
<g id="graph0" class="graph" transform="scale(1 1) rotate(0) translate(4 127)">
<title>design_pattern::behavioral::observer::ConcreteSubject</title>
<!-- Node1 -->
<g id="Node000001" class="node">
<title>Node1</title>
<g id="a_Node000001"><a xlink:title="The concrete subject.">
<polygon fill="#999999" stroke="#666666" points="1113,-96 962,-96 962,-66 1113,-66 1113,-96"/>
<text text-anchor="start" x="970" y="-84" font-family="Helvetica,sans-Serif" font-size="10.00">design_pattern::behavioral</text>
<text text-anchor="middle" x="1037.5" y="-73" font-family="Helvetica,sans-Serif" font-size="10.00">::observer::ConcreteSubject</text>
</a>
</g>
</g>
<!-- Node2 -->
<g id="Node000002" class="node">
<title>Node2</title>
<g id="a_Node000002"><a xlink:href="../../dc/dc1/classdesign__pattern_1_1behavioral_1_1observer_1_1Subject.html" target="_top" xlink:title="Attach, detach and notify observers.">
<polygon fill="white" stroke="#666666" points="925,-96 778,-96 778,-66 925,-66 925,-96"/>
<text text-anchor="start" x="786" y="-84" font-family="Helvetica,sans-Serif" font-size="10.00">design_pattern::behavioral</text>
<text text-anchor="middle" x="851.5" y="-73" font-family="Helvetica,sans-Serif" font-size="10.00">::observer::Subject</text>
</a>
</g>
</g>
<!-- Node2&#45;&gt;Node1 -->
<g id="edge1_Node000001_Node000002" class="edge">
<title>Node2&#45;&gt;Node1</title>
<g id="a_edge1_Node000001_Node000002"><a xlink:title=" ">
<path fill="none" stroke="#63b8ff" d="M935.48,-81C944.28,-81 953.2,-81 961.89,-81"/>
<polygon fill="#63b8ff" stroke="#63b8ff" points="935.22,-77.5 925.22,-81 935.22,-84.5 935.22,-77.5"/>
</a>
</g>
</g>
<!-- Node3 -->
<g id="Node000003" class="node">
<title>Node3</title>
<g id="a_Node000003"><a target="_parent" xlink:href="https://gcc.gnu.org/onlinedocs/gcc-12.3.0/libstdc++/api/a07595.html" xlink:title=" ">
<polygon fill="white" stroke="#666666" points="665,-123 538,-123 538,-93 665,-93 665,-123"/>
<text text-anchor="start" x="546" y="-111" font-family="Helvetica,sans-Serif" font-size="10.00">std::enable_shared</text>
<text text-anchor="middle" x="601.5" y="-100" font-family="Helvetica,sans-Serif" font-size="10.00">_from_this&lt; Subject &gt;</text>
</a>
</g>
</g>
<!-- Node3&#45;&gt;Node2 -->
<g id="edge2_Node000002_Node000003" class="edge">
<title>Node3&#45;&gt;Node2</title>
<g id="a_edge2_Node000002_Node000003"><a xlink:title=" ">
<path fill="none" stroke="#63b8ff" d="M675.35,-100.07C707.65,-96.55 745.55,-92.43 777.82,-88.91"/>
<polygon fill="#63b8ff" stroke="#63b8ff" points="674.64,-96.62 665.08,-101.19 675.4,-103.58 674.64,-96.62"/>
</a>
</g>
</g>
<!-- Node4 -->
<g id="Node000004" class="node">
<title>Node4</title>
<g id="a_Node000004"><a target="_parent" xlink:href="https://gcc.gnu.org/onlinedocs/gcc-12.3.0/libstdc++/api/a07595.html" xlink:title=" ">
<polygon fill="white" stroke="#666666" points="343,-123 182,-123 182,-93 343,-93 343,-123"/>
<text text-anchor="start" x="190" y="-111" font-family="Helvetica,sans-Serif" font-size="10.00">std::enable_shared</text>
<text text-anchor="middle" x="262.5" y="-100" font-family="Helvetica,sans-Serif" font-size="10.00">_from_this&lt; typename _Tp &gt;</text>
</a>
</g>
</g>
<!-- Node4&#45;&gt;Node3 -->
<g id="edge3_Node000003_Node000004" class="edge">
<title>Node4&#45;&gt;Node3</title>
<g id="a_edge3_Node000003_Node000004"><a xlink:title=" ">
<path fill="none" stroke="orange" stroke-dasharray="5,2" d="M353.66,-108C411.81,-108 485.99,-108 537.77,-108"/>
<polygon fill="orange" stroke="orange" points="353.36,-104.5 343.36,-108 353.36,-111.5 353.36,-104.5"/>
</a>
</g>
<text text-anchor="middle" x="428" y="-111" font-family="Helvetica,sans-Serif" font-size="10.00" fill="grey"> &lt; Subject &gt;</text>
</g>
<!-- Node5 -->
<g id="Node000005" class="node">
<title>Node5</title>
<g id="a_Node000005"><a target="_parent" xlink:href="https://gcc.gnu.org/onlinedocs/gcc-12.3.0/libstdc++/api/a08791.html" xlink:title=" ">
<polygon fill="white" stroke="#666666" points="690,-74.5 513,-74.5 513,-33.5 690,-33.5 690,-74.5"/>
<text text-anchor="start" x="521" y="-62.5" font-family="Helvetica,sans-Serif" font-size="10.00">std::vector&lt; std::shared</text>
<text text-anchor="start" x="521" y="-51.5" font-family="Helvetica,sans-Serif" font-size="10.00">_ptr&lt; design_pattern::behavioral</text>
<text text-anchor="middle" x="601.5" y="-40.5" font-family="Helvetica,sans-Serif" font-size="10.00">::observer::Observer &gt; &gt;</text>
</a>
</g>
</g>
<!-- Node5&#45;&gt;Node2 -->
<g id="edge4_Node000002_Node000005" class="edge">
<title>Node5&#45;&gt;Node2</title>
<g id="a_edge4_Node000002_Node000005"><a xlink:title=" ">
<path fill="none" stroke="#9a32cd" stroke-dasharray="5,2" d="M700.48,-64.67C726.32,-67.48 753.75,-70.47 777.98,-73.1"/>
<polygon fill="#9a32cd" stroke="#9a32cd" points="700.6,-61.16 690.28,-63.56 699.85,-68.12 700.6,-61.16"/>
</a>
</g>
<text text-anchor="middle" x="734" y="-73" font-family="Helvetica,sans-Serif" font-size="10.00" fill="grey"> observers</text>
</g>
<!-- Node6 -->
<g id="Node000006" class="node">
<title>Node6</title>
<g id="a_Node000006"><a target="_parent" xlink:href="https://gcc.gnu.org/onlinedocs/gcc-12.3.0/libstdc++/api/a08779.html" xlink:title=" ">
<polygon fill="white" stroke="#666666" points="145,-58.5 0,-58.5 0,-17.5 145,-17.5 145,-58.5"/>
<text text-anchor="start" x="8" y="-46.5" font-family="Helvetica,sans-Serif" font-size="10.00">std::_Vector_base&lt;</text>
<text text-anchor="start" x="8" y="-35.5" font-family="Helvetica,sans-Serif" font-size="10.00"> typename _Tp, typename</text>
<text text-anchor="middle" x="72.5" y="-24.5" font-family="Helvetica,sans-Serif" font-size="10.00"> _Alloc &gt;</text>
</a>
</g>
</g>
<!-- Node6&#45;&gt;Node5 -->
<g id="edge5_Node000005_Node000006" class="edge">
<title>Node6&#45;&gt;Node5</title>
<g id="a_edge5_Node000005_Node000006"><a xlink:title=" ">
<path fill="none" stroke="darkgreen" d="M155.35,-41.72C157.93,-41.81 160.48,-41.91 163,-42 284.3,-46.37 424.58,-49.96 512.91,-52.04"/>
<polygon fill="darkgreen" stroke="darkgreen" points="155.44,-38.22 145.31,-41.32 155.16,-45.21 155.44,-38.22"/>
</a>
</g>
</g>
<!-- Node7 -->
<g id="Node000007" class="node">
<title>Node7</title>
<g id="a_Node000007"><a target="_parent" xlink:href="https://gcc.gnu.org/onlinedocs/gcc-12.3.0/libstdc++/api/a08791.html" xlink:title=" ">
<polygon fill="white" stroke="#666666" points="330.5,-30 194.5,-30 194.5,0 330.5,0 330.5,-30"/>
<text text-anchor="start" x="202.5" y="-18" font-family="Helvetica,sans-Serif" font-size="10.00">std::vector&lt; typename</text>
<text text-anchor="middle" x="262.5" y="-7" font-family="Helvetica,sans-Serif" font-size="10.00"> _Tp, typename _Alloc &gt;</text>
</a>
</g>
</g>
<!-- Node6&#45;&gt;Node7 -->
<g id="edge7_Node000007_Node000006" class="edge">
<title>Node6&#45;&gt;Node7</title>
<g id="a_edge7_Node000007_Node000006"><a xlink:title=" ">
<path fill="none" stroke="darkgreen" d="M155.07,-28.02C168.21,-26.41 181.68,-24.77 194.42,-23.21"/>
<polygon fill="darkgreen" stroke="darkgreen" points="154.61,-24.55 145.11,-29.24 155.46,-31.5 154.61,-24.55"/>
</a>
</g>
</g>
<!-- Node7&#45;&gt;Node5 -->
<g id="edge6_Node000005_Node000007" class="edge">
<title>Node7&#45;&gt;Node5</title>
<g id="a_edge6_Node000005_Node000007"><a xlink:title=" ">
<path fill="none" stroke="orange" stroke-dasharray="5,2" d="M340.77,-6.93C386.08,-4.02 444.23,-3.48 495,-13 516.54,-17.04 539.32,-25.34 558.19,-33.42"/>
<polygon fill="orange" stroke="orange" points="340.45,-3.44 330.71,-7.62 340.93,-10.42 340.45,-3.44"/>
</a>
</g>
<text text-anchor="start" x="361" y="-38" font-family="Helvetica,sans-Serif" font-size="10.00" fill="grey"> &lt; std::shared_ptr&lt;</text>
<text text-anchor="start" x="361" y="-27" font-family="Helvetica,sans-Serif" font-size="10.00" fill="grey"> design_pattern::behavioral</text>
<text text-anchor="middle" x="428" y="-16" font-family="Helvetica,sans-Serif" font-size="10.00" fill="grey">::observer::Observer &gt; &gt;</text>
</g>
</g>
</svg>
