<?xml version="1.0" encoding="UTF-8" standalone="no"?>
<!DOCTYPE svg PUBLIC "-//W3C//DTD SVG 1.1//EN"
 "http://www.w3.org/Graphics/SVG/1.1/DTD/svg11.dtd">
<!-- Generated by graphviz version 2.43.0 (0)
 -->
<!-- Title: utility::socket::UDPServer Pages: 1 -->
<svg width="149pt" height="137pt"
 viewBox="0.00 0.00 149.00 137.00" xmlns="http://www.w3.org/2000/svg" xmlns:xlink="http://www.w3.org/1999/xlink">
<g id="graph0" class="graph" transform="scale(1 1) rotate(0) translate(4 133)">
<title>utility::socket::UDPServer</title>
<!-- Node1 -->
<g id="Node000001" class="node">
<title>Node1</title>
<g id="a_Node000001"><a xlink:title="UDP server.">
<polygon fill="#999999" stroke="#666666" points="140.5,-19 0.5,-19 0.5,0 140.5,0 140.5,-19"/>
<text text-anchor="middle" x="70.5" y="-7" font-family="Helvetica,sans-Serif" font-size="10.00">utility::socket::UDPServer</text>
</a>
</g>
</g>
<!-- Node2 -->
<g id="Node000002" class="node">
<title>Node2</title>
<g id="a_Node000002"><a xlink:href="../../db/d57/classutility_1_1socket_1_1UDPSocket.html" target="_top" xlink:title="UDP socket.">
<polygon fill="white" stroke="#666666" points="141,-74 0,-74 0,-55 141,-55 141,-74"/>
<text text-anchor="middle" x="70.5" y="-62" font-family="Helvetica,sans-Serif" font-size="10.00">utility::socket::UDPSocket</text>
</a>
</g>
</g>
<!-- Node2&#45;&gt;Node1 -->
<g id="edge1_Node000001_Node000002" class="edge">
<title>Node2&#45;&gt;Node1</title>
<g id="a_edge1_Node000001_Node000002"><a xlink:title=" ">
<path fill="none" stroke="#63b8ff" d="M70.5,-44.66C70.5,-35.93 70.5,-25.99 70.5,-19.09"/>
<polygon fill="#63b8ff" stroke="#63b8ff" points="67,-44.75 70.5,-54.75 74,-44.75 67,-44.75"/>
</a>
</g>
</g>
<!-- Node3 -->
<g id="Node000003" class="node">
<title>Node3</title>
<g id="a_Node000003"><a xlink:href="../../dd/dcb/classutility_1_1socket_1_1Socket.html" target="_top" xlink:title="Network socket.">
<polygon fill="white" stroke="#666666" points="130.5,-129 10.5,-129 10.5,-110 130.5,-110 130.5,-129"/>
<text text-anchor="middle" x="70.5" y="-117" font-family="Helvetica,sans-Serif" font-size="10.00">utility::socket::Socket</text>
</a>
</g>
</g>
<!-- Node3&#45;&gt;Node2 -->
<g id="edge2_Node000002_Node000003" class="edge">
<title>Node3&#45;&gt;Node2</title>
<g id="a_edge2_Node000002_Node000003"><a xlink:title=" ">
<path fill="none" stroke="#63b8ff" d="M70.5,-99.66C70.5,-90.93 70.5,-80.99 70.5,-74.09"/>
<polygon fill="#63b8ff" stroke="#63b8ff" points="67,-99.75 70.5,-109.75 74,-99.75 67,-99.75"/>
</a>
</g>
</g>
</g>
</svg>
