<?xml version="1.0" encoding="UTF-8" standalone="no"?>
<!DOCTYPE svg PUBLIC "-//W3C//DTD SVG 1.1//EN"
 "http://www.w3.org/Graphics/SVG/1.1/DTD/svg11.dtd">
<!-- Generated by graphviz version 2.43.0 (0)
 -->
<!-- Title: date_structure::tree::splay::splayTreeSplay Pages: 1 -->
<svg width="305pt" height="86pt"
 viewBox="0.00 0.00 305.00 86.00" xmlns="http://www.w3.org/2000/svg" xmlns:xlink="http://www.w3.org/1999/xlink">
<g id="graph0" class="graph" transform="scale(1 1) rotate(0) translate(4 82)">
<title>date_structure::tree::splay::splayTreeSplay</title>
<!-- Node1 -->
<g id="Node000001" class="node">
<title>Node1</title>
<g id="a_Node000001"><a xlink:title="Splay target node in the splay tree. Make to be the root node.">
<polygon fill="#999999" stroke="#666666" points="297,-54 169,-54 169,-24 297,-24 297,-54"/>
<text text-anchor="start" x="177" y="-42" font-family="Helvetica,sans-Serif" font-size="10.00">date_structure::tree</text>
<text text-anchor="middle" x="233" y="-31" font-family="Helvetica,sans-Serif" font-size="10.00">::splay::splayTreeSplay</text>
</a>
</g>
</g>
<!-- Node2 -->
<g id="Node000002" class="node">
<title>Node2</title>
<g id="a_Node000002"><a xlink:href="../../de/dfc/namespacedate__structure_1_1tree_1_1splay.html#abb761977b4d11bf4d5fa1617afa060b7" target="_top" xlink:title="Delete target node into the splay tree.">
<polygon fill="white" stroke="#666666" points="133,-78 0,-78 0,-48 133,-48 133,-78"/>
<text text-anchor="start" x="8" y="-66" font-family="Helvetica,sans-Serif" font-size="10.00">date_structure::tree</text>
<text text-anchor="middle" x="66.5" y="-55" font-family="Helvetica,sans-Serif" font-size="10.00">::splay::splayTreeDelete</text>
</a>
</g>
</g>
<!-- Node1&#45;&gt;Node2 -->
<g id="edge1_Node000001_Node000002" class="edge">
<title>Node1&#45;&gt;Node2</title>
<g id="a_edge1_Node000001_Node000002"><a xlink:title=" ">
<path fill="none" stroke="#63b8ff" d="M158.9,-49.66C150.34,-50.91 141.64,-52.18 133.19,-53.42"/>
<polygon fill="#63b8ff" stroke="#63b8ff" points="159.48,-53.12 168.87,-48.21 158.47,-46.19 159.48,-53.12"/>
</a>
</g>
</g>
<!-- Node3 -->
<g id="Node000003" class="node">
<title>Node3</title>
<g id="a_Node000003"><a xlink:href="../../de/dfc/namespacedate__structure_1_1tree_1_1splay.html#a7dc0c9e6b2bfddeb01d98c72109b3ef0" target="_top" xlink:title="Insert target node into the splay tree. Not allow inserting node with the same key.">
<polygon fill="white" stroke="#666666" points="130.5,-30 2.5,-30 2.5,0 130.5,0 130.5,-30"/>
<text text-anchor="start" x="10.5" y="-18" font-family="Helvetica,sans-Serif" font-size="10.00">date_structure::tree</text>
<text text-anchor="middle" x="66.5" y="-7" font-family="Helvetica,sans-Serif" font-size="10.00">::splay::splayTreeInsert</text>
</a>
</g>
</g>
<!-- Node1&#45;&gt;Node3 -->
<g id="edge2_Node000001_Node000003" class="edge">
<title>Node1&#45;&gt;Node3</title>
<g id="a_edge2_Node000001_Node000003"><a xlink:title=" ">
<path fill="none" stroke="#63b8ff" d="M158.8,-28.32C149.44,-26.95 139.92,-25.57 130.73,-24.23"/>
<polygon fill="#63b8ff" stroke="#63b8ff" points="158.47,-31.81 168.87,-29.79 159.48,-24.88 158.47,-31.81"/>
</a>
</g>
</g>
</g>
</svg>
