<?xml version="1.0" encoding="UTF-8" standalone="no"?>
<!DOCTYPE svg PUBLIC "-//W3C//DTD SVG 1.1//EN"
 "http://www.w3.org/Graphics/SVG/1.1/DTD/svg11.dtd">
<!-- Generated by graphviz version 2.43.0 (0)
 -->
<!-- Title: date_structure::tree::splay::splayTreeSearch Pages: 1 -->
<svg width="311pt" height="56pt"
 viewBox="0.00 0.00 311.00 56.00" xmlns="http://www.w3.org/2000/svg" xmlns:xlink="http://www.w3.org/1999/xlink">
<g id="graph0" class="graph" transform="scale(1 1) rotate(0) translate(4 52)">
<title>date_structure::tree::splay::splayTreeSearch</title>
<!-- Node1 -->
<g id="Node000001" class="node">
<title>Node1</title>
<g id="a_Node000001"><a xlink:title="Search the node of splay tree by key.">
<polygon fill="#999999" stroke="#666666" points="303,-30 169,-30 169,0 303,0 303,-30"/>
<text text-anchor="start" x="177" y="-18" font-family="Helvetica,sans-Serif" font-size="10.00">date_structure::tree</text>
<text text-anchor="middle" x="236" y="-7" font-family="Helvetica,sans-Serif" font-size="10.00">::splay::splayTreeSearch</text>
</a>
</g>
</g>
<!-- Node1&#45;&gt;Node1 -->
<g id="edge2_Node000001_Node000001" class="edge">
<title>Node1&#45;&gt;Node1</title>
<g id="a_edge2_Node000001_Node000001"><a xlink:title=" ">
<path fill="none" stroke="#63b8ff" d="M265.41,-40.6C261.39,-44.97 251.59,-48 236,-48 209.75,-48 199.91,-39.41 206.47,-30.28"/>
<polygon fill="#63b8ff" stroke="#63b8ff" points="268.91,-40.32 265.53,-30.28 261.91,-40.23 268.91,-40.32"/>
</a>
</g>
</g>
<!-- Node2 -->
<g id="Node000002" class="node">
<title>Node2</title>
<g id="a_Node000002"><a xlink:href="../../de/dfc/namespacedate__structure_1_1tree_1_1splay.html#abb761977b4d11bf4d5fa1617afa060b7" target="_top" xlink:title="Delete target node into the splay tree.">
<polygon fill="white" stroke="#666666" points="133,-30 0,-30 0,0 133,0 133,-30"/>
<text text-anchor="start" x="8" y="-18" font-family="Helvetica,sans-Serif" font-size="10.00">date_structure::tree</text>
<text text-anchor="middle" x="66.5" y="-7" font-family="Helvetica,sans-Serif" font-size="10.00">::splay::splayTreeDelete</text>
</a>
</g>
</g>
<!-- Node1&#45;&gt;Node2 -->
<g id="edge1_Node000001_Node000002" class="edge">
<title>Node1&#45;&gt;Node2</title>
<g id="a_edge1_Node000001_Node000002"><a xlink:title=" ">
<path fill="none" stroke="#63b8ff" d="M158.55,-15C150.09,-15 141.53,-15 133.22,-15"/>
<polygon fill="#63b8ff" stroke="#63b8ff" points="158.8,-18.5 168.8,-15 158.8,-11.5 158.8,-18.5"/>
</a>
</g>
</g>
</g>
</svg>
