<?xml version="1.0" encoding="UTF-8" standalone="no"?>
<!DOCTYPE svg PUBLIC "-//W3C//DTD SVG 1.1//EN"
 "http://www.w3.org/Graphics/SVG/1.1/DTD/svg11.dtd">
<!-- Generated by graphviz version 2.43.0 (0)
 -->
<!-- Title: utility/include/common.hpp Pages: 1 -->
<svg width="1255pt" height="170pt"
 viewBox="0.00 0.00 1254.50 170.00" xmlns="http://www.w3.org/2000/svg" xmlns:xlink="http://www.w3.org/1999/xlink">
<g id="graph0" class="graph" transform="scale(1 1) rotate(0) translate(4 166)">
<title>utility/include/common.hpp</title>
<!-- Node1 -->
<g id="Node000001" class="node">
<title>Node1</title>
<g id="a_Node000001"><a xlink:title="The declarations (common) in the utility module.">
<polygon fill="#999999" stroke="#666666" points="814,-162 664,-162 664,-143 814,-143 814,-162"/>
<text text-anchor="middle" x="739" y="-150" font-family="Helvetica,sans-Serif" font-size="10.00">utility/include/common.hpp</text>
</a>
</g>
</g>
<!-- Node2 -->
<g id="Node000002" class="node">
<title>Node2</title>
<g id="a_Node000002"><a xlink:href="../../d4/d3d/log_8hpp.html" target="_top" xlink:title="The declarations (log) in the application module.">
<polygon fill="white" stroke="#666666" points="655.5,-107 522.5,-107 522.5,-77 655.5,-77 655.5,-107"/>
<text text-anchor="start" x="530.5" y="-95" font-family="Helvetica,sans-Serif" font-size="10.00">application/core/include</text>
<text text-anchor="middle" x="589" y="-84" font-family="Helvetica,sans-Serif" font-size="10.00">/log.hpp</text>
</a>
</g>
</g>
<!-- Node1&#45;&gt;Node2 -->
<g id="edge1_Node000001_Node000002" class="edge">
<title>Node1&#45;&gt;Node2</title>
<g id="a_edge1_Node000001_Node000002"><a xlink:title=" ">
<path fill="none" stroke="#63b8ff" d="M707.8,-139.33C683.7,-129.93 650.31,-116.91 625.06,-107.06"/>
<polygon fill="#63b8ff" stroke="#63b8ff" points="706.6,-142.62 717.19,-142.99 709.14,-136.1 706.6,-142.62"/>
</a>
</g>
</g>
<!-- Node11 -->
<g id="Node000011" class="node">
<title>Node11</title>
<g id="a_Node000011"><a xlink:href="../../df/d59/config_8cpp.html" target="_top" xlink:title="The definitions (config) in the application module.">
<polygon fill="white" stroke="#666666" points="804,-107 674,-107 674,-77 804,-77 804,-107"/>
<text text-anchor="start" x="682" y="-95" font-family="Helvetica,sans-Serif" font-size="10.00">application/core/source</text>
<text text-anchor="middle" x="739" y="-84" font-family="Helvetica,sans-Serif" font-size="10.00">/config.cpp</text>
</a>
</g>
</g>
<!-- Node1&#45;&gt;Node11 -->
<g id="edge10_Node000001_Node000011" class="edge">
<title>Node1&#45;&gt;Node11</title>
<g id="a_edge10_Node000001_Node000011"><a xlink:title=" ">
<path fill="none" stroke="#63b8ff" d="M739,-132.65C739,-124.36 739,-114.78 739,-107.11"/>
<polygon fill="#63b8ff" stroke="#63b8ff" points="735.5,-132.87 739,-142.87 742.5,-132.87 735.5,-132.87"/>
</a>
</g>
</g>
<!-- Node12 -->
<g id="Node000012" class="node">
<title>Node12</title>
<g id="a_Node000012"><a xlink:href="../../d9/df9/common_8cpp.html" target="_top" xlink:title="The definitions (common) in the utility module.">
<polygon fill="white" stroke="#666666" points="968,-101.5 822,-101.5 822,-82.5 968,-82.5 968,-101.5"/>
<text text-anchor="middle" x="895" y="-89.5" font-family="Helvetica,sans-Serif" font-size="10.00">utility/source/common.cpp</text>
</a>
</g>
</g>
<!-- Node1&#45;&gt;Node12 -->
<g id="edge11_Node000001_Node000012" class="edge">
<title>Node1&#45;&gt;Node12</title>
<g id="a_edge11_Node000001_Node000012"><a xlink:title=" ">
<path fill="none" stroke="#63b8ff" d="M771.33,-139.38C801.48,-128.07 845.7,-111.49 872.29,-101.52"/>
<polygon fill="#63b8ff" stroke="#63b8ff" points="769.82,-136.21 761.68,-142.99 772.28,-142.76 769.82,-136.21"/>
</a>
</g>
</g>
<!-- Node3 -->
<g id="Node000003" class="node">
<title>Node3</title>
<g id="a_Node000003"><a xlink:href="../../d1/d81/command_8cpp.html" target="_top" xlink:title="The definitions (command) in the application module.">
<polygon fill="white" stroke="#666666" points="130,-35.5 0,-35.5 0,-5.5 130,-5.5 130,-35.5"/>
<text text-anchor="start" x="8" y="-23.5" font-family="Helvetica,sans-Serif" font-size="10.00">application/core/source</text>
<text text-anchor="middle" x="65" y="-12.5" font-family="Helvetica,sans-Serif" font-size="10.00">/command.cpp</text>
</a>
</g>
</g>
<!-- Node2&#45;&gt;Node3 -->
<g id="edge2_Node000002_Node000003" class="edge">
<title>Node2&#45;&gt;Node3</title>
<g id="a_edge2_Node000002_Node000003"><a xlink:title=" ">
<path fill="none" stroke="#63b8ff" d="M512.1,-85.91C422.1,-79.16 268.84,-65.19 139,-41 130.9,-39.49 122.39,-37.57 114.13,-35.52"/>
<polygon fill="#63b8ff" stroke="#63b8ff" points="511.98,-89.41 522.22,-86.66 512.5,-82.43 511.98,-89.41"/>
</a>
</g>
</g>
<!-- Node4 -->
<g id="Node000004" class="node">
<title>Node4</title>
<g id="a_Node000004"><a xlink:href="../../d9/db8/log_8cpp.html" target="_top" xlink:title="The definitions (log) in the application module.">
<polygon fill="white" stroke="#666666" points="278,-35.5 148,-35.5 148,-5.5 278,-5.5 278,-35.5"/>
<text text-anchor="start" x="156" y="-23.5" font-family="Helvetica,sans-Serif" font-size="10.00">application/core/source</text>
<text text-anchor="middle" x="213" y="-12.5" font-family="Helvetica,sans-Serif" font-size="10.00">/log.cpp</text>
</a>
</g>
</g>
<!-- Node2&#45;&gt;Node4 -->
<g id="edge3_Node000002_Node000004" class="edge">
<title>Node2&#45;&gt;Node4</title>
<g id="a_edge3_Node000002_Node000004"><a xlink:title=" ">
<path fill="none" stroke="#63b8ff" d="M512.41,-80.34C451.14,-71.33 363.18,-57.31 287,-41 279.46,-39.39 271.55,-37.5 263.8,-35.56"/>
<polygon fill="#63b8ff" stroke="#63b8ff" points="511.98,-83.82 522.38,-81.8 513,-76.89 511.98,-83.82"/>
</a>
</g>
</g>
<!-- Node5 -->
<g id="Node000005" class="node">
<title>Node5</title>
<g id="a_Node000005"><a xlink:href="../../df/d92/application_2core_2source_2main_8cpp.html" target="_top" xlink:title="The definitions (main) in the application module.">
<polygon fill="white" stroke="#666666" points="426,-35.5 296,-35.5 296,-5.5 426,-5.5 426,-35.5"/>
<text text-anchor="start" x="304" y="-23.5" font-family="Helvetica,sans-Serif" font-size="10.00">application/core/source</text>
<text text-anchor="middle" x="361" y="-12.5" font-family="Helvetica,sans-Serif" font-size="10.00">/main.cpp</text>
</a>
</g>
</g>
<!-- Node2&#45;&gt;Node5 -->
<g id="edge4_Node000002_Node000005" class="edge">
<title>Node2&#45;&gt;Node5</title>
<g id="a_edge4_Node000002_Node000005"><a xlink:title=" ">
<path fill="none" stroke="#63b8ff" d="M533.29,-74.02C494.55,-62.21 443.52,-46.65 407.07,-35.54"/>
<polygon fill="#63b8ff" stroke="#63b8ff" points="532.27,-77.37 542.86,-76.94 534.32,-70.67 532.27,-77.37"/>
</a>
</g>
</g>
<!-- Node6 -->
<g id="Node000006" class="node">
<title>Node6</title>
<g id="a_Node000006"><a xlink:href="../../dd/dc2/view_8cpp.html" target="_top" xlink:title="The definitions (view) in the application module.">
<polygon fill="white" stroke="#666666" points="574,-35.5 444,-35.5 444,-5.5 574,-5.5 574,-35.5"/>
<text text-anchor="start" x="452" y="-23.5" font-family="Helvetica,sans-Serif" font-size="10.00">application/core/source</text>
<text text-anchor="middle" x="509" y="-12.5" font-family="Helvetica,sans-Serif" font-size="10.00">/view.cpp</text>
</a>
</g>
</g>
<!-- Node2&#45;&gt;Node6 -->
<g id="edge5_Node000002_Node000006" class="edge">
<title>Node2&#45;&gt;Node6</title>
<g id="a_edge5_Node000002_Node000006"><a xlink:title=" ">
<path fill="none" stroke="#63b8ff" d="M565.18,-70.31C552.27,-59.09 536.65,-45.52 525.17,-35.54"/>
<polygon fill="#63b8ff" stroke="#63b8ff" points="562.97,-73.02 572.81,-76.94 567.56,-67.74 562.97,-73.02"/>
</a>
</g>
</g>
<!-- Node7 -->
<g id="Node000007" class="node">
<title>Node7</title>
<g id="a_Node000007"><a xlink:href="../../d8/d64/apply__algorithm_8cpp.html" target="_top" xlink:title="The definitions (apply_algorithm) in the application module.">
<polygon fill="white" stroke="#666666" points="747.5,-35.5 592.5,-35.5 592.5,-5.5 747.5,-5.5 747.5,-35.5"/>
<text text-anchor="start" x="600.5" y="-23.5" font-family="Helvetica,sans-Serif" font-size="10.00">application/example</text>
<text text-anchor="middle" x="670" y="-12.5" font-family="Helvetica,sans-Serif" font-size="10.00">/source/apply_algorithm.cpp</text>
</a>
</g>
</g>
<!-- Node2&#45;&gt;Node7 -->
<g id="edge6_Node000002_Node000007" class="edge">
<title>Node2&#45;&gt;Node7</title>
<g id="a_edge6_Node000002_Node000007"><a xlink:title=" ">
<path fill="none" stroke="#63b8ff" d="M613.12,-70.31C626.19,-59.09 642,-45.52 653.63,-35.54"/>
<polygon fill="#63b8ff" stroke="#63b8ff" points="610.7,-67.77 605.39,-76.94 615.26,-73.08 610.7,-67.77"/>
</a>
</g>
</g>
<!-- Node8 -->
<g id="Node000008" class="node">
<title>Node8</title>
<g id="a_Node000008"><a xlink:href="../../d1/d3d/apply__data__structure_8cpp.html" target="_top" xlink:title="The definitions (apply_data_structure) in the application module.">
<polygon fill="white" stroke="#666666" points="944,-35.5 766,-35.5 766,-5.5 944,-5.5 944,-35.5"/>
<text text-anchor="start" x="774" y="-23.5" font-family="Helvetica,sans-Serif" font-size="10.00">application/example</text>
<text text-anchor="middle" x="855" y="-12.5" font-family="Helvetica,sans-Serif" font-size="10.00">/source/apply_data_structure.cpp</text>
</a>
</g>
</g>
<!-- Node2&#45;&gt;Node8 -->
<g id="edge7_Node000002_Node000008" class="edge">
<title>Node2&#45;&gt;Node8</title>
<g id="a_edge7_Node000002_Node000008"><a xlink:title=" ">
<path fill="none" stroke="#63b8ff" d="M652.56,-74.39C697.93,-62.54 758.28,-46.77 801.25,-35.54"/>
<polygon fill="#63b8ff" stroke="#63b8ff" points="651.62,-71.02 642.83,-76.94 653.39,-77.79 651.62,-71.02"/>
</a>
</g>
</g>
<!-- Node9 -->
<g id="Node000009" class="node">
<title>Node9</title>
<g id="a_Node000009"><a xlink:href="../../de/d6b/apply__design__pattern_8cpp.html" target="_top" xlink:title="The definitions (apply_design_pattern) in the application module.">
<polygon fill="white" stroke="#666666" points="1081.5,-41 962.5,-41 962.5,0 1081.5,0 1081.5,-41"/>
<text text-anchor="start" x="970.5" y="-29" font-family="Helvetica,sans-Serif" font-size="10.00">application/example</text>
<text text-anchor="start" x="970.5" y="-18" font-family="Helvetica,sans-Serif" font-size="10.00">/source/apply_design</text>
<text text-anchor="middle" x="1022" y="-7" font-family="Helvetica,sans-Serif" font-size="10.00">_pattern.cpp</text>
</a>
</g>
</g>
<!-- Node2&#45;&gt;Node9 -->
<g id="edge8_Node000002_Node000009" class="edge">
<title>Node2&#45;&gt;Node9</title>
<g id="a_edge8_Node000002_Node000009"><a xlink:title=" ">
<path fill="none" stroke="#63b8ff" d="M665.92,-76.93C794.27,-57.76 829.78,-65.96 953,-41 956.05,-40.38 959.16,-39.7 962.3,-38.97"/>
<polygon fill="#63b8ff" stroke="#63b8ff" points="665.05,-73.53 655.69,-78.49 666.1,-80.45 665.05,-73.53"/>
</a>
</g>
</g>
<!-- Node10 -->
<g id="Node000010" class="node">
<title>Node10</title>
<g id="a_Node000010"><a xlink:href="../../d1/dee/apply__numeric_8cpp.html" target="_top" xlink:title="The definitions (apply_numeric) in the application module.">
<polygon fill="white" stroke="#666666" points="1246.5,-35.5 1099.5,-35.5 1099.5,-5.5 1246.5,-5.5 1246.5,-35.5"/>
<text text-anchor="start" x="1107.5" y="-23.5" font-family="Helvetica,sans-Serif" font-size="10.00">application/example</text>
<text text-anchor="middle" x="1173" y="-12.5" font-family="Helvetica,sans-Serif" font-size="10.00">/source/apply_numeric.cpp</text>
</a>
</g>
</g>
<!-- Node2&#45;&gt;Node10 -->
<g id="edge9_Node000002_Node000010" class="edge">
<title>Node2&#45;&gt;Node10</title>
<g id="a_edge9_Node000002_Node000010"><a xlink:title=" ">
<path fill="none" stroke="#63b8ff" d="M665.67,-77.01C855.08,-52.4 906.59,-70.55 1091,-41 1100.1,-39.54 1109.69,-37.62 1118.98,-35.55"/>
<polygon fill="#63b8ff" stroke="#63b8ff" points="665.12,-73.56 655.67,-78.34 666.04,-80.5 665.12,-73.56"/>
</a>
</g>
</g>
</g>
</svg>
