<?xml version="1.0" encoding="UTF-8" standalone="no"?>
<!DOCTYPE svg PUBLIC "-//W3C//DTD SVG 1.1//EN"
 "http://www.w3.org/Graphics/SVG/1.1/DTD/svg11.dtd">
<!-- Generated by graphviz version 2.43.0 (0)
 -->
<!-- Title: design_pattern::creational::builder::Product::makeA Pages: 1 -->
<svg width="335pt" height="108pt"
 viewBox="0.00 0.00 335.00 108.00" xmlns="http://www.w3.org/2000/svg" xmlns:xlink="http://www.w3.org/1999/xlink">
<g id="graph0" class="graph" transform="scale(1 1) rotate(0) translate(4 104)">
<title>design_pattern::creational::builder::Product::makeA</title>
<!-- Node1 -->
<g id="Node000001" class="node">
<title>Node1</title>
<g id="a_Node000001"><a xlink:title="Make part A.">
<polygon fill="#999999" stroke="#666666" points="327,-64.5 183,-64.5 183,-34.5 327,-34.5 327,-64.5"/>
<text text-anchor="start" x="191" y="-52.5" font-family="Helvetica,sans-Serif" font-size="10.00">design_pattern::creational</text>
<text text-anchor="middle" x="255" y="-41.5" font-family="Helvetica,sans-Serif" font-size="10.00">::builder::Product::makeA</text>
</a>
</g>
</g>
<!-- Node2 -->
<g id="Node000002" class="node">
<title>Node2</title>
<g id="a_Node000002"><a xlink:href="../../da/da9/classdesign__pattern_1_1creational_1_1builder_1_1ConcreteBuilderX.html#a6a7f32fbf85ba55b3995899348464049" target="_top" xlink:title="Build part A.">
<polygon fill="white" stroke="#666666" points="147,-100 0,-100 0,-59 147,-59 147,-100"/>
<text text-anchor="start" x="8" y="-88" font-family="Helvetica,sans-Serif" font-size="10.00">design_pattern::creational</text>
<text text-anchor="start" x="8" y="-77" font-family="Helvetica,sans-Serif" font-size="10.00">::builder::ConcreteBuilderX</text>
<text text-anchor="middle" x="73.5" y="-66" font-family="Helvetica,sans-Serif" font-size="10.00">::buildPartA</text>
</a>
</g>
</g>
<!-- Node1&#45;&gt;Node2 -->
<g id="edge1_Node000001_Node000002" class="edge">
<title>Node1&#45;&gt;Node2</title>
<g id="a_edge1_Node000001_Node000002"><a xlink:title=" ">
<path fill="none" stroke="#63b8ff" d="M172.8,-63.07C164.23,-64.5 155.55,-65.95 147.09,-67.37"/>
<polygon fill="#63b8ff" stroke="#63b8ff" points="173.51,-66.5 182.8,-61.4 172.36,-59.6 173.51,-66.5"/>
</a>
</g>
</g>
<!-- Node3 -->
<g id="Node000003" class="node">
<title>Node3</title>
<g id="a_Node000003"><a xlink:href="../../de/d37/classdesign__pattern_1_1creational_1_1builder_1_1ConcreteBuilderY.html#af2572adaf0d32b8c042402828f058019" target="_top" xlink:title="Build part A.">
<polygon fill="white" stroke="#666666" points="146.5,-41 0.5,-41 0.5,0 146.5,0 146.5,-41"/>
<text text-anchor="start" x="8.5" y="-29" font-family="Helvetica,sans-Serif" font-size="10.00">design_pattern::creational</text>
<text text-anchor="start" x="8.5" y="-18" font-family="Helvetica,sans-Serif" font-size="10.00">::builder::ConcreteBuilderY</text>
<text text-anchor="middle" x="73.5" y="-7" font-family="Helvetica,sans-Serif" font-size="10.00">::buildPartA</text>
</a>
</g>
</g>
<!-- Node1&#45;&gt;Node3 -->
<g id="edge2_Node000001_Node000003" class="edge">
<title>Node1&#45;&gt;Node3</title>
<g id="a_edge2_Node000001_Node000003"><a xlink:title=" ">
<path fill="none" stroke="#63b8ff" d="M172.72,-36.37C164.07,-34.97 155.32,-33.56 146.79,-32.18"/>
<polygon fill="#63b8ff" stroke="#63b8ff" points="172.37,-39.86 182.8,-38 173.49,-32.95 172.37,-39.86"/>
</a>
</g>
</g>
</g>
</svg>
