<?xml version="1.0" encoding="UTF-8" standalone="no"?>
<!DOCTYPE svg PUBLIC "-//W3C//DTD SVG 1.1//EN"
 "http://www.w3.org/Graphics/SVG/1.1/DTD/svg11.dtd">
<!-- Generated by graphviz version 2.43.0 (0)
 -->
<!-- Title: utility::socket::UDPSocket Pages: 1 -->
<svg width="149pt" height="293pt"
 viewBox="0.00 0.00 149.00 293.00" xmlns="http://www.w3.org/2000/svg" xmlns:xlink="http://www.w3.org/1999/xlink">
<g id="graph0" class="graph" transform="scale(1 1) rotate(0) translate(4 289)">
<title>utility::socket::UDPSocket</title>
<!-- Node1 -->
<g id="Node000001" class="node">
<title>Node1</title>
<g id="a_Node000001"><a xlink:title="UDP socket.">
<polygon fill="#999999" stroke="#666666" points="141,-19 0,-19 0,0 141,0 141,-19"/>
<text text-anchor="middle" x="70.5" y="-7" font-family="Helvetica,sans-Serif" font-size="10.00">utility::socket::UDPSocket</text>
</a>
</g>
</g>
<!-- Node2 -->
<g id="Node000002" class="node">
<title>Node2</title>
<g id="a_Node000002"><a xlink:href="../../dd/dcb/classutility_1_1socket_1_1Socket.html" target="_top" xlink:title="Network socket.">
<polygon fill="white" stroke="#666666" points="130.5,-75 10.5,-75 10.5,-56 130.5,-56 130.5,-75"/>
<text text-anchor="middle" x="70.5" y="-63" font-family="Helvetica,sans-Serif" font-size="10.00">utility::socket::Socket</text>
</a>
</g>
</g>
<!-- Node2&#45;&gt;Node1 -->
<g id="edge1_Node000001_Node000002" class="edge">
<title>Node2&#45;&gt;Node1</title>
<g id="a_edge1_Node000001_Node000002"><a xlink:title=" ">
<path fill="none" stroke="#63b8ff" d="M70.5,-45.3C70.5,-36.41 70.5,-26.28 70.5,-19.25"/>
<polygon fill="#63b8ff" stroke="#63b8ff" points="67,-45.58 70.5,-55.58 74,-45.58 67,-45.58"/>
</a>
</g>
</g>
<!-- Node3 -->
<g id="Node000003" class="node">
<title>Node3</title>
<g id="a_Node000003"><a target="_parent" xlink:href="https://gcc.gnu.org/onlinedocs/gcc-12.3.0/libstdc++/api/a02559.html" xlink:title=" ">
<polygon fill="white" stroke="#666666" points="125.5,-141 15.5,-141 15.5,-122 125.5,-122 125.5,-141"/>
<text text-anchor="middle" x="70.5" y="-129" font-family="Helvetica,sans-Serif" font-size="10.00">std::future&lt; void &gt;</text>
</a>
</g>
</g>
<!-- Node3&#45;&gt;Node2 -->
<g id="edge2_Node000002_Node000003" class="edge">
<title>Node3&#45;&gt;Node2</title>
<g id="a_edge2_Node000002_Node000003"><a xlink:title=" ">
<path fill="none" stroke="#9a32cd" stroke-dasharray="5,2" d="M70.5,-111.58C70.5,-99.63 70.5,-84.72 70.5,-75.41"/>
<polygon fill="#9a32cd" stroke="#9a32cd" points="67,-111.87 70.5,-121.87 74,-111.87 67,-111.87"/>
</a>
</g>
<text text-anchor="middle" x="79" y="-96" font-family="Helvetica,sans-Serif" font-size="10.00" fill="grey"> fut</text>
</g>
<!-- Node4 -->
<g id="Node000004" class="node">
<title>Node4</title>
<g id="a_Node000004"><a target="_parent" xlink:href="https://gcc.gnu.org/onlinedocs/gcc-12.3.0/libstdc++/api/a02547.html" xlink:title=" ">
<polygon fill="white" stroke="#666666" points="124.5,-208 16.5,-208 16.5,-178 124.5,-178 124.5,-208"/>
<text text-anchor="start" x="24.5" y="-196" font-family="Helvetica,sans-Serif" font-size="10.00">std::__basic_future</text>
<text text-anchor="middle" x="70.5" y="-185" font-family="Helvetica,sans-Serif" font-size="10.00">&lt; void &gt;</text>
</a>
</g>
</g>
<!-- Node4&#45;&gt;Node3 -->
<g id="edge3_Node000003_Node000004" class="edge">
<title>Node4&#45;&gt;Node3</title>
<g id="a_edge3_Node000003_Node000004"><a xlink:title=" ">
<path fill="none" stroke="#63b8ff" d="M70.5,-167.79C70.5,-158.36 70.5,-148.15 70.5,-141.16"/>
<polygon fill="#63b8ff" stroke="#63b8ff" points="67,-167.9 70.5,-177.9 74,-167.9 67,-167.9"/>
</a>
</g>
</g>
<!-- Node5 -->
<g id="Node000005" class="node">
<title>Node5</title>
<g id="a_Node000005"><a target="_parent" xlink:href="https://gcc.gnu.org/onlinedocs/gcc-12.3.0/libstdc++/api/a02547.html" xlink:title=" ">
<polygon fill="white" stroke="#666666" points="128,-285 13,-285 13,-255 128,-255 128,-285"/>
<text text-anchor="start" x="21" y="-273" font-family="Helvetica,sans-Serif" font-size="10.00">std::__basic_future</text>
<text text-anchor="middle" x="70.5" y="-262" font-family="Helvetica,sans-Serif" font-size="10.00">&lt; typename _Res &gt;</text>
</a>
</g>
</g>
<!-- Node5&#45;&gt;Node4 -->
<g id="edge4_Node000004_Node000005" class="edge">
<title>Node5&#45;&gt;Node4</title>
<g id="a_edge4_Node000004_Node000005"><a xlink:title=" ">
<path fill="none" stroke="orange" stroke-dasharray="5,2" d="M70.5,-244.54C70.5,-232.45 70.5,-218.29 70.5,-208.04"/>
<polygon fill="orange" stroke="orange" points="67,-244.89 70.5,-254.89 74,-244.89 67,-244.89"/>
</a>
</g>
<text text-anchor="middle" x="94" y="-229" font-family="Helvetica,sans-Serif" font-size="10.00" fill="grey"> &lt; void &gt;</text>
</g>
</g>
</svg>
