<?xml version="1.0" encoding="UTF-8" standalone="no"?>
<!DOCTYPE svg PUBLIC "-//W3C//DTD SVG 1.1//EN"
 "http://www.w3.org/Graphics/SVG/1.1/DTD/svg11.dtd">
<!-- Generated by graphviz version 2.43.0 (0)
 -->
<!-- Title: utility::currying::Curried&lt; Callable, std::tuple&lt; CurriedArgs... &gt;, std::tuple&lt; UncurriedArgs... &gt; &gt; Pages: 1 -->
<svg width="248pt" height="358pt"
 viewBox="0.00 0.00 247.50 358.00" xmlns="http://www.w3.org/2000/svg" xmlns:xlink="http://www.w3.org/1999/xlink">
<g id="graph0" class="graph" transform="scale(1 1) rotate(0) translate(4 354)">
<title>utility::currying::Curried&lt; Callable, std::tuple&lt; CurriedArgs... &gt;, std::tuple&lt; UncurriedArgs... &gt; &gt;</title>
<!-- Node1 -->
<g id="Node000001" class="node">
<title>Node1</title>
<g id="a_Node000001"><a xlink:title="Completion of curry.">
<polygon fill="#999999" stroke="#666666" points="191,-52 0,-52 0,0 191,0 191,-52"/>
<text text-anchor="start" x="8" y="-40" font-family="Helvetica,sans-Serif" font-size="10.00">utility::currying::</text>
<text text-anchor="start" x="8" y="-29" font-family="Helvetica,sans-Serif" font-size="10.00">Curried&lt; Callable, std</text>
<text text-anchor="start" x="8" y="-18" font-family="Helvetica,sans-Serif" font-size="10.00">::tuple&lt; CurriedArgs...</text>
<text text-anchor="middle" x="95.5" y="-7" font-family="Helvetica,sans-Serif" font-size="10.00"> &gt;, std::tuple&lt; UncurriedArgs... &gt; &gt;</text>
</a>
</g>
</g>
<!-- Node2 -->
<g id="Node000002" class="node">
<title>Node2</title>
<g id="a_Node000002"><a target="_parent" xlink:href="https://gcc.gnu.org/onlinedocs/gcc-12.3.0/libstdc++/api/a03499.html" xlink:title=" ">
<polygon fill="white" stroke="#666666" points="171,-118 20,-118 20,-99 171,-99 171,-118"/>
<text text-anchor="middle" x="95.5" y="-106" font-family="Helvetica,sans-Serif" font-size="10.00">std::tuple&lt; CurriedArgs... &gt;</text>
</a>
</g>
</g>
<!-- Node2&#45;&gt;Node1 -->
<g id="edge1_Node000001_Node000002" class="edge">
<title>Node2&#45;&gt;Node1</title>
<g id="a_edge1_Node000001_Node000002"><a xlink:title=" ">
<path fill="none" stroke="#9a32cd" stroke-dasharray="5,2" d="M95.5,-88.85C95.5,-77.99 95.5,-64.14 95.5,-52.31"/>
<polygon fill="#9a32cd" stroke="#9a32cd" points="92,-88.89 95.5,-98.89 99,-88.89 92,-88.89"/>
</a>
</g>
<text text-anchor="middle" x="125" y="-73" font-family="Helvetica,sans-Serif" font-size="10.00" fill="grey"> curriedArgs</text>
</g>
<!-- Node3 -->
<g id="Node000003" class="node">
<title>Node3</title>
<g id="a_Node000003"><a target="_parent" xlink:href="https://gcc.gnu.org/onlinedocs/gcc-12.3.0/libstdc++/api/a03523.html" xlink:title=" ">
<polygon fill="white" stroke="#666666" points="149.5,-262 33.5,-262 33.5,-232 149.5,-232 149.5,-262"/>
<text text-anchor="start" x="41.5" y="-250" font-family="Helvetica,sans-Serif" font-size="10.00">std::_Tuple_impl&lt; 0,</text>
<text text-anchor="middle" x="91.5" y="-239" font-family="Helvetica,sans-Serif" font-size="10.00"> _Elements... &gt;</text>
</a>
</g>
</g>
<!-- Node3&#45;&gt;Node2 -->
<g id="edge2_Node000002_Node000003" class="edge">
<title>Node3&#45;&gt;Node2</title>
<g id="a_edge2_Node000002_Node000003"><a xlink:title=" ">
<path fill="none" stroke="#63b8ff" d="M92.22,-221.51C93.13,-190.48 94.65,-138.57 95.25,-118.14"/>
<polygon fill="#63b8ff" stroke="#63b8ff" points="88.71,-221.81 91.91,-231.91 95.7,-222.01 88.71,-221.81"/>
</a>
</g>
</g>
<!-- Node5 -->
<g id="Node000005" class="node">
<title>Node5</title>
<g id="a_Node000005"><a target="_parent" xlink:href="https://gcc.gnu.org/onlinedocs/gcc-12.3.0/libstdc++/api/a03499.html" xlink:title=" ">
<polygon fill="white" stroke="#666666" points="239.5,-195 107.5,-195 107.5,-165 239.5,-165 239.5,-195"/>
<text text-anchor="start" x="115.5" y="-183" font-family="Helvetica,sans-Serif" font-size="10.00">std::tuple&lt; typename...</text>
<text text-anchor="middle" x="173.5" y="-172" font-family="Helvetica,sans-Serif" font-size="10.00"> _Elements &gt;</text>
</a>
</g>
</g>
<!-- Node3&#45;&gt;Node5 -->
<g id="edge5_Node000005_Node000003" class="edge">
<title>Node3&#45;&gt;Node5</title>
<g id="a_edge5_Node000005_Node000003"><a xlink:title=" ">
<path fill="none" stroke="#63b8ff" d="M117.15,-225.67C129.69,-215.73 144.47,-204.01 155.74,-195.08"/>
<polygon fill="#63b8ff" stroke="#63b8ff" points="114.96,-222.94 109.29,-231.9 119.3,-228.43 114.96,-222.94"/>
</a>
</g>
</g>
<!-- Node4 -->
<g id="Node000004" class="node">
<title>Node4</title>
<g id="a_Node000004"><a target="_parent" xlink:href="https://gcc.gnu.org/onlinedocs/gcc-12.3.0/libstdc++/api/a03523.html" xlink:title=" ">
<polygon fill="white" stroke="#666666" points="154.5,-350 28.5,-350 28.5,-309 154.5,-309 154.5,-350"/>
<text text-anchor="start" x="36.5" y="-338" font-family="Helvetica,sans-Serif" font-size="10.00">std::_Tuple_impl&lt; size</text>
<text text-anchor="start" x="36.5" y="-327" font-family="Helvetica,sans-Serif" font-size="10.00">_t _Idx, typename... </text>
<text text-anchor="middle" x="91.5" y="-316" font-family="Helvetica,sans-Serif" font-size="10.00">_Elements &gt;</text>
</a>
</g>
</g>
<!-- Node4&#45;&gt;Node3 -->
<g id="edge3_Node000003_Node000004" class="edge">
<title>Node4&#45;&gt;Node3</title>
<g id="a_edge3_Node000003_Node000004"><a xlink:title=" ">
<path fill="none" stroke="orange" stroke-dasharray="5,2" d="M91.5,-298.26C91.5,-285.96 91.5,-272.33 91.5,-262.37"/>
<polygon fill="orange" stroke="orange" points="88,-298.6 91.5,-308.6 95,-298.6 88,-298.6"/>
</a>
</g>
<text text-anchor="middle" x="140.5" y="-283" font-family="Helvetica,sans-Serif" font-size="10.00" fill="grey"> &lt; 0, _Elements... &gt;</text>
</g>
<!-- Node5&#45;&gt;Node2 -->
<g id="edge4_Node000002_Node000005" class="edge">
<title>Node5&#45;&gt;Node2</title>
<g id="a_edge4_Node000002_Node000005"><a xlink:title=" ">
<path fill="none" stroke="orange" stroke-dasharray="5,2" d="M149.86,-157.94C134.95,-144.65 116.46,-128.17 105.34,-118.27"/>
<polygon fill="orange" stroke="orange" points="147.92,-160.9 157.72,-164.94 152.58,-155.67 147.92,-160.9"/>
</a>
</g>
<text text-anchor="middle" x="182.5" y="-139" font-family="Helvetica,sans-Serif" font-size="10.00" fill="grey"> &lt; CurriedArgs... &gt;</text>
</g>
</g>
</svg>
