<?xml version="1.0" encoding="UTF-8" standalone="no"?>
<!DOCTYPE svg PUBLIC "-//W3C//DTD SVG 1.1//EN"
 "http://www.w3.org/Graphics/SVG/1.1/DTD/svg11.dtd">
<!-- Generated by graphviz version 2.43.0 (0)
 -->
<!-- Title: algorithm::optimal::Function Pages: 1 -->
<svg width="294pt" height="86pt"
 viewBox="0.00 0.00 294.00 86.00" xmlns="http://www.w3.org/2000/svg" xmlns:xlink="http://www.w3.org/1999/xlink">
<g id="graph0" class="graph" transform="scale(1 1) rotate(0) translate(4 82)">
<title>algorithm::optimal::Function</title>
<!-- Node1 -->
<g id="Node000001" class="node">
<title>Node1</title>
<g id="a_Node000001"><a xlink:title="Target functions.">
<polygon fill="#999999" stroke="#666666" points="107,-54 0,-54 0,-24 107,-24 107,-54"/>
<text text-anchor="start" x="8" y="-42" font-family="Helvetica,sans-Serif" font-size="10.00">algorithm::optimal</text>
<text text-anchor="middle" x="53.5" y="-31" font-family="Helvetica,sans-Serif" font-size="10.00">::Function</text>
</a>
</g>
</g>
<!-- Node2 -->
<g id="Node000002" class="node">
<title>Node2</title>
<g id="a_Node000002"><a xlink:href="../../d0/d58/classapplication_1_1app__algo_1_1optimal_1_1input_1_1Griewank.html" target="_top" xlink:title="Griewank function.">
<polygon fill="white" stroke="#666666" points="286,-78 143,-78 143,-48 286,-48 286,-78"/>
<text text-anchor="start" x="151" y="-66" font-family="Helvetica,sans-Serif" font-size="10.00">application::app_algo</text>
<text text-anchor="middle" x="214.5" y="-55" font-family="Helvetica,sans-Serif" font-size="10.00">::optimal::input::Griewank</text>
</a>
</g>
</g>
<!-- Node1&#45;&gt;Node2 -->
<g id="edge1_Node000001_Node000002" class="edge">
<title>Node1&#45;&gt;Node2</title>
<g id="a_edge1_Node000001_Node000002"><a xlink:title=" ">
<path fill="none" stroke="#63b8ff" d="M117.15,-48.46C125.6,-49.73 134.32,-51.05 142.9,-52.34"/>
<polygon fill="#63b8ff" stroke="#63b8ff" points="117.41,-44.96 107,-46.93 116.37,-51.88 117.41,-44.96"/>
</a>
</g>
</g>
<!-- Node3 -->
<g id="Node000003" class="node">
<title>Node3</title>
<g id="a_Node000003"><a xlink:href="../../d3/d97/classapplication_1_1app__algo_1_1optimal_1_1input_1_1Rastrigin.html" target="_top" xlink:title="Rastrigin function.">
<polygon fill="white" stroke="#666666" points="284.5,-30 144.5,-30 144.5,0 284.5,0 284.5,-30"/>
<text text-anchor="start" x="152.5" y="-18" font-family="Helvetica,sans-Serif" font-size="10.00">application::app_algo</text>
<text text-anchor="middle" x="214.5" y="-7" font-family="Helvetica,sans-Serif" font-size="10.00">::optimal::input::Rastrigin</text>
</a>
</g>
</g>
<!-- Node1&#45;&gt;Node3 -->
<g id="edge2_Node000001_Node000003" class="edge">
<title>Node1&#45;&gt;Node3</title>
<g id="a_edge2_Node000001_Node000003"><a xlink:title=" ">
<path fill="none" stroke="#63b8ff" d="M116.98,-29.57C125.95,-28.21 135.23,-26.81 144.32,-25.44"/>
<polygon fill="#63b8ff" stroke="#63b8ff" points="116.37,-26.12 107,-31.07 117.41,-33.04 116.37,-26.12"/>
</a>
</g>
</g>
</g>
</svg>
