<?xml version="1.0" encoding="UTF-8" standalone="no"?>
<!DOCTYPE svg PUBLIC "-//W3C//DTD SVG 1.1//EN"
 "http://www.w3.org/Graphics/SVG/1.1/DTD/svg11.dtd">
<!-- Generated by graphviz version 2.43.0 (0)
 -->
<!-- Title: utility::json::JSON::clearData Pages: 1 -->
<svg width="973pt" height="327pt"
 viewBox="0.00 0.00 973.00 326.50" xmlns="http://www.w3.org/2000/svg" xmlns:xlink="http://www.w3.org/1999/xlink">
<g id="graph0" class="graph" transform="scale(1 1) rotate(0) translate(4 322.5)">
<title>utility::json::JSON::clearData</title>
<!-- Node1 -->
<g id="Node000001" class="node">
<title>Node1</title>
<g id="a_Node000001"><a xlink:title="Clear the data.">
<polygon fill="#999999" stroke="#666666" points="965,-222 864,-222 864,-192 965,-192 965,-222"/>
<text text-anchor="start" x="872" y="-210" font-family="Helvetica,sans-Serif" font-size="10.00">utility::json::JSON</text>
<text text-anchor="middle" x="914.5" y="-199" font-family="Helvetica,sans-Serif" font-size="10.00">::clearData</text>
</a>
</g>
</g>
<!-- Node2 -->
<g id="Node000002" class="node">
<title>Node2</title>
<g id="a_Node000002"><a xlink:href="../../d5/d0b/classutility_1_1json_1_1JSON.html#af5cb136cf4afe45323b842f281f248c2" target="_top" xlink:title="The operator (=) overloading of JSON class.">
<polygon fill="white" stroke="#666666" points="828,-246 727,-246 727,-216 828,-216 828,-246"/>
<text text-anchor="start" x="735" y="-234" font-family="Helvetica,sans-Serif" font-size="10.00">utility::json::JSON</text>
<text text-anchor="middle" x="777.5" y="-223" font-family="Helvetica,sans-Serif" font-size="10.00">::operator=</text>
</a>
</g>
</g>
<!-- Node1&#45;&gt;Node2 -->
<g id="edge1_Node000001_Node000002" class="edge">
<title>Node1&#45;&gt;Node2</title>
<g id="a_edge1_Node000001_Node000002"><a xlink:title=" ">
<path fill="none" stroke="#63b8ff" d="M854.07,-217.57C845.52,-219.09 836.79,-220.64 828.45,-222.12"/>
<polygon fill="#63b8ff" stroke="#63b8ff" points="854.76,-221 864,-215.8 853.54,-214.1 854.76,-221"/>
</a>
</g>
</g>
<!-- Node3 -->
<g id="Node000003" class="node">
<title>Node3</title>
<g id="a_Node000003"><a xlink:href="../../d5/d0b/classutility_1_1json_1_1JSON.html#a76c3b1170105a6dce4026ff54bd6596d" target="_top" xlink:title="Set the data type.">
<polygon fill="white" stroke="#666666" points="828,-198 727,-198 727,-168 828,-168 828,-198"/>
<text text-anchor="start" x="735" y="-186" font-family="Helvetica,sans-Serif" font-size="10.00">utility::json::JSON</text>
<text text-anchor="middle" x="777.5" y="-175" font-family="Helvetica,sans-Serif" font-size="10.00">::setType</text>
</a>
</g>
</g>
<!-- Node1&#45;&gt;Node3 -->
<g id="edge2_Node000001_Node000003" class="edge">
<title>Node1&#45;&gt;Node3</title>
<g id="a_edge2_Node000001_Node000003"><a xlink:title=" ">
<path fill="none" stroke="#63b8ff" d="M854.07,-196.43C845.52,-194.91 836.79,-193.36 828.45,-191.88"/>
<polygon fill="#63b8ff" stroke="#63b8ff" points="853.54,-199.9 864,-198.2 854.76,-193 853.54,-199.9"/>
</a>
</g>
</g>
<!-- Node4 -->
<g id="Node000004" class="node">
<title>Node4</title>
<g id="a_Node000004"><a xlink:href="../../d5/d0b/classutility_1_1json_1_1JSON.html#ac1ec9aff420e6e669bf59adcbd3bc9f1" target="_top" xlink:title="Append item to array. Convert to array type.">
<polygon fill="white" stroke="#666666" points="691,-308 590,-308 590,-278 691,-278 691,-308"/>
<text text-anchor="start" x="598" y="-296" font-family="Helvetica,sans-Serif" font-size="10.00">utility::json::JSON</text>
<text text-anchor="middle" x="640.5" y="-285" font-family="Helvetica,sans-Serif" font-size="10.00">::append</text>
</a>
</g>
</g>
<!-- Node3&#45;&gt;Node4 -->
<g id="edge3_Node000003_Node000004" class="edge">
<title>Node3&#45;&gt;Node4</title>
<g id="a_edge3_Node000003_Node000004"><a xlink:title=" ">
<path fill="none" stroke="#63b8ff" d="M730.99,-203.71C729.61,-204.77 728.27,-205.86 727,-207 704.66,-226.97 712.54,-243.17 691,-264 685.56,-269.26 678.99,-273.96 672.43,-277.96"/>
<polygon fill="#63b8ff" stroke="#63b8ff" points="732.98,-206.59 739.35,-198.13 729.09,-200.77 732.98,-206.59"/>
</a>
</g>
</g>
<!-- Node6 -->
<g id="Node000006" class="node">
<title>Node6</title>
<g id="a_Node000006"><a xlink:href="../../d5/d0b/classutility_1_1json_1_1JSON.html#a8e42bc70610eeb59807a8baea20d9ca8" target="_top" xlink:title="Construct a new JSON object.">
<polygon fill="white" stroke="#666666" points="546.5,-233 445.5,-233 445.5,-203 546.5,-203 546.5,-233"/>
<text text-anchor="start" x="453.5" y="-221" font-family="Helvetica,sans-Serif" font-size="10.00">utility::json::JSON</text>
<text text-anchor="middle" x="496" y="-210" font-family="Helvetica,sans-Serif" font-size="10.00">::JSON</text>
</a>
</g>
</g>
<!-- Node3&#45;&gt;Node6 -->
<g id="edge5_Node000003_Node000006" class="edge">
<title>Node3&#45;&gt;Node6</title>
<g id="a_edge5_Node000003_Node000006"><a xlink:title=" ">
<path fill="none" stroke="#63b8ff" d="M734.69,-202.76C732.07,-204.16 729.49,-205.58 727,-207 710.31,-216.55 709.4,-225.43 691,-231 643.51,-245.38 586.59,-238.96 546.73,-230.88"/>
<polygon fill="#63b8ff" stroke="#63b8ff" points="736.4,-205.82 743.69,-198.13 733.19,-199.6 736.4,-205.82"/>
</a>
</g>
</g>
<!-- Node7 -->
<g id="Node000007" class="node">
<title>Node7</title>
<g id="a_Node000007"><a xlink:href="../../d5/d0b/classutility_1_1json_1_1JSON.html#a5a744c74b0a2040a44492eae2ae853b5" target="_top" xlink:title="Construct a new JSON object.">
<polygon fill="white" stroke="#666666" points="691,-222 590,-222 590,-192 691,-192 691,-222"/>
<text text-anchor="start" x="598" y="-210" font-family="Helvetica,sans-Serif" font-size="10.00">utility::json::JSON</text>
<text text-anchor="middle" x="640.5" y="-199" font-family="Helvetica,sans-Serif" font-size="10.00">::JSON</text>
</a>
</g>
</g>
<!-- Node3&#45;&gt;Node7 -->
<g id="edge6_Node000003_Node000007" class="edge">
<title>Node3&#45;&gt;Node7</title>
<g id="a_edge6_Node000003_Node000007"><a xlink:title=" ">
<path fill="none" stroke="#63b8ff" d="M717.07,-193.57C708.52,-195.09 699.79,-196.64 691.45,-198.12"/>
<polygon fill="#63b8ff" stroke="#63b8ff" points="717.76,-197 727,-191.8 716.54,-190.1 717.76,-197"/>
</a>
</g>
</g>
<!-- Node8 -->
<g id="Node000008" class="node">
<title>Node8</title>
<g id="a_Node000008"><a xlink:href="../../d5/d0b/classutility_1_1json_1_1JSON.html#a013b99ea0ba83cbf78d33911f5766a57" target="_top" xlink:title="The operator (=) overloading of JSON class.">
<polygon fill="white" stroke="#666666" points="691,-174 590,-174 590,-144 691,-144 691,-174"/>
<text text-anchor="start" x="598" y="-162" font-family="Helvetica,sans-Serif" font-size="10.00">utility::json::JSON</text>
<text text-anchor="middle" x="640.5" y="-151" font-family="Helvetica,sans-Serif" font-size="10.00">::operator=</text>
</a>
</g>
</g>
<!-- Node3&#45;&gt;Node8 -->
<g id="edge7_Node000003_Node000008" class="edge">
<title>Node3&#45;&gt;Node8</title>
<g id="a_edge7_Node000003_Node000008"><a xlink:title=" ">
<path fill="none" stroke="#63b8ff" d="M717.07,-172.43C708.52,-170.91 699.79,-169.36 691.45,-167.88"/>
<polygon fill="#63b8ff" stroke="#63b8ff" points="716.54,-175.9 727,-174.2 717.76,-169 716.54,-175.9"/>
</a>
</g>
</g>
<!-- Node9 -->
<g id="Node000009" class="node">
<title>Node9</title>
<g id="a_Node000009"><a xlink:href="../../d5/d0b/classutility_1_1json_1_1JSON.html#a56dd76247b20fbfa5ca911f6da3eca5b" target="_top" xlink:title="The operator ([]) overloading of JSON class.">
<polygon fill="white" stroke="#666666" points="691,-126 590,-126 590,-96 691,-96 691,-126"/>
<text text-anchor="start" x="598" y="-114" font-family="Helvetica,sans-Serif" font-size="10.00">utility::json::JSON</text>
<text text-anchor="middle" x="640.5" y="-103" font-family="Helvetica,sans-Serif" font-size="10.00">::operator[]</text>
</a>
</g>
</g>
<!-- Node3&#45;&gt;Node9 -->
<g id="edge8_Node000003_Node000009" class="edge">
<title>Node3&#45;&gt;Node9</title>
<g id="a_edge8_Node000003_Node000009"><a xlink:title=" ">
<path fill="none" stroke="#63b8ff" d="M741.82,-162.91C726.38,-154.12 707.9,-143.83 691,-135 685.33,-132.04 679.24,-128.98 673.33,-126.08"/>
<polygon fill="#63b8ff" stroke="#63b8ff" points="740.11,-165.96 750.53,-167.88 743.58,-159.88 740.11,-165.96"/>
</a>
</g>
</g>
<!-- Node24 -->
<g id="Node000024" class="node">
<title>Node24</title>
<g id="a_Node000024"><a xlink:href="../../d5/d0b/classutility_1_1json_1_1JSON.html#ac1e62a1fb037febbfc4f13f3d86d6acc" target="_top" xlink:title="The operator ([]) overloading of JSON class.">
<polygon fill="white" stroke="#666666" points="691,-78 590,-78 590,-48 691,-48 691,-78"/>
<text text-anchor="start" x="598" y="-66" font-family="Helvetica,sans-Serif" font-size="10.00">utility::json::JSON</text>
<text text-anchor="middle" x="640.5" y="-55" font-family="Helvetica,sans-Serif" font-size="10.00">::operator[]</text>
</a>
</g>
</g>
<!-- Node3&#45;&gt;Node24 -->
<g id="edge27_Node000003_Node000024" class="edge">
<title>Node3&#45;&gt;Node24</title>
<g id="a_edge27_Node000003_Node000024"><a xlink:title=" ">
<path fill="none" stroke="#63b8ff" d="M759.87,-159.58C744.02,-138.53 718.54,-107.82 691,-87 686.66,-83.72 681.79,-80.71 676.86,-78.01"/>
<polygon fill="#63b8ff" stroke="#63b8ff" points="757.09,-161.71 765.85,-167.67 762.72,-157.55 757.09,-161.71"/>
</a>
</g>
</g>
<!-- Node5 -->
<g id="Node000005" class="node">
<title>Node5</title>
<g id="a_Node000005"><a xlink:href="../../d5/d0b/classutility_1_1json_1_1JSON.html#a1eba7b533821289a53e13a946aa7ca39" target="_top" xlink:title="Append multiple items to array. Convert to array type.">
<polygon fill="white" stroke="#666666" points="546.5,-308 445.5,-308 445.5,-278 546.5,-278 546.5,-308"/>
<text text-anchor="start" x="453.5" y="-296" font-family="Helvetica,sans-Serif" font-size="10.00">utility::json::JSON</text>
<text text-anchor="middle" x="496" y="-285" font-family="Helvetica,sans-Serif" font-size="10.00">::append</text>
</a>
</g>
</g>
<!-- Node4&#45;&gt;Node5 -->
<g id="edge4_Node000004_Node000005" class="edge">
<title>Node4&#45;&gt;Node5</title>
<g id="a_edge4_Node000004_Node000005"><a xlink:title=" ">
<path fill="none" stroke="#63b8ff" d="M579.34,-293C568.42,-293 557.14,-293 546.57,-293"/>
<polygon fill="#63b8ff" stroke="#63b8ff" points="579.66,-296.5 589.66,-293 579.66,-289.5 579.66,-296.5"/>
</a>
</g>
</g>
<!-- Node9&#45;&gt;Node6 -->
<g id="edge26_Node000009_Node000006" class="edge">
<title>Node9&#45;&gt;Node6</title>
<g id="a_edge26_Node000009_Node000006"><a xlink:title=" ">
<path fill="none" stroke="#63b8ff" d="M596.49,-130.92C594.26,-132.24 592.08,-133.61 590,-135 559.61,-155.35 528.81,-185 511.39,-202.81"/>
<polygon fill="#63b8ff" stroke="#63b8ff" points="598.21,-133.97 605.26,-126.06 594.81,-127.85 598.21,-133.97"/>
</a>
</g>
</g>
<!-- Node10 -->
<g id="Node000010" class="node">
<title>Node10</title>
<g id="a_Node000010"><a xlink:href="../../d5/d0b/classutility_1_1json_1_1JSON.html#afe40379d00fdca5132a672d16c76a805" target="_top" xlink:title="Get the JSON object by key.">
<polygon fill="white" stroke="#666666" points="554,-139.5 438,-139.5 438,-120.5 554,-120.5 554,-139.5"/>
<text text-anchor="middle" x="496" y="-127.5" font-family="Helvetica,sans-Serif" font-size="10.00">utility::json::JSON::at</text>
</a>
</g>
</g>
<!-- Node9&#45;&gt;Node10 -->
<g id="edge9_Node000009_Node000010" class="edge">
<title>Node9&#45;&gt;Node10</title>
<g id="a_edge9_Node000009_Node000010"><a xlink:title=" ">
<path fill="none" stroke="#63b8ff" d="M579.61,-118.99C571.25,-120.1 562.68,-121.24 554.38,-122.35"/>
<polygon fill="#63b8ff" stroke="#63b8ff" points="580.21,-122.44 589.66,-117.65 579.29,-115.5 580.21,-122.44"/>
</a>
</g>
</g>
<!-- Node23 -->
<g id="Node000023" class="node">
<title>Node23</title>
<g id="a_Node000023"><a xlink:href="../../d5/d0b/classutility_1_1json_1_1JSON.html#a4eec3a1f0d8242a57c0253520c0bb0c7" target="_top" xlink:title="Get the JSON object by index.">
<polygon fill="white" stroke="#666666" points="554,-102.5 438,-102.5 438,-83.5 554,-83.5 554,-102.5"/>
<text text-anchor="middle" x="496" y="-90.5" font-family="Helvetica,sans-Serif" font-size="10.00">utility::json::JSON::at</text>
</a>
</g>
</g>
<!-- Node9&#45;&gt;Node23 -->
<g id="edge25_Node000009_Node000023" class="edge">
<title>Node9&#45;&gt;Node23</title>
<g id="a_edge25_Node000009_Node000023"><a xlink:title=" ">
<path fill="none" stroke="#63b8ff" d="M579.61,-103.43C571.25,-102.38 562.68,-101.3 554.38,-100.25"/>
<polygon fill="#63b8ff" stroke="#63b8ff" points="579.3,-106.92 589.66,-104.7 580.18,-99.98 579.3,-106.92"/>
</a>
</g>
</g>
<!-- Node11 -->
<g id="Node000011" class="node">
<title>Node11</title>
<g id="a_Node000011"><a xlink:href="../../d1/d5d/classapplication_1_1app__ds_1_1tree_1_1Tree.html#a8750ca85f04ec45001185fd741a8e6e1" target="_top" xlink:title="Adelson&#45;Velsky&#45;Landis.">
<polygon fill="white" stroke="#666666" points="402,-265 291,-265 291,-235 402,-235 402,-265"/>
<text text-anchor="start" x="299" y="-253" font-family="Helvetica,sans-Serif" font-size="10.00">application::app_ds</text>
<text text-anchor="middle" x="346.5" y="-242" font-family="Helvetica,sans-Serif" font-size="10.00">::tree::Tree::avl</text>
</a>
</g>
</g>
<!-- Node10&#45;&gt;Node11 -->
<g id="edge10_Node000010_Node000011" class="edge">
<title>Node10&#45;&gt;Node11</title>
<g id="a_edge10_Node000010_Node000011"><a xlink:title=" ">
<path fill="none" stroke="#63b8ff" d="M475.12,-146.18C446.51,-169.45 394.11,-212.08 366.18,-234.8"/>
<polygon fill="#63b8ff" stroke="#63b8ff" points="477.63,-148.64 483.18,-139.62 473.21,-143.21 477.63,-148.64"/>
</a>
</g>
</g>
<!-- Node14 -->
<g id="Node000014" class="node">
<title>Node14</title>
<g id="a_Node000014"><a xlink:href="../../d1/d5d/classapplication_1_1app__ds_1_1tree_1_1Tree.html#a3a122b652b5f6d0091853739a4dad58d" target="_top" xlink:title="Binary search.">
<polygon fill="white" stroke="#666666" points="402,-178 291,-178 291,-148 402,-148 402,-178"/>
<text text-anchor="start" x="299" y="-166" font-family="Helvetica,sans-Serif" font-size="10.00">application::app_ds</text>
<text text-anchor="middle" x="346.5" y="-155" font-family="Helvetica,sans-Serif" font-size="10.00">::tree::Tree::bs</text>
</a>
</g>
</g>
<!-- Node10&#45;&gt;Node14 -->
<g id="edge14_Node000010_Node000014" class="edge">
<title>Node10&#45;&gt;Node14</title>
<g id="a_edge14_Node000010_Node000014"><a xlink:title=" ">
<path fill="none" stroke="#63b8ff" d="M442.54,-141.74C429.45,-144.67 415.37,-147.81 402.17,-150.77"/>
<polygon fill="#63b8ff" stroke="#63b8ff" points="443.34,-145.14 452.34,-139.54 441.81,-138.31 443.34,-145.14"/>
</a>
</g>
</g>
<!-- Node17 -->
<g id="Node000017" class="node">
<title>Node17</title>
<g id="a_Node000017"><a xlink:href="../../d1/d5d/classapplication_1_1app__ds_1_1tree_1_1Tree.html#a137b3dbbf61e624b173b26503a766f3c" target="_top" xlink:title="Splay.">
<polygon fill="white" stroke="#666666" points="402,-112 291,-112 291,-82 402,-82 402,-112"/>
<text text-anchor="start" x="299" y="-100" font-family="Helvetica,sans-Serif" font-size="10.00">application::app_ds</text>
<text text-anchor="middle" x="346.5" y="-89" font-family="Helvetica,sans-Serif" font-size="10.00">::tree::Tree::splay</text>
</a>
</g>
</g>
<!-- Node10&#45;&gt;Node17 -->
<g id="edge18_Node000010_Node000017" class="edge">
<title>Node10&#45;&gt;Node17</title>
<g id="a_edge18_Node000010_Node000017"><a xlink:title=" ">
<path fill="none" stroke="#63b8ff" d="M442.54,-118.26C429.45,-115.33 415.37,-112.19 402.17,-109.23"/>
<polygon fill="#63b8ff" stroke="#63b8ff" points="441.81,-121.69 452.34,-120.46 443.34,-114.86 441.81,-121.69"/>
</a>
</g>
</g>
<!-- Node20 -->
<g id="Node000020" class="node">
<title>Node20</title>
<g id="a_Node000020"><a xlink:href="../../d0/d11/classapplication_1_1config_1_1Config.html#adc220be047396cd0201fbd15d2093bd8" target="_top" xlink:title="Verify the data.">
<polygon fill="white" stroke="#666666" points="401.5,-52 291.5,-52 291.5,-22 401.5,-22 401.5,-52"/>
<text text-anchor="start" x="299.5" y="-40" font-family="Helvetica,sans-Serif" font-size="10.00">application::config</text>
<text text-anchor="middle" x="346.5" y="-29" font-family="Helvetica,sans-Serif" font-size="10.00">::Config::verifyData</text>
</a>
</g>
</g>
<!-- Node10&#45;&gt;Node20 -->
<g id="edge22_Node000010_Node000020" class="edge">
<title>Node10&#45;&gt;Node20</title>
<g id="a_edge22_Node000010_Node000020"><a xlink:title=" ">
<path fill="none" stroke="#63b8ff" d="M446.18,-116.52C443.34,-115.15 440.59,-113.64 438,-112 418.08,-99.36 419.97,-88.28 402,-73 393.1,-65.43 382.54,-58.13 373.1,-52.1"/>
<polygon fill="#63b8ff" stroke="#63b8ff" points="444.9,-119.78 455.47,-120.48 447.64,-113.34 444.9,-119.78"/>
</a>
</g>
</g>
<!-- Node11&#45;&gt;Node11 -->
<g id="edge11_Node000011_Node000011" class="edge">
<title>Node11&#45;&gt;Node11</title>
<g id="a_edge11_Node000011_Node000011"><a xlink:title=" ">
<path fill="none" stroke="#63b8ff" d="M372.41,-275.6C368.87,-279.97 360.23,-283 346.5,-283 323.38,-283 314.7,-274.41 320.48,-265.28"/>
<polygon fill="#63b8ff" stroke="#63b8ff" points="375.91,-275.31 372.52,-265.28 368.91,-275.24 375.91,-275.31"/>
</a>
</g>
</g>
<!-- Node12 -->
<g id="Node000012" class="node">
<title>Node12</title>
<g id="a_Node000012"><a xlink:href="../../d8/dab/classapplication_1_1app__ds_1_1tree_1_1TreeStructure.html#ac93f77b902184f1f71db2ce4eca16c40" target="_top" xlink:title="The Adelson&#45;Velsky&#45;Landis instance.">
<polygon fill="white" stroke="#666666" points="255,-318.5 142,-318.5 142,-277.5 255,-277.5 255,-318.5"/>
<text text-anchor="start" x="150" y="-306.5" font-family="Helvetica,sans-Serif" font-size="10.00">application::app_ds</text>
<text text-anchor="start" x="150" y="-295.5" font-family="Helvetica,sans-Serif" font-size="10.00">::tree::TreeStructure</text>
<text text-anchor="middle" x="198.5" y="-284.5" font-family="Helvetica,sans-Serif" font-size="10.00">::avlInstance</text>
</a>
</g>
</g>
<!-- Node11&#45;&gt;Node12 -->
<g id="edge12_Node000011_Node000012" class="edge">
<title>Node11&#45;&gt;Node12</title>
<g id="a_edge12_Node000011_Node000012"><a xlink:title=" ">
<path fill="none" stroke="#63b8ff" d="M289.88,-268.28C278.5,-272.03 266.52,-275.97 255.13,-279.71"/>
<polygon fill="#63b8ff" stroke="#63b8ff" points="291.3,-271.5 299.71,-265.06 289.11,-264.85 291.3,-271.5"/>
</a>
</g>
</g>
<!-- Node13 -->
<g id="Node000013" class="node">
<title>Node13</title>
<g id="a_Node000013"><a xlink:href="../../d4/db9/namespacetest_1_1tst__ds.html#a03dfd4ff3797361902819c549f11ff7d" target="_top" xlink:title="Test for the Adelson&#45;Velsky&#45;Landis instance in the structure of tree.">
<polygon fill="white" stroke="#666666" points="254.5,-259.5 142.5,-259.5 142.5,-240.5 254.5,-240.5 254.5,-259.5"/>
<text text-anchor="middle" x="198.5" y="-247.5" font-family="Helvetica,sans-Serif" font-size="10.00">test::tst_ds::TEST_F</text>
</a>
</g>
</g>
<!-- Node11&#45;&gt;Node13 -->
<g id="edge13_Node000011_Node000013" class="edge">
<title>Node11&#45;&gt;Node13</title>
<g id="a_edge13_Node000011_Node000013"><a xlink:title=" ">
<path fill="none" stroke="#63b8ff" d="M280.62,-250C271.93,-250 263.09,-250 254.59,-250"/>
<polygon fill="#63b8ff" stroke="#63b8ff" points="280.72,-253.5 290.72,-250 280.72,-246.5 280.72,-253.5"/>
</a>
</g>
</g>
<!-- Node14&#45;&gt;Node14 -->
<g id="edge15_Node000014_Node000014" class="edge">
<title>Node14&#45;&gt;Node14</title>
<g id="a_edge15_Node000014_Node000014"><a xlink:title=" ">
<path fill="none" stroke="#63b8ff" d="M372.41,-188.6C368.87,-192.97 360.23,-196 346.5,-196 323.38,-196 314.7,-187.41 320.48,-178.28"/>
<polygon fill="#63b8ff" stroke="#63b8ff" points="375.91,-188.31 372.52,-178.28 368.91,-188.24 375.91,-188.31"/>
</a>
</g>
</g>
<!-- Node15 -->
<g id="Node000015" class="node">
<title>Node15</title>
<g id="a_Node000015"><a xlink:href="../../d8/dab/classapplication_1_1app__ds_1_1tree_1_1TreeStructure.html#acb68353d9778f50a683fe46fa9084b5f" target="_top" xlink:title="The binary search instance.">
<polygon fill="white" stroke="#666666" points="255,-222.5 142,-222.5 142,-181.5 255,-181.5 255,-222.5"/>
<text text-anchor="start" x="150" y="-210.5" font-family="Helvetica,sans-Serif" font-size="10.00">application::app_ds</text>
<text text-anchor="start" x="150" y="-199.5" font-family="Helvetica,sans-Serif" font-size="10.00">::tree::TreeStructure</text>
<text text-anchor="middle" x="198.5" y="-188.5" font-family="Helvetica,sans-Serif" font-size="10.00">::bsInstance</text>
</a>
</g>
</g>
<!-- Node14&#45;&gt;Node15 -->
<g id="edge16_Node000014_Node000015" class="edge">
<title>Node14&#45;&gt;Node15</title>
<g id="a_edge16_Node000014_Node000015"><a xlink:title=" ">
<path fill="none" stroke="#63b8ff" d="M281.04,-180.22C272.38,-182.53 263.56,-184.89 255.07,-187.15"/>
<polygon fill="#63b8ff" stroke="#63b8ff" points="281.96,-183.6 290.72,-177.63 280.16,-176.83 281.96,-183.6"/>
</a>
</g>
</g>
<!-- Node16 -->
<g id="Node000016" class="node">
<title>Node16</title>
<g id="a_Node000016"><a xlink:href="../../d4/db9/namespacetest_1_1tst__ds.html#ada2decef779f8b77e041e6b42e077a7c" target="_top" xlink:title="Test for the binary search instance in the structure of tree.">
<polygon fill="white" stroke="#666666" points="254.5,-163.5 142.5,-163.5 142.5,-144.5 254.5,-144.5 254.5,-163.5"/>
<text text-anchor="middle" x="198.5" y="-151.5" font-family="Helvetica,sans-Serif" font-size="10.00">test::tst_ds::TEST_F</text>
</a>
</g>
</g>
<!-- Node14&#45;&gt;Node16 -->
<g id="edge17_Node000014_Node000016" class="edge">
<title>Node14&#45;&gt;Node16</title>
<g id="a_edge17_Node000014_Node000016"><a xlink:title=" ">
<path fill="none" stroke="#63b8ff" d="M280.62,-159C271.93,-158.46 263.09,-157.92 254.59,-157.4"/>
<polygon fill="#63b8ff" stroke="#63b8ff" points="280.52,-162.5 290.72,-159.62 280.95,-155.51 280.52,-162.5"/>
</a>
</g>
</g>
<!-- Node17&#45;&gt;Node17 -->
<g id="edge19_Node000017_Node000017" class="edge">
<title>Node17&#45;&gt;Node17</title>
<g id="a_edge19_Node000017_Node000017"><a xlink:title=" ">
<path fill="none" stroke="#63b8ff" d="M372.41,-122.6C368.87,-126.97 360.23,-130 346.5,-130 323.38,-130 314.7,-121.41 320.48,-112.28"/>
<polygon fill="#63b8ff" stroke="#63b8ff" points="375.91,-122.31 372.52,-112.28 368.91,-122.24 375.91,-122.31"/>
</a>
</g>
</g>
<!-- Node18 -->
<g id="Node000018" class="node">
<title>Node18</title>
<g id="a_Node000018"><a xlink:href="../../d8/dab/classapplication_1_1app__ds_1_1tree_1_1TreeStructure.html#a88960cdb4e7756328a3946a3ba72eab1" target="_top" xlink:title="The splay instance.">
<polygon fill="white" stroke="#666666" points="255,-126.5 142,-126.5 142,-85.5 255,-85.5 255,-126.5"/>
<text text-anchor="start" x="150" y="-114.5" font-family="Helvetica,sans-Serif" font-size="10.00">application::app_ds</text>
<text text-anchor="start" x="150" y="-103.5" font-family="Helvetica,sans-Serif" font-size="10.00">::tree::TreeStructure</text>
<text text-anchor="middle" x="198.5" y="-92.5" font-family="Helvetica,sans-Serif" font-size="10.00">::splayInstance</text>
</a>
</g>
</g>
<!-- Node17&#45;&gt;Node18 -->
<g id="edge20_Node000017_Node000018" class="edge">
<title>Node17&#45;&gt;Node18</title>
<g id="a_edge20_Node000017_Node000018"><a xlink:title=" ">
<path fill="none" stroke="#63b8ff" d="M280.48,-101.01C272,-101.53 263.38,-102.06 255.07,-102.57"/>
<polygon fill="#63b8ff" stroke="#63b8ff" points="280.95,-104.49 290.72,-100.38 280.52,-97.5 280.95,-104.49"/>
</a>
</g>
</g>
<!-- Node19 -->
<g id="Node000019" class="node">
<title>Node19</title>
<g id="a_Node000019"><a xlink:href="../../d4/db9/namespacetest_1_1tst__ds.html#a8c8a2d62892ed3891063cabe4c3fb0f6" target="_top" xlink:title="Test for the splay instance in the structure of tree.">
<polygon fill="white" stroke="#666666" points="254.5,-67.5 142.5,-67.5 142.5,-48.5 254.5,-48.5 254.5,-67.5"/>
<text text-anchor="middle" x="198.5" y="-55.5" font-family="Helvetica,sans-Serif" font-size="10.00">test::tst_ds::TEST_F</text>
</a>
</g>
</g>
<!-- Node17&#45;&gt;Node19 -->
<g id="edge21_Node000017_Node000019" class="edge">
<title>Node17&#45;&gt;Node19</title>
<g id="a_edge21_Node000017_Node000019"><a xlink:title=" ">
<path fill="none" stroke="#63b8ff" d="M281,-79.77C265.24,-75.56 248.94,-71.21 235.1,-67.51"/>
<polygon fill="#63b8ff" stroke="#63b8ff" points="280.16,-83.17 290.72,-82.37 281.96,-76.4 280.16,-83.17"/>
</a>
</g>
</g>
<!-- Node21 -->
<g id="Node000021" class="node">
<title>Node21</title>
<g id="a_Node000021"><a xlink:href="../../d0/d11/classapplication_1_1config_1_1Config.html#a8b8adf0f9a6ebcd90271dafafdcd2f62" target="_top" xlink:title="Parse the configuration file.">
<polygon fill="white" stroke="#666666" points="251.5,-30 145.5,-30 145.5,0 251.5,0 251.5,-30"/>
<text text-anchor="start" x="153.5" y="-18" font-family="Helvetica,sans-Serif" font-size="10.00">application::config</text>
<text text-anchor="middle" x="198.5" y="-7" font-family="Helvetica,sans-Serif" font-size="10.00">::Config::parseFile</text>
</a>
</g>
</g>
<!-- Node20&#45;&gt;Node21 -->
<g id="edge23_Node000020_Node000021" class="edge">
<title>Node20&#45;&gt;Node21</title>
<g id="a_edge23_Node000020_Node000021"><a xlink:title=" ">
<path fill="none" stroke="#63b8ff" d="M281.09,-27.29C271.36,-25.83 261.41,-24.33 251.97,-22.91"/>
<polygon fill="#63b8ff" stroke="#63b8ff" points="280.73,-30.78 291.13,-28.81 281.77,-23.86 280.73,-30.78"/>
</a>
</g>
</g>
<!-- Node22 -->
<g id="Node000022" class="node">
<title>Node22</title>
<g id="a_Node000022"><a xlink:href="../../d0/d11/classapplication_1_1config_1_1Config.html#ab3c2ccfa11cb8fd4df7a5442b5e20227" target="_top" xlink:title="Construct a new Config object.">
<polygon fill="white" stroke="#666666" points="106,-30 0,-30 0,0 106,0 106,-30"/>
<text text-anchor="start" x="8" y="-18" font-family="Helvetica,sans-Serif" font-size="10.00">application::config</text>
<text text-anchor="middle" x="53" y="-7" font-family="Helvetica,sans-Serif" font-size="10.00">::Config::Config</text>
</a>
</g>
</g>
<!-- Node21&#45;&gt;Node22 -->
<g id="edge24_Node000021_Node000022" class="edge">
<title>Node21&#45;&gt;Node22</title>
<g id="a_edge24_Node000021_Node000022"><a xlink:title=" ">
<path fill="none" stroke="#63b8ff" d="M135.04,-15C125.49,-15 115.72,-15 106.41,-15"/>
<polygon fill="#63b8ff" stroke="#63b8ff" points="135.29,-18.5 145.29,-15 135.29,-11.5 135.29,-18.5"/>
</a>
</g>
</g>
</g>
</svg>
