<?xml version="1.0" encoding="UTF-8" standalone="no"?>
<!DOCTYPE svg PUBLIC "-//W3C//DTD SVG 1.1//EN"
 "http://www.w3.org/Graphics/SVG/1.1/DTD/svg11.dtd">
<!-- Generated by graphviz version 2.43.0 (0)
 -->
<!-- Title: utility::json::JSON::toString Pages: 1 -->
<svg width="893pt" height="81pt"
 viewBox="0.00 0.00 893.00 81.00" xmlns="http://www.w3.org/2000/svg" xmlns:xlink="http://www.w3.org/1999/xlink">
<g id="graph0" class="graph" transform="scale(1 1) rotate(0) translate(4 77)">
<title>utility::json::JSON::toString</title>
<!-- Node1 -->
<g id="Node000001" class="node">
<title>Node1</title>
<g id="a_Node000001"><a xlink:title="Convert to string value.">
<polygon fill="#999999" stroke="#666666" points="885,-30 784,-30 784,0 885,0 885,-30"/>
<text text-anchor="start" x="792" y="-18" font-family="Helvetica,sans-Serif" font-size="10.00">utility::json::JSON</text>
<text text-anchor="middle" x="834.5" y="-7" font-family="Helvetica,sans-Serif" font-size="10.00">::toString</text>
</a>
</g>
</g>
<!-- Node2 -->
<g id="Node000002" class="node">
<title>Node2</title>
<g id="a_Node000002"><a xlink:href="../../d8/d2f/namespaceutility_1_1json.html#a6d02447d4949362553a97f0cb0bd5711" target="_top" xlink:title="Parse object in JSON.">
<polygon fill="white" stroke="#666666" points="748,-24.5 613,-24.5 613,-5.5 748,-5.5 748,-24.5"/>
<text text-anchor="middle" x="680.5" y="-12.5" font-family="Helvetica,sans-Serif" font-size="10.00">utility::json::parseObject</text>
</a>
</g>
</g>
<!-- Node1&#45;&gt;Node2 -->
<g id="edge1_Node000001_Node000002" class="edge">
<title>Node1&#45;&gt;Node2</title>
<g id="a_edge1_Node000001_Node000002"><a xlink:title=" ">
<path fill="none" stroke="#63b8ff" d="M773.7,-15C765.34,-15 756.71,-15 748.24,-15"/>
<polygon fill="#63b8ff" stroke="#63b8ff" points="773.73,-18.5 783.73,-15 773.73,-11.5 773.73,-18.5"/>
</a>
</g>
</g>
<!-- Node3 -->
<g id="Node000003" class="node">
<title>Node3</title>
<g id="a_Node000003"><a xlink:href="../../d8/d2f/namespaceutility_1_1json.html#a76b06fdaa4b85a46e23c37ea1204bfd9" target="_top" xlink:title="Parse the next data in JSON.">
<polygon fill="white" stroke="#666666" points="577,-24.5 450,-24.5 450,-5.5 577,-5.5 577,-24.5"/>
<text text-anchor="middle" x="513.5" y="-12.5" font-family="Helvetica,sans-Serif" font-size="10.00">utility::json::parseNext</text>
</a>
</g>
</g>
<!-- Node2&#45;&gt;Node3 -->
<g id="edge2_Node000002_Node000003" class="edge">
<title>Node2&#45;&gt;Node3</title>
<g id="a_edge2_Node000002_Node000003"><a xlink:title=" ">
<path fill="none" stroke="#63b8ff" d="M602.82,-8.26C594.21,-8.22 585.51,-8.27 577.11,-8.43"/>
<polygon fill="#63b8ff" stroke="#63b8ff" points="602.83,-11.77 612.86,-8.36 602.9,-4.77 602.83,-11.77"/>
</a>
</g>
</g>
<!-- Node3&#45;&gt;Node2 -->
<g id="edge8_Node000003_Node000002" class="edge">
<title>Node3&#45;&gt;Node2</title>
<g id="a_edge8_Node000003_Node000002"><a xlink:title=" ">
<path fill="none" stroke="#63b8ff" d="M587.37,-21.71C595.85,-21.78 604.47,-21.76 612.86,-21.64"/>
<polygon fill="#63b8ff" stroke="#63b8ff" points="587.16,-18.21 577.11,-21.57 587.06,-25.21 587.16,-18.21"/>
</a>
</g>
</g>
<!-- Node4 -->
<g id="Node000004" class="node">
<title>Node4</title>
<g id="a_Node000004"><a xlink:href="../../d5/d0b/classutility_1_1json_1_1JSON.html#aa0dd0aa8870335a98c28b580ed26a329" target="_top" xlink:title="Load JSON object from string.">
<polygon fill="white" stroke="#666666" points="399.5,-73 298.5,-73 298.5,-43 399.5,-43 399.5,-73"/>
<text text-anchor="start" x="306.5" y="-61" font-family="Helvetica,sans-Serif" font-size="10.00">utility::json::JSON</text>
<text text-anchor="middle" x="349" y="-50" font-family="Helvetica,sans-Serif" font-size="10.00">::load</text>
</a>
</g>
</g>
<!-- Node3&#45;&gt;Node4 -->
<g id="edge3_Node000003_Node000004" class="edge">
<title>Node3&#45;&gt;Node4</title>
<g id="a_edge3_Node000003_Node000004"><a xlink:title=" ">
<path fill="none" stroke="#63b8ff" d="M466.52,-27.17C445.61,-32.7 420.84,-39.26 399.52,-44.9"/>
<polygon fill="#63b8ff" stroke="#63b8ff" points="467.66,-30.48 476.44,-24.54 465.87,-23.72 467.66,-30.48"/>
</a>
</g>
</g>
<!-- Node7 -->
<g id="Node000007" class="node">
<title>Node7</title>
<g id="a_Node000007"><a xlink:href="../../d8/d2f/namespaceutility_1_1json.html#aa5a8326809dd9ae31a9dde14567d26c9" target="_top" xlink:title="Parse array in JSON.">
<polygon fill="white" stroke="#666666" points="414,-24.5 284,-24.5 284,-5.5 414,-5.5 414,-24.5"/>
<text text-anchor="middle" x="349" y="-12.5" font-family="Helvetica,sans-Serif" font-size="10.00">utility::json::parseArray</text>
</a>
</g>
</g>
<!-- Node3&#45;&gt;Node7 -->
<g id="edge6_Node000003_Node000007" class="edge">
<title>Node3&#45;&gt;Node7</title>
<g id="a_edge6_Node000003_Node000007"><a xlink:title=" ">
<path fill="none" stroke="#63b8ff" d="M439.42,-8.28C430.94,-8.22 422.34,-8.25 414,-8.39"/>
<polygon fill="#63b8ff" stroke="#63b8ff" points="439.63,-11.78 449.67,-8.41 439.72,-4.78 439.63,-11.78"/>
</a>
</g>
</g>
<!-- Node5 -->
<g id="Node000005" class="node">
<title>Node5</title>
<g id="a_Node000005"><a xlink:href="../../d0/d11/classapplication_1_1config_1_1Config.html#a8b8adf0f9a6ebcd90271dafafdcd2f62" target="_top" xlink:title="Parse the configuration file.">
<polygon fill="white" stroke="#666666" points="248,-73 142,-73 142,-43 248,-43 248,-73"/>
<text text-anchor="start" x="150" y="-61" font-family="Helvetica,sans-Serif" font-size="10.00">application::config</text>
<text text-anchor="middle" x="195" y="-50" font-family="Helvetica,sans-Serif" font-size="10.00">::Config::parseFile</text>
</a>
</g>
</g>
<!-- Node4&#45;&gt;Node5 -->
<g id="edge4_Node000004_Node000005" class="edge">
<title>Node4&#45;&gt;Node5</title>
<g id="a_edge4_Node000004_Node000005"><a xlink:title=" ">
<path fill="none" stroke="#63b8ff" d="M287.89,-58C274.78,-58 261.01,-58 248.23,-58"/>
<polygon fill="#63b8ff" stroke="#63b8ff" points="288.23,-61.5 298.23,-58 288.23,-54.5 288.23,-61.5"/>
</a>
</g>
</g>
<!-- Node6 -->
<g id="Node000006" class="node">
<title>Node6</title>
<g id="a_Node000006"><a xlink:href="../../d0/d11/classapplication_1_1config_1_1Config.html#ab3c2ccfa11cb8fd4df7a5442b5e20227" target="_top" xlink:title="Construct a new Config object.">
<polygon fill="white" stroke="#666666" points="106,-73 0,-73 0,-43 106,-43 106,-73"/>
<text text-anchor="start" x="8" y="-61" font-family="Helvetica,sans-Serif" font-size="10.00">application::config</text>
<text text-anchor="middle" x="53" y="-50" font-family="Helvetica,sans-Serif" font-size="10.00">::Config::Config</text>
</a>
</g>
</g>
<!-- Node5&#45;&gt;Node6 -->
<g id="edge5_Node000005_Node000006" class="edge">
<title>Node5&#45;&gt;Node6</title>
<g id="a_edge5_Node000005_Node000006"><a xlink:title=" ">
<path fill="none" stroke="#63b8ff" d="M131.61,-58C123.12,-58 114.47,-58 106.17,-58"/>
<polygon fill="#63b8ff" stroke="#63b8ff" points="131.87,-61.5 141.87,-58 131.87,-54.5 131.87,-61.5"/>
</a>
</g>
</g>
<!-- Node7&#45;&gt;Node3 -->
<g id="edge7_Node000007_Node000003" class="edge">
<title>Node7&#45;&gt;Node3</title>
<g id="a_edge7_Node000007_Node000003"><a xlink:title=" ">
<path fill="none" stroke="#63b8ff" d="M424.28,-21.73C432.77,-21.78 441.36,-21.74 449.67,-21.59"/>
<polygon fill="#63b8ff" stroke="#63b8ff" points="424.04,-18.23 414,-21.61 423.96,-25.22 424.04,-18.23"/>
</a>
</g>
</g>
</g>
</svg>
