<?xml version="1.0" encoding="UTF-8" standalone="no"?>
<!DOCTYPE svg PUBLIC "-//W3C//DTD SVG 1.1//EN"
 "http://www.w3.org/Graphics/SVG/1.1/DTD/svg11.dtd">
<!-- Generated by graphviz version 2.43.0 (0)
 -->
<!-- Title: utility::json::JSON::dumpMinified Pages: 1 -->
<svg width="1044pt" height="125pt"
 viewBox="0.00 0.00 1044.00 125.00" xmlns="http://www.w3.org/2000/svg" xmlns:xlink="http://www.w3.org/1999/xlink">
<g id="graph0" class="graph" transform="scale(1 1) rotate(0) translate(4 121)">
<title>utility::json::JSON::dumpMinified</title>
<!-- Node1 -->
<g id="Node000001" class="node">
<title>Node1</title>
<g id="a_Node000001"><a xlink:title="Dump as minified formatted string.">
<polygon fill="#999999" stroke="#666666" points="1036,-54 935,-54 935,-24 1036,-24 1036,-54"/>
<text text-anchor="start" x="943" y="-42" font-family="Helvetica,sans-Serif" font-size="10.00">utility::json::JSON</text>
<text text-anchor="middle" x="985.5" y="-31" font-family="Helvetica,sans-Serif" font-size="10.00">::dumpMinified</text>
</a>
</g>
</g>
<!-- Node2 -->
<g id="Node000002" class="node">
<title>Node2</title>
<g id="a_Node000002"><a xlink:href="../../d5/d0b/classutility_1_1json_1_1JSON.html#ab0a210c5556dc8d0249c84e5d609490f" target="_top" xlink:title="Convert to string value.">
<polygon fill="white" stroke="#666666" points="892,-78 791,-78 791,-48 892,-48 892,-78"/>
<text text-anchor="start" x="799" y="-66" font-family="Helvetica,sans-Serif" font-size="10.00">utility::json::JSON</text>
<text text-anchor="middle" x="841.5" y="-55" font-family="Helvetica,sans-Serif" font-size="10.00">::toString</text>
</a>
</g>
</g>
<!-- Node1&#45;&gt;Node2 -->
<g id="edge1_Node000001_Node000002" class="edge">
<title>Node1&#45;&gt;Node2</title>
<g id="a_edge1_Node000001_Node000002"><a xlink:title=" ">
<path fill="none" stroke="#63b8ff" d="M924.67,-49.11C913.91,-50.93 902.81,-52.81 892.38,-54.57"/>
<polygon fill="#63b8ff" stroke="#63b8ff" points="925.56,-52.51 934.84,-47.39 924.39,-45.61 925.56,-52.51"/>
</a>
</g>
</g>
<!-- Node9 -->
<g id="Node000009" class="node">
<title>Node9</title>
<g id="a_Node000009"><a xlink:href="../../d5/d0b/classutility_1_1json_1_1JSON.html#ace2255dee09521bef3b31bb986d81bc1" target="_top" xlink:title="Convert to unescaped string value.">
<polygon fill="white" stroke="#666666" points="899,-30 784,-30 784,0 899,0 899,-30"/>
<text text-anchor="start" x="792" y="-18" font-family="Helvetica,sans-Serif" font-size="10.00">utility::json::JSON</text>
<text text-anchor="middle" x="841.5" y="-7" font-family="Helvetica,sans-Serif" font-size="10.00">::toUnescapedString</text>
</a>
</g>
</g>
<!-- Node1&#45;&gt;Node9 -->
<g id="edge10_Node000001_Node000009" class="edge">
<title>Node1&#45;&gt;Node9</title>
<g id="a_edge10_Node000001_Node000009"><a xlink:title=" ">
<path fill="none" stroke="#63b8ff" d="M924.95,-28.94C916.42,-27.49 907.66,-26.01 899.18,-24.58"/>
<polygon fill="#63b8ff" stroke="#63b8ff" points="924.39,-32.39 934.84,-30.61 925.56,-25.49 924.39,-32.39"/>
</a>
</g>
</g>
<!-- Node3 -->
<g id="Node000003" class="node">
<title>Node3</title>
<g id="a_Node000003"><a xlink:href="../../d8/d2f/namespaceutility_1_1json.html#a6d02447d4949362553a97f0cb0bd5711" target="_top" xlink:title="Parse object in JSON.">
<polygon fill="white" stroke="#666666" points="748,-71.5 613,-71.5 613,-52.5 748,-52.5 748,-71.5"/>
<text text-anchor="middle" x="680.5" y="-59.5" font-family="Helvetica,sans-Serif" font-size="10.00">utility::json::parseObject</text>
</a>
</g>
</g>
<!-- Node2&#45;&gt;Node3 -->
<g id="edge2_Node000002_Node000003" class="edge">
<title>Node2&#45;&gt;Node3</title>
<g id="a_edge2_Node000002_Node000003"><a xlink:title=" ">
<path fill="none" stroke="#63b8ff" d="M780.3,-62.62C769.78,-62.56 758.78,-62.49 748.11,-62.42"/>
<polygon fill="#63b8ff" stroke="#63b8ff" points="780.61,-66.12 790.63,-62.69 780.65,-59.12 780.61,-66.12"/>
</a>
</g>
</g>
<!-- Node4 -->
<g id="Node000004" class="node">
<title>Node4</title>
<g id="a_Node000004"><a xlink:href="../../d8/d2f/namespaceutility_1_1json.html#a76b06fdaa4b85a46e23c37ea1204bfd9" target="_top" xlink:title="Parse the next data in JSON.">
<polygon fill="white" stroke="#666666" points="577,-71.5 450,-71.5 450,-52.5 577,-52.5 577,-71.5"/>
<text text-anchor="middle" x="513.5" y="-59.5" font-family="Helvetica,sans-Serif" font-size="10.00">utility::json::parseNext</text>
</a>
</g>
</g>
<!-- Node3&#45;&gt;Node4 -->
<g id="edge3_Node000003_Node000004" class="edge">
<title>Node3&#45;&gt;Node4</title>
<g id="a_edge3_Node000003_Node000004"><a xlink:title=" ">
<path fill="none" stroke="#63b8ff" d="M602.82,-55.26C594.21,-55.22 585.51,-55.27 577.11,-55.43"/>
<polygon fill="#63b8ff" stroke="#63b8ff" points="602.83,-58.77 612.86,-55.36 602.9,-51.77 602.83,-58.77"/>
</a>
</g>
</g>
<!-- Node4&#45;&gt;Node3 -->
<g id="edge9_Node000004_Node000003" class="edge">
<title>Node4&#45;&gt;Node3</title>
<g id="a_edge9_Node000004_Node000003"><a xlink:title=" ">
<path fill="none" stroke="#63b8ff" d="M587.37,-68.71C595.85,-68.78 604.47,-68.76 612.86,-68.64"/>
<polygon fill="#63b8ff" stroke="#63b8ff" points="587.16,-65.21 577.11,-68.57 587.06,-72.21 587.16,-65.21"/>
</a>
</g>
</g>
<!-- Node5 -->
<g id="Node000005" class="node">
<title>Node5</title>
<g id="a_Node000005"><a xlink:href="../../d5/d0b/classutility_1_1json_1_1JSON.html#aa0dd0aa8870335a98c28b580ed26a329" target="_top" xlink:title="Load JSON object from string.">
<polygon fill="white" stroke="#666666" points="399.5,-117 298.5,-117 298.5,-87 399.5,-87 399.5,-117"/>
<text text-anchor="start" x="306.5" y="-105" font-family="Helvetica,sans-Serif" font-size="10.00">utility::json::JSON</text>
<text text-anchor="middle" x="349" y="-94" font-family="Helvetica,sans-Serif" font-size="10.00">::load</text>
</a>
</g>
</g>
<!-- Node4&#45;&gt;Node5 -->
<g id="edge4_Node000004_Node000005" class="edge">
<title>Node4&#45;&gt;Node5</title>
<g id="a_edge4_Node000004_Node000005"><a xlink:title=" ">
<path fill="none" stroke="#63b8ff" d="M463.63,-74.03C443.42,-79.01 420,-84.77 399.7,-89.77"/>
<polygon fill="#63b8ff" stroke="#63b8ff" points="464.7,-77.37 473.58,-71.58 463.03,-70.57 464.7,-77.37"/>
</a>
</g>
</g>
<!-- Node8 -->
<g id="Node000008" class="node">
<title>Node8</title>
<g id="a_Node000008"><a xlink:href="../../d8/d2f/namespaceutility_1_1json.html#aa5a8326809dd9ae31a9dde14567d26c9" target="_top" xlink:title="Parse array in JSON.">
<polygon fill="white" stroke="#666666" points="414,-68.5 284,-68.5 284,-49.5 414,-49.5 414,-68.5"/>
<text text-anchor="middle" x="349" y="-56.5" font-family="Helvetica,sans-Serif" font-size="10.00">utility::json::parseArray</text>
</a>
</g>
</g>
<!-- Node4&#45;&gt;Node8 -->
<g id="edge7_Node000004_Node000008" class="edge">
<title>Node4&#45;&gt;Node8</title>
<g id="a_edge7_Node000004_Node000008"><a xlink:title=" ">
<path fill="none" stroke="#63b8ff" d="M439.42,-53.93C430.94,-53.71 422.34,-53.59 414,-53.57"/>
<polygon fill="#63b8ff" stroke="#63b8ff" points="439.57,-57.44 449.67,-54.25 439.79,-50.44 439.57,-57.44"/>
</a>
</g>
</g>
<!-- Node6 -->
<g id="Node000006" class="node">
<title>Node6</title>
<g id="a_Node000006"><a xlink:href="../../d0/d11/classapplication_1_1config_1_1Config.html#a8b8adf0f9a6ebcd90271dafafdcd2f62" target="_top" xlink:title="Parse the configuration file.">
<polygon fill="white" stroke="#666666" points="248,-75 142,-75 142,-45 248,-45 248,-75"/>
<text text-anchor="start" x="150" y="-63" font-family="Helvetica,sans-Serif" font-size="10.00">application::config</text>
<text text-anchor="middle" x="195" y="-52" font-family="Helvetica,sans-Serif" font-size="10.00">::Config::parseFile</text>
</a>
</g>
</g>
<!-- Node5&#45;&gt;Node6 -->
<g id="edge5_Node000005_Node000006" class="edge">
<title>Node5&#45;&gt;Node6</title>
<g id="a_edge5_Node000005_Node000006"><a xlink:title=" ">
<path fill="none" stroke="#63b8ff" d="M288.28,-85.5C275.05,-81.84 261.13,-78 248.23,-74.43"/>
<polygon fill="#63b8ff" stroke="#63b8ff" points="287.66,-88.96 298.23,-88.25 289.52,-82.21 287.66,-88.96"/>
</a>
</g>
</g>
<!-- Node7 -->
<g id="Node000007" class="node">
<title>Node7</title>
<g id="a_Node000007"><a xlink:href="../../d0/d11/classapplication_1_1config_1_1Config.html#ab3c2ccfa11cb8fd4df7a5442b5e20227" target="_top" xlink:title="Construct a new Config object.">
<polygon fill="white" stroke="#666666" points="106,-75 0,-75 0,-45 106,-45 106,-75"/>
<text text-anchor="start" x="8" y="-63" font-family="Helvetica,sans-Serif" font-size="10.00">application::config</text>
<text text-anchor="middle" x="53" y="-52" font-family="Helvetica,sans-Serif" font-size="10.00">::Config::Config</text>
</a>
</g>
</g>
<!-- Node6&#45;&gt;Node7 -->
<g id="edge6_Node000006_Node000007" class="edge">
<title>Node6&#45;&gt;Node7</title>
<g id="a_edge6_Node000006_Node000007"><a xlink:title=" ">
<path fill="none" stroke="#63b8ff" d="M131.61,-60C123.12,-60 114.47,-60 106.17,-60"/>
<polygon fill="#63b8ff" stroke="#63b8ff" points="131.87,-63.5 141.87,-60 131.87,-56.5 131.87,-63.5"/>
</a>
</g>
</g>
<!-- Node8&#45;&gt;Node4 -->
<g id="edge8_Node000008_Node000004" class="edge">
<title>Node8&#45;&gt;Node4</title>
<g id="a_edge8_Node000008_Node000004"><a xlink:title=" ">
<path fill="none" stroke="#63b8ff" d="M424,-67.09C432.58,-67.31 441.26,-67.42 449.67,-67.43"/>
<polygon fill="#63b8ff" stroke="#63b8ff" points="424.1,-63.59 414,-66.79 423.89,-70.59 424.1,-63.59"/>
</a>
</g>
</g>
<!-- Node10 -->
<g id="Node000010" class="node">
<title>Node10</title>
<g id="a_Node000010"><a xlink:href="../../d0/d11/classapplication_1_1config_1_1Config.html#adc220be047396cd0201fbd15d2093bd8" target="_top" xlink:title="Verify the data.">
<polygon fill="white" stroke="#666666" points="568.5,-33 458.5,-33 458.5,-3 568.5,-3 568.5,-33"/>
<text text-anchor="start" x="466.5" y="-21" font-family="Helvetica,sans-Serif" font-size="10.00">application::config</text>
<text text-anchor="middle" x="513.5" y="-10" font-family="Helvetica,sans-Serif" font-size="10.00">::Config::verifyData</text>
</a>
</g>
</g>
<!-- Node9&#45;&gt;Node10 -->
<g id="edge11_Node000009_Node000010" class="edge">
<title>Node9&#45;&gt;Node10</title>
<g id="a_edge11_Node000009_Node000010"><a xlink:title=" ">
<path fill="none" stroke="#63b8ff" d="M773.5,-15.62C712.95,-16.17 624.97,-16.98 568.74,-17.5"/>
<polygon fill="#63b8ff" stroke="#63b8ff" points="773.75,-19.11 783.72,-15.52 773.68,-12.11 773.75,-19.11"/>
</a>
</g>
</g>
<!-- Node10&#45;&gt;Node6 -->
<g id="edge12_Node000010_Node000006" class="edge">
<title>Node10&#45;&gt;Node6</title>
<g id="a_edge12_Node000010_Node000006"><a xlink:title=" ">
<path fill="none" stroke="#63b8ff" d="M448.12,-22C402.18,-25.38 339.05,-31.13 284,-40 272.4,-41.87 260.04,-44.36 248.37,-46.95"/>
<polygon fill="#63b8ff" stroke="#63b8ff" points="448.51,-25.48 458.23,-21.27 448.01,-18.5 448.51,-25.48"/>
</a>
</g>
</g>
</g>
</svg>
