<?xml version="1.0" encoding="UTF-8" standalone="no"?>
<!DOCTYPE svg PUBLIC "-//W3C//DTD SVG 1.1//EN"
 "http://www.w3.org/Graphics/SVG/1.1/DTD/svg11.dtd">
<!-- Generated by graphviz version 2.43.0 (0)
 -->
<!-- Title: utility::json::JSON::load Pages: 1 -->
<svg width="393pt" height="38pt"
 viewBox="0.00 0.00 393.00 38.00" xmlns="http://www.w3.org/2000/svg" xmlns:xlink="http://www.w3.org/1999/xlink">
<g id="graph0" class="graph" transform="scale(1 1) rotate(0) translate(4 34)">
<title>utility::json::JSON::load</title>
<!-- Node1 -->
<g id="Node000001" class="node">
<title>Node1</title>
<g id="a_Node000001"><a xlink:title="Load JSON object from string.">
<polygon fill="#999999" stroke="#666666" points="385,-30 284,-30 284,0 385,0 385,-30"/>
<text text-anchor="start" x="292" y="-18" font-family="Helvetica,sans-Serif" font-size="10.00">utility::json::JSON</text>
<text text-anchor="middle" x="334.5" y="-7" font-family="Helvetica,sans-Serif" font-size="10.00">::load</text>
</a>
</g>
</g>
<!-- Node2 -->
<g id="Node000002" class="node">
<title>Node2</title>
<g id="a_Node000002"><a xlink:href="../../d0/d11/classapplication_1_1config_1_1Config.html#a8b8adf0f9a6ebcd90271dafafdcd2f62" target="_top" xlink:title="Parse the configuration file.">
<polygon fill="white" stroke="#666666" points="248,-30 142,-30 142,0 248,0 248,-30"/>
<text text-anchor="start" x="150" y="-18" font-family="Helvetica,sans-Serif" font-size="10.00">application::config</text>
<text text-anchor="middle" x="195" y="-7" font-family="Helvetica,sans-Serif" font-size="10.00">::Config::parseFile</text>
</a>
</g>
</g>
<!-- Node1&#45;&gt;Node2 -->
<g id="edge1_Node000001_Node000002" class="edge">
<title>Node1&#45;&gt;Node2</title>
<g id="a_edge1_Node000001_Node000002"><a xlink:title=" ">
<path fill="none" stroke="#63b8ff" d="M273.69,-15C265.25,-15 256.63,-15 248.35,-15"/>
<polygon fill="#63b8ff" stroke="#63b8ff" points="273.86,-18.5 283.86,-15 273.86,-11.5 273.86,-18.5"/>
</a>
</g>
</g>
<!-- Node3 -->
<g id="Node000003" class="node">
<title>Node3</title>
<g id="a_Node000003"><a xlink:href="../../d0/d11/classapplication_1_1config_1_1Config.html#ab3c2ccfa11cb8fd4df7a5442b5e20227" target="_top" xlink:title="Construct a new Config object.">
<polygon fill="white" stroke="#666666" points="106,-30 0,-30 0,0 106,0 106,-30"/>
<text text-anchor="start" x="8" y="-18" font-family="Helvetica,sans-Serif" font-size="10.00">application::config</text>
<text text-anchor="middle" x="53" y="-7" font-family="Helvetica,sans-Serif" font-size="10.00">::Config::Config</text>
</a>
</g>
</g>
<!-- Node2&#45;&gt;Node3 -->
<g id="edge2_Node000002_Node000003" class="edge">
<title>Node2&#45;&gt;Node3</title>
<g id="a_edge2_Node000002_Node000003"><a xlink:title=" ">
<path fill="none" stroke="#63b8ff" d="M131.61,-15C123.12,-15 114.47,-15 106.17,-15"/>
<polygon fill="#63b8ff" stroke="#63b8ff" points="131.87,-18.5 141.87,-15 131.87,-11.5 131.87,-18.5"/>
</a>
</g>
</g>
</g>
</svg>
