<?xml version="1.0" encoding="UTF-8" standalone="no"?>
<!DOCTYPE svg PUBLIC "-//W3C//DTD SVG 1.1//EN"
 "http://www.w3.org/Graphics/SVG/1.1/DTD/svg11.dtd">
<!-- Generated by graphviz version 2.43.0 (0)
 -->
<!-- Title: utility::json::JSON::make Pages: 1 -->
<svg width="1031pt" height="141pt"
 viewBox="0.00 0.00 1031.00 141.00" xmlns="http://www.w3.org/2000/svg" xmlns:xlink="http://www.w3.org/1999/xlink">
<g id="graph0" class="graph" transform="scale(1 1) rotate(0) translate(4 137)">
<title>utility::json::JSON::make</title>
<!-- Node1 -->
<g id="Node000001" class="node">
<title>Node1</title>
<g id="a_Node000001"><a xlink:title="Make JSON object by data type.">
<polygon fill="#999999" stroke="#666666" points="1023,-81.5 922,-81.5 922,-51.5 1023,-51.5 1023,-81.5"/>
<text text-anchor="start" x="930" y="-69.5" font-family="Helvetica,sans-Serif" font-size="10.00">utility::json::JSON</text>
<text text-anchor="middle" x="972.5" y="-58.5" font-family="Helvetica,sans-Serif" font-size="10.00">::make</text>
</a>
</g>
</g>
<!-- Node2 -->
<g id="Node000002" class="node">
<title>Node2</title>
<g id="a_Node000002"><a xlink:href="../../d8/d2f/namespaceutility_1_1json.html#acb8981831e8c574ba4e9dc9e75c34a06" target="_top" xlink:title="Make an JSON array.">
<polygon fill="white" stroke="#666666" points="886,-133 784,-133 784,-114 886,-114 886,-133"/>
<text text-anchor="middle" x="835" y="-121" font-family="Helvetica,sans-Serif" font-size="10.00">utility::json::array</text>
</a>
</g>
</g>
<!-- Node1&#45;&gt;Node2 -->
<g id="edge1_Node000001_Node000002" class="edge">
<title>Node1&#45;&gt;Node2</title>
<g id="a_edge1_Node000001_Node000002"><a xlink:title=" ">
<path fill="none" stroke="#63b8ff" d="M926.13,-85.58C903.56,-95.08 877.25,-106.15 858.91,-113.86"/>
<polygon fill="#63b8ff" stroke="#63b8ff" points="927.68,-88.73 935.54,-81.63 924.97,-82.28 927.68,-88.73"/>
</a>
</g>
</g>
<!-- Node3 -->
<g id="Node000003" class="node">
<title>Node3</title>
<g id="a_Node000003"><a xlink:href="../../d8/d2f/namespaceutility_1_1json.html#aa5a8326809dd9ae31a9dde14567d26c9" target="_top" xlink:title="Parse array in JSON.">
<polygon fill="white" stroke="#666666" points="748,-95 618,-95 618,-76 748,-76 748,-95"/>
<text text-anchor="middle" x="683" y="-83" font-family="Helvetica,sans-Serif" font-size="10.00">utility::json::parseArray</text>
</a>
</g>
</g>
<!-- Node1&#45;&gt;Node3 -->
<g id="edge12_Node000001_Node000003" class="edge">
<title>Node1&#45;&gt;Node3</title>
<g id="a_edge12_Node000001_Node000003"><a xlink:title=" ">
<path fill="none" stroke="#63b8ff" d="M911.56,-70.46C863.81,-73.62 797.1,-78.03 748.26,-81.25"/>
<polygon fill="#63b8ff" stroke="#63b8ff" points="912,-73.94 921.75,-69.79 911.54,-66.95 912,-73.94"/>
</a>
</g>
</g>
<!-- Node8 -->
<g id="Node000008" class="node">
<title>Node8</title>
<g id="a_Node000008"><a xlink:href="../../d8/d2f/namespaceutility_1_1json.html#a6d02447d4949362553a97f0cb0bd5711" target="_top" xlink:title="Parse object in JSON.">
<polygon fill="white" stroke="#666666" points="419,-57 284,-57 284,-38 419,-38 419,-57"/>
<text text-anchor="middle" x="351.5" y="-45" font-family="Helvetica,sans-Serif" font-size="10.00">utility::json::parseObject</text>
</a>
</g>
</g>
<!-- Node1&#45;&gt;Node8 -->
<g id="edge13_Node000001_Node000008" class="edge">
<title>Node1&#45;&gt;Node8</title>
<g id="a_edge13_Node000001_Node000008"><a xlink:title=" ">
<path fill="none" stroke="#63b8ff" d="M911.78,-64.67C795.78,-61.11 540.79,-53.28 419.34,-49.55"/>
<polygon fill="#63b8ff" stroke="#63b8ff" points="911.79,-68.17 921.89,-64.98 912,-61.17 911.79,-68.17"/>
</a>
</g>
</g>
<!-- Node9 -->
<g id="Node000009" class="node">
<title>Node9</title>
<g id="a_Node000009"><a xlink:href="../../d8/d2f/namespaceutility_1_1json.html#a2b9840d603a78ab242cfbc5cbc8292ff" target="_top" xlink:title="Make an JSON object.">
<polygon fill="white" stroke="#666666" points="736.5,-19 629.5,-19 629.5,0 736.5,0 736.5,-19"/>
<text text-anchor="middle" x="683" y="-7" font-family="Helvetica,sans-Serif" font-size="10.00">utility::json::object</text>
</a>
</g>
</g>
<!-- Node1&#45;&gt;Node9 -->
<g id="edge10_Node000001_Node000009" class="edge">
<title>Node1&#45;&gt;Node9</title>
<g id="a_edge10_Node000001_Node000009"><a xlink:title=" ">
<path fill="none" stroke="#63b8ff" d="M928.57,-47.52C915.16,-42.25 900.17,-37.02 886,-33.5 836.13,-21.12 777.69,-15.06 736.54,-12.14"/>
<polygon fill="#63b8ff" stroke="#63b8ff" points="927.43,-50.83 938.01,-51.34 930.05,-44.34 927.43,-50.83"/>
</a>
</g>
</g>
<!-- Node2&#45;&gt;Node3 -->
<g id="edge2_Node000002_Node000003" class="edge">
<title>Node2&#45;&gt;Node3</title>
<g id="a_edge2_Node000002_Node000003"><a xlink:title=" ">
<path fill="none" stroke="#63b8ff" d="M786.19,-111.39C765.3,-106.1 741.15,-99.98 721.58,-95.02"/>
<polygon fill="#63b8ff" stroke="#63b8ff" points="785.6,-114.85 796.15,-113.91 787.31,-108.06 785.6,-114.85"/>
</a>
</g>
</g>
<!-- Node4 -->
<g id="Node000004" class="node">
<title>Node4</title>
<g id="a_Node000004"><a xlink:href="../../d8/d2f/namespaceutility_1_1json.html#a76b06fdaa4b85a46e23c37ea1204bfd9" target="_top" xlink:title="Parse the next data in JSON.">
<polygon fill="white" stroke="#666666" points="582,-95 455,-95 455,-76 582,-76 582,-95"/>
<text text-anchor="middle" x="518.5" y="-83" font-family="Helvetica,sans-Serif" font-size="10.00">utility::json::parseNext</text>
</a>
</g>
</g>
<!-- Node3&#45;&gt;Node4 -->
<g id="edge3_Node000003_Node000004" class="edge">
<title>Node3&#45;&gt;Node4</title>
<g id="a_edge3_Node000003_Node000004"><a xlink:title=" ">
<path fill="none" stroke="#63b8ff" d="M607.52,-78.77C599.05,-78.72 590.49,-78.76 582.2,-78.91"/>
<polygon fill="#63b8ff" stroke="#63b8ff" points="607.74,-82.27 617.78,-78.88 607.81,-75.27 607.74,-82.27"/>
</a>
</g>
</g>
<!-- Node4&#45;&gt;Node3 -->
<g id="edge7_Node000004_Node000003" class="edge">
<title>Node4&#45;&gt;Node3</title>
<g id="a_edge7_Node000004_Node000003"><a xlink:title=" ">
<path fill="none" stroke="#63b8ff" d="M592.42,-92.22C600.88,-92.28 609.45,-92.25 617.78,-92.12"/>
<polygon fill="#63b8ff" stroke="#63b8ff" points="592.24,-88.72 582.2,-92.09 592.15,-95.72 592.24,-88.72"/>
</a>
</g>
</g>
<!-- Node5 -->
<g id="Node000005" class="node">
<title>Node5</title>
<g id="a_Node000005"><a xlink:href="../../d5/d0b/classutility_1_1json_1_1JSON.html#aa0dd0aa8870335a98c28b580ed26a329" target="_top" xlink:title="Load JSON object from string.">
<polygon fill="white" stroke="#666666" points="402,-105.5 301,-105.5 301,-75.5 402,-75.5 402,-105.5"/>
<text text-anchor="start" x="309" y="-93.5" font-family="Helvetica,sans-Serif" font-size="10.00">utility::json::JSON</text>
<text text-anchor="middle" x="351.5" y="-82.5" font-family="Helvetica,sans-Serif" font-size="10.00">::load</text>
</a>
</g>
</g>
<!-- Node4&#45;&gt;Node5 -->
<g id="edge4_Node000004_Node000005" class="edge">
<title>Node4&#45;&gt;Node5</title>
<g id="a_edge4_Node000004_Node000005"><a xlink:title=" ">
<path fill="none" stroke="#63b8ff" d="M444.34,-87.72C430.06,-88.15 415.4,-88.59 402.1,-89"/>
<polygon fill="#63b8ff" stroke="#63b8ff" points="444.76,-91.21 454.65,-87.4 444.55,-84.21 444.76,-91.21"/>
</a>
</g>
</g>
<!-- Node4&#45;&gt;Node8 -->
<g id="edge8_Node000004_Node000008" class="edge">
<title>Node4&#45;&gt;Node8</title>
<g id="a_edge8_Node000004_Node000008"><a xlink:title=" ">
<path fill="none" stroke="#63b8ff" d="M486.67,-73C467.7,-67.47 442.62,-61.28 419.28,-56.24"/>
<polygon fill="#63b8ff" stroke="#63b8ff" points="485.68,-76.36 496.27,-75.91 487.71,-69.66 485.68,-76.36"/>
</a>
</g>
</g>
<!-- Node6 -->
<g id="Node000006" class="node">
<title>Node6</title>
<g id="a_Node000006"><a xlink:href="../../d0/d11/classapplication_1_1config_1_1Config.html#a8b8adf0f9a6ebcd90271dafafdcd2f62" target="_top" xlink:title="Parse the configuration file.">
<polygon fill="white" stroke="#666666" points="248,-105.5 142,-105.5 142,-75.5 248,-75.5 248,-105.5"/>
<text text-anchor="start" x="150" y="-93.5" font-family="Helvetica,sans-Serif" font-size="10.00">application::config</text>
<text text-anchor="middle" x="195" y="-82.5" font-family="Helvetica,sans-Serif" font-size="10.00">::Config::parseFile</text>
</a>
</g>
</g>
<!-- Node5&#45;&gt;Node6 -->
<g id="edge5_Node000005_Node000006" class="edge">
<title>Node5&#45;&gt;Node6</title>
<g id="a_edge5_Node000005_Node000006"><a xlink:title=" ">
<path fill="none" stroke="#63b8ff" d="M290.69,-90.5C276.62,-90.5 261.73,-90.5 248.04,-90.5"/>
<polygon fill="#63b8ff" stroke="#63b8ff" points="290.76,-94 300.76,-90.5 290.76,-87 290.76,-94"/>
</a>
</g>
</g>
<!-- Node7 -->
<g id="Node000007" class="node">
<title>Node7</title>
<g id="a_Node000007"><a xlink:href="../../d0/d11/classapplication_1_1config_1_1Config.html#ab3c2ccfa11cb8fd4df7a5442b5e20227" target="_top" xlink:title="Construct a new Config object.">
<polygon fill="white" stroke="#666666" points="106,-105.5 0,-105.5 0,-75.5 106,-75.5 106,-105.5"/>
<text text-anchor="start" x="8" y="-93.5" font-family="Helvetica,sans-Serif" font-size="10.00">application::config</text>
<text text-anchor="middle" x="53" y="-82.5" font-family="Helvetica,sans-Serif" font-size="10.00">::Config::Config</text>
</a>
</g>
</g>
<!-- Node6&#45;&gt;Node7 -->
<g id="edge6_Node000006_Node000007" class="edge">
<title>Node6&#45;&gt;Node7</title>
<g id="a_edge6_Node000006_Node000007"><a xlink:title=" ">
<path fill="none" stroke="#63b8ff" d="M131.61,-90.5C123.12,-90.5 114.47,-90.5 106.17,-90.5"/>
<polygon fill="#63b8ff" stroke="#63b8ff" points="131.87,-94 141.87,-90.5 131.87,-87 131.87,-94"/>
</a>
</g>
</g>
<!-- Node8&#45;&gt;Node4 -->
<g id="edge9_Node000008_Node000004" class="edge">
<title>Node8&#45;&gt;Node4</title>
<g id="a_edge9_Node000008_Node000004"><a xlink:title=" ">
<path fill="none" stroke="#63b8ff" d="M383.49,-60.05C403.52,-65.87 430.3,-72.43 454.65,-77.6"/>
<polygon fill="#63b8ff" stroke="#63b8ff" points="384.27,-56.62 373.68,-57.08 382.24,-63.32 384.27,-56.62"/>
</a>
</g>
</g>
<!-- Node9&#45;&gt;Node8 -->
<g id="edge11_Node000009_Node000008" class="edge">
<title>Node9&#45;&gt;Node8</title>
<g id="a_edge11_Node000009_Node000008"><a xlink:title=" ">
<path fill="none" stroke="#63b8ff" d="M619.17,-15.63C573.56,-20.2 510.41,-26.79 455,-33.5 443.41,-34.9 431.1,-36.5 419.18,-38.09"/>
<polygon fill="#63b8ff" stroke="#63b8ff" points="619.6,-19.1 629.2,-14.62 618.9,-12.13 619.6,-19.1"/>
</a>
</g>
</g>
</g>
</svg>
