<?xml version="1.0" encoding="UTF-8" standalone="no"?>
<!DOCTYPE svg PUBLIC "-//W3C//DTD SVG 1.1//EN"
 "http://www.w3.org/Graphics/SVG/1.1/DTD/svg11.dtd">
<!-- Generated by graphviz version 2.43.0 (0)
 -->
<!-- Title: algorithm::optimal::Annealing Pages: 1 -->
<svg width="240pt" height="115pt"
 viewBox="0.00 0.00 240.00 115.00" xmlns="http://www.w3.org/2000/svg" xmlns:xlink="http://www.w3.org/1999/xlink">
<g id="graph0" class="graph" transform="scale(1 1) rotate(0) translate(4 111)">
<title>algorithm::optimal::Annealing</title>
<!-- Node1 -->
<g id="Node000001" class="node">
<title>Node1</title>
<g id="a_Node000001"><a xlink:title="Simulated annealing.">
<polygon fill="#999999" stroke="#666666" points="169,-30 62,-30 62,0 169,0 169,-30"/>
<text text-anchor="start" x="70" y="-18" font-family="Helvetica,sans-Serif" font-size="10.00">algorithm::optimal</text>
<text text-anchor="middle" x="115.5" y="-7" font-family="Helvetica,sans-Serif" font-size="10.00">::Annealing</text>
</a>
</g>
</g>
<!-- Node2 -->
<g id="Node000002" class="node">
<title>Node2</title>
<g id="a_Node000002"><a xlink:href="../../d4/d1c/classalgorithm_1_1optimal_1_1Optimal.html" target="_top" xlink:title="Optimal methods.">
<polygon fill="white" stroke="#666666" points="107,-107 0,-107 0,-77 107,-77 107,-107"/>
<text text-anchor="start" x="8" y="-95" font-family="Helvetica,sans-Serif" font-size="10.00">algorithm::optimal</text>
<text text-anchor="middle" x="53.5" y="-84" font-family="Helvetica,sans-Serif" font-size="10.00">::Optimal</text>
</a>
</g>
</g>
<!-- Node2&#45;&gt;Node1 -->
<g id="edge1_Node000001_Node000002" class="edge">
<title>Node2&#45;&gt;Node1</title>
<g id="a_edge1_Node000001_Node000002"><a xlink:title=" ">
<path fill="none" stroke="#63b8ff" d="M71.61,-69.1C82.03,-56.49 94.81,-41.03 103.89,-30.04"/>
<polygon fill="#63b8ff" stroke="#63b8ff" points="68.84,-66.96 65.16,-76.89 74.23,-71.42 68.84,-66.96"/>
</a>
</g>
</g>
<!-- Node3 -->
<g id="Node000003" class="node">
<title>Node3</title>
<g id="a_Node000003"><a xlink:href="../../d2/dfb/classalgorithm_1_1optimal_1_1Function.html" target="_top" xlink:title="Target functions.">
<polygon fill="white" stroke="#666666" points="232,-107 125,-107 125,-77 232,-77 232,-107"/>
<text text-anchor="start" x="133" y="-95" font-family="Helvetica,sans-Serif" font-size="10.00">algorithm::optimal</text>
<text text-anchor="middle" x="178.5" y="-84" font-family="Helvetica,sans-Serif" font-size="10.00">::Function</text>
</a>
</g>
</g>
<!-- Node3&#45;&gt;Node1 -->
<g id="edge2_Node000001_Node000003" class="edge">
<title>Node3&#45;&gt;Node1</title>
<g id="a_edge2_Node000001_Node000003"><a xlink:title=" ">
<path fill="none" stroke="#9a32cd" stroke-dasharray="5,2" d="M160.1,-69.1C149.51,-56.49 136.52,-41.03 127.3,-30.04"/>
<polygon fill="#9a32cd" stroke="#9a32cd" points="157.54,-71.49 166.65,-76.89 162.9,-66.98 157.54,-71.49"/>
</a>
</g>
<text text-anchor="middle" x="163" y="-51" font-family="Helvetica,sans-Serif" font-size="10.00" fill="grey"> func</text>
</g>
</g>
</svg>
