<?xml version="1.0" encoding="UTF-8" standalone="no"?>
<!DOCTYPE svg PUBLIC "-//W3C//DTD SVG 1.1//EN"
 "http://www.w3.org/Graphics/SVG/1.1/DTD/svg11.dtd">
<!-- Generated by graphviz version 2.43.0 (0)
 -->
<!-- Title: utility::memory::Memory&lt; T, BlockSize &gt;::Slot Pages: 1 -->
<svg width="188pt" height="115pt"
 viewBox="0.00 0.00 188.00 115.00" xmlns="http://www.w3.org/2000/svg" xmlns:xlink="http://www.w3.org/1999/xlink">
<g id="graph0" class="graph" transform="scale(1 1) rotate(0) translate(4 111)">
<title>utility::memory::Memory&lt; T, BlockSize &gt;::Slot</title>
<!-- Node1 -->
<g id="Node000001" class="node">
<title>Node1</title>
<g id="a_Node000001"><a xlink:title="Union for the slot that stores element information.">
<polygon fill="#999999" stroke="#666666" points="137,-30 0,-30 0,0 137,0 137,-30"/>
<text text-anchor="start" x="8" y="-18" font-family="Helvetica,sans-Serif" font-size="10.00">utility::memory::Memory</text>
<text text-anchor="middle" x="68.5" y="-7" font-family="Helvetica,sans-Serif" font-size="10.00">&lt; T, BlockSize &gt;::Slot</text>
</a>
</g>
</g>
<!-- Node2 -->
<g id="Node000002" class="node">
<title>Node2</title>
<g id="a_Node000002"><a xlink:href="../../d7/ddb/unionutility_1_1memory_1_1Memory_1_1Slot.html" target="_top" xlink:title="Union for the slot that stores element information.">
<polygon fill="white" stroke="#666666" points="137,-107 0,-107 0,-77 137,-77 137,-107"/>
<text text-anchor="start" x="8" y="-95" font-family="Helvetica,sans-Serif" font-size="10.00">utility::memory::Memory</text>
<text text-anchor="middle" x="68.5" y="-84" font-family="Helvetica,sans-Serif" font-size="10.00">&lt; T, BlockSize &gt;::Slot</text>
</a>
</g>
</g>
<!-- Node2&#45;&gt;Node1 -->
<g id="edge1_Node000001_Node000002" class="edge">
<title>Node2&#45;&gt;Node1</title>
<g id="a_edge1_Node000001_Node000002"><a xlink:title=" ">
<path fill="none" stroke="#9a32cd" stroke-dasharray="5,2" d="M68.5,-66.54C68.5,-54.45 68.5,-40.29 68.5,-30.04"/>
<polygon fill="#9a32cd" stroke="#9a32cd" points="65,-66.89 68.5,-76.89 72,-66.89 65,-66.89"/>
</a>
</g>
<text text-anchor="middle" x="81" y="-51" font-family="Helvetica,sans-Serif" font-size="10.00" fill="grey"> next</text>
</g>
<!-- Node2&#45;&gt;Node2 -->
<g id="edge2_Node000002_Node000002" class="edge">
<title>Node2&#45;&gt;Node2</title>
<g id="a_edge2_Node000002_Node000002"><a xlink:title=" ">
<path fill="none" stroke="#9a32cd" stroke-dasharray="5,2" d="M147.05,-97.01C152.01,-95.83 155,-94.16 155,-92 155,-88.62 147.71,-86.45 137.03,-85.47"/>
<polygon fill="#9a32cd" stroke="#9a32cd" points="146.39,-93.57 137.03,-98.53 147.44,-100.49 146.39,-93.57"/>
</a>
</g>
<text text-anchor="middle" x="167.5" y="-89.5" font-family="Helvetica,sans-Serif" font-size="10.00" fill="grey"> next</text>
</g>
</g>
</svg>
