<?xml version="1.0" encoding="UTF-8" standalone="no"?>
<!DOCTYPE svg PUBLIC "-//W3C//DTD SVG 1.1//EN"
 "http://www.w3.org/Graphics/SVG/1.1/DTD/svg11.dtd">
<!-- Generated by graphviz version 2.43.0 (0)
 -->
<!-- Title: application::app_algo::match::TargetBuilder Pages: 1 -->
<svg width="182pt" height="203pt"
 viewBox="0.00 0.00 182.00 203.00" xmlns="http://www.w3.org/2000/svg" xmlns:xlink="http://www.w3.org/1999/xlink">
<g id="graph0" class="graph" transform="scale(1 1) rotate(0) translate(4 199)">
<title>application::app_algo::match::TargetBuilder</title>
<!-- Node1 -->
<g id="Node000001" class="node">
<title>Node1</title>
<g id="a_Node000001"><a xlink:title="Builder for the target.">
<polygon fill="#999999" stroke="#666666" points="137,-30 13,-30 13,0 137,0 137,-30"/>
<text text-anchor="start" x="21" y="-18" font-family="Helvetica,sans-Serif" font-size="10.00">application::app_algo</text>
<text text-anchor="middle" x="75" y="-7" font-family="Helvetica,sans-Serif" font-size="10.00">::match::TargetBuilder</text>
</a>
</g>
</g>
<!-- Node2 -->
<g id="Node000002" class="node">
<title>Node2</title>
<g id="a_Node000002"><a target="_parent" xlink:href="https://gcc.gnu.org/onlinedocs/gcc-12.3.0/libstdc++/api/a08835.html" xlink:title=" ">
<polygon fill="white" stroke="#666666" points="147.5,-118 2.5,-118 2.5,-88 147.5,-88 147.5,-118"/>
<text text-anchor="start" x="10.5" y="-106" font-family="Helvetica,sans-Serif" font-size="10.00">std::unique_ptr&lt; unsigned</text>
<text text-anchor="middle" x="75" y="-95" font-family="Helvetica,sans-Serif" font-size="10.00"> char[]&gt;</text>
</a>
</g>
</g>
<!-- Node2&#45;&gt;Node1 -->
<g id="edge1_Node000001_Node000002" class="edge">
<title>Node2&#45;&gt;Node1</title>
<g id="a_edge1_Node000001_Node000002"><a xlink:title=" ">
<path fill="none" stroke="#9a32cd" stroke-dasharray="5,2" d="M75,-77.49C75,-62.2 75,-43.05 75,-30.22"/>
<polygon fill="#9a32cd" stroke="#9a32cd" points="71.5,-77.8 75,-87.8 78.5,-77.8 71.5,-77.8"/>
</a>
</g>
<text text-anchor="middle" x="110" y="-62" font-family="Helvetica,sans-Serif" font-size="10.00" fill="grey"> marchingText</text>
<text text-anchor="middle" x="110" y="-51" font-family="Helvetica,sans-Serif" font-size="10.00" fill="grey">singlePattern</text>
</g>
<!-- Node3 -->
<g id="Node000003" class="node">
<title>Node3</title>
<g id="a_Node000003"><a target="_parent" xlink:href="https://gcc.gnu.org/onlinedocs/gcc-12.3.0/libstdc++/api/a08835.html" xlink:title=" ">
<polygon fill="white" stroke="#666666" points="150,-195 0,-195 0,-165 150,-165 150,-195"/>
<text text-anchor="start" x="8" y="-183" font-family="Helvetica,sans-Serif" font-size="10.00">std::unique_ptr&lt; typename</text>
<text text-anchor="middle" x="75" y="-172" font-family="Helvetica,sans-Serif" font-size="10.00"> _Tp, typename _Dp &gt;</text>
</a>
</g>
</g>
<!-- Node3&#45;&gt;Node2 -->
<g id="edge2_Node000002_Node000003" class="edge">
<title>Node3&#45;&gt;Node2</title>
<g id="a_edge2_Node000002_Node000003"><a xlink:title=" ">
<path fill="none" stroke="orange" stroke-dasharray="5,2" d="M75,-154.54C75,-142.45 75,-128.29 75,-118.04"/>
<polygon fill="orange" stroke="orange" points="71.5,-154.89 75,-164.89 78.5,-154.89 71.5,-154.89"/>
</a>
</g>
<text text-anchor="middle" x="124.5" y="-139" font-family="Helvetica,sans-Serif" font-size="10.00" fill="grey"> &lt; unsigned char[]&gt;</text>
</g>
</g>
</svg>
