<?xml version="1.0" encoding="UTF-8" standalone="no"?>
<!DOCTYPE svg PUBLIC "-//W3C//DTD SVG 1.1//EN"
 "http://www.w3.org/Graphics/SVG/1.1/DTD/svg11.dtd">
<!-- Generated by graphviz version 2.43.0 (0)
 -->
<!-- Title: utility::socket::Socket::setTimeout Pages: 1 -->
<svg width="637pt" height="182pt"
 viewBox="0.00 0.00 637.00 182.00" xmlns="http://www.w3.org/2000/svg" xmlns:xlink="http://www.w3.org/1999/xlink">
<g id="graph0" class="graph" transform="scale(1 1) rotate(0) translate(4 178)">
<title>utility::socket::Socket::setTimeout</title>
<!-- Node1 -->
<g id="Node000001" class="node">
<title>Node1</title>
<g id="a_Node000001"><a xlink:title="Set the timeout period.">
<polygon fill="#999999" stroke="#666666" points="629,-78 509,-78 509,-48 629,-48 629,-78"/>
<text text-anchor="start" x="517" y="-66" font-family="Helvetica,sans-Serif" font-size="10.00">utility::socket::Socket</text>
<text text-anchor="middle" x="569" y="-55" font-family="Helvetica,sans-Serif" font-size="10.00">::setTimeout</text>
</a>
</g>
</g>
<!-- Node2 -->
<g id="Node000002" class="node">
<title>Node2</title>
<g id="a_Node000002"><a xlink:href="../../dd/dcb/classutility_1_1socket_1_1Socket.html#a1e1c6471a1bac4a007ecfede546c0a21" target="_top" xlink:title="Set the blocking mode.">
<polygon fill="white" stroke="#666666" points="473,-102 353,-102 353,-72 473,-72 473,-102"/>
<text text-anchor="start" x="361" y="-90" font-family="Helvetica,sans-Serif" font-size="10.00">utility::socket::Socket</text>
<text text-anchor="middle" x="413" y="-79" font-family="Helvetica,sans-Serif" font-size="10.00">::setBlocking</text>
</a>
</g>
</g>
<!-- Node1&#45;&gt;Node2 -->
<g id="edge1_Node000001_Node000002" class="edge">
<title>Node1&#45;&gt;Node2</title>
<g id="a_edge1_Node000001_Node000002"><a xlink:title=" ">
<path fill="none" stroke="#63b8ff" d="M498.91,-73.77C490.33,-75.1 481.61,-76.46 473.2,-77.77"/>
<polygon fill="#63b8ff" stroke="#63b8ff" points="499.56,-77.21 508.9,-72.21 498.48,-70.29 499.56,-77.21"/>
</a>
</g>
</g>
<!-- Node9 -->
<g id="Node000009" class="node">
<title>Node9</title>
<g id="a_Node000009"><a xlink:href="../../dd/dcb/classutility_1_1socket_1_1Socket.html#a0aae07f426c776c5e1bd9ee203adc46e" target="_top" xlink:title="Set the non&#45;blocking mode.">
<polygon fill="white" stroke="#666666" points="473,-54 353,-54 353,-24 473,-24 473,-54"/>
<text text-anchor="start" x="361" y="-42" font-family="Helvetica,sans-Serif" font-size="10.00">utility::socket::Socket</text>
<text text-anchor="middle" x="413" y="-31" font-family="Helvetica,sans-Serif" font-size="10.00">::setNonBlocking</text>
</a>
</g>
</g>
<!-- Node1&#45;&gt;Node9 -->
<g id="edge8_Node000001_Node000009" class="edge">
<title>Node1&#45;&gt;Node9</title>
<g id="a_edge8_Node000001_Node000009"><a xlink:title=" ">
<path fill="none" stroke="#63b8ff" d="M498.91,-52.23C490.33,-50.9 481.61,-49.54 473.2,-48.23"/>
<polygon fill="#63b8ff" stroke="#63b8ff" points="498.48,-55.71 508.9,-53.79 499.56,-48.79 498.48,-55.71"/>
</a>
</g>
</g>
<!-- Node3 -->
<g id="Node000003" class="node">
<title>Node3</title>
<g id="a_Node000003"><a xlink:href="../../de/de4/classutility_1_1socket_1_1TCPServer.html#a07c682ed7298f58acb3f689c05a5b889" target="_top" xlink:title="Bind to transport ip address and port number.">
<polygon fill="white" stroke="#666666" points="315,-174 178,-174 178,-144 315,-144 315,-174"/>
<text text-anchor="start" x="186" y="-162" font-family="Helvetica,sans-Serif" font-size="10.00">utility::socket::TCPServer</text>
<text text-anchor="middle" x="246.5" y="-151" font-family="Helvetica,sans-Serif" font-size="10.00">::toBind</text>
</a>
</g>
</g>
<!-- Node2&#45;&gt;Node3 -->
<g id="edge2_Node000002_Node000003" class="edge">
<title>Node2&#45;&gt;Node3</title>
<g id="a_edge2_Node000002_Node000003"><a xlink:title=" ">
<path fill="none" stroke="#63b8ff" d="M375.37,-106.97C357.95,-116.09 336.67,-126.68 317,-135 309.59,-138.13 301.62,-141.18 293.82,-143.99"/>
<polygon fill="#63b8ff" stroke="#63b8ff" points="377.41,-109.85 384.62,-102.08 374.14,-103.66 377.41,-109.85"/>
</a>
</g>
</g>
<!-- Node5 -->
<g id="Node000005" class="node">
<title>Node5</title>
<g id="a_Node000005"><a xlink:href="../../de/dc3/classutility_1_1socket_1_1UDPServer.html#a9c4343058d1a886a4f79d82bf5429369" target="_top" xlink:title="Bind to transport ip address and port number.">
<polygon fill="white" stroke="#666666" points="316.5,-126 176.5,-126 176.5,-96 316.5,-96 316.5,-126"/>
<text text-anchor="start" x="184.5" y="-114" font-family="Helvetica,sans-Serif" font-size="10.00">utility::socket::UDPServer</text>
<text text-anchor="middle" x="246.5" y="-103" font-family="Helvetica,sans-Serif" font-size="10.00">::toBind</text>
</a>
</g>
</g>
<!-- Node2&#45;&gt;Node5 -->
<g id="edge4_Node000002_Node000005" class="edge">
<title>Node2&#45;&gt;Node5</title>
<g id="a_edge4_Node000002_Node000005"><a xlink:title=" ">
<path fill="none" stroke="#63b8ff" d="M342.61,-97.12C334,-98.38 325.2,-99.66 316.59,-100.92"/>
<polygon fill="#63b8ff" stroke="#63b8ff" points="343.22,-100.57 352.61,-95.66 342.21,-93.64 343.22,-100.57"/>
</a>
</g>
</g>
<!-- Node7 -->
<g id="Node000007" class="node">
<title>Node7</title>
<g id="a_Node000007"><a xlink:href="../../db/d57/classutility_1_1socket_1_1UDPSocket.html#a618b08ffdf967352440c5bf690c4c8ea" target="_top" xlink:title="Open a connection on socket FD to peer.">
<polygon fill="white" stroke="#666666" points="317,-78 176,-78 176,-48 317,-48 317,-78"/>
<text text-anchor="start" x="184" y="-66" font-family="Helvetica,sans-Serif" font-size="10.00">utility::socket::UDPSocket</text>
<text text-anchor="middle" x="246.5" y="-55" font-family="Helvetica,sans-Serif" font-size="10.00">::toConnect</text>
</a>
</g>
</g>
<!-- Node2&#45;&gt;Node7 -->
<g id="edge6_Node000002_Node000007" class="edge">
<title>Node2&#45;&gt;Node7</title>
<g id="a_edge6_Node000002_Node000007"><a xlink:title=" ">
<path fill="none" stroke="#63b8ff" d="M342.5,-76.86C334.11,-75.64 325.55,-74.39 317.16,-73.16"/>
<polygon fill="#63b8ff" stroke="#63b8ff" points="342.21,-80.36 352.61,-78.34 343.22,-73.43 342.21,-80.36"/>
</a>
</g>
</g>
<!-- Node8 -->
<g id="Node000008" class="node">
<title>Node8</title>
<g id="a_Node000008"><a xlink:href="../../d1/daf/classutility_1_1socket_1_1TCPSocket.html#aa9ca7e929f74adeeb0a920984b9adf2f" target="_top" xlink:title="Open a connection on socket FD to peer.">
<polygon fill="white" stroke="#666666" points="315.5,-30 177.5,-30 177.5,0 315.5,0 315.5,-30"/>
<text text-anchor="start" x="185.5" y="-18" font-family="Helvetica,sans-Serif" font-size="10.00">utility::socket::TCPSocket</text>
<text text-anchor="middle" x="246.5" y="-7" font-family="Helvetica,sans-Serif" font-size="10.00">::toConnect</text>
</a>
</g>
</g>
<!-- Node2&#45;&gt;Node8 -->
<g id="edge7_Node000002_Node000008" class="edge">
<title>Node2&#45;&gt;Node8</title>
<g id="a_edge7_Node000002_Node000008"><a xlink:title=" ">
<path fill="none" stroke="#63b8ff" d="M362.55,-67.76C359.28,-66.22 356.07,-64.63 353,-63 336.01,-54 334.23,-47.54 317,-39 310.48,-35.77 303.42,-32.79 296.38,-30.1"/>
<polygon fill="#63b8ff" stroke="#63b8ff" points="361.27,-71.02 371.83,-71.94 364.15,-64.64 361.27,-71.02"/>
</a>
</g>
</g>
<!-- Node4 -->
<g id="Node000004" class="node">
<title>Node4</title>
<g id="a_Node000004"><a xlink:href="../../de/de4/classutility_1_1socket_1_1TCPServer.html#ac71c939c492901a4654ae7d267b9a987" target="_top" xlink:title="Bind to transport port number with default ip address.">
<polygon fill="white" stroke="#666666" points="138.5,-174 1.5,-174 1.5,-144 138.5,-144 138.5,-174"/>
<text text-anchor="start" x="9.5" y="-162" font-family="Helvetica,sans-Serif" font-size="10.00">utility::socket::TCPServer</text>
<text text-anchor="middle" x="70" y="-151" font-family="Helvetica,sans-Serif" font-size="10.00">::toBind</text>
</a>
</g>
</g>
<!-- Node3&#45;&gt;Node4 -->
<g id="edge3_Node000003_Node000004" class="edge">
<title>Node3&#45;&gt;Node4</title>
<g id="a_edge3_Node000003_Node000004"><a xlink:title=" ">
<path fill="none" stroke="#63b8ff" d="M167.29,-159C157.78,-159 148.12,-159 138.78,-159"/>
<polygon fill="#63b8ff" stroke="#63b8ff" points="167.53,-162.5 177.53,-159 167.53,-155.5 167.53,-162.5"/>
</a>
</g>
</g>
<!-- Node6 -->
<g id="Node000006" class="node">
<title>Node6</title>
<g id="a_Node000006"><a xlink:href="../../de/dc3/classutility_1_1socket_1_1UDPServer.html#a08e7843db9132c75d2b672e37c7c20b3" target="_top" xlink:title="Bind to transport port number with default ip address.">
<polygon fill="white" stroke="#666666" points="140,-126 0,-126 0,-96 140,-96 140,-126"/>
<text text-anchor="start" x="8" y="-114" font-family="Helvetica,sans-Serif" font-size="10.00">utility::socket::UDPServer</text>
<text text-anchor="middle" x="70" y="-103" font-family="Helvetica,sans-Serif" font-size="10.00">::toBind</text>
</a>
</g>
</g>
<!-- Node5&#45;&gt;Node6 -->
<g id="edge5_Node000005_Node000006" class="edge">
<title>Node5&#45;&gt;Node6</title>
<g id="a_edge5_Node000005_Node000006"><a xlink:title=" ">
<path fill="none" stroke="#63b8ff" d="M166.16,-111C157.47,-111 148.68,-111 140.13,-111"/>
<polygon fill="#63b8ff" stroke="#63b8ff" points="166.28,-114.5 176.28,-111 166.28,-107.5 166.28,-114.5"/>
</a>
</g>
</g>
</g>
</svg>
