<?xml version="1.0" encoding="UTF-8" standalone="no"?>
<!DOCTYPE svg PUBLIC "-//W3C//DTD SVG 1.1//EN"
 "http://www.w3.org/Graphics/SVG/1.1/DTD/svg11.dtd">
<!-- Generated by graphviz version 2.43.0 (0)
 -->
<!-- Title: utility::socket::Socket::ipString Pages: 1 -->
<svg width="482pt" height="134pt"
 viewBox="0.00 0.00 482.00 134.00" xmlns="http://www.w3.org/2000/svg" xmlns:xlink="http://www.w3.org/1999/xlink">
<g id="graph0" class="graph" transform="scale(1 1) rotate(0) translate(4 130)">
<title>utility::socket::Socket::ipString</title>
<!-- Node1 -->
<g id="Node000001" class="node">
<title>Node1</title>
<g id="a_Node000001"><a xlink:title="Get the ip address from transport information.">
<polygon fill="#999999" stroke="#666666" points="474,-78 354,-78 354,-48 474,-48 474,-78"/>
<text text-anchor="start" x="362" y="-66" font-family="Helvetica,sans-Serif" font-size="10.00">utility::socket::Socket</text>
<text text-anchor="middle" x="414" y="-55" font-family="Helvetica,sans-Serif" font-size="10.00">::ipString</text>
</a>
</g>
</g>
<!-- Node2 -->
<g id="Node000002" class="node">
<title>Node2</title>
<g id="a_Node000002"><a xlink:href="../../dd/dcb/classutility_1_1socket_1_1Socket.html#a53e0061fb91364c6b638a0b1011311d4" target="_top" xlink:title="Get the transport ip address.">
<polygon fill="white" stroke="#666666" points="308.5,-126 186.5,-126 186.5,-96 308.5,-96 308.5,-126"/>
<text text-anchor="start" x="194.5" y="-114" font-family="Helvetica,sans-Serif" font-size="10.00">utility::socket::Socket</text>
<text text-anchor="middle" x="247.5" y="-103" font-family="Helvetica,sans-Serif" font-size="10.00">::getTransportAddress</text>
</a>
</g>
</g>
<!-- Node1&#45;&gt;Node2 -->
<g id="edge1_Node000001_Node000002" class="edge">
<title>Node1&#45;&gt;Node2</title>
<g id="a_edge1_Node000001_Node000002"><a xlink:title=" ">
<path fill="none" stroke="#63b8ff" d="M351.56,-80.93C334.56,-85.89 316.28,-91.22 299.91,-96"/>
<polygon fill="#63b8ff" stroke="#63b8ff" points="352.78,-84.22 361.4,-78.06 350.82,-77.5 352.78,-84.22"/>
</a>
</g>
</g>
<!-- Node3 -->
<g id="Node000003" class="node">
<title>Node3</title>
<g id="a_Node000003"><a xlink:href="../../db/d57/classutility_1_1socket_1_1UDPSocket.html#a741eac0c64ffc6c5ee7c8dd98962c452" target="_top" xlink:title="Receive bytes from socket FD.">
<polygon fill="white" stroke="#666666" points="318,-78 177,-78 177,-48 318,-48 318,-78"/>
<text text-anchor="start" x="185" y="-66" font-family="Helvetica,sans-Serif" font-size="10.00">utility::socket::UDPSocket</text>
<text text-anchor="middle" x="247.5" y="-55" font-family="Helvetica,sans-Serif" font-size="10.00">::toRecv</text>
</a>
</g>
</g>
<!-- Node1&#45;&gt;Node3 -->
<g id="edge2_Node000001_Node000003" class="edge">
<title>Node1&#45;&gt;Node3</title>
<g id="a_edge2_Node000001_Node000003"><a xlink:title=" ">
<path fill="none" stroke="#63b8ff" d="M343.5,-63C335.11,-63 326.55,-63 318.16,-63"/>
<polygon fill="#63b8ff" stroke="#63b8ff" points="343.61,-66.5 353.61,-63 343.61,-59.5 343.61,-66.5"/>
</a>
</g>
</g>
<!-- Node5 -->
<g id="Node000005" class="node">
<title>Node5</title>
<g id="a_Node000005"><a xlink:href="../../db/d57/classutility_1_1socket_1_1UDPSocket.html#a5c02cc8a9702f79e1bf25b2852389642" target="_top" xlink:title="Receive bytes through socket FD.">
<polygon fill="white" stroke="#666666" points="318,-30 177,-30 177,0 318,0 318,-30"/>
<text text-anchor="start" x="185" y="-18" font-family="Helvetica,sans-Serif" font-size="10.00">utility::socket::UDPSocket</text>
<text text-anchor="middle" x="247.5" y="-7" font-family="Helvetica,sans-Serif" font-size="10.00">::toRecvFrom</text>
</a>
</g>
</g>
<!-- Node1&#45;&gt;Node5 -->
<g id="edge4_Node000001_Node000005" class="edge">
<title>Node1&#45;&gt;Node5</title>
<g id="a_edge4_Node000001_Node000005"><a xlink:title=" ">
<path fill="none" stroke="#63b8ff" d="M351.56,-45.07C334.56,-40.11 316.28,-34.78 299.91,-30"/>
<polygon fill="#63b8ff" stroke="#63b8ff" points="350.82,-48.5 361.4,-47.94 352.78,-41.78 350.82,-48.5"/>
</a>
</g>
</g>
<!-- Node4 -->
<g id="Node000004" class="node">
<title>Node4</title>
<g id="a_Node000004"><a xlink:href="../../db/d57/classutility_1_1socket_1_1UDPSocket.html#aecb9fcf211c007defd2ae34825322766" target="_top" xlink:title="Create a thread to receive.">
<polygon fill="white" stroke="#666666" points="141,-78 0,-78 0,-48 141,-48 141,-78"/>
<text text-anchor="start" x="8" y="-66" font-family="Helvetica,sans-Serif" font-size="10.00">utility::socket::UDPSocket</text>
<text text-anchor="middle" x="70.5" y="-55" font-family="Helvetica,sans-Serif" font-size="10.00">::toReceive</text>
</a>
</g>
</g>
<!-- Node3&#45;&gt;Node4 -->
<g id="edge3_Node000003_Node000004" class="edge">
<title>Node3&#45;&gt;Node4</title>
<g id="a_edge3_Node000003_Node000004"><a xlink:title=" ">
<path fill="none" stroke="#63b8ff" d="M166.58,-63C158.11,-63 149.55,-63 141.21,-63"/>
<polygon fill="#63b8ff" stroke="#63b8ff" points="166.83,-66.5 176.83,-63 166.83,-59.5 166.83,-66.5"/>
</a>
</g>
</g>
<!-- Node6 -->
<g id="Node000006" class="node">
<title>Node6</title>
<g id="a_Node000006"><a xlink:href="../../db/d57/classutility_1_1socket_1_1UDPSocket.html#aaeecb4f0c3f19b171c9cd761b305159d" target="_top" xlink:title="Create a thread to receive from peer.">
<polygon fill="white" stroke="#666666" points="141,-30 0,-30 0,0 141,0 141,-30"/>
<text text-anchor="start" x="8" y="-18" font-family="Helvetica,sans-Serif" font-size="10.00">utility::socket::UDPSocket</text>
<text text-anchor="middle" x="70.5" y="-7" font-family="Helvetica,sans-Serif" font-size="10.00">::toReceiveFrom</text>
</a>
</g>
</g>
<!-- Node5&#45;&gt;Node6 -->
<g id="edge5_Node000005_Node000006" class="edge">
<title>Node5&#45;&gt;Node6</title>
<g id="a_edge5_Node000005_Node000006"><a xlink:title=" ">
<path fill="none" stroke="#63b8ff" d="M166.58,-15C158.11,-15 149.55,-15 141.21,-15"/>
<polygon fill="#63b8ff" stroke="#63b8ff" points="166.83,-18.5 176.83,-15 166.83,-11.5 166.83,-18.5"/>
</a>
</g>
</g>
</g>
</svg>
