<?xml version="1.0" encoding="UTF-8" standalone="no"?>
<!DOCTYPE svg PUBLIC "-//W3C//DTD SVG 1.1//EN"
 "http://www.w3.org/Graphics/SVG/1.1/DTD/svg11.dtd">
<!-- Generated by graphviz version 2.43.0 (0)
 -->
<!-- Title: data_structure/include/linear.hpp Pages: 1 -->
<svg width="958pt" height="258pt"
 viewBox="0.00 0.00 958.00 258.00" xmlns="http://www.w3.org/2000/svg" xmlns:xlink="http://www.w3.org/1999/xlink">
<g id="graph0" class="graph" transform="scale(1 1) rotate(0) translate(4 254)">
<title>data_structure/include/linear.hpp</title>
<!-- Node1 -->
<g id="Node000001" class="node">
<title>Node1</title>
<g id="a_Node000001"><a xlink:title="The declarations (linear) in the data structure module.">
<polygon fill="#999999" stroke="#666666" points="872.5,-250 747.5,-250 747.5,-220 872.5,-220 872.5,-250"/>
<text text-anchor="start" x="755.5" y="-238" font-family="Helvetica,sans-Serif" font-size="10.00">data_structure/include</text>
<text text-anchor="middle" x="810" y="-227" font-family="Helvetica,sans-Serif" font-size="10.00">/linear.hpp</text>
</a>
</g>
</g>
<!-- Node2 -->
<g id="Node000002" class="node">
<title>Node2</title>
<g id="a_Node000002"><a xlink:href="../../d9/d44/apply__data__structure_8hpp.html" target="_top" xlink:title="The declarations (apply_data_structure) in the application module.">
<polygon fill="white" stroke="#666666" points="800,-184 684,-184 684,-143 800,-143 800,-184"/>
<text text-anchor="start" x="692" y="-172" font-family="Helvetica,sans-Serif" font-size="10.00">application/example</text>
<text text-anchor="start" x="692" y="-161" font-family="Helvetica,sans-Serif" font-size="10.00">/include/apply_data</text>
<text text-anchor="middle" x="742" y="-150" font-family="Helvetica,sans-Serif" font-size="10.00">_structure.hpp</text>
</a>
</g>
</g>
<!-- Node1&#45;&gt;Node2 -->
<g id="edge1_Node000001_Node000002" class="edge">
<title>Node1&#45;&gt;Node2</title>
<g id="a_edge1_Node000001_Node000002"><a xlink:title=" ">
<path fill="none" stroke="#63b8ff" d="M789.15,-212.69C780.23,-203.57 769.88,-192.99 761.15,-184.07"/>
<polygon fill="#63b8ff" stroke="#63b8ff" points="786.74,-215.24 796.24,-219.94 791.75,-210.34 786.74,-215.24"/>
</a>
</g>
</g>
<!-- Node11 -->
<g id="Node000011" class="node">
<title>Node11</title>
<g id="a_Node000011"><a xlink:href="../../d2/da4/linear_8cpp.html" target="_top" xlink:title="The definitions (linear) in the data structure module.">
<polygon fill="white" stroke="#666666" points="940,-178.5 818,-178.5 818,-148.5 940,-148.5 940,-178.5"/>
<text text-anchor="start" x="826" y="-166.5" font-family="Helvetica,sans-Serif" font-size="10.00">data_structure/source</text>
<text text-anchor="middle" x="879" y="-155.5" font-family="Helvetica,sans-Serif" font-size="10.00">/linear.cpp</text>
</a>
</g>
</g>
<!-- Node1&#45;&gt;Node11 -->
<g id="edge11_Node000001_Node000011" class="edge">
<title>Node1&#45;&gt;Node11</title>
<g id="a_edge11_Node000001_Node000011"><a xlink:title=" ">
<path fill="none" stroke="#63b8ff" d="M831.18,-212.67C842.19,-201.58 855.34,-188.34 865.06,-178.54"/>
<polygon fill="#63b8ff" stroke="#63b8ff" points="828.52,-210.37 823.96,-219.94 833.49,-215.3 828.52,-210.37"/>
</a>
</g>
</g>
<!-- Node3 -->
<g id="Node000003" class="node">
<title>Node3</title>
<g id="a_Node000003"><a xlink:href="../../d7/dc7/command_8hpp.html" target="_top" xlink:title="The declarations (command) in the application module.">
<polygon fill="white" stroke="#666666" points="595.5,-107 462.5,-107 462.5,-77 595.5,-77 595.5,-107"/>
<text text-anchor="start" x="470.5" y="-95" font-family="Helvetica,sans-Serif" font-size="10.00">application/core/include</text>
<text text-anchor="middle" x="529" y="-84" font-family="Helvetica,sans-Serif" font-size="10.00">/command.hpp</text>
</a>
</g>
</g>
<!-- Node2&#45;&gt;Node3 -->
<g id="edge2_Node000002_Node000003" class="edge">
<title>Node2&#45;&gt;Node3</title>
<g id="a_edge2_Node000002_Node000003"><a xlink:title=" ">
<path fill="none" stroke="#63b8ff" d="M674.07,-140.33C640.57,-129.41 601.2,-116.56 571.93,-107.01"/>
<polygon fill="#63b8ff" stroke="#63b8ff" points="673.2,-143.73 683.8,-143.51 675.38,-137.08 673.2,-143.73"/>
</a>
</g>
</g>
<!-- Node7 -->
<g id="Node000007" class="node">
<title>Node7</title>
<g id="a_Node000007"><a xlink:href="../../d1/d3d/apply__data__structure_8cpp.html" target="_top" xlink:title="The definitions (apply_data_structure) in the application module.">
<polygon fill="white" stroke="#666666" points="950,-35.5 772,-35.5 772,-5.5 950,-5.5 950,-35.5"/>
<text text-anchor="start" x="780" y="-23.5" font-family="Helvetica,sans-Serif" font-size="10.00">application/example</text>
<text text-anchor="middle" x="861" y="-12.5" font-family="Helvetica,sans-Serif" font-size="10.00">/source/apply_data_structure.cpp</text>
</a>
</g>
</g>
<!-- Node2&#45;&gt;Node7 -->
<g id="edge9_Node000002_Node000007" class="edge">
<title>Node2&#45;&gt;Node7</title>
<g id="a_edge9_Node000002_Node000007"><a xlink:title=" ">
<path fill="none" stroke="#63b8ff" d="M742.65,-132.61C744.4,-114.92 749.1,-92.94 761,-77 775.32,-57.83 798.31,-44.41 818.64,-35.57"/>
<polygon fill="#63b8ff" stroke="#63b8ff" points="739.13,-132.74 741.9,-142.97 746.11,-133.24 739.13,-132.74"/>
</a>
</g>
</g>
<!-- Node10 -->
<g id="Node000010" class="node">
<title>Node10</title>
<g id="a_Node000010"><a xlink:href="../../d3/d0e/test__data__structure_8cpp.html" target="_top" xlink:title="The definitions (test_data_structure) in the test module.">
<polygon fill="white" stroke="#666666" points="876,-107 770,-107 770,-77 876,-77 876,-107"/>
<text text-anchor="start" x="778" y="-95" font-family="Helvetica,sans-Serif" font-size="10.00">test/unit/test_data</text>
<text text-anchor="middle" x="823" y="-84" font-family="Helvetica,sans-Serif" font-size="10.00">_structure.cpp</text>
</a>
</g>
</g>
<!-- Node2&#45;&gt;Node10 -->
<g id="edge10_Node000002_Node000010" class="edge">
<title>Node2&#45;&gt;Node10</title>
<g id="a_edge10_Node000002_Node000010"><a xlink:title=" ">
<path fill="none" stroke="#63b8ff" d="M772.74,-136.12C784.27,-126.23 796.92,-115.38 806.64,-107.04"/>
<polygon fill="#63b8ff" stroke="#63b8ff" points="770.3,-133.6 764.99,-142.77 774.86,-138.91 770.3,-133.6"/>
</a>
</g>
</g>
<!-- Node4 -->
<g id="Node000004" class="node">
<title>Node4</title>
<g id="a_Node000004"><a xlink:href="../../d1/d81/command_8cpp.html" target="_top" xlink:title="The definitions (command) in the application module.">
<polygon fill="white" stroke="#666666" points="130,-35.5 0,-35.5 0,-5.5 130,-5.5 130,-35.5"/>
<text text-anchor="start" x="8" y="-23.5" font-family="Helvetica,sans-Serif" font-size="10.00">application/core/source</text>
<text text-anchor="middle" x="65" y="-12.5" font-family="Helvetica,sans-Serif" font-size="10.00">/command.cpp</text>
</a>
</g>
</g>
<!-- Node3&#45;&gt;Node4 -->
<g id="edge3_Node000003_Node000004" class="edge">
<title>Node3&#45;&gt;Node4</title>
<g id="a_edge3_Node000003_Node000004"><a xlink:title=" ">
<path fill="none" stroke="#63b8ff" d="M451.98,-84.11C372.97,-76.35 246.72,-62.01 139,-41 131.05,-39.45 122.68,-37.53 114.55,-35.51"/>
<polygon fill="#63b8ff" stroke="#63b8ff" points="452.04,-87.63 462.33,-85.12 452.72,-80.67 452.04,-87.63"/>
</a>
</g>
</g>
<!-- Node5 -->
<g id="Node000005" class="node">
<title>Node5</title>
<g id="a_Node000005"><a xlink:href="../../df/d92/application_2core_2source_2main_8cpp.html" target="_top" xlink:title="The definitions (main) in the application module.">
<polygon fill="white" stroke="#666666" points="278,-35.5 148,-35.5 148,-5.5 278,-5.5 278,-35.5"/>
<text text-anchor="start" x="156" y="-23.5" font-family="Helvetica,sans-Serif" font-size="10.00">application/core/source</text>
<text text-anchor="middle" x="213" y="-12.5" font-family="Helvetica,sans-Serif" font-size="10.00">/main.cpp</text>
</a>
</g>
</g>
<!-- Node3&#45;&gt;Node5 -->
<g id="edge4_Node000003_Node000005" class="edge">
<title>Node3&#45;&gt;Node5</title>
<g id="a_edge4_Node000003_Node000005"><a xlink:title=" ">
<path fill="none" stroke="#63b8ff" d="M452.33,-76.26C404.62,-66.81 342.08,-53.94 287,-41 279.89,-39.33 272.41,-37.48 265.06,-35.6"/>
<polygon fill="#63b8ff" stroke="#63b8ff" points="451.79,-79.72 462.28,-78.22 453.15,-72.85 451.79,-79.72"/>
</a>
</g>
</g>
<!-- Node6 -->
<g id="Node000006" class="node">
<title>Node6</title>
<g id="a_Node000006"><a xlink:href="../../d8/d64/apply__algorithm_8cpp.html" target="_top" xlink:title="The definitions (apply_algorithm) in the application module.">
<polygon fill="white" stroke="#666666" points="451.5,-35.5 296.5,-35.5 296.5,-5.5 451.5,-5.5 451.5,-35.5"/>
<text text-anchor="start" x="304.5" y="-23.5" font-family="Helvetica,sans-Serif" font-size="10.00">application/example</text>
<text text-anchor="middle" x="374" y="-12.5" font-family="Helvetica,sans-Serif" font-size="10.00">/source/apply_algorithm.cpp</text>
</a>
</g>
</g>
<!-- Node3&#45;&gt;Node6 -->
<g id="edge5_Node000003_Node000006" class="edge">
<title>Node3&#45;&gt;Node6</title>
<g id="a_edge5_Node000003_Node000006"><a xlink:title=" ">
<path fill="none" stroke="#63b8ff" d="M488.42,-72.81C462.45,-61.16 429.26,-46.28 405.32,-35.54"/>
<polygon fill="#63b8ff" stroke="#63b8ff" points="487.08,-76.04 497.63,-76.94 489.94,-69.65 487.08,-76.04"/>
</a>
</g>
</g>
<!-- Node3&#45;&gt;Node7 -->
<g id="edge6_Node000003_Node000007" class="edge">
<title>Node3&#45;&gt;Node7</title>
<g id="a_edge6_Node000003_Node000007"><a xlink:title=" ">
<path fill="none" stroke="#63b8ff" d="M605.82,-74.92C662.75,-63 739.6,-46.91 794.04,-35.52"/>
<polygon fill="#63b8ff" stroke="#63b8ff" points="604.86,-71.54 595.79,-77.02 606.29,-78.4 604.86,-71.54"/>
</a>
</g>
</g>
<!-- Node8 -->
<g id="Node000008" class="node">
<title>Node8</title>
<g id="a_Node000008"><a xlink:href="../../de/d6b/apply__design__pattern_8cpp.html" target="_top" xlink:title="The definitions (apply_design_pattern) in the application module.">
<polygon fill="white" stroke="#666666" points="588.5,-41 469.5,-41 469.5,0 588.5,0 588.5,-41"/>
<text text-anchor="start" x="477.5" y="-29" font-family="Helvetica,sans-Serif" font-size="10.00">application/example</text>
<text text-anchor="start" x="477.5" y="-18" font-family="Helvetica,sans-Serif" font-size="10.00">/source/apply_design</text>
<text text-anchor="middle" x="529" y="-7" font-family="Helvetica,sans-Serif" font-size="10.00">_pattern.cpp</text>
</a>
</g>
</g>
<!-- Node3&#45;&gt;Node8 -->
<g id="edge7_Node000003_Node000008" class="edge">
<title>Node3&#45;&gt;Node8</title>
<g id="a_edge7_Node000003_Node000008"><a xlink:title=" ">
<path fill="none" stroke="#63b8ff" d="M529,-66.91C529,-58.47 529,-49.1 529,-41.07"/>
<polygon fill="#63b8ff" stroke="#63b8ff" points="525.5,-66.94 529,-76.94 532.5,-66.94 525.5,-66.94"/>
</a>
</g>
</g>
<!-- Node9 -->
<g id="Node000009" class="node">
<title>Node9</title>
<g id="a_Node000009"><a xlink:href="../../d1/dee/apply__numeric_8cpp.html" target="_top" xlink:title="The definitions (apply_numeric) in the application module.">
<polygon fill="white" stroke="#666666" points="753.5,-35.5 606.5,-35.5 606.5,-5.5 753.5,-5.5 753.5,-35.5"/>
<text text-anchor="start" x="614.5" y="-23.5" font-family="Helvetica,sans-Serif" font-size="10.00">application/example</text>
<text text-anchor="middle" x="680" y="-12.5" font-family="Helvetica,sans-Serif" font-size="10.00">/source/apply_numeric.cpp</text>
</a>
</g>
</g>
<!-- Node3&#45;&gt;Node9 -->
<g id="edge8_Node000003_Node000009" class="edge">
<title>Node3&#45;&gt;Node9</title>
<g id="a_edge8_Node000003_Node000009"><a xlink:title=" ">
<path fill="none" stroke="#63b8ff" d="M568.86,-72.65C594.12,-61.03 626.27,-46.23 649.49,-35.54"/>
<polygon fill="#63b8ff" stroke="#63b8ff" points="567.18,-69.58 559.56,-76.94 570.1,-75.93 567.18,-69.58"/>
</a>
</g>
</g>
</g>
</svg>
