<?xml version="1.0" encoding="UTF-8" standalone="no"?>
<!DOCTYPE svg PUBLIC "-//W3C//DTD SVG 1.1//EN"
 "http://www.w3.org/Graphics/SVG/1.1/DTD/svg11.dtd">
<!-- Generated by graphviz version 2.43.0 (0)
 -->
<!-- Title: application::command::Command::BasicTask Pages: 1 -->
<svg width="1105pt" height="100pt"
 viewBox="0.00 0.00 1105.00 100.00" xmlns="http://www.w3.org/2000/svg" xmlns:xlink="http://www.w3.org/1999/xlink">
<g id="graph0" class="graph" transform="scale(1 1) rotate(0) translate(4 96)">
<title>application::command::Command::BasicTask</title>
<!-- Node1 -->
<g id="Node000001" class="node">
<title>Node1</title>
<g id="a_Node000001"><a xlink:title="Manage basic tasks.">
<polygon fill="#999999" stroke="#666666" points="1097,-51 970,-51 970,-21 1097,-21 1097,-51"/>
<text text-anchor="start" x="978" y="-39" font-family="Helvetica,sans-Serif" font-size="10.00">application::command</text>
<text text-anchor="middle" x="1033.5" y="-28" font-family="Helvetica,sans-Serif" font-size="10.00">::Command::BasicTask</text>
</a>
</g>
</g>
<!-- Node2 -->
<g id="Node000002" class="node">
<title>Node2</title>
<g id="a_Node000002"><a target="_parent" xlink:href="https://gcc.gnu.org/onlinedocs/gcc-12.3.0/libstdc++/api/a02103.html" xlink:title=" ">
<polygon fill="white" stroke="#666666" points="879,-56.5 710,-56.5 710,-15.5 879,-15.5 879,-56.5"/>
<text text-anchor="start" x="718" y="-44.5" font-family="Helvetica,sans-Serif" font-size="10.00">std::bitset&lt; application</text>
<text text-anchor="start" x="718" y="-33.5" font-family="Helvetica,sans-Serif" font-size="10.00">::command::Bottom&lt; Category</text>
<text text-anchor="middle" x="794.5" y="-22.5" font-family="Helvetica,sans-Serif" font-size="10.00"> &gt;::value &gt;</text>
</a>
</g>
</g>
<!-- Node2&#45;&gt;Node1 -->
<g id="edge1_Node000001_Node000002" class="edge">
<title>Node2&#45;&gt;Node1</title>
<g id="a_edge1_Node000001_Node000002"><a xlink:title=" ">
<path fill="none" stroke="#9a32cd" stroke-dasharray="5,2" d="M889.32,-36C916.34,-36 945.16,-36 969.8,-36"/>
<polygon fill="#9a32cd" stroke="#9a32cd" points="889.06,-32.5 879.06,-36 889.06,-39.5 889.06,-32.5"/>
</a>
</g>
<text text-anchor="middle" x="924.5" y="-39" font-family="Helvetica,sans-Serif" font-size="10.00" fill="grey"> primaryBit</text>
</g>
<!-- Node3 -->
<g id="Node000003" class="node">
<title>Node3</title>
<g id="a_Node000003"><a target="_parent" xlink:href="https://gcc.gnu.org/onlinedocs/gcc-12.3.0/libstdc++/api/a02075.html" xlink:title=" ">
<polygon fill="white" stroke="#666666" points="408,-74 265,-74 265,0 408,0 408,-74"/>
<text text-anchor="start" x="273" y="-62" font-family="Helvetica,sans-Serif" font-size="10.00">std::_Base_bitset&lt;</text>
<text text-anchor="start" x="273" y="-51" font-family="Helvetica,sans-Serif" font-size="10.00">((_Nb)/(__CHAR_BIT_</text>
<text text-anchor="start" x="273" y="-40" font-family="Helvetica,sans-Serif" font-size="10.00">_ *__SIZEOF_LONG__)+</text>
<text text-anchor="start" x="273" y="-29" font-family="Helvetica,sans-Serif" font-size="10.00">((_Nb) %(__CHAR_BIT__</text>
<text text-anchor="start" x="273" y="-18" font-family="Helvetica,sans-Serif" font-size="10.00"> *__SIZEOF_LONG__)==0 </text>
<text text-anchor="middle" x="336.5" y="-7" font-family="Helvetica,sans-Serif" font-size="10.00">? 0 :1))&gt;</text>
</a>
</g>
</g>
<!-- Node3&#45;&gt;Node2 -->
<g id="edge2_Node000002_Node000003" class="edge">
<title>Node3&#45;&gt;Node2</title>
<g id="a_edge2_Node000002_Node000003"><a xlink:title=" ">
<path fill="none" stroke="#8b1a1a" d="M418.5,-42.48C490.38,-46.53 598.23,-50.61 692,-46 697.84,-45.71 703.85,-45.33 709.91,-44.89"/>
<polygon fill="#8b1a1a" stroke="#8b1a1a" points="418.34,-38.97 408.16,-41.89 417.94,-45.96 418.34,-38.97"/>
</a>
</g>
</g>
<!-- Node5 -->
<g id="Node000005" class="node">
<title>Node5</title>
<g id="a_Node000005"><a target="_parent" xlink:href="https://gcc.gnu.org/onlinedocs/gcc-12.3.0/libstdc++/api/a02103.html" xlink:title=" ">
<polygon fill="white" stroke="#666666" points="550,-30 445,-30 445,0 550,0 550,-30"/>
<text text-anchor="start" x="453" y="-18" font-family="Helvetica,sans-Serif" font-size="10.00">std::bitset&lt; size_t</text>
<text text-anchor="middle" x="497.5" y="-7" font-family="Helvetica,sans-Serif" font-size="10.00"> _Nb &gt;</text>
</a>
</g>
</g>
<!-- Node3&#45;&gt;Node5 -->
<g id="edge5_Node000005_Node000003" class="edge">
<title>Node3&#45;&gt;Node5</title>
<g id="a_edge5_Node000005_Node000003"><a xlink:title=" ">
<path fill="none" stroke="#8b1a1a" d="M418.27,-25.82C427.24,-24.58 436.19,-23.35 444.65,-22.17"/>
<polygon fill="#8b1a1a" stroke="#8b1a1a" points="417.59,-22.38 408.17,-27.22 418.55,-29.32 417.59,-22.38"/>
</a>
</g>
</g>
<!-- Node4 -->
<g id="Node000004" class="node">
<title>Node4</title>
<g id="a_Node000004"><a target="_parent" xlink:href="https://gcc.gnu.org/onlinedocs/gcc-12.3.0/libstdc++/api/a02075.html" xlink:title=" ">
<polygon fill="white" stroke="#666666" points="108,-52 0,-52 0,-22 108,-22 108,-52"/>
<text text-anchor="start" x="8" y="-40" font-family="Helvetica,sans-Serif" font-size="10.00">std::_Base_bitset&lt;</text>
<text text-anchor="middle" x="54" y="-29" font-family="Helvetica,sans-Serif" font-size="10.00"> size_t _Nw &gt;</text>
</a>
</g>
</g>
<!-- Node4&#45;&gt;Node3 -->
<g id="edge3_Node000003_Node000004" class="edge">
<title>Node4&#45;&gt;Node3</title>
<g id="a_edge3_Node000003_Node000004"><a xlink:title=" ">
<path fill="none" stroke="orange" stroke-dasharray="5,2" d="M118.28,-37C161.85,-37 219.79,-37 264.87,-37"/>
<polygon fill="orange" stroke="orange" points="118.09,-33.5 108.09,-37 118.09,-40.5 118.09,-33.5"/>
</a>
</g>
<text text-anchor="start" x="126" y="-84" font-family="Helvetica,sans-Serif" font-size="10.00" fill="grey"> &lt;((_Nb)/(__CHAR_BIT</text>
<text text-anchor="start" x="126" y="-73" font-family="Helvetica,sans-Serif" font-size="10.00" fill="grey">__ *__SIZEOF_LONG__)</text>
<text text-anchor="start" x="126" y="-62" font-family="Helvetica,sans-Serif" font-size="10.00" fill="grey">+((_Nb) %(__CHAR_BIT</text>
<text text-anchor="start" x="126" y="-51" font-family="Helvetica,sans-Serif" font-size="10.00" fill="grey">__ *__SIZEOF_LONG__)=</text>
<text text-anchor="middle" x="186.5" y="-40" font-family="Helvetica,sans-Serif" font-size="10.00" fill="grey">=0 ? 0 :1))&gt;</text>
</g>
<!-- Node5&#45;&gt;Node2 -->
<g id="edge4_Node000002_Node000005" class="edge">
<title>Node5&#45;&gt;Node2</title>
<g id="a_edge4_Node000002_Node000005"><a xlink:title=" ">
<path fill="none" stroke="orange" stroke-dasharray="5,2" d="M560.27,-13.13C562.88,-13.08 565.47,-13.04 568,-13 623.11,-12.21 637.23,-6.87 692,-13 697.84,-13.65 703.83,-14.51 709.84,-15.51"/>
<polygon fill="orange" stroke="orange" points="560.03,-9.63 550.11,-13.35 560.19,-16.63 560.03,-9.63"/>
</a>
</g>
<text text-anchor="start" x="568" y="-38" font-family="Helvetica,sans-Serif" font-size="10.00" fill="grey"> &lt; application::command</text>
<text text-anchor="start" x="568" y="-27" font-family="Helvetica,sans-Serif" font-size="10.00" fill="grey">::Bottom&lt; Category &gt;::</text>
<text text-anchor="middle" x="630" y="-16" font-family="Helvetica,sans-Serif" font-size="10.00" fill="grey">value &gt;</text>
</g>
</g>
</svg>
