<?xml version="1.0" encoding="UTF-8" standalone="no"?>
<!DOCTYPE svg PUBLIC "-//W3C//DTD SVG 1.1//EN"
 "http://www.w3.org/Graphics/SVG/1.1/DTD/svg11.dtd">
<!-- Generated by graphviz version 2.43.0 (0)
 -->
<!-- Title: numeric::integral::MonteCarlo::refreshRandomCache Pages: 1 -->
<svg width="571pt" height="49pt"
 viewBox="0.00 0.00 571.00 49.00" xmlns="http://www.w3.org/2000/svg" xmlns:xlink="http://www.w3.org/1999/xlink">
<g id="graph0" class="graph" transform="scale(1 1) rotate(0) translate(4 45)">
<title>numeric::integral::MonteCarlo::refreshRandomCache</title>
<!-- Node1 -->
<g id="Node000001" class="node">
<title>Node1</title>
<g id="a_Node000001"><a xlink:title="Refresh the random cache.">
<polygon fill="#999999" stroke="#666666" points="563,-35.5 379,-35.5 379,-5.5 563,-5.5 563,-35.5"/>
<text text-anchor="start" x="387" y="-23.5" font-family="Helvetica,sans-Serif" font-size="10.00">numeric::integral::</text>
<text text-anchor="middle" x="471" y="-12.5" font-family="Helvetica,sans-Serif" font-size="10.00">MonteCarlo::refreshRandomCache</text>
</a>
</g>
</g>
<!-- Node2 -->
<g id="Node000002" class="node">
<title>Node2</title>
<g id="a_Node000002"><a xlink:href="../../d0/d64/classnumeric_1_1integral_1_1MonteCarlo.html#ab9b3eef61d428bfafa8c31efc2820d37" target="_top" xlink:title="Sample from the uniform distribution.">
<polygon fill="white" stroke="#666666" points="343,-41 164,-41 164,0 343,0 343,-41"/>
<text text-anchor="start" x="172" y="-29" font-family="Helvetica,sans-Serif" font-size="10.00">numeric::integral::</text>
<text text-anchor="start" x="172" y="-18" font-family="Helvetica,sans-Serif" font-size="10.00">MonteCarlo::sampleFromUniform</text>
<text text-anchor="middle" x="253.5" y="-7" font-family="Helvetica,sans-Serif" font-size="10.00">Distribution</text>
</a>
</g>
</g>
<!-- Node1&#45;&gt;Node2 -->
<g id="edge1_Node000001_Node000002" class="edge">
<title>Node1&#45;&gt;Node2</title>
<g id="a_edge1_Node000001_Node000002"><a xlink:title=" ">
<path fill="none" stroke="#63b8ff" d="M368.89,-20.5C360.3,-20.5 351.67,-20.5 343.19,-20.5"/>
<polygon fill="#63b8ff" stroke="#63b8ff" points="368.92,-24 378.92,-20.5 368.92,-17 368.92,-24"/>
</a>
</g>
</g>
<!-- Node3 -->
<g id="Node000003" class="node">
<title>Node3</title>
<g id="a_Node000003"><a xlink:href="../../d0/d64/classnumeric_1_1integral_1_1MonteCarlo.html#a1fb2d9599a6bf334578b2a9d8c93b3aa" target="_top" xlink:title="The operator (()) overloading of MonteCarlo class.">
<polygon fill="white" stroke="#666666" points="128,-35.5 0,-35.5 0,-5.5 128,-5.5 128,-35.5"/>
<text text-anchor="start" x="8" y="-23.5" font-family="Helvetica,sans-Serif" font-size="10.00">numeric::integral::</text>
<text text-anchor="middle" x="64" y="-12.5" font-family="Helvetica,sans-Serif" font-size="10.00">MonteCarlo::operator()</text>
</a>
</g>
</g>
<!-- Node2&#45;&gt;Node3 -->
<g id="edge2_Node000002_Node000003" class="edge">
<title>Node2&#45;&gt;Node3</title>
<g id="a_edge2_Node000002_Node000003"><a xlink:title=" ">
<path fill="none" stroke="#63b8ff" d="M153.72,-20.5C144.99,-20.5 136.33,-20.5 128.02,-20.5"/>
<polygon fill="#63b8ff" stroke="#63b8ff" points="153.97,-24 163.97,-20.5 153.97,-17 153.97,-24"/>
</a>
</g>
</g>
</g>
</svg>
