<?xml version="1.0" encoding="UTF-8" standalone="no"?>
<!DOCTYPE svg PUBLIC "-//W3C//DTD SVG 1.1//EN"
 "http://www.w3.org/Graphics/SVG/1.1/DTD/svg11.dtd">
<!-- Generated by graphviz version 2.43.0 (0)
 -->
<!-- Title: date_structure::tree::avl::Output::flush Pages: 1 -->
<svg width="324pt" height="254pt"
 viewBox="0.00 0.00 324.00 254.00" xmlns="http://www.w3.org/2000/svg" xmlns:xlink="http://www.w3.org/1999/xlink">
<g id="graph0" class="graph" transform="scale(1 1) rotate(0) translate(4 250)">
<title>date_structure::tree::avl::Output::flush</title>
<!-- Node1 -->
<g id="Node000001" class="node">
<title>Node1</title>
<g id="a_Node000001"><a xlink:title="Flush the output stream.">
<polygon fill="#999999" stroke="#666666" points="316,-129 203,-129 203,-99 316,-99 316,-129"/>
<text text-anchor="start" x="211" y="-117" font-family="Helvetica,sans-Serif" font-size="10.00">date_structure::tree</text>
<text text-anchor="middle" x="259.5" y="-106" font-family="Helvetica,sans-Serif" font-size="10.00">::avl::Output::flush</text>
</a>
</g>
</g>
<!-- Node2 -->
<g id="Node000002" class="node">
<title>Node2</title>
<g id="a_Node000002"><a xlink:href="../../db/dec/classdate__structure_1_1tree_1_1avl_1_1Output.html#a0dca5152286e390f5808f24b9392261f" target="_top" xlink:title="The in&#45;order traversal of the AVL tree.">
<polygon fill="white" stroke="#666666" points="161,-228 6,-228 6,-198 161,-198 161,-228"/>
<text text-anchor="start" x="14" y="-216" font-family="Helvetica,sans-Serif" font-size="10.00">date_structure::tree</text>
<text text-anchor="middle" x="83.5" y="-205" font-family="Helvetica,sans-Serif" font-size="10.00">::avl::Output::inorderAVLTree</text>
</a>
</g>
</g>
<!-- Node1&#45;&gt;Node2 -->
<g id="edge1_Node000001_Node000002" class="edge">
<title>Node1&#45;&gt;Node2</title>
<g id="a_edge1_Node000001_Node000002"><a xlink:title=" ">
<path fill="none" stroke="#63b8ff" d="M236.61,-136.31C219.14,-152.96 193.32,-175.14 167,-189 160.53,-192.41 153.52,-195.39 146.41,-197.98"/>
<polygon fill="#63b8ff" stroke="#63b8ff" points="239.29,-138.58 244.02,-129.09 234.41,-133.56 239.29,-138.58"/>
</a>
</g>
</g>
<!-- Node3 -->
<g id="Node000003" class="node">
<title>Node3</title>
<g id="a_Node000003"><a xlink:href="../../db/dec/classdate__structure_1_1tree_1_1avl_1_1Output.html#a857932b9b418d8862fb73b620dba2910" target="_top" xlink:title="The post&#45;order traversal of the AVL tree.">
<polygon fill="white" stroke="#666666" points="167,-162 0,-162 0,-132 167,-132 167,-162"/>
<text text-anchor="start" x="8" y="-150" font-family="Helvetica,sans-Serif" font-size="10.00">date_structure::tree</text>
<text text-anchor="middle" x="83.5" y="-139" font-family="Helvetica,sans-Serif" font-size="10.00">::avl::Output::postorderAVLTree</text>
</a>
</g>
</g>
<!-- Node1&#45;&gt;Node3 -->
<g id="edge3_Node000001_Node000003" class="edge">
<title>Node1&#45;&gt;Node3</title>
<g id="a_edge3_Node000001_Node000003"><a xlink:title=" ">
<path fill="none" stroke="#63b8ff" d="M193.1,-126.4C183.47,-128.23 173.47,-130.13 163.61,-132"/>
<polygon fill="#63b8ff" stroke="#63b8ff" points="193.79,-129.83 202.97,-124.53 192.49,-122.96 193.79,-129.83"/>
</a>
</g>
</g>
<!-- Node4 -->
<g id="Node000004" class="node">
<title>Node4</title>
<g id="a_Node000004"><a xlink:href="../../db/dec/classdate__structure_1_1tree_1_1avl_1_1Output.html#a3257cbf624351546eafd3b512b3b4272" target="_top" xlink:title="The pre&#45;order traversal of the AVL tree.">
<polygon fill="white" stroke="#666666" points="164,-96 3,-96 3,-66 164,-66 164,-96"/>
<text text-anchor="start" x="11" y="-84" font-family="Helvetica,sans-Serif" font-size="10.00">date_structure::tree</text>
<text text-anchor="middle" x="83.5" y="-73" font-family="Helvetica,sans-Serif" font-size="10.00">::avl::Output::preorderAVLTree</text>
</a>
</g>
</g>
<!-- Node1&#45;&gt;Node4 -->
<g id="edge5_Node000001_Node000004" class="edge">
<title>Node1&#45;&gt;Node4</title>
<g id="a_edge5_Node000001_Node000004"><a xlink:title=" ">
<path fill="none" stroke="#63b8ff" d="M193.1,-101.6C183.47,-99.77 173.47,-97.87 163.61,-96"/>
<polygon fill="#63b8ff" stroke="#63b8ff" points="192.49,-105.04 202.97,-103.47 193.79,-98.17 192.49,-105.04"/>
</a>
</g>
</g>
<!-- Node5 -->
<g id="Node000005" class="node">
<title>Node5</title>
<g id="a_Node000005"><a xlink:href="../../db/dec/classdate__structure_1_1tree_1_1avl_1_1Output.html#ace99002bcf5d0c121cfc434239b2b86b" target="_top" xlink:title="Print the AVL tree.">
<polygon fill="white" stroke="#666666" points="155,-30 12,-30 12,0 155,0 155,-30"/>
<text text-anchor="start" x="20" y="-18" font-family="Helvetica,sans-Serif" font-size="10.00">date_structure::tree</text>
<text text-anchor="middle" x="83.5" y="-7" font-family="Helvetica,sans-Serif" font-size="10.00">::avl::Output::printAVLTree</text>
</a>
</g>
</g>
<!-- Node1&#45;&gt;Node5 -->
<g id="edge7_Node000001_Node000005" class="edge">
<title>Node1&#45;&gt;Node5</title>
<g id="a_edge7_Node000001_Node000005"><a xlink:title=" ">
<path fill="none" stroke="#63b8ff" d="M226.86,-93.35C209.42,-82.21 187.26,-68.44 167,-57 150.35,-47.6 131.35,-37.86 115.78,-30.13"/>
<polygon fill="#63b8ff" stroke="#63b8ff" points="225.21,-96.45 235.52,-98.91 228.99,-90.56 225.21,-96.45"/>
</a>
</g>
</g>
<!-- Node2&#45;&gt;Node2 -->
<g id="edge2_Node000002_Node000002" class="edge">
<title>Node2&#45;&gt;Node2</title>
<g id="a_edge2_Node000002_Node000002"><a xlink:title=" ">
<path fill="none" stroke="#63b8ff" d="M114.31,-238.6C110.1,-242.97 99.83,-246 83.5,-246 56,-246 45.69,-237.41 52.56,-228.28"/>
<polygon fill="#63b8ff" stroke="#63b8ff" points="117.81,-238.32 114.44,-228.28 110.81,-238.23 117.81,-238.32"/>
</a>
</g>
</g>
<!-- Node3&#45;&gt;Node3 -->
<g id="edge4_Node000003_Node000003" class="edge">
<title>Node3&#45;&gt;Node3</title>
<g id="a_edge4_Node000003_Node000003"><a xlink:title=" ">
<path fill="none" stroke="#63b8ff" d="M114.31,-172.6C110.1,-176.97 99.83,-180 83.5,-180 56,-180 45.69,-171.41 52.56,-162.28"/>
<polygon fill="#63b8ff" stroke="#63b8ff" points="117.81,-172.32 114.44,-162.28 110.81,-172.23 117.81,-172.32"/>
</a>
</g>
</g>
<!-- Node4&#45;&gt;Node4 -->
<g id="edge6_Node000004_Node000004" class="edge">
<title>Node4&#45;&gt;Node4</title>
<g id="a_edge6_Node000004_Node000004"><a xlink:title=" ">
<path fill="none" stroke="#63b8ff" d="M114.31,-106.6C110.1,-110.97 99.83,-114 83.5,-114 56,-114 45.69,-105.41 52.56,-96.28"/>
<polygon fill="#63b8ff" stroke="#63b8ff" points="117.81,-106.32 114.44,-96.28 110.81,-106.23 117.81,-106.32"/>
</a>
</g>
</g>
<!-- Node5&#45;&gt;Node5 -->
<g id="edge8_Node000005_Node000005" class="edge">
<title>Node5&#45;&gt;Node5</title>
<g id="a_edge8_Node000005_Node000005"><a xlink:title=" ">
<path fill="none" stroke="#63b8ff" d="M114.31,-40.6C110.1,-44.97 99.83,-48 83.5,-48 56,-48 45.69,-39.41 52.56,-30.28"/>
<polygon fill="#63b8ff" stroke="#63b8ff" points="117.81,-40.32 114.44,-30.28 110.81,-40.23 117.81,-40.32"/>
</a>
</g>
</g>
</g>
</svg>
