<?xml version="1.0" encoding="UTF-8" standalone="no"?>
<!DOCTYPE svg PUBLIC "-//W3C//DTD SVG 1.1//EN"
 "http://www.w3.org/Graphics/SVG/1.1/DTD/svg11.dtd">
<!-- Generated by graphviz version 2.43.0 (0)
 -->
<!-- Title: application::command::presetTaskName Pages: 1 -->
<svg width="452pt" height="662pt"
 viewBox="0.00 0.00 452.00 662.00" xmlns="http://www.w3.org/2000/svg" xmlns:xlink="http://www.w3.org/1999/xlink">
<g id="graph0" class="graph" transform="scale(1 1) rotate(0) translate(4 658)">
<title>application::command::presetTaskName</title>
<!-- Node1 -->
<g id="Node000001" class="node">
<title>Node1</title>
<g id="a_Node000001"><a xlink:title="Preset thread name.">
<polygon fill="#999999" stroke="#666666" points="444,-342 319,-342 319,-312 444,-312 444,-342"/>
<text text-anchor="start" x="327" y="-330" font-family="Helvetica,sans-Serif" font-size="10.00">application::command</text>
<text text-anchor="middle" x="381.5" y="-319" font-family="Helvetica,sans-Serif" font-size="10.00">::presetTaskName</text>
</a>
</g>
</g>
<!-- Node1&#45;&gt;Node1 -->
<g id="edge19_Node000001_Node000001" class="edge">
<title>Node1&#45;&gt;Node1</title>
<g id="a_edge19_Node000001_Node000001"><a xlink:title=" ">
<path fill="none" stroke="#63b8ff" d="M409.51,-352.6C405.68,-356.97 396.34,-360 381.5,-360 356.5,-360 347.12,-351.41 353.38,-342.28"/>
<polygon fill="#63b8ff" stroke="#63b8ff" points="413.01,-352.32 409.62,-342.28 406.01,-352.23 413.01,-352.32"/>
</a>
</g>
</g>
<!-- Node2 -->
<g id="Node000002" class="node">
<title>Node2</title>
<g id="a_Node000002"><a xlink:href="../../d7/dd4/namespaceapplication_1_1app__algo.html#ac782d4d9122dbb4a0a9b6f72edcf12ca" target="_top" xlink:title="Get the task name curried.">
<polygon fill="white" stroke="#666666" points="283,-534 158,-534 158,-504 283,-504 283,-534"/>
<text text-anchor="start" x="166" y="-522" font-family="Helvetica,sans-Serif" font-size="10.00">application::app_algo</text>
<text text-anchor="middle" x="220.5" y="-511" font-family="Helvetica,sans-Serif" font-size="10.00">::getTaskNameCurried</text>
</a>
</g>
</g>
<!-- Node1&#45;&gt;Node2 -->
<g id="edge1_Node000001_Node000002" class="edge">
<title>Node1&#45;&gt;Node2</title>
<g id="a_edge1_Node000001_Node000002"><a xlink:title=" ">
<path fill="none" stroke="#63b8ff" d="M361.55,-349.88C328.69,-389.57 261.97,-470.13 234.14,-503.74"/>
<polygon fill="#63b8ff" stroke="#63b8ff" points="364.34,-352 368.02,-342.07 358.95,-347.54 364.34,-352"/>
</a>
</g>
</g>
<!-- Node8 -->
<g id="Node000008" class="node">
<title>Node8</title>
<g id="a_Node000008"><a xlink:href="../../d0/dc3/namespaceapplication_1_1app__ds.html#a341c68ad9e2a6d2dbd98a71512ed09dc" target="_top" xlink:title="Get the task name curried.">
<polygon fill="white" stroke="#666666" points="283,-366 158,-366 158,-336 283,-336 283,-366"/>
<text text-anchor="start" x="166" y="-354" font-family="Helvetica,sans-Serif" font-size="10.00">application::app_ds</text>
<text text-anchor="middle" x="220.5" y="-343" font-family="Helvetica,sans-Serif" font-size="10.00">::getTaskNameCurried</text>
</a>
</g>
</g>
<!-- Node1&#45;&gt;Node8 -->
<g id="edge7_Node000001_Node000008" class="edge">
<title>Node1&#45;&gt;Node8</title>
<g id="a_edge7_Node000001_Node000008"><a xlink:title=" ">
<path fill="none" stroke="#63b8ff" d="M308.41,-337.88C300.01,-339.15 291.5,-340.43 283.26,-341.68"/>
<polygon fill="#63b8ff" stroke="#63b8ff" points="309.21,-341.3 318.57,-336.35 308.16,-334.38 309.21,-341.3"/>
</a>
</g>
</g>
<!-- Node11 -->
<g id="Node000011" class="node">
<title>Node11</title>
<g id="a_Node000011"><a xlink:href="../../d2/dc1/namespaceapplication_1_1app__dp.html#a15d6626ccd29c8d793326c7972bc0e65" target="_top" xlink:title="Get the task name curried.">
<polygon fill="white" stroke="#666666" points="283,-294 158,-294 158,-264 283,-264 283,-294"/>
<text text-anchor="start" x="166" y="-282" font-family="Helvetica,sans-Serif" font-size="10.00">application::app_dp</text>
<text text-anchor="middle" x="220.5" y="-271" font-family="Helvetica,sans-Serif" font-size="10.00">::getTaskNameCurried</text>
</a>
</g>
</g>
<!-- Node1&#45;&gt;Node11 -->
<g id="edge10_Node000001_Node000011" class="edge">
<title>Node1&#45;&gt;Node11</title>
<g id="a_edge10_Node000001_Node000011"><a xlink:title=" ">
<path fill="none" stroke="#63b8ff" d="M320.65,-308.93C304.35,-304.01 286.87,-298.73 271.2,-294"/>
<polygon fill="#63b8ff" stroke="#63b8ff" points="320.04,-312.4 330.63,-311.94 322.07,-305.7 320.04,-312.4"/>
</a>
</g>
</g>
<!-- Node15 -->
<g id="Node000015" class="node">
<title>Node15</title>
<g id="a_Node000015"><a xlink:href="../../de/dbe/namespaceapplication_1_1app__num.html#a6a449c0b8e849e653ff17cd978f27548" target="_top" xlink:title="Get the task name curried.">
<polygon fill="white" stroke="#666666" points="283,-126 158,-126 158,-96 283,-96 283,-126"/>
<text text-anchor="start" x="166" y="-114" font-family="Helvetica,sans-Serif" font-size="10.00">application::app_num</text>
<text text-anchor="middle" x="220.5" y="-103" font-family="Helvetica,sans-Serif" font-size="10.00">::getTaskNameCurried</text>
</a>
</g>
</g>
<!-- Node1&#45;&gt;Node15 -->
<g id="edge14_Node000001_Node000015" class="edge">
<title>Node1&#45;&gt;Node15</title>
<g id="a_edge14_Node000001_Node000015"><a xlink:title=" ">
<path fill="none" stroke="#63b8ff" d="M363.29,-303.63C330.53,-259.12 260.02,-163.34 232.67,-126.17"/>
<polygon fill="#63b8ff" stroke="#63b8ff" points="360.57,-305.83 369.32,-311.81 366.21,-301.68 360.57,-305.83"/>
</a>
</g>
</g>
<!-- Node3 -->
<g id="Node000003" class="node">
<title>Node3</title>
<g id="a_Node000003"><a xlink:href="../../d7/dd4/namespaceapplication_1_1app__algo.html#a317a232febf9ceb60c8e49be2ba06c36" target="_top" xlink:title="Run match tasks.">
<polygon fill="white" stroke="#666666" points="121.5,-654 0.5,-654 0.5,-624 121.5,-624 121.5,-654"/>
<text text-anchor="start" x="8.5" y="-642" font-family="Helvetica,sans-Serif" font-size="10.00">application::app_algo</text>
<text text-anchor="middle" x="61" y="-631" font-family="Helvetica,sans-Serif" font-size="10.00">::runMatchTasks</text>
</a>
</g>
</g>
<!-- Node2&#45;&gt;Node3 -->
<g id="edge2_Node000002_Node000003" class="edge">
<title>Node2&#45;&gt;Node3</title>
<g id="a_edge2_Node000002_Node000003"><a xlink:title=" ">
<path fill="none" stroke="#63b8ff" d="M200.78,-542.11C182.53,-563.4 153.07,-594.69 122,-615 116.93,-618.32 111.33,-621.3 105.65,-623.95"/>
<polygon fill="#63b8ff" stroke="#63b8ff" points="203.67,-544.11 207.43,-534.21 198.31,-539.61 203.67,-544.11"/>
</a>
</g>
</g>
<!-- Node4 -->
<g id="Node000004" class="node">
<title>Node4</title>
<g id="a_Node000004"><a xlink:href="../../d7/dd4/namespaceapplication_1_1app__algo.html#a99fbd5b654baa6c2f19c08245d348030" target="_top" xlink:title="Run notation tasks.">
<polygon fill="white" stroke="#666666" points="121.5,-606 0.5,-606 0.5,-576 121.5,-576 121.5,-606"/>
<text text-anchor="start" x="8.5" y="-594" font-family="Helvetica,sans-Serif" font-size="10.00">application::app_algo</text>
<text text-anchor="middle" x="61" y="-583" font-family="Helvetica,sans-Serif" font-size="10.00">::runNotationTasks</text>
</a>
</g>
</g>
<!-- Node2&#45;&gt;Node4 -->
<g id="edge3_Node000002_Node000004" class="edge">
<title>Node2&#45;&gt;Node4</title>
<g id="a_edge3_Node000002_Node000004"><a xlink:title=" ">
<path fill="none" stroke="#63b8ff" d="M181.37,-538.62C163.49,-547.6 141.81,-558.18 122,-567 115.24,-570.01 107.97,-573.07 100.91,-575.94"/>
<polygon fill="#63b8ff" stroke="#63b8ff" points="182.99,-541.72 190.34,-534.09 179.84,-535.47 182.99,-541.72"/>
</a>
</g>
</g>
<!-- Node5 -->
<g id="Node000005" class="node">
<title>Node5</title>
<g id="a_Node000005"><a xlink:href="../../d7/dd4/namespaceapplication_1_1app__algo.html#a73b5411d7029e486a45ed588c4bb60e2" target="_top" xlink:title="Run optimal tasks.">
<polygon fill="white" stroke="#666666" points="121.5,-558 0.5,-558 0.5,-528 121.5,-528 121.5,-558"/>
<text text-anchor="start" x="8.5" y="-546" font-family="Helvetica,sans-Serif" font-size="10.00">application::app_algo</text>
<text text-anchor="middle" x="61" y="-535" font-family="Helvetica,sans-Serif" font-size="10.00">::runOptimalTasks</text>
</a>
</g>
</g>
<!-- Node2&#45;&gt;Node5 -->
<g id="edge4_Node000002_Node000005" class="edge">
<title>Node2&#45;&gt;Node5</title>
<g id="a_edge4_Node000002_Node000005"><a xlink:title=" ">
<path fill="none" stroke="#63b8ff" d="M147.57,-529.96C138.87,-531.29 130.05,-532.63 121.56,-533.92"/>
<polygon fill="#63b8ff" stroke="#63b8ff" points="148.35,-533.38 157.7,-528.42 147.29,-526.46 148.35,-533.38"/>
</a>
</g>
</g>
<!-- Node6 -->
<g id="Node000006" class="node">
<title>Node6</title>
<g id="a_Node000006"><a xlink:href="../../d7/dd4/namespaceapplication_1_1app__algo.html#a4e99e8963e76e52eb6b30f9cb1714b11" target="_top" xlink:title="Run search tasks.">
<polygon fill="white" stroke="#666666" points="121.5,-510 0.5,-510 0.5,-480 121.5,-480 121.5,-510"/>
<text text-anchor="start" x="8.5" y="-498" font-family="Helvetica,sans-Serif" font-size="10.00">application::app_algo</text>
<text text-anchor="middle" x="61" y="-487" font-family="Helvetica,sans-Serif" font-size="10.00">::runSearchTasks</text>
</a>
</g>
</g>
<!-- Node2&#45;&gt;Node6 -->
<g id="edge5_Node000002_Node000006" class="edge">
<title>Node2&#45;&gt;Node6</title>
<g id="a_edge5_Node000002_Node000006"><a xlink:title=" ">
<path fill="none" stroke="#63b8ff" d="M147.57,-508.04C138.87,-506.71 130.05,-505.37 121.56,-504.08"/>
<polygon fill="#63b8ff" stroke="#63b8ff" points="147.29,-511.54 157.7,-509.58 148.35,-504.62 147.29,-511.54"/>
</a>
</g>
</g>
<!-- Node7 -->
<g id="Node000007" class="node">
<title>Node7</title>
<g id="a_Node000007"><a xlink:href="../../d7/dd4/namespaceapplication_1_1app__algo.html#a416a09be4668a0e27464d7ca94048aef" target="_top" xlink:title="Run sort tasks.">
<polygon fill="white" stroke="#666666" points="121.5,-462 0.5,-462 0.5,-432 121.5,-432 121.5,-462"/>
<text text-anchor="start" x="8.5" y="-450" font-family="Helvetica,sans-Serif" font-size="10.00">application::app_algo</text>
<text text-anchor="middle" x="61" y="-439" font-family="Helvetica,sans-Serif" font-size="10.00">::runSortTasks</text>
</a>
</g>
</g>
<!-- Node2&#45;&gt;Node7 -->
<g id="edge6_Node000002_Node000007" class="edge">
<title>Node2&#45;&gt;Node7</title>
<g id="a_edge6_Node000002_Node000007"><a xlink:title=" ">
<path fill="none" stroke="#63b8ff" d="M181.37,-499.38C163.49,-490.4 141.81,-479.82 122,-471 115.24,-467.99 107.97,-464.93 100.91,-462.06"/>
<polygon fill="#63b8ff" stroke="#63b8ff" points="179.84,-502.53 190.34,-503.91 182.99,-496.28 179.84,-502.53"/>
</a>
</g>
</g>
<!-- Node9 -->
<g id="Node000009" class="node">
<title>Node9</title>
<g id="a_Node000009"><a xlink:href="../../d0/dc3/namespaceapplication_1_1app__ds.html#a73a7a1dd5adb60174e10d8a779fd1c70" target="_top" xlink:title="Run linear tasks.">
<polygon fill="white" stroke="#666666" points="116.5,-414 5.5,-414 5.5,-384 116.5,-384 116.5,-414"/>
<text text-anchor="start" x="13.5" y="-402" font-family="Helvetica,sans-Serif" font-size="10.00">application::app_ds</text>
<text text-anchor="middle" x="61" y="-391" font-family="Helvetica,sans-Serif" font-size="10.00">::runLinearTasks</text>
</a>
</g>
</g>
<!-- Node8&#45;&gt;Node9 -->
<g id="edge8_Node000008_Node000009" class="edge">
<title>Node8&#45;&gt;Node9</title>
<g id="a_edge8_Node000008_Node000009"><a xlink:title=" ">
<path fill="none" stroke="#63b8ff" d="M160.22,-369.07C144.07,-373.99 126.75,-379.27 111.23,-384"/>
<polygon fill="#63b8ff" stroke="#63b8ff" points="161.55,-372.32 170.1,-366.06 159.51,-365.62 161.55,-372.32"/>
</a>
</g>
</g>
<!-- Node10 -->
<g id="Node000010" class="node">
<title>Node10</title>
<g id="a_Node000010"><a xlink:href="../../d0/dc3/namespaceapplication_1_1app__ds.html#ab2ea91a2405f21fbb7e07b5e5ac25f43" target="_top" xlink:title="Run tree tasks.">
<polygon fill="white" stroke="#666666" points="116.5,-366 5.5,-366 5.5,-336 116.5,-336 116.5,-366"/>
<text text-anchor="start" x="13.5" y="-354" font-family="Helvetica,sans-Serif" font-size="10.00">application::app_ds</text>
<text text-anchor="middle" x="61" y="-343" font-family="Helvetica,sans-Serif" font-size="10.00">::runTreeTasks</text>
</a>
</g>
</g>
<!-- Node8&#45;&gt;Node10 -->
<g id="edge9_Node000008_Node000010" class="edge">
<title>Node8&#45;&gt;Node10</title>
<g id="a_edge9_Node000008_Node000010"><a xlink:title=" ">
<path fill="none" stroke="#63b8ff" d="M147.45,-351C137.12,-351 126.63,-351 116.71,-351"/>
<polygon fill="#63b8ff" stroke="#63b8ff" points="147.7,-354.5 157.7,-351 147.7,-347.5 147.7,-354.5"/>
</a>
</g>
</g>
<!-- Node12 -->
<g id="Node000012" class="node">
<title>Node12</title>
<g id="a_Node000012"><a xlink:href="../../d2/dc1/namespaceapplication_1_1app__dp.html#ade97c7790ecb64cb85d2567effedcc19" target="_top" xlink:title="Run behavioral tasks.">
<polygon fill="white" stroke="#666666" points="120,-318 2,-318 2,-288 120,-288 120,-318"/>
<text text-anchor="start" x="10" y="-306" font-family="Helvetica,sans-Serif" font-size="10.00">application::app_dp</text>
<text text-anchor="middle" x="61" y="-295" font-family="Helvetica,sans-Serif" font-size="10.00">::runBehavioralTasks</text>
</a>
</g>
</g>
<!-- Node11&#45;&gt;Node12 -->
<g id="edge11_Node000011_Node000012" class="edge">
<title>Node11&#45;&gt;Node12</title>
<g id="a_edge11_Node000011_Node000012"><a xlink:title=" ">
<path fill="none" stroke="#63b8ff" d="M147.71,-289.94C138.44,-291.35 129.03,-292.79 120.02,-294.16"/>
<polygon fill="#63b8ff" stroke="#63b8ff" points="148.35,-293.38 157.7,-288.42 147.29,-286.46 148.35,-293.38"/>
</a>
</g>
</g>
<!-- Node13 -->
<g id="Node000013" class="node">
<title>Node13</title>
<g id="a_Node000013"><a xlink:href="../../d2/dc1/namespaceapplication_1_1app__dp.html#a58cd5292c4ecae6e2b4d529530105b44" target="_top" xlink:title="Run creational tasks.">
<polygon fill="white" stroke="#666666" points="119,-270 3,-270 3,-240 119,-240 119,-270"/>
<text text-anchor="start" x="11" y="-258" font-family="Helvetica,sans-Serif" font-size="10.00">application::app_dp</text>
<text text-anchor="middle" x="61" y="-247" font-family="Helvetica,sans-Serif" font-size="10.00">::runCreationalTasks</text>
</a>
</g>
</g>
<!-- Node11&#45;&gt;Node13 -->
<g id="edge12_Node000011_Node000013" class="edge">
<title>Node11&#45;&gt;Node13</title>
<g id="a_edge12_Node000011_Node000013"><a xlink:title=" ">
<path fill="none" stroke="#63b8ff" d="M147.81,-268.08C138.24,-266.62 128.53,-265.14 119.25,-263.72"/>
<polygon fill="#63b8ff" stroke="#63b8ff" points="147.29,-271.54 157.7,-269.58 148.35,-264.62 147.29,-271.54"/>
</a>
</g>
</g>
<!-- Node14 -->
<g id="Node000014" class="node">
<title>Node14</title>
<g id="a_Node000014"><a xlink:href="../../d2/dc1/namespaceapplication_1_1app__dp.html#af2fe424904e6361cfd8a1ce1e85453cd" target="_top" xlink:title="Run structural tasks.">
<polygon fill="white" stroke="#666666" points="117.5,-222 4.5,-222 4.5,-192 117.5,-192 117.5,-222"/>
<text text-anchor="start" x="12.5" y="-210" font-family="Helvetica,sans-Serif" font-size="10.00">application::app_dp</text>
<text text-anchor="middle" x="61" y="-199" font-family="Helvetica,sans-Serif" font-size="10.00">::runStructuralTasks</text>
</a>
</g>
</g>
<!-- Node11&#45;&gt;Node14 -->
<g id="edge13_Node000011_Node000014" class="edge">
<title>Node11&#45;&gt;Node14</title>
<g id="a_edge13_Node000011_Node000014"><a xlink:title=" ">
<path fill="none" stroke="#63b8ff" d="M181.37,-259.38C163.49,-250.4 141.81,-239.82 122,-231 115.24,-227.99 107.97,-224.93 100.91,-222.06"/>
<polygon fill="#63b8ff" stroke="#63b8ff" points="179.84,-262.53 190.34,-263.91 182.99,-256.28 179.84,-262.53"/>
</a>
</g>
</g>
<!-- Node16 -->
<g id="Node000016" class="node">
<title>Node16</title>
<g id="a_Node000016"><a xlink:href="../../de/dbe/namespaceapplication_1_1app__num.html#a76b424f8e3b3a6445fc56f41c37afa1d" target="_top" xlink:title="Run arithmetic tasks.">
<polygon fill="white" stroke="#666666" points="122,-174 0,-174 0,-144 122,-144 122,-174"/>
<text text-anchor="start" x="8" y="-162" font-family="Helvetica,sans-Serif" font-size="10.00">application::app_num</text>
<text text-anchor="middle" x="61" y="-151" font-family="Helvetica,sans-Serif" font-size="10.00">::runArithmeticTasks</text>
</a>
</g>
</g>
<!-- Node15&#45;&gt;Node16 -->
<g id="edge15_Node000015_Node000016" class="edge">
<title>Node15&#45;&gt;Node16</title>
<g id="a_edge15_Node000015_Node000016"><a xlink:title=" ">
<path fill="none" stroke="#63b8ff" d="M160.22,-129.07C144.07,-133.99 126.75,-139.27 111.23,-144"/>
<polygon fill="#63b8ff" stroke="#63b8ff" points="161.55,-132.32 170.1,-126.06 159.51,-125.62 161.55,-132.32"/>
</a>
</g>
</g>
<!-- Node17 -->
<g id="Node000017" class="node">
<title>Node17</title>
<g id="a_Node000017"><a xlink:href="../../de/dbe/namespaceapplication_1_1app__num.html#a45c0729aaa51fd36c4ddd79758b88a6a" target="_top" xlink:title="Run divisor tasks.">
<polygon fill="white" stroke="#666666" points="122,-126 0,-126 0,-96 122,-96 122,-126"/>
<text text-anchor="start" x="8" y="-114" font-family="Helvetica,sans-Serif" font-size="10.00">application::app_num</text>
<text text-anchor="middle" x="61" y="-103" font-family="Helvetica,sans-Serif" font-size="10.00">::runDivisorTasks</text>
</a>
</g>
</g>
<!-- Node15&#45;&gt;Node17 -->
<g id="edge16_Node000015_Node000017" class="edge">
<title>Node15&#45;&gt;Node17</title>
<g id="a_edge16_Node000015_Node000017"><a xlink:title=" ">
<path fill="none" stroke="#63b8ff" d="M147.43,-111C138.95,-111 130.36,-111 122.07,-111"/>
<polygon fill="#63b8ff" stroke="#63b8ff" points="147.7,-114.5 157.7,-111 147.7,-107.5 147.7,-114.5"/>
</a>
</g>
</g>
<!-- Node18 -->
<g id="Node000018" class="node">
<title>Node18</title>
<g id="a_Node000018"><a xlink:href="../../de/dbe/namespaceapplication_1_1app__num.html#a8f6bdfbd61df7461f8dec4cc6e1db146" target="_top" xlink:title="Run integral tasks.">
<polygon fill="white" stroke="#666666" points="122,-78 0,-78 0,-48 122,-48 122,-78"/>
<text text-anchor="start" x="8" y="-66" font-family="Helvetica,sans-Serif" font-size="10.00">application::app_num</text>
<text text-anchor="middle" x="61" y="-55" font-family="Helvetica,sans-Serif" font-size="10.00">::runIntegralTasks</text>
</a>
</g>
</g>
<!-- Node15&#45;&gt;Node18 -->
<g id="edge17_Node000015_Node000018" class="edge">
<title>Node15&#45;&gt;Node18</title>
<g id="a_edge17_Node000015_Node000018"><a xlink:title=" ">
<path fill="none" stroke="#63b8ff" d="M160.22,-92.93C144.07,-88.01 126.75,-82.73 111.23,-78"/>
<polygon fill="#63b8ff" stroke="#63b8ff" points="159.51,-96.38 170.1,-95.94 161.55,-89.68 159.51,-96.38"/>
</a>
</g>
</g>
<!-- Node19 -->
<g id="Node000019" class="node">
<title>Node19</title>
<g id="a_Node000019"><a xlink:href="../../de/dbe/namespaceapplication_1_1app__num.html#a7fcb02610a31797f6736b02a36617a1b" target="_top" xlink:title="Run prime tasks.">
<polygon fill="white" stroke="#666666" points="122,-30 0,-30 0,0 122,0 122,-30"/>
<text text-anchor="start" x="8" y="-18" font-family="Helvetica,sans-Serif" font-size="10.00">application::app_num</text>
<text text-anchor="middle" x="61" y="-7" font-family="Helvetica,sans-Serif" font-size="10.00">::runPrimeTasks</text>
</a>
</g>
</g>
<!-- Node15&#45;&gt;Node19 -->
<g id="edge18_Node000015_Node000019" class="edge">
<title>Node15&#45;&gt;Node19</title>
<g id="a_edge18_Node000015_Node000019"><a xlink:title=" ">
<path fill="none" stroke="#63b8ff" d="M193.89,-89.25C174.91,-73.85 147.94,-53.45 122,-39 116.22,-35.78 109.91,-32.77 103.64,-30.04"/>
<polygon fill="#63b8ff" stroke="#63b8ff" points="191.81,-92.07 201.76,-95.72 196.26,-86.66 191.81,-92.07"/>
</a>
</g>
</g>
</g>
</svg>
