<?xml version="1.0" encoding="UTF-8" standalone="no"?>
<!DOCTYPE svg PUBLIC "-//W3C//DTD SVG 1.1//EN"
 "http://www.w3.org/Graphics/SVG/1.1/DTD/svg11.dtd">
<!-- Generated by graphviz version 2.43.0 (0)
 -->
<!-- Title: application::command::getPublicThreadPool Pages: 1 -->
<svg width="291pt" height="662pt"
 viewBox="0.00 0.00 291.00 662.00" xmlns="http://www.w3.org/2000/svg" xmlns:xlink="http://www.w3.org/1999/xlink">
<g id="graph0" class="graph" transform="scale(1 1) rotate(0) translate(4 658)">
<title>application::command::getPublicThreadPool</title>
<!-- Node1 -->
<g id="Node000001" class="node">
<title>Node1</title>
<g id="a_Node000001"><a xlink:title="Get memory pool when making multi&#45;threading.">
<polygon fill="#999999" stroke="#666666" points="283,-342 158,-342 158,-312 283,-312 283,-342"/>
<text text-anchor="start" x="166" y="-330" font-family="Helvetica,sans-Serif" font-size="10.00">application::command</text>
<text text-anchor="middle" x="220.5" y="-319" font-family="Helvetica,sans-Serif" font-size="10.00">::getPublicThreadPool</text>
</a>
</g>
</g>
<!-- Node2 -->
<g id="Node000002" class="node">
<title>Node2</title>
<g id="a_Node000002"><a xlink:href="../../de/dbe/namespaceapplication_1_1app__num.html#a76b424f8e3b3a6445fc56f41c37afa1d" target="_top" xlink:title="Run arithmetic tasks.">
<polygon fill="white" stroke="#666666" points="122,-654 0,-654 0,-624 122,-624 122,-654"/>
<text text-anchor="start" x="8" y="-642" font-family="Helvetica,sans-Serif" font-size="10.00">application::app_num</text>
<text text-anchor="middle" x="61" y="-631" font-family="Helvetica,sans-Serif" font-size="10.00">::runArithmeticTasks</text>
</a>
</g>
</g>
<!-- Node1&#45;&gt;Node2 -->
<g id="edge1_Node000001_Node000002" class="edge">
<title>Node1&#45;&gt;Node2</title>
<g id="a_edge1_Node000001_Node000002"><a xlink:title=" ">
<path fill="none" stroke="#63b8ff" d="M217.88,-352.3C213.05,-407.27 194.17,-538.81 122,-615 118.76,-618.42 114.97,-621.37 110.89,-623.9"/>
<polygon fill="#63b8ff" stroke="#63b8ff" points="221.39,-352.31 218.69,-342.07 214.41,-351.76 221.39,-352.31"/>
</a>
</g>
</g>
<!-- Node3 -->
<g id="Node000003" class="node">
<title>Node3</title>
<g id="a_Node000003"><a xlink:href="../../d2/dc1/namespaceapplication_1_1app__dp.html#ade97c7790ecb64cb85d2567effedcc19" target="_top" xlink:title="Run behavioral tasks.">
<polygon fill="white" stroke="#666666" points="120,-606 2,-606 2,-576 120,-576 120,-606"/>
<text text-anchor="start" x="10" y="-594" font-family="Helvetica,sans-Serif" font-size="10.00">application::app_dp</text>
<text text-anchor="middle" x="61" y="-583" font-family="Helvetica,sans-Serif" font-size="10.00">::runBehavioralTasks</text>
</a>
</g>
</g>
<!-- Node1&#45;&gt;Node3 -->
<g id="edge2_Node000001_Node000003" class="edge">
<title>Node1&#45;&gt;Node3</title>
<g id="a_edge2_Node000001_Node000003"><a xlink:title=" ">
<path fill="none" stroke="#63b8ff" d="M215.87,-352.35C207.7,-400.5 183.53,-505.8 122,-567 118.58,-570.4 114.62,-573.34 110.39,-575.87"/>
<polygon fill="#63b8ff" stroke="#63b8ff" points="219.37,-352.62 217.5,-342.19 212.46,-351.51 219.37,-352.62"/>
</a>
</g>
</g>
<!-- Node4 -->
<g id="Node000004" class="node">
<title>Node4</title>
<g id="a_Node000004"><a xlink:href="../../d2/dc1/namespaceapplication_1_1app__dp.html#a58cd5292c4ecae6e2b4d529530105b44" target="_top" xlink:title="Run creational tasks.">
<polygon fill="white" stroke="#666666" points="119,-558 3,-558 3,-528 119,-528 119,-558"/>
<text text-anchor="start" x="11" y="-546" font-family="Helvetica,sans-Serif" font-size="10.00">application::app_dp</text>
<text text-anchor="middle" x="61" y="-535" font-family="Helvetica,sans-Serif" font-size="10.00">::runCreationalTasks</text>
</a>
</g>
</g>
<!-- Node1&#45;&gt;Node4 -->
<g id="edge3_Node000001_Node000004" class="edge">
<title>Node1&#45;&gt;Node4</title>
<g id="a_edge3_Node000001_Node000004"><a xlink:title=" ">
<path fill="none" stroke="#63b8ff" d="M213.02,-352.06C201.36,-392.47 173.16,-472.22 122,-519 118.27,-522.41 114,-525.36 109.5,-527.91"/>
<polygon fill="#63b8ff" stroke="#63b8ff" points="216.45,-352.79 215.75,-342.22 209.71,-350.92 216.45,-352.79"/>
</a>
</g>
</g>
<!-- Node5 -->
<g id="Node000005" class="node">
<title>Node5</title>
<g id="a_Node000005"><a xlink:href="../../de/dbe/namespaceapplication_1_1app__num.html#a45c0729aaa51fd36c4ddd79758b88a6a" target="_top" xlink:title="Run divisor tasks.">
<polygon fill="white" stroke="#666666" points="122,-510 0,-510 0,-480 122,-480 122,-510"/>
<text text-anchor="start" x="8" y="-498" font-family="Helvetica,sans-Serif" font-size="10.00">application::app_num</text>
<text text-anchor="middle" x="61" y="-487" font-family="Helvetica,sans-Serif" font-size="10.00">::runDivisorTasks</text>
</a>
</g>
</g>
<!-- Node1&#45;&gt;Node5 -->
<g id="edge4_Node000001_Node000005" class="edge">
<title>Node1&#45;&gt;Node5</title>
<g id="a_edge4_Node000001_Node000005"><a xlink:title=" ">
<path fill="none" stroke="#63b8ff" d="M208.53,-351.63C193.31,-383.27 162.95,-438.02 122,-471 117.81,-474.38 113.08,-477.33 108.16,-479.9"/>
<polygon fill="#63b8ff" stroke="#63b8ff" points="211.86,-352.77 212.94,-342.23 205.52,-349.8 211.86,-352.77"/>
</a>
</g>
</g>
<!-- Node6 -->
<g id="Node000006" class="node">
<title>Node6</title>
<g id="a_Node000006"><a xlink:href="../../de/dbe/namespaceapplication_1_1app__num.html#a8f6bdfbd61df7461f8dec4cc6e1db146" target="_top" xlink:title="Run integral tasks.">
<polygon fill="white" stroke="#666666" points="122,-462 0,-462 0,-432 122,-432 122,-462"/>
<text text-anchor="start" x="8" y="-450" font-family="Helvetica,sans-Serif" font-size="10.00">application::app_num</text>
<text text-anchor="middle" x="61" y="-439" font-family="Helvetica,sans-Serif" font-size="10.00">::runIntegralTasks</text>
</a>
</g>
</g>
<!-- Node1&#45;&gt;Node6 -->
<g id="edge5_Node000001_Node000006" class="edge">
<title>Node1&#45;&gt;Node6</title>
<g id="a_edge5_Node000001_Node000006"><a xlink:title=" ">
<path fill="none" stroke="#63b8ff" d="M200.78,-350.11C182.53,-371.4 153.07,-402.69 122,-423 116.93,-426.32 111.33,-429.3 105.65,-431.95"/>
<polygon fill="#63b8ff" stroke="#63b8ff" points="203.67,-352.11 207.43,-342.21 198.31,-347.61 203.67,-352.11"/>
</a>
</g>
</g>
<!-- Node7 -->
<g id="Node000007" class="node">
<title>Node7</title>
<g id="a_Node000007"><a xlink:href="../../d0/dc3/namespaceapplication_1_1app__ds.html#a73a7a1dd5adb60174e10d8a779fd1c70" target="_top" xlink:title="Run linear tasks.">
<polygon fill="white" stroke="#666666" points="116.5,-414 5.5,-414 5.5,-384 116.5,-384 116.5,-414"/>
<text text-anchor="start" x="13.5" y="-402" font-family="Helvetica,sans-Serif" font-size="10.00">application::app_ds</text>
<text text-anchor="middle" x="61" y="-391" font-family="Helvetica,sans-Serif" font-size="10.00">::runLinearTasks</text>
</a>
</g>
</g>
<!-- Node1&#45;&gt;Node7 -->
<g id="edge6_Node000001_Node000007" class="edge">
<title>Node1&#45;&gt;Node7</title>
<g id="a_edge6_Node000001_Node000007"><a xlink:title=" ">
<path fill="none" stroke="#63b8ff" d="M181.37,-346.62C163.49,-355.6 141.81,-366.18 122,-375 115.24,-378.01 107.97,-381.07 100.91,-383.94"/>
<polygon fill="#63b8ff" stroke="#63b8ff" points="182.99,-349.72 190.34,-342.09 179.84,-343.47 182.99,-349.72"/>
</a>
</g>
</g>
<!-- Node8 -->
<g id="Node000008" class="node">
<title>Node8</title>
<g id="a_Node000008"><a xlink:href="../../d7/dd4/namespaceapplication_1_1app__algo.html#a317a232febf9ceb60c8e49be2ba06c36" target="_top" xlink:title="Run match tasks.">
<polygon fill="white" stroke="#666666" points="121.5,-366 0.5,-366 0.5,-336 121.5,-336 121.5,-366"/>
<text text-anchor="start" x="8.5" y="-354" font-family="Helvetica,sans-Serif" font-size="10.00">application::app_algo</text>
<text text-anchor="middle" x="61" y="-343" font-family="Helvetica,sans-Serif" font-size="10.00">::runMatchTasks</text>
</a>
</g>
</g>
<!-- Node1&#45;&gt;Node8 -->
<g id="edge7_Node000001_Node000008" class="edge">
<title>Node1&#45;&gt;Node8</title>
<g id="a_edge7_Node000001_Node000008"><a xlink:title=" ">
<path fill="none" stroke="#63b8ff" d="M147.57,-337.96C138.87,-339.29 130.05,-340.63 121.56,-341.92"/>
<polygon fill="#63b8ff" stroke="#63b8ff" points="148.35,-341.38 157.7,-336.42 147.29,-334.46 148.35,-341.38"/>
</a>
</g>
</g>
<!-- Node9 -->
<g id="Node000009" class="node">
<title>Node9</title>
<g id="a_Node000009"><a xlink:href="../../d7/dd4/namespaceapplication_1_1app__algo.html#a99fbd5b654baa6c2f19c08245d348030" target="_top" xlink:title="Run notation tasks.">
<polygon fill="white" stroke="#666666" points="121.5,-318 0.5,-318 0.5,-288 121.5,-288 121.5,-318"/>
<text text-anchor="start" x="8.5" y="-306" font-family="Helvetica,sans-Serif" font-size="10.00">application::app_algo</text>
<text text-anchor="middle" x="61" y="-295" font-family="Helvetica,sans-Serif" font-size="10.00">::runNotationTasks</text>
</a>
</g>
</g>
<!-- Node1&#45;&gt;Node9 -->
<g id="edge8_Node000001_Node000009" class="edge">
<title>Node1&#45;&gt;Node9</title>
<g id="a_edge8_Node000001_Node000009"><a xlink:title=" ">
<path fill="none" stroke="#63b8ff" d="M147.57,-316.04C138.87,-314.71 130.05,-313.37 121.56,-312.08"/>
<polygon fill="#63b8ff" stroke="#63b8ff" points="147.29,-319.54 157.7,-317.58 148.35,-312.62 147.29,-319.54"/>
</a>
</g>
</g>
<!-- Node10 -->
<g id="Node000010" class="node">
<title>Node10</title>
<g id="a_Node000010"><a xlink:href="../../d7/dd4/namespaceapplication_1_1app__algo.html#a73b5411d7029e486a45ed588c4bb60e2" target="_top" xlink:title="Run optimal tasks.">
<polygon fill="white" stroke="#666666" points="121.5,-270 0.5,-270 0.5,-240 121.5,-240 121.5,-270"/>
<text text-anchor="start" x="8.5" y="-258" font-family="Helvetica,sans-Serif" font-size="10.00">application::app_algo</text>
<text text-anchor="middle" x="61" y="-247" font-family="Helvetica,sans-Serif" font-size="10.00">::runOptimalTasks</text>
</a>
</g>
</g>
<!-- Node1&#45;&gt;Node10 -->
<g id="edge9_Node000001_Node000010" class="edge">
<title>Node1&#45;&gt;Node10</title>
<g id="a_edge9_Node000001_Node000010"><a xlink:title=" ">
<path fill="none" stroke="#63b8ff" d="M181.37,-307.38C163.49,-298.4 141.81,-287.82 122,-279 115.24,-275.99 107.97,-272.93 100.91,-270.06"/>
<polygon fill="#63b8ff" stroke="#63b8ff" points="179.84,-310.53 190.34,-311.91 182.99,-304.28 179.84,-310.53"/>
</a>
</g>
</g>
<!-- Node11 -->
<g id="Node000011" class="node">
<title>Node11</title>
<g id="a_Node000011"><a xlink:href="../../de/dbe/namespaceapplication_1_1app__num.html#a7fcb02610a31797f6736b02a36617a1b" target="_top" xlink:title="Run prime tasks.">
<polygon fill="white" stroke="#666666" points="122,-222 0,-222 0,-192 122,-192 122,-222"/>
<text text-anchor="start" x="8" y="-210" font-family="Helvetica,sans-Serif" font-size="10.00">application::app_num</text>
<text text-anchor="middle" x="61" y="-199" font-family="Helvetica,sans-Serif" font-size="10.00">::runPrimeTasks</text>
</a>
</g>
</g>
<!-- Node1&#45;&gt;Node11 -->
<g id="edge10_Node000001_Node000011" class="edge">
<title>Node1&#45;&gt;Node11</title>
<g id="a_edge10_Node000001_Node000011"><a xlink:title=" ">
<path fill="none" stroke="#63b8ff" d="M200.78,-303.89C182.53,-282.6 153.07,-251.31 122,-231 116.93,-227.68 111.33,-224.7 105.65,-222.05"/>
<polygon fill="#63b8ff" stroke="#63b8ff" points="198.31,-306.39 207.43,-311.79 203.67,-301.89 198.31,-306.39"/>
</a>
</g>
</g>
<!-- Node12 -->
<g id="Node000012" class="node">
<title>Node12</title>
<g id="a_Node000012"><a xlink:href="../../d7/dd4/namespaceapplication_1_1app__algo.html#a4e99e8963e76e52eb6b30f9cb1714b11" target="_top" xlink:title="Run search tasks.">
<polygon fill="white" stroke="#666666" points="121.5,-174 0.5,-174 0.5,-144 121.5,-144 121.5,-174"/>
<text text-anchor="start" x="8.5" y="-162" font-family="Helvetica,sans-Serif" font-size="10.00">application::app_algo</text>
<text text-anchor="middle" x="61" y="-151" font-family="Helvetica,sans-Serif" font-size="10.00">::runSearchTasks</text>
</a>
</g>
</g>
<!-- Node1&#45;&gt;Node12 -->
<g id="edge11_Node000001_Node000012" class="edge">
<title>Node1&#45;&gt;Node12</title>
<g id="a_edge11_Node000001_Node000012"><a xlink:title=" ">
<path fill="none" stroke="#63b8ff" d="M208.53,-302.37C193.31,-270.73 162.95,-215.98 122,-183 117.81,-179.62 113.08,-176.67 108.16,-174.1"/>
<polygon fill="#63b8ff" stroke="#63b8ff" points="205.52,-304.2 212.94,-311.77 211.86,-301.23 205.52,-304.2"/>
</a>
</g>
</g>
<!-- Node13 -->
<g id="Node000013" class="node">
<title>Node13</title>
<g id="a_Node000013"><a xlink:href="../../d7/dd4/namespaceapplication_1_1app__algo.html#a416a09be4668a0e27464d7ca94048aef" target="_top" xlink:title="Run sort tasks.">
<polygon fill="white" stroke="#666666" points="121.5,-126 0.5,-126 0.5,-96 121.5,-96 121.5,-126"/>
<text text-anchor="start" x="8.5" y="-114" font-family="Helvetica,sans-Serif" font-size="10.00">application::app_algo</text>
<text text-anchor="middle" x="61" y="-103" font-family="Helvetica,sans-Serif" font-size="10.00">::runSortTasks</text>
</a>
</g>
</g>
<!-- Node1&#45;&gt;Node13 -->
<g id="edge12_Node000001_Node000013" class="edge">
<title>Node1&#45;&gt;Node13</title>
<g id="a_edge12_Node000001_Node000013"><a xlink:title=" ">
<path fill="none" stroke="#63b8ff" d="M213.02,-301.94C201.36,-261.53 173.16,-181.78 122,-135 118.27,-131.59 114,-128.64 109.5,-126.09"/>
<polygon fill="#63b8ff" stroke="#63b8ff" points="209.71,-303.08 215.75,-311.78 216.45,-301.21 209.71,-303.08"/>
</a>
</g>
</g>
<!-- Node14 -->
<g id="Node000014" class="node">
<title>Node14</title>
<g id="a_Node000014"><a xlink:href="../../d2/dc1/namespaceapplication_1_1app__dp.html#af2fe424904e6361cfd8a1ce1e85453cd" target="_top" xlink:title="Run structural tasks.">
<polygon fill="white" stroke="#666666" points="117.5,-78 4.5,-78 4.5,-48 117.5,-48 117.5,-78"/>
<text text-anchor="start" x="12.5" y="-66" font-family="Helvetica,sans-Serif" font-size="10.00">application::app_dp</text>
<text text-anchor="middle" x="61" y="-55" font-family="Helvetica,sans-Serif" font-size="10.00">::runStructuralTasks</text>
</a>
</g>
</g>
<!-- Node1&#45;&gt;Node14 -->
<g id="edge13_Node000001_Node000014" class="edge">
<title>Node1&#45;&gt;Node14</title>
<g id="a_edge13_Node000001_Node000014"><a xlink:title=" ">
<path fill="none" stroke="#63b8ff" d="M215.87,-301.65C207.7,-253.5 183.53,-148.2 122,-87 118.58,-83.6 114.62,-80.66 110.39,-78.13"/>
<polygon fill="#63b8ff" stroke="#63b8ff" points="212.46,-302.49 217.5,-311.81 219.37,-301.38 212.46,-302.49"/>
</a>
</g>
</g>
<!-- Node15 -->
<g id="Node000015" class="node">
<title>Node15</title>
<g id="a_Node000015"><a xlink:href="../../d0/dc3/namespaceapplication_1_1app__ds.html#ab2ea91a2405f21fbb7e07b5e5ac25f43" target="_top" xlink:title="Run tree tasks.">
<polygon fill="white" stroke="#666666" points="116.5,-30 5.5,-30 5.5,0 116.5,0 116.5,-30"/>
<text text-anchor="start" x="13.5" y="-18" font-family="Helvetica,sans-Serif" font-size="10.00">application::app_ds</text>
<text text-anchor="middle" x="61" y="-7" font-family="Helvetica,sans-Serif" font-size="10.00">::runTreeTasks</text>
</a>
</g>
</g>
<!-- Node1&#45;&gt;Node15 -->
<g id="edge14_Node000001_Node000015" class="edge">
<title>Node1&#45;&gt;Node15</title>
<g id="a_edge14_Node000001_Node000015"><a xlink:title=" ">
<path fill="none" stroke="#63b8ff" d="M217.88,-301.7C213.05,-246.73 194.17,-115.19 122,-39 118.76,-35.58 114.97,-32.63 110.89,-30.1"/>
<polygon fill="#63b8ff" stroke="#63b8ff" points="214.41,-302.24 218.69,-311.93 221.39,-301.69 214.41,-302.24"/>
</a>
</g>
</g>
</g>
</svg>
