<?xml version="1.0" encoding="UTF-8" standalone="no"?>
<!DOCTYPE svg PUBLIC "-//W3C//DTD SVG 1.1//EN"
 "http://www.w3.org/Graphics/SVG/1.1/DTD/svg11.dtd">
<!-- Generated by graphviz version 2.43.0 (0)
 -->
<!-- Title: test::tst_algo::SearchTestBase Pages: 1 -->
<svg width="742pt" height="86pt"
 viewBox="0.00 0.00 742.00 86.00" xmlns="http://www.w3.org/2000/svg" xmlns:xlink="http://www.w3.org/1999/xlink">
<g id="graph0" class="graph" transform="scale(1 1) rotate(0) translate(4 82)">
<title>test::tst_algo::SearchTestBase</title>
<!-- Node1 -->
<g id="Node000001" class="node">
<title>Node1</title>
<g id="a_Node000001"><a xlink:title="Test base of search.">
<polygon fill="#999999" stroke="#666666" points="734,-54 571,-54 571,-35 734,-35 734,-54"/>
<text text-anchor="middle" x="652.5" y="-42" font-family="Helvetica,sans-Serif" font-size="10.00">test::tst_algo::SearchTestBase</text>
</a>
</g>
</g>
<!-- Node2 -->
<g id="Node000002" class="node">
<title>Node2</title>
<g id="a_Node000002"><a xlink:title=" ">
<polygon fill="white" stroke="#666666" points="448,-78 372,-78 372,-59 448,-59 448,-78"/>
<text text-anchor="middle" x="410" y="-66" font-family="Helvetica,sans-Serif" font-size="10.00">testing::Test</text>
</a>
</g>
</g>
<!-- Node2&#45;&gt;Node1 -->
<g id="edge1_Node000001_Node000002" class="edge">
<title>Node2&#45;&gt;Node1</title>
<g id="a_edge1_Node000001_Node000002"><a xlink:title=" ">
<path fill="none" stroke="#63b8ff" d="M458.04,-63.81C490.09,-60.61 533.34,-56.29 570.82,-52.55"/>
<polygon fill="#63b8ff" stroke="#63b8ff" points="457.65,-60.33 448.05,-64.8 458.35,-67.29 457.65,-60.33"/>
</a>
</g>
</g>
<!-- Node3 -->
<g id="Node000003" class="node">
<title>Node3</title>
<g id="a_Node000003"><a target="_parent" xlink:href="https://gcc.gnu.org/onlinedocs/gcc-12.3.0/libstdc++/api/a07571.html" xlink:title=" ">
<polygon fill="white" stroke="#666666" points="498,-41 322,-41 322,0 498,0 498,-41"/>
<text text-anchor="start" x="330" y="-29" font-family="Helvetica,sans-Serif" font-size="10.00">std::shared_ptr&lt; application</text>
<text text-anchor="start" x="330" y="-18" font-family="Helvetica,sans-Serif" font-size="10.00">::app_algo::search::TargetBuilder</text>
<text text-anchor="middle" x="410" y="-7" font-family="Helvetica,sans-Serif" font-size="10.00">&lt; double &gt; &gt;</text>
</a>
</g>
</g>
<!-- Node3&#45;&gt;Node1 -->
<g id="edge2_Node000001_Node000003" class="edge">
<title>Node3&#45;&gt;Node1</title>
<g id="a_edge2_Node000001_Node000003"><a xlink:title=" ">
<path fill="none" stroke="#9a32cd" stroke-dasharray="5,2" d="M508.25,-30.2C528.96,-32.27 550.61,-34.43 570.63,-36.43"/>
<polygon fill="#9a32cd" stroke="#9a32cd" points="508.46,-26.71 498.17,-29.2 507.77,-33.67 508.46,-26.71"/>
</a>
</g>
<text text-anchor="middle" x="534.5" y="-37.5" font-family="Helvetica,sans-Serif" font-size="10.00" fill="grey"> builder</text>
</g>
<!-- Node4 -->
<g id="Node000004" class="node">
<title>Node4</title>
<g id="a_Node000004"><a target="_parent" xlink:href="https://gcc.gnu.org/onlinedocs/gcc-12.3.0/libstdc++/api/a07571.html" xlink:title=" ">
<polygon fill="white" stroke="#666666" points="150,-35.5 0,-35.5 0,-5.5 150,-5.5 150,-35.5"/>
<text text-anchor="start" x="8" y="-23.5" font-family="Helvetica,sans-Serif" font-size="10.00">std::shared_ptr&lt; typename</text>
<text text-anchor="middle" x="75" y="-12.5" font-family="Helvetica,sans-Serif" font-size="10.00"> _Tp &gt;</text>
</a>
</g>
</g>
<!-- Node4&#45;&gt;Node3 -->
<g id="edge3_Node000003_Node000004" class="edge">
<title>Node4&#45;&gt;Node3</title>
<g id="a_edge3_Node000003_Node000004"><a xlink:title=" ">
<path fill="none" stroke="orange" stroke-dasharray="5,2" d="M160.34,-20.5C209.76,-20.5 272.06,-20.5 321.94,-20.5"/>
<polygon fill="orange" stroke="orange" points="160.32,-17 150.32,-20.5 160.32,-24 160.32,-17"/>
</a>
</g>
<text text-anchor="start" x="168" y="-45.5" font-family="Helvetica,sans-Serif" font-size="10.00" fill="grey"> &lt; application::app</text>
<text text-anchor="start" x="168" y="-34.5" font-family="Helvetica,sans-Serif" font-size="10.00" fill="grey">_algo::search::TargetBuilder</text>
<text text-anchor="middle" x="236" y="-23.5" font-family="Helvetica,sans-Serif" font-size="10.00" fill="grey">&lt; double &gt; &gt;</text>
</g>
</g>
</svg>
