<?xml version="1.0" encoding="UTF-8" standalone="no"?>
<!DOCTYPE svg PUBLIC "-//W3C//DTD SVG 1.1//EN"
 "http://www.w3.org/Graphics/SVG/1.1/DTD/svg11.dtd">
<!-- Generated by graphviz version 2.43.0 (0)
 -->
<!-- Title: utility::argument::Register Pages: 1 -->
<svg width="826pt" height="167pt"
 viewBox="0.00 0.00 826.00 167.00" xmlns="http://www.w3.org/2000/svg" xmlns:xlink="http://www.w3.org/1999/xlink">
<g id="graph0" class="graph" transform="scale(1 1) rotate(0) translate(4 163)">
<title>utility::argument::Register</title>
<!-- Node1 -->
<g id="Node000001" class="node">
<title>Node1</title>
<g id="a_Node000001"><a xlink:title="Argument register.">
<polygon fill="#999999" stroke="#666666" points="818,-95 714,-95 714,-65 818,-65 818,-95"/>
<text text-anchor="start" x="722" y="-83" font-family="Helvetica,sans-Serif" font-size="10.00">utility::argument::</text>
<text text-anchor="middle" x="766" y="-72" font-family="Helvetica,sans-Serif" font-size="10.00">Register</text>
</a>
</g>
</g>
<!-- Node2 -->
<g id="Node000002" class="node">
<title>Node2</title>
<g id="a_Node000002"><a target="_parent" xlink:href="https://gcc.gnu.org/onlinedocs/gcc-12.3.0/libstdc++/api/a08791.html" xlink:title=" ">
<polygon fill="white" stroke="#666666" points="592.5,-159 466.5,-159 466.5,-129 592.5,-129 592.5,-159"/>
<text text-anchor="start" x="474.5" y="-147" font-family="Helvetica,sans-Serif" font-size="10.00">std::vector&lt; std::basic</text>
<text text-anchor="middle" x="529.5" y="-136" font-family="Helvetica,sans-Serif" font-size="10.00">_string &gt;</text>
</a>
</g>
</g>
<!-- Node2&#45;&gt;Node1 -->
<g id="edge1_Node000001_Node000002" class="edge">
<title>Node2&#45;&gt;Node1</title>
<g id="a_edge1_Node000001_Node000002"><a xlink:title=" ">
<path fill="none" stroke="#9a32cd" stroke-dasharray="5,2" d="M602.9,-130.32C632.08,-124.16 665.9,-116.19 696,-107 707.07,-103.62 718.89,-99.28 729.55,-95.07"/>
<polygon fill="#9a32cd" stroke="#9a32cd" points="601.86,-126.96 592.78,-132.43 603.28,-133.82 601.86,-126.96"/>
</a>
</g>
<text text-anchor="middle" x="656.5" y="-129" font-family="Helvetica,sans-Serif" font-size="10.00" fill="grey"> names</text>
</g>
<!-- Node3 -->
<g id="Node000003" class="node">
<title>Node3</title>
<g id="a_Node000003"><a target="_parent" xlink:href="https://gcc.gnu.org/onlinedocs/gcc-12.3.0/libstdc++/api/a08779.html" xlink:title=" ">
<polygon fill="white" stroke="#666666" points="145,-138.5 0,-138.5 0,-97.5 145,-97.5 145,-138.5"/>
<text text-anchor="start" x="8" y="-126.5" font-family="Helvetica,sans-Serif" font-size="10.00">std::_Vector_base&lt;</text>
<text text-anchor="start" x="8" y="-115.5" font-family="Helvetica,sans-Serif" font-size="10.00"> typename _Tp, typename</text>
<text text-anchor="middle" x="72.5" y="-104.5" font-family="Helvetica,sans-Serif" font-size="10.00"> _Alloc &gt;</text>
</a>
</g>
</g>
<!-- Node3&#45;&gt;Node2 -->
<g id="edge2_Node000002_Node000003" class="edge">
<title>Node3&#45;&gt;Node2</title>
<g id="a_edge2_Node000002_Node000003"><a xlink:title=" ">
<path fill="none" stroke="darkgreen" d="M155.35,-137.61C164.3,-139.31 173.32,-140.82 182,-142 296.56,-157.54 326.46,-154 442,-150 449.82,-149.73 458.04,-149.32 466.16,-148.84"/>
<polygon fill="darkgreen" stroke="darkgreen" points="155.77,-134.13 145.28,-135.63 154.41,-141 155.77,-134.13"/>
</a>
</g>
</g>
<!-- Node4 -->
<g id="Node000004" class="node">
<title>Node4</title>
<g id="a_Node000004"><a target="_parent" xlink:href="https://gcc.gnu.org/onlinedocs/gcc-12.3.0/libstdc++/api/a08791.html" xlink:title=" ">
<polygon fill="white" stroke="#666666" points="318,-133 182,-133 182,-103 318,-103 318,-133"/>
<text text-anchor="start" x="190" y="-121" font-family="Helvetica,sans-Serif" font-size="10.00">std::vector&lt; typename</text>
<text text-anchor="middle" x="250" y="-110" font-family="Helvetica,sans-Serif" font-size="10.00"> _Tp, typename _Alloc &gt;</text>
</a>
</g>
</g>
<!-- Node3&#45;&gt;Node4 -->
<g id="edge4_Node000004_Node000003" class="edge">
<title>Node3&#45;&gt;Node4</title>
<g id="a_edge4_Node000004_Node000003"><a xlink:title=" ">
<path fill="none" stroke="darkgreen" d="M155.16,-118C164.09,-118 173.11,-118 181.84,-118"/>
<polygon fill="darkgreen" stroke="darkgreen" points="155.14,-114.5 145.14,-118 155.14,-121.5 155.14,-114.5"/>
</a>
</g>
</g>
<!-- Node6 -->
<g id="Node000006" class="node">
<title>Node6</title>
<g id="a_Node000006"><a target="_parent" xlink:href="https://gcc.gnu.org/onlinedocs/gcc-12.3.0/libstdc++/api/a08791.html" xlink:title=" ">
<polygon fill="white" stroke="#666666" points="594.5,-110.5 464.5,-110.5 464.5,-91.5 594.5,-91.5 594.5,-110.5"/>
<text text-anchor="middle" x="529.5" y="-98.5" font-family="Helvetica,sans-Serif" font-size="10.00">std::vector&lt; std::any &gt;</text>
</a>
</g>
</g>
<!-- Node3&#45;&gt;Node6 -->
<g id="edge7_Node000006_Node000003" class="edge">
<title>Node3&#45;&gt;Node6</title>
<g id="a_edge7_Node000006_Node000003"><a xlink:title=" ">
<path fill="none" stroke="darkgreen" d="M155.29,-97.93C164.26,-96.32 173.29,-94.95 182,-94 280.09,-83.28 394.71,-89.17 464.42,-94.78"/>
<polygon fill="darkgreen" stroke="darkgreen" points="154.39,-94.54 145.21,-99.84 155.69,-101.42 154.39,-94.54"/>
</a>
</g>
</g>
<!-- Node4&#45;&gt;Node2 -->
<g id="edge3_Node000002_Node000004" class="edge">
<title>Node4&#45;&gt;Node2</title>
<g id="a_edge3_Node000002_Node000004"><a xlink:title=" ">
<path fill="none" stroke="orange" stroke-dasharray="5,2" d="M328.15,-125.23C371.69,-129.31 425.38,-134.34 466.22,-138.16"/>
<polygon fill="orange" stroke="orange" points="328.46,-121.74 318.18,-124.29 327.8,-128.71 328.46,-121.74"/>
</a>
</g>
<text text-anchor="middle" x="389" y="-138" font-family="Helvetica,sans-Serif" font-size="10.00" fill="grey"> &lt; std::basic_string &gt;</text>
</g>
<!-- Node4&#45;&gt;Node6 -->
<g id="edge8_Node000006_Node000004" class="edge">
<title>Node4&#45;&gt;Node6</title>
<g id="a_edge8_Node000006_Node000004"><a xlink:title=" ">
<path fill="none" stroke="orange" stroke-dasharray="5,2" d="M328.29,-106.7C330.89,-106.45 333.47,-106.21 336,-106 378.64,-102.45 426.77,-101.2 464.23,-100.84"/>
<polygon fill="orange" stroke="orange" points="327.77,-103.24 318.2,-107.79 328.51,-110.2 327.77,-103.24"/>
</a>
</g>
<text text-anchor="middle" x="389" y="-109" font-family="Helvetica,sans-Serif" font-size="10.00" fill="grey"> &lt; std::any &gt;</text>
</g>
<!-- Node5 -->
<g id="Node000005" class="node">
<title>Node5</title>
<g id="a_Node000005"><a target="_parent" xlink:href="https://gcc.gnu.org/onlinedocs/gcc-12.3.0/libstdc++/api/a01915.html" xlink:title=" ">
<polygon fill="white" stroke="#666666" points="557.5,-67.5 501.5,-67.5 501.5,-48.5 557.5,-48.5 557.5,-67.5"/>
<text text-anchor="middle" x="529.5" y="-55.5" font-family="Helvetica,sans-Serif" font-size="10.00">std::any</text>
</a>
</g>
</g>
<!-- Node5&#45;&gt;Node1 -->
<g id="edge5_Node000001_Node000005" class="edge">
<title>Node5&#45;&gt;Node1</title>
<g id="a_edge5_Node000001_Node000005"><a xlink:title=" ">
<path fill="none" stroke="#9a32cd" stroke-dasharray="5,2" d="M567.93,-55.59C601.63,-54.1 652.4,-53.54 696,-60 703.65,-61.13 711.64,-62.89 719.36,-64.9"/>
<polygon fill="#9a32cd" stroke="#9a32cd" points="567.44,-52.11 557.62,-56.1 567.78,-59.1 567.44,-52.11"/>
</a>
</g>
<text text-anchor="middle" x="656.5" y="-74" font-family="Helvetica,sans-Serif" font-size="10.00" fill="grey"> defaultValue</text>
<text text-anchor="middle" x="656.5" y="-63" font-family="Helvetica,sans-Serif" font-size="10.00" fill="grey">implicitValue</text>
</g>
<!-- Node6&#45;&gt;Node1 -->
<g id="edge6_Node000001_Node000006" class="edge">
<title>Node6&#45;&gt;Node1</title>
<g id="a_edge6_Node000001_Node000006"><a xlink:title=" ">
<path fill="none" stroke="#9a32cd" stroke-dasharray="5,2" d="M604.91,-94.34C640.46,-91.15 682.09,-87.42 713.99,-84.57"/>
<polygon fill="#9a32cd" stroke="#9a32cd" points="604.23,-90.88 594.58,-95.26 604.85,-97.86 604.23,-90.88"/>
</a>
</g>
<text text-anchor="middle" x="656.5" y="-95" font-family="Helvetica,sans-Serif" font-size="10.00" fill="grey"> values</text>
</g>
<!-- Node7 -->
<g id="Node000007" class="node">
<title>Node7</title>
<g id="a_Node000007"><a xlink:href="../../dd/dcd/classutility_1_1argument_1_1Register_1_1ArgsNumRange.html" target="_top" xlink:title="Indicate the range for the number of arguments.">
<polygon fill="white" stroke="#666666" points="599,-30 460,-30 460,0 599,0 599,-30"/>
<text text-anchor="start" x="468" y="-18" font-family="Helvetica,sans-Serif" font-size="10.00">utility::argument::</text>
<text text-anchor="middle" x="529.5" y="-7" font-family="Helvetica,sans-Serif" font-size="10.00">Register::ArgsNumRange</text>
</a>
</g>
</g>
<!-- Node7&#45;&gt;Node1 -->
<g id="edge9_Node000001_Node000007" class="edge">
<title>Node7&#45;&gt;Node1</title>
<g id="a_edge9_Node000001_Node000007"><a xlink:title=" ">
<path fill="none" stroke="#9a32cd" stroke-dasharray="5,2" d="M609.31,-20.07C637.27,-23.51 668.58,-29.3 696,-39 713.47,-45.18 731.41,-56.01 744.62,-64.98"/>
<polygon fill="#9a32cd" stroke="#9a32cd" points="609.52,-16.57 599.18,-18.9 608.72,-23.52 609.52,-16.57"/>
</a>
</g>
<text text-anchor="middle" x="656.5" y="-42" font-family="Helvetica,sans-Serif" font-size="10.00" fill="grey"> argsNumRange</text>
</g>
</g>
</svg>
