<?xml version="1.0" encoding="UTF-8" standalone="no"?>
<!DOCTYPE svg PUBLIC "-//W3C//DTD SVG 1.1//EN"
 "http://www.w3.org/Graphics/SVG/1.1/DTD/svg11.dtd">
<!-- Generated by graphviz version 2.43.0 (0)
 -->
<!-- Title: utility::file::ReadWriteLock Pages: 1 -->
<svg width="349pt" height="93pt"
 viewBox="0.00 0.00 348.50 93.00" xmlns="http://www.w3.org/2000/svg" xmlns:xlink="http://www.w3.org/1999/xlink">
<g id="graph0" class="graph" transform="scale(1 1) rotate(0) translate(4 89)">
<title>utility::file::ReadWriteLock</title>
<!-- Node1 -->
<g id="Node000001" class="node">
<title>Node1</title>
<g id="a_Node000001"><a xlink:title="Lock for reading and writing files.">
<polygon fill="#999999" stroke="#666666" points="232,-19 87,-19 87,0 232,0 232,-19"/>
<text text-anchor="middle" x="159.5" y="-7" font-family="Helvetica,sans-Serif" font-size="10.00">utility::file::ReadWriteLock</text>
</a>
</g>
</g>
<!-- Node2 -->
<g id="Node000002" class="node">
<title>Node2</title>
<g id="a_Node000002"><a target="_parent" xlink:href="https://gcc.gnu.org/onlinedocs/gcc-12.3.0/libstdc++/api/a03315.html" xlink:title=" ">
<polygon fill="white" stroke="#666666" points="107,-85 0,-85 0,-66 107,-66 107,-85"/>
<text text-anchor="middle" x="53.5" y="-73" font-family="Helvetica,sans-Serif" font-size="10.00">std::shared_mutex</text>
</a>
</g>
</g>
<!-- Node2&#45;&gt;Node1 -->
<g id="edge1_Node000001_Node000002" class="edge">
<title>Node2&#45;&gt;Node1</title>
<g id="a_edge1_Node000001_Node000002"><a xlink:title=" ">
<path fill="none" stroke="#9a32cd" stroke-dasharray="5,2" d="M76.37,-60.69C97.23,-48.09 127.42,-29.87 145.09,-19.2"/>
<polygon fill="#9a32cd" stroke="#9a32cd" points="74.55,-57.7 67.8,-65.87 78.17,-63.7 74.55,-57.7"/>
</a>
</g>
<text text-anchor="middle" x="132.5" y="-40" font-family="Helvetica,sans-Serif" font-size="10.00" fill="grey"> rwLock</text>
</g>
<!-- Node3 -->
<g id="Node000003" class="node">
<title>Node3</title>
<g id="a_Node000003"><a target="_parent" xlink:href="https://gcc.gnu.org/onlinedocs/gcc-12.3.0/libstdc++/api/a07923.html" xlink:title=" ">
<polygon fill="white" stroke="#666666" points="194,-85 125,-85 125,-66 194,-66 194,-85"/>
<text text-anchor="middle" x="159.5" y="-73" font-family="Helvetica,sans-Serif" font-size="10.00">std::mutex</text>
</a>
</g>
</g>
<!-- Node3&#45;&gt;Node1 -->
<g id="edge2_Node000001_Node000003" class="edge">
<title>Node3&#45;&gt;Node1</title>
<g id="a_edge2_Node000001_Node000003"><a xlink:title=" ">
<path fill="none" stroke="#9a32cd" stroke-dasharray="5,2" d="M159.5,-55.58C159.5,-43.63 159.5,-28.72 159.5,-19.41"/>
<polygon fill="#9a32cd" stroke="#9a32cd" points="156,-55.87 159.5,-65.87 163,-55.87 156,-55.87"/>
</a>
</g>
<text text-anchor="middle" x="171" y="-40" font-family="Helvetica,sans-Serif" font-size="10.00" fill="grey"> mtx</text>
</g>
<!-- Node4 -->
<g id="Node000004" class="node">
<title>Node4</title>
<g id="a_Node000004"><a target="_parent" xlink:href="https://gcc.gnu.org/onlinedocs/gcc-12.3.0/libstdc++/api/a02343.html" xlink:title=" ">
<polygon fill="white" stroke="#666666" points="340.5,-85 212.5,-85 212.5,-66 340.5,-66 340.5,-85"/>
<text text-anchor="middle" x="276.5" y="-73" font-family="Helvetica,sans-Serif" font-size="10.00">std::condition_variable</text>
</a>
</g>
</g>
<!-- Node4&#45;&gt;Node1 -->
<g id="edge3_Node000001_Node000004" class="edge">
<title>Node4&#45;&gt;Node1</title>
<g id="a_edge3_Node000001_Node000004"><a xlink:title=" ">
<path fill="none" stroke="#9a32cd" stroke-dasharray="5,2" d="M251.87,-61.03C228.83,-48.42 195.09,-29.97 175.4,-19.2"/>
<polygon fill="#9a32cd" stroke="#9a32cd" points="250.27,-64.14 260.72,-65.87 253.63,-58 250.27,-64.14"/>
</a>
</g>
<text text-anchor="middle" x="232" y="-40" font-family="Helvetica,sans-Serif" font-size="10.00" fill="grey"> cv</text>
</g>
</g>
</svg>
