<?xml version="1.0" encoding="UTF-8" standalone="no"?>
<!DOCTYPE svg PUBLIC "-//W3C//DTD SVG 1.1//EN"
 "http://www.w3.org/Graphics/SVG/1.1/DTD/svg11.dtd">
<!-- Generated by graphviz version 2.43.0 (0)
 -->
<!-- Title: test::tst_algo::MatchTestBase Pages: 1 -->
<svg width="366pt" height="192pt"
 viewBox="0.00 0.00 366.00 192.00" xmlns="http://www.w3.org/2000/svg" xmlns:xlink="http://www.w3.org/1999/xlink">
<g id="graph0" class="graph" transform="scale(1 1) rotate(0) translate(4 188)">
<title>test::tst_algo::MatchTestBase</title>
<!-- Node1 -->
<g id="Node000001" class="node">
<title>Node1</title>
<g id="a_Node000001"><a xlink:title="Test base of match.">
<polygon fill="#999999" stroke="#666666" points="160,-19 0,-19 0,0 160,0 160,-19"/>
<text text-anchor="middle" x="80" y="-7" font-family="Helvetica,sans-Serif" font-size="10.00">test::tst_algo::MatchTestBase</text>
</a>
</g>
</g>
<!-- Node2 -->
<g id="Node000002" class="node">
<title>Node2</title>
<g id="a_Node000002"><a xlink:title=" ">
<polygon fill="white" stroke="#666666" points="102,-90.5 26,-90.5 26,-71.5 102,-71.5 102,-90.5"/>
<text text-anchor="middle" x="64" y="-78.5" font-family="Helvetica,sans-Serif" font-size="10.00">testing::Test</text>
</a>
</g>
</g>
<!-- Node2&#45;&gt;Node1 -->
<g id="edge1_Node000001_Node000002" class="edge">
<title>Node2&#45;&gt;Node1</title>
<g id="a_edge1_Node000001_Node000002"><a xlink:title=" ">
<path fill="none" stroke="#63b8ff" d="M68.23,-61.62C71.4,-47.86 75.59,-29.65 78.02,-19.09"/>
<polygon fill="#63b8ff" stroke="#63b8ff" points="64.79,-60.95 65.96,-71.48 71.62,-62.52 64.79,-60.95"/>
</a>
</g>
</g>
<!-- Node3 -->
<g id="Node000003" class="node">
<title>Node3</title>
<g id="a_Node000003"><a target="_parent" xlink:href="https://gcc.gnu.org/onlinedocs/gcc-12.3.0/libstdc++/api/a07571.html" xlink:title=" ">
<polygon fill="white" stroke="#666666" points="305.5,-96 120.5,-96 120.5,-66 305.5,-66 305.5,-96"/>
<text text-anchor="start" x="128.5" y="-84" font-family="Helvetica,sans-Serif" font-size="10.00">std::shared_ptr&lt; application</text>
<text text-anchor="middle" x="213" y="-73" font-family="Helvetica,sans-Serif" font-size="10.00">::app_algo::match::TargetBuilder &gt;</text>
</a>
</g>
</g>
<!-- Node3&#45;&gt;Node1 -->
<g id="edge2_Node000001_Node000003" class="edge">
<title>Node3&#45;&gt;Node1</title>
<g id="a_edge2_Node000001_Node000003"><a xlink:title=" ">
<path fill="none" stroke="#9a32cd" stroke-dasharray="5,2" d="M177.17,-61.28C150.89,-47.54 116.43,-29.53 96.4,-19.07"/>
<polygon fill="#9a32cd" stroke="#9a32cd" points="175.6,-64.41 186.09,-65.94 178.84,-58.2 175.6,-64.41"/>
</a>
</g>
<text text-anchor="middle" x="168.5" y="-40" font-family="Helvetica,sans-Serif" font-size="10.00" fill="grey"> builder</text>
</g>
<!-- Node4 -->
<g id="Node000004" class="node">
<title>Node4</title>
<g id="a_Node000004"><a target="_parent" xlink:href="https://gcc.gnu.org/onlinedocs/gcc-12.3.0/libstdc++/api/a07571.html" xlink:title=" ">
<polygon fill="white" stroke="#666666" points="288,-184 138,-184 138,-154 288,-154 288,-184"/>
<text text-anchor="start" x="146" y="-172" font-family="Helvetica,sans-Serif" font-size="10.00">std::shared_ptr&lt; typename</text>
<text text-anchor="middle" x="213" y="-161" font-family="Helvetica,sans-Serif" font-size="10.00"> _Tp &gt;</text>
</a>
</g>
</g>
<!-- Node4&#45;&gt;Node3 -->
<g id="edge3_Node000003_Node000004" class="edge">
<title>Node4&#45;&gt;Node3</title>
<g id="a_edge3_Node000003_Node000004"><a xlink:title=" ">
<path fill="none" stroke="orange" stroke-dasharray="5,2" d="M213,-143.49C213,-128.2 213,-109.05 213,-96.22"/>
<polygon fill="orange" stroke="orange" points="209.5,-143.8 213,-153.8 216.5,-143.8 209.5,-143.8"/>
</a>
</g>
<text text-anchor="start" x="213" y="-128" font-family="Helvetica,sans-Serif" font-size="10.00" fill="grey"> &lt; application::app</text>
<text text-anchor="middle" x="285.5" y="-117" font-family="Helvetica,sans-Serif" font-size="10.00" fill="grey">_algo::match::TargetBuilder &gt;</text>
</g>
</g>
</svg>
