<?xml version="1.0" encoding="UTF-8" standalone="no"?>
<!DOCTYPE svg PUBLIC "-//W3C//DTD SVG 1.1//EN"
 "http://www.w3.org/Graphics/SVG/1.1/DTD/svg11.dtd">
<!-- Generated by graphviz version 2.43.0 (0)
 -->
<!-- Title: date_structure::tree::splay::Output::flush Pages: 1 -->
<svg width="347pt" height="254pt"
 viewBox="0.00 0.00 347.00 254.00" xmlns="http://www.w3.org/2000/svg" xmlns:xlink="http://www.w3.org/1999/xlink">
<g id="graph0" class="graph" transform="scale(1 1) rotate(0) translate(4 250)">
<title>date_structure::tree::splay::Output::flush</title>
<!-- Node1 -->
<g id="Node000001" class="node">
<title>Node1</title>
<g id="a_Node000001"><a xlink:title="Flush the output stream.">
<polygon fill="#999999" stroke="#666666" points="339,-129 223,-129 223,-99 339,-99 339,-129"/>
<text text-anchor="start" x="231" y="-117" font-family="Helvetica,sans-Serif" font-size="10.00">date_structure::tree</text>
<text text-anchor="middle" x="281" y="-106" font-family="Helvetica,sans-Serif" font-size="10.00">::splay::Output::flush</text>
</a>
</g>
</g>
<!-- Node2 -->
<g id="Node000002" class="node">
<title>Node2</title>
<g id="a_Node000002"><a xlink:href="../../df/d7f/classdate__structure_1_1tree_1_1splay_1_1Output.html#a9997dcb9abcb2e1e5713d443536a5b70" target="_top" xlink:title="The in&#45;order traversal of the splay tree.">
<polygon fill="white" stroke="#666666" points="181,-228 6,-228 6,-198 181,-198 181,-228"/>
<text text-anchor="start" x="14" y="-216" font-family="Helvetica,sans-Serif" font-size="10.00">date_structure::tree</text>
<text text-anchor="middle" x="93.5" y="-205" font-family="Helvetica,sans-Serif" font-size="10.00">::splay::Output::inorderSplayTree</text>
</a>
</g>
</g>
<!-- Node1&#45;&gt;Node2 -->
<g id="edge1_Node000001_Node000002" class="edge">
<title>Node1&#45;&gt;Node2</title>
<g id="a_edge1_Node000001_Node000002"><a xlink:title=" ">
<path fill="none" stroke="#63b8ff" d="M257.8,-136.51C240.07,-153.27 213.83,-175.5 187,-189 180.18,-192.43 172.83,-195.4 165.35,-197.97"/>
<polygon fill="#63b8ff" stroke="#63b8ff" points="260.55,-138.71 265.31,-129.25 255.69,-133.68 260.55,-138.71"/>
</a>
</g>
</g>
<!-- Node3 -->
<g id="Node000003" class="node">
<title>Node3</title>
<g id="a_Node000003"><a xlink:href="../../df/d7f/classdate__structure_1_1tree_1_1splay_1_1Output.html#af8a4cc517c48d7d9fa907b5eda1c6d50" target="_top" xlink:title="The post&#45;order traversal of the splay tree.">
<polygon fill="white" stroke="#666666" points="187,-162 0,-162 0,-132 187,-132 187,-162"/>
<text text-anchor="start" x="8" y="-150" font-family="Helvetica,sans-Serif" font-size="10.00">date_structure::tree</text>
<text text-anchor="middle" x="93.5" y="-139" font-family="Helvetica,sans-Serif" font-size="10.00">::splay::Output::postorderSplayTree</text>
</a>
</g>
</g>
<!-- Node1&#45;&gt;Node3 -->
<g id="edge3_Node000001_Node000003" class="edge">
<title>Node1&#45;&gt;Node3</title>
<g id="a_edge3_Node000001_Node000003"><a xlink:title=" ">
<path fill="none" stroke="#63b8ff" d="M212.91,-125.93C201.94,-127.89 190.44,-129.93 179.1,-131.95"/>
<polygon fill="#63b8ff" stroke="#63b8ff" points="213.6,-129.37 222.83,-124.17 212.37,-122.48 213.6,-129.37"/>
</a>
</g>
</g>
<!-- Node4 -->
<g id="Node000004" class="node">
<title>Node4</title>
<g id="a_Node000004"><a xlink:href="../../df/d7f/classdate__structure_1_1tree_1_1splay_1_1Output.html#a46958ea1c5e33ff4237696474494c0e9" target="_top" xlink:title="The pre&#45;order traversal of the splay tree.">
<polygon fill="white" stroke="#666666" points="184.5,-96 2.5,-96 2.5,-66 184.5,-66 184.5,-96"/>
<text text-anchor="start" x="10.5" y="-84" font-family="Helvetica,sans-Serif" font-size="10.00">date_structure::tree</text>
<text text-anchor="middle" x="93.5" y="-73" font-family="Helvetica,sans-Serif" font-size="10.00">::splay::Output::preorderSplayTree</text>
</a>
</g>
</g>
<!-- Node1&#45;&gt;Node4 -->
<g id="edge5_Node000001_Node000004" class="edge">
<title>Node1&#45;&gt;Node4</title>
<g id="a_edge5_Node000001_Node000004"><a xlink:title=" ">
<path fill="none" stroke="#63b8ff" d="M212.91,-102.07C201.94,-100.11 190.44,-98.07 179.1,-96.05"/>
<polygon fill="#63b8ff" stroke="#63b8ff" points="212.37,-105.52 222.83,-103.83 213.6,-98.63 212.37,-105.52"/>
</a>
</g>
</g>
<!-- Node5 -->
<g id="Node000005" class="node">
<title>Node5</title>
<g id="a_Node000005"><a xlink:href="../../df/d7f/classdate__structure_1_1tree_1_1splay_1_1Output.html#a2389b13158222f5b07b2a5596817e9b3" target="_top" xlink:title="Print the splay tree.">
<polygon fill="white" stroke="#666666" points="175,-30 12,-30 12,0 175,0 175,-30"/>
<text text-anchor="start" x="20" y="-18" font-family="Helvetica,sans-Serif" font-size="10.00">date_structure::tree</text>
<text text-anchor="middle" x="93.5" y="-7" font-family="Helvetica,sans-Serif" font-size="10.00">::splay::Output::printSplayTree</text>
</a>
</g>
</g>
<!-- Node1&#45;&gt;Node5 -->
<g id="edge7_Node000001_Node000005" class="edge">
<title>Node1&#45;&gt;Node5</title>
<g id="a_edge7_Node000001_Node000005"><a xlink:title=" ">
<path fill="none" stroke="#63b8ff" d="M248.37,-93.27C230.64,-81.99 207.94,-68.12 187,-57 168.77,-47.32 147.89,-37.72 130.58,-30.14"/>
<polygon fill="#63b8ff" stroke="#63b8ff" points="246.84,-96.45 257.15,-98.9 250.62,-90.55 246.84,-96.45"/>
</a>
</g>
</g>
<!-- Node2&#45;&gt;Node2 -->
<g id="edge2_Node000002_Node000002" class="edge">
<title>Node2&#45;&gt;Node2</title>
<g id="a_edge2_Node000002_Node000002"><a xlink:title=" ">
<path fill="none" stroke="#63b8ff" d="M126.06,-238.6C121.61,-242.97 110.76,-246 93.5,-246 64.44,-246 53.54,-237.41 60.8,-228.28"/>
<polygon fill="#63b8ff" stroke="#63b8ff" points="129.56,-238.32 126.2,-228.28 122.56,-238.23 129.56,-238.32"/>
</a>
</g>
</g>
<!-- Node3&#45;&gt;Node3 -->
<g id="edge4_Node000003_Node000003" class="edge">
<title>Node3&#45;&gt;Node3</title>
<g id="a_edge4_Node000003_Node000003"><a xlink:title=" ">
<path fill="none" stroke="#63b8ff" d="M126.06,-172.6C121.61,-176.97 110.76,-180 93.5,-180 64.44,-180 53.54,-171.41 60.8,-162.28"/>
<polygon fill="#63b8ff" stroke="#63b8ff" points="129.56,-172.32 126.2,-162.28 122.56,-172.23 129.56,-172.32"/>
</a>
</g>
</g>
<!-- Node4&#45;&gt;Node4 -->
<g id="edge6_Node000004_Node000004" class="edge">
<title>Node4&#45;&gt;Node4</title>
<g id="a_edge6_Node000004_Node000004"><a xlink:title=" ">
<path fill="none" stroke="#63b8ff" d="M126.06,-106.6C121.61,-110.97 110.76,-114 93.5,-114 64.44,-114 53.54,-105.41 60.8,-96.28"/>
<polygon fill="#63b8ff" stroke="#63b8ff" points="129.56,-106.32 126.2,-96.28 122.56,-106.23 129.56,-106.32"/>
</a>
</g>
</g>
<!-- Node5&#45;&gt;Node5 -->
<g id="edge8_Node000005_Node000005" class="edge">
<title>Node5&#45;&gt;Node5</title>
<g id="a_edge8_Node000005_Node000005"><a xlink:title=" ">
<path fill="none" stroke="#63b8ff" d="M126.06,-40.6C121.61,-44.97 110.76,-48 93.5,-48 64.44,-48 53.54,-39.41 60.8,-30.28"/>
<polygon fill="#63b8ff" stroke="#63b8ff" points="129.56,-40.32 126.2,-30.28 122.56,-40.23 129.56,-40.32"/>
</a>
</g>
</g>
</g>
</svg>
