<?xml version="1.0" encoding="UTF-8" standalone="no"?>
<!DOCTYPE svg PUBLIC "-//W3C//DTD SVG 1.1//EN"
 "http://www.w3.org/Graphics/SVG/1.1/DTD/svg11.dtd">
<!-- Generated by graphviz version 2.43.0 (0)
 -->
<!-- Title: utility/include/thread.hpp Pages: 1 -->
<svg width="959pt" height="170pt"
 viewBox="0.00 0.00 958.50 170.00" xmlns="http://www.w3.org/2000/svg" xmlns:xlink="http://www.w3.org/1999/xlink">
<g id="graph0" class="graph" transform="scale(1 1) rotate(0) translate(4 166)">
<title>utility/include/thread.hpp</title>
<!-- Node1 -->
<g id="Node000001" class="node">
<title>Node1</title>
<g id="a_Node000001"><a xlink:title="The declarations (thread) in the utility module.">
<polygon fill="#999999" stroke="#666666" points="611.5,-162 472.5,-162 472.5,-143 611.5,-143 611.5,-162"/>
<text text-anchor="middle" x="542" y="-150" font-family="Helvetica,sans-Serif" font-size="10.00">utility/include/thread.hpp</text>
</a>
</g>
</g>
<!-- Node2 -->
<g id="Node000002" class="node">
<title>Node2</title>
<g id="a_Node000002"><a xlink:href="../../d7/dc7/command_8hpp.html" target="_top" xlink:title="The declarations (command) in the application module.">
<polygon fill="white" stroke="#666666" points="532.5,-107 399.5,-107 399.5,-77 532.5,-77 532.5,-107"/>
<text text-anchor="start" x="407.5" y="-95" font-family="Helvetica,sans-Serif" font-size="10.00">application/core/include</text>
<text text-anchor="middle" x="466" y="-84" font-family="Helvetica,sans-Serif" font-size="10.00">/command.hpp</text>
</a>
</g>
</g>
<!-- Node1&#45;&gt;Node2 -->
<g id="edge1_Node000001_Node000002" class="edge">
<title>Node1&#45;&gt;Node2</title>
<g id="a_edge1_Node000001_Node000002"><a xlink:title=" ">
<path fill="none" stroke="#63b8ff" d="M522.86,-136.77C511.05,-127.68 495.99,-116.09 484.34,-107.11"/>
<polygon fill="#63b8ff" stroke="#63b8ff" points="520.73,-139.54 530.79,-142.87 525,-133.99 520.73,-139.54"/>
</a>
</g>
</g>
<!-- Node9 -->
<g id="Node000009" class="node">
<title>Node9</title>
<g id="a_Node000009"><a xlink:href="../../d3/d35/thread_8cpp.html" target="_top" xlink:title="The definitions (thread) in the utility module.">
<polygon fill="white" stroke="#666666" points="685.5,-101.5 550.5,-101.5 550.5,-82.5 685.5,-82.5 685.5,-101.5"/>
<text text-anchor="middle" x="618" y="-89.5" font-family="Helvetica,sans-Serif" font-size="10.00">utility/source/thread.cpp</text>
</a>
</g>
</g>
<!-- Node1&#45;&gt;Node9 -->
<g id="edge8_Node000001_Node000009" class="edge">
<title>Node1&#45;&gt;Node9</title>
<g id="a_edge8_Node000001_Node000009"><a xlink:title=" ">
<path fill="none" stroke="#63b8ff" d="M561.44,-136.54C575.79,-125.49 594.82,-110.84 606.74,-101.67"/>
<polygon fill="#63b8ff" stroke="#63b8ff" points="559,-133.99 553.21,-142.87 563.27,-139.54 559,-133.99"/>
</a>
</g>
</g>
<!-- Node3 -->
<g id="Node000003" class="node">
<title>Node3</title>
<g id="a_Node000003"><a xlink:href="../../d1/d81/command_8cpp.html" target="_top" xlink:title="The definitions (command) in the application module.">
<polygon fill="white" stroke="#666666" points="130,-35.5 0,-35.5 0,-5.5 130,-5.5 130,-35.5"/>
<text text-anchor="start" x="8" y="-23.5" font-family="Helvetica,sans-Serif" font-size="10.00">application/core/source</text>
<text text-anchor="middle" x="65" y="-12.5" font-family="Helvetica,sans-Serif" font-size="10.00">/command.cpp</text>
</a>
</g>
</g>
<!-- Node2&#45;&gt;Node3 -->
<g id="edge2_Node000002_Node000003" class="edge">
<title>Node2&#45;&gt;Node3</title>
<g id="a_edge2_Node000002_Node000003"><a xlink:title=" ">
<path fill="none" stroke="#63b8ff" d="M389.26,-81.6C322.73,-72.9 224.04,-58.65 139,-41 131.33,-39.41 123.26,-37.51 115.39,-35.54"/>
<polygon fill="#63b8ff" stroke="#63b8ff" points="388.88,-85.08 399.24,-82.9 389.78,-78.14 388.88,-85.08"/>
</a>
</g>
</g>
<!-- Node4 -->
<g id="Node000004" class="node">
<title>Node4</title>
<g id="a_Node000004"><a xlink:href="../../df/d92/application_2core_2source_2main_8cpp.html" target="_top" xlink:title="The definitions (main) in the application module.">
<polygon fill="white" stroke="#666666" points="278,-35.5 148,-35.5 148,-5.5 278,-5.5 278,-35.5"/>
<text text-anchor="start" x="156" y="-23.5" font-family="Helvetica,sans-Serif" font-size="10.00">application/core/source</text>
<text text-anchor="middle" x="213" y="-12.5" font-family="Helvetica,sans-Serif" font-size="10.00">/main.cpp</text>
</a>
</g>
</g>
<!-- Node2&#45;&gt;Node4 -->
<g id="edge3_Node000002_Node000004" class="edge">
<title>Node2&#45;&gt;Node4</title>
<g id="a_edge3_Node000002_Node000004"><a xlink:title=" ">
<path fill="none" stroke="#63b8ff" d="M405,-74.24C361.91,-62.41 304.82,-46.72 264.12,-35.54"/>
<polygon fill="#63b8ff" stroke="#63b8ff" points="404.23,-77.66 414.8,-76.94 406.09,-70.91 404.23,-77.66"/>
</a>
</g>
</g>
<!-- Node5 -->
<g id="Node000005" class="node">
<title>Node5</title>
<g id="a_Node000005"><a xlink:href="../../d8/d64/apply__algorithm_8cpp.html" target="_top" xlink:title="The definitions (apply_algorithm) in the application module.">
<polygon fill="white" stroke="#666666" points="451.5,-35.5 296.5,-35.5 296.5,-5.5 451.5,-5.5 451.5,-35.5"/>
<text text-anchor="start" x="304.5" y="-23.5" font-family="Helvetica,sans-Serif" font-size="10.00">application/example</text>
<text text-anchor="middle" x="374" y="-12.5" font-family="Helvetica,sans-Serif" font-size="10.00">/source/apply_algorithm.cpp</text>
</a>
</g>
</g>
<!-- Node2&#45;&gt;Node5 -->
<g id="edge4_Node000002_Node000005" class="edge">
<title>Node2&#45;&gt;Node5</title>
<g id="a_edge4_Node000002_Node000005"><a xlink:title=" ">
<path fill="none" stroke="#63b8ff" d="M439.03,-70.63C424.1,-59.35 405.93,-45.62 392.59,-35.54"/>
<polygon fill="#63b8ff" stroke="#63b8ff" points="437.29,-73.7 447.38,-76.94 441.51,-68.12 437.29,-73.7"/>
</a>
</g>
</g>
<!-- Node6 -->
<g id="Node000006" class="node">
<title>Node6</title>
<g id="a_Node000006"><a xlink:href="../../d1/d3d/apply__data__structure_8cpp.html" target="_top" xlink:title="The definitions (apply_data_structure) in the application module.">
<polygon fill="white" stroke="#666666" points="648,-35.5 470,-35.5 470,-5.5 648,-5.5 648,-35.5"/>
<text text-anchor="start" x="478" y="-23.5" font-family="Helvetica,sans-Serif" font-size="10.00">application/example</text>
<text text-anchor="middle" x="559" y="-12.5" font-family="Helvetica,sans-Serif" font-size="10.00">/source/apply_data_structure.cpp</text>
</a>
</g>
</g>
<!-- Node2&#45;&gt;Node6 -->
<g id="edge5_Node000002_Node000006" class="edge">
<title>Node2&#45;&gt;Node6</title>
<g id="a_edge5_Node000002_Node000006"><a xlink:title=" ">
<path fill="none" stroke="#63b8ff" d="M492.84,-70.94C508.01,-59.6 526.6,-45.71 540.21,-35.54"/>
<polygon fill="#63b8ff" stroke="#63b8ff" points="490.74,-68.15 484.82,-76.94 494.93,-73.75 490.74,-68.15"/>
</a>
</g>
</g>
<!-- Node7 -->
<g id="Node000007" class="node">
<title>Node7</title>
<g id="a_Node000007"><a xlink:href="../../de/d6b/apply__design__pattern_8cpp.html" target="_top" xlink:title="The definitions (apply_design_pattern) in the application module.">
<polygon fill="white" stroke="#666666" points="785.5,-41 666.5,-41 666.5,0 785.5,0 785.5,-41"/>
<text text-anchor="start" x="674.5" y="-29" font-family="Helvetica,sans-Serif" font-size="10.00">application/example</text>
<text text-anchor="start" x="674.5" y="-18" font-family="Helvetica,sans-Serif" font-size="10.00">/source/apply_design</text>
<text text-anchor="middle" x="726" y="-7" font-family="Helvetica,sans-Serif" font-size="10.00">_pattern.cpp</text>
</a>
</g>
</g>
<!-- Node2&#45;&gt;Node7 -->
<g id="edge6_Node000002_Node000007" class="edge">
<title>Node2&#45;&gt;Node7</title>
<g id="a_edge6_Node000002_Node000007"><a xlink:title=" ">
<path fill="none" stroke="#63b8ff" d="M530.97,-74.32C567.96,-64.75 615.13,-52.4 657,-41 660,-40.18 663.08,-39.34 666.18,-38.48"/>
<polygon fill="#63b8ff" stroke="#63b8ff" points="529.63,-71.06 520.83,-76.95 531.38,-77.83 529.63,-71.06"/>
</a>
</g>
</g>
<!-- Node8 -->
<g id="Node000008" class="node">
<title>Node8</title>
<g id="a_Node000008"><a xlink:href="../../d1/dee/apply__numeric_8cpp.html" target="_top" xlink:title="The definitions (apply_numeric) in the application module.">
<polygon fill="white" stroke="#666666" points="950.5,-35.5 803.5,-35.5 803.5,-5.5 950.5,-5.5 950.5,-35.5"/>
<text text-anchor="start" x="811.5" y="-23.5" font-family="Helvetica,sans-Serif" font-size="10.00">application/example</text>
<text text-anchor="middle" x="877" y="-12.5" font-family="Helvetica,sans-Serif" font-size="10.00">/source/apply_numeric.cpp</text>
</a>
</g>
</g>
<!-- Node2&#45;&gt;Node8 -->
<g id="edge7_Node000002_Node000008" class="edge">
<title>Node2&#45;&gt;Node8</title>
<g id="a_edge7_Node000002_Node000008"><a xlink:title=" ">
<path fill="none" stroke="#63b8ff" d="M542.8,-76.92C655.82,-58.88 686.57,-61.56 795,-41 803.48,-39.39 812.41,-37.49 821.13,-35.51"/>
<polygon fill="#63b8ff" stroke="#63b8ff" points="542.02,-73.5 532.7,-78.55 543.13,-80.41 542.02,-73.5"/>
</a>
</g>
</g>
</g>
</svg>
