<?xml version="1.0" encoding="UTF-8" standalone="no"?>
<!DOCTYPE svg PUBLIC "-//W3C//DTD SVG 1.1//EN"
 "http://www.w3.org/Graphics/SVG/1.1/DTD/svg11.dtd">
<!-- Generated by graphviz version 2.43.0 (0)
 -->
<!-- Title: utility::socket::TCPSocket Pages: 1 -->
<svg width="262pt" height="303pt"
 viewBox="0.00 0.00 261.50 303.00" xmlns="http://www.w3.org/2000/svg" xmlns:xlink="http://www.w3.org/1999/xlink">
<g id="graph0" class="graph" transform="scale(1 1) rotate(0) translate(4 299)">
<title>utility::socket::TCPSocket</title>
<!-- Node1 -->
<g id="Node000001" class="node">
<title>Node1</title>
<g id="a_Node000001"><a xlink:title="TCP socket.">
<polygon fill="#999999" stroke="#666666" points="197,-19 59,-19 59,0 197,0 197,-19"/>
<text text-anchor="middle" x="128" y="-7" font-family="Helvetica,sans-Serif" font-size="10.00">utility::socket::TCPSocket</text>
</a>
</g>
</g>
<!-- Node2 -->
<g id="Node000002" class="node">
<title>Node2</title>
<g id="a_Node000002"><a xlink:href="../../dd/dcb/classutility_1_1socket_1_1Socket.html" target="_top" xlink:title="Network socket.">
<polygon fill="white" stroke="#666666" points="120,-85 0,-85 0,-66 120,-66 120,-85"/>
<text text-anchor="middle" x="60" y="-73" font-family="Helvetica,sans-Serif" font-size="10.00">utility::socket::Socket</text>
</a>
</g>
</g>
<!-- Node2&#45;&gt;Node1 -->
<g id="edge1_Node000001_Node000002" class="edge">
<title>Node2&#45;&gt;Node1</title>
<g id="a_edge1_Node000001_Node000002"><a xlink:title=" ">
<path fill="none" stroke="#63b8ff" d="M76.65,-58.83C89.81,-46.44 107.72,-29.59 118.54,-19.41"/>
<polygon fill="#63b8ff" stroke="#63b8ff" points="74.05,-56.47 69.17,-65.87 78.85,-61.56 74.05,-56.47"/>
</a>
</g>
</g>
<!-- Node3 -->
<g id="Node000003" class="node">
<title>Node3</title>
<g id="a_Node000003"><a target="_parent" xlink:href="https://gcc.gnu.org/onlinedocs/gcc-12.3.0/libstdc++/api/a02559.html" xlink:title=" ">
<polygon fill="white" stroke="#666666" points="115,-151 5,-151 5,-132 115,-132 115,-151"/>
<text text-anchor="middle" x="60" y="-139" font-family="Helvetica,sans-Serif" font-size="10.00">std::future&lt; void &gt;</text>
</a>
</g>
</g>
<!-- Node3&#45;&gt;Node2 -->
<g id="edge2_Node000002_Node000003" class="edge">
<title>Node3&#45;&gt;Node2</title>
<g id="a_edge2_Node000002_Node000003"><a xlink:title=" ">
<path fill="none" stroke="#9a32cd" stroke-dasharray="5,2" d="M60,-121.58C60,-109.63 60,-94.72 60,-85.41"/>
<polygon fill="#9a32cd" stroke="#9a32cd" points="56.5,-121.87 60,-131.87 63.5,-121.87 56.5,-121.87"/>
</a>
</g>
<text text-anchor="middle" x="68.5" y="-106" font-family="Helvetica,sans-Serif" font-size="10.00" fill="grey"> fut</text>
</g>
<!-- Node4 -->
<g id="Node000004" class="node">
<title>Node4</title>
<g id="a_Node000004"><a target="_parent" xlink:href="https://gcc.gnu.org/onlinedocs/gcc-12.3.0/libstdc++/api/a02547.html" xlink:title=" ">
<polygon fill="white" stroke="#666666" points="114,-218 6,-218 6,-188 114,-188 114,-218"/>
<text text-anchor="start" x="14" y="-206" font-family="Helvetica,sans-Serif" font-size="10.00">std::__basic_future</text>
<text text-anchor="middle" x="60" y="-195" font-family="Helvetica,sans-Serif" font-size="10.00">&lt; void &gt;</text>
</a>
</g>
</g>
<!-- Node4&#45;&gt;Node3 -->
<g id="edge3_Node000003_Node000004" class="edge">
<title>Node4&#45;&gt;Node3</title>
<g id="a_edge3_Node000003_Node000004"><a xlink:title=" ">
<path fill="none" stroke="#63b8ff" d="M60,-177.79C60,-168.36 60,-158.15 60,-151.16"/>
<polygon fill="#63b8ff" stroke="#63b8ff" points="56.5,-177.9 60,-187.9 63.5,-177.9 56.5,-177.9"/>
</a>
</g>
</g>
<!-- Node5 -->
<g id="Node000005" class="node">
<title>Node5</title>
<g id="a_Node000005"><a target="_parent" xlink:href="https://gcc.gnu.org/onlinedocs/gcc-12.3.0/libstdc++/api/a02547.html" xlink:title=" ">
<polygon fill="white" stroke="#666666" points="117.5,-295 2.5,-295 2.5,-265 117.5,-265 117.5,-295"/>
<text text-anchor="start" x="10.5" y="-283" font-family="Helvetica,sans-Serif" font-size="10.00">std::__basic_future</text>
<text text-anchor="middle" x="60" y="-272" font-family="Helvetica,sans-Serif" font-size="10.00">&lt; typename _Res &gt;</text>
</a>
</g>
</g>
<!-- Node5&#45;&gt;Node4 -->
<g id="edge4_Node000004_Node000005" class="edge">
<title>Node5&#45;&gt;Node4</title>
<g id="a_edge4_Node000004_Node000005"><a xlink:title=" ">
<path fill="none" stroke="orange" stroke-dasharray="5,2" d="M60,-254.54C60,-242.45 60,-228.29 60,-218.04"/>
<polygon fill="orange" stroke="orange" points="56.5,-254.89 60,-264.89 63.5,-254.89 56.5,-254.89"/>
</a>
</g>
<text text-anchor="middle" x="83.5" y="-239" font-family="Helvetica,sans-Serif" font-size="10.00" fill="grey"> &lt; void &gt;</text>
</g>
<!-- Node6 -->
<g id="Node000006" class="node">
<title>Node6</title>
<g id="a_Node000006"><a target="_parent" xlink:href="https://gcc.gnu.org/onlinedocs/gcc-12.3.0/libstdc++/api/a01975.html" xlink:title=" ">
<polygon fill="white" stroke="#666666" points="253.5,-85 138.5,-85 138.5,-66 253.5,-66 253.5,-85"/>
<text text-anchor="middle" x="196" y="-73" font-family="Helvetica,sans-Serif" font-size="10.00">std::atomic&lt; bool &gt;</text>
</a>
</g>
</g>
<!-- Node6&#45;&gt;Node1 -->
<g id="edge5_Node000001_Node000006" class="edge">
<title>Node6&#45;&gt;Node1</title>
<g id="a_edge5_Node000001_Node000006"><a xlink:title=" ">
<path fill="none" stroke="#9a32cd" stroke-dasharray="5,2" d="M179.35,-58.83C166.19,-46.44 148.28,-29.59 137.46,-19.41"/>
<polygon fill="#9a32cd" stroke="#9a32cd" points="177.15,-61.56 186.83,-65.87 181.95,-56.47 177.15,-61.56"/>
</a>
</g>
<text text-anchor="middle" x="198" y="-40" font-family="Helvetica,sans-Serif" font-size="10.00" fill="grey"> autoRelease</text>
</g>
</g>
</svg>
