<?xml version="1.0" encoding="UTF-8" standalone="no"?>
<!DOCTYPE svg PUBLIC "-//W3C//DTD SVG 1.1//EN"
 "http://www.w3.org/Graphics/SVG/1.1/DTD/svg11.dtd">
<!-- Generated by graphviz version 2.43.0 (0)
 -->
<!-- Title: application::log::changeToLogStyle Pages: 1 -->
<svg width="594pt" height="86pt"
 viewBox="0.00 0.00 594.00 86.00" xmlns="http://www.w3.org/2000/svg" xmlns:xlink="http://www.w3.org/1999/xlink">
<g id="graph0" class="graph" transform="scale(1 1) rotate(0) translate(4 82)">
<title>application::log::changeToLogStyle</title>
<!-- Node1 -->
<g id="Node000001" class="node">
<title>Node1</title>
<g id="a_Node000001"><a xlink:title="Change line string to log style.">
<polygon fill="#999999" stroke="#666666" points="586,-54 453,-54 453,-24 586,-24 586,-54"/>
<text text-anchor="start" x="461" y="-42" font-family="Helvetica,sans-Serif" font-size="10.00">application::log::change</text>
<text text-anchor="middle" x="519.5" y="-31" font-family="Helvetica,sans-Serif" font-size="10.00">ToLogStyle</text>
</a>
</g>
</g>
<!-- Node2 -->
<g id="Node000002" class="node">
<title>Node2</title>
<g id="a_Node000002"><a xlink:href="../../d9/d9b/classapplication_1_1log_1_1Log.html#aaee64ba051d8af81b5aa019c3a2934d2" target="_top" xlink:title="Flush log to queue.">
<polygon fill="white" stroke="#666666" points="417,-78 302,-78 302,-48 417,-48 417,-78"/>
<text text-anchor="start" x="310" y="-66" font-family="Helvetica,sans-Serif" font-size="10.00">application::log::Log</text>
<text text-anchor="middle" x="359.5" y="-55" font-family="Helvetica,sans-Serif" font-size="10.00">::flush</text>
</a>
</g>
</g>
<!-- Node1&#45;&gt;Node2 -->
<g id="edge1_Node000001_Node000002" class="edge">
<title>Node1&#45;&gt;Node2</title>
<g id="a_edge1_Node000001_Node000002"><a xlink:title=" ">
<path fill="none" stroke="#63b8ff" d="M442.78,-50.5C434.14,-51.81 425.45,-53.13 417.13,-54.4"/>
<polygon fill="#63b8ff" stroke="#63b8ff" points="443.51,-53.93 452.87,-48.97 442.45,-47.01 443.51,-53.93"/>
</a>
</g>
</g>
<!-- Node5 -->
<g id="Node000005" class="node">
<title>Node5</title>
<g id="a_Node000005"><a xlink:href="../../d9/d9b/classapplication_1_1log_1_1Log.html#a34af3914e6e18d42ece43f43887227cd" target="_top" xlink:title="Handle the log queue.">
<polygon fill="white" stroke="#666666" points="417,-30 302,-30 302,0 417,0 417,-30"/>
<text text-anchor="start" x="310" y="-18" font-family="Helvetica,sans-Serif" font-size="10.00">application::log::Log</text>
<text text-anchor="middle" x="359.5" y="-7" font-family="Helvetica,sans-Serif" font-size="10.00">::handleLogQueue</text>
</a>
</g>
</g>
<!-- Node1&#45;&gt;Node5 -->
<g id="edge4_Node000001_Node000005" class="edge">
<title>Node1&#45;&gt;Node5</title>
<g id="a_edge4_Node000001_Node000005"><a xlink:title=" ">
<path fill="none" stroke="#63b8ff" d="M442.78,-27.5C434.14,-26.19 425.45,-24.87 417.13,-23.6"/>
<polygon fill="#63b8ff" stroke="#63b8ff" points="442.45,-30.99 452.87,-29.03 443.51,-24.07 442.45,-30.99"/>
</a>
</g>
</g>
<!-- Node3 -->
<g id="Node000003" class="node">
<title>Node3</title>
<g id="a_Node000003"><a xlink:href="../../d9/d29/classapplication_1_1log_1_1Log_1_1Holder.html#ab911851f1201c8e6e99e2e9c3e304456" target="_top" xlink:title="Flush the output stream.">
<polygon fill="white" stroke="#666666" points="266,-78 151,-78 151,-48 266,-48 266,-78"/>
<text text-anchor="start" x="159" y="-66" font-family="Helvetica,sans-Serif" font-size="10.00">application::log::Log</text>
<text text-anchor="middle" x="208.5" y="-55" font-family="Helvetica,sans-Serif" font-size="10.00">::Holder::flush</text>
</a>
</g>
</g>
<!-- Node2&#45;&gt;Node3 -->
<g id="edge2_Node000002_Node000003" class="edge">
<title>Node2&#45;&gt;Node3</title>
<g id="a_edge2_Node000002_Node000003"><a xlink:title=" ">
<path fill="none" stroke="#63b8ff" d="M291.49,-63C283.01,-63 274.4,-63 266.1,-63"/>
<polygon fill="#63b8ff" stroke="#63b8ff" points="291.74,-66.5 301.74,-63 291.74,-59.5 291.74,-66.5"/>
</a>
</g>
</g>
<!-- Node4 -->
<g id="Node000004" class="node">
<title>Node4</title>
<g id="a_Node000004"><a xlink:href="../../d9/d29/classapplication_1_1log_1_1Log_1_1Holder.html#a79e3171b1992117c6e3c538b70ea9209" target="_top" xlink:title="Destroy the Holder object.">
<polygon fill="white" stroke="#666666" points="115,-78 0,-78 0,-48 115,-48 115,-78"/>
<text text-anchor="start" x="8" y="-66" font-family="Helvetica,sans-Serif" font-size="10.00">application::log::Log</text>
<text text-anchor="middle" x="57.5" y="-55" font-family="Helvetica,sans-Serif" font-size="10.00">::Holder::~Holder</text>
</a>
</g>
</g>
<!-- Node3&#45;&gt;Node4 -->
<g id="edge3_Node000003_Node000004" class="edge">
<title>Node3&#45;&gt;Node4</title>
<g id="a_edge3_Node000003_Node000004"><a xlink:title=" ">
<path fill="none" stroke="#63b8ff" d="M140.49,-63C132.01,-63 123.4,-63 115.1,-63"/>
<polygon fill="#63b8ff" stroke="#63b8ff" points="140.74,-66.5 150.74,-63 140.74,-59.5 140.74,-66.5"/>
</a>
</g>
</g>
<!-- Node6 -->
<g id="Node000006" class="node">
<title>Node6</title>
<g id="a_Node000006"><a xlink:href="../../d9/d9b/classapplication_1_1log_1_1Log.html#a891da4e06362f8e2616dedbc02484dd8" target="_top" xlink:title="Interface for running logger.">
<polygon fill="white" stroke="#666666" points="266,-30 151,-30 151,0 266,0 266,-30"/>
<text text-anchor="start" x="159" y="-18" font-family="Helvetica,sans-Serif" font-size="10.00">application::log::Log</text>
<text text-anchor="middle" x="208.5" y="-7" font-family="Helvetica,sans-Serif" font-size="10.00">::runLogger</text>
</a>
</g>
</g>
<!-- Node5&#45;&gt;Node6 -->
<g id="edge5_Node000005_Node000006" class="edge">
<title>Node5&#45;&gt;Node6</title>
<g id="a_edge5_Node000005_Node000006"><a xlink:title=" ">
<path fill="none" stroke="#63b8ff" d="M291.49,-15C283.01,-15 274.4,-15 266.1,-15"/>
<polygon fill="#63b8ff" stroke="#63b8ff" points="291.74,-18.5 301.74,-15 291.74,-11.5 291.74,-18.5"/>
</a>
</g>
</g>
</g>
</svg>
