<?xml version="1.0" encoding="UTF-8" standalone="no"?>
<!DOCTYPE svg PUBLIC "-//W3C//DTD SVG 1.1//EN"
 "http://www.w3.org/Graphics/SVG/1.1/DTD/svg11.dtd">
<!-- Generated by graphviz version 2.43.0 (0)
 -->
<!-- Title: application::view::View::getInstance Pages: 1 -->
<svg width="291pt" height="86pt"
 viewBox="0.00 0.00 291.00 86.00" xmlns="http://www.w3.org/2000/svg" xmlns:xlink="http://www.w3.org/1999/xlink">
<g id="graph0" class="graph" transform="scale(1 1) rotate(0) translate(4 82)">
<title>application::view::View::getInstance</title>
<!-- Node1 -->
<g id="Node000001" class="node">
<title>Node1</title>
<g id="a_Node000001"><a xlink:title="Get the View instance.">
<polygon fill="#999999" stroke="#666666" points="283,-54 178,-54 178,-24 283,-24 283,-54"/>
<text text-anchor="start" x="186" y="-42" font-family="Helvetica,sans-Serif" font-size="10.00">application::view::</text>
<text text-anchor="middle" x="230.5" y="-31" font-family="Helvetica,sans-Serif" font-size="10.00">View::getInstance</text>
</a>
</g>
</g>
<!-- Node2 -->
<g id="Node000002" class="node">
<title>Node2</title>
<g id="a_Node000002"><a xlink:href="../../d5/dbb/classapplication_1_1view_1_1View.html#a41711627fedd84e88d209abe66dd7f41" target="_top" xlink:title="Get the existing View instance.">
<polygon fill="white" stroke="#666666" points="142,-78 0,-78 0,-48 142,-48 142,-78"/>
<text text-anchor="start" x="8" y="-66" font-family="Helvetica,sans-Serif" font-size="10.00">application::view::</text>
<text text-anchor="middle" x="71" y="-55" font-family="Helvetica,sans-Serif" font-size="10.00">View::getExistingInstance</text>
</a>
</g>
</g>
<!-- Node1&#45;&gt;Node2 -->
<g id="edge1_Node000001_Node000002" class="edge">
<title>Node1&#45;&gt;Node2</title>
<g id="a_edge1_Node000001_Node000002"><a xlink:title=" ">
<path fill="none" stroke="#63b8ff" d="M167.86,-48.39C159.47,-49.67 150.81,-50.99 142.28,-52.29"/>
<polygon fill="#63b8ff" stroke="#63b8ff" points="168.57,-51.83 177.93,-46.86 167.52,-44.9 168.57,-51.83"/>
</a>
</g>
</g>
<!-- Node3 -->
<g id="Node000003" class="node">
<title>Node3</title>
<g id="a_Node000003"><a xlink:href="../../d9/d4a/namespaceapplication_1_1command.html#a2f7782f2b91f6113f8d75a2f280d0627" target="_top" xlink:title="Trigger helper with operation.">
<polygon fill="white" stroke="#666666" points="133.5,-30 8.5,-30 8.5,0 133.5,0 133.5,-30"/>
<text text-anchor="start" x="16.5" y="-18" font-family="Helvetica,sans-Serif" font-size="10.00">application::command</text>
<text text-anchor="middle" x="71" y="-7" font-family="Helvetica,sans-Serif" font-size="10.00">::triggerHelper</text>
</a>
</g>
</g>
<!-- Node1&#45;&gt;Node3 -->
<g id="edge2_Node000001_Node000003" class="edge">
<title>Node1&#45;&gt;Node3</title>
<g id="a_edge2_Node000001_Node000003"><a xlink:title=" ">
<path fill="none" stroke="#63b8ff" d="M167.77,-29.59C156.53,-27.88 144.8,-26.09 133.56,-24.38"/>
<polygon fill="#63b8ff" stroke="#63b8ff" points="167.52,-33.1 177.93,-31.14 168.57,-26.17 167.52,-33.1"/>
</a>
</g>
</g>
</g>
</svg>
