<?xml version="1.0" encoding="UTF-8" standalone="no"?>
<!DOCTYPE svg PUBLIC "-//W3C//DTD SVG 1.1//EN"
 "http://www.w3.org/Graphics/SVG/1.1/DTD/svg11.dtd">
<!-- Generated by graphviz version 2.43.0 (0)
 -->
<!-- Title: application::view::View::fillSharedMemory Pages: 1 -->
<svg width="338pt" height="134pt"
 viewBox="0.00 0.00 338.00 134.00" xmlns="http://www.w3.org/2000/svg" xmlns:xlink="http://www.w3.org/1999/xlink">
<g id="graph0" class="graph" transform="scale(1 1) rotate(0) translate(4 130)">
<title>application::view::View::fillSharedMemory</title>
<!-- Node1 -->
<g id="Node000001" class="node">
<title>Node1</title>
<g id="a_Node000001"><a xlink:title="Fill the shared memory.">
<polygon fill="#999999" stroke="#666666" points="330,-78 198,-78 198,-48 330,-48 330,-78"/>
<text text-anchor="start" x="206" y="-66" font-family="Helvetica,sans-Serif" font-size="10.00">application::view::</text>
<text text-anchor="middle" x="264" y="-55" font-family="Helvetica,sans-Serif" font-size="10.00">View::fillSharedMemory</text>
</a>
</g>
</g>
<!-- Node2 -->
<g id="Node000002" class="node">
<title>Node2</title>
<g id="a_Node000002"><a xlink:href="../../d5/dbb/classapplication_1_1view_1_1View.html#ad9cddd788ab4701fb35dfab0ee722daf" target="_top" xlink:title="Build the TLV packet to get bash outputs.">
<polygon fill="white" stroke="#666666" points="155.5,-126 6.5,-126 6.5,-96 155.5,-96 155.5,-126"/>
<text text-anchor="start" x="14.5" y="-114" font-family="Helvetica,sans-Serif" font-size="10.00">application::view::</text>
<text text-anchor="middle" x="81" y="-103" font-family="Helvetica,sans-Serif" font-size="10.00">View::buildTLVPacket2Bash</text>
</a>
</g>
</g>
<!-- Node1&#45;&gt;Node2 -->
<g id="edge1_Node000001_Node000002" class="edge">
<title>Node1&#45;&gt;Node2</title>
<g id="a_edge1_Node000001_Node000002"><a xlink:title=" ">
<path fill="none" stroke="#63b8ff" d="M196.45,-80.65C177.44,-85.69 156.92,-91.13 138.57,-96"/>
<polygon fill="#63b8ff" stroke="#63b8ff" points="197.46,-84 206.23,-78.06 195.66,-77.24 197.46,-84"/>
</a>
</g>
</g>
<!-- Node3 -->
<g id="Node000003" class="node">
<title>Node3</title>
<g id="a_Node000003"><a xlink:href="../../d5/dbb/classapplication_1_1view_1_1View.html#a381fe394fde0c8c2d113c9f2419fe42f" target="_top" xlink:title="Build the TLV packet to view log contents.">
<polygon fill="white" stroke="#666666" points="160,-78 2,-78 2,-48 160,-48 160,-78"/>
<text text-anchor="start" x="10" y="-66" font-family="Helvetica,sans-Serif" font-size="10.00">application::view::</text>
<text text-anchor="middle" x="81" y="-55" font-family="Helvetica,sans-Serif" font-size="10.00">View::buildTLVPacket2Journal</text>
</a>
</g>
</g>
<!-- Node1&#45;&gt;Node3 -->
<g id="edge2_Node000001_Node000003" class="edge">
<title>Node1&#45;&gt;Node3</title>
<g id="a_edge2_Node000001_Node000003"><a xlink:title=" ">
<path fill="none" stroke="#63b8ff" d="M187.72,-63C178.59,-63 169.26,-63 160.09,-63"/>
<polygon fill="#63b8ff" stroke="#63b8ff" points="187.91,-66.5 197.91,-63 187.91,-59.5 187.91,-66.5"/>
</a>
</g>
</g>
<!-- Node4 -->
<g id="Node000004" class="node">
<title>Node4</title>
<g id="a_Node000004"><a xlink:href="../../d5/dbb/classapplication_1_1view_1_1View.html#a6b0cb8bf6198cc407906d81bdc6f0ffb" target="_top" xlink:title="Build the TLV packet to show status information.">
<polygon fill="white" stroke="#666666" points="162,-30 0,-30 0,0 162,0 162,-30"/>
<text text-anchor="start" x="8" y="-18" font-family="Helvetica,sans-Serif" font-size="10.00">application::view::</text>
<text text-anchor="middle" x="81" y="-7" font-family="Helvetica,sans-Serif" font-size="10.00">View::buildTLVPacket2Monitor</text>
</a>
</g>
</g>
<!-- Node1&#45;&gt;Node4 -->
<g id="edge3_Node000001_Node000004" class="edge">
<title>Node1&#45;&gt;Node4</title>
<g id="a_edge3_Node000001_Node000004"><a xlink:title=" ">
<path fill="none" stroke="#63b8ff" d="M196.45,-45.35C177.44,-40.31 156.92,-34.87 138.57,-30"/>
<polygon fill="#63b8ff" stroke="#63b8ff" points="195.66,-48.76 206.23,-47.94 197.46,-42 195.66,-48.76"/>
</a>
</g>
</g>
</g>
</svg>
