<?xml version="1.0" encoding="UTF-8" standalone="no"?>
<!DOCTYPE svg PUBLIC "-//W3C//DTD SVG 1.1//EN"
 "http://www.w3.org/Graphics/SVG/1.1/DTD/svg11.dtd">
<!-- Generated by graphviz version 2.43.0 (0)
 -->
<!-- Title: application::view::View::encryptMessage Pages: 1 -->
<svg width="500pt" height="182pt"
 viewBox="0.00 0.00 500.00 182.00" xmlns="http://www.w3.org/2000/svg" xmlns:xlink="http://www.w3.org/1999/xlink">
<g id="graph0" class="graph" transform="scale(1 1) rotate(0) translate(4 178)">
<title>application::view::View::encryptMessage</title>
<!-- Node1 -->
<g id="Node000001" class="node">
<title>Node1</title>
<g id="a_Node000001"><a xlink:title="Encrypt the message with AES&#45;128&#45;CFB&#45;128.">
<polygon fill="#999999" stroke="#666666" points="492,-102 366,-102 366,-72 492,-72 492,-102"/>
<text text-anchor="start" x="374" y="-90" font-family="Helvetica,sans-Serif" font-size="10.00">application::view::</text>
<text text-anchor="middle" x="429" y="-79" font-family="Helvetica,sans-Serif" font-size="10.00">View::encryptMessage</text>
</a>
</g>
</g>
<!-- Node2 -->
<g id="Node000002" class="node">
<title>Node2</title>
<g id="a_Node000002"><a xlink:href="../../d5/dbb/classapplication_1_1view_1_1View.html#ad9cddd788ab4701fb35dfab0ee722daf" target="_top" xlink:title="Build the TLV packet to get bash outputs.">
<polygon fill="white" stroke="#666666" points="323.5,-174 174.5,-174 174.5,-144 323.5,-144 323.5,-174"/>
<text text-anchor="start" x="182.5" y="-162" font-family="Helvetica,sans-Serif" font-size="10.00">application::view::</text>
<text text-anchor="middle" x="249" y="-151" font-family="Helvetica,sans-Serif" font-size="10.00">View::buildTLVPacket2Bash</text>
</a>
</g>
</g>
<!-- Node1&#45;&gt;Node2 -->
<g id="edge1_Node000001_Node000002" class="edge">
<title>Node1&#45;&gt;Node2</title>
<g id="a_edge1_Node000001_Node000002"><a xlink:title=" ">
<path fill="none" stroke="#63b8ff" d="M391.19,-106.81C373.08,-116.1 350.73,-126.88 330,-135 321.9,-138.17 313.2,-141.18 304.63,-143.92"/>
<polygon fill="#63b8ff" stroke="#63b8ff" points="392.98,-109.83 400.25,-102.11 389.76,-103.61 392.98,-109.83"/>
</a>
</g>
</g>
<!-- Node3 -->
<g id="Node000003" class="node">
<title>Node3</title>
<g id="a_Node000003"><a xlink:href="../../d5/dbb/classapplication_1_1view_1_1View.html#a381fe394fde0c8c2d113c9f2419fe42f" target="_top" xlink:title="Build the TLV packet to view log contents.">
<polygon fill="white" stroke="#666666" points="328,-126 170,-126 170,-96 328,-96 328,-126"/>
<text text-anchor="start" x="178" y="-114" font-family="Helvetica,sans-Serif" font-size="10.00">application::view::</text>
<text text-anchor="middle" x="249" y="-103" font-family="Helvetica,sans-Serif" font-size="10.00">View::buildTLVPacket2Journal</text>
</a>
</g>
</g>
<!-- Node1&#45;&gt;Node3 -->
<g id="edge2_Node000001_Node000003" class="edge">
<title>Node1&#45;&gt;Node3</title>
<g id="a_edge2_Node000001_Node000003"><a xlink:title=" ">
<path fill="none" stroke="#63b8ff" d="M355.65,-96.76C346.6,-97.98 337.32,-99.23 328.18,-100.46"/>
<polygon fill="#63b8ff" stroke="#63b8ff" points="356.3,-100.2 365.74,-95.39 355.37,-93.26 356.3,-100.2"/>
</a>
</g>
</g>
<!-- Node4 -->
<g id="Node000004" class="node">
<title>Node4</title>
<g id="a_Node000004"><a xlink:href="../../d5/dbb/classapplication_1_1view_1_1View.html#a6b0cb8bf6198cc407906d81bdc6f0ffb" target="_top" xlink:title="Build the TLV packet to show status information.">
<polygon fill="white" stroke="#666666" points="330,-78 168,-78 168,-48 330,-48 330,-78"/>
<text text-anchor="start" x="176" y="-66" font-family="Helvetica,sans-Serif" font-size="10.00">application::view::</text>
<text text-anchor="middle" x="249" y="-55" font-family="Helvetica,sans-Serif" font-size="10.00">View::buildTLVPacket2Monitor</text>
</a>
</g>
</g>
<!-- Node1&#45;&gt;Node4 -->
<g id="edge3_Node000001_Node000004" class="edge">
<title>Node1&#45;&gt;Node4</title>
<g id="a_edge3_Node000001_Node000004"><a xlink:title=" ">
<path fill="none" stroke="#63b8ff" d="M355.6,-77.24C347.19,-76.1 338.57,-74.94 330.05,-73.79"/>
<polygon fill="#63b8ff" stroke="#63b8ff" points="355.37,-80.74 365.74,-78.61 356.3,-73.8 355.37,-80.74"/>
</a>
</g>
</g>
<!-- Node5 -->
<g id="Node000005" class="node">
<title>Node5</title>
<g id="a_Node000005"><a xlink:href="../../d5/dbb/classapplication_1_1view_1_1View.html#a0542cb57bcd92dbfe286c904f9eb6cc5" target="_top" xlink:title="Build the TLV packet to stop connection.">
<polygon fill="white" stroke="#666666" points="322,-30 176,-30 176,0 322,0 322,-30"/>
<text text-anchor="start" x="184" y="-18" font-family="Helvetica,sans-Serif" font-size="10.00">application::view::</text>
<text text-anchor="middle" x="249" y="-7" font-family="Helvetica,sans-Serif" font-size="10.00">View::buildTLVPacket2Stop</text>
</a>
</g>
</g>
<!-- Node1&#45;&gt;Node5 -->
<g id="edge4_Node000001_Node000005" class="edge">
<title>Node1&#45;&gt;Node5</title>
<g id="a_edge4_Node000001_Node000005"><a xlink:title=" ">
<path fill="none" stroke="#63b8ff" d="M391.19,-67.19C373.08,-57.9 350.73,-47.12 330,-39 321.9,-35.83 313.2,-32.82 304.63,-30.08"/>
<polygon fill="#63b8ff" stroke="#63b8ff" points="389.76,-70.39 400.25,-71.89 392.98,-64.17 389.76,-70.39"/>
</a>
</g>
</g>
<!-- Node6 -->
<g id="Node000006" class="node">
<title>Node6</title>
<g id="a_Node000006"><a xlink:href="../../d5/dbb/classapplication_1_1view_1_1View.html#a839db1f5d74d7a6375ebf7ef5b6e23e4" target="_top" xlink:title="Create the view server.">
<polygon fill="white" stroke="#666666" points="132,-30 0,-30 0,0 132,0 132,-30"/>
<text text-anchor="start" x="8" y="-18" font-family="Helvetica,sans-Serif" font-size="10.00">application::view::</text>
<text text-anchor="middle" x="66" y="-7" font-family="Helvetica,sans-Serif" font-size="10.00">View::createViewServer</text>
</a>
</g>
</g>
<!-- Node5&#45;&gt;Node6 -->
<g id="edge5_Node000005_Node000006" class="edge">
<title>Node5&#45;&gt;Node6</title>
<g id="a_edge5_Node000005_Node000006"><a xlink:title=" ">
<path fill="none" stroke="#63b8ff" d="M165.67,-15C154.4,-15 142.96,-15 132.06,-15"/>
<polygon fill="#63b8ff" stroke="#63b8ff" points="165.94,-18.5 175.94,-15 165.94,-11.5 165.94,-18.5"/>
</a>
</g>
</g>
</g>
</svg>
