<?xml version="1.0" encoding="UTF-8" standalone="no"?>
<!DOCTYPE svg PUBLIC "-//W3C//DTD SVG 1.1//EN"
 "http://www.w3.org/Graphics/SVG/1.1/DTD/svg11.dtd">
<!-- Generated by graphviz version 2.43.0 (0)
 -->
<!-- Title: application::view::View::decryptMessage Pages: 1 -->
<svg width="453pt" height="108pt"
 viewBox="0.00 0.00 453.00 108.00" xmlns="http://www.w3.org/2000/svg" xmlns:xlink="http://www.w3.org/1999/xlink">
<g id="graph0" class="graph" transform="scale(1 1) rotate(0) translate(4 104)">
<title>application::view::View::decryptMessage</title>
<!-- Node1 -->
<g id="Node000001" class="node">
<title>Node1</title>
<g id="a_Node000001"><a xlink:title="Decrypt the message with AES&#45;128&#45;CFB&#45;128.">
<polygon fill="#999999" stroke="#666666" points="445,-64.5 319,-64.5 319,-34.5 445,-34.5 445,-64.5"/>
<text text-anchor="start" x="327" y="-52.5" font-family="Helvetica,sans-Serif" font-size="10.00">application::view::</text>
<text text-anchor="middle" x="382" y="-41.5" font-family="Helvetica,sans-Serif" font-size="10.00">View::decryptMessage</text>
</a>
</g>
</g>
<!-- Node2 -->
<g id="Node000002" class="node">
<title>Node2</title>
<g id="a_Node000002"><a xlink:href="../../d5/dbb/classapplication_1_1view_1_1View.html#a90ba206204d63a2c6d2fbfc957dcdae6" target="_top" xlink:title="Parse the TLV packet.">
<polygon fill="white" stroke="#666666" points="283,-64.5 161,-64.5 161,-34.5 283,-34.5 283,-64.5"/>
<text text-anchor="start" x="169" y="-52.5" font-family="Helvetica,sans-Serif" font-size="10.00">application::view::</text>
<text text-anchor="middle" x="222" y="-41.5" font-family="Helvetica,sans-Serif" font-size="10.00">View::parseTLVPacket</text>
</a>
</g>
</g>
<!-- Node1&#45;&gt;Node2 -->
<g id="edge1_Node000001_Node000002" class="edge">
<title>Node1&#45;&gt;Node2</title>
<g id="a_edge1_Node000001_Node000002"><a xlink:title=" ">
<path fill="none" stroke="#63b8ff" d="M308.36,-49.5C299.93,-49.5 291.42,-49.5 283.19,-49.5"/>
<polygon fill="#63b8ff" stroke="#63b8ff" points="308.55,-53 318.55,-49.5 308.55,-46 308.55,-53"/>
</a>
</g>
</g>
<!-- Node3 -->
<g id="Node000003" class="node">
<title>Node3</title>
<g id="a_Node000003"><a xlink:href="../../d9/d4a/namespaceapplication_1_1command.html#a64dbe67371e9d51f5d632764647739e3" target="_top" xlink:title="Launch the TCP client for console mode.">
<polygon fill="white" stroke="#666666" points="125,-100 0,-100 0,-59 125,-59 125,-100"/>
<text text-anchor="start" x="8" y="-88" font-family="Helvetica,sans-Serif" font-size="10.00">application::command</text>
<text text-anchor="start" x="8" y="-77" font-family="Helvetica,sans-Serif" font-size="10.00">::launchClient&lt; utility</text>
<text text-anchor="middle" x="62.5" y="-66" font-family="Helvetica,sans-Serif" font-size="10.00">::socket::TCPSocket &gt;</text>
</a>
</g>
</g>
<!-- Node2&#45;&gt;Node3 -->
<g id="edge2_Node000002_Node000003" class="edge">
<title>Node2&#45;&gt;Node3</title>
<g id="a_edge2_Node000002_Node000003"><a xlink:title=" ">
<path fill="none" stroke="#63b8ff" d="M150.64,-62.9C142.12,-64.53 133.47,-66.17 125.08,-67.77"/>
<polygon fill="#63b8ff" stroke="#63b8ff" points="151.39,-66.32 160.56,-61.01 150.08,-59.45 151.39,-66.32"/>
</a>
</g>
</g>
<!-- Node4 -->
<g id="Node000004" class="node">
<title>Node4</title>
<g id="a_Node000004"><a xlink:href="../../d9/d4a/namespaceapplication_1_1command.html#a99ba246b4327e67bf754280c86994921" target="_top" xlink:title="Launch the UDP client for console mode.">
<polygon fill="white" stroke="#666666" points="125,-41 0,-41 0,0 125,0 125,-41"/>
<text text-anchor="start" x="8" y="-29" font-family="Helvetica,sans-Serif" font-size="10.00">application::command</text>
<text text-anchor="start" x="8" y="-18" font-family="Helvetica,sans-Serif" font-size="10.00">::launchClient&lt; utility</text>
<text text-anchor="middle" x="62.5" y="-7" font-family="Helvetica,sans-Serif" font-size="10.00">::socket::UDPSocket &gt;</text>
</a>
</g>
</g>
<!-- Node2&#45;&gt;Node4 -->
<g id="edge3_Node000002_Node000004" class="edge">
<title>Node2&#45;&gt;Node4</title>
<g id="a_edge3_Node000002_Node000004"><a xlink:title=" ">
<path fill="none" stroke="#63b8ff" d="M150.64,-36.54C142.12,-34.98 133.47,-33.38 125.08,-31.84"/>
<polygon fill="#63b8ff" stroke="#63b8ff" points="150.09,-40 160.56,-38.37 151.36,-33.12 150.09,-40"/>
</a>
</g>
</g>
</g>
</svg>
