<?xml version="1.0" encoding="UTF-8" standalone="no"?>
<!DOCTYPE svg PUBLIC "-//W3C//DTD SVG 1.1//EN"
 "http://www.w3.org/Graphics/SVG/1.1/DTD/svg11.dtd">
<!-- Generated by graphviz version 2.43.0 (0)
 -->
<!-- Title: numeric/include/arithmetic.hpp Pages: 1 -->
<svg width="501pt" height="93pt"
 viewBox="0.00 0.00 500.50 93.00" xmlns="http://www.w3.org/2000/svg" xmlns:xlink="http://www.w3.org/1999/xlink">
<g id="graph0" class="graph" transform="scale(1 1) rotate(0) translate(4 89)">
<title>numeric/include/arithmetic.hpp</title>
<!-- Node1 -->
<g id="Node000001" class="node">
<title>Node1</title>
<g id="a_Node000001"><a xlink:title="The declarations (arithmetic) in the numeric module.">
<polygon fill="#999999" stroke="#666666" points="332,-85 163,-85 163,-66 332,-66 332,-85"/>
<text text-anchor="middle" x="247.5" y="-73" font-family="Helvetica,sans-Serif" font-size="10.00">numeric/include/arithmetic.hpp</text>
</a>
</g>
</g>
<!-- Node2 -->
<g id="Node000002" class="node">
<title>Node2</title>
<g id="a_Node000002"><a xlink:href="../../d1/dee/apply__numeric_8cpp.html" target="_top" xlink:title="The definitions (apply_numeric) in the application module.">
<polygon fill="white" stroke="#666666" points="147,-30 0,-30 0,0 147,0 147,-30"/>
<text text-anchor="start" x="8" y="-18" font-family="Helvetica,sans-Serif" font-size="10.00">application/example</text>
<text text-anchor="middle" x="73.5" y="-7" font-family="Helvetica,sans-Serif" font-size="10.00">/source/apply_numeric.cpp</text>
</a>
</g>
</g>
<!-- Node1&#45;&gt;Node2 -->
<g id="edge1_Node000001_Node000002" class="edge">
<title>Node1&#45;&gt;Node2</title>
<g id="a_edge1_Node000001_Node000002"><a xlink:title=" ">
<path fill="none" stroke="#63b8ff" d="M212.42,-62.71C184.39,-53.28 145.01,-40.04 115.33,-30.06"/>
<polygon fill="#63b8ff" stroke="#63b8ff" points="211.6,-66.12 222.2,-65.99 213.84,-59.49 211.6,-66.12"/>
</a>
</g>
</g>
<!-- Node3 -->
<g id="Node000003" class="node">
<title>Node3</title>
<g id="a_Node000003"><a xlink:href="../../d5/df9/arithmetic_8cpp.html" target="_top" xlink:title="The definitions (arithmetic) in the numeric module.">
<polygon fill="white" stroke="#666666" points="330,-24.5 165,-24.5 165,-5.5 330,-5.5 330,-24.5"/>
<text text-anchor="middle" x="247.5" y="-12.5" font-family="Helvetica,sans-Serif" font-size="10.00">numeric/source/arithmetic.cpp</text>
</a>
</g>
</g>
<!-- Node1&#45;&gt;Node3 -->
<g id="edge2_Node000001_Node000003" class="edge">
<title>Node1&#45;&gt;Node3</title>
<g id="a_edge2_Node000001_Node000003"><a xlink:title=" ">
<path fill="none" stroke="#63b8ff" d="M247.5,-55.66C247.5,-45.24 247.5,-32.8 247.5,-24.67"/>
<polygon fill="#63b8ff" stroke="#63b8ff" points="244,-55.87 247.5,-65.87 251,-55.87 244,-55.87"/>
</a>
</g>
</g>
<!-- Node4 -->
<g id="Node000004" class="node">
<title>Node4</title>
<g id="a_Node000004"><a xlink:href="../../d8/d25/test__numeric_8cpp.html" target="_top" xlink:title="The definitions (test_numeric) in the test module.">
<polygon fill="white" stroke="#666666" points="492.5,-24.5 348.5,-24.5 348.5,-5.5 492.5,-5.5 492.5,-24.5"/>
<text text-anchor="middle" x="420.5" y="-12.5" font-family="Helvetica,sans-Serif" font-size="10.00">test/unit/test_numeric.cpp</text>
</a>
</g>
</g>
<!-- Node1&#45;&gt;Node4 -->
<g id="edge3_Node000001_Node000004" class="edge">
<title>Node1&#45;&gt;Node4</title>
<g id="a_edge3_Node000001_Node000004"><a xlink:title=" ">
<path fill="none" stroke="#63b8ff" d="M282.48,-62.67C315.94,-51.36 365.58,-34.57 395.31,-24.52"/>
<polygon fill="#63b8ff" stroke="#63b8ff" points="281.01,-59.47 272.66,-65.99 283.25,-66.11 281.01,-59.47"/>
</a>
</g>
</g>
</g>
</svg>
