<?xml version="1.0" encoding="UTF-8" standalone="no"?>
<!DOCTYPE svg PUBLIC "-//W3C//DTD SVG 1.1//EN"
 "http://www.w3.org/Graphics/SVG/1.1/DTD/svg11.dtd">
<!-- Generated by graphviz version 2.43.0 (0)
 -->
<!-- Title: utility::time::BlockingTimer::reset Pages: 1 -->
<svg width="308pt" height="182pt"
 viewBox="0.00 0.00 308.00 182.00" xmlns="http://www.w3.org/2000/svg" xmlns:xlink="http://www.w3.org/1999/xlink">
<g id="graph0" class="graph" transform="scale(1 1) rotate(0) translate(4 178)">
<title>utility::time::BlockingTimer::reset</title>
<!-- Node1 -->
<g id="Node000001" class="node">
<title>Node1</title>
<g id="a_Node000001"><a xlink:title="Reset the blocking timer.">
<polygon fill="#999999" stroke="#666666" points="300,-102 151,-102 151,-72 300,-72 300,-102"/>
<text text-anchor="start" x="159" y="-90" font-family="Helvetica,sans-Serif" font-size="10.00">utility::time::BlockingTimer</text>
<text text-anchor="middle" x="225.5" y="-79" font-family="Helvetica,sans-Serif" font-size="10.00">::reset</text>
</a>
</g>
</g>
<!-- Node2 -->
<g id="Node000002" class="node">
<title>Node2</title>
<g id="a_Node000002"><a xlink:href="../../d9/d9b/classapplication_1_1log_1_1Log.html#a5a59c8f546a45aca98a1f1ead2da3cd6" target="_top" xlink:title="Wait for the logger to start. External use.">
<polygon fill="white" stroke="#666666" points="115,-174 0,-174 0,-144 115,-144 115,-174"/>
<text text-anchor="start" x="8" y="-162" font-family="Helvetica,sans-Serif" font-size="10.00">application::log::Log</text>
<text text-anchor="middle" x="57.5" y="-151" font-family="Helvetica,sans-Serif" font-size="10.00">::waitToStart</text>
</a>
</g>
</g>
<!-- Node1&#45;&gt;Node2 -->
<g id="edge1_Node000001_Node000002" class="edge">
<title>Node1&#45;&gt;Node2</title>
<g id="a_edge1_Node000001_Node000002"><a xlink:title=" ">
<path fill="none" stroke="#63b8ff" d="M181.29,-106.08C161.16,-114.93 136.88,-125.56 115,-135 108.25,-137.91 101.03,-141 94.09,-143.95"/>
<polygon fill="#63b8ff" stroke="#63b8ff" points="182.77,-109.25 190.51,-102.02 179.95,-102.84 182.77,-109.25"/>
</a>
</g>
</g>
<!-- Node3 -->
<g id="Node000003" class="node">
<title>Node3</title>
<g id="a_Node000003"><a xlink:href="../../d5/dbb/classapplication_1_1view_1_1View.html#a2d9f3d212d3478879cf300c0e5978c89" target="_top" xlink:title="Wait for the viewer to start. External use.">
<polygon fill="white" stroke="#666666" points="110,-126 5,-126 5,-96 110,-96 110,-126"/>
<text text-anchor="start" x="13" y="-114" font-family="Helvetica,sans-Serif" font-size="10.00">application::view::</text>
<text text-anchor="middle" x="57.5" y="-103" font-family="Helvetica,sans-Serif" font-size="10.00">View::waitToStart</text>
</a>
</g>
</g>
<!-- Node1&#45;&gt;Node3 -->
<g id="edge2_Node000001_Node000003" class="edge">
<title>Node1&#45;&gt;Node3</title>
<g id="a_edge2_Node000001_Node000003"><a xlink:title=" ">
<path fill="none" stroke="#63b8ff" d="M140.74,-99.11C130.32,-100.62 119.91,-102.12 110.18,-103.53"/>
<polygon fill="#63b8ff" stroke="#63b8ff" points="141.33,-102.56 150.72,-97.67 140.33,-95.63 141.33,-102.56"/>
</a>
</g>
</g>
<!-- Node4 -->
<g id="Node000004" class="node">
<title>Node4</title>
<g id="a_Node000004"><a xlink:href="../../d9/d9b/classapplication_1_1log_1_1Log.html#a8d97e442669eafa7d71a6da118216610" target="_top" xlink:title="Wait for the logger to stop. External use.">
<polygon fill="white" stroke="#666666" points="115,-78 0,-78 0,-48 115,-48 115,-78"/>
<text text-anchor="start" x="8" y="-66" font-family="Helvetica,sans-Serif" font-size="10.00">application::log::Log</text>
<text text-anchor="middle" x="57.5" y="-55" font-family="Helvetica,sans-Serif" font-size="10.00">::waitToStop</text>
</a>
</g>
</g>
<!-- Node1&#45;&gt;Node4 -->
<g id="edge3_Node000001_Node000004" class="edge">
<title>Node1&#45;&gt;Node4</title>
<g id="a_edge3_Node000001_Node000004"><a xlink:title=" ">
<path fill="none" stroke="#63b8ff" d="M140.6,-74.87C131.97,-73.62 123.34,-72.37 115.11,-71.18"/>
<polygon fill="#63b8ff" stroke="#63b8ff" points="140.33,-78.37 150.72,-76.33 141.33,-71.44 140.33,-78.37"/>
</a>
</g>
</g>
<!-- Node5 -->
<g id="Node000005" class="node">
<title>Node5</title>
<g id="a_Node000005"><a xlink:href="../../d5/dbb/classapplication_1_1view_1_1View.html#a091d67b6bf142dfaa6e0f4e6eef64fb8" target="_top" xlink:title="Wait for the viewer to stop. External use.">
<polygon fill="white" stroke="#666666" points="110,-30 5,-30 5,0 110,0 110,-30"/>
<text text-anchor="start" x="13" y="-18" font-family="Helvetica,sans-Serif" font-size="10.00">application::view::</text>
<text text-anchor="middle" x="57.5" y="-7" font-family="Helvetica,sans-Serif" font-size="10.00">View::waitToStop</text>
</a>
</g>
</g>
<!-- Node1&#45;&gt;Node5 -->
<g id="edge4_Node000001_Node000005" class="edge">
<title>Node1&#45;&gt;Node5</title>
<g id="a_edge4_Node000001_Node000005"><a xlink:title=" ">
<path fill="none" stroke="#63b8ff" d="M181.29,-67.92C161.16,-59.07 136.88,-48.44 115,-39 108.25,-36.09 101.03,-33 94.09,-30.05"/>
<polygon fill="#63b8ff" stroke="#63b8ff" points="179.95,-71.16 190.51,-71.98 182.77,-64.75 179.95,-71.16"/>
</a>
</g>
</g>
</g>
</svg>
