<?xml version="1.0" encoding="UTF-8" standalone="no"?>
<!DOCTYPE svg PUBLIC "-//W3C//DTD SVG 1.1//EN"
 "http://www.w3.org/Graphics/SVG/1.1/DTD/svg11.dtd">
<!-- Generated by graphviz version 2.43.0 (0)
 -->
<!-- Title: utility::time::BlockingTimer::set Pages: 1 -->
<svg width="363pt" height="230pt"
 viewBox="0.00 0.00 363.00 230.00" xmlns="http://www.w3.org/2000/svg" xmlns:xlink="http://www.w3.org/1999/xlink">
<g id="graph0" class="graph" transform="scale(1 1) rotate(0) translate(4 226)">
<title>utility::time::BlockingTimer::set</title>
<!-- Node1 -->
<g id="Node000001" class="node">
<title>Node1</title>
<g id="a_Node000001"><a xlink:title="Set the blocking timer.">
<polygon fill="#999999" stroke="#666666" points="355,-120.5 185,-120.5 185,-101.5 355,-101.5 355,-120.5"/>
<text text-anchor="middle" x="270" y="-108.5" font-family="Helvetica,sans-Serif" font-size="10.00">utility::time::BlockingTimer::set</text>
</a>
</g>
</g>
<!-- Node2 -->
<g id="Node000002" class="node">
<title>Node2</title>
<g id="a_Node000002"><a xlink:href="../../d9/d9b/classapplication_1_1log_1_1Log.html#a5a59c8f546a45aca98a1f1ead2da3cd6" target="_top" xlink:title="Wait for the logger to start. External use.">
<polygon fill="white" stroke="#666666" points="132,-222 17,-222 17,-192 132,-192 132,-222"/>
<text text-anchor="start" x="25" y="-210" font-family="Helvetica,sans-Serif" font-size="10.00">application::log::Log</text>
<text text-anchor="middle" x="74.5" y="-199" font-family="Helvetica,sans-Serif" font-size="10.00">::waitToStart</text>
</a>
</g>
</g>
<!-- Node1&#45;&gt;Node2 -->
<g id="edge1_Node000001_Node000002" class="edge">
<title>Node1&#45;&gt;Node2</title>
<g id="a_edge1_Node000001_Node000002"><a xlink:title=" ">
<path fill="none" stroke="#63b8ff" d="M246.63,-126.52C223.14,-142.3 184.71,-166.71 149,-183 141.92,-186.23 134.27,-189.23 126.68,-191.94"/>
<polygon fill="#63b8ff" stroke="#63b8ff" points="248.86,-129.24 255.16,-120.72 244.92,-123.45 248.86,-129.24"/>
</a>
</g>
</g>
<!-- Node3 -->
<g id="Node000003" class="node">
<title>Node3</title>
<g id="a_Node000003"><a xlink:href="../../d5/dbb/classapplication_1_1view_1_1View.html#a2d9f3d212d3478879cf300c0e5978c89" target="_top" xlink:title="Wait for the viewer to start. External use.">
<polygon fill="white" stroke="#666666" points="127,-174 22,-174 22,-144 127,-144 127,-174"/>
<text text-anchor="start" x="30" y="-162" font-family="Helvetica,sans-Serif" font-size="10.00">application::view::</text>
<text text-anchor="middle" x="74.5" y="-151" font-family="Helvetica,sans-Serif" font-size="10.00">View::waitToStart</text>
</a>
</g>
</g>
<!-- Node1&#45;&gt;Node3 -->
<g id="edge2_Node000001_Node000003" class="edge">
<title>Node1&#45;&gt;Node3</title>
<g id="a_edge2_Node000001_Node000003"><a xlink:title=" ">
<path fill="none" stroke="#63b8ff" d="M220.6,-123.01C192.19,-130.05 156.3,-138.96 127.33,-146.14"/>
<polygon fill="#63b8ff" stroke="#63b8ff" points="221.44,-126.4 230.31,-120.6 219.76,-119.61 221.44,-126.4"/>
</a>
</g>
</g>
<!-- Node4 -->
<g id="Node000004" class="node">
<title>Node4</title>
<g id="a_Node000004"><a xlink:href="../../d9/d9b/classapplication_1_1log_1_1Log.html#a8d97e442669eafa7d71a6da118216610" target="_top" xlink:title="Wait for the logger to stop. External use.">
<polygon fill="white" stroke="#666666" points="132,-126 17,-126 17,-96 132,-96 132,-126"/>
<text text-anchor="start" x="25" y="-114" font-family="Helvetica,sans-Serif" font-size="10.00">application::log::Log</text>
<text text-anchor="middle" x="74.5" y="-103" font-family="Helvetica,sans-Serif" font-size="10.00">::waitToStop</text>
</a>
</g>
</g>
<!-- Node1&#45;&gt;Node4 -->
<g id="edge3_Node000001_Node000004" class="edge">
<title>Node1&#45;&gt;Node4</title>
<g id="a_edge3_Node000001_Node000004"><a xlink:title=" ">
<path fill="none" stroke="#63b8ff" d="M174.89,-111C160.28,-111 145.59,-111 132.15,-111"/>
<polygon fill="#63b8ff" stroke="#63b8ff" points="174.97,-114.5 184.97,-111 174.97,-107.5 174.97,-114.5"/>
</a>
</g>
</g>
<!-- Node5 -->
<g id="Node000005" class="node">
<title>Node5</title>
<g id="a_Node000005"><a xlink:href="../../d5/dbb/classapplication_1_1view_1_1View.html#a091d67b6bf142dfaa6e0f4e6eef64fb8" target="_top" xlink:title="Wait for the viewer to stop. External use.">
<polygon fill="white" stroke="#666666" points="127,-78 22,-78 22,-48 127,-48 127,-78"/>
<text text-anchor="start" x="30" y="-66" font-family="Helvetica,sans-Serif" font-size="10.00">application::view::</text>
<text text-anchor="middle" x="74.5" y="-55" font-family="Helvetica,sans-Serif" font-size="10.00">View::waitToStop</text>
</a>
</g>
</g>
<!-- Node1&#45;&gt;Node5 -->
<g id="edge4_Node000001_Node000005" class="edge">
<title>Node1&#45;&gt;Node5</title>
<g id="a_edge4_Node000001_Node000005"><a xlink:title=" ">
<path fill="none" stroke="#63b8ff" d="M220.6,-98.99C192.19,-91.95 156.3,-83.04 127.33,-75.86"/>
<polygon fill="#63b8ff" stroke="#63b8ff" points="219.76,-102.39 230.31,-101.4 221.44,-95.6 219.76,-102.39"/>
</a>
</g>
</g>
<!-- Node6 -->
<g id="Node000006" class="node">
<title>Node6</title>
<g id="a_Node000006"><a xlink:href="../../de/ded/classutility_1_1time_1_1BlockingTimer.html#a0eef5659c2906196f1dd61e25b2cdea3" target="_top" xlink:title="Destroy the BlockingTimer object.">
<polygon fill="white" stroke="#666666" points="149,-30 0,-30 0,0 149,0 149,-30"/>
<text text-anchor="start" x="8" y="-18" font-family="Helvetica,sans-Serif" font-size="10.00">utility::time::BlockingTimer</text>
<text text-anchor="middle" x="74.5" y="-7" font-family="Helvetica,sans-Serif" font-size="10.00">::~BlockingTimer</text>
</a>
</g>
</g>
<!-- Node1&#45;&gt;Node6 -->
<g id="edge5_Node000001_Node000006" class="edge">
<title>Node1&#45;&gt;Node6</title>
<g id="a_edge5_Node000001_Node000006"><a xlink:title=" ">
<path fill="none" stroke="#63b8ff" d="M246.63,-95.48C223.14,-79.7 184.71,-55.29 149,-39 141.92,-35.77 134.27,-32.77 126.68,-30.06"/>
<polygon fill="#63b8ff" stroke="#63b8ff" points="244.92,-98.55 255.16,-101.28 248.86,-92.76 244.92,-98.55"/>
</a>
</g>
</g>
</g>
</svg>
