<?xml version="1.0" encoding="UTF-8" standalone="no"?>
<!DOCTYPE svg PUBLIC "-//W3C//DTD SVG 1.1//EN"
 "http://www.w3.org/Graphics/SVG/1.1/DTD/svg11.dtd">
<!-- Generated by graphviz version 2.43.0 (0)
 -->
<!-- Title: design_pattern::behavioral::mediator::ConcreteMediator Pages: 1 -->
<svg width="934pt" height="113pt"
 viewBox="0.00 0.00 934.00 113.00" xmlns="http://www.w3.org/2000/svg" xmlns:xlink="http://www.w3.org/1999/xlink">
<g id="graph0" class="graph" transform="scale(1 1) rotate(0) translate(4 109)">
<title>design_pattern::behavioral::mediator::ConcreteMediator</title>
<!-- Node1 -->
<g id="Node000001" class="node">
<title>Node1</title>
<g id="a_Node000001"><a xlink:title="The concrete mediator.">
<polygon fill="#999999" stroke="#666666" points="926,-78 766,-78 766,-48 926,-48 926,-78"/>
<text text-anchor="start" x="774" y="-66" font-family="Helvetica,sans-Serif" font-size="10.00">design_pattern::behavioral</text>
<text text-anchor="middle" x="846" y="-55" font-family="Helvetica,sans-Serif" font-size="10.00">::mediator::ConcreteMediator</text>
</a>
</g>
</g>
<!-- Node2 -->
<g id="Node000002" class="node">
<title>Node2</title>
<g id="a_Node000002"><a xlink:href="../../d7/d91/classdesign__pattern_1_1behavioral_1_1mediator_1_1Mediator.html" target="_top" xlink:title="Implement cooperative behavior by coordinating colleagues.">
<polygon fill="white" stroke="#666666" points="649.5,-105 502.5,-105 502.5,-75 649.5,-75 649.5,-105"/>
<text text-anchor="start" x="510.5" y="-93" font-family="Helvetica,sans-Serif" font-size="10.00">design_pattern::behavioral</text>
<text text-anchor="middle" x="576" y="-82" font-family="Helvetica,sans-Serif" font-size="10.00">::mediator::Mediator</text>
</a>
</g>
</g>
<!-- Node2&#45;&gt;Node1 -->
<g id="edge1_Node000001_Node000002" class="edge">
<title>Node2&#45;&gt;Node1</title>
<g id="a_edge1_Node000001_Node000002"><a xlink:title=" ">
<path fill="none" stroke="#63b8ff" d="M659.83,-81.66C693.59,-78.25 732.45,-74.34 765.83,-70.98"/>
<polygon fill="#63b8ff" stroke="#63b8ff" points="659.12,-78.21 649.52,-82.69 659.83,-85.17 659.12,-78.21"/>
</a>
</g>
</g>
<!-- Node3 -->
<g id="Node000003" class="node">
<title>Node3</title>
<g id="a_Node000003"><a target="_parent" xlink:href="https://gcc.gnu.org/onlinedocs/gcc-12.3.0/libstdc++/api/a08791.html" xlink:title=" ">
<polygon fill="white" stroke="#666666" points="674,-56.5 478,-56.5 478,-15.5 674,-15.5 674,-56.5"/>
<text text-anchor="start" x="486" y="-44.5" font-family="Helvetica,sans-Serif" font-size="10.00">std::vector&lt; std::weak</text>
<text text-anchor="start" x="486" y="-33.5" font-family="Helvetica,sans-Serif" font-size="10.00">_ptr&lt; design_pattern::</text>
<text text-anchor="middle" x="576" y="-22.5" font-family="Helvetica,sans-Serif" font-size="10.00">behavioral::mediator::Colleague &gt; &gt;</text>
</a>
</g>
</g>
<!-- Node3&#45;&gt;Node1 -->
<g id="edge2_Node000001_Node000003" class="edge">
<title>Node3&#45;&gt;Node1</title>
<g id="a_edge2_Node000001_Node000003"><a xlink:title=" ">
<path fill="none" stroke="#9a32cd" stroke-dasharray="5,2" d="M684.1,-46.79C711.37,-49.54 740.19,-52.44 765.79,-55.02"/>
<polygon fill="#9a32cd" stroke="#9a32cd" points="684.43,-43.31 674.13,-45.79 683.73,-50.27 684.43,-43.31"/>
</a>
</g>
<text text-anchor="middle" x="720" y="-55" font-family="Helvetica,sans-Serif" font-size="10.00" fill="grey"> colleagues</text>
</g>
<!-- Node4 -->
<g id="Node000004" class="node">
<title>Node4</title>
<g id="a_Node000004"><a target="_parent" xlink:href="https://gcc.gnu.org/onlinedocs/gcc-12.3.0/libstdc++/api/a08779.html" xlink:title=" ">
<polygon fill="white" stroke="#666666" points="145,-58.5 0,-58.5 0,-17.5 145,-17.5 145,-58.5"/>
<text text-anchor="start" x="8" y="-46.5" font-family="Helvetica,sans-Serif" font-size="10.00">std::_Vector_base&lt;</text>
<text text-anchor="start" x="8" y="-35.5" font-family="Helvetica,sans-Serif" font-size="10.00"> typename _Tp, typename</text>
<text text-anchor="middle" x="72.5" y="-24.5" font-family="Helvetica,sans-Serif" font-size="10.00"> _Alloc &gt;</text>
</a>
</g>
</g>
<!-- Node4&#45;&gt;Node3 -->
<g id="edge3_Node000003_Node000004" class="edge">
<title>Node4&#45;&gt;Node3</title>
<g id="a_edge3_Node000003_Node000004"><a xlink:title=" ">
<path fill="none" stroke="darkgreen" d="M155.4,-42.73C233.65,-46.54 354.92,-50.56 460,-46 465.81,-45.75 471.77,-45.42 477.79,-45.05"/>
<polygon fill="darkgreen" stroke="darkgreen" points="155.28,-39.22 145.12,-42.22 154.94,-46.22 155.28,-39.22"/>
</a>
</g>
</g>
<!-- Node5 -->
<g id="Node000005" class="node">
<title>Node5</title>
<g id="a_Node000005"><a target="_parent" xlink:href="https://gcc.gnu.org/onlinedocs/gcc-12.3.0/libstdc++/api/a08791.html" xlink:title=" ">
<polygon fill="white" stroke="#666666" points="318,-30 182,-30 182,0 318,0 318,-30"/>
<text text-anchor="start" x="190" y="-18" font-family="Helvetica,sans-Serif" font-size="10.00">std::vector&lt; typename</text>
<text text-anchor="middle" x="250" y="-7" font-family="Helvetica,sans-Serif" font-size="10.00"> _Tp, typename _Alloc &gt;</text>
</a>
</g>
</g>
<!-- Node4&#45;&gt;Node5 -->
<g id="edge5_Node000005_Node000004" class="edge">
<title>Node4&#45;&gt;Node5</title>
<g id="a_edge5_Node000005_Node000004"><a xlink:title=" ">
<path fill="none" stroke="darkgreen" d="M155.16,-27.3C164.09,-26.13 173.11,-24.95 181.84,-23.8"/>
<polygon fill="darkgreen" stroke="darkgreen" points="154.6,-23.84 145.14,-28.61 155.51,-30.78 154.6,-23.84"/>
</a>
</g>
</g>
<!-- Node5&#45;&gt;Node3 -->
<g id="edge4_Node000003_Node000005" class="edge">
<title>Node5&#45;&gt;Node3</title>
<g id="a_edge4_Node000003_Node000005"><a xlink:title=" ">
<path fill="none" stroke="orange" stroke-dasharray="5,2" d="M328.34,-13.1C330.92,-13.06 333.48,-13.03 336,-13 391.11,-12.35 405.16,-7.57 460,-13 466.48,-13.64 473.14,-14.48 479.83,-15.46"/>
<polygon fill="orange" stroke="orange" points="328.21,-9.6 318.27,-13.27 328.33,-16.6 328.21,-9.6"/>
</a>
</g>
<text text-anchor="start" x="336" y="-38" font-family="Helvetica,sans-Serif" font-size="10.00" fill="grey"> &lt; std::weak_ptr&lt; design</text>
<text text-anchor="start" x="336" y="-27" font-family="Helvetica,sans-Serif" font-size="10.00" fill="grey">_pattern::behavioral::</text>
<text text-anchor="middle" x="398" y="-16" font-family="Helvetica,sans-Serif" font-size="10.00" fill="grey">mediator::Colleague &gt; &gt;</text>
</g>
</g>
</svg>
