<?xml version="1.0" encoding="UTF-8" standalone="no"?>
<!DOCTYPE svg PUBLIC "-//W3C//DTD SVG 1.1//EN"
 "http://www.w3.org/Graphics/SVG/1.1/DTD/svg11.dtd">
<!-- Generated by graphviz version 2.43.0 (0)
 -->
<!-- Title: utility::argument::Register::argsNum Pages: 1 -->
<svg width="280pt" height="86pt"
 viewBox="0.00 0.00 280.00 86.00" xmlns="http://www.w3.org/2000/svg" xmlns:xlink="http://www.w3.org/1999/xlink">
<g id="graph0" class="graph" transform="scale(1 1) rotate(0) translate(4 82)">
<title>utility::argument::Register::argsNum</title>
<!-- Node1 -->
<g id="Node000001" class="node">
<title>Node1</title>
<g id="a_Node000001"><a xlink:title="Set number of arguments.">
<polygon fill="#999999" stroke="#666666" points="272,-54 165,-54 165,-24 272,-24 272,-54"/>
<text text-anchor="start" x="173" y="-42" font-family="Helvetica,sans-Serif" font-size="10.00">utility::argument::</text>
<text text-anchor="middle" x="218.5" y="-31" font-family="Helvetica,sans-Serif" font-size="10.00">Register::argsNum</text>
</a>
</g>
</g>
<!-- Node2 -->
<g id="Node000002" class="node">
<title>Node2</title>
<g id="a_Node000002"><a xlink:href="../../de/dd7/classapplication_1_1command_1_1Command.html#ad3be46c0d3e8cddf28151fbca24d423f" target="_top" xlink:title="Construct a new Command object.">
<polygon fill="white" stroke="#666666" points="129,-78 0,-78 0,-48 129,-48 129,-78"/>
<text text-anchor="start" x="8" y="-66" font-family="Helvetica,sans-Serif" font-size="10.00">application::command</text>
<text text-anchor="middle" x="64.5" y="-55" font-family="Helvetica,sans-Serif" font-size="10.00">::Command::Command</text>
</a>
</g>
</g>
<!-- Node1&#45;&gt;Node2 -->
<g id="edge1_Node000001_Node000002" class="edge">
<title>Node1&#45;&gt;Node2</title>
<g id="a_edge1_Node000001_Node000002"><a xlink:title=" ">
<path fill="none" stroke="#63b8ff" d="M154.63,-48.93C146.21,-50.26 137.57,-51.62 129.14,-52.95"/>
<polygon fill="#63b8ff" stroke="#63b8ff" points="155.43,-52.34 164.76,-47.33 154.34,-45.43 155.43,-52.34"/>
</a>
</g>
</g>
<!-- Node3 -->
<g id="Node000003" class="node">
<title>Node3</title>
<g id="a_Node000003"><a xlink:href="../../de/daf/classutility_1_1argument_1_1Register.html#a242bd40cd0ad2a3a63a1bdc6484c7fd1" target="_top" xlink:title="Set the argument property to be remaining.">
<polygon fill="white" stroke="#666666" points="121,-30 8,-30 8,0 121,0 121,-30"/>
<text text-anchor="start" x="16" y="-18" font-family="Helvetica,sans-Serif" font-size="10.00">utility::argument::</text>
<text text-anchor="middle" x="64.5" y="-7" font-family="Helvetica,sans-Serif" font-size="10.00">Register::remaining</text>
</a>
</g>
</g>
<!-- Node1&#45;&gt;Node3 -->
<g id="edge2_Node000001_Node000003" class="edge">
<title>Node1&#45;&gt;Node3</title>
<g id="a_edge2_Node000001_Node000003"><a xlink:title=" ">
<path fill="none" stroke="#63b8ff" d="M154.71,-29.09C143.62,-27.33 132.13,-25.52 121.25,-23.8"/>
<polygon fill="#63b8ff" stroke="#63b8ff" points="154.34,-32.57 164.76,-30.67 155.43,-25.66 154.34,-32.57"/>
</a>
</g>
</g>
</g>
</svg>
