<?xml version="1.0" encoding="UTF-8" standalone="no"?>
<!DOCTYPE svg PUBLIC "-//W3C//DTD SVG 1.1//EN"
 "http://www.w3.org/Graphics/SVG/1.1/DTD/svg11.dtd">
<!-- Generated by graphviz version 2.43.0 (0)
 -->
<!-- Title: utility::argument::Register::defaultVal Pages: 1 -->
<svg width="286pt" height="86pt"
 viewBox="0.00 0.00 286.00 86.00" xmlns="http://www.w3.org/2000/svg" xmlns:xlink="http://www.w3.org/1999/xlink">
<g id="graph0" class="graph" transform="scale(1 1) rotate(0) translate(4 82)">
<title>utility::argument::Register::defaultVal</title>
<!-- Node1 -->
<g id="Node000001" class="node">
<title>Node1</title>
<g id="a_Node000001"><a xlink:title="Set default value.">
<polygon fill="#999999" stroke="#666666" points="278,-54 165,-54 165,-24 278,-24 278,-54"/>
<text text-anchor="start" x="173" y="-42" font-family="Helvetica,sans-Serif" font-size="10.00">utility::argument::</text>
<text text-anchor="middle" x="221.5" y="-31" font-family="Helvetica,sans-Serif" font-size="10.00">Register::defaultVal</text>
</a>
</g>
</g>
<!-- Node2 -->
<g id="Node000002" class="node">
<title>Node2</title>
<g id="a_Node000002"><a xlink:href="../../de/dd7/classapplication_1_1command_1_1Command.html#ad3be46c0d3e8cddf28151fbca24d423f" target="_top" xlink:title="Construct a new Command object.">
<polygon fill="white" stroke="#666666" points="129,-78 0,-78 0,-48 129,-48 129,-78"/>
<text text-anchor="start" x="8" y="-66" font-family="Helvetica,sans-Serif" font-size="10.00">application::command</text>
<text text-anchor="middle" x="64.5" y="-55" font-family="Helvetica,sans-Serif" font-size="10.00">::Command::Command</text>
</a>
</g>
</g>
<!-- Node1&#45;&gt;Node2 -->
<g id="edge1_Node000001_Node000002" class="edge">
<title>Node1&#45;&gt;Node2</title>
<g id="a_edge1_Node000001_Node000002"><a xlink:title=" ">
<path fill="none" stroke="#63b8ff" d="M155.01,-49.14C146.42,-50.47 137.63,-51.83 129.07,-53.16"/>
<polygon fill="#63b8ff" stroke="#63b8ff" points="155.63,-52.59 164.98,-47.6 154.56,-45.67 155.63,-52.59"/>
</a>
</g>
</g>
<!-- Node3 -->
<g id="Node000003" class="node">
<title>Node3</title>
<g id="a_Node000003"><a xlink:href="../../de/daf/classutility_1_1argument_1_1Register.html#a6e63bc457ab1cef22d7aae04878151b7" target="_top" xlink:title="Set default value.">
<polygon fill="white" stroke="#666666" points="121,-30 8,-30 8,0 121,0 121,-30"/>
<text text-anchor="start" x="16" y="-18" font-family="Helvetica,sans-Serif" font-size="10.00">utility::argument::</text>
<text text-anchor="middle" x="64.5" y="-7" font-family="Helvetica,sans-Serif" font-size="10.00">Register::defaultVal</text>
</a>
</g>
</g>
<!-- Node1&#45;&gt;Node3 -->
<g id="edge2_Node000001_Node000003" class="edge">
<title>Node1&#45;&gt;Node3</title>
<g id="a_edge2_Node000001_Node000003"><a xlink:title=" ">
<path fill="none" stroke="#63b8ff" d="M154.81,-28.83C143.61,-27.09 132.07,-25.31 121.15,-23.62"/>
<polygon fill="#63b8ff" stroke="#63b8ff" points="154.56,-32.33 164.98,-30.4 155.63,-25.41 154.56,-32.33"/>
</a>
</g>
</g>
</g>
</svg>
