<?xml version="1.0" encoding="UTF-8" standalone="no"?>
<!DOCTYPE svg PUBLIC "-//W3C//DTD SVG 1.1//EN"
 "http://www.w3.org/Graphics/SVG/1.1/DTD/svg11.dtd">
<!-- Generated by graphviz version 2.43.0 (0)
 -->
<!-- Title: utility::argument::Register::checkIfPositional Pages: 1 -->
<svg width="907pt" height="158pt"
 viewBox="0.00 0.00 907.00 158.00" xmlns="http://www.w3.org/2000/svg" xmlns:xlink="http://www.w3.org/1999/xlink">
<g id="graph0" class="graph" transform="scale(1 1) rotate(0) translate(4 154)">
<title>utility::argument::Register::checkIfPositional</title>
<!-- Node1 -->
<g id="Node000001" class="node">
<title>Node1</title>
<g id="a_Node000001"><a xlink:title="Check if the argument is positional.">
<polygon fill="#999999" stroke="#666666" points="899,-102 753,-102 753,-72 899,-72 899,-102"/>
<text text-anchor="start" x="761" y="-90" font-family="Helvetica,sans-Serif" font-size="10.00">utility::argument::</text>
<text text-anchor="middle" x="826" y="-79" font-family="Helvetica,sans-Serif" font-size="10.00">Register::checkIfPositional</text>
</a>
</g>
</g>
<!-- Node2 -->
<g id="Node000002" class="node">
<title>Node2</title>
<g id="a_Node000002"><a xlink:href="../../de/daf/classutility_1_1argument_1_1Register.html#a21b4b17a186be3ec8519ba8f78af1b23" target="_top" xlink:title="Check if the argument is optional.">
<polygon fill="white" stroke="#666666" points="704.5,-150 564.5,-150 564.5,-120 704.5,-120 704.5,-150"/>
<text text-anchor="start" x="572.5" y="-138" font-family="Helvetica,sans-Serif" font-size="10.00">utility::argument::</text>
<text text-anchor="middle" x="634.5" y="-127" font-family="Helvetica,sans-Serif" font-size="10.00">Register::checkIfOptional</text>
</a>
</g>
</g>
<!-- Node1&#45;&gt;Node2 -->
<g id="edge1_Node000001_Node000002" class="edge">
<title>Node1&#45;&gt;Node2</title>
<g id="a_edge1_Node000001_Node000002"><a xlink:title=" ">
<path fill="none" stroke="#63b8ff" d="M755.6,-104.58C735.62,-109.64 714.03,-115.11 694.73,-120"/>
<polygon fill="#63b8ff" stroke="#63b8ff" points="756.73,-107.9 765.56,-102.06 755.01,-101.12 756.73,-107.9"/>
</a>
</g>
</g>
<!-- Node3 -->
<g id="Node000003" class="node">
<title>Node3</title>
<g id="a_Node000003"><a xlink:href="../../de/daf/classutility_1_1argument_1_1Register.html#aef8f8bd87c0cedb26bcd3d050c84b9d2" target="_top" xlink:title="Get the length of all arguments.">
<polygon fill="white" stroke="#666666" points="717,-102 552,-102 552,-72 717,-72 717,-102"/>
<text text-anchor="start" x="560" y="-90" font-family="Helvetica,sans-Serif" font-size="10.00">utility::argument::</text>
<text text-anchor="middle" x="634.5" y="-79" font-family="Helvetica,sans-Serif" font-size="10.00">Register::getArgumentsLength</text>
</a>
</g>
</g>
<!-- Node1&#45;&gt;Node3 -->
<g id="edge2_Node000001_Node000003" class="edge">
<title>Node1&#45;&gt;Node3</title>
<g id="a_edge2_Node000001_Node000003"><a xlink:title=" ">
<path fill="none" stroke="#63b8ff" d="M742.65,-87C734.24,-87 725.7,-87 717.3,-87"/>
<polygon fill="#63b8ff" stroke="#63b8ff" points="742.82,-90.5 752.82,-87 742.82,-83.5 742.82,-90.5"/>
</a>
</g>
</g>
<!-- Node4 -->
<g id="Node000004" class="node">
<title>Node4</title>
<g id="a_Node000004"><a xlink:href="../../d8/dae/classutility_1_1argument_1_1Argument.html#acfcd684de0509fe226b9f1351b62a50a" target="_top" xlink:title="Parse all input arguments for internal.">
<polygon fill="white" stroke="#666666" points="713,-54 556,-54 556,-24 713,-24 713,-54"/>
<text text-anchor="start" x="564" y="-42" font-family="Helvetica,sans-Serif" font-size="10.00">utility::argument::</text>
<text text-anchor="middle" x="634.5" y="-31" font-family="Helvetica,sans-Serif" font-size="10.00">Argument::parseArgsInternal</text>
</a>
</g>
</g>
<!-- Node1&#45;&gt;Node4 -->
<g id="edge3_Node000001_Node000004" class="edge">
<title>Node1&#45;&gt;Node4</title>
<g id="a_edge3_Node000001_Node000004"><a xlink:title=" ">
<path fill="none" stroke="#63b8ff" d="M755.6,-69.42C735.62,-64.36 714.03,-58.89 694.73,-54"/>
<polygon fill="#63b8ff" stroke="#63b8ff" points="755.01,-72.88 765.56,-71.94 756.73,-66.1 755.01,-72.88"/>
</a>
</g>
</g>
<!-- Node5 -->
<g id="Node000005" class="node">
<title>Node5</title>
<g id="a_Node000005"><a xlink:href="../../d8/dae/classutility_1_1argument_1_1Argument.html#ad4729b527974c517799cf4f948d3d107" target="_top" xlink:title="Parse all input arguments.">
<polygon fill="white" stroke="#666666" points="516,-54 397,-54 397,-24 516,-24 516,-54"/>
<text text-anchor="start" x="405" y="-42" font-family="Helvetica,sans-Serif" font-size="10.00">utility::argument::</text>
<text text-anchor="middle" x="456.5" y="-31" font-family="Helvetica,sans-Serif" font-size="10.00">Argument::parseArgs</text>
</a>
</g>
</g>
<!-- Node4&#45;&gt;Node5 -->
<g id="edge4_Node000004_Node000005" class="edge">
<title>Node4&#45;&gt;Node5</title>
<g id="a_edge4_Node000004_Node000005"><a xlink:title=" ">
<path fill="none" stroke="#63b8ff" d="M545.74,-39C535.66,-39 525.58,-39 516.03,-39"/>
<polygon fill="#63b8ff" stroke="#63b8ff" points="545.79,-42.5 555.79,-39 545.79,-35.5 545.79,-42.5"/>
</a>
</g>
</g>
<!-- Node6 -->
<g id="Node000006" class="node">
<title>Node6</title>
<g id="a_Node000006"><a xlink:href="../../de/dd7/classapplication_1_1command_1_1Command.html#ad693981498a2ff88208efd2f97d46e25" target="_top" xlink:title="Foreground handler for parsing command line arguments.">
<polygon fill="white" stroke="#666666" points="361,-78 191,-78 191,-48 361,-48 361,-78"/>
<text text-anchor="start" x="199" y="-66" font-family="Helvetica,sans-Serif" font-size="10.00">application::command</text>
<text text-anchor="middle" x="276" y="-55" font-family="Helvetica,sans-Serif" font-size="10.00">::Command::foregroundHandler</text>
</a>
</g>
</g>
<!-- Node5&#45;&gt;Node6 -->
<g id="edge5_Node000005_Node000006" class="edge">
<title>Node5&#45;&gt;Node6</title>
<g id="a_edge5_Node000005_Node000006"><a xlink:title=" ">
<path fill="none" stroke="#63b8ff" d="M386.53,-48.27C378.19,-49.39 369.6,-50.55 361.07,-51.7"/>
<polygon fill="#63b8ff" stroke="#63b8ff" points="387.11,-51.73 396.56,-46.93 386.18,-44.79 387.11,-51.73"/>
</a>
</g>
</g>
<!-- Node8 -->
<g id="Node000008" class="node">
<title>Node8</title>
<g id="a_Node000008"><a xlink:href="../../d8/dae/classutility_1_1argument_1_1Argument.html#a18874871cb47e688d783343e26c1a3ff" target="_top" xlink:title="Parse all input arguments.">
<polygon fill="white" stroke="#666666" points="335.5,-30 216.5,-30 216.5,0 335.5,0 335.5,-30"/>
<text text-anchor="start" x="224.5" y="-18" font-family="Helvetica,sans-Serif" font-size="10.00">utility::argument::</text>
<text text-anchor="middle" x="276" y="-7" font-family="Helvetica,sans-Serif" font-size="10.00">Argument::parseArgs</text>
</a>
</g>
</g>
<!-- Node5&#45;&gt;Node8 -->
<g id="edge7_Node000005_Node000008" class="edge">
<title>Node5&#45;&gt;Node8</title>
<g id="a_edge7_Node000005_Node000008"><a xlink:title=" ">
<path fill="none" stroke="#63b8ff" d="M386.28,-29.69C369.53,-27.44 351.78,-25.05 335.58,-22.88"/>
<polygon fill="#63b8ff" stroke="#63b8ff" points="386.18,-33.21 396.56,-31.07 387.11,-26.27 386.18,-33.21"/>
</a>
</g>
</g>
<!-- Node7 -->
<g id="Node000007" class="node">
<title>Node7</title>
<g id="a_Node000007"><a xlink:href="../../de/dd7/classapplication_1_1command_1_1Command.html#a5d2584a4ee3f7e91ec82649f91b3b810" target="_top" xlink:title="Interface for running commander.">
<polygon fill="white" stroke="#666666" points="155,-78 0,-78 0,-48 155,-48 155,-78"/>
<text text-anchor="start" x="8" y="-66" font-family="Helvetica,sans-Serif" font-size="10.00">application::command</text>
<text text-anchor="middle" x="77.5" y="-55" font-family="Helvetica,sans-Serif" font-size="10.00">::Command::runCommander</text>
</a>
</g>
</g>
<!-- Node6&#45;&gt;Node7 -->
<g id="edge6_Node000006_Node000007" class="edge">
<title>Node6&#45;&gt;Node7</title>
<g id="a_edge6_Node000006_Node000007"><a xlink:title=" ">
<path fill="none" stroke="#63b8ff" d="M180.74,-63C172.13,-63 163.48,-63 155.06,-63"/>
<polygon fill="#63b8ff" stroke="#63b8ff" points="180.81,-66.5 190.81,-63 180.81,-59.5 180.81,-66.5"/>
</a>
</g>
</g>
</g>
</svg>
