<?xml version="1.0" encoding="UTF-8" standalone="no"?>
<!DOCTYPE svg PUBLIC "-//W3C//DTD SVG 1.1//EN"
 "http://www.w3.org/Graphics/SVG/1.1/DTD/svg11.dtd">
<!-- Generated by graphviz version 2.43.0 (0)
 -->
<!-- Title: utility::argument::Argument::isSubCommandUsed Pages: 1 -->
<svg width="795pt" height="86pt"
 viewBox="0.00 0.00 795.00 86.00" xmlns="http://www.w3.org/2000/svg" xmlns:xlink="http://www.w3.org/1999/xlink">
<g id="graph0" class="graph" transform="scale(1 1) rotate(0) translate(4 82)">
<title>utility::argument::Argument::isSubCommandUsed</title>
<!-- Node1 -->
<g id="Node000001" class="node">
<title>Node1</title>
<g id="a_Node000001"><a xlink:title="Check if the sub&#45;command is used.">
<polygon fill="#999999" stroke="#666666" points="787,-54 615,-54 615,-24 787,-24 787,-54"/>
<text text-anchor="start" x="623" y="-42" font-family="Helvetica,sans-Serif" font-size="10.00">utility::argument::</text>
<text text-anchor="middle" x="701" y="-31" font-family="Helvetica,sans-Serif" font-size="10.00">Argument::isSubCommandUsed</text>
</a>
</g>
</g>
<!-- Node2 -->
<g id="Node000002" class="node">
<title>Node2</title>
<g id="a_Node000002"><a xlink:href="../../de/dd7/classapplication_1_1command_1_1Command.html#ac485cf00df307e7ad483750876583131" target="_top" xlink:title="Dispatch specific tasks.">
<polygon fill="white" stroke="#666666" points="561,-78 419,-78 419,-48 561,-48 561,-78"/>
<text text-anchor="start" x="427" y="-66" font-family="Helvetica,sans-Serif" font-size="10.00">application::command</text>
<text text-anchor="middle" x="490" y="-55" font-family="Helvetica,sans-Serif" font-size="10.00">::Command::dispatchTask</text>
</a>
</g>
</g>
<!-- Node1&#45;&gt;Node2 -->
<g id="edge1_Node000001_Node000002" class="edge">
<title>Node1&#45;&gt;Node2</title>
<g id="a_edge1_Node000001_Node000002"><a xlink:title=" ">
<path fill="none" stroke="#63b8ff" d="M604.88,-49.92C590.19,-51.61 575.26,-53.32 561.25,-54.93"/>
<polygon fill="#63b8ff" stroke="#63b8ff" points="605.46,-53.38 614.99,-48.76 604.66,-46.43 605.46,-53.38"/>
</a>
</g>
</g>
<!-- Node5 -->
<g id="Node000005" class="node">
<title>Node5</title>
<g id="a_Node000005"><a xlink:href="../../de/dd7/classapplication_1_1command_1_1Command.html#a9196a46a45944a27fd1cb2ab75544f9f" target="_top" xlink:title="Pre&#45;check the regular task.">
<polygon fill="white" stroke="#666666" points="579,-30 401,-30 401,0 579,0 579,-30"/>
<text text-anchor="start" x="409" y="-18" font-family="Helvetica,sans-Serif" font-size="10.00">application::command</text>
<text text-anchor="middle" x="490" y="-7" font-family="Helvetica,sans-Serif" font-size="10.00">::Command::validateRegularTask</text>
</a>
</g>
</g>
<!-- Node1&#45;&gt;Node5 -->
<g id="edge4_Node000001_Node000005" class="edge">
<title>Node1&#45;&gt;Node5</title>
<g id="a_edge4_Node000001_Node000005"><a xlink:title=" ">
<path fill="none" stroke="#63b8ff" d="M605.01,-28.09C596.46,-27.11 587.82,-26.12 579.33,-25.14"/>
<polygon fill="#63b8ff" stroke="#63b8ff" points="604.66,-31.57 614.99,-29.24 605.46,-24.62 604.66,-31.57"/>
</a>
</g>
</g>
<!-- Node3 -->
<g id="Node000003" class="node">
<title>Node3</title>
<g id="a_Node000003"><a xlink:href="../../de/dd7/classapplication_1_1command_1_1Command.html#a19fb2a7d1e940b120bcfc134880d1468" target="_top" xlink:title="Background handler for performing the specific task.">
<polygon fill="white" stroke="#666666" points="365,-78 191,-78 191,-48 365,-48 365,-78"/>
<text text-anchor="start" x="199" y="-66" font-family="Helvetica,sans-Serif" font-size="10.00">application::command</text>
<text text-anchor="middle" x="278" y="-55" font-family="Helvetica,sans-Serif" font-size="10.00">::Command::backgroundHandler</text>
</a>
</g>
</g>
<!-- Node2&#45;&gt;Node3 -->
<g id="edge2_Node000002_Node000003" class="edge">
<title>Node2&#45;&gt;Node3</title>
<g id="a_edge2_Node000002_Node000003"><a xlink:title=" ">
<path fill="none" stroke="#63b8ff" d="M408.58,-63C394.39,-63 379.56,-63 365.22,-63"/>
<polygon fill="#63b8ff" stroke="#63b8ff" points="408.78,-66.5 418.78,-63 408.78,-59.5 408.78,-66.5"/>
</a>
</g>
</g>
<!-- Node4 -->
<g id="Node000004" class="node">
<title>Node4</title>
<g id="a_Node000004"><a xlink:href="../../de/dd7/classapplication_1_1command_1_1Command.html#a5d2584a4ee3f7e91ec82649f91b3b810" target="_top" xlink:title="Interface for running commander.">
<polygon fill="white" stroke="#666666" points="155,-54 0,-54 0,-24 155,-24 155,-54"/>
<text text-anchor="start" x="8" y="-42" font-family="Helvetica,sans-Serif" font-size="10.00">application::command</text>
<text text-anchor="middle" x="77.5" y="-31" font-family="Helvetica,sans-Serif" font-size="10.00">::Command::runCommander</text>
</a>
</g>
</g>
<!-- Node3&#45;&gt;Node4 -->
<g id="edge3_Node000003_Node000004" class="edge">
<title>Node3&#45;&gt;Node4</title>
<g id="a_edge3_Node000003_Node000004"><a xlink:title=" ">
<path fill="none" stroke="#63b8ff" d="M180.78,-51.37C172.22,-50.33 163.63,-49.29 155.26,-48.28"/>
<polygon fill="#63b8ff" stroke="#63b8ff" points="180.45,-54.85 190.8,-52.58 181.29,-47.9 180.45,-54.85"/>
</a>
</g>
</g>
<!-- Node6 -->
<g id="Node000006" class="node">
<title>Node6</title>
<g id="a_Node000006"><a xlink:href="../../de/dd7/classapplication_1_1command_1_1Command.html#ad693981498a2ff88208efd2f97d46e25" target="_top" xlink:title="Foreground handler for parsing command line arguments.">
<polygon fill="white" stroke="#666666" points="363,-30 193,-30 193,0 363,0 363,-30"/>
<text text-anchor="start" x="201" y="-18" font-family="Helvetica,sans-Serif" font-size="10.00">application::command</text>
<text text-anchor="middle" x="278" y="-7" font-family="Helvetica,sans-Serif" font-size="10.00">::Command::foregroundHandler</text>
</a>
</g>
</g>
<!-- Node5&#45;&gt;Node6 -->
<g id="edge5_Node000005_Node000006" class="edge">
<title>Node5&#45;&gt;Node6</title>
<g id="a_edge5_Node000005_Node000006"><a xlink:title=" ">
<path fill="none" stroke="#63b8ff" d="M390.58,-15C381.43,-15 372.22,-15 363.23,-15"/>
<polygon fill="#63b8ff" stroke="#63b8ff" points="390.85,-18.5 400.85,-15 390.85,-11.5 390.85,-18.5"/>
</a>
</g>
</g>
<!-- Node6&#45;&gt;Node4 -->
<g id="edge6_Node000006_Node000004" class="edge">
<title>Node6&#45;&gt;Node4</title>
<g id="a_edge6_Node000006_Node000004"><a xlink:title=" ">
<path fill="none" stroke="#63b8ff" d="M182.83,-26.39C173.59,-27.5 164.29,-28.63 155.25,-29.72"/>
<polygon fill="#63b8ff" stroke="#63b8ff" points="183.31,-29.85 192.82,-25.18 182.47,-22.9 183.31,-29.85"/>
</a>
</g>
</g>
</g>
</svg>
