<?xml version="1.0" encoding="UTF-8" standalone="no"?>
<!DOCTYPE svg PUBLIC "-//W3C//DTD SVG 1.1//EN"
 "http://www.w3.org/Graphics/SVG/1.1/DTD/svg11.dtd">
<!-- Generated by graphviz version 2.43.0 (0)
 -->
<!-- Title: test::tst_algo::SortTestBase Pages: 1 -->
<svg width="887pt" height="169pt"
 viewBox="0.00 0.00 887.00 168.50" xmlns="http://www.w3.org/2000/svg" xmlns:xlink="http://www.w3.org/1999/xlink">
<g id="graph0" class="graph" transform="scale(1 1) rotate(0) translate(4 164.5)">
<title>test::tst_algo::SortTestBase</title>
<!-- Node1 -->
<g id="Node000001" class="node">
<title>Node1</title>
<g id="a_Node000001"><a xlink:title="Test base of sort.">
<polygon fill="#999999" stroke="#666666" points="879,-112.5 730,-112.5 730,-93.5 879,-93.5 879,-112.5"/>
<text text-anchor="middle" x="804.5" y="-100.5" font-family="Helvetica,sans-Serif" font-size="10.00">test::tst_algo::SortTestBase</text>
</a>
</g>
</g>
<!-- Node2 -->
<g id="Node000002" class="node">
<title>Node2</title>
<g id="a_Node000002"><a xlink:title=" ">
<polygon fill="white" stroke="#666666" points="609,-160.5 533,-160.5 533,-141.5 609,-141.5 609,-160.5"/>
<text text-anchor="middle" x="571" y="-148.5" font-family="Helvetica,sans-Serif" font-size="10.00">testing::Test</text>
</a>
</g>
</g>
<!-- Node2&#45;&gt;Node1 -->
<g id="edge1_Node000001_Node000002" class="edge">
<title>Node2&#45;&gt;Node1</title>
<g id="a_edge1_Node000001_Node000002"><a xlink:title=" ">
<path fill="none" stroke="#63b8ff" d="M619.08,-141.24C659.54,-132.85 717.53,-120.83 757.63,-112.51"/>
<polygon fill="#63b8ff" stroke="#63b8ff" points="618.28,-137.83 609.19,-143.29 619.7,-144.68 618.28,-137.83"/>
</a>
</g>
</g>
<!-- Node3 -->
<g id="Node000003" class="node">
<title>Node3</title>
<g id="a_Node000003"><a target="_parent" xlink:href="https://gcc.gnu.org/onlinedocs/gcc-12.3.0/libstdc++/api/a07571.html" xlink:title=" ">
<polygon fill="white" stroke="#666666" points="652,-123.5 490,-123.5 490,-82.5 652,-82.5 652,-123.5"/>
<text text-anchor="start" x="498" y="-111.5" font-family="Helvetica,sans-Serif" font-size="10.00">std::shared_ptr&lt; application</text>
<text text-anchor="start" x="498" y="-100.5" font-family="Helvetica,sans-Serif" font-size="10.00">::app_algo::sort::TargetBuilder</text>
<text text-anchor="middle" x="571" y="-89.5" font-family="Helvetica,sans-Serif" font-size="10.00">&lt; int &gt; &gt;</text>
</a>
</g>
</g>
<!-- Node3&#45;&gt;Node1 -->
<g id="edge2_Node000001_Node000003" class="edge">
<title>Node3&#45;&gt;Node1</title>
<g id="a_edge2_Node000001_Node000003"><a xlink:title=" ">
<path fill="none" stroke="#9a32cd" stroke-dasharray="5,2" d="M662.48,-103C684.82,-103 708.49,-103 729.92,-103"/>
<polygon fill="#9a32cd" stroke="#9a32cd" points="662.32,-99.5 652.32,-103 662.32,-106.5 662.32,-99.5"/>
</a>
</g>
<text text-anchor="middle" x="691" y="-106" font-family="Helvetica,sans-Serif" font-size="10.00" fill="grey"> builder</text>
</g>
<!-- Node4 -->
<g id="Node000004" class="node">
<title>Node4</title>
<g id="a_Node000004"><a target="_parent" xlink:href="https://gcc.gnu.org/onlinedocs/gcc-12.3.0/libstdc++/api/a07571.html" xlink:title=" ">
<polygon fill="white" stroke="#666666" points="332,-118 182,-118 182,-88 332,-88 332,-118"/>
<text text-anchor="start" x="190" y="-106" font-family="Helvetica,sans-Serif" font-size="10.00">std::shared_ptr&lt; typename</text>
<text text-anchor="middle" x="257" y="-95" font-family="Helvetica,sans-Serif" font-size="10.00"> _Tp &gt;</text>
</a>
</g>
</g>
<!-- Node4&#45;&gt;Node3 -->
<g id="edge3_Node000003_Node000004" class="edge">
<title>Node4&#45;&gt;Node3</title>
<g id="a_edge3_Node000003_Node000004"><a xlink:title=" ">
<path fill="none" stroke="orange" stroke-dasharray="5,2" d="M342.55,-103C388.42,-103 444.8,-103 489.95,-103"/>
<polygon fill="orange" stroke="orange" points="342.34,-99.5 332.34,-103 342.34,-106.5 342.34,-99.5"/>
</a>
</g>
<text text-anchor="start" x="350" y="-128" font-family="Helvetica,sans-Serif" font-size="10.00" fill="grey"> &lt; application::app</text>
<text text-anchor="start" x="350" y="-117" font-family="Helvetica,sans-Serif" font-size="10.00" fill="grey">_algo::sort::TargetBuilder</text>
<text text-anchor="middle" x="411" y="-106" font-family="Helvetica,sans-Serif" font-size="10.00" fill="grey">&lt; int &gt; &gt;</text>
</g>
<!-- Node5 -->
<g id="Node000005" class="node">
<title>Node5</title>
<g id="a_Node000005"><a target="_parent" xlink:href="https://gcc.gnu.org/onlinedocs/gcc-12.3.0/libstdc++/api/a08791.html" xlink:title=" ">
<polygon fill="white" stroke="#666666" points="623,-64.5 519,-64.5 519,-45.5 623,-45.5 623,-64.5"/>
<text text-anchor="middle" x="571" y="-52.5" font-family="Helvetica,sans-Serif" font-size="10.00">std::vector&lt; int &gt;</text>
</a>
</g>
</g>
<!-- Node5&#45;&gt;Node1 -->
<g id="edge4_Node000001_Node000005" class="edge">
<title>Node5&#45;&gt;Node1</title>
<g id="a_edge4_Node000001_Node000005"><a xlink:title=" ">
<path fill="none" stroke="#9a32cd" stroke-dasharray="5,2" d="M627.82,-66.57C667.54,-74.81 720.28,-85.74 757.57,-93.48"/>
<polygon fill="#9a32cd" stroke="#9a32cd" points="628.52,-63.14 618.01,-64.54 627.09,-70 628.52,-63.14"/>
</a>
</g>
<text text-anchor="middle" x="691" y="-86" font-family="Helvetica,sans-Serif" font-size="10.00" fill="grey"> expCntr</text>
</g>
<!-- Node6 -->
<g id="Node000006" class="node">
<title>Node6</title>
<g id="a_Node000006"><a target="_parent" xlink:href="https://gcc.gnu.org/onlinedocs/gcc-12.3.0/libstdc++/api/a08779.html" xlink:title=" ">
<polygon fill="white" stroke="#666666" points="145,-56.5 0,-56.5 0,-15.5 145,-15.5 145,-56.5"/>
<text text-anchor="start" x="8" y="-44.5" font-family="Helvetica,sans-Serif" font-size="10.00">std::_Vector_base&lt;</text>
<text text-anchor="start" x="8" y="-33.5" font-family="Helvetica,sans-Serif" font-size="10.00"> typename _Tp, typename</text>
<text text-anchor="middle" x="72.5" y="-22.5" font-family="Helvetica,sans-Serif" font-size="10.00"> _Alloc &gt;</text>
</a>
</g>
</g>
<!-- Node6&#45;&gt;Node5 -->
<g id="edge5_Node000005_Node000006" class="edge">
<title>Node6&#45;&gt;Node5</title>
<g id="a_edge5_Node000005_Node000006"><a xlink:title=" ">
<path fill="none" stroke="darkgreen" d="M155.23,-39.13C258.38,-43.08 432.73,-49.75 518.79,-53.04"/>
<polygon fill="darkgreen" stroke="darkgreen" points="155.29,-35.63 145.17,-38.74 155.02,-42.62 155.29,-35.63"/>
</a>
</g>
</g>
<!-- Node7 -->
<g id="Node000007" class="node">
<title>Node7</title>
<g id="a_Node000007"><a target="_parent" xlink:href="https://gcc.gnu.org/onlinedocs/gcc-12.3.0/libstdc++/api/a08791.html" xlink:title=" ">
<polygon fill="white" stroke="#666666" points="325,-30 189,-30 189,0 325,0 325,-30"/>
<text text-anchor="start" x="197" y="-18" font-family="Helvetica,sans-Serif" font-size="10.00">std::vector&lt; typename</text>
<text text-anchor="middle" x="257" y="-7" font-family="Helvetica,sans-Serif" font-size="10.00"> _Tp, typename _Alloc &gt;</text>
</a>
</g>
</g>
<!-- Node6&#45;&gt;Node7 -->
<g id="edge7_Node000007_Node000006" class="edge">
<title>Node6&#45;&gt;Node7</title>
<g id="a_edge7_Node000007_Node000006"><a xlink:title=" ">
<path fill="none" stroke="darkgreen" d="M155.31,-26.59C166.5,-25.3 177.88,-23.99 188.77,-22.74"/>
<polygon fill="darkgreen" stroke="darkgreen" points="154.64,-23.14 145.11,-27.76 155.44,-30.09 154.64,-23.14"/>
</a>
</g>
</g>
<!-- Node7&#45;&gt;Node5 -->
<g id="edge6_Node000005_Node000007" class="edge">
<title>Node7&#45;&gt;Node5</title>
<g id="a_edge6_Node000005_Node000007"><a xlink:title=" ">
<path fill="none" stroke="orange" stroke-dasharray="5,2" d="M335.41,-18.95C376.21,-21.67 426.99,-26.09 472,-33 492.34,-36.12 514.75,-41.04 533,-45.44"/>
<polygon fill="orange" stroke="orange" points="335.47,-15.44 325.27,-18.29 335.02,-22.43 335.47,-15.44"/>
</a>
</g>
<text text-anchor="middle" x="411" y="-36" font-family="Helvetica,sans-Serif" font-size="10.00" fill="grey"> &lt; int &gt;</text>
</g>
</g>
</svg>
