<?xml version="1.0" encoding="UTF-8" standalone="no"?>
<!DOCTYPE svg PUBLIC "-//W3C//DTD SVG 1.1//EN"
 "http://www.w3.org/Graphics/SVG/1.1/DTD/svg11.dtd">
<!-- Generated by graphviz version 2.43.0 (0)
 -->
<!-- Title: utility::json::consumeWhitespace Pages: 1 -->
<svg width="970pt" height="84pt"
 viewBox="0.00 0.00 970.00 84.00" xmlns="http://www.w3.org/2000/svg" xmlns:xlink="http://www.w3.org/1999/xlink">
<g id="graph0" class="graph" transform="scale(1 1) rotate(0) translate(4 80)">
<title>utility::json::consumeWhitespace</title>
<!-- Node1 -->
<g id="Node000001" class="node">
<title>Node1</title>
<g id="a_Node000001"><a xlink:title="Consume whitespace.">
<polygon fill="#999999" stroke="#666666" points="962,-38 784,-38 784,-19 962,-19 962,-38"/>
<text text-anchor="middle" x="873" y="-26" font-family="Helvetica,sans-Serif" font-size="10.00">utility::json::consumeWhitespace</text>
</a>
</g>
</g>
<!-- Node2 -->
<g id="Node000002" class="node">
<title>Node2</title>
<g id="a_Node000002"><a xlink:href="../../d8/d2f/namespaceutility_1_1json.html#aa5a8326809dd9ae31a9dde14567d26c9" target="_top" xlink:title="Parse array in JSON.">
<polygon fill="white" stroke="#666666" points="748,-76 618,-76 618,-57 748,-57 748,-76"/>
<text text-anchor="middle" x="683" y="-64" font-family="Helvetica,sans-Serif" font-size="10.00">utility::json::parseArray</text>
</a>
</g>
</g>
<!-- Node1&#45;&gt;Node2 -->
<g id="edge1_Node000001_Node000002" class="edge">
<title>Node1&#45;&gt;Node2</title>
<g id="a_edge1_Node000001_Node000002"><a xlink:title=" ">
<path fill="none" stroke="#63b8ff" d="M814.56,-40.11C787.83,-45.51 756.41,-51.86 731.1,-56.98"/>
<polygon fill="#63b8ff" stroke="#63b8ff" points="815.45,-43.5 824.56,-38.09 814.06,-36.64 815.45,-43.5"/>
</a>
</g>
</g>
<!-- Node3 -->
<g id="Node000003" class="node">
<title>Node3</title>
<g id="a_Node000003"><a xlink:href="../../d8/d2f/namespaceutility_1_1json.html#a76b06fdaa4b85a46e23c37ea1204bfd9" target="_top" xlink:title="Parse the next data in JSON.">
<polygon fill="white" stroke="#666666" points="582,-50 455,-50 455,-31 582,-31 582,-50"/>
<text text-anchor="middle" x="518.5" y="-38" font-family="Helvetica,sans-Serif" font-size="10.00">utility::json::parseNext</text>
</a>
</g>
</g>
<!-- Node1&#45;&gt;Node3 -->
<g id="edge9_Node000001_Node000003" class="edge">
<title>Node1&#45;&gt;Node3</title>
<g id="a_edge9_Node000001_Node000003"><a xlink:title=" ">
<path fill="none" stroke="#63b8ff" d="M773.86,-31.84C712.48,-33.93 635.25,-36.56 582.08,-38.37"/>
<polygon fill="#63b8ff" stroke="#63b8ff" points="774.08,-35.34 783.96,-31.5 773.85,-28.34 774.08,-35.34"/>
</a>
</g>
</g>
<!-- Node7 -->
<g id="Node000007" class="node">
<title>Node7</title>
<g id="a_Node000007"><a xlink:href="../../d8/d2f/namespaceutility_1_1json.html#a6d02447d4949362553a97f0cb0bd5711" target="_top" xlink:title="Parse object in JSON.">
<polygon fill="white" stroke="#666666" points="419,-19 284,-19 284,0 419,0 419,-19"/>
<text text-anchor="middle" x="351.5" y="-7" font-family="Helvetica,sans-Serif" font-size="10.00">utility::json::parseObject</text>
</a>
</g>
</g>
<!-- Node1&#45;&gt;Node7 -->
<g id="edge10_Node000001_Node000007" class="edge">
<title>Node1&#45;&gt;Node7</title>
<g id="a_edge10_Node000001_Node000007"><a xlink:title=" ">
<path fill="none" stroke="#63b8ff" d="M773.7,-24.9C669.88,-21.11 509.06,-15.23 419.14,-11.94"/>
<polygon fill="#63b8ff" stroke="#63b8ff" points="773.75,-28.41 783.87,-25.28 774.01,-21.41 773.75,-28.41"/>
</a>
</g>
</g>
<!-- Node2&#45;&gt;Node3 -->
<g id="edge2_Node000002_Node000003" class="edge">
<title>Node2&#45;&gt;Node3</title>
<g id="a_edge2_Node000002_Node000003"><a xlink:title=" ">
<path fill="none" stroke="#63b8ff" d="M644.99,-54.81C626.45,-50.93 603.47,-46.98 582.27,-43.95"/>
<polygon fill="#63b8ff" stroke="#63b8ff" points="644.28,-58.24 654.8,-56.96 645.78,-51.4 644.28,-58.24"/>
</a>
</g>
</g>
<!-- Node3&#45;&gt;Node2 -->
<g id="edge6_Node000003_Node000002" class="edge">
<title>Node3&#45;&gt;Node2</title>
<g id="a_edge6_Node000003_Node000002"><a xlink:title=" ">
<path fill="none" stroke="#63b8ff" d="M556.72,-52.23C574.8,-56.01 597.06,-59.86 617.78,-62.84"/>
<polygon fill="#63b8ff" stroke="#63b8ff" points="557.38,-48.8 546.86,-50.08 555.89,-55.63 557.38,-48.8"/>
</a>
</g>
</g>
<!-- Node4 -->
<g id="Node000004" class="node">
<title>Node4</title>
<g id="a_Node000004"><a xlink:href="../../d5/d0b/classutility_1_1json_1_1JSON.html#aa0dd0aa8870335a98c28b580ed26a329" target="_top" xlink:title="Load JSON object from string.">
<polygon fill="white" stroke="#666666" points="402,-67.5 301,-67.5 301,-37.5 402,-37.5 402,-67.5"/>
<text text-anchor="start" x="309" y="-55.5" font-family="Helvetica,sans-Serif" font-size="10.00">utility::json::JSON</text>
<text text-anchor="middle" x="351.5" y="-44.5" font-family="Helvetica,sans-Serif" font-size="10.00">::load</text>
</a>
</g>
</g>
<!-- Node3&#45;&gt;Node4 -->
<g id="edge3_Node000003_Node000004" class="edge">
<title>Node3&#45;&gt;Node4</title>
<g id="a_edge3_Node000003_Node000004"><a xlink:title=" ">
<path fill="none" stroke="#63b8ff" d="M444.34,-45.82C430.06,-46.86 415.4,-47.93 402.1,-48.89"/>
<polygon fill="#63b8ff" stroke="#63b8ff" points="444.93,-49.29 454.65,-45.07 444.42,-42.31 444.93,-49.29"/>
</a>
</g>
</g>
<!-- Node3&#45;&gt;Node7 -->
<g id="edge7_Node000003_Node000007" class="edge">
<title>Node3&#45;&gt;Node7</title>
<g id="a_edge7_Node000003_Node000007"><a xlink:title=" ">
<path fill="none" stroke="#63b8ff" d="M483.39,-28.5C464.79,-23.99 441.12,-19.2 419.04,-15.36"/>
<polygon fill="#63b8ff" stroke="#63b8ff" points="482.6,-31.91 493.15,-30.97 484.32,-25.13 482.6,-31.91"/>
</a>
</g>
</g>
<!-- Node5 -->
<g id="Node000005" class="node">
<title>Node5</title>
<g id="a_Node000005"><a xlink:href="../../d0/d11/classapplication_1_1config_1_1Config.html#a8b8adf0f9a6ebcd90271dafafdcd2f62" target="_top" xlink:title="Parse the configuration file.">
<polygon fill="white" stroke="#666666" points="248,-67.5 142,-67.5 142,-37.5 248,-37.5 248,-67.5"/>
<text text-anchor="start" x="150" y="-55.5" font-family="Helvetica,sans-Serif" font-size="10.00">application::config</text>
<text text-anchor="middle" x="195" y="-44.5" font-family="Helvetica,sans-Serif" font-size="10.00">::Config::parseFile</text>
</a>
</g>
</g>
<!-- Node4&#45;&gt;Node5 -->
<g id="edge4_Node000004_Node000005" class="edge">
<title>Node4&#45;&gt;Node5</title>
<g id="a_edge4_Node000004_Node000005"><a xlink:title=" ">
<path fill="none" stroke="#63b8ff" d="M290.69,-52.5C276.62,-52.5 261.73,-52.5 248.04,-52.5"/>
<polygon fill="#63b8ff" stroke="#63b8ff" points="290.76,-56 300.76,-52.5 290.76,-49 290.76,-56"/>
</a>
</g>
</g>
<!-- Node6 -->
<g id="Node000006" class="node">
<title>Node6</title>
<g id="a_Node000006"><a xlink:href="../../d0/d11/classapplication_1_1config_1_1Config.html#ab3c2ccfa11cb8fd4df7a5442b5e20227" target="_top" xlink:title="Construct a new Config object.">
<polygon fill="white" stroke="#666666" points="106,-67.5 0,-67.5 0,-37.5 106,-37.5 106,-67.5"/>
<text text-anchor="start" x="8" y="-55.5" font-family="Helvetica,sans-Serif" font-size="10.00">application::config</text>
<text text-anchor="middle" x="53" y="-44.5" font-family="Helvetica,sans-Serif" font-size="10.00">::Config::Config</text>
</a>
</g>
</g>
<!-- Node5&#45;&gt;Node6 -->
<g id="edge5_Node000005_Node000006" class="edge">
<title>Node5&#45;&gt;Node6</title>
<g id="a_edge5_Node000005_Node000006"><a xlink:title=" ">
<path fill="none" stroke="#63b8ff" d="M131.61,-52.5C123.12,-52.5 114.47,-52.5 106.17,-52.5"/>
<polygon fill="#63b8ff" stroke="#63b8ff" points="131.87,-56 141.87,-52.5 131.87,-49 131.87,-56"/>
</a>
</g>
</g>
<!-- Node7&#45;&gt;Node3 -->
<g id="edge8_Node000007_Node000003" class="edge">
<title>Node7&#45;&gt;Node3</title>
<g id="a_edge8_Node000007_Node000003"><a xlink:title=" ">
<path fill="none" stroke="#63b8ff" d="M386.61,-21.5C406.24,-26.26 431.54,-31.34 454.65,-35.27"/>
<polygon fill="#63b8ff" stroke="#63b8ff" points="387.45,-18.1 376.89,-19.04 385.73,-24.89 387.45,-18.1"/>
</a>
</g>
</g>
</g>
</svg>
