<?xml version="1.0" encoding="UTF-8" standalone="no"?>
<!DOCTYPE svg PUBLIC "-//W3C//DTD SVG 1.1//EN"
 "http://www.w3.org/Graphics/SVG/1.1/DTD/svg11.dtd">
<!-- Generated by graphviz version 2.43.0 (0)
 -->
<!-- Title: utility::json::array Pages: 1 -->
<svg width="894pt" height="76pt"
 viewBox="0.00 0.00 894.00 75.50" xmlns="http://www.w3.org/2000/svg" xmlns:xlink="http://www.w3.org/1999/xlink">
<g id="graph0" class="graph" transform="scale(1 1) rotate(0) translate(4 71.5)">
<title>utility::json::array</title>
<!-- Node1 -->
<g id="Node000001" class="node">
<title>Node1</title>
<g id="a_Node000001"><a xlink:title="Make an JSON array.">
<polygon fill="#999999" stroke="#666666" points="886,-19 784,-19 784,0 886,0 886,-19"/>
<text text-anchor="middle" x="835" y="-7" font-family="Helvetica,sans-Serif" font-size="10.00">utility::json::array</text>
</a>
</g>
</g>
<!-- Node2 -->
<g id="Node000002" class="node">
<title>Node2</title>
<g id="a_Node000002"><a xlink:href="../../d8/d2f/namespaceutility_1_1json.html#aa5a8326809dd9ae31a9dde14567d26c9" target="_top" xlink:title="Parse array in JSON.">
<polygon fill="white" stroke="#666666" points="748,-19 618,-19 618,0 748,0 748,-19"/>
<text text-anchor="middle" x="683" y="-7" font-family="Helvetica,sans-Serif" font-size="10.00">utility::json::parseArray</text>
</a>
</g>
</g>
<!-- Node1&#45;&gt;Node2 -->
<g id="edge1_Node000001_Node000002" class="edge">
<title>Node1&#45;&gt;Node2</title>
<g id="a_edge1_Node000001_Node000002"><a xlink:title=" ">
<path fill="none" stroke="#63b8ff" d="M773.56,-9.5C765.17,-9.5 756.53,-9.5 748.08,-9.5"/>
<polygon fill="#63b8ff" stroke="#63b8ff" points="773.63,-13 783.63,-9.5 773.63,-6 773.63,-13"/>
</a>
</g>
</g>
<!-- Node3 -->
<g id="Node000003" class="node">
<title>Node3</title>
<g id="a_Node000003"><a xlink:href="../../d8/d2f/namespaceutility_1_1json.html#a76b06fdaa4b85a46e23c37ea1204bfd9" target="_top" xlink:title="Parse the next data in JSON.">
<polygon fill="white" stroke="#666666" points="582,-19 455,-19 455,0 582,0 582,-19"/>
<text text-anchor="middle" x="518.5" y="-7" font-family="Helvetica,sans-Serif" font-size="10.00">utility::json::parseNext</text>
</a>
</g>
</g>
<!-- Node2&#45;&gt;Node3 -->
<g id="edge2_Node000002_Node000003" class="edge">
<title>Node2&#45;&gt;Node3</title>
<g id="a_edge2_Node000002_Node000003"><a xlink:title=" ">
<path fill="none" stroke="#63b8ff" d="M607.52,-2.77C599.05,-2.72 590.49,-2.76 582.2,-2.91"/>
<polygon fill="#63b8ff" stroke="#63b8ff" points="607.74,-6.27 617.78,-2.88 607.81,0.73 607.74,-6.27"/>
</a>
</g>
</g>
<!-- Node3&#45;&gt;Node2 -->
<g id="edge6_Node000003_Node000002" class="edge">
<title>Node3&#45;&gt;Node2</title>
<g id="a_edge6_Node000003_Node000002"><a xlink:title=" ">
<path fill="none" stroke="#63b8ff" d="M592.42,-16.22C600.88,-16.28 609.45,-16.25 617.78,-16.12"/>
<polygon fill="#63b8ff" stroke="#63b8ff" points="592.24,-12.72 582.2,-16.09 592.15,-19.72 592.24,-12.72"/>
</a>
</g>
</g>
<!-- Node4 -->
<g id="Node000004" class="node">
<title>Node4</title>
<g id="a_Node000004"><a xlink:href="../../d5/d0b/classutility_1_1json_1_1JSON.html#aa0dd0aa8870335a98c28b580ed26a329" target="_top" xlink:title="Load JSON object from string.">
<polygon fill="white" stroke="#666666" points="402,-67.5 301,-67.5 301,-37.5 402,-37.5 402,-67.5"/>
<text text-anchor="start" x="309" y="-55.5" font-family="Helvetica,sans-Serif" font-size="10.00">utility::json::JSON</text>
<text text-anchor="middle" x="351.5" y="-44.5" font-family="Helvetica,sans-Serif" font-size="10.00">::load</text>
</a>
</g>
</g>
<!-- Node3&#45;&gt;Node4 -->
<g id="edge3_Node000003_Node000004" class="edge">
<title>Node3&#45;&gt;Node4</title>
<g id="a_edge3_Node000003_Node000004"><a xlink:title=" ">
<path fill="none" stroke="#63b8ff" d="M471.01,-21.61C449.54,-27.21 424.01,-33.86 402.16,-39.56"/>
<polygon fill="#63b8ff" stroke="#63b8ff" points="472.09,-24.95 480.88,-19.04 470.32,-18.18 472.09,-24.95"/>
</a>
</g>
</g>
<!-- Node7 -->
<g id="Node000007" class="node">
<title>Node7</title>
<g id="a_Node000007"><a xlink:href="../../d8/d2f/namespaceutility_1_1json.html#a6d02447d4949362553a97f0cb0bd5711" target="_top" xlink:title="Parse object in JSON.">
<polygon fill="white" stroke="#666666" points="419,-19 284,-19 284,0 419,0 419,-19"/>
<text text-anchor="middle" x="351.5" y="-7" font-family="Helvetica,sans-Serif" font-size="10.00">utility::json::parseObject</text>
</a>
</g>
</g>
<!-- Node3&#45;&gt;Node7 -->
<g id="edge7_Node000003_Node000007" class="edge">
<title>Node3&#45;&gt;Node7</title>
<g id="a_edge7_Node000003_Node000007"><a xlink:title=" ">
<path fill="none" stroke="#63b8ff" d="M444.43,-2.79C435.97,-2.72 427.38,-2.74 419.02,-2.86"/>
<polygon fill="#63b8ff" stroke="#63b8ff" points="444.6,-6.29 454.65,-2.92 444.7,0.71 444.6,-6.29"/>
</a>
</g>
</g>
<!-- Node5 -->
<g id="Node000005" class="node">
<title>Node5</title>
<g id="a_Node000005"><a xlink:href="../../d0/d11/classapplication_1_1config_1_1Config.html#a8b8adf0f9a6ebcd90271dafafdcd2f62" target="_top" xlink:title="Parse the configuration file.">
<polygon fill="white" stroke="#666666" points="248,-67.5 142,-67.5 142,-37.5 248,-37.5 248,-67.5"/>
<text text-anchor="start" x="150" y="-55.5" font-family="Helvetica,sans-Serif" font-size="10.00">application::config</text>
<text text-anchor="middle" x="195" y="-44.5" font-family="Helvetica,sans-Serif" font-size="10.00">::Config::parseFile</text>
</a>
</g>
</g>
<!-- Node4&#45;&gt;Node5 -->
<g id="edge4_Node000004_Node000005" class="edge">
<title>Node4&#45;&gt;Node5</title>
<g id="a_edge4_Node000004_Node000005"><a xlink:title=" ">
<path fill="none" stroke="#63b8ff" d="M290.69,-52.5C276.62,-52.5 261.73,-52.5 248.04,-52.5"/>
<polygon fill="#63b8ff" stroke="#63b8ff" points="290.76,-56 300.76,-52.5 290.76,-49 290.76,-56"/>
</a>
</g>
</g>
<!-- Node6 -->
<g id="Node000006" class="node">
<title>Node6</title>
<g id="a_Node000006"><a xlink:href="../../d0/d11/classapplication_1_1config_1_1Config.html#ab3c2ccfa11cb8fd4df7a5442b5e20227" target="_top" xlink:title="Construct a new Config object.">
<polygon fill="white" stroke="#666666" points="106,-67.5 0,-67.5 0,-37.5 106,-37.5 106,-67.5"/>
<text text-anchor="start" x="8" y="-55.5" font-family="Helvetica,sans-Serif" font-size="10.00">application::config</text>
<text text-anchor="middle" x="53" y="-44.5" font-family="Helvetica,sans-Serif" font-size="10.00">::Config::Config</text>
</a>
</g>
</g>
<!-- Node5&#45;&gt;Node6 -->
<g id="edge5_Node000005_Node000006" class="edge">
<title>Node5&#45;&gt;Node6</title>
<g id="a_edge5_Node000005_Node000006"><a xlink:title=" ">
<path fill="none" stroke="#63b8ff" d="M131.61,-52.5C123.12,-52.5 114.47,-52.5 106.17,-52.5"/>
<polygon fill="#63b8ff" stroke="#63b8ff" points="131.87,-56 141.87,-52.5 131.87,-49 131.87,-56"/>
</a>
</g>
</g>
<!-- Node7&#45;&gt;Node3 -->
<g id="edge8_Node000007_Node000003" class="edge">
<title>Node7&#45;&gt;Node3</title>
<g id="a_edge8_Node000007_Node000003"><a xlink:title=" ">
<path fill="none" stroke="#63b8ff" d="M429.03,-16.23C437.61,-16.28 446.27,-16.23 454.65,-16.08"/>
<polygon fill="#63b8ff" stroke="#63b8ff" points="429.05,-12.73 419.02,-16.14 428.98,-19.73 429.05,-12.73"/>
</a>
</g>
</g>
</g>
</svg>
