<?xml version="1.0" encoding="UTF-8" standalone="no"?>
<!DOCTYPE svg PUBLIC "-//W3C//DTD SVG 1.1//EN"
 "http://www.w3.org/Graphics/SVG/1.1/DTD/svg11.dtd">
<!-- Generated by graphviz version 2.43.0 (0)
 -->
<!-- Title: utility::json::object Pages: 1 -->
<svg width="899pt" height="76pt"
 viewBox="0.00 0.00 899.00 75.50" xmlns="http://www.w3.org/2000/svg" xmlns:xlink="http://www.w3.org/1999/xlink">
<g id="graph0" class="graph" transform="scale(1 1) rotate(0) translate(4 71.5)">
<title>utility::json::object</title>
<!-- Node1 -->
<g id="Node000001" class="node">
<title>Node1</title>
<g id="a_Node000001"><a xlink:title="Make an JSON object.">
<polygon fill="#999999" stroke="#666666" points="891,-19 784,-19 784,0 891,0 891,-19"/>
<text text-anchor="middle" x="837.5" y="-7" font-family="Helvetica,sans-Serif" font-size="10.00">utility::json::object</text>
</a>
</g>
</g>
<!-- Node2 -->
<g id="Node000002" class="node">
<title>Node2</title>
<g id="a_Node000002"><a xlink:href="../../d8/d2f/namespaceutility_1_1json.html#a6d02447d4949362553a97f0cb0bd5711" target="_top" xlink:title="Parse object in JSON.">
<polygon fill="white" stroke="#666666" points="748,-19 613,-19 613,0 748,0 748,-19"/>
<text text-anchor="middle" x="680.5" y="-7" font-family="Helvetica,sans-Serif" font-size="10.00">utility::json::parseObject</text>
</a>
</g>
</g>
<!-- Node1&#45;&gt;Node2 -->
<g id="edge1_Node000001_Node000002" class="edge">
<title>Node1&#45;&gt;Node2</title>
<g id="a_edge1_Node000001_Node000002"><a xlink:title=" ">
<path fill="none" stroke="#63b8ff" d="M773.53,-9.5C765.17,-9.5 756.57,-9.5 748.15,-9.5"/>
<polygon fill="#63b8ff" stroke="#63b8ff" points="773.59,-13 783.59,-9.5 773.59,-6 773.59,-13"/>
</a>
</g>
</g>
<!-- Node3 -->
<g id="Node000003" class="node">
<title>Node3</title>
<g id="a_Node000003"><a xlink:href="../../d8/d2f/namespaceutility_1_1json.html#a76b06fdaa4b85a46e23c37ea1204bfd9" target="_top" xlink:title="Parse the next data in JSON.">
<polygon fill="white" stroke="#666666" points="577,-19 450,-19 450,0 577,0 577,-19"/>
<text text-anchor="middle" x="513.5" y="-7" font-family="Helvetica,sans-Serif" font-size="10.00">utility::json::parseNext</text>
</a>
</g>
</g>
<!-- Node2&#45;&gt;Node3 -->
<g id="edge2_Node000002_Node000003" class="edge">
<title>Node2&#45;&gt;Node3</title>
<g id="a_edge2_Node000002_Node000003"><a xlink:title=" ">
<path fill="none" stroke="#63b8ff" d="M602.82,-2.76C594.21,-2.72 585.51,-2.77 577.11,-2.93"/>
<polygon fill="#63b8ff" stroke="#63b8ff" points="602.83,-6.27 612.86,-2.86 602.9,0.73 602.83,-6.27"/>
</a>
</g>
</g>
<!-- Node3&#45;&gt;Node2 -->
<g id="edge8_Node000003_Node000002" class="edge">
<title>Node3&#45;&gt;Node2</title>
<g id="a_edge8_Node000003_Node000002"><a xlink:title=" ">
<path fill="none" stroke="#63b8ff" d="M587.37,-16.21C595.85,-16.28 604.47,-16.26 612.86,-16.14"/>
<polygon fill="#63b8ff" stroke="#63b8ff" points="587.16,-12.71 577.11,-16.07 587.06,-19.71 587.16,-12.71"/>
</a>
</g>
</g>
<!-- Node4 -->
<g id="Node000004" class="node">
<title>Node4</title>
<g id="a_Node000004"><a xlink:href="../../d5/d0b/classutility_1_1json_1_1JSON.html#aa0dd0aa8870335a98c28b580ed26a329" target="_top" xlink:title="Load JSON object from string.">
<polygon fill="white" stroke="#666666" points="399.5,-67.5 298.5,-67.5 298.5,-37.5 399.5,-37.5 399.5,-67.5"/>
<text text-anchor="start" x="306.5" y="-55.5" font-family="Helvetica,sans-Serif" font-size="10.00">utility::json::JSON</text>
<text text-anchor="middle" x="349" y="-44.5" font-family="Helvetica,sans-Serif" font-size="10.00">::load</text>
</a>
</g>
</g>
<!-- Node3&#45;&gt;Node4 -->
<g id="edge3_Node000003_Node000004" class="edge">
<title>Node3&#45;&gt;Node4</title>
<g id="a_edge3_Node000003_Node000004"><a xlink:title=" ">
<path fill="none" stroke="#63b8ff" d="M466.52,-21.67C445.61,-27.2 420.84,-33.76 399.52,-39.4"/>
<polygon fill="#63b8ff" stroke="#63b8ff" points="467.66,-24.98 476.44,-19.04 465.87,-18.22 467.66,-24.98"/>
</a>
</g>
</g>
<!-- Node7 -->
<g id="Node000007" class="node">
<title>Node7</title>
<g id="a_Node000007"><a xlink:href="../../d8/d2f/namespaceutility_1_1json.html#aa5a8326809dd9ae31a9dde14567d26c9" target="_top" xlink:title="Parse array in JSON.">
<polygon fill="white" stroke="#666666" points="414,-19 284,-19 284,0 414,0 414,-19"/>
<text text-anchor="middle" x="349" y="-7" font-family="Helvetica,sans-Serif" font-size="10.00">utility::json::parseArray</text>
</a>
</g>
</g>
<!-- Node3&#45;&gt;Node7 -->
<g id="edge6_Node000003_Node000007" class="edge">
<title>Node3&#45;&gt;Node7</title>
<g id="a_edge6_Node000003_Node000007"><a xlink:title=" ">
<path fill="none" stroke="#63b8ff" d="M439.42,-2.78C430.94,-2.72 422.34,-2.75 414,-2.89"/>
<polygon fill="#63b8ff" stroke="#63b8ff" points="439.63,-6.28 449.67,-2.91 439.72,0.72 439.63,-6.28"/>
</a>
</g>
</g>
<!-- Node5 -->
<g id="Node000005" class="node">
<title>Node5</title>
<g id="a_Node000005"><a xlink:href="../../d0/d11/classapplication_1_1config_1_1Config.html#a8b8adf0f9a6ebcd90271dafafdcd2f62" target="_top" xlink:title="Parse the configuration file.">
<polygon fill="white" stroke="#666666" points="248,-67.5 142,-67.5 142,-37.5 248,-37.5 248,-67.5"/>
<text text-anchor="start" x="150" y="-55.5" font-family="Helvetica,sans-Serif" font-size="10.00">application::config</text>
<text text-anchor="middle" x="195" y="-44.5" font-family="Helvetica,sans-Serif" font-size="10.00">::Config::parseFile</text>
</a>
</g>
</g>
<!-- Node4&#45;&gt;Node5 -->
<g id="edge4_Node000004_Node000005" class="edge">
<title>Node4&#45;&gt;Node5</title>
<g id="a_edge4_Node000004_Node000005"><a xlink:title=" ">
<path fill="none" stroke="#63b8ff" d="M287.89,-52.5C274.78,-52.5 261.01,-52.5 248.23,-52.5"/>
<polygon fill="#63b8ff" stroke="#63b8ff" points="288.23,-56 298.23,-52.5 288.23,-49 288.23,-56"/>
</a>
</g>
</g>
<!-- Node6 -->
<g id="Node000006" class="node">
<title>Node6</title>
<g id="a_Node000006"><a xlink:href="../../d0/d11/classapplication_1_1config_1_1Config.html#ab3c2ccfa11cb8fd4df7a5442b5e20227" target="_top" xlink:title="Construct a new Config object.">
<polygon fill="white" stroke="#666666" points="106,-67.5 0,-67.5 0,-37.5 106,-37.5 106,-67.5"/>
<text text-anchor="start" x="8" y="-55.5" font-family="Helvetica,sans-Serif" font-size="10.00">application::config</text>
<text text-anchor="middle" x="53" y="-44.5" font-family="Helvetica,sans-Serif" font-size="10.00">::Config::Config</text>
</a>
</g>
</g>
<!-- Node5&#45;&gt;Node6 -->
<g id="edge5_Node000005_Node000006" class="edge">
<title>Node5&#45;&gt;Node6</title>
<g id="a_edge5_Node000005_Node000006"><a xlink:title=" ">
<path fill="none" stroke="#63b8ff" d="M131.61,-52.5C123.12,-52.5 114.47,-52.5 106.17,-52.5"/>
<polygon fill="#63b8ff" stroke="#63b8ff" points="131.87,-56 141.87,-52.5 131.87,-49 131.87,-56"/>
</a>
</g>
</g>
<!-- Node7&#45;&gt;Node3 -->
<g id="edge7_Node000007_Node000003" class="edge">
<title>Node7&#45;&gt;Node3</title>
<g id="a_edge7_Node000007_Node000003"><a xlink:title=" ">
<path fill="none" stroke="#63b8ff" d="M424.28,-16.23C432.77,-16.28 441.36,-16.24 449.67,-16.09"/>
<polygon fill="#63b8ff" stroke="#63b8ff" points="424.04,-12.73 414,-16.11 423.96,-19.72 424.04,-12.73"/>
</a>
</g>
</g>
</g>
</svg>
