<?xml version="1.0" encoding="UTF-8" standalone="no"?>
<!DOCTYPE svg PUBLIC "-//W3C//DTD SVG 1.1//EN"
 "http://www.w3.org/Graphics/SVG/1.1/DTD/svg11.dtd">
<!-- Generated by graphviz version 2.43.0 (0)
 -->
<!-- Title: application/example/include/apply_numeric.hpp Pages: 1 -->
<svg width="959pt" height="181pt"
 viewBox="0.00 0.00 958.50 181.00" xmlns="http://www.w3.org/2000/svg" xmlns:xlink="http://www.w3.org/1999/xlink">
<g id="graph0" class="graph" transform="scale(1 1) rotate(0) translate(4 177)">
<title>application/example/include/apply_numeric.hpp</title>
<!-- Node1 -->
<g id="Node000001" class="node">
<title>Node1</title>
<g id="a_Node000001"><a xlink:title="The declarations (apply_numeric) in the application module.">
<polygon fill="#999999" stroke="#666666" points="840.5,-173 689.5,-173 689.5,-143 840.5,-143 840.5,-173"/>
<text text-anchor="start" x="697.5" y="-161" font-family="Helvetica,sans-Serif" font-size="10.00">application/example</text>
<text text-anchor="middle" x="765" y="-150" font-family="Helvetica,sans-Serif" font-size="10.00">/include/apply_numeric.hpp</text>
</a>
</g>
</g>
<!-- Node2 -->
<g id="Node000002" class="node">
<title>Node2</title>
<g id="a_Node000002"><a xlink:href="../../d7/dc7/command_8hpp.html" target="_top" xlink:title="The declarations (command) in the application module.">
<polygon fill="white" stroke="#666666" points="625.5,-107 492.5,-107 492.5,-77 625.5,-77 625.5,-107"/>
<text text-anchor="start" x="500.5" y="-95" font-family="Helvetica,sans-Serif" font-size="10.00">application/core/include</text>
<text text-anchor="middle" x="559" y="-84" font-family="Helvetica,sans-Serif" font-size="10.00">/command.hpp</text>
</a>
</g>
</g>
<!-- Node1&#45;&gt;Node2 -->
<g id="edge1_Node000001_Node000002" class="edge">
<title>Node1&#45;&gt;Node2</title>
<g id="a_edge1_Node000001_Node000002"><a xlink:title=" ">
<path fill="none" stroke="#63b8ff" d="M709.82,-139.86C676.74,-129.58 635.21,-116.68 604.1,-107.01"/>
<polygon fill="#63b8ff" stroke="#63b8ff" points="709.2,-143.33 719.79,-142.95 711.28,-136.65 709.2,-143.33"/>
</a>
</g>
</g>
<!-- Node8 -->
<g id="Node000008" class="node">
<title>Node8</title>
<g id="a_Node000008"><a xlink:href="../../d1/dee/apply__numeric_8cpp.html" target="_top" xlink:title="The definitions (apply_numeric) in the application module.">
<polygon fill="white" stroke="#666666" points="950.5,-35.5 803.5,-35.5 803.5,-5.5 950.5,-5.5 950.5,-35.5"/>
<text text-anchor="start" x="811.5" y="-23.5" font-family="Helvetica,sans-Serif" font-size="10.00">application/example</text>
<text text-anchor="middle" x="877" y="-12.5" font-family="Helvetica,sans-Serif" font-size="10.00">/source/apply_numeric.cpp</text>
</a>
</g>
</g>
<!-- Node1&#45;&gt;Node8 -->
<g id="edge8_Node000001_Node000008" class="edge">
<title>Node1&#45;&gt;Node8</title>
<g id="a_edge8_Node000001_Node000008"><a xlink:title=" ">
<path fill="none" stroke="#63b8ff" d="M765.88,-132.63C767.59,-115.62 772.15,-93.15 784,-77 797.79,-58.2 820.04,-44.59 839.32,-35.56"/>
<polygon fill="#63b8ff" stroke="#63b8ff" points="762.36,-132.68 765.12,-142.91 769.34,-133.19 762.36,-132.68"/>
</a>
</g>
</g>
<!-- Node9 -->
<g id="Node000009" class="node">
<title>Node9</title>
<g id="a_Node000009"><a xlink:href="../../d8/d25/test__numeric_8cpp.html" target="_top" xlink:title="The definitions (test_numeric) in the test module.">
<polygon fill="white" stroke="#666666" points="937,-101.5 793,-101.5 793,-82.5 937,-82.5 937,-101.5"/>
<text text-anchor="middle" x="865" y="-89.5" font-family="Helvetica,sans-Serif" font-size="10.00">test/unit/test_numeric.cpp</text>
</a>
</g>
</g>
<!-- Node1&#45;&gt;Node9 -->
<g id="edge9_Node000001_Node000009" class="edge">
<title>Node1&#45;&gt;Node9</title>
<g id="a_edge9_Node000001_Node000009"><a xlink:title=" ">
<path fill="none" stroke="#63b8ff" d="M795.69,-137.36C814.34,-125.42 837.23,-110.77 851.47,-101.66"/>
<polygon fill="#63b8ff" stroke="#63b8ff" points="793.73,-134.46 787.19,-142.8 797.5,-140.35 793.73,-134.46"/>
</a>
</g>
</g>
<!-- Node3 -->
<g id="Node000003" class="node">
<title>Node3</title>
<g id="a_Node000003"><a xlink:href="../../d1/d81/command_8cpp.html" target="_top" xlink:title="The definitions (command) in the application module.">
<polygon fill="white" stroke="#666666" points="130,-35.5 0,-35.5 0,-5.5 130,-5.5 130,-35.5"/>
<text text-anchor="start" x="8" y="-23.5" font-family="Helvetica,sans-Serif" font-size="10.00">application/core/source</text>
<text text-anchor="middle" x="65" y="-12.5" font-family="Helvetica,sans-Serif" font-size="10.00">/command.cpp</text>
</a>
</g>
</g>
<!-- Node2&#45;&gt;Node3 -->
<g id="edge2_Node000002_Node000003" class="edge">
<title>Node2&#45;&gt;Node3</title>
<g id="a_edge2_Node000002_Node000003"><a xlink:title=" ">
<path fill="none" stroke="#63b8ff" d="M482.33,-85.1C397.76,-77.84 257.88,-63.63 139,-41 131.04,-39.48 122.67,-37.58 114.54,-35.57"/>
<polygon fill="#63b8ff" stroke="#63b8ff" points="482.11,-88.59 492.37,-85.95 482.7,-81.62 482.11,-88.59"/>
</a>
</g>
</g>
<!-- Node4 -->
<g id="Node000004" class="node">
<title>Node4</title>
<g id="a_Node000004"><a xlink:href="../../df/d92/application_2core_2source_2main_8cpp.html" target="_top" xlink:title="The definitions (main) in the application module.">
<polygon fill="white" stroke="#666666" points="278,-35.5 148,-35.5 148,-5.5 278,-5.5 278,-35.5"/>
<text text-anchor="start" x="156" y="-23.5" font-family="Helvetica,sans-Serif" font-size="10.00">application/core/source</text>
<text text-anchor="middle" x="213" y="-12.5" font-family="Helvetica,sans-Serif" font-size="10.00">/main.cpp</text>
</a>
</g>
</g>
<!-- Node2&#45;&gt;Node4 -->
<g id="edge3_Node000002_Node000004" class="edge">
<title>Node2&#45;&gt;Node4</title>
<g id="a_edge3_Node000002_Node000004"><a xlink:title=" ">
<path fill="none" stroke="#63b8ff" d="M482.52,-78.54C427.84,-69.24 352.62,-55.65 287,-41 279.61,-39.35 271.84,-37.47 264.23,-35.54"/>
<polygon fill="#63b8ff" stroke="#63b8ff" points="482.04,-82.01 492.48,-80.22 483.21,-75.1 482.04,-82.01"/>
</a>
</g>
</g>
<!-- Node5 -->
<g id="Node000005" class="node">
<title>Node5</title>
<g id="a_Node000005"><a xlink:href="../../d8/d64/apply__algorithm_8cpp.html" target="_top" xlink:title="The definitions (apply_algorithm) in the application module.">
<polygon fill="white" stroke="#666666" points="451.5,-35.5 296.5,-35.5 296.5,-5.5 451.5,-5.5 451.5,-35.5"/>
<text text-anchor="start" x="304.5" y="-23.5" font-family="Helvetica,sans-Serif" font-size="10.00">application/example</text>
<text text-anchor="middle" x="374" y="-12.5" font-family="Helvetica,sans-Serif" font-size="10.00">/source/apply_algorithm.cpp</text>
</a>
</g>
</g>
<!-- Node2&#45;&gt;Node5 -->
<g id="edge4_Node000002_Node000005" class="edge">
<title>Node2&#45;&gt;Node5</title>
<g id="a_edge4_Node000002_Node000005"><a xlink:title=" ">
<path fill="none" stroke="#63b8ff" d="M512.19,-73.42C480.96,-61.68 440.45,-46.47 411.38,-35.54"/>
<polygon fill="#63b8ff" stroke="#63b8ff" points="510.97,-76.7 521.56,-76.94 513.43,-70.14 510.97,-76.7"/>
</a>
</g>
</g>
<!-- Node6 -->
<g id="Node000006" class="node">
<title>Node6</title>
<g id="a_Node000006"><a xlink:href="../../d1/d3d/apply__data__structure_8cpp.html" target="_top" xlink:title="The definitions (apply_data_structure) in the application module.">
<polygon fill="white" stroke="#666666" points="648,-35.5 470,-35.5 470,-5.5 648,-5.5 648,-35.5"/>
<text text-anchor="start" x="478" y="-23.5" font-family="Helvetica,sans-Serif" font-size="10.00">application/example</text>
<text text-anchor="middle" x="559" y="-12.5" font-family="Helvetica,sans-Serif" font-size="10.00">/source/apply_data_structure.cpp</text>
</a>
</g>
</g>
<!-- Node2&#45;&gt;Node6 -->
<g id="edge5_Node000002_Node000006" class="edge">
<title>Node2&#45;&gt;Node6</title>
<g id="a_edge5_Node000002_Node000006"><a xlink:title=" ">
<path fill="none" stroke="#63b8ff" d="M559,-66.75C559,-56.31 559,-44.49 559,-35.54"/>
<polygon fill="#63b8ff" stroke="#63b8ff" points="555.5,-66.94 559,-76.94 562.5,-66.94 555.5,-66.94"/>
</a>
</g>
</g>
<!-- Node7 -->
<g id="Node000007" class="node">
<title>Node7</title>
<g id="a_Node000007"><a xlink:href="../../de/d6b/apply__design__pattern_8cpp.html" target="_top" xlink:title="The definitions (apply_design_pattern) in the application module.">
<polygon fill="white" stroke="#666666" points="785.5,-41 666.5,-41 666.5,0 785.5,0 785.5,-41"/>
<text text-anchor="start" x="674.5" y="-29" font-family="Helvetica,sans-Serif" font-size="10.00">application/example</text>
<text text-anchor="start" x="674.5" y="-18" font-family="Helvetica,sans-Serif" font-size="10.00">/source/apply_design</text>
<text text-anchor="middle" x="726" y="-7" font-family="Helvetica,sans-Serif" font-size="10.00">_pattern.cpp</text>
</a>
</g>
</g>
<!-- Node2&#45;&gt;Node7 -->
<g id="edge6_Node000002_Node000007" class="edge">
<title>Node2&#45;&gt;Node7</title>
<g id="a_edge6_Node000002_Node000007"><a xlink:title=" ">
<path fill="none" stroke="#63b8ff" d="M602.17,-73.03C625.7,-63.24 654.86,-51.11 678.97,-41.07"/>
<polygon fill="#63b8ff" stroke="#63b8ff" points="600.68,-69.86 592.79,-76.94 603.37,-76.32 600.68,-69.86"/>
</a>
</g>
</g>
<!-- Node2&#45;&gt;Node8 -->
<g id="edge7_Node000002_Node000008" class="edge">
<title>Node2&#45;&gt;Node8</title>
<g id="a_edge7_Node000002_Node000008"><a xlink:title=" ">
<path fill="none" stroke="#63b8ff" d="M635.67,-75.26C681.88,-65.64 741.89,-52.94 795,-41 802.71,-39.27 810.82,-37.4 818.81,-35.53"/>
<polygon fill="#63b8ff" stroke="#63b8ff" points="634.8,-71.86 625.73,-77.32 636.23,-78.71 634.8,-71.86"/>
</a>
</g>
</g>
</g>
</svg>
