<?xml version="1.0" encoding="UTF-8" standalone="no"?>
<!DOCTYPE svg PUBLIC "-//W3C//DTD SVG 1.1//EN"
 "http://www.w3.org/Graphics/SVG/1.1/DTD/svg11.dtd">
<!-- Generated by graphviz version 2.43.0 (0)
 -->
<!-- Title: design_pattern::structural::facade::Facade Pages: 1 -->
<svg width="709pt" height="167pt"
 viewBox="0.00 0.00 709.00 167.00" xmlns="http://www.w3.org/2000/svg" xmlns:xlink="http://www.w3.org/1999/xlink">
<g id="graph0" class="graph" transform="scale(1 1) rotate(0) translate(4 163)">
<title>design_pattern::structural::facade::Facade</title>
<!-- Node1 -->
<g id="Node000001" class="node">
<title>Node1</title>
<g id="a_Node000001"><a xlink:title="Delegate client requests to appropriate subsystem and unified interface.">
<polygon fill="#999999" stroke="#666666" points="701,-94.5 559,-94.5 559,-64.5 701,-64.5 701,-94.5"/>
<text text-anchor="start" x="567" y="-82.5" font-family="Helvetica,sans-Serif" font-size="10.00">design_pattern::structural</text>
<text text-anchor="middle" x="630" y="-71.5" font-family="Helvetica,sans-Serif" font-size="10.00">::facade::Facade</text>
</a>
</g>
</g>
<!-- Node2 -->
<g id="Node000002" class="node">
<title>Node2</title>
<g id="a_Node000002"><a target="_parent" xlink:href="https://gcc.gnu.org/onlinedocs/gcc-12.3.0/libstdc++/api/a07571.html" xlink:title=" ">
<polygon fill="white" stroke="#666666" points="459,-159 326,-159 326,-118 459,-118 459,-159"/>
<text text-anchor="start" x="334" y="-147" font-family="Helvetica,sans-Serif" font-size="10.00">std::shared_ptr&lt; design</text>
<text text-anchor="start" x="334" y="-136" font-family="Helvetica,sans-Serif" font-size="10.00">_pattern::structural::</text>
<text text-anchor="middle" x="392.5" y="-125" font-family="Helvetica,sans-Serif" font-size="10.00">facade::SubsystemA &gt;</text>
</a>
</g>
</g>
<!-- Node2&#45;&gt;Node1 -->
<g id="edge1_Node000001_Node000002" class="edge">
<title>Node2&#45;&gt;Node1</title>
<g id="a_edge1_Node000001_Node000002"><a xlink:title=" ">
<path fill="none" stroke="#9a32cd" stroke-dasharray="5,2" d="M468.97,-119.59C501.31,-111.49 538.57,-102.16 568.99,-94.53"/>
<polygon fill="#9a32cd" stroke="#9a32cd" points="467.95,-116.24 459.1,-122.07 469.65,-123.03 467.95,-116.24"/>
</a>
</g>
<text text-anchor="middle" x="509" y="-118.5" font-family="Helvetica,sans-Serif" font-size="10.00" fill="grey"> subsystemA</text>
</g>
<!-- Node3 -->
<g id="Node000003" class="node">
<title>Node3</title>
<g id="a_Node000003"><a target="_parent" xlink:href="https://gcc.gnu.org/onlinedocs/gcc-12.3.0/libstdc++/api/a07571.html" xlink:title=" ">
<polygon fill="white" stroke="#666666" points="150,-94.5 0,-94.5 0,-64.5 150,-64.5 150,-94.5"/>
<text text-anchor="start" x="8" y="-82.5" font-family="Helvetica,sans-Serif" font-size="10.00">std::shared_ptr&lt; typename</text>
<text text-anchor="middle" x="75" y="-71.5" font-family="Helvetica,sans-Serif" font-size="10.00"> _Tp &gt;</text>
</a>
</g>
</g>
<!-- Node3&#45;&gt;Node2 -->
<g id="edge2_Node000002_Node000003" class="edge">
<title>Node3&#45;&gt;Node2</title>
<g id="a_edge2_Node000002_Node000003"><a xlink:title=" ">
<path fill="none" stroke="orange" stroke-dasharray="5,2" d="M134.81,-97.33C145.78,-100.31 157.19,-103.18 168,-105.5 220.54,-116.75 280.86,-125.41 325.58,-131.03"/>
<polygon fill="orange" stroke="orange" points="135.46,-93.88 124.89,-94.58 133.58,-100.63 135.46,-93.88"/>
</a>
</g>
<text text-anchor="start" x="168" y="-141.5" font-family="Helvetica,sans-Serif" font-size="10.00" fill="grey"> &lt; design_pattern::structural</text>
<text text-anchor="middle" x="238" y="-130.5" font-family="Helvetica,sans-Serif" font-size="10.00" fill="grey">::facade::SubsystemA &gt;</text>
</g>
<!-- Node4 -->
<g id="Node000004" class="node">
<title>Node4</title>
<g id="a_Node000004"><a target="_parent" xlink:href="https://gcc.gnu.org/onlinedocs/gcc-12.3.0/libstdc++/api/a07571.html" xlink:title=" ">
<polygon fill="white" stroke="#666666" points="459,-100 326,-100 326,-59 459,-59 459,-100"/>
<text text-anchor="start" x="334" y="-88" font-family="Helvetica,sans-Serif" font-size="10.00">std::shared_ptr&lt; design</text>
<text text-anchor="start" x="334" y="-77" font-family="Helvetica,sans-Serif" font-size="10.00">_pattern::structural::</text>
<text text-anchor="middle" x="392.5" y="-66" font-family="Helvetica,sans-Serif" font-size="10.00">facade::SubsystemB &gt;</text>
</a>
</g>
</g>
<!-- Node3&#45;&gt;Node4 -->
<g id="edge4_Node000004_Node000003" class="edge">
<title>Node3&#45;&gt;Node4</title>
<g id="a_edge4_Node000004_Node000003"><a xlink:title=" ">
<path fill="none" stroke="orange" stroke-dasharray="5,2" d="M160.56,-79.5C212.47,-79.5 277.96,-79.5 325.93,-79.5"/>
<polygon fill="orange" stroke="orange" points="160.37,-76 150.37,-79.5 160.37,-83 160.37,-76"/>
</a>
</g>
<text text-anchor="start" x="168" y="-93.5" font-family="Helvetica,sans-Serif" font-size="10.00" fill="grey"> &lt; design_pattern::structural</text>
<text text-anchor="middle" x="238" y="-82.5" font-family="Helvetica,sans-Serif" font-size="10.00" fill="grey">::facade::SubsystemB &gt;</text>
</g>
<!-- Node5 -->
<g id="Node000005" class="node">
<title>Node5</title>
<g id="a_Node000005"><a target="_parent" xlink:href="https://gcc.gnu.org/onlinedocs/gcc-12.3.0/libstdc++/api/a07571.html" xlink:title=" ">
<polygon fill="white" stroke="#666666" points="459,-41 326,-41 326,0 459,0 459,-41"/>
<text text-anchor="start" x="334" y="-29" font-family="Helvetica,sans-Serif" font-size="10.00">std::shared_ptr&lt; design</text>
<text text-anchor="start" x="334" y="-18" font-family="Helvetica,sans-Serif" font-size="10.00">_pattern::structural::</text>
<text text-anchor="middle" x="392.5" y="-7" font-family="Helvetica,sans-Serif" font-size="10.00">facade::SubsystemC &gt;</text>
</a>
</g>
</g>
<!-- Node3&#45;&gt;Node5 -->
<g id="edge6_Node000005_Node000003" class="edge">
<title>Node3&#45;&gt;Node5</title>
<g id="a_edge6_Node000005_Node000003"><a xlink:title=" ">
<path fill="none" stroke="orange" stroke-dasharray="5,2" d="M134.81,-61.67C145.78,-58.69 157.19,-55.82 168,-53.5 220.54,-42.25 280.86,-33.59 325.58,-27.97"/>
<polygon fill="orange" stroke="orange" points="133.58,-58.37 124.89,-64.42 135.46,-65.12 133.58,-58.37"/>
</a>
</g>
<text text-anchor="start" x="168" y="-67.5" font-family="Helvetica,sans-Serif" font-size="10.00" fill="grey"> &lt; design_pattern::structural</text>
<text text-anchor="middle" x="238" y="-56.5" font-family="Helvetica,sans-Serif" font-size="10.00" fill="grey">::facade::SubsystemC &gt;</text>
</g>
<!-- Node4&#45;&gt;Node1 -->
<g id="edge3_Node000001_Node000004" class="edge">
<title>Node4&#45;&gt;Node1</title>
<g id="a_edge3_Node000001_Node000004"><a xlink:title=" ">
<path fill="none" stroke="#9a32cd" stroke-dasharray="5,2" d="M469.11,-79.5C497.89,-79.5 530.55,-79.5 558.81,-79.5"/>
<polygon fill="#9a32cd" stroke="#9a32cd" points="469.1,-76 459.1,-79.5 469.1,-83 469.1,-76"/>
</a>
</g>
<text text-anchor="middle" x="509" y="-82.5" font-family="Helvetica,sans-Serif" font-size="10.00" fill="grey"> subsystemB</text>
</g>
<!-- Node5&#45;&gt;Node1 -->
<g id="edge5_Node000001_Node000005" class="edge">
<title>Node5&#45;&gt;Node1</title>
<g id="a_edge5_Node000001_Node000005"><a xlink:title=" ">
<path fill="none" stroke="#9a32cd" stroke-dasharray="5,2" d="M468.97,-39.41C501.31,-47.51 538.57,-56.84 568.99,-64.47"/>
<polygon fill="#9a32cd" stroke="#9a32cd" points="469.65,-35.97 459.1,-36.93 467.95,-42.76 469.65,-35.97"/>
</a>
</g>
<text text-anchor="middle" x="509" y="-59.5" font-family="Helvetica,sans-Serif" font-size="10.00" fill="grey"> subsystemC</text>
</g>
</g>
</svg>
