<?xml version="1.0" encoding="UTF-8" standalone="no"?>
<!DOCTYPE svg PUBLIC "-//W3C//DTD SVG 1.1//EN"
 "http://www.w3.org/Graphics/SVG/1.1/DTD/svg11.dtd">
<!-- Generated by graphviz version 2.43.0 (0)
 -->
<!-- Title: algorithm/include/notation.hpp Pages: 1 -->
<svg width="515pt" height="93pt"
 viewBox="0.00 0.00 514.50 93.00" xmlns="http://www.w3.org/2000/svg" xmlns:xlink="http://www.w3.org/1999/xlink">
<g id="graph0" class="graph" transform="scale(1 1) rotate(0) translate(4 89)">
<title>algorithm/include/notation.hpp</title>
<!-- Node1 -->
<g id="Node000001" class="node">
<title>Node1</title>
<g id="a_Node000001"><a xlink:title="The declarations (notation) in the algorithm module.">
<polygon fill="#999999" stroke="#666666" points="342,-85 175,-85 175,-66 342,-66 342,-85"/>
<text text-anchor="middle" x="258.5" y="-73" font-family="Helvetica,sans-Serif" font-size="10.00">algorithm/include/notation.hpp</text>
</a>
</g>
</g>
<!-- Node2 -->
<g id="Node000002" class="node">
<title>Node2</title>
<g id="a_Node000002"><a xlink:href="../../d2/d34/notation_8cpp.html" target="_top" xlink:title="The definitions (notation) in the algorithm module.">
<polygon fill="white" stroke="#666666" points="163,-24.5 0,-24.5 0,-5.5 163,-5.5 163,-24.5"/>
<text text-anchor="middle" x="81.5" y="-12.5" font-family="Helvetica,sans-Serif" font-size="10.00">algorithm/source/notation.cpp</text>
</a>
</g>
</g>
<!-- Node1&#45;&gt;Node2 -->
<g id="edge1_Node000001_Node000002" class="edge">
<title>Node1&#45;&gt;Node2</title>
<g id="a_edge1_Node000001_Node000002"><a xlink:title=" ">
<path fill="none" stroke="#63b8ff" d="M223.15,-62.82C188.92,-51.5 137.83,-34.62 107.27,-24.52"/>
<polygon fill="#63b8ff" stroke="#63b8ff" points="222.17,-66.18 232.76,-65.99 224.37,-59.53 222.17,-66.18"/>
</a>
</g>
</g>
<!-- Node3 -->
<g id="Node000003" class="node">
<title>Node3</title>
<g id="a_Node000003"><a xlink:href="../../d8/d64/apply__algorithm_8cpp.html" target="_top" xlink:title="The definitions (apply_algorithm) in the application module.">
<polygon fill="white" stroke="#666666" points="336,-30 181,-30 181,0 336,0 336,-30"/>
<text text-anchor="start" x="189" y="-18" font-family="Helvetica,sans-Serif" font-size="10.00">application/example</text>
<text text-anchor="middle" x="258.5" y="-7" font-family="Helvetica,sans-Serif" font-size="10.00">/source/apply_algorithm.cpp</text>
</a>
</g>
</g>
<!-- Node1&#45;&gt;Node3 -->
<g id="edge2_Node000001_Node000003" class="edge">
<title>Node1&#45;&gt;Node3</title>
<g id="a_edge2_Node000001_Node000003"><a xlink:title=" ">
<path fill="none" stroke="#63b8ff" d="M258.5,-55.65C258.5,-47.36 258.5,-37.78 258.5,-30.11"/>
<polygon fill="#63b8ff" stroke="#63b8ff" points="255,-55.87 258.5,-65.87 262,-55.87 255,-55.87"/>
</a>
</g>
</g>
<!-- Node4 -->
<g id="Node000004" class="node">
<title>Node4</title>
<g id="a_Node000004"><a xlink:href="../../df/de8/test__algorithm_8cpp.html" target="_top" xlink:title="The definitions (test_algorithm) in the test module.">
<polygon fill="white" stroke="#666666" points="506.5,-24.5 354.5,-24.5 354.5,-5.5 506.5,-5.5 506.5,-24.5"/>
<text text-anchor="middle" x="430.5" y="-12.5" font-family="Helvetica,sans-Serif" font-size="10.00">test/unit/test_algorithm.cpp</text>
</a>
</g>
</g>
<!-- Node1&#45;&gt;Node4 -->
<g id="edge3_Node000001_Node000004" class="edge">
<title>Node1&#45;&gt;Node4</title>
<g id="a_edge3_Node000001_Node000004"><a xlink:title=" ">
<path fill="none" stroke="#63b8ff" d="M293.28,-62.67C326.54,-51.36 375.89,-34.57 405.46,-24.52"/>
<polygon fill="#63b8ff" stroke="#63b8ff" points="291.85,-59.46 283.51,-65.99 294.1,-66.09 291.85,-59.46"/>
</a>
</g>
</g>
</g>
</svg>
