<?xml version="1.0" encoding="UTF-8" standalone="no"?>
<!DOCTYPE svg PUBLIC "-//W3C//DTD SVG 1.1//EN"
 "http://www.w3.org/Graphics/SVG/1.1/DTD/svg11.dtd">
<!-- Generated by graphviz version 2.43.0 (0)
 -->
<!-- Title: utility/include/socket.hpp Pages: 1 -->
<svg width="441pt" height="159pt"
 viewBox="0.00 0.00 440.50 159.00" xmlns="http://www.w3.org/2000/svg" xmlns:xlink="http://www.w3.org/1999/xlink">
<g id="graph0" class="graph" transform="scale(1 1) rotate(0) translate(4 155)">
<title>utility/include/socket.hpp</title>
<!-- Node1 -->
<g id="Node000001" class="node">
<title>Node1</title>
<g id="a_Node000001"><a xlink:title="The declarations (socket) in the utility module.">
<polygon fill="#999999" stroke="#666666" points="358.5,-151 219.5,-151 219.5,-132 358.5,-132 358.5,-151"/>
<text text-anchor="middle" x="289" y="-139" font-family="Helvetica,sans-Serif" font-size="10.00">utility/include/socket.hpp</text>
</a>
</g>
</g>
<!-- Node2 -->
<g id="Node000002" class="node">
<title>Node2</title>
<g id="a_Node000002"><a xlink:href="../../d8/d11/view_8hpp.html" target="_top" xlink:title="The declarations (view) in the application module.">
<polygon fill="white" stroke="#666666" points="279.5,-96 146.5,-96 146.5,-66 279.5,-66 279.5,-96"/>
<text text-anchor="start" x="154.5" y="-84" font-family="Helvetica,sans-Serif" font-size="10.00">application/core/include</text>
<text text-anchor="middle" x="213" y="-73" font-family="Helvetica,sans-Serif" font-size="10.00">/view.hpp</text>
</a>
</g>
</g>
<!-- Node1&#45;&gt;Node2 -->
<g id="edge1_Node000001_Node000002" class="edge">
<title>Node1&#45;&gt;Node2</title>
<g id="a_edge1_Node000001_Node000002"><a xlink:title=" ">
<path fill="none" stroke="#63b8ff" d="M269.86,-125.77C258.05,-116.68 242.99,-105.09 231.34,-96.11"/>
<polygon fill="#63b8ff" stroke="#63b8ff" points="267.73,-128.54 277.79,-131.87 272,-122.99 267.73,-128.54"/>
</a>
</g>
</g>
<!-- Node6 -->
<g id="Node000006" class="node">
<title>Node6</title>
<g id="a_Node000006"><a xlink:href="../../d8/d81/socket_8cpp.html" target="_top" xlink:title="The definitions (socket) in the utility module.">
<polygon fill="white" stroke="#666666" points="432.5,-90.5 297.5,-90.5 297.5,-71.5 432.5,-71.5 432.5,-90.5"/>
<text text-anchor="middle" x="365" y="-78.5" font-family="Helvetica,sans-Serif" font-size="10.00">utility/source/socket.cpp</text>
</a>
</g>
</g>
<!-- Node1&#45;&gt;Node6 -->
<g id="edge5_Node000001_Node000006" class="edge">
<title>Node1&#45;&gt;Node6</title>
<g id="a_edge5_Node000001_Node000006"><a xlink:title=" ">
<path fill="none" stroke="#63b8ff" d="M308.44,-125.54C322.79,-114.49 341.82,-99.84 353.74,-90.67"/>
<polygon fill="#63b8ff" stroke="#63b8ff" points="306,-122.99 300.21,-131.87 310.27,-128.54 306,-122.99"/>
</a>
</g>
</g>
<!-- Node3 -->
<g id="Node000003" class="node">
<title>Node3</title>
<g id="a_Node000003"><a xlink:href="../../d1/d81/command_8cpp.html" target="_top" xlink:title="The definitions (command) in the application module.">
<polygon fill="white" stroke="#666666" points="130,-30 0,-30 0,0 130,0 130,-30"/>
<text text-anchor="start" x="8" y="-18" font-family="Helvetica,sans-Serif" font-size="10.00">application/core/source</text>
<text text-anchor="middle" x="65" y="-7" font-family="Helvetica,sans-Serif" font-size="10.00">/command.cpp</text>
</a>
</g>
</g>
<!-- Node2&#45;&gt;Node3 -->
<g id="edge2_Node000002_Node000003" class="edge">
<title>Node2&#45;&gt;Node3</title>
<g id="a_edge2_Node000002_Node000003"><a xlink:title=" ">
<path fill="none" stroke="#63b8ff" d="M171.19,-61.92C147.8,-51.8 119.08,-39.38 97.4,-30.01"/>
<polygon fill="#63b8ff" stroke="#63b8ff" points="169.95,-65.2 180.52,-65.95 172.73,-58.77 169.95,-65.2"/>
</a>
</g>
</g>
<!-- Node4 -->
<g id="Node000004" class="node">
<title>Node4</title>
<g id="a_Node000004"><a xlink:href="../../df/d92/application_2core_2source_2main_8cpp.html" target="_top" xlink:title="The definitions (main) in the application module.">
<polygon fill="white" stroke="#666666" points="278,-30 148,-30 148,0 278,0 278,-30"/>
<text text-anchor="start" x="156" y="-18" font-family="Helvetica,sans-Serif" font-size="10.00">application/core/source</text>
<text text-anchor="middle" x="213" y="-7" font-family="Helvetica,sans-Serif" font-size="10.00">/main.cpp</text>
</a>
</g>
</g>
<!-- Node2&#45;&gt;Node4 -->
<g id="edge3_Node000002_Node000004" class="edge">
<title>Node2&#45;&gt;Node4</title>
<g id="a_edge3_Node000002_Node000004"><a xlink:title=" ">
<path fill="none" stroke="#63b8ff" d="M213,-55.54C213,-46.96 213,-37.61 213,-30.16"/>
<polygon fill="#63b8ff" stroke="#63b8ff" points="209.5,-55.8 213,-65.8 216.5,-55.8 209.5,-55.8"/>
</a>
</g>
</g>
<!-- Node5 -->
<g id="Node000005" class="node">
<title>Node5</title>
<g id="a_Node000005"><a xlink:href="../../dd/dc2/view_8cpp.html" target="_top" xlink:title="The definitions (view) in the application module.">
<polygon fill="white" stroke="#666666" points="426,-30 296,-30 296,0 426,0 426,-30"/>
<text text-anchor="start" x="304" y="-18" font-family="Helvetica,sans-Serif" font-size="10.00">application/core/source</text>
<text text-anchor="middle" x="361" y="-7" font-family="Helvetica,sans-Serif" font-size="10.00">/view.cpp</text>
</a>
</g>
</g>
<!-- Node2&#45;&gt;Node5 -->
<g id="edge4_Node000002_Node000005" class="edge">
<title>Node2&#45;&gt;Node5</title>
<g id="a_edge4_Node000002_Node000005"><a xlink:title=" ">
<path fill="none" stroke="#63b8ff" d="M254.81,-61.92C278.2,-51.8 306.92,-39.38 328.6,-30.01"/>
<polygon fill="#63b8ff" stroke="#63b8ff" points="253.27,-58.77 245.48,-65.95 256.05,-65.2 253.27,-58.77"/>
</a>
</g>
</g>
</g>
</svg>
