<?xml version="1.0" encoding="UTF-8" standalone="no"?>
<!DOCTYPE svg PUBLIC "-//W3C//DTD SVG 1.1//EN"
 "http://www.w3.org/Graphics/SVG/1.1/DTD/svg11.dtd">
<!-- Generated by graphviz version 2.43.0 (0)
 -->
<!-- Title: application::app_dp::DesignPatternTask Pages: 1 -->
<svg width="1182pt" height="232pt"
 viewBox="0.00 0.00 1182.00 231.69" xmlns="http://www.w3.org/2000/svg" xmlns:xlink="http://www.w3.org/1999/xlink">
<g id="graph0" class="graph" transform="scale(1 1) rotate(0) translate(4 227.69)">
<title>application::app_dp::DesignPatternTask</title>
<!-- Node1 -->
<g id="Node000001" class="node">
<title>Node1</title>
<g id="a_Node000001"><a xlink:title="Manage design pattern tasks.">
<polygon fill="#999999" stroke="#666666" points="1174,-139.76 1061,-139.76 1061,-109.76 1174,-109.76 1174,-139.76"/>
<text text-anchor="start" x="1069" y="-127.76" font-family="Helvetica,sans-Serif" font-size="10.00">application::app_dp</text>
<text text-anchor="middle" x="1117.5" y="-116.76" font-family="Helvetica,sans-Serif" font-size="10.00">::DesignPatternTask</text>
</a>
</g>
</g>
<!-- Node2 -->
<g id="Node000002" class="node">
<title>Node2</title>
<g id="a_Node000002"><a target="_parent" xlink:href="https://gcc.gnu.org/onlinedocs/gcc-12.3.0/libstdc++/api/a02103.html" xlink:title=" ">
<polygon fill="white" stroke="#666666" points="956,-204.26 751,-204.26 751,-163.26 956,-163.26 956,-204.26"/>
<text text-anchor="start" x="759" y="-192.26" font-family="Helvetica,sans-Serif" font-size="10.00">std::bitset&lt; application</text>
<text text-anchor="start" x="759" y="-181.26" font-family="Helvetica,sans-Serif" font-size="10.00">::app_dp::Bottom&lt; BehavioralInstance</text>
<text text-anchor="middle" x="853.5" y="-170.26" font-family="Helvetica,sans-Serif" font-size="10.00"> &gt;::value &gt;</text>
</a>
</g>
</g>
<!-- Node2&#45;&gt;Node1 -->
<g id="edge1_Node000001_Node000002" class="edge">
<title>Node2&#45;&gt;Node1</title>
<g id="a_edge1_Node000001_Node000002"><a xlink:title=" ">
<path fill="none" stroke="#9a32cd" stroke-dasharray="5,2" d="M955.73,-160.96C991.38,-152.94 1030.13,-144.21 1060.65,-137.34"/>
<polygon fill="#9a32cd" stroke="#9a32cd" points="954.75,-157.6 945.77,-163.21 956.29,-164.43 954.75,-157.6"/>
</a>
</g>
<text text-anchor="middle" x="1008.5" y="-158.76" font-family="Helvetica,sans-Serif" font-size="10.00" fill="grey"> behavioralBit</text>
</g>
<!-- Node3 -->
<g id="Node000003" class="node">
<title>Node3</title>
<g id="a_Node000003"><a target="_parent" xlink:href="https://gcc.gnu.org/onlinedocs/gcc-12.3.0/libstdc++/api/a02075.html" xlink:title=" ">
<polygon fill="white" stroke="#666666" points="408,-118.76 265,-118.76 265,-44.76 408,-44.76 408,-118.76"/>
<text text-anchor="start" x="273" y="-106.76" font-family="Helvetica,sans-Serif" font-size="10.00">std::_Base_bitset&lt;</text>
<text text-anchor="start" x="273" y="-95.76" font-family="Helvetica,sans-Serif" font-size="10.00">((_Nb)/(__CHAR_BIT_</text>
<text text-anchor="start" x="273" y="-84.76" font-family="Helvetica,sans-Serif" font-size="10.00">_ *__SIZEOF_LONG__)+</text>
<text text-anchor="start" x="273" y="-73.76" font-family="Helvetica,sans-Serif" font-size="10.00">((_Nb) %(__CHAR_BIT__</text>
<text text-anchor="start" x="273" y="-62.76" font-family="Helvetica,sans-Serif" font-size="10.00"> *__SIZEOF_LONG__)==0 </text>
<text text-anchor="middle" x="336.5" y="-51.76" font-family="Helvetica,sans-Serif" font-size="10.00">? 0 :1))&gt;</text>
</a>
</g>
</g>
<!-- Node3&#45;&gt;Node2 -->
<g id="edge2_Node000002_Node000003" class="edge">
<title>Node3&#45;&gt;Node2</title>
<g id="a_edge2_Node000002_Node000003"><a xlink:title=" ">
<path fill="none" stroke="#8b1a1a" d="M393.35,-124.9C437.88,-156.42 503.32,-196.55 568,-213.76 640.83,-233.14 727.29,-219 785.62,-204.27"/>
<polygon fill="#8b1a1a" stroke="#8b1a1a" points="395.17,-121.9 385,-118.92 391.09,-127.59 395.17,-121.9"/>
</a>
</g>
</g>
<!-- Node5 -->
<g id="Node000005" class="node">
<title>Node5</title>
<g id="a_Node000005"><a target="_parent" xlink:href="https://gcc.gnu.org/onlinedocs/gcc-12.3.0/libstdc++/api/a02103.html" xlink:title=" ">
<polygon fill="white" stroke="#666666" points="550,-119.76 445,-119.76 445,-89.76 550,-89.76 550,-119.76"/>
<text text-anchor="start" x="453" y="-107.76" font-family="Helvetica,sans-Serif" font-size="10.00">std::bitset&lt; size_t</text>
<text text-anchor="middle" x="497.5" y="-96.76" font-family="Helvetica,sans-Serif" font-size="10.00"> _Nb &gt;</text>
</a>
</g>
</g>
<!-- Node3&#45;&gt;Node5 -->
<g id="edge5_Node000005_Node000003" class="edge">
<title>Node3&#45;&gt;Node5</title>
<g id="a_edge5_Node000005_Node000003"><a xlink:title=" ">
<path fill="none" stroke="#8b1a1a" d="M418.27,-93.45C427.24,-94.74 436.19,-96.04 444.65,-97.26"/>
<polygon fill="#8b1a1a" stroke="#8b1a1a" points="418.56,-89.95 408.17,-91.98 417.56,-96.88 418.56,-89.95"/>
</a>
</g>
</g>
<!-- Node6 -->
<g id="Node000006" class="node">
<title>Node6</title>
<g id="a_Node000006"><a target="_parent" xlink:href="https://gcc.gnu.org/onlinedocs/gcc-12.3.0/libstdc++/api/a02103.html" xlink:title=" ">
<polygon fill="white" stroke="#666666" points="955,-145.26 752,-145.26 752,-104.26 955,-104.26 955,-145.26"/>
<text text-anchor="start" x="760" y="-133.26" font-family="Helvetica,sans-Serif" font-size="10.00">std::bitset&lt; application</text>
<text text-anchor="start" x="760" y="-122.26" font-family="Helvetica,sans-Serif" font-size="10.00">::app_dp::Bottom&lt; CreationalInstance</text>
<text text-anchor="middle" x="853.5" y="-111.26" font-family="Helvetica,sans-Serif" font-size="10.00"> &gt;::value &gt;</text>
</a>
</g>
</g>
<!-- Node3&#45;&gt;Node6 -->
<g id="edge7_Node000006_Node000003" class="edge">
<title>Node3&#45;&gt;Node6</title>
<g id="a_edge7_Node000006_Node000003"><a xlink:title=" ">
<path fill="none" stroke="#8b1a1a" d="M418.23,-64.76C518.67,-45.51 683.07,-20.84 733,-53.76 749.95,-64.94 735.76,-82.34 751,-95.76 754.58,-98.91 758.47,-101.72 762.59,-104.22"/>
<polygon fill="#8b1a1a" stroke="#8b1a1a" points="417.26,-61.38 408.11,-66.72 418.6,-68.26 417.26,-61.38"/>
</a>
</g>
</g>
<!-- Node7 -->
<g id="Node000007" class="node">
<title>Node7</title>
<g id="a_Node000007"><a target="_parent" xlink:href="https://gcc.gnu.org/onlinedocs/gcc-12.3.0/libstdc++/api/a02103.html" xlink:title=" ">
<polygon fill="white" stroke="#666666" points="953.5,-86.26 753.5,-86.26 753.5,-45.26 953.5,-45.26 953.5,-86.26"/>
<text text-anchor="start" x="761.5" y="-74.26" font-family="Helvetica,sans-Serif" font-size="10.00">std::bitset&lt; application</text>
<text text-anchor="start" x="761.5" y="-63.26" font-family="Helvetica,sans-Serif" font-size="10.00">::app_dp::Bottom&lt; StructuralInstance</text>
<text text-anchor="middle" x="853.5" y="-52.26" font-family="Helvetica,sans-Serif" font-size="10.00"> &gt;::value &gt;</text>
</a>
</g>
</g>
<!-- Node3&#45;&gt;Node7 -->
<g id="edge10_Node000007_Node000003" class="edge">
<title>Node3&#45;&gt;Node7</title>
<g id="a_edge10_Node000007_Node000003"><a xlink:title=" ">
<path fill="none" stroke="#8b1a1a" d="M391.67,-39.38C402.5,-32.94 414.19,-27.28 426,-23.76 556.74,15.26 598.5,-0.81 733,-23.76 757.71,-27.98 784.11,-36.77 805.8,-45.22"/>
<polygon fill="#8b1a1a" stroke="#8b1a1a" points="389.81,-36.41 383.18,-44.68 393.52,-42.35 389.81,-36.41"/>
</a>
</g>
</g>
<!-- Node4 -->
<g id="Node000004" class="node">
<title>Node4</title>
<g id="a_Node000004"><a target="_parent" xlink:href="https://gcc.gnu.org/onlinedocs/gcc-12.3.0/libstdc++/api/a02075.html" xlink:title=" ">
<polygon fill="white" stroke="#666666" points="108,-96.76 0,-96.76 0,-66.76 108,-66.76 108,-96.76"/>
<text text-anchor="start" x="8" y="-84.76" font-family="Helvetica,sans-Serif" font-size="10.00">std::_Base_bitset&lt;</text>
<text text-anchor="middle" x="54" y="-73.76" font-family="Helvetica,sans-Serif" font-size="10.00"> size_t _Nw &gt;</text>
</a>
</g>
</g>
<!-- Node4&#45;&gt;Node3 -->
<g id="edge3_Node000003_Node000004" class="edge">
<title>Node4&#45;&gt;Node3</title>
<g id="a_edge3_Node000003_Node000004"><a xlink:title=" ">
<path fill="none" stroke="orange" stroke-dasharray="5,2" d="M118.28,-81.76C161.85,-81.76 219.79,-81.76 264.87,-81.76"/>
<polygon fill="orange" stroke="orange" points="118.09,-78.26 108.09,-81.76 118.09,-85.26 118.09,-78.26"/>
</a>
</g>
<text text-anchor="start" x="126" y="-128.76" font-family="Helvetica,sans-Serif" font-size="10.00" fill="grey"> &lt;((_Nb)/(__CHAR_BIT</text>
<text text-anchor="start" x="126" y="-117.76" font-family="Helvetica,sans-Serif" font-size="10.00" fill="grey">__ *__SIZEOF_LONG__)</text>
<text text-anchor="start" x="126" y="-106.76" font-family="Helvetica,sans-Serif" font-size="10.00" fill="grey">+((_Nb) %(__CHAR_BIT</text>
<text text-anchor="start" x="126" y="-95.76" font-family="Helvetica,sans-Serif" font-size="10.00" fill="grey">__ *__SIZEOF_LONG__)=</text>
<text text-anchor="middle" x="186.5" y="-84.76" font-family="Helvetica,sans-Serif" font-size="10.00" fill="grey">=0 ? 0 :1))&gt;</text>
</g>
<!-- Node5&#45;&gt;Node2 -->
<g id="edge4_Node000002_Node000005" class="edge">
<title>Node5&#45;&gt;Node2</title>
<g id="a_edge4_Node000002_Node000005"><a xlink:title=" ">
<path fill="none" stroke="orange" stroke-dasharray="5,2" d="M522.54,-126.34C535.17,-136.41 551.45,-147.54 568,-153.76 600.66,-166.04 683.16,-173.88 750.97,-178.45"/>
<polygon fill="orange" stroke="orange" points="524.73,-123.61 514.79,-119.93 520.26,-129 524.73,-123.61"/>
</a>
</g>
<text text-anchor="start" x="568" y="-201.76" font-family="Helvetica,sans-Serif" font-size="10.00" fill="grey"> &lt; application::app</text>
<text text-anchor="start" x="568" y="-190.76" font-family="Helvetica,sans-Serif" font-size="10.00" fill="grey">_dp::Bottom&lt; BehavioralInstance</text>
<text text-anchor="middle" x="650.5" y="-179.76" font-family="Helvetica,sans-Serif" font-size="10.00" fill="grey"> &gt;::value &gt;</text>
</g>
<!-- Node5&#45;&gt;Node6 -->
<g id="edge8_Node000006_Node000005" class="edge">
<title>Node5&#45;&gt;Node6</title>
<g id="a_edge8_Node000006_Node000005"><a xlink:title=" ">
<path fill="none" stroke="orange" stroke-dasharray="5,2" d="M560.58,-108.27C613.38,-111.25 690.21,-115.59 751.8,-119.07"/>
<polygon fill="orange" stroke="orange" points="560.54,-104.76 550.35,-107.69 560.14,-111.75 560.54,-104.76"/>
</a>
</g>
<text text-anchor="start" x="569" y="-141.76" font-family="Helvetica,sans-Serif" font-size="10.00" fill="grey"> &lt; application::app</text>
<text text-anchor="start" x="569" y="-130.76" font-family="Helvetica,sans-Serif" font-size="10.00" fill="grey">_dp::Bottom&lt; CreationalInstance</text>
<text text-anchor="middle" x="650.5" y="-119.76" font-family="Helvetica,sans-Serif" font-size="10.00" fill="grey"> &gt;::value &gt;</text>
</g>
<!-- Node5&#45;&gt;Node7 -->
<g id="edge11_Node000007_Node000005" class="edge">
<title>Node5&#45;&gt;Node7</title>
<g id="a_edge11_Node000007_Node000005"><a xlink:title=" ">
<path fill="none" stroke="orange" stroke-dasharray="5,2" d="M532.79,-84.97C543.69,-79.65 556.04,-74.59 568,-71.76 628.46,-57.47 698.17,-55.77 753.45,-57.74"/>
<polygon fill="orange" stroke="orange" points="530.92,-81.99 523.62,-89.67 534.12,-88.22 530.92,-81.99"/>
</a>
</g>
<text text-anchor="start" x="570.5" y="-96.76" font-family="Helvetica,sans-Serif" font-size="10.00" fill="grey"> &lt; application::app</text>
<text text-anchor="start" x="570.5" y="-85.76" font-family="Helvetica,sans-Serif" font-size="10.00" fill="grey">_dp::Bottom&lt; StructuralInstance</text>
<text text-anchor="middle" x="650.5" y="-74.76" font-family="Helvetica,sans-Serif" font-size="10.00" fill="grey"> &gt;::value &gt;</text>
</g>
<!-- Node6&#45;&gt;Node1 -->
<g id="edge6_Node000001_Node000006" class="edge">
<title>Node6&#45;&gt;Node1</title>
<g id="a_edge6_Node000001_Node000006"><a xlink:title=" ">
<path fill="none" stroke="#9a32cd" stroke-dasharray="5,2" d="M965.23,-124.76C998.25,-124.76 1033.03,-124.76 1060.91,-124.76"/>
<polygon fill="#9a32cd" stroke="#9a32cd" points="965.05,-121.26 955.05,-124.76 965.05,-128.26 965.05,-121.26"/>
</a>
</g>
<text text-anchor="middle" x="1008.5" y="-127.76" font-family="Helvetica,sans-Serif" font-size="10.00" fill="grey"> creationalBit</text>
</g>
<!-- Node7&#45;&gt;Node1 -->
<g id="edge9_Node000001_Node000007" class="edge">
<title>Node7&#45;&gt;Node1</title>
<g id="a_edge9_Node000001_Node000007"><a xlink:title=" ">
<path fill="none" stroke="#9a32cd" stroke-dasharray="5,2" d="M955.73,-88.56C991.38,-96.58 1030.13,-105.31 1060.65,-112.18"/>
<polygon fill="#9a32cd" stroke="#9a32cd" points="956.29,-85.1 945.77,-86.31 954.75,-91.92 956.29,-85.1"/>
</a>
</g>
<text text-anchor="middle" x="1008.5" y="-109.76" font-family="Helvetica,sans-Serif" font-size="10.00" fill="grey"> structuralBit</text>
</g>
</g>
</svg>
