<?xml version="1.0" encoding="UTF-8" standalone="no"?>
<!DOCTYPE svg PUBLIC "-//W3C//DTD SVG 1.1//EN"
 "http://www.w3.org/Graphics/SVG/1.1/DTD/svg11.dtd">
<!-- Generated by graphviz version 2.43.0 (0)
 -->
<!-- Title: test::tst_num::IntegralTestBase Pages: 1 -->
<svg width="263pt" height="171pt"
 viewBox="0.00 0.00 263.00 171.00" xmlns="http://www.w3.org/2000/svg" xmlns:xlink="http://www.w3.org/1999/xlink">
<g id="graph0" class="graph" transform="scale(1 1) rotate(0) translate(4 167)">
<title>test::tst_num::IntegralTestBase</title>
<!-- Node1 -->
<g id="Node000001" class="node">
<title>Node1</title>
<g id="a_Node000001"><a xlink:title="Test base of integral.">
<polygon fill="#999999" stroke="#666666" points="168,-19 0,-19 0,0 168,0 168,-19"/>
<text text-anchor="middle" x="84" y="-7" font-family="Helvetica,sans-Serif" font-size="10.00">test::tst_num::IntegralTestBase</text>
</a>
</g>
</g>
<!-- Node2 -->
<g id="Node000002" class="node">
<title>Node2</title>
<g id="a_Node000002"><a xlink:title=" ">
<polygon fill="white" stroke="#666666" points="81,-90.5 5,-90.5 5,-71.5 81,-71.5 81,-90.5"/>
<text text-anchor="middle" x="43" y="-78.5" font-family="Helvetica,sans-Serif" font-size="10.00">testing::Test</text>
</a>
</g>
</g>
<!-- Node2&#45;&gt;Node1 -->
<g id="edge1_Node000001_Node000002" class="edge">
<title>Node2&#45;&gt;Node1</title>
<g id="a_edge1_Node000001_Node000002"><a xlink:title=" ">
<path fill="none" stroke="#63b8ff" d="M53.12,-62.84C61.32,-48.95 72.52,-29.96 78.93,-19.09"/>
<polygon fill="#63b8ff" stroke="#63b8ff" points="50.09,-61.09 48.03,-71.48 56.12,-64.64 50.09,-61.09"/>
</a>
</g>
</g>
<!-- Node3 -->
<g id="Node000003" class="node">
<title>Node3</title>
<g id="a_Node000003"><a xlink:href="../../dc/db0/classapplication_1_1app__num_1_1integral_1_1input_1_1Expression1.html" target="_top" xlink:title="Expression example 1.">
<polygon fill="white" stroke="#666666" points="255,-96 99,-96 99,-66 255,-66 255,-96"/>
<text text-anchor="start" x="107" y="-84" font-family="Helvetica,sans-Serif" font-size="10.00">application::app_num</text>
<text text-anchor="middle" x="177" y="-73" font-family="Helvetica,sans-Serif" font-size="10.00">::integral::input::Expression1</text>
</a>
</g>
</g>
<!-- Node3&#45;&gt;Node1 -->
<g id="edge2_Node000001_Node000003" class="edge">
<title>Node3&#45;&gt;Node1</title>
<g id="a_edge2_Node000001_Node000003"><a xlink:title=" ">
<path fill="none" stroke="#9a32cd" stroke-dasharray="5,2" d="M149.75,-59.64C131.69,-46.14 108.92,-29.12 95.46,-19.07"/>
<polygon fill="#9a32cd" stroke="#9a32cd" points="148.07,-62.75 158.18,-65.94 152.26,-57.15 148.07,-62.75"/>
</a>
</g>
<text text-anchor="middle" x="164.5" y="-40" font-family="Helvetica,sans-Serif" font-size="10.00" fill="grey"> expression1</text>
</g>
<!-- Node4 -->
<g id="Node000004" class="node">
<title>Node4</title>
<g id="a_Node000004"><a xlink:href="../../dc/d59/classnumeric_1_1integral_1_1Expression.html" target="_top" xlink:title="Target expressions.">
<polygon fill="white" stroke="#666666" points="230,-163 124,-163 124,-133 230,-133 230,-163"/>
<text text-anchor="start" x="132" y="-151" font-family="Helvetica,sans-Serif" font-size="10.00">numeric::integral::</text>
<text text-anchor="middle" x="177" y="-140" font-family="Helvetica,sans-Serif" font-size="10.00">Expression</text>
</a>
</g>
</g>
<!-- Node4&#45;&gt;Node3 -->
<g id="edge3_Node000003_Node000004" class="edge">
<title>Node4&#45;&gt;Node3</title>
<g id="a_edge3_Node000003_Node000004"><a xlink:title=" ">
<path fill="none" stroke="#63b8ff" d="M177,-122.61C177,-113.65 177,-103.82 177,-96.08"/>
<polygon fill="#63b8ff" stroke="#63b8ff" points="173.5,-122.9 177,-132.9 180.5,-122.9 173.5,-122.9"/>
</a>
</g>
</g>
</g>
</svg>
