<?xml version="1.0" encoding="UTF-8" standalone="no"?>
<!DOCTYPE svg PUBLIC "-//W3C//DTD SVG 1.1//EN"
 "http://www.w3.org/Graphics/SVG/1.1/DTD/svg11.dtd">
<!-- Generated by graphviz version 2.43.0 (0)
 -->
<!-- Title: design_pattern::structural::decorator::ConcreteDecoratorA Pages: 1 -->
<svg width="922pt" height="98pt"
 viewBox="0.00 0.00 922.00 97.50" xmlns="http://www.w3.org/2000/svg" xmlns:xlink="http://www.w3.org/1999/xlink">
<g id="graph0" class="graph" transform="scale(1 1) rotate(0) translate(4 93.5)">
<title>design_pattern::structural::decorator::ConcreteDecoratorA</title>
<!-- Node1 -->
<g id="Node000001" class="node">
<title>Node1</title>
<g id="a_Node000001"><a xlink:title="The concrete decorator.">
<polygon fill="#999999" stroke="#666666" points="914,-62.5 741,-62.5 741,-32.5 914,-32.5 914,-62.5"/>
<text text-anchor="start" x="749" y="-50.5" font-family="Helvetica,sans-Serif" font-size="10.00">design_pattern::structural</text>
<text text-anchor="middle" x="827.5" y="-39.5" font-family="Helvetica,sans-Serif" font-size="10.00">::decorator::ConcreteDecoratorA</text>
</a>
</g>
</g>
<!-- Node2 -->
<g id="Node000002" class="node">
<title>Node2</title>
<g id="a_Node000002"><a xlink:href="../../d1/d0c/classdesign__pattern_1_1structural_1_1decorator_1_1Decorator.html" target="_top" xlink:title="Reference to the component. Add responsibilities to the component.">
<polygon fill="white" stroke="#666666" points="704,-62.5 562,-62.5 562,-32.5 704,-32.5 704,-62.5"/>
<text text-anchor="start" x="570" y="-50.5" font-family="Helvetica,sans-Serif" font-size="10.00">design_pattern::structural</text>
<text text-anchor="middle" x="633" y="-39.5" font-family="Helvetica,sans-Serif" font-size="10.00">::decorator::Decorator</text>
</a>
</g>
</g>
<!-- Node2&#45;&gt;Node1 -->
<g id="edge1_Node000001_Node000002" class="edge">
<title>Node2&#45;&gt;Node1</title>
<g id="a_edge1_Node000001_Node000002"><a xlink:title=" ">
<path fill="none" stroke="#63b8ff" d="M714.23,-47.5C723,-47.5 731.94,-47.5 740.77,-47.5"/>
<polygon fill="#63b8ff" stroke="#63b8ff" points="714.04,-44 704.04,-47.5 714.04,-51 714.04,-44"/>
</a>
</g>
</g>
<!-- Node3 -->
<g id="Node000003" class="node">
<title>Node3</title>
<g id="a_Node000003"><a xlink:href="../../d1/d9b/classdesign__pattern_1_1structural_1_1decorator_1_1Component.html" target="_top" xlink:title="The component to which additional responsibilities can be attached.">
<polygon fill="white" stroke="#666666" points="468,-89.5 326,-89.5 326,-59.5 468,-59.5 468,-89.5"/>
<text text-anchor="start" x="334" y="-77.5" font-family="Helvetica,sans-Serif" font-size="10.00">design_pattern::structural</text>
<text text-anchor="middle" x="397" y="-66.5" font-family="Helvetica,sans-Serif" font-size="10.00">::decorator::Component</text>
</a>
</g>
</g>
<!-- Node3&#45;&gt;Node2 -->
<g id="edge2_Node000002_Node000003" class="edge">
<title>Node3&#45;&gt;Node2</title>
<g id="a_edge2_Node000002_Node000003"><a xlink:title=" ">
<path fill="none" stroke="#63b8ff" d="M478.44,-65.22C505.56,-62.09 535.58,-58.62 561.84,-55.6"/>
<polygon fill="#63b8ff" stroke="#63b8ff" points="477.74,-61.78 468.21,-66.4 478.54,-68.73 477.74,-61.78"/>
</a>
</g>
</g>
<!-- Node4 -->
<g id="Node000004" class="node">
<title>Node4</title>
<g id="a_Node000004"><a target="_parent" xlink:href="https://gcc.gnu.org/onlinedocs/gcc-12.3.0/libstdc++/api/a07571.html" xlink:title=" ">
<polygon fill="white" stroke="#666666" points="465.5,-41 328.5,-41 328.5,0 465.5,0 465.5,-41"/>
<text text-anchor="start" x="336.5" y="-29" font-family="Helvetica,sans-Serif" font-size="10.00">std::shared_ptr&lt; design</text>
<text text-anchor="start" x="336.5" y="-18" font-family="Helvetica,sans-Serif" font-size="10.00">_pattern::structural::</text>
<text text-anchor="middle" x="397" y="-7" font-family="Helvetica,sans-Serif" font-size="10.00">decorator::Component &gt;</text>
</a>
</g>
</g>
<!-- Node4&#45;&gt;Node2 -->
<g id="edge3_Node000002_Node000004" class="edge">
<title>Node4&#45;&gt;Node2</title>
<g id="a_edge3_Node000002_Node000004"><a xlink:title=" ">
<path fill="none" stroke="#9a32cd" stroke-dasharray="5,2" d="M475.74,-29.47C503.47,-32.67 534.54,-36.25 561.62,-39.38"/>
<polygon fill="#9a32cd" stroke="#9a32cd" points="476.02,-25.98 465.68,-28.31 475.22,-32.93 476.02,-25.98"/>
</a>
</g>
<text text-anchor="middle" x="515" y="-40.5" font-family="Helvetica,sans-Serif" font-size="10.00" fill="grey"> component</text>
</g>
<!-- Node5 -->
<g id="Node000005" class="node">
<title>Node5</title>
<g id="a_Node000005"><a target="_parent" xlink:href="https://gcc.gnu.org/onlinedocs/gcc-12.3.0/libstdc++/api/a07571.html" xlink:title=" ">
<polygon fill="white" stroke="#666666" points="150,-35.5 0,-35.5 0,-5.5 150,-5.5 150,-35.5"/>
<text text-anchor="start" x="8" y="-23.5" font-family="Helvetica,sans-Serif" font-size="10.00">std::shared_ptr&lt; typename</text>
<text text-anchor="middle" x="75" y="-12.5" font-family="Helvetica,sans-Serif" font-size="10.00"> _Tp &gt;</text>
</a>
</g>
</g>
<!-- Node5&#45;&gt;Node4 -->
<g id="edge4_Node000004_Node000005" class="edge">
<title>Node5&#45;&gt;Node4</title>
<g id="a_edge4_Node000004_Node000005"><a xlink:title=" ">
<path fill="none" stroke="orange" stroke-dasharray="5,2" d="M160.52,-20.5C212.99,-20.5 279.51,-20.5 328.45,-20.5"/>
<polygon fill="orange" stroke="orange" points="160.22,-17 150.22,-20.5 160.22,-24 160.22,-17"/>
</a>
</g>
<text text-anchor="start" x="168" y="-34.5" font-family="Helvetica,sans-Serif" font-size="10.00" fill="grey"> &lt; design_pattern::structural</text>
<text text-anchor="middle" x="238" y="-23.5" font-family="Helvetica,sans-Serif" font-size="10.00" fill="grey">::decorator::Component &gt;</text>
</g>
</g>
</svg>
