<?xml version="1.0" encoding="UTF-8" standalone="no"?>
<!DOCTYPE svg PUBLIC "-//W3C//DTD SVG 1.1//EN"
 "http://www.w3.org/Graphics/SVG/1.1/DTD/svg11.dtd">
<!-- Generated by graphviz version 2.43.0 (0)
 -->
<!-- Title: utility::json::JSON Pages: 1 -->
<svg width="1023pt" height="163pt"
 viewBox="0.00 0.00 1023.00 162.50" xmlns="http://www.w3.org/2000/svg" xmlns:xlink="http://www.w3.org/1999/xlink">
<g id="graph0" class="graph" transform="scale(1 1) rotate(0) translate(4 158.5)">
<title>utility::json::JSON</title>
<!-- Node1 -->
<g id="Node000001" class="node">
<title>Node1</title>
<g id="a_Node000001"><a xlink:title="Javascript object notation.">
<polygon fill="#999999" stroke="#666666" points="1015,-84 914,-84 914,-65 1015,-65 1015,-84"/>
<text text-anchor="middle" x="964.5" y="-72" font-family="Helvetica,sans-Serif" font-size="10.00">utility::json::JSON</text>
</a>
</g>
</g>
<!-- Node2 -->
<g id="Node000002" class="node">
<title>Node2</title>
<g id="a_Node000002"><a xlink:href="../../d4/dde/unionutility_1_1json_1_1JSON_1_1Data.html" target="_top" xlink:title="Union for the data that stores JSON information.">
<polygon fill="white" stroke="#666666" points="853,-89.5 752,-89.5 752,-59.5 853,-59.5 853,-89.5"/>
<text text-anchor="start" x="760" y="-77.5" font-family="Helvetica,sans-Serif" font-size="10.00">utility::json::JSON</text>
<text text-anchor="middle" x="802.5" y="-66.5" font-family="Helvetica,sans-Serif" font-size="10.00">::Data</text>
</a>
</g>
</g>
<!-- Node2&#45;&gt;Node1 -->
<g id="edge1_Node000001_Node000002" class="edge">
<title>Node2&#45;&gt;Node1</title>
<g id="a_edge1_Node000001_Node000002"><a xlink:title=" ">
<path fill="none" stroke="#9a32cd" stroke-dasharray="5,2" d="M863.4,-74.5C880,-74.5 897.83,-74.5 913.78,-74.5"/>
<polygon fill="#9a32cd" stroke="#9a32cd" points="863.25,-71 853.25,-74.5 863.25,-78 863.25,-71"/>
</a>
</g>
<text text-anchor="middle" x="883.5" y="-77.5" font-family="Helvetica,sans-Serif" font-size="10.00" fill="grey"> data</text>
</g>
<!-- Node3 -->
<g id="Node000003" class="node">
<title>Node3</title>
<g id="a_Node000003"><a target="_parent" xlink:href="https://gcc.gnu.org/onlinedocs/gcc-12.3.0/libstdc++/api/a08631.html" xlink:title=" ">
<polygon fill="white" stroke="#666666" points="663,-149 546,-149 546,-108 663,-108 663,-149"/>
<text text-anchor="start" x="554" y="-137" font-family="Helvetica,sans-Serif" font-size="10.00">std::map&lt; std::basic</text>
<text text-anchor="start" x="554" y="-126" font-family="Helvetica,sans-Serif" font-size="10.00">_string, utility::json</text>
<text text-anchor="middle" x="604.5" y="-115" font-family="Helvetica,sans-Serif" font-size="10.00">::JSON &gt;</text>
</a>
</g>
</g>
<!-- Node3&#45;&gt;Node2 -->
<g id="edge2_Node000002_Node000003" class="edge">
<title>Node3&#45;&gt;Node2</title>
<g id="a_edge2_Node000002_Node000003"><a xlink:title=" ">
<path fill="none" stroke="#9a32cd" stroke-dasharray="5,2" d="M672.99,-109.91C698.86,-102.78 727.89,-94.78 751.8,-88.19"/>
<polygon fill="#9a32cd" stroke="#9a32cd" points="671.96,-106.56 663.25,-112.59 673.82,-113.31 671.96,-106.56"/>
</a>
</g>
<text text-anchor="middle" x="718.5" y="-104.5" font-family="Helvetica,sans-Serif" font-size="10.00" fill="grey"> map</text>
</g>
<!-- Node4 -->
<g id="Node000004" class="node">
<title>Node4</title>
<g id="a_Node000004"><a target="_parent" xlink:href="https://gcc.gnu.org/onlinedocs/gcc-12.3.0/libstdc++/api/a08631.html" xlink:title=" ">
<polygon fill="white" stroke="#666666" points="378,-154.5 201,-154.5 201,-102.5 378,-102.5 378,-154.5"/>
<text text-anchor="start" x="209" y="-142.5" font-family="Helvetica,sans-Serif" font-size="10.00">std::map&lt; typename</text>
<text text-anchor="start" x="209" y="-131.5" font-family="Helvetica,sans-Serif" font-size="10.00"> _Key, typename _Tp,</text>
<text text-anchor="start" x="209" y="-120.5" font-family="Helvetica,sans-Serif" font-size="10.00"> typename _Compare, typename</text>
<text text-anchor="middle" x="289.5" y="-109.5" font-family="Helvetica,sans-Serif" font-size="10.00"> _Alloc &gt;</text>
</a>
</g>
</g>
<!-- Node4&#45;&gt;Node3 -->
<g id="edge3_Node000003_Node000004" class="edge">
<title>Node4&#45;&gt;Node3</title>
<g id="a_edge3_Node000003_Node000004"><a xlink:title=" ">
<path fill="none" stroke="orange" stroke-dasharray="5,2" d="M388.29,-128.5C439.93,-128.5 501.54,-128.5 545.58,-128.5"/>
<polygon fill="orange" stroke="orange" points="388.1,-125 378.1,-128.5 388.1,-132 388.1,-125"/>
</a>
</g>
<text text-anchor="start" x="401.5" y="-142.5" font-family="Helvetica,sans-Serif" font-size="10.00" fill="grey"> &lt; std::basic_string,</text>
<text text-anchor="middle" x="451" y="-131.5" font-family="Helvetica,sans-Serif" font-size="10.00" fill="grey"> utility::json::JSON &gt;</text>
</g>
<!-- Node5 -->
<g id="Node000005" class="node">
<title>Node5</title>
<g id="a_Node000005"><a target="_parent" xlink:href="https://gcc.gnu.org/onlinedocs/gcc-12.3.0/libstdc++/api/a08111.html" xlink:title=" ">
<polygon fill="white" stroke="#666666" points="658,-89.5 551,-89.5 551,-59.5 658,-59.5 658,-89.5"/>
<text text-anchor="start" x="559" y="-77.5" font-family="Helvetica,sans-Serif" font-size="10.00">std::deque&lt; utility</text>
<text text-anchor="middle" x="604.5" y="-66.5" font-family="Helvetica,sans-Serif" font-size="10.00">::json::JSON &gt;</text>
</a>
</g>
</g>
<!-- Node5&#45;&gt;Node2 -->
<g id="edge4_Node000002_Node000005" class="edge">
<title>Node5&#45;&gt;Node2</title>
<g id="a_edge4_Node000002_Node000005"><a xlink:title=" ">
<path fill="none" stroke="#9a32cd" stroke-dasharray="5,2" d="M668.17,-74.5C695.24,-74.5 726.45,-74.5 751.87,-74.5"/>
<polygon fill="#9a32cd" stroke="#9a32cd" points="668.02,-71 658.02,-74.5 668.02,-78 668.02,-71"/>
</a>
</g>
<text text-anchor="middle" x="718.5" y="-77.5" font-family="Helvetica,sans-Serif" font-size="10.00" fill="grey"> list</text>
</g>
<!-- Node6 -->
<g id="Node000006" class="node">
<title>Node6</title>
<g id="a_Node000006"><a target="_parent" xlink:href="https://gcc.gnu.org/onlinedocs/gcc-12.3.0/libstdc++/api/a08099.html" xlink:title=" ">
<polygon fill="white" stroke="#666666" points="164,-67.5 0,-67.5 0,-37.5 164,-37.5 164,-67.5"/>
<text text-anchor="start" x="8" y="-55.5" font-family="Helvetica,sans-Serif" font-size="10.00">std::_Deque_base&lt; typename</text>
<text text-anchor="middle" x="82" y="-44.5" font-family="Helvetica,sans-Serif" font-size="10.00"> _Tp, typename _Alloc &gt;</text>
</a>
</g>
</g>
<!-- Node6&#45;&gt;Node5 -->
<g id="edge5_Node000005_Node000006" class="edge">
<title>Node6&#45;&gt;Node5</title>
<g id="a_edge5_Node000005_Node000006"><a xlink:title=" ">
<path fill="none" stroke="darkgreen" d="M174.05,-56.35C283.18,-60.96 462.37,-68.53 550.78,-72.27"/>
<polygon fill="darkgreen" stroke="darkgreen" points="174.18,-52.85 164.04,-55.93 173.89,-59.84 174.18,-52.85"/>
</a>
</g>
</g>
<!-- Node7 -->
<g id="Node000007" class="node">
<title>Node7</title>
<g id="a_Node000007"><a target="_parent" xlink:href="https://gcc.gnu.org/onlinedocs/gcc-12.3.0/libstdc++/api/a08111.html" xlink:title=" ">
<polygon fill="white" stroke="#666666" points="357.5,-46.5 221.5,-46.5 221.5,-16.5 357.5,-16.5 357.5,-46.5"/>
<text text-anchor="start" x="229.5" y="-34.5" font-family="Helvetica,sans-Serif" font-size="10.00">std::deque&lt; typename</text>
<text text-anchor="middle" x="289.5" y="-23.5" font-family="Helvetica,sans-Serif" font-size="10.00"> _Tp, typename _Alloc &gt;</text>
</a>
</g>
</g>
<!-- Node6&#45;&gt;Node7 -->
<g id="edge7_Node000007_Node000006" class="edge">
<title>Node6&#45;&gt;Node7</title>
<g id="a_edge7_Node000007_Node000006"><a xlink:title=" ">
<path fill="none" stroke="darkgreen" d="M174.52,-43.15C190.31,-41.53 206.45,-39.89 221.43,-38.35"/>
<polygon fill="darkgreen" stroke="darkgreen" points="173.81,-39.7 164.22,-44.2 174.52,-46.67 173.81,-39.7"/>
</a>
</g>
</g>
<!-- Node7&#45;&gt;Node5 -->
<g id="edge6_Node000005_Node000007" class="edge">
<title>Node7&#45;&gt;Node5</title>
<g id="a_edge6_Node000005_Node000007"><a xlink:title=" ">
<path fill="none" stroke="orange" stroke-dasharray="5,2" d="M368.08,-34.83C409.27,-37.39 460.61,-41.84 506,-49.5 520.9,-52.02 536.87,-55.68 551.47,-59.44"/>
<polygon fill="orange" stroke="orange" points="368.03,-31.32 357.84,-34.22 367.61,-38.31 368.03,-31.32"/>
</a>
</g>
<text text-anchor="middle" x="451" y="-52.5" font-family="Helvetica,sans-Serif" font-size="10.00" fill="grey"> &lt; utility::json::JSON &gt;</text>
</g>
<!-- Node8 -->
<g id="Node000008" class="node">
<title>Node8</title>
<g id="a_Node000008"><a target="_parent" xlink:href="https://gcc.gnu.org/onlinedocs/gcc-12.3.0/libstdc++/api/a05563.html" xlink:title=" ">
<polygon fill="white" stroke="#666666" points="685,-41 524,-41 524,0 685,0 685,-41"/>
<text text-anchor="start" x="532" y="-29" font-family="Helvetica,sans-Serif" font-size="10.00">std::basic_string&lt;</text>
<text text-anchor="start" x="532" y="-18" font-family="Helvetica,sans-Serif" font-size="10.00"> typename _CharT, typename</text>
<text text-anchor="middle" x="604.5" y="-7" font-family="Helvetica,sans-Serif" font-size="10.00"> _Traits, typename _Alloc &gt;</text>
</a>
</g>
</g>
<!-- Node8&#45;&gt;Node2 -->
<g id="edge8_Node000002_Node000008" class="edge">
<title>Node8&#45;&gt;Node2</title>
<g id="a_edge8_Node000002_Node000008"><a xlink:title=" ">
<path fill="none" stroke="#9a32cd" stroke-dasharray="5,2" d="M689.82,-43.73C711.01,-49.57 733.07,-55.65 751.93,-60.84"/>
<polygon fill="#9a32cd" stroke="#9a32cd" points="690.73,-40.35 680.16,-41.07 688.87,-47.1 690.73,-40.35"/>
</a>
</g>
<text text-anchor="middle" x="718.5" y="-57.5" font-family="Helvetica,sans-Serif" font-size="10.00" fill="grey"> string</text>
</g>
</g>
</svg>
