<?xml version="1.0" encoding="UTF-8" standalone="no"?>
<!DOCTYPE svg PUBLIC "-//W3C//DTD SVG 1.1//EN"
 "http://www.w3.org/Graphics/SVG/1.1/DTD/svg11.dtd">
<!-- Generated by graphviz version 2.43.0 (0)
 -->
<!-- Title: application::command::Command::RegularTask::reset Pages: 1 -->
<svg width="1155pt" height="116pt"
 viewBox="0.00 0.00 1155.00 116.00" xmlns="http://www.w3.org/2000/svg" xmlns:xlink="http://www.w3.org/1999/xlink">
<g id="graph0" class="graph" transform="scale(1 1) rotate(0) translate(4 112)">
<title>application::command::Command::RegularTask::reset</title>
<!-- Node1 -->
<g id="Node000001" class="node">
<title>Node1</title>
<g id="a_Node000001"><a xlink:title="Reset bit flags that manage regular tasks.">
<polygon fill="#999999" stroke="#666666" points="1147,-62.5 1009,-62.5 1009,-21.5 1147,-21.5 1147,-62.5"/>
<text text-anchor="start" x="1017" y="-50.5" font-family="Helvetica,sans-Serif" font-size="10.00">application::command</text>
<text text-anchor="start" x="1017" y="-39.5" font-family="Helvetica,sans-Serif" font-size="10.00">::Command::RegularTask</text>
<text text-anchor="middle" x="1078" y="-28.5" font-family="Helvetica,sans-Serif" font-size="10.00">::reset</text>
</a>
</g>
</g>
<!-- Node2 -->
<g id="Node000002" class="node">
<title>Node2</title>
<g id="a_Node000002"><a xlink:href="../../de/d8f/structapplication_1_1command_1_1Command_1_1DispatchedTask.html#a9ec1bccf7f7f19cd41b21ef20a17a69e" target="_top" xlink:title="Reset bit flags that manage all tasks.">
<polygon fill="white" stroke="#666666" points="973,-62.5 818,-62.5 818,-21.5 973,-21.5 973,-62.5"/>
<text text-anchor="start" x="826" y="-50.5" font-family="Helvetica,sans-Serif" font-size="10.00">application::command</text>
<text text-anchor="start" x="826" y="-39.5" font-family="Helvetica,sans-Serif" font-size="10.00">::Command::DispatchedTask</text>
<text text-anchor="middle" x="895.5" y="-28.5" font-family="Helvetica,sans-Serif" font-size="10.00">::reset</text>
</a>
</g>
</g>
<!-- Node1&#45;&gt;Node2 -->
<g id="edge1_Node000001_Node000002" class="edge">
<title>Node1&#45;&gt;Node2</title>
<g id="a_edge1_Node000001_Node000002"><a xlink:title=" ">
<path fill="none" stroke="#63b8ff" d="M998.61,-42C990.21,-42 981.68,-42 973.3,-42"/>
<polygon fill="#63b8ff" stroke="#63b8ff" points="998.76,-45.5 1008.76,-42 998.76,-38.5 998.76,-45.5"/>
</a>
</g>
</g>
<!-- Node3 -->
<g id="Node000003" class="node">
<title>Node3</title>
<g id="a_Node000003"><a xlink:href="../../de/dd7/classapplication_1_1command_1_1Command.html#afadc9cf56f31c11505b6181125e77473" target="_top" xlink:title="Check for excessive arguments.">
<polygon fill="white" stroke="#666666" points="782,-89.5 611,-89.5 611,-48.5 782,-48.5 782,-89.5"/>
<text text-anchor="start" x="619" y="-77.5" font-family="Helvetica,sans-Serif" font-size="10.00">application::command</text>
<text text-anchor="start" x="619" y="-66.5" font-family="Helvetica,sans-Serif" font-size="10.00">::Command::checkForExcessive</text>
<text text-anchor="middle" x="696.5" y="-55.5" font-family="Helvetica,sans-Serif" font-size="10.00">Arguments</text>
</a>
</g>
</g>
<!-- Node2&#45;&gt;Node3 -->
<g id="edge2_Node000002_Node000003" class="edge">
<title>Node2&#45;&gt;Node3</title>
<g id="a_edge2_Node000002_Node000003"><a xlink:title=" ">
<path fill="none" stroke="#63b8ff" d="M807.84,-53.88C799.32,-55.05 790.68,-56.23 782.18,-57.39"/>
<polygon fill="#63b8ff" stroke="#63b8ff" points="808.34,-57.34 817.77,-52.52 807.39,-50.41 808.34,-57.34"/>
</a>
</g>
</g>
<!-- Node8 -->
<g id="Node000008" class="node">
<title>Node8</title>
<g id="a_Node000008"><a xlink:href="../../de/dd7/classapplication_1_1command_1_1Command.html#ad3671d29bb30e49f98fc94b2fe16b7a1" target="_top" xlink:title="Destroy the Command object.">
<polygon fill="white" stroke="#666666" points="765,-30 628,-30 628,0 765,0 765,-30"/>
<text text-anchor="start" x="636" y="-18" font-family="Helvetica,sans-Serif" font-size="10.00">application::command</text>
<text text-anchor="middle" x="696.5" y="-7" font-family="Helvetica,sans-Serif" font-size="10.00">::Command::~Command</text>
</a>
</g>
</g>
<!-- Node2&#45;&gt;Node8 -->
<g id="edge8_Node000002_Node000008" class="edge">
<title>Node2&#45;&gt;Node8</title>
<g id="a_edge8_Node000002_Node000008"><a xlink:title=" ">
<path fill="none" stroke="#63b8ff" d="M807.49,-30.07C793.26,-28.12 778.71,-26.13 765.05,-24.26"/>
<polygon fill="#63b8ff" stroke="#63b8ff" points="807.39,-33.59 817.77,-31.48 808.34,-26.66 807.39,-33.59"/>
</a>
</g>
</g>
<!-- Node4 -->
<g id="Node000004" class="node">
<title>Node4</title>
<g id="a_Node000004"><a xlink:href="../../de/dd7/classapplication_1_1command_1_1Command.html#adf1bdc4c49d654653afe9f46aa46d84e" target="_top" xlink:title="Pre&#45;check the basic task.">
<polygon fill="white" stroke="#666666" points="569.5,-108 402.5,-108 402.5,-78 569.5,-78 569.5,-108"/>
<text text-anchor="start" x="410.5" y="-96" font-family="Helvetica,sans-Serif" font-size="10.00">application::command</text>
<text text-anchor="middle" x="486" y="-85" font-family="Helvetica,sans-Serif" font-size="10.00">::Command::validateBasicTask</text>
</a>
</g>
</g>
<!-- Node3&#45;&gt;Node4 -->
<g id="edge3_Node000003_Node000004" class="edge">
<title>Node3&#45;&gt;Node4</title>
<g id="a_edge3_Node000003_Node000004"><a xlink:title=" ">
<path fill="none" stroke="#63b8ff" d="M601,-79.88C590.52,-81.08 579.91,-82.31 569.6,-83.49"/>
<polygon fill="#63b8ff" stroke="#63b8ff" points="601.46,-83.35 611,-78.73 600.66,-76.39 601.46,-83.35"/>
</a>
</g>
</g>
<!-- Node7 -->
<g id="Node000007" class="node">
<title>Node7</title>
<g id="a_Node000007"><a xlink:href="../../de/dd7/classapplication_1_1command_1_1Command.html#a9196a46a45944a27fd1cb2ab75544f9f" target="_top" xlink:title="Pre&#45;check the regular task.">
<polygon fill="white" stroke="#666666" points="575,-60 397,-60 397,-30 575,-30 575,-60"/>
<text text-anchor="start" x="405" y="-48" font-family="Helvetica,sans-Serif" font-size="10.00">application::command</text>
<text text-anchor="middle" x="486" y="-37" font-family="Helvetica,sans-Serif" font-size="10.00">::Command::validateRegularTask</text>
</a>
</g>
</g>
<!-- Node3&#45;&gt;Node7 -->
<g id="edge6_Node000003_Node000007" class="edge">
<title>Node3&#45;&gt;Node7</title>
<g id="a_edge6_Node000003_Node000007"><a xlink:title=" ">
<path fill="none" stroke="#63b8ff" d="M600.93,-58.11C592.3,-57.12 583.59,-56.12 575.02,-55.13"/>
<polygon fill="#63b8ff" stroke="#63b8ff" points="600.66,-61.61 611,-59.27 601.46,-54.65 600.66,-61.61"/>
</a>
</g>
</g>
<!-- Node5 -->
<g id="Node000005" class="node">
<title>Node5</title>
<g id="a_Node000005"><a xlink:href="../../de/dd7/classapplication_1_1command_1_1Command.html#ad693981498a2ff88208efd2f97d46e25" target="_top" xlink:title="Foreground handler for parsing command line arguments.">
<polygon fill="white" stroke="#666666" points="361,-84 191,-84 191,-54 361,-54 361,-84"/>
<text text-anchor="start" x="199" y="-72" font-family="Helvetica,sans-Serif" font-size="10.00">application::command</text>
<text text-anchor="middle" x="276" y="-61" font-family="Helvetica,sans-Serif" font-size="10.00">::Command::foregroundHandler</text>
</a>
</g>
</g>
<!-- Node4&#45;&gt;Node5 -->
<g id="edge4_Node000004_Node000005" class="edge">
<title>Node4&#45;&gt;Node5</title>
<g id="a_edge4_Node000004_Node000005"><a xlink:title=" ">
<path fill="none" stroke="#63b8ff" d="M392.53,-82.33C382.07,-81.12 371.45,-79.9 361.11,-78.7"/>
<polygon fill="#63b8ff" stroke="#63b8ff" points="392.16,-85.81 402.49,-83.48 392.96,-78.86 392.16,-85.81"/>
</a>
</g>
</g>
<!-- Node6 -->
<g id="Node000006" class="node">
<title>Node6</title>
<g id="a_Node000006"><a xlink:href="../../de/dd7/classapplication_1_1command_1_1Command.html#a5d2584a4ee3f7e91ec82649f91b3b810" target="_top" xlink:title="Interface for running commander.">
<polygon fill="white" stroke="#666666" points="155,-84 0,-84 0,-54 155,-54 155,-84"/>
<text text-anchor="start" x="8" y="-72" font-family="Helvetica,sans-Serif" font-size="10.00">application::command</text>
<text text-anchor="middle" x="77.5" y="-61" font-family="Helvetica,sans-Serif" font-size="10.00">::Command::runCommander</text>
</a>
</g>
</g>
<!-- Node5&#45;&gt;Node6 -->
<g id="edge5_Node000005_Node000006" class="edge">
<title>Node5&#45;&gt;Node6</title>
<g id="a_edge5_Node000005_Node000006"><a xlink:title=" ">
<path fill="none" stroke="#63b8ff" d="M180.74,-69C172.13,-69 163.48,-69 155.06,-69"/>
<polygon fill="#63b8ff" stroke="#63b8ff" points="180.81,-72.5 190.81,-69 180.81,-65.5 180.81,-72.5"/>
</a>
</g>
</g>
<!-- Node7&#45;&gt;Node5 -->
<g id="edge7_Node000007_Node000005" class="edge">
<title>Node7&#45;&gt;Node5</title>
<g id="a_edge7_Node000007_Node000005"><a xlink:title=" ">
<path fill="none" stroke="#63b8ff" d="M386.74,-56.34C378.15,-57.33 369.5,-58.33 361.04,-59.3"/>
<polygon fill="#63b8ff" stroke="#63b8ff" points="387.26,-59.8 396.79,-55.18 386.45,-52.85 387.26,-59.8"/>
</a>
</g>
</g>
</g>
</svg>
