<?xml version="1.0" encoding="UTF-8" standalone="no"?>
<!DOCTYPE svg PUBLIC "-//W3C//DTD SVG 1.1//EN"
 "http://www.w3.org/Graphics/SVG/1.1/DTD/svg11.dtd">
<!-- Generated by graphviz version 2.43.0 (0)
 -->
<!-- Title: application::command::Command::RegularTask::empty Pages: 1 -->
<svg width="1336pt" height="129pt"
 viewBox="0.00 0.00 1336.00 129.00" xmlns="http://www.w3.org/2000/svg" xmlns:xlink="http://www.w3.org/1999/xlink">
<g id="graph0" class="graph" transform="scale(1 1) rotate(0) translate(4 125)">
<title>application::command::Command::RegularTask::empty</title>
<!-- Node1 -->
<g id="Node000001" class="node">
<title>Node1</title>
<g id="a_Node000001"><a xlink:title="Check whether any regular tasks do not exist.">
<polygon fill="#999999" stroke="#666666" points="1328,-101.5 1190,-101.5 1190,-60.5 1328,-60.5 1328,-101.5"/>
<text text-anchor="start" x="1198" y="-89.5" font-family="Helvetica,sans-Serif" font-size="10.00">application::command</text>
<text text-anchor="start" x="1198" y="-78.5" font-family="Helvetica,sans-Serif" font-size="10.00">::Command::RegularTask</text>
<text text-anchor="middle" x="1259" y="-67.5" font-family="Helvetica,sans-Serif" font-size="10.00">::empty</text>
</a>
</g>
</g>
<!-- Node2 -->
<g id="Node000002" class="node">
<title>Node2</title>
<g id="a_Node000002"><a xlink:href="../../de/dd7/classapplication_1_1command_1_1Command.html#ac485cf00df307e7ad483750876583131" target="_top" xlink:title="Dispatch specific tasks.">
<polygon fill="white" stroke="#666666" points="963,-121 821,-121 821,-91 963,-91 963,-121"/>
<text text-anchor="start" x="829" y="-109" font-family="Helvetica,sans-Serif" font-size="10.00">application::command</text>
<text text-anchor="middle" x="892" y="-98" font-family="Helvetica,sans-Serif" font-size="10.00">::Command::dispatchTask</text>
</a>
</g>
</g>
<!-- Node1&#45;&gt;Node2 -->
<g id="edge1_Node000001_Node000002" class="edge">
<title>Node1&#45;&gt;Node2</title>
<g id="a_edge1_Node000001_Node000002"><a xlink:title=" ">
<path fill="none" stroke="#63b8ff" d="M1179.68,-86.36C1115.34,-90.77 1025.04,-96.96 963.07,-101.2"/>
<polygon fill="#63b8ff" stroke="#63b8ff" points="1180.04,-89.85 1189.77,-85.67 1179.56,-82.86 1180.04,-89.85"/>
</a>
</g>
</g>
<!-- Node5 -->
<g id="Node000005" class="node">
<title>Node5</title>
<g id="a_Node000005"><a xlink:href="../../de/d8f/structapplication_1_1command_1_1Command_1_1DispatchedTask.html#a9598e9971f0b8baa89aed57cbff0c378" target="_top" xlink:title="Check whether any tasks do not exist.">
<polygon fill="white" stroke="#666666" points="1154,-77.5 999,-77.5 999,-36.5 1154,-36.5 1154,-77.5"/>
<text text-anchor="start" x="1007" y="-65.5" font-family="Helvetica,sans-Serif" font-size="10.00">application::command</text>
<text text-anchor="start" x="1007" y="-54.5" font-family="Helvetica,sans-Serif" font-size="10.00">::Command::DispatchedTask</text>
<text text-anchor="middle" x="1076.5" y="-43.5" font-family="Helvetica,sans-Serif" font-size="10.00">::empty</text>
</a>
</g>
</g>
<!-- Node1&#45;&gt;Node5 -->
<g id="edge4_Node000001_Node000005" class="edge">
<title>Node1&#45;&gt;Node5</title>
<g id="a_edge4_Node000001_Node000005"><a xlink:title=" ">
<path fill="none" stroke="#63b8ff" d="M1179.61,-70.58C1171.21,-69.46 1162.68,-68.33 1154.3,-67.21"/>
<polygon fill="#63b8ff" stroke="#63b8ff" points="1179.39,-74.08 1189.76,-71.93 1180.31,-67.14 1179.39,-74.08"/>
</a>
</g>
</g>
<!-- Node3 -->
<g id="Node000003" class="node">
<title>Node3</title>
<g id="a_Node000003"><a xlink:href="../../de/dd7/classapplication_1_1command_1_1Command.html#a19fb2a7d1e940b120bcfc134880d1468" target="_top" xlink:title="Background handler for performing the specific task.">
<polygon fill="white" stroke="#666666" points="785,-121 611,-121 611,-91 785,-91 785,-121"/>
<text text-anchor="start" x="619" y="-109" font-family="Helvetica,sans-Serif" font-size="10.00">application::command</text>
<text text-anchor="middle" x="698" y="-98" font-family="Helvetica,sans-Serif" font-size="10.00">::Command::backgroundHandler</text>
</a>
</g>
</g>
<!-- Node2&#45;&gt;Node3 -->
<g id="edge2_Node000002_Node000003" class="edge">
<title>Node2&#45;&gt;Node3</title>
<g id="a_edge2_Node000002_Node000003"><a xlink:title=" ">
<path fill="none" stroke="#63b8ff" d="M810.72,-106C802.31,-106 793.75,-106 785.28,-106"/>
<polygon fill="#63b8ff" stroke="#63b8ff" points="810.87,-109.5 820.87,-106 810.87,-102.5 810.87,-109.5"/>
</a>
</g>
</g>
<!-- Node4 -->
<g id="Node000004" class="node">
<title>Node4</title>
<g id="a_Node000004"><a xlink:href="../../de/dd7/classapplication_1_1command_1_1Command.html#a5d2584a4ee3f7e91ec82649f91b3b810" target="_top" xlink:title="Interface for running commander.">
<polygon fill="white" stroke="#666666" points="155,-99 0,-99 0,-69 155,-69 155,-99"/>
<text text-anchor="start" x="8" y="-87" font-family="Helvetica,sans-Serif" font-size="10.00">application::command</text>
<text text-anchor="middle" x="77.5" y="-76" font-family="Helvetica,sans-Serif" font-size="10.00">::Command::runCommander</text>
</a>
</g>
</g>
<!-- Node3&#45;&gt;Node4 -->
<g id="edge3_Node000003_Node000004" class="edge">
<title>Node3&#45;&gt;Node4</title>
<g id="a_edge3_Node000003_Node000004"><a xlink:title=" ">
<path fill="none" stroke="#63b8ff" d="M600.53,-102.57C477.72,-98.2 268.03,-90.74 155.41,-86.74"/>
<polygon fill="#63b8ff" stroke="#63b8ff" points="600.56,-106.07 610.67,-102.93 600.81,-99.08 600.56,-106.07"/>
</a>
</g>
</g>
<!-- Node6 -->
<g id="Node000006" class="node">
<title>Node6</title>
<g id="a_Node000006"><a xlink:href="../../de/dd7/classapplication_1_1command_1_1Command.html#ae945c92e348f25a987f8b8d590a7e3e9" target="_top" xlink:title="Check whether any tasks exist.">
<polygon fill="white" stroke="#666666" points="960.5,-72 823.5,-72 823.5,-42 960.5,-42 960.5,-72"/>
<text text-anchor="start" x="831.5" y="-60" font-family="Helvetica,sans-Serif" font-size="10.00">application::command</text>
<text text-anchor="middle" x="892" y="-49" font-family="Helvetica,sans-Serif" font-size="10.00">::Command::hasAnyTask</text>
</a>
</g>
</g>
<!-- Node5&#45;&gt;Node6 -->
<g id="edge5_Node000005_Node000006" class="edge">
<title>Node5&#45;&gt;Node6</title>
<g id="a_edge5_Node000005_Node000006"><a xlink:title=" ">
<path fill="none" stroke="#63b8ff" d="M988.73,-57C979.32,-57 969.84,-57 960.71,-57"/>
<polygon fill="#63b8ff" stroke="#63b8ff" points="988.9,-60.5 998.9,-57 988.9,-53.5 988.9,-60.5"/>
</a>
</g>
</g>
<!-- Node6&#45;&gt;Node3 -->
<g id="edge6_Node000006_Node000003" class="edge">
<title>Node6&#45;&gt;Node3</title>
<g id="a_edge6_Node000006_Node000003"><a xlink:title=" ">
<path fill="none" stroke="#63b8ff" d="M822.23,-74.55C801.15,-79.93 778.15,-85.8 757.8,-90.99"/>
<polygon fill="#63b8ff" stroke="#63b8ff" points="823.26,-77.9 832.09,-72.03 821.53,-71.12 823.26,-77.9"/>
</a>
</g>
</g>
<!-- Node7 -->
<g id="Node000007" class="node">
<title>Node7</title>
<g id="a_Node000007"><a xlink:href="../../de/dd7/classapplication_1_1command_1_1Command.html#afadc9cf56f31c11505b6181125e77473" target="_top" xlink:title="Check for excessive arguments.">
<polygon fill="white" stroke="#666666" points="783.5,-72.5 612.5,-72.5 612.5,-31.5 783.5,-31.5 783.5,-72.5"/>
<text text-anchor="start" x="620.5" y="-60.5" font-family="Helvetica,sans-Serif" font-size="10.00">application::command</text>
<text text-anchor="start" x="620.5" y="-49.5" font-family="Helvetica,sans-Serif" font-size="10.00">::Command::checkForExcessive</text>
<text text-anchor="middle" x="698" y="-38.5" font-family="Helvetica,sans-Serif" font-size="10.00">Arguments</text>
</a>
</g>
</g>
<!-- Node6&#45;&gt;Node7 -->
<g id="edge7_Node000006_Node000007" class="edge">
<title>Node6&#45;&gt;Node7</title>
<g id="a_edge7_Node000006_Node000007"><a xlink:title=" ">
<path fill="none" stroke="#63b8ff" d="M813.24,-54.98C803.47,-54.72 793.44,-54.46 783.58,-54.2"/>
<polygon fill="#63b8ff" stroke="#63b8ff" points="813.22,-58.48 823.31,-55.24 813.4,-51.48 813.22,-58.48"/>
</a>
</g>
</g>
<!-- Node8 -->
<g id="Node000008" class="node">
<title>Node8</title>
<g id="a_Node000008"><a xlink:href="../../de/dd7/classapplication_1_1command_1_1Command.html#adf1bdc4c49d654653afe9f46aa46d84e" target="_top" xlink:title="Pre&#45;check the basic task.">
<polygon fill="white" stroke="#666666" points="569.5,-78 402.5,-78 402.5,-48 569.5,-48 569.5,-78"/>
<text text-anchor="start" x="410.5" y="-66" font-family="Helvetica,sans-Serif" font-size="10.00">application::command</text>
<text text-anchor="middle" x="486" y="-55" font-family="Helvetica,sans-Serif" font-size="10.00">::Command::validateBasicTask</text>
</a>
</g>
</g>
<!-- Node7&#45;&gt;Node8 -->
<g id="edge8_Node000007_Node000008" class="edge">
<title>Node7&#45;&gt;Node8</title>
<g id="a_edge8_Node000007_Node000008"><a xlink:title=" ">
<path fill="none" stroke="#63b8ff" d="M602.48,-56.95C591.53,-57.52 580.41,-58.11 569.63,-58.67"/>
<polygon fill="#63b8ff" stroke="#63b8ff" points="602.69,-60.44 612.49,-56.43 602.32,-53.45 602.69,-60.44"/>
</a>
</g>
</g>
<!-- Node10 -->
<g id="Node000010" class="node">
<title>Node10</title>
<g id="a_Node000010"><a xlink:href="../../de/dd7/classapplication_1_1command_1_1Command.html#a9196a46a45944a27fd1cb2ab75544f9f" target="_top" xlink:title="Pre&#45;check the regular task.">
<polygon fill="white" stroke="#666666" points="575,-30 397,-30 397,0 575,0 575,-30"/>
<text text-anchor="start" x="405" y="-18" font-family="Helvetica,sans-Serif" font-size="10.00">application::command</text>
<text text-anchor="middle" x="486" y="-7" font-family="Helvetica,sans-Serif" font-size="10.00">::Command::validateRegularTask</text>
</a>
</g>
</g>
<!-- Node7&#45;&gt;Node10 -->
<g id="edge11_Node000007_Node000010" class="edge">
<title>Node7&#45;&gt;Node10</title>
<g id="a_edge11_Node000007_Node000010"><a xlink:title=" ">
<path fill="none" stroke="#63b8ff" d="M602.51,-35.35C592.46,-33.58 582.29,-31.79 572.36,-30.04"/>
<polygon fill="#63b8ff" stroke="#63b8ff" points="602.04,-38.82 612.49,-37.11 603.25,-31.93 602.04,-38.82"/>
</a>
</g>
</g>
<!-- Node9 -->
<g id="Node000009" class="node">
<title>Node9</title>
<g id="a_Node000009"><a xlink:href="../../de/dd7/classapplication_1_1command_1_1Command.html#ad693981498a2ff88208efd2f97d46e25" target="_top" xlink:title="Foreground handler for parsing command line arguments.">
<polygon fill="white" stroke="#666666" points="361,-78 191,-78 191,-48 361,-48 361,-78"/>
<text text-anchor="start" x="199" y="-66" font-family="Helvetica,sans-Serif" font-size="10.00">application::command</text>
<text text-anchor="middle" x="276" y="-55" font-family="Helvetica,sans-Serif" font-size="10.00">::Command::foregroundHandler</text>
</a>
</g>
</g>
<!-- Node8&#45;&gt;Node9 -->
<g id="edge9_Node000008_Node000009" class="edge">
<title>Node8&#45;&gt;Node9</title>
<g id="a_edge9_Node000008_Node000009"><a xlink:title=" ">
<path fill="none" stroke="#63b8ff" d="M392.21,-63C381.85,-63 371.35,-63 361.11,-63"/>
<polygon fill="#63b8ff" stroke="#63b8ff" points="392.49,-66.5 402.49,-63 392.49,-59.5 392.49,-66.5"/>
</a>
</g>
</g>
<!-- Node9&#45;&gt;Node4 -->
<g id="edge10_Node000009_Node000004" class="edge">
<title>Node9&#45;&gt;Node4</title>
<g id="a_edge10_Node000009_Node000004"><a xlink:title=" ">
<path fill="none" stroke="#63b8ff" d="M180.74,-73.07C172.13,-73.99 163.48,-74.92 155.06,-75.82"/>
<polygon fill="#63b8ff" stroke="#63b8ff" points="181.24,-76.54 190.81,-72 180.5,-69.58 181.24,-76.54"/>
</a>
</g>
</g>
<!-- Node10&#45;&gt;Node9 -->
<g id="edge12_Node000010_Node000009" class="edge">
<title>Node10&#45;&gt;Node9</title>
<g id="a_edge12_Node000010_Node000009"><a xlink:title=" ">
<path fill="none" stroke="#63b8ff" d="M409.72,-32.37C387.55,-37.49 363.48,-43.04 342.01,-48"/>
<polygon fill="#63b8ff" stroke="#63b8ff" points="410.8,-35.71 419.76,-30.06 409.23,-28.89 410.8,-35.71"/>
</a>
</g>
</g>
</g>
</svg>
