<?xml version="1.0" encoding="UTF-8" standalone="no"?>
<!DOCTYPE svg PUBLIC "-//W3C//DTD SVG 1.1//EN"
 "http://www.w3.org/Graphics/SVG/1.1/DTD/svg11.dtd">
<!-- Generated by graphviz version 2.43.0 (0)
 -->
<!-- Title: utility::memory::Memory::deleteElement Pages: 1 -->
<svg width="303pt" height="662pt"
 viewBox="0.00 0.00 303.00 662.00" xmlns="http://www.w3.org/2000/svg" xmlns:xlink="http://www.w3.org/1999/xlink">
<g id="graph0" class="graph" transform="scale(1 1) rotate(0) translate(4 658)">
<title>utility::memory::Memory::deleteElement</title>
<!-- Node1 -->
<g id="Node000001" class="node">
<title>Node1</title>
<g id="a_Node000001"><a xlink:title="Delete an element.">
<polygon fill="#999999" stroke="#666666" points="295,-342 158,-342 158,-312 295,-312 295,-342"/>
<text text-anchor="start" x="166" y="-330" font-family="Helvetica,sans-Serif" font-size="10.00">utility::memory::Memory</text>
<text text-anchor="middle" x="226.5" y="-319" font-family="Helvetica,sans-Serif" font-size="10.00">::deleteElement</text>
</a>
</g>
</g>
<!-- Node2 -->
<g id="Node000002" class="node">
<title>Node2</title>
<g id="a_Node000002"><a xlink:href="../../de/dbe/namespaceapplication_1_1app__num.html#a76b424f8e3b3a6445fc56f41c37afa1d" target="_top" xlink:title="Run arithmetic tasks.">
<polygon fill="white" stroke="#666666" points="122,-654 0,-654 0,-624 122,-624 122,-654"/>
<text text-anchor="start" x="8" y="-642" font-family="Helvetica,sans-Serif" font-size="10.00">application::app_num</text>
<text text-anchor="middle" x="61" y="-631" font-family="Helvetica,sans-Serif" font-size="10.00">::runArithmeticTasks</text>
</a>
</g>
</g>
<!-- Node1&#45;&gt;Node2 -->
<g id="edge1_Node000001_Node000002" class="edge">
<title>Node1&#45;&gt;Node2</title>
<g id="a_edge1_Node000001_Node000002"><a xlink:title=" ">
<path fill="none" stroke="#63b8ff" d="M223.29,-352.32C217.19,-407.35 195.35,-539 122,-615 118.73,-618.39 114.91,-621.31 110.83,-623.83"/>
<polygon fill="#63b8ff" stroke="#63b8ff" points="226.81,-352.39 224.34,-342.08 219.84,-351.68 226.81,-352.39"/>
</a>
</g>
</g>
<!-- Node3 -->
<g id="Node000003" class="node">
<title>Node3</title>
<g id="a_Node000003"><a xlink:href="../../d2/dc1/namespaceapplication_1_1app__dp.html#ade97c7790ecb64cb85d2567effedcc19" target="_top" xlink:title="Run behavioral tasks.">
<polygon fill="white" stroke="#666666" points="120,-606 2,-606 2,-576 120,-576 120,-606"/>
<text text-anchor="start" x="10" y="-594" font-family="Helvetica,sans-Serif" font-size="10.00">application::app_dp</text>
<text text-anchor="middle" x="61" y="-583" font-family="Helvetica,sans-Serif" font-size="10.00">::runBehavioralTasks</text>
</a>
</g>
</g>
<!-- Node1&#45;&gt;Node3 -->
<g id="edge2_Node000001_Node000003" class="edge">
<title>Node1&#45;&gt;Node3</title>
<g id="a_edge2_Node000001_Node000003"><a xlink:title=" ">
<path fill="none" stroke="#63b8ff" d="M221.24,-352.07C211.81,-400.11 184.87,-505.79 122,-567 118.46,-570.44 114.37,-573.41 110.02,-575.97"/>
<polygon fill="#63b8ff" stroke="#63b8ff" points="224.68,-352.68 223.08,-342.2 217.8,-351.39 224.68,-352.68"/>
</a>
</g>
</g>
<!-- Node4 -->
<g id="Node000004" class="node">
<title>Node4</title>
<g id="a_Node000004"><a xlink:href="../../d2/dc1/namespaceapplication_1_1app__dp.html#a58cd5292c4ecae6e2b4d529530105b44" target="_top" xlink:title="Run creational tasks.">
<polygon fill="white" stroke="#666666" points="119,-558 3,-558 3,-528 119,-528 119,-558"/>
<text text-anchor="start" x="11" y="-546" font-family="Helvetica,sans-Serif" font-size="10.00">application::app_dp</text>
<text text-anchor="middle" x="61" y="-535" font-family="Helvetica,sans-Serif" font-size="10.00">::runCreationalTasks</text>
</a>
</g>
</g>
<!-- Node1&#45;&gt;Node4 -->
<g id="edge3_Node000001_Node000004" class="edge">
<title>Node1&#45;&gt;Node4</title>
<g id="a_edge3_Node000001_Node000004"><a xlink:title=" ">
<path fill="none" stroke="#63b8ff" d="M218.27,-351.81C205.32,-392.15 174.51,-472.16 122,-519 118.15,-522.44 113.74,-525.41 109.11,-527.98"/>
<polygon fill="#63b8ff" stroke="#63b8ff" points="221.62,-352.82 221.25,-342.23 214.94,-350.74 221.62,-352.82"/>
</a>
</g>
</g>
<!-- Node5 -->
<g id="Node000005" class="node">
<title>Node5</title>
<g id="a_Node000005"><a xlink:href="../../de/dbe/namespaceapplication_1_1app__num.html#a45c0729aaa51fd36c4ddd79758b88a6a" target="_top" xlink:title="Run divisor tasks.">
<polygon fill="white" stroke="#666666" points="122,-510 0,-510 0,-480 122,-480 122,-510"/>
<text text-anchor="start" x="8" y="-498" font-family="Helvetica,sans-Serif" font-size="10.00">application::app_num</text>
<text text-anchor="middle" x="61" y="-487" font-family="Helvetica,sans-Serif" font-size="10.00">::runDivisorTasks</text>
</a>
</g>
</g>
<!-- Node1&#45;&gt;Node5 -->
<g id="edge4_Node000001_Node000005" class="edge">
<title>Node1&#45;&gt;Node5</title>
<g id="a_edge4_Node000001_Node000005"><a xlink:title=" ">
<path fill="none" stroke="#63b8ff" d="M213.69,-351.2C197.18,-382.75 164.41,-437.81 122,-471 117.67,-474.39 112.8,-477.36 107.76,-479.95"/>
<polygon fill="#63b8ff" stroke="#63b8ff" points="216.85,-352.71 218.28,-342.22 210.61,-349.53 216.85,-352.71"/>
</a>
</g>
</g>
<!-- Node6 -->
<g id="Node000006" class="node">
<title>Node6</title>
<g id="a_Node000006"><a xlink:href="../../de/dbe/namespaceapplication_1_1app__num.html#a8f6bdfbd61df7461f8dec4cc6e1db146" target="_top" xlink:title="Run integral tasks.">
<polygon fill="white" stroke="#666666" points="122,-462 0,-462 0,-432 122,-432 122,-462"/>
<text text-anchor="start" x="8" y="-450" font-family="Helvetica,sans-Serif" font-size="10.00">application::app_num</text>
<text text-anchor="middle" x="61" y="-439" font-family="Helvetica,sans-Serif" font-size="10.00">::runIntegralTasks</text>
</a>
</g>
</g>
<!-- Node1&#45;&gt;Node6 -->
<g id="edge5_Node000001_Node000006" class="edge">
<title>Node1&#45;&gt;Node6</title>
<g id="a_edge5_Node000001_Node000006"><a xlink:title=" ">
<path fill="none" stroke="#63b8ff" d="M205.61,-349.76C186.06,-371 154.5,-402.43 122,-423 116.79,-426.3 111.04,-429.29 105.24,-431.95"/>
<polygon fill="#63b8ff" stroke="#63b8ff" points="208.37,-351.92 212.49,-342.16 203.18,-347.22 208.37,-351.92"/>
</a>
</g>
</g>
<!-- Node7 -->
<g id="Node000007" class="node">
<title>Node7</title>
<g id="a_Node000007"><a xlink:href="../../d0/dc3/namespaceapplication_1_1app__ds.html#a73a7a1dd5adb60174e10d8a779fd1c70" target="_top" xlink:title="Run linear tasks.">
<polygon fill="white" stroke="#666666" points="116.5,-414 5.5,-414 5.5,-384 116.5,-384 116.5,-414"/>
<text text-anchor="start" x="13.5" y="-402" font-family="Helvetica,sans-Serif" font-size="10.00">application::app_ds</text>
<text text-anchor="middle" x="61" y="-391" font-family="Helvetica,sans-Serif" font-size="10.00">::runLinearTasks</text>
</a>
</g>
</g>
<!-- Node1&#45;&gt;Node7 -->
<g id="edge6_Node000001_Node000007" class="edge">
<title>Node1&#45;&gt;Node7</title>
<g id="a_edge6_Node000001_Node000007"><a xlink:title=" ">
<path fill="none" stroke="#63b8ff" d="M184.74,-346.52C165.78,-355.44 142.85,-366 122,-375 115.1,-377.98 107.7,-381.04 100.54,-383.94"/>
<polygon fill="#63b8ff" stroke="#63b8ff" points="186.44,-349.58 193.99,-342.15 183.45,-343.26 186.44,-349.58"/>
</a>
</g>
</g>
<!-- Node8 -->
<g id="Node000008" class="node">
<title>Node8</title>
<g id="a_Node000008"><a xlink:href="../../d7/dd4/namespaceapplication_1_1app__algo.html#a317a232febf9ceb60c8e49be2ba06c36" target="_top" xlink:title="Run match tasks.">
<polygon fill="white" stroke="#666666" points="121.5,-366 0.5,-366 0.5,-336 121.5,-336 121.5,-366"/>
<text text-anchor="start" x="8.5" y="-354" font-family="Helvetica,sans-Serif" font-size="10.00">application::app_algo</text>
<text text-anchor="middle" x="61" y="-343" font-family="Helvetica,sans-Serif" font-size="10.00">::runMatchTasks</text>
</a>
</g>
</g>
<!-- Node1&#45;&gt;Node8 -->
<g id="edge7_Node000001_Node000008" class="edge">
<title>Node1&#45;&gt;Node8</title>
<g id="a_edge7_Node000001_Node000008"><a xlink:title=" ">
<path fill="none" stroke="#63b8ff" d="M147.44,-338.46C138.76,-339.73 130.03,-341.01 121.63,-342.25"/>
<polygon fill="#63b8ff" stroke="#63b8ff" points="148.2,-341.88 157.58,-336.97 147.18,-334.96 148.2,-341.88"/>
</a>
</g>
</g>
<!-- Node9 -->
<g id="Node000009" class="node">
<title>Node9</title>
<g id="a_Node000009"><a xlink:href="../../d7/dd4/namespaceapplication_1_1app__algo.html#a99fbd5b654baa6c2f19c08245d348030" target="_top" xlink:title="Run notation tasks.">
<polygon fill="white" stroke="#666666" points="121.5,-318 0.5,-318 0.5,-288 121.5,-288 121.5,-318"/>
<text text-anchor="start" x="8.5" y="-306" font-family="Helvetica,sans-Serif" font-size="10.00">application::app_algo</text>
<text text-anchor="middle" x="61" y="-295" font-family="Helvetica,sans-Serif" font-size="10.00">::runNotationTasks</text>
</a>
</g>
</g>
<!-- Node1&#45;&gt;Node9 -->
<g id="edge8_Node000001_Node000009" class="edge">
<title>Node1&#45;&gt;Node9</title>
<g id="a_edge8_Node000001_Node000009"><a xlink:title=" ">
<path fill="none" stroke="#63b8ff" d="M147.44,-315.54C138.76,-314.27 130.03,-312.99 121.63,-311.75"/>
<polygon fill="#63b8ff" stroke="#63b8ff" points="147.18,-319.04 157.58,-317.03 148.2,-312.12 147.18,-319.04"/>
</a>
</g>
</g>
<!-- Node10 -->
<g id="Node000010" class="node">
<title>Node10</title>
<g id="a_Node000010"><a xlink:href="../../d7/dd4/namespaceapplication_1_1app__algo.html#a73b5411d7029e486a45ed588c4bb60e2" target="_top" xlink:title="Run optimal tasks.">
<polygon fill="white" stroke="#666666" points="121.5,-270 0.5,-270 0.5,-240 121.5,-240 121.5,-270"/>
<text text-anchor="start" x="8.5" y="-258" font-family="Helvetica,sans-Serif" font-size="10.00">application::app_algo</text>
<text text-anchor="middle" x="61" y="-247" font-family="Helvetica,sans-Serif" font-size="10.00">::runOptimalTasks</text>
</a>
</g>
</g>
<!-- Node1&#45;&gt;Node10 -->
<g id="edge9_Node000001_Node000010" class="edge">
<title>Node1&#45;&gt;Node10</title>
<g id="a_edge9_Node000001_Node000010"><a xlink:title=" ">
<path fill="none" stroke="#63b8ff" d="M184.74,-307.48C165.78,-298.56 142.85,-288 122,-279 115.1,-276.02 107.7,-272.96 100.54,-270.06"/>
<polygon fill="#63b8ff" stroke="#63b8ff" points="183.45,-310.74 193.99,-311.85 186.44,-304.42 183.45,-310.74"/>
</a>
</g>
</g>
<!-- Node11 -->
<g id="Node000011" class="node">
<title>Node11</title>
<g id="a_Node000011"><a xlink:href="../../de/dbe/namespaceapplication_1_1app__num.html#a7fcb02610a31797f6736b02a36617a1b" target="_top" xlink:title="Run prime tasks.">
<polygon fill="white" stroke="#666666" points="122,-222 0,-222 0,-192 122,-192 122,-222"/>
<text text-anchor="start" x="8" y="-210" font-family="Helvetica,sans-Serif" font-size="10.00">application::app_num</text>
<text text-anchor="middle" x="61" y="-199" font-family="Helvetica,sans-Serif" font-size="10.00">::runPrimeTasks</text>
</a>
</g>
</g>
<!-- Node1&#45;&gt;Node11 -->
<g id="edge10_Node000001_Node000011" class="edge">
<title>Node1&#45;&gt;Node11</title>
<g id="a_edge10_Node000001_Node000011"><a xlink:title=" ">
<path fill="none" stroke="#63b8ff" d="M205.61,-304.24C186.06,-283 154.5,-251.57 122,-231 116.79,-227.7 111.04,-224.71 105.24,-222.05"/>
<polygon fill="#63b8ff" stroke="#63b8ff" points="203.18,-306.78 212.49,-311.84 208.37,-302.08 203.18,-306.78"/>
</a>
</g>
</g>
<!-- Node12 -->
<g id="Node000012" class="node">
<title>Node12</title>
<g id="a_Node000012"><a xlink:href="../../d7/dd4/namespaceapplication_1_1app__algo.html#a4e99e8963e76e52eb6b30f9cb1714b11" target="_top" xlink:title="Run search tasks.">
<polygon fill="white" stroke="#666666" points="121.5,-174 0.5,-174 0.5,-144 121.5,-144 121.5,-174"/>
<text text-anchor="start" x="8.5" y="-162" font-family="Helvetica,sans-Serif" font-size="10.00">application::app_algo</text>
<text text-anchor="middle" x="61" y="-151" font-family="Helvetica,sans-Serif" font-size="10.00">::runSearchTasks</text>
</a>
</g>
</g>
<!-- Node1&#45;&gt;Node12 -->
<g id="edge11_Node000001_Node000012" class="edge">
<title>Node1&#45;&gt;Node12</title>
<g id="a_edge11_Node000001_Node000012"><a xlink:title=" ">
<path fill="none" stroke="#63b8ff" d="M213.69,-302.8C197.18,-271.25 164.41,-216.19 122,-183 117.67,-179.61 112.8,-176.64 107.76,-174.05"/>
<polygon fill="#63b8ff" stroke="#63b8ff" points="210.61,-304.47 218.28,-311.78 216.85,-301.29 210.61,-304.47"/>
</a>
</g>
</g>
<!-- Node13 -->
<g id="Node000013" class="node">
<title>Node13</title>
<g id="a_Node000013"><a xlink:href="../../d7/dd4/namespaceapplication_1_1app__algo.html#a416a09be4668a0e27464d7ca94048aef" target="_top" xlink:title="Run sort tasks.">
<polygon fill="white" stroke="#666666" points="121.5,-126 0.5,-126 0.5,-96 121.5,-96 121.5,-126"/>
<text text-anchor="start" x="8.5" y="-114" font-family="Helvetica,sans-Serif" font-size="10.00">application::app_algo</text>
<text text-anchor="middle" x="61" y="-103" font-family="Helvetica,sans-Serif" font-size="10.00">::runSortTasks</text>
</a>
</g>
</g>
<!-- Node1&#45;&gt;Node13 -->
<g id="edge12_Node000001_Node000013" class="edge">
<title>Node1&#45;&gt;Node13</title>
<g id="a_edge12_Node000001_Node000013"><a xlink:title=" ">
<path fill="none" stroke="#63b8ff" d="M218.27,-302.19C205.32,-261.85 174.51,-181.84 122,-135 118.15,-131.56 113.74,-128.59 109.11,-126.02"/>
<polygon fill="#63b8ff" stroke="#63b8ff" points="214.94,-303.26 221.25,-311.77 221.62,-301.18 214.94,-303.26"/>
</a>
</g>
</g>
<!-- Node14 -->
<g id="Node000014" class="node">
<title>Node14</title>
<g id="a_Node000014"><a xlink:href="../../d2/dc1/namespaceapplication_1_1app__dp.html#af2fe424904e6361cfd8a1ce1e85453cd" target="_top" xlink:title="Run structural tasks.">
<polygon fill="white" stroke="#666666" points="117.5,-78 4.5,-78 4.5,-48 117.5,-48 117.5,-78"/>
<text text-anchor="start" x="12.5" y="-66" font-family="Helvetica,sans-Serif" font-size="10.00">application::app_dp</text>
<text text-anchor="middle" x="61" y="-55" font-family="Helvetica,sans-Serif" font-size="10.00">::runStructuralTasks</text>
</a>
</g>
</g>
<!-- Node1&#45;&gt;Node14 -->
<g id="edge13_Node000001_Node000014" class="edge">
<title>Node1&#45;&gt;Node14</title>
<g id="a_edge13_Node000001_Node000014"><a xlink:title=" ">
<path fill="none" stroke="#63b8ff" d="M221.24,-301.93C211.81,-253.89 184.87,-148.21 122,-87 118.46,-83.56 114.37,-80.59 110.02,-78.03"/>
<polygon fill="#63b8ff" stroke="#63b8ff" points="217.8,-302.61 223.08,-311.8 224.68,-301.32 217.8,-302.61"/>
</a>
</g>
</g>
<!-- Node15 -->
<g id="Node000015" class="node">
<title>Node15</title>
<g id="a_Node000015"><a xlink:href="../../d0/dc3/namespaceapplication_1_1app__ds.html#ab2ea91a2405f21fbb7e07b5e5ac25f43" target="_top" xlink:title="Run tree tasks.">
<polygon fill="white" stroke="#666666" points="116.5,-30 5.5,-30 5.5,0 116.5,0 116.5,-30"/>
<text text-anchor="start" x="13.5" y="-18" font-family="Helvetica,sans-Serif" font-size="10.00">application::app_ds</text>
<text text-anchor="middle" x="61" y="-7" font-family="Helvetica,sans-Serif" font-size="10.00">::runTreeTasks</text>
</a>
</g>
</g>
<!-- Node1&#45;&gt;Node15 -->
<g id="edge14_Node000001_Node000015" class="edge">
<title>Node1&#45;&gt;Node15</title>
<g id="a_edge14_Node000001_Node000015"><a xlink:title=" ">
<path fill="none" stroke="#63b8ff" d="M223.29,-301.68C217.19,-246.65 195.35,-115 122,-39 118.73,-35.61 114.91,-32.69 110.83,-30.17"/>
<polygon fill="#63b8ff" stroke="#63b8ff" points="219.84,-302.32 224.34,-311.92 226.81,-301.61 219.84,-302.32"/>
</a>
</g>
</g>
</g>
</svg>
