<?xml version="1.0" encoding="UTF-8" standalone="no"?>
<!DOCTYPE svg PUBLIC "-//W3C//DTD SVG 1.1//EN"
 "http://www.w3.org/Graphics/SVG/1.1/DTD/svg11.dtd">
<!-- Generated by graphviz version 2.43.0 (0)
 -->
<!-- Title: design_pattern::behavioral::visitor::Element Pages: 1 -->
<svg width="341pt" height="86pt"
 viewBox="0.00 0.00 341.00 86.00" xmlns="http://www.w3.org/2000/svg" xmlns:xlink="http://www.w3.org/1999/xlink">
<g id="graph0" class="graph" transform="scale(1 1) rotate(0) translate(4 82)">
<title>design_pattern::behavioral::visitor::Element</title>
<!-- Node1 -->
<g id="Node000001" class="node">
<title>Node1</title>
<g id="a_Node000001"><a xlink:title="Implement the accept operation that takes a visitor as an argument.">
<polygon fill="#999999" stroke="#666666" points="147,-54 0,-54 0,-24 147,-24 147,-54"/>
<text text-anchor="start" x="8" y="-42" font-family="Helvetica,sans-Serif" font-size="10.00">design_pattern::behavioral</text>
<text text-anchor="middle" x="73.5" y="-31" font-family="Helvetica,sans-Serif" font-size="10.00">::visitor::Element</text>
</a>
</g>
</g>
<!-- Node2 -->
<g id="Node000002" class="node">
<title>Node2</title>
<g id="a_Node000002"><a xlink:href="../../df/d82/classdesign__pattern_1_1behavioral_1_1visitor_1_1ConcreteElementA.html" target="_top" xlink:title="The concrete element.">
<polygon fill="white" stroke="#666666" points="333,-78 183,-78 183,-48 333,-48 333,-78"/>
<text text-anchor="start" x="191" y="-66" font-family="Helvetica,sans-Serif" font-size="10.00">design_pattern::behavioral</text>
<text text-anchor="middle" x="258" y="-55" font-family="Helvetica,sans-Serif" font-size="10.00">::visitor::ConcreteElementA</text>
</a>
</g>
</g>
<!-- Node1&#45;&gt;Node2 -->
<g id="edge1_Node000001_Node000002" class="edge">
<title>Node1&#45;&gt;Node2</title>
<g id="a_edge1_Node000001_Node000002"><a xlink:title=" ">
<path fill="none" stroke="#63b8ff" d="M157.13,-49.87C165.69,-50.99 174.35,-52.13 182.81,-53.24"/>
<polygon fill="#63b8ff" stroke="#63b8ff" points="157.52,-46.39 147.15,-48.55 156.61,-53.33 157.52,-46.39"/>
</a>
</g>
</g>
<!-- Node3 -->
<g id="Node000003" class="node">
<title>Node3</title>
<g id="a_Node000003"><a xlink:href="../../da/d45/classdesign__pattern_1_1behavioral_1_1visitor_1_1ConcreteElementB.html" target="_top" xlink:title="The concrete element.">
<polygon fill="white" stroke="#666666" points="333,-30 183,-30 183,0 333,0 333,-30"/>
<text text-anchor="start" x="191" y="-18" font-family="Helvetica,sans-Serif" font-size="10.00">design_pattern::behavioral</text>
<text text-anchor="middle" x="258" y="-7" font-family="Helvetica,sans-Serif" font-size="10.00">::visitor::ConcreteElementB</text>
</a>
</g>
</g>
<!-- Node1&#45;&gt;Node3 -->
<g id="edge2_Node000001_Node000003" class="edge">
<title>Node1&#45;&gt;Node3</title>
<g id="a_edge2_Node000001_Node000003"><a xlink:title=" ">
<path fill="none" stroke="#63b8ff" d="M157.13,-28.13C165.69,-27.01 174.35,-25.87 182.81,-24.76"/>
<polygon fill="#63b8ff" stroke="#63b8ff" points="156.61,-24.67 147.15,-29.45 157.52,-31.61 156.61,-24.67"/>
</a>
</g>
</g>
</g>
</svg>
