<?xml version="1.0" encoding="UTF-8" standalone="no"?>
<!DOCTYPE svg PUBLIC "-//W3C//DTD SVG 1.1//EN"
 "http://www.w3.org/Graphics/SVG/1.1/DTD/svg11.dtd">
<!-- Generated by graphviz version 2.43.0 (0)
 -->
<!-- Title: utility::fsm::invokeResult Pages: 1 -->
<svg width="325pt" height="270pt"
 viewBox="0.00 0.00 325.00 270.00" xmlns="http://www.w3.org/2000/svg" xmlns:xlink="http://www.w3.org/1999/xlink">
<g id="graph0" class="graph" transform="scale(1 1) rotate(0) translate(4 266)">
<title>utility::fsm::invokeResult</title>
<!-- Node1 -->
<g id="Node000001" class="node">
<title>Node1</title>
<g id="a_Node000001"><a xlink:title="Invoke result.">
<polygon fill="#999999" stroke="#666666" points="317,-140.5 179,-140.5 179,-121.5 317,-121.5 317,-140.5"/>
<text text-anchor="middle" x="248" y="-128.5" font-family="Helvetica,sans-Serif" font-size="10.00">utility::fsm::invokeResult</text>
</a>
</g>
</g>
<!-- Node2 -->
<g id="Node000002" class="node">
<title>Node2</title>
<g id="a_Node000002"><a xlink:href="../../da/d39/structutility_1_1fsm_1_1BinaryFuncHelper_3_01Func_00_01Arg1_00_01Arg2_00_01true_00_01false_00_01false_00_01false_01_4.html#a82aa90db58071ed4b0fa1a4f8400c17a" target="_top" xlink:title="Invoke operation.">
<polygon fill="white" stroke="#666666" points="143,-262 0,-262 0,-210 143,-210 143,-262"/>
<text text-anchor="start" x="8" y="-250" font-family="Helvetica,sans-Serif" font-size="10.00">utility::fsm::BinaryFunc</text>
<text text-anchor="start" x="8" y="-239" font-family="Helvetica,sans-Serif" font-size="10.00">Helper&lt; Func, Arg1, Arg2,</text>
<text text-anchor="start" x="8" y="-228" font-family="Helvetica,sans-Serif" font-size="10.00"> true, false, false, false</text>
<text text-anchor="middle" x="71.5" y="-217" font-family="Helvetica,sans-Serif" font-size="10.00"> &gt;::invoke</text>
</a>
</g>
</g>
<!-- Node1&#45;&gt;Node2 -->
<g id="edge1_Node000001_Node000002" class="edge">
<title>Node1&#45;&gt;Node2</title>
<g id="a_edge1_Node000001_Node000002"><a xlink:title=" ">
<path fill="none" stroke="#63b8ff" d="M225.54,-146.66C204.88,-161.45 172.5,-183.85 143,-201 137.8,-204.02 132.31,-207.04 126.77,-209.96"/>
<polygon fill="#63b8ff" stroke="#63b8ff" points="227.83,-149.33 233.9,-140.64 223.74,-143.65 227.83,-149.33"/>
</a>
</g>
</g>
<!-- Node3 -->
<g id="Node000003" class="node">
<title>Node3</title>
<g id="a_Node000003"><a xlink:href="../../d0/db3/structutility_1_1fsm_1_1BinaryFuncHelper_3_01Func_00_01Arg1_00_01Arg2_00_01false_00_01false_00_01true_00_01false_01_4.html#a57b9a9fd63fa10d32eabe2c652065793" target="_top" xlink:title="Invoke operation.">
<polygon fill="white" stroke="#666666" points="143,-192 0,-192 0,-140 143,-140 143,-192"/>
<text text-anchor="start" x="8" y="-180" font-family="Helvetica,sans-Serif" font-size="10.00">utility::fsm::BinaryFunc</text>
<text text-anchor="start" x="8" y="-169" font-family="Helvetica,sans-Serif" font-size="10.00">Helper&lt; Func, Arg1, Arg2,</text>
<text text-anchor="start" x="8" y="-158" font-family="Helvetica,sans-Serif" font-size="10.00"> false, false, true, false</text>
<text text-anchor="middle" x="71.5" y="-147" font-family="Helvetica,sans-Serif" font-size="10.00"> &gt;::invoke</text>
</a>
</g>
</g>
<!-- Node1&#45;&gt;Node3 -->
<g id="edge2_Node000001_Node000003" class="edge">
<title>Node1&#45;&gt;Node3</title>
<g id="a_edge2_Node000001_Node000003"><a xlink:title=" ">
<path fill="none" stroke="#63b8ff" d="M189.3,-142.57C174.5,-145.54 158.41,-148.77 143.04,-151.85"/>
<polygon fill="#63b8ff" stroke="#63b8ff" points="190.2,-145.96 199.32,-140.56 188.82,-139.1 190.2,-145.96"/>
</a>
</g>
</g>
<!-- Node4 -->
<g id="Node000004" class="node">
<title>Node4</title>
<g id="a_Node000004"><a xlink:href="../../dc/d7e/structutility_1_1fsm_1_1BinaryFuncHelper_3_01Func_00_01Arg1_00_01Arg2_00_01false_00_01true_00_01false_00_01false_01_4.html#a7aa3223e35c0f87d6e00bbed2ea22498" target="_top" xlink:title="Invoke operation.">
<polygon fill="white" stroke="#666666" points="143,-122 0,-122 0,-70 143,-70 143,-122"/>
<text text-anchor="start" x="8" y="-110" font-family="Helvetica,sans-Serif" font-size="10.00">utility::fsm::BinaryFunc</text>
<text text-anchor="start" x="8" y="-99" font-family="Helvetica,sans-Serif" font-size="10.00">Helper&lt; Func, Arg1, Arg2,</text>
<text text-anchor="start" x="8" y="-88" font-family="Helvetica,sans-Serif" font-size="10.00"> false, true, false, false</text>
<text text-anchor="middle" x="71.5" y="-77" font-family="Helvetica,sans-Serif" font-size="10.00"> &gt;::invoke</text>
</a>
</g>
</g>
<!-- Node1&#45;&gt;Node4 -->
<g id="edge3_Node000001_Node000004" class="edge">
<title>Node1&#45;&gt;Node4</title>
<g id="a_edge3_Node000001_Node000004"><a xlink:title=" ">
<path fill="none" stroke="#63b8ff" d="M189.3,-119.43C174.5,-116.46 158.41,-113.23 143.04,-110.15"/>
<polygon fill="#63b8ff" stroke="#63b8ff" points="188.82,-122.9 199.32,-121.44 190.2,-116.04 188.82,-122.9"/>
</a>
</g>
</g>
<!-- Node5 -->
<g id="Node000005" class="node">
<title>Node5</title>
<g id="a_Node000005"><a xlink:href="../../db/d5d/structutility_1_1fsm_1_1BinaryFuncHelper_3_01Func_00_01Arg1_00_01Arg2_00_01false_00_01false_00_01false_00_01true_01_4.html#a16b35900383b0d6196d8adff54734a9e" target="_top" xlink:title="Invoke operation.">
<polygon fill="white" stroke="#666666" points="143,-52 0,-52 0,0 143,0 143,-52"/>
<text text-anchor="start" x="8" y="-40" font-family="Helvetica,sans-Serif" font-size="10.00">utility::fsm::BinaryFunc</text>
<text text-anchor="start" x="8" y="-29" font-family="Helvetica,sans-Serif" font-size="10.00">Helper&lt; Func, Arg1, Arg2,</text>
<text text-anchor="start" x="8" y="-18" font-family="Helvetica,sans-Serif" font-size="10.00"> false, false, false, true</text>
<text text-anchor="middle" x="71.5" y="-7" font-family="Helvetica,sans-Serif" font-size="10.00"> &gt;::invoke</text>
</a>
</g>
</g>
<!-- Node1&#45;&gt;Node5 -->
<g id="edge4_Node000001_Node000005" class="edge">
<title>Node1&#45;&gt;Node5</title>
<g id="a_edge4_Node000001_Node000005"><a xlink:title=" ">
<path fill="none" stroke="#63b8ff" d="M225.54,-115.34C204.88,-100.55 172.5,-78.15 143,-61 137.8,-57.98 132.31,-54.96 126.77,-52.04"/>
<polygon fill="#63b8ff" stroke="#63b8ff" points="223.74,-118.35 233.9,-121.36 227.83,-112.67 223.74,-118.35"/>
</a>
</g>
</g>
</g>
</svg>
