<?xml version="1.0" encoding="UTF-8" standalone="no"?>
<!DOCTYPE svg PUBLIC "-//W3C//DTD SVG 1.1//EN"
 "http://www.w3.org/Graphics/SVG/1.1/DTD/svg11.dtd">
<!-- Generated by graphviz version 2.43.0 (0)
 -->
<!-- Title: utility::fsm::invokeAsBinaryFunc Pages: 1 -->
<svg width="547pt" height="278pt"
 viewBox="0.00 0.00 547.00 278.00" xmlns="http://www.w3.org/2000/svg" xmlns:xlink="http://www.w3.org/1999/xlink">
<g id="graph0" class="graph" transform="scale(1 1) rotate(0) translate(4 274)">
<title>utility::fsm::invokeAsBinaryFunc</title>
<!-- Node1 -->
<g id="Node000001" class="node">
<title>Node1</title>
<g id="a_Node000001"><a xlink:title="Invoke as binary function.">
<polygon fill="#999999" stroke="#666666" points="539,-132.5 366,-132.5 366,-113.5 539,-113.5 539,-132.5"/>
<text text-anchor="middle" x="452.5" y="-120.5" font-family="Helvetica,sans-Serif" font-size="10.00">utility::fsm::invokeAsBinaryFunc</text>
</a>
</g>
</g>
<!-- Node2 -->
<g id="Node000002" class="node">
<title>Node2</title>
<g id="a_Node000002"><a xlink:href="../../d2/d4f/structutility_1_1fsm_1_1FSM_1_1RowBased.html#aa0ee6efaada71bf8fe3dea3aea959111" target="_top" xlink:title="Check guard condition.">
<polygon fill="white" stroke="#666666" points="326,-186 195,-186 195,-156 326,-156 326,-186"/>
<text text-anchor="start" x="203" y="-174" font-family="Helvetica,sans-Serif" font-size="10.00">utility::fsm::FSM::</text>
<text text-anchor="middle" x="260.5" y="-163" font-family="Helvetica,sans-Serif" font-size="10.00">RowBased::checkGuard</text>
</a>
</g>
</g>
<!-- Node1&#45;&gt;Node2 -->
<g id="edge1_Node000001_Node000002" class="edge">
<title>Node1&#45;&gt;Node2</title>
<g id="a_edge1_Node000001_Node000002"><a xlink:title=" ">
<path fill="none" stroke="#63b8ff" d="M403.52,-135.12C378.5,-141.44 347.67,-149.23 321.12,-155.94"/>
<polygon fill="#63b8ff" stroke="#63b8ff" points="404.67,-138.44 413.51,-132.6 402.95,-131.65 404.67,-138.44"/>
</a>
</g>
</g>
<!-- Node6 -->
<g id="Node000006" class="node">
<title>Node6</title>
<g id="a_Node000006"><a xlink:href="../../d2/d4f/structutility_1_1fsm_1_1FSM_1_1RowBased.html#af4c46bd93a72708a3d82670715bfa5d1" target="_top" xlink:title="Process the specific event.">
<polygon fill="white" stroke="#666666" points="330,-114 191,-114 191,-84 330,-84 330,-114"/>
<text text-anchor="start" x="199" y="-102" font-family="Helvetica,sans-Serif" font-size="10.00">utility::fsm::FSM::</text>
<text text-anchor="middle" x="260.5" y="-91" font-family="Helvetica,sans-Serif" font-size="10.00">RowBased::processEvent</text>
</a>
</g>
</g>
<!-- Node1&#45;&gt;Node6 -->
<g id="edge5_Node000001_Node000006" class="edge">
<title>Node1&#45;&gt;Node6</title>
<g id="a_edge5_Node000001_Node000006"><a xlink:title=" ">
<path fill="none" stroke="#63b8ff" d="M366.12,-112.22C354.13,-110.7 341.93,-109.16 330.3,-107.69"/>
<polygon fill="#63b8ff" stroke="#63b8ff" points="365.77,-115.7 376.13,-113.48 366.65,-108.75 365.77,-115.7"/>
</a>
</g>
</g>
<!-- Node3 -->
<g id="Node000003" class="node">
<title>Node3</title>
<g id="a_Node000003"><a xlink:href="../../d5/d2c/structutility_1_1fsm_1_1FSM_1_1BasicRow.html#af999f68117d5a618b3b660adb474b224" target="_top" xlink:title="Check guard condition.">
<polygon fill="white" stroke="#666666" points="141,-270 14,-270 14,-240 141,-240 141,-270"/>
<text text-anchor="start" x="22" y="-258" font-family="Helvetica,sans-Serif" font-size="10.00">utility::fsm::FSM::</text>
<text text-anchor="middle" x="77.5" y="-247" font-family="Helvetica,sans-Serif" font-size="10.00">BasicRow::checkGuard</text>
</a>
</g>
</g>
<!-- Node2&#45;&gt;Node3 -->
<g id="edge2_Node000002_Node000003" class="edge">
<title>Node2&#45;&gt;Node3</title>
<g id="a_edge2_Node000002_Node000003"><a xlink:title=" ">
<path fill="none" stroke="#63b8ff" d="M228.09,-191.44C207.81,-204.02 180.54,-219.82 155,-231 147.6,-234.24 139.63,-237.24 131.73,-239.95"/>
<polygon fill="#63b8ff" stroke="#63b8ff" points="230,-194.37 236.6,-186.09 226.27,-188.44 230,-194.37"/>
</a>
</g>
</g>
<!-- Node4 -->
<g id="Node000004" class="node">
<title>Node4</title>
<g id="a_Node000004"><a xlink:href="../../d6/dbc/structutility_1_1fsm_1_1FSM_1_1MemFuncRow.html#aaa589db0fc4c0f0d4bb42386d45bed9f" target="_top" xlink:title="Check guard condition.">
<polygon fill="white" stroke="#666666" points="151.5,-222 3.5,-222 3.5,-192 151.5,-192 151.5,-222"/>
<text text-anchor="start" x="11.5" y="-210" font-family="Helvetica,sans-Serif" font-size="10.00">utility::fsm::FSM::</text>
<text text-anchor="middle" x="77.5" y="-199" font-family="Helvetica,sans-Serif" font-size="10.00">MemFuncRow::checkGuard</text>
</a>
</g>
</g>
<!-- Node2&#45;&gt;Node4 -->
<g id="edge3_Node000002_Node000004" class="edge">
<title>Node2&#45;&gt;Node4</title>
<g id="a_edge3_Node000002_Node000004"><a xlink:title=" ">
<path fill="none" stroke="#63b8ff" d="M184.94,-185.83C173.95,-188.02 162.64,-190.26 151.68,-192.44"/>
<polygon fill="#63b8ff" stroke="#63b8ff" points="185.8,-189.23 194.92,-183.84 184.43,-182.36 185.8,-189.23"/>
</a>
</g>
</g>
<!-- Node5 -->
<g id="Node000005" class="node">
<title>Node5</title>
<g id="a_Node000005"><a xlink:href="../../d8/dd1/structutility_1_1fsm_1_1FSM_1_1Row.html#af26911cc27602897079423fa34d4c5d8" target="_top" xlink:title="Check guard condition.">
<polygon fill="white" stroke="#666666" points="128,-174 27,-174 27,-144 128,-144 128,-174"/>
<text text-anchor="start" x="35" y="-162" font-family="Helvetica,sans-Serif" font-size="10.00">utility::fsm::FSM::</text>
<text text-anchor="middle" x="77.5" y="-151" font-family="Helvetica,sans-Serif" font-size="10.00">Row::checkGuard</text>
</a>
</g>
</g>
<!-- Node2&#45;&gt;Node5 -->
<g id="edge4_Node000002_Node000005" class="edge">
<title>Node2&#45;&gt;Node5</title>
<g id="a_edge4_Node000002_Node000005"><a xlink:title=" ">
<path fill="none" stroke="#63b8ff" d="M184.77,-166.05C165.72,-164.78 145.71,-163.46 128.25,-162.3"/>
<polygon fill="#63b8ff" stroke="#63b8ff" points="184.71,-169.55 194.92,-166.72 185.17,-162.56 184.71,-169.55"/>
</a>
</g>
</g>
<!-- Node7 -->
<g id="Node000007" class="node">
<title>Node7</title>
<g id="a_Node000007"><a xlink:href="../../d5/d2c/structutility_1_1fsm_1_1FSM_1_1BasicRow.html#aa372d7ea2e394b984a53b09e2c8d8e98" target="_top" xlink:title="Process the specific event.">
<polygon fill="white" stroke="#666666" points="144.5,-126 10.5,-126 10.5,-96 144.5,-96 144.5,-126"/>
<text text-anchor="start" x="18.5" y="-114" font-family="Helvetica,sans-Serif" font-size="10.00">utility::fsm::FSM::</text>
<text text-anchor="middle" x="77.5" y="-103" font-family="Helvetica,sans-Serif" font-size="10.00">BasicRow::processEvent</text>
</a>
</g>
</g>
<!-- Node6&#45;&gt;Node7 -->
<g id="edge6_Node000006_Node000007" class="edge">
<title>Node6&#45;&gt;Node7</title>
<g id="a_edge6_Node000006_Node000007"><a xlink:title=" ">
<path fill="none" stroke="#63b8ff" d="M180.8,-104.22C168.77,-105.01 156.47,-105.83 144.75,-106.61"/>
<polygon fill="#63b8ff" stroke="#63b8ff" points="181.07,-107.71 190.81,-103.55 180.6,-100.72 181.07,-107.71"/>
</a>
</g>
</g>
<!-- Node8 -->
<g id="Node000008" class="node">
<title>Node8</title>
<g id="a_Node000008"><a xlink:href="../../d6/dbc/structutility_1_1fsm_1_1FSM_1_1MemFuncRow.html#a9949f908e0e5d6d785716e18922f2932" target="_top" xlink:title="Process the specific event.">
<polygon fill="white" stroke="#666666" points="155,-78 0,-78 0,-48 155,-48 155,-78"/>
<text text-anchor="start" x="8" y="-66" font-family="Helvetica,sans-Serif" font-size="10.00">utility::fsm::FSM::</text>
<text text-anchor="middle" x="77.5" y="-55" font-family="Helvetica,sans-Serif" font-size="10.00">MemFuncRow::processEvent</text>
</a>
</g>
</g>
<!-- Node6&#45;&gt;Node8 -->
<g id="edge7_Node000006_Node000008" class="edge">
<title>Node6&#45;&gt;Node8</title>
<g id="a_edge7_Node000006_Node000008"><a xlink:title=" ">
<path fill="none" stroke="#63b8ff" d="M180.87,-83.36C171.98,-81.59 162.94,-79.79 154.09,-78.04"/>
<polygon fill="#63b8ff" stroke="#63b8ff" points="180.32,-86.82 190.81,-85.34 181.69,-79.96 180.32,-86.82"/>
</a>
</g>
</g>
<!-- Node9 -->
<g id="Node000009" class="node">
<title>Node9</title>
<g id="a_Node000009"><a xlink:href="../../d8/dd1/structutility_1_1fsm_1_1FSM_1_1Row.html#a6386db96d43fb45026be50dfc83b5f15" target="_top" xlink:title="Process the specific event.">
<polygon fill="white" stroke="#666666" points="131.5,-30 23.5,-30 23.5,0 131.5,0 131.5,-30"/>
<text text-anchor="start" x="31.5" y="-18" font-family="Helvetica,sans-Serif" font-size="10.00">utility::fsm::FSM::</text>
<text text-anchor="middle" x="77.5" y="-7" font-family="Helvetica,sans-Serif" font-size="10.00">Row::processEvent</text>
</a>
</g>
</g>
<!-- Node6&#45;&gt;Node9 -->
<g id="edge8_Node000006_Node000009" class="edge">
<title>Node6&#45;&gt;Node9</title>
<g id="a_edge8_Node000006_Node000009"><a xlink:title=" ">
<path fill="none" stroke="#63b8ff" d="M228.09,-78.56C207.81,-65.98 180.54,-50.18 155,-39 147.6,-35.76 139.63,-32.76 131.73,-30.05"/>
<polygon fill="#63b8ff" stroke="#63b8ff" points="226.27,-81.56 236.6,-83.91 230,-75.63 226.27,-81.56"/>
</a>
</g>
</g>
</g>
</svg>
