<?xml version="1.0" encoding="UTF-8" standalone="no"?>
<!DOCTYPE svg PUBLIC "-//W3C//DTD SVG 1.1//EN"
 "http://www.w3.org/Graphics/SVG/1.1/DTD/svg11.dtd">
<!-- Generated by graphviz version 2.43.0 (0)
 -->
<!-- Title: algorithm::match::Match::fillBadCharShiftTableForSunday Pages: 1 -->
<svg width="520pt" height="86pt"
 viewBox="0.00 0.00 520.00 86.00" xmlns="http://www.w3.org/2000/svg" xmlns:xlink="http://www.w3.org/1999/xlink">
<g id="graph0" class="graph" transform="scale(1 1) rotate(0) translate(4 82)">
<title>algorithm::match::Match::fillBadCharShiftTableForSunday</title>
<!-- Node1 -->
<g id="Node000001" class="node">
<title>Node1</title>
<g id="a_Node000001"><a xlink:title="Fill the bad character shift table of the Sunday method.">
<polygon fill="#999999" stroke="#666666" points="512,-48.5 338,-48.5 338,-18.5 512,-18.5 512,-48.5"/>
<text text-anchor="start" x="346" y="-36.5" font-family="Helvetica,sans-Serif" font-size="10.00">algorithm::match::Match</text>
<text text-anchor="middle" x="425" y="-25.5" font-family="Helvetica,sans-Serif" font-size="10.00">::fillBadCharShiftTableForSunday</text>
</a>
</g>
</g>
<!-- Node2 -->
<g id="Node000002" class="node">
<title>Node2</title>
<g id="a_Node000002"><a xlink:href="../../d2/dcf/classalgorithm_1_1match_1_1Match.html#a31f923ad64f63da54310fe58064bb870" target="_top" xlink:title="Sunday.">
<polygon fill="white" stroke="#666666" points="302,-48.5 165,-48.5 165,-18.5 302,-18.5 302,-48.5"/>
<text text-anchor="start" x="173" y="-36.5" font-family="Helvetica,sans-Serif" font-size="10.00">algorithm::match::Match</text>
<text text-anchor="middle" x="233.5" y="-25.5" font-family="Helvetica,sans-Serif" font-size="10.00">::sunday</text>
</a>
</g>
</g>
<!-- Node1&#45;&gt;Node2 -->
<g id="edge1_Node000001_Node000002" class="edge">
<title>Node1&#45;&gt;Node2</title>
<g id="a_edge1_Node000001_Node000002"><a xlink:title=" ">
<path fill="none" stroke="#63b8ff" d="M327.75,-33.5C319.15,-33.5 310.56,-33.5 302.28,-33.5"/>
<polygon fill="#63b8ff" stroke="#63b8ff" points="327.84,-37 337.84,-33.5 327.84,-30 327.84,-37"/>
</a>
</g>
</g>
<!-- Node3 -->
<g id="Node000003" class="node">
<title>Node3</title>
<g id="a_Node000003"><a xlink:href="../../dc/d05/classapplication_1_1app__algo_1_1match_1_1MatchSolution.html#aef916bcf9953c3cdd67787a5b8b60dae" target="_top" xlink:title="The Sunday method.">
<polygon fill="white" stroke="#666666" points="129,-78 0,-78 0,-37 129,-37 129,-78"/>
<text text-anchor="start" x="8" y="-66" font-family="Helvetica,sans-Serif" font-size="10.00">application::app_algo</text>
<text text-anchor="start" x="8" y="-55" font-family="Helvetica,sans-Serif" font-size="10.00">::match::MatchSolution</text>
<text text-anchor="middle" x="64.5" y="-44" font-family="Helvetica,sans-Serif" font-size="10.00">::sundayMethod</text>
</a>
</g>
</g>
<!-- Node2&#45;&gt;Node3 -->
<g id="edge2_Node000002_Node000003" class="edge">
<title>Node2&#45;&gt;Node3</title>
<g id="a_edge2_Node000002_Node000003"><a xlink:title=" ">
<path fill="none" stroke="#63b8ff" d="M154.59,-44.7C146.04,-45.93 137.4,-47.17 129.05,-48.37"/>
<polygon fill="#63b8ff" stroke="#63b8ff" points="155.17,-48.15 164.57,-43.26 154.18,-41.22 155.17,-48.15"/>
</a>
</g>
</g>
<!-- Node4 -->
<g id="Node000004" class="node">
<title>Node4</title>
<g id="a_Node000004"><a xlink:href="../../dc/d35/namespacetest_1_1tst__algo.html#a297914728f3701b0cbc2bb7ab72d3e22" target="_top" xlink:title="Test for the Sunday method in the solution of match.">
<polygon fill="white" stroke="#666666" points="125.5,-19 3.5,-19 3.5,0 125.5,0 125.5,-19"/>
<text text-anchor="middle" x="64.5" y="-7" font-family="Helvetica,sans-Serif" font-size="10.00">test::tst_algo::TEST_F</text>
</a>
</g>
</g>
<!-- Node2&#45;&gt;Node4 -->
<g id="edge3_Node000002_Node000004" class="edge">
<title>Node2&#45;&gt;Node4</title>
<g id="a_edge3_Node000002_Node000004"><a xlink:title=" ">
<path fill="none" stroke="#63b8ff" d="M154.51,-22.29C144.79,-20.89 134.97,-19.48 125.58,-18.13"/>
<polygon fill="#63b8ff" stroke="#63b8ff" points="154.18,-25.78 164.57,-23.74 155.17,-18.85 154.18,-25.78"/>
</a>
</g>
</g>
</g>
</svg>
