<?xml version="1.0" encoding="UTF-8" standalone="no"?>
<!DOCTYPE svg PUBLIC "-//W3C//DTD SVG 1.1//EN"
 "http://www.w3.org/Graphics/SVG/1.1/DTD/svg11.dtd">
<!-- Generated by graphviz version 2.43.0 (0)
 -->
<!-- Title: algorithm::match::Match::fillGoodSuffixRuleTable Pages: 1 -->
<svg width="504pt" height="86pt"
 viewBox="0.00 0.00 504.00 86.00" xmlns="http://www.w3.org/2000/svg" xmlns:xlink="http://www.w3.org/1999/xlink">
<g id="graph0" class="graph" transform="scale(1 1) rotate(0) translate(4 82)">
<title>algorithm::match::Match::fillGoodSuffixRuleTable</title>
<!-- Node1 -->
<g id="Node000001" class="node">
<title>Node1</title>
<g id="a_Node000001"><a xlink:title="Fill good suffix rule table.">
<polygon fill="#999999" stroke="#666666" points="496,-48.5 359,-48.5 359,-18.5 496,-18.5 496,-48.5"/>
<text text-anchor="start" x="367" y="-36.5" font-family="Helvetica,sans-Serif" font-size="10.00">algorithm::match::Match</text>
<text text-anchor="middle" x="427.5" y="-25.5" font-family="Helvetica,sans-Serif" font-size="10.00">::fillGoodSuffixRuleTable</text>
</a>
</g>
</g>
<!-- Node2 -->
<g id="Node000002" class="node">
<title>Node2</title>
<g id="a_Node000002"><a xlink:href="../../d2/dcf/classalgorithm_1_1match_1_1Match.html#a88b5a3bfdea7b86511459476255380d9" target="_top" xlink:title="Boyer&#45;Moore.">
<polygon fill="white" stroke="#666666" points="323,-43 165,-43 165,-24 323,-24 323,-43"/>
<text text-anchor="middle" x="244" y="-31" font-family="Helvetica,sans-Serif" font-size="10.00">algorithm::match::Match::bm</text>
</a>
</g>
</g>
<!-- Node1&#45;&gt;Node2 -->
<g id="edge1_Node000001_Node000002" class="edge">
<title>Node1&#45;&gt;Node2</title>
<g id="a_edge1_Node000001_Node000002"><a xlink:title=" ">
<path fill="none" stroke="#63b8ff" d="M348.66,-33.5C340.17,-33.5 331.53,-33.5 323.04,-33.5"/>
<polygon fill="#63b8ff" stroke="#63b8ff" points="348.92,-37 358.92,-33.5 348.92,-30 348.92,-37"/>
</a>
</g>
</g>
<!-- Node3 -->
<g id="Node000003" class="node">
<title>Node3</title>
<g id="a_Node000003"><a xlink:href="../../dc/d05/classapplication_1_1app__algo_1_1match_1_1MatchSolution.html#a76dc6abc775eab32d9c659dfc80d0510" target="_top" xlink:title="The Boyer&#45;Moore method.">
<polygon fill="white" stroke="#666666" points="129,-78 0,-78 0,-37 129,-37 129,-78"/>
<text text-anchor="start" x="8" y="-66" font-family="Helvetica,sans-Serif" font-size="10.00">application::app_algo</text>
<text text-anchor="start" x="8" y="-55" font-family="Helvetica,sans-Serif" font-size="10.00">::match::MatchSolution</text>
<text text-anchor="middle" x="64.5" y="-44" font-family="Helvetica,sans-Serif" font-size="10.00">::bmMethod</text>
</a>
</g>
</g>
<!-- Node2&#45;&gt;Node3 -->
<g id="edge2_Node000002_Node000003" class="edge">
<title>Node2&#45;&gt;Node3</title>
<g id="a_edge2_Node000002_Node000003"><a xlink:title=" ">
<path fill="none" stroke="#63b8ff" d="M162.43,-44.39C151.29,-45.9 139.98,-47.43 129.2,-48.89"/>
<polygon fill="#63b8ff" stroke="#63b8ff" points="163.15,-47.83 172.59,-43.02 162.21,-40.89 163.15,-47.83"/>
</a>
</g>
</g>
<!-- Node4 -->
<g id="Node000004" class="node">
<title>Node4</title>
<g id="a_Node000004"><a xlink:href="../../dc/d35/namespacetest_1_1tst__algo.html#a1b40e779d8137af1c45f5c3e603d8c4d" target="_top" xlink:title="Test for the Boyer&#45;Moore method in the solution of match.">
<polygon fill="white" stroke="#666666" points="125.5,-19 3.5,-19 3.5,0 125.5,0 125.5,-19"/>
<text text-anchor="middle" x="64.5" y="-7" font-family="Helvetica,sans-Serif" font-size="10.00">test::tst_algo::TEST_F</text>
</a>
</g>
</g>
<!-- Node2&#45;&gt;Node4 -->
<g id="edge3_Node000002_Node000004" class="edge">
<title>Node2&#45;&gt;Node4</title>
<g id="a_edge3_Node000002_Node000004"><a xlink:title=" ">
<path fill="none" stroke="#63b8ff" d="M162.64,-22.64C150.16,-20.95 137.45,-19.23 125.51,-17.61"/>
<polygon fill="#63b8ff" stroke="#63b8ff" points="162.21,-26.11 172.59,-23.98 163.15,-19.17 162.21,-26.11"/>
</a>
</g>
</g>
</g>
</svg>
