<?xml version="1.0" encoding="UTF-8" standalone="no"?>
<!DOCTYPE svg PUBLIC "-//W3C//DTD SVG 1.1//EN"
 "http://www.w3.org/Graphics/SVG/1.1/DTD/svg11.dtd">
<!-- Generated by graphviz version 2.43.0 (0)
 -->
<!-- Title: algorithm::match::Match::rk Pages: 1 -->
<svg width="325pt" height="86pt"
 viewBox="0.00 0.00 325.00 86.00" xmlns="http://www.w3.org/2000/svg" xmlns:xlink="http://www.w3.org/1999/xlink">
<g id="graph0" class="graph" transform="scale(1 1) rotate(0) translate(4 82)">
<title>algorithm::match::Match::rk</title>
<!-- Node1 -->
<g id="Node000001" class="node">
<title>Node1</title>
<g id="a_Node000001"><a xlink:title="Rabin&#45;Karp.">
<polygon fill="#999999" stroke="#666666" points="317,-43 165,-43 165,-24 317,-24 317,-43"/>
<text text-anchor="middle" x="241" y="-31" font-family="Helvetica,sans-Serif" font-size="10.00">algorithm::match::Match::rk</text>
</a>
</g>
</g>
<!-- Node2 -->
<g id="Node000002" class="node">
<title>Node2</title>
<g id="a_Node000002"><a xlink:href="../../dc/d05/classapplication_1_1app__algo_1_1match_1_1MatchSolution.html#af1786094f28ed94e19401482b554362d" target="_top" xlink:title="The Rabin&#45;Karp method.">
<polygon fill="white" stroke="#666666" points="129,-78 0,-78 0,-37 129,-37 129,-78"/>
<text text-anchor="start" x="8" y="-66" font-family="Helvetica,sans-Serif" font-size="10.00">application::app_algo</text>
<text text-anchor="start" x="8" y="-55" font-family="Helvetica,sans-Serif" font-size="10.00">::match::MatchSolution</text>
<text text-anchor="middle" x="64.5" y="-44" font-family="Helvetica,sans-Serif" font-size="10.00">::rkMethod</text>
</a>
</g>
</g>
<!-- Node1&#45;&gt;Node2 -->
<g id="edge1_Node000001_Node000002" class="edge">
<title>Node1&#45;&gt;Node2</title>
<g id="a_edge1_Node000001_Node000002"><a xlink:title=" ">
<path fill="none" stroke="#63b8ff" d="M160.74,-44.4C150.19,-45.85 139.49,-47.32 129.25,-48.73"/>
<polygon fill="#63b8ff" stroke="#63b8ff" points="161.35,-47.85 170.78,-43.02 160.4,-40.92 161.35,-47.85"/>
</a>
</g>
</g>
<!-- Node3 -->
<g id="Node000003" class="node">
<title>Node3</title>
<g id="a_Node000003"><a xlink:href="../../dc/d35/namespacetest_1_1tst__algo.html#a11a8221eee1cea418772ad6a503937dc" target="_top" xlink:title="Test for the Rabin&#45;Karp method in the solution of match.">
<polygon fill="white" stroke="#666666" points="125.5,-19 3.5,-19 3.5,0 125.5,0 125.5,-19"/>
<text text-anchor="middle" x="64.5" y="-7" font-family="Helvetica,sans-Serif" font-size="10.00">test::tst_algo::TEST_F</text>
</a>
</g>
</g>
<!-- Node1&#45;&gt;Node3 -->
<g id="edge2_Node000001_Node000003" class="edge">
<title>Node1&#45;&gt;Node3</title>
<g id="a_edge2_Node000001_Node000003"><a xlink:title=" ">
<path fill="none" stroke="#63b8ff" d="M160.54,-22.57C148.8,-20.96 136.87,-19.32 125.61,-17.77"/>
<polygon fill="#63b8ff" stroke="#63b8ff" points="160.4,-26.08 170.78,-23.98 161.35,-19.15 160.4,-26.08"/>
</a>
</g>
</g>
</g>
</svg>
