<?xml version="1.0" encoding="UTF-8" standalone="no"?>
<!DOCTYPE svg PUBLIC "-//W3C//DTD SVG 1.1//EN"
 "http://www.w3.org/Graphics/SVG/1.1/DTD/svg11.dtd">
<!-- Generated by graphviz version 2.43.0 (0)
 -->
<!-- Title: algorithm::match::Match::kmp Pages: 1 -->
<svg width="337pt" height="86pt"
 viewBox="0.00 0.00 337.00 86.00" xmlns="http://www.w3.org/2000/svg" xmlns:xlink="http://www.w3.org/1999/xlink">
<g id="graph0" class="graph" transform="scale(1 1) rotate(0) translate(4 82)">
<title>algorithm::match::Match::kmp</title>
<!-- Node1 -->
<g id="Node000001" class="node">
<title>Node1</title>
<g id="a_Node000001"><a xlink:title="Knuth&#45;Morris&#45;Pratt.">
<polygon fill="#999999" stroke="#666666" points="329,-43 165,-43 165,-24 329,-24 329,-43"/>
<text text-anchor="middle" x="247" y="-31" font-family="Helvetica,sans-Serif" font-size="10.00">algorithm::match::Match::kmp</text>
</a>
</g>
</g>
<!-- Node2 -->
<g id="Node000002" class="node">
<title>Node2</title>
<g id="a_Node000002"><a xlink:href="../../dc/d05/classapplication_1_1app__algo_1_1match_1_1MatchSolution.html#a9e3ec4dd6472b3bd5dcae0f331575706" target="_top" xlink:title="The Knuth&#45;Morris&#45;Pratt method.">
<polygon fill="white" stroke="#666666" points="129,-78 0,-78 0,-37 129,-37 129,-78"/>
<text text-anchor="start" x="8" y="-66" font-family="Helvetica,sans-Serif" font-size="10.00">application::app_algo</text>
<text text-anchor="start" x="8" y="-55" font-family="Helvetica,sans-Serif" font-size="10.00">::match::MatchSolution</text>
<text text-anchor="middle" x="64.5" y="-44" font-family="Helvetica,sans-Serif" font-size="10.00">::kmpMethod</text>
</a>
</g>
</g>
<!-- Node1&#45;&gt;Node2 -->
<g id="edge1_Node000001_Node000002" class="edge">
<title>Node1&#45;&gt;Node2</title>
<g id="a_edge1_Node000001_Node000002"><a xlink:title=" ">
<path fill="none" stroke="#63b8ff" d="M164.14,-44.38C152.39,-45.95 140.45,-47.53 129.12,-49.04"/>
<polygon fill="#63b8ff" stroke="#63b8ff" points="164.95,-47.81 174.4,-43.02 164.03,-40.87 164.95,-47.81"/>
</a>
</g>
</g>
<!-- Node3 -->
<g id="Node000003" class="node">
<title>Node3</title>
<g id="a_Node000003"><a xlink:href="../../dc/d35/namespacetest_1_1tst__algo.html#ae925552355a2437fd0fac1661e2ac846" target="_top" xlink:title="Test for the Knuth&#45;Morris&#45;Pratt method in the solution of match.">
<polygon fill="white" stroke="#666666" points="125.5,-19 3.5,-19 3.5,0 125.5,0 125.5,-19"/>
<text text-anchor="middle" x="64.5" y="-7" font-family="Helvetica,sans-Serif" font-size="10.00">test::tst_algo::TEST_F</text>
</a>
</g>
</g>
<!-- Node1&#45;&gt;Node3 -->
<g id="edge2_Node000001_Node000003" class="edge">
<title>Node1&#45;&gt;Node3</title>
<g id="a_edge2_Node000001_Node000003"><a xlink:title=" ">
<path fill="none" stroke="#63b8ff" d="M164.48,-22.66C151.42,-20.92 138.11,-19.16 125.67,-17.5"/>
<polygon fill="#63b8ff" stroke="#63b8ff" points="164.03,-26.13 174.4,-23.98 164.95,-19.19 164.03,-26.13"/>
</a>
</g>
</g>
</g>
</svg>
