<?xml version="1.0" encoding="UTF-8" standalone="no"?>
<!DOCTYPE svg PUBLIC "-//W3C//DTD SVG 1.1//EN"
 "http://www.w3.org/Graphics/SVG/1.1/DTD/svg11.dtd">
<!-- Generated by graphviz version 2.43.0 (0)
 -->
<!-- Title: algorithm::notation::Notation::getPriority Pages: 1 -->
<svg width="634pt" height="182pt"
 viewBox="0.00 0.00 634.00 182.00" xmlns="http://www.w3.org/2000/svg" xmlns:xlink="http://www.w3.org/1999/xlink">
<g id="graph0" class="graph" transform="scale(1 1) rotate(0) translate(4 178)">
<title>algorithm::notation::Notation::getPriority</title>
<!-- Node1 -->
<g id="Node000001" class="node">
<title>Node1</title>
<g id="a_Node000001"><a xlink:title="Get the operator priority.">
<polygon fill="#999999" stroke="#666666" points="626,-120.5 504,-120.5 504,-90.5 626,-90.5 626,-120.5"/>
<text text-anchor="start" x="512" y="-108.5" font-family="Helvetica,sans-Serif" font-size="10.00">algorithm::notation</text>
<text text-anchor="middle" x="565" y="-97.5" font-family="Helvetica,sans-Serif" font-size="10.00">::Notation::getPriority</text>
</a>
</g>
</g>
<!-- Node2 -->
<g id="Node000002" class="node">
<title>Node2</title>
<g id="a_Node000002"><a xlink:href="../../d5/d6e/classalgorithm_1_1notation_1_1Notation.html#a0ccb47669ec0fc861c1fecdaa2f457b1" target="_top" xlink:title="Convert infix notation to postfix notation.">
<polygon fill="white" stroke="#666666" points="468,-120.5 333,-120.5 333,-90.5 468,-90.5 468,-120.5"/>
<text text-anchor="start" x="341" y="-108.5" font-family="Helvetica,sans-Serif" font-size="10.00">algorithm::notation</text>
<text text-anchor="middle" x="400.5" y="-97.5" font-family="Helvetica,sans-Serif" font-size="10.00">::Notation::infixToPostfix</text>
</a>
</g>
</g>
<!-- Node1&#45;&gt;Node2 -->
<g id="edge1_Node000001_Node000002" class="edge">
<title>Node1&#45;&gt;Node2</title>
<g id="a_edge1_Node000001_Node000002"><a xlink:title=" ">
<path fill="none" stroke="#63b8ff" d="M493.71,-105.5C485.22,-105.5 476.57,-105.5 468.14,-105.5"/>
<polygon fill="#63b8ff" stroke="#63b8ff" points="493.95,-109 503.95,-105.5 493.95,-102 493.95,-109"/>
</a>
</g>
</g>
<!-- Node3 -->
<g id="Node000003" class="node">
<title>Node3</title>
<g id="a_Node000003"><a xlink:href="../../d5/d6e/classalgorithm_1_1notation_1_1Notation.html#acbf1cf2ae6ec54674cb81e917ddf3f00" target="_top" xlink:title="Postfix.">
<polygon fill="white" stroke="#666666" points="297,-120.5 187,-120.5 187,-90.5 297,-90.5 297,-120.5"/>
<text text-anchor="start" x="195" y="-108.5" font-family="Helvetica,sans-Serif" font-size="10.00">algorithm::notation</text>
<text text-anchor="middle" x="242" y="-97.5" font-family="Helvetica,sans-Serif" font-size="10.00">::Notation::postfix</text>
</a>
</g>
</g>
<!-- Node2&#45;&gt;Node3 -->
<g id="edge2_Node000002_Node000003" class="edge">
<title>Node2&#45;&gt;Node3</title>
<g id="a_edge2_Node000002_Node000003"><a xlink:title=" ">
<path fill="none" stroke="#63b8ff" d="M322.66,-98.75C314.1,-98.74 305.52,-98.83 297.33,-99.04"/>
<polygon fill="#63b8ff" stroke="#63b8ff" points="322.65,-102.25 332.68,-98.81 322.7,-95.25 322.65,-102.25"/>
</a>
</g>
</g>
<!-- Node6 -->
<g id="Node000006" class="node">
<title>Node6</title>
<g id="a_Node000006"><a xlink:href="../../d5/d6e/classalgorithm_1_1notation_1_1Notation.html#a107d143b7182716d07ceb77bb93c7c35" target="_top" xlink:title="Prefix.">
<polygon fill="white" stroke="#666666" points="297,-72.5 187,-72.5 187,-42.5 297,-42.5 297,-72.5"/>
<text text-anchor="start" x="195" y="-60.5" font-family="Helvetica,sans-Serif" font-size="10.00">algorithm::notation</text>
<text text-anchor="middle" x="242" y="-49.5" font-family="Helvetica,sans-Serif" font-size="10.00">::Notation::prefix</text>
</a>
</g>
</g>
<!-- Node2&#45;&gt;Node6 -->
<g id="edge6_Node000002_Node000006" class="edge">
<title>Node2&#45;&gt;Node6</title>
<g id="a_edge6_Node000002_Node000006"><a xlink:title=" ">
<path fill="none" stroke="#63b8ff" d="M340.6,-87.43C324.55,-82.51 307.34,-77.23 291.91,-72.5"/>
<polygon fill="#63b8ff" stroke="#63b8ff" points="339.83,-90.86 350.41,-90.44 341.88,-84.17 339.83,-90.86"/>
</a>
</g>
</g>
<!-- Node3&#45;&gt;Node2 -->
<g id="edge3_Node000003_Node000002" class="edge">
<title>Node3&#45;&gt;Node2</title>
<g id="a_edge3_Node000003_Node000002"><a xlink:title=" ">
<path fill="none" stroke="#63b8ff" d="M307.37,-112.15C315.72,-112.27 324.29,-112.28 332.68,-112.19"/>
<polygon fill="#63b8ff" stroke="#63b8ff" points="307.39,-108.65 297.33,-111.96 307.26,-115.65 307.39,-108.65"/>
</a>
</g>
</g>
<!-- Node4 -->
<g id="Node000004" class="node">
<title>Node4</title>
<g id="a_Node000004"><a xlink:href="../../df/da4/classapplication_1_1app__algo_1_1notation_1_1NotationSolution.html#af27882d4fcf37cc2e9f478b26c45acc0" target="_top" xlink:title="The postfix method.">
<polygon fill="white" stroke="#666666" points="151,-174 0,-174 0,-133 151,-133 151,-174"/>
<text text-anchor="start" x="8" y="-162" font-family="Helvetica,sans-Serif" font-size="10.00">application::app_algo</text>
<text text-anchor="start" x="8" y="-151" font-family="Helvetica,sans-Serif" font-size="10.00">::notation::NotationSolution</text>
<text text-anchor="middle" x="75.5" y="-140" font-family="Helvetica,sans-Serif" font-size="10.00">::postfixMethod</text>
</a>
</g>
</g>
<!-- Node3&#45;&gt;Node4 -->
<g id="edge4_Node000003_Node000004" class="edge">
<title>Node3&#45;&gt;Node4</title>
<g id="a_edge4_Node000003_Node000004"><a xlink:title=" ">
<path fill="none" stroke="#63b8ff" d="M179.74,-123.38C169.04,-126.5 157.83,-129.77 146.9,-132.96"/>
<polygon fill="#63b8ff" stroke="#63b8ff" points="180.78,-126.72 189.4,-120.56 178.82,-120 180.78,-126.72"/>
</a>
</g>
</g>
<!-- Node5 -->
<g id="Node000005" class="node">
<title>Node5</title>
<g id="a_Node000005"><a xlink:href="../../dc/d35/namespacetest_1_1tst__algo.html#a9ca5661befb94cfbaaef06c318933ed1" target="_top" xlink:title="Test for the postfix method in the solution of notation.">
<polygon fill="white" stroke="#666666" points="136.5,-115 14.5,-115 14.5,-96 136.5,-96 136.5,-115"/>
<text text-anchor="middle" x="75.5" y="-103" font-family="Helvetica,sans-Serif" font-size="10.00">test::tst_algo::TEST_F</text>
</a>
</g>
</g>
<!-- Node3&#45;&gt;Node5 -->
<g id="edge5_Node000003_Node000005" class="edge">
<title>Node3&#45;&gt;Node5</title>
<g id="a_edge5_Node000003_Node000005"><a xlink:title=" ">
<path fill="none" stroke="#63b8ff" d="M176.37,-105.5C163.31,-105.5 149.63,-105.5 136.72,-105.5"/>
<polygon fill="#63b8ff" stroke="#63b8ff" points="176.68,-109 186.68,-105.5 176.68,-102 176.68,-109"/>
</a>
</g>
</g>
<!-- Node7 -->
<g id="Node000007" class="node">
<title>Node7</title>
<g id="a_Node000007"><a xlink:href="../../df/da4/classapplication_1_1app__algo_1_1notation_1_1NotationSolution.html#a20075bde134345609cd3f2cf7e666330" target="_top" xlink:title="The prefix method.">
<polygon fill="white" stroke="#666666" points="151,-78 0,-78 0,-37 151,-37 151,-78"/>
<text text-anchor="start" x="8" y="-66" font-family="Helvetica,sans-Serif" font-size="10.00">application::app_algo</text>
<text text-anchor="start" x="8" y="-55" font-family="Helvetica,sans-Serif" font-size="10.00">::notation::NotationSolution</text>
<text text-anchor="middle" x="75.5" y="-44" font-family="Helvetica,sans-Serif" font-size="10.00">::prefixMethod</text>
</a>
</g>
</g>
<!-- Node6&#45;&gt;Node7 -->
<g id="edge7_Node000006_Node000007" class="edge">
<title>Node6&#45;&gt;Node7</title>
<g id="a_edge7_Node000006_Node000007"><a xlink:title=" ">
<path fill="none" stroke="#63b8ff" d="M176.6,-57.5C168.21,-57.5 159.56,-57.5 151.02,-57.5"/>
<polygon fill="#63b8ff" stroke="#63b8ff" points="176.68,-61 186.68,-57.5 176.68,-54 176.68,-61"/>
</a>
</g>
</g>
<!-- Node8 -->
<g id="Node000008" class="node">
<title>Node8</title>
<g id="a_Node000008"><a xlink:href="../../dc/d35/namespacetest_1_1tst__algo.html#a11219e6420f83fab52c65a44a2171f0c" target="_top" xlink:title="Test for the prefix method in the solution of notation.">
<polygon fill="white" stroke="#666666" points="136.5,-19 14.5,-19 14.5,0 136.5,0 136.5,-19"/>
<text text-anchor="middle" x="75.5" y="-7" font-family="Helvetica,sans-Serif" font-size="10.00">test::tst_algo::TEST_F</text>
</a>
</g>
</g>
<!-- Node6&#45;&gt;Node8 -->
<g id="edge8_Node000006_Node000008" class="edge">
<title>Node6&#45;&gt;Node8</title>
<g id="a_edge8_Node000006_Node000008"><a xlink:title=" ">
<path fill="none" stroke="#63b8ff" d="M186.64,-39.39C174.93,-35.65 162.58,-31.84 151,-28.5 139.59,-25.21 127.1,-21.91 115.67,-19.01"/>
<polygon fill="#63b8ff" stroke="#63b8ff" points="185.71,-42.76 196.3,-42.49 187.86,-36.1 185.71,-42.76"/>
</a>
</g>
</g>
</g>
</svg>
