<?xml version="1.0" encoding="UTF-8" standalone="no"?>
<!DOCTYPE svg PUBLIC "-//W3C//DTD SVG 1.1//EN"
 "http://www.w3.org/Graphics/SVG/1.1/DTD/svg11.dtd">
<!-- Generated by graphviz version 2.43.0 (0)
 -->
<!-- Title: algorithm::notation::Notation::prefix Pages: 1 -->
<svg width="305pt" height="86pt"
 viewBox="0.00 0.00 305.00 86.00" xmlns="http://www.w3.org/2000/svg" xmlns:xlink="http://www.w3.org/1999/xlink">
<g id="graph0" class="graph" transform="scale(1 1) rotate(0) translate(4 82)">
<title>algorithm::notation::Notation::prefix</title>
<!-- Node1 -->
<g id="Node000001" class="node">
<title>Node1</title>
<g id="a_Node000001"><a xlink:title="Prefix.">
<polygon fill="#999999" stroke="#666666" points="297,-48.5 187,-48.5 187,-18.5 297,-18.5 297,-48.5"/>
<text text-anchor="start" x="195" y="-36.5" font-family="Helvetica,sans-Serif" font-size="10.00">algorithm::notation</text>
<text text-anchor="middle" x="242" y="-25.5" font-family="Helvetica,sans-Serif" font-size="10.00">::Notation::prefix</text>
</a>
</g>
</g>
<!-- Node2 -->
<g id="Node000002" class="node">
<title>Node2</title>
<g id="a_Node000002"><a xlink:href="../../df/da4/classapplication_1_1app__algo_1_1notation_1_1NotationSolution.html#a20075bde134345609cd3f2cf7e666330" target="_top" xlink:title="The prefix method.">
<polygon fill="white" stroke="#666666" points="151,-78 0,-78 0,-37 151,-37 151,-78"/>
<text text-anchor="start" x="8" y="-66" font-family="Helvetica,sans-Serif" font-size="10.00">application::app_algo</text>
<text text-anchor="start" x="8" y="-55" font-family="Helvetica,sans-Serif" font-size="10.00">::notation::NotationSolution</text>
<text text-anchor="middle" x="75.5" y="-44" font-family="Helvetica,sans-Serif" font-size="10.00">::prefixMethod</text>
</a>
</g>
</g>
<!-- Node1&#45;&gt;Node2 -->
<g id="edge1_Node000001_Node000002" class="edge">
<title>Node1&#45;&gt;Node2</title>
<g id="a_edge1_Node000001_Node000002"><a xlink:title=" ">
<path fill="none" stroke="#63b8ff" d="M176.6,-42.9C168.21,-44.12 159.56,-45.38 151.02,-46.63"/>
<polygon fill="#63b8ff" stroke="#63b8ff" points="177.29,-46.33 186.68,-41.43 176.28,-39.41 177.29,-46.33"/>
</a>
</g>
</g>
<!-- Node3 -->
<g id="Node000003" class="node">
<title>Node3</title>
<g id="a_Node000003"><a xlink:href="../../dc/d35/namespacetest_1_1tst__algo.html#a11219e6420f83fab52c65a44a2171f0c" target="_top" xlink:title="Test for the prefix method in the solution of notation.">
<polygon fill="white" stroke="#666666" points="136.5,-19 14.5,-19 14.5,0 136.5,0 136.5,-19"/>
<text text-anchor="middle" x="75.5" y="-7" font-family="Helvetica,sans-Serif" font-size="10.00">test::tst_algo::TEST_F</text>
</a>
</g>
</g>
<!-- Node1&#45;&gt;Node3 -->
<g id="edge2_Node000001_Node000003" class="edge">
<title>Node1&#45;&gt;Node3</title>
<g id="a_edge2_Node000001_Node000003"><a xlink:title=" ">
<path fill="none" stroke="#63b8ff" d="M176.75,-24.13C163.58,-22.2 149.75,-20.19 136.72,-18.29"/>
<polygon fill="#63b8ff" stroke="#63b8ff" points="176.28,-27.59 186.68,-25.57 177.29,-20.67 176.28,-27.59"/>
</a>
</g>
</g>
</g>
</svg>
