<?xml version="1.0" encoding="UTF-8" standalone="no"?>
<!DOCTYPE svg PUBLIC "-//W3C//DTD SVG 1.1//EN"
 "http://www.w3.org/Graphics/SVG/1.1/DTD/svg11.dtd">
<!-- Generated by graphviz version 2.43.0 (0)
 -->
<!-- Title: algorithm::notation::Notation::postfix Pages: 1 -->
<svg width="638pt" height="164pt"
 viewBox="0.00 0.00 638.00 164.00" xmlns="http://www.w3.org/2000/svg" xmlns:xlink="http://www.w3.org/1999/xlink">
<g id="graph0" class="graph" transform="scale(1 1) rotate(0) translate(4 160)">
<title>algorithm::notation::Notation::postfix</title>
<!-- Node1 -->
<g id="Node000001" class="node">
<title>Node1</title>
<g id="a_Node000001"><a xlink:title="Postfix.">
<polygon fill="#999999" stroke="#666666" points="630,-99.5 520,-99.5 520,-69.5 630,-69.5 630,-99.5"/>
<text text-anchor="start" x="528" y="-87.5" font-family="Helvetica,sans-Serif" font-size="10.00">algorithm::notation</text>
<text text-anchor="middle" x="575" y="-76.5" font-family="Helvetica,sans-Serif" font-size="10.00">::Notation::postfix</text>
</a>
</g>
</g>
<!-- Node2 -->
<g id="Node000002" class="node">
<title>Node2</title>
<g id="a_Node000002"><a xlink:href="../../d5/d6e/classalgorithm_1_1notation_1_1Notation.html#a0ccb47669ec0fc861c1fecdaa2f457b1" target="_top" xlink:title="Convert infix notation to postfix notation.">
<polygon fill="white" stroke="#666666" points="476,-126.5 341,-126.5 341,-96.5 476,-96.5 476,-126.5"/>
<text text-anchor="start" x="349" y="-114.5" font-family="Helvetica,sans-Serif" font-size="10.00">algorithm::notation</text>
<text text-anchor="middle" x="408.5" y="-103.5" font-family="Helvetica,sans-Serif" font-size="10.00">::Notation::infixToPostfix</text>
</a>
</g>
</g>
<!-- Node1&#45;&gt;Node2 -->
<g id="edge1_Node000001_Node000002" class="edge">
<title>Node1&#45;&gt;Node2</title>
<g id="a_edge1_Node000001_Node000002"><a xlink:title=" ">
<path fill="none" stroke="#63b8ff" d="M509.56,-88.47C493.93,-90.78 477.39,-93.58 462.36,-96.47"/>
<polygon fill="#63b8ff" stroke="#63b8ff" points="510.28,-91.9 519.68,-87.02 509.29,-84.97 510.28,-91.9"/>
</a>
</g>
</g>
<!-- Node6 -->
<g id="Node000006" class="node">
<title>Node6</title>
<g id="a_Node000006"><a xlink:href="../../df/da4/classapplication_1_1app__algo_1_1notation_1_1NotationSolution.html#af27882d4fcf37cc2e9f478b26c45acc0" target="_top" xlink:title="The postfix method.">
<polygon fill="white" stroke="#666666" points="484,-78 333,-78 333,-37 484,-37 484,-78"/>
<text text-anchor="start" x="341" y="-66" font-family="Helvetica,sans-Serif" font-size="10.00">application::app_algo</text>
<text text-anchor="start" x="341" y="-55" font-family="Helvetica,sans-Serif" font-size="10.00">::notation::NotationSolution</text>
<text text-anchor="middle" x="408.5" y="-44" font-family="Helvetica,sans-Serif" font-size="10.00">::postfixMethod</text>
</a>
</g>
</g>
<!-- Node1&#45;&gt;Node6 -->
<g id="edge6_Node000001_Node000006" class="edge">
<title>Node1&#45;&gt;Node6</title>
<g id="a_edge6_Node000001_Node000006"><a xlink:title=" ">
<path fill="none" stroke="#63b8ff" d="M509.6,-73.93C501.21,-72.55 492.56,-71.13 484.02,-69.73"/>
<polygon fill="#63b8ff" stroke="#63b8ff" points="509.25,-77.42 519.68,-75.58 510.38,-70.51 509.25,-77.42"/>
</a>
</g>
</g>
<!-- Node7 -->
<g id="Node000007" class="node">
<title>Node7</title>
<g id="a_Node000007"><a xlink:href="../../dc/d35/namespacetest_1_1tst__algo.html#a9ca5661befb94cfbaaef06c318933ed1" target="_top" xlink:title="Test for the postfix method in the solution of notation.">
<polygon fill="white" stroke="#666666" points="469.5,-19 347.5,-19 347.5,0 469.5,0 469.5,-19"/>
<text text-anchor="middle" x="408.5" y="-7" font-family="Helvetica,sans-Serif" font-size="10.00">test::tst_algo::TEST_F</text>
</a>
</g>
</g>
<!-- Node1&#45;&gt;Node7 -->
<g id="edge7_Node000001_Node000007" class="edge">
<title>Node1&#45;&gt;Node7</title>
<g id="a_edge7_Node000001_Node000007"><a xlink:title=" ">
<path fill="none" stroke="#63b8ff" d="M545.48,-63.59C528.37,-51.87 505.77,-37.78 484,-28.5 475.28,-24.78 465.67,-21.66 456.33,-19.1"/>
<polygon fill="#63b8ff" stroke="#63b8ff" points="543.7,-66.61 553.9,-69.47 547.7,-60.87 543.7,-66.61"/>
</a>
</g>
</g>
<!-- Node2&#45;&gt;Node1 -->
<g id="edge2_Node000002_Node000001" class="edge">
<title>Node2&#45;&gt;Node1</title>
<g id="a_edge2_Node000002_Node000001"><a xlink:title=" ">
<path fill="none" stroke="#63b8ff" d="M486.44,-105.61C498.15,-103.74 510,-101.67 521.05,-99.55"/>
<polygon fill="#63b8ff" stroke="#63b8ff" points="485.56,-102.2 476.22,-107.19 486.63,-109.12 485.56,-102.2"/>
</a>
</g>
</g>
<!-- Node3 -->
<g id="Node000003" class="node">
<title>Node3</title>
<g id="a_Node000003"><a xlink:href="../../d5/d6e/classalgorithm_1_1notation_1_1Notation.html#a107d143b7182716d07ceb77bb93c7c35" target="_top" xlink:title="Prefix.">
<polygon fill="white" stroke="#666666" points="297,-126.5 187,-126.5 187,-96.5 297,-96.5 297,-126.5"/>
<text text-anchor="start" x="195" y="-114.5" font-family="Helvetica,sans-Serif" font-size="10.00">algorithm::notation</text>
<text text-anchor="middle" x="242" y="-103.5" font-family="Helvetica,sans-Serif" font-size="10.00">::Notation::prefix</text>
</a>
</g>
</g>
<!-- Node2&#45;&gt;Node3 -->
<g id="edge3_Node000002_Node000003" class="edge">
<title>Node2&#45;&gt;Node3</title>
<g id="a_edge3_Node000002_Node000003"><a xlink:title=" ">
<path fill="none" stroke="#63b8ff" d="M330.31,-111.5C319.05,-111.5 307.67,-111.5 297.01,-111.5"/>
<polygon fill="#63b8ff" stroke="#63b8ff" points="330.59,-115 340.59,-111.5 330.59,-108 330.59,-115"/>
</a>
</g>
</g>
<!-- Node4 -->
<g id="Node000004" class="node">
<title>Node4</title>
<g id="a_Node000004"><a xlink:href="../../df/da4/classapplication_1_1app__algo_1_1notation_1_1NotationSolution.html#a20075bde134345609cd3f2cf7e666330" target="_top" xlink:title="The prefix method.">
<polygon fill="white" stroke="#666666" points="151,-156 0,-156 0,-115 151,-115 151,-156"/>
<text text-anchor="start" x="8" y="-144" font-family="Helvetica,sans-Serif" font-size="10.00">application::app_algo</text>
<text text-anchor="start" x="8" y="-133" font-family="Helvetica,sans-Serif" font-size="10.00">::notation::NotationSolution</text>
<text text-anchor="middle" x="75.5" y="-122" font-family="Helvetica,sans-Serif" font-size="10.00">::prefixMethod</text>
</a>
</g>
</g>
<!-- Node3&#45;&gt;Node4 -->
<g id="edge4_Node000003_Node000004" class="edge">
<title>Node3&#45;&gt;Node4</title>
<g id="a_edge4_Node000003_Node000004"><a xlink:title=" ">
<path fill="none" stroke="#63b8ff" d="M176.6,-120.9C168.21,-122.12 159.56,-123.38 151.02,-124.63"/>
<polygon fill="#63b8ff" stroke="#63b8ff" points="177.29,-124.33 186.68,-119.43 176.28,-117.41 177.29,-124.33"/>
</a>
</g>
</g>
<!-- Node5 -->
<g id="Node000005" class="node">
<title>Node5</title>
<g id="a_Node000005"><a xlink:href="../../dc/d35/namespacetest_1_1tst__algo.html#a11219e6420f83fab52c65a44a2171f0c" target="_top" xlink:title="Test for the prefix method in the solution of notation.">
<polygon fill="white" stroke="#666666" points="136.5,-97 14.5,-97 14.5,-78 136.5,-78 136.5,-97"/>
<text text-anchor="middle" x="75.5" y="-85" font-family="Helvetica,sans-Serif" font-size="10.00">test::tst_algo::TEST_F</text>
</a>
</g>
</g>
<!-- Node3&#45;&gt;Node5 -->
<g id="edge5_Node000003_Node000005" class="edge">
<title>Node3&#45;&gt;Node5</title>
<g id="a_edge5_Node000003_Node000005"><a xlink:title=" ">
<path fill="none" stroke="#63b8ff" d="M176.75,-102.13C163.58,-100.2 149.75,-98.19 136.72,-96.29"/>
<polygon fill="#63b8ff" stroke="#63b8ff" points="176.28,-105.59 186.68,-103.57 177.29,-98.67 176.28,-105.59"/>
</a>
</g>
</g>
</g>
</svg>
