<?xml version="1.0" encoding="UTF-8" standalone="no"?>
<!DOCTYPE svg PUBLIC "-//W3C//DTD SVG 1.1//EN"
 "http://www.w3.org/Graphics/SVG/1.1/DTD/svg11.dtd">
<!-- Generated by graphviz version 2.43.0 (0)
 -->
<!-- Title: design_pattern::behavioral::iterator::ConcreteAggregate Pages: 1 -->
<svg width="705pt" height="86pt"
 viewBox="0.00 0.00 705.00 86.00" xmlns="http://www.w3.org/2000/svg" xmlns:xlink="http://www.w3.org/1999/xlink">
<g id="graph0" class="graph" transform="scale(1 1) rotate(0) translate(4 82)">
<title>design_pattern::behavioral::iterator::ConcreteAggregate</title>
<!-- Node1 -->
<g id="Node000001" class="node">
<title>Node1</title>
<g id="a_Node000001"><a xlink:title="The concrete aggregate.">
<polygon fill="#999999" stroke="#666666" points="697,-54 539,-54 539,-24 697,-24 697,-54"/>
<text text-anchor="start" x="547" y="-42" font-family="Helvetica,sans-Serif" font-size="10.00">design_pattern::behavioral</text>
<text text-anchor="middle" x="618" y="-31" font-family="Helvetica,sans-Serif" font-size="10.00">::iterator::ConcreteAggregate</text>
</a>
</g>
</g>
<!-- Node2 -->
<g id="Node000002" class="node">
<title>Node2</title>
<g id="a_Node000002"><a xlink:href="../../d9/def/classdesign__pattern_1_1behavioral_1_1iterator_1_1Aggregate.html" target="_top" xlink:title="The aggregate decouples the client from the implementation of the collection of items.">
<polygon fill="white" stroke="#666666" points="483,-78 336,-78 336,-48 483,-48 483,-78"/>
<text text-anchor="start" x="344" y="-66" font-family="Helvetica,sans-Serif" font-size="10.00">design_pattern::behavioral</text>
<text text-anchor="middle" x="409.5" y="-55" font-family="Helvetica,sans-Serif" font-size="10.00">::iterator::Aggregate</text>
</a>
</g>
</g>
<!-- Node2&#45;&gt;Node1 -->
<g id="edge1_Node000001_Node000002" class="edge">
<title>Node2&#45;&gt;Node1</title>
<g id="a_edge1_Node000001_Node000002"><a xlink:title=" ">
<path fill="none" stroke="#63b8ff" d="M493.27,-53.38C508.26,-51.64 523.84,-49.83 538.69,-48.1"/>
<polygon fill="#63b8ff" stroke="#63b8ff" points="492.54,-49.94 483.01,-54.57 493.35,-56.89 492.54,-49.94"/>
</a>
</g>
</g>
<!-- Node3 -->
<g id="Node000003" class="node">
<title>Node3</title>
<g id="a_Node000003"><a target="_parent" xlink:href="https://gcc.gnu.org/onlinedocs/gcc-12.3.0/libstdc++/api/a07595.html" xlink:title=" ">
<polygon fill="white" stroke="#666666" points="502,-30 317,-30 317,0 502,0 502,-30"/>
<text text-anchor="start" x="325" y="-18" font-family="Helvetica,sans-Serif" font-size="10.00">std::enable_shared</text>
<text text-anchor="middle" x="409.5" y="-7" font-family="Helvetica,sans-Serif" font-size="10.00">_from_this&lt; ConcreteAggregate &gt;</text>
</a>
</g>
</g>
<!-- Node3&#45;&gt;Node1 -->
<g id="edge2_Node000001_Node000003" class="edge">
<title>Node3&#45;&gt;Node1</title>
<g id="a_edge2_Node000001_Node000003"><a xlink:title=" ">
<path fill="none" stroke="#63b8ff" d="M512.3,-26.83C521.19,-27.86 530.09,-28.9 538.75,-29.91"/>
<polygon fill="#63b8ff" stroke="#63b8ff" points="512.61,-23.34 502.28,-25.67 511.81,-30.3 512.61,-23.34"/>
</a>
</g>
</g>
<!-- Node4 -->
<g id="Node000004" class="node">
<title>Node4</title>
<g id="a_Node000004"><a target="_parent" xlink:href="https://gcc.gnu.org/onlinedocs/gcc-12.3.0/libstdc++/api/a07595.html" xlink:title=" ">
<polygon fill="white" stroke="#666666" points="161,-30 0,-30 0,0 161,0 161,-30"/>
<text text-anchor="start" x="8" y="-18" font-family="Helvetica,sans-Serif" font-size="10.00">std::enable_shared</text>
<text text-anchor="middle" x="80.5" y="-7" font-family="Helvetica,sans-Serif" font-size="10.00">_from_this&lt; typename _Tp &gt;</text>
</a>
</g>
</g>
<!-- Node4&#45;&gt;Node3 -->
<g id="edge3_Node000003_Node000004" class="edge">
<title>Node4&#45;&gt;Node3</title>
<g id="a_edge3_Node000003_Node000004"><a xlink:title=" ">
<path fill="none" stroke="orange" stroke-dasharray="5,2" d="M171.19,-15C216.51,-15 271.4,-15 316.98,-15"/>
<polygon fill="orange" stroke="orange" points="171.08,-11.5 161.08,-15 171.08,-18.5 171.08,-11.5"/>
</a>
</g>
<text text-anchor="middle" x="239" y="-18" font-family="Helvetica,sans-Serif" font-size="10.00" fill="grey"> &lt; ConcreteAggregate &gt;</text>
</g>
</g>
</svg>
