<?xml version="1.0" encoding="UTF-8" standalone="no"?>
<!DOCTYPE svg PUBLIC "-//W3C//DTD SVG 1.1//EN"
 "http://www.w3.org/Graphics/SVG/1.1/DTD/svg11.dtd">
<!-- Generated by graphviz version 2.43.0 (0)
 -->
<!-- Title: application/example/include/apply_algorithm.hpp Pages: 1 -->
<svg width="958pt" height="181pt"
 viewBox="0.00 0.00 958.00 181.00" xmlns="http://www.w3.org/2000/svg" xmlns:xlink="http://www.w3.org/1999/xlink">
<g id="graph0" class="graph" transform="scale(1 1) rotate(0) translate(4 177)">
<title>application/example/include/apply_algorithm.hpp</title>
<!-- Node1 -->
<g id="Node000001" class="node">
<title>Node1</title>
<g id="a_Node000001"><a xlink:title="The declarations (apply_algorithm) in the application module.">
<polygon fill="#999999" stroke="#666666" points="465.5,-173 307.5,-173 307.5,-143 465.5,-143 465.5,-173"/>
<text text-anchor="start" x="315.5" y="-161" font-family="Helvetica,sans-Serif" font-size="10.00">application/example</text>
<text text-anchor="middle" x="386.5" y="-150" font-family="Helvetica,sans-Serif" font-size="10.00">/include/apply_algorithm.hpp</text>
</a>
</g>
</g>
<!-- Node2 -->
<g id="Node000002" class="node">
<title>Node2</title>
<g id="a_Node000002"><a xlink:href="../../d7/dc7/command_8hpp.html" target="_top" xlink:title="The declarations (command) in the application module.">
<polygon fill="white" stroke="#666666" points="453,-107 320,-107 320,-77 453,-77 453,-107"/>
<text text-anchor="start" x="328" y="-95" font-family="Helvetica,sans-Serif" font-size="10.00">application/core/include</text>
<text text-anchor="middle" x="386.5" y="-84" font-family="Helvetica,sans-Serif" font-size="10.00">/command.hpp</text>
</a>
</g>
</g>
<!-- Node1&#45;&gt;Node2 -->
<g id="edge1_Node000001_Node000002" class="edge">
<title>Node1&#45;&gt;Node2</title>
<g id="a_edge1_Node000001_Node000002"><a xlink:title=" ">
<path fill="none" stroke="#63b8ff" d="M386.5,-132.54C386.5,-123.96 386.5,-114.61 386.5,-107.16"/>
<polygon fill="#63b8ff" stroke="#63b8ff" points="383,-132.8 386.5,-142.8 390,-132.8 383,-132.8"/>
</a>
</g>
</g>
<!-- Node5 -->
<g id="Node000005" class="node">
<title>Node5</title>
<g id="a_Node000005"><a xlink:href="../../d8/d64/apply__algorithm_8cpp.html" target="_top" xlink:title="The definitions (apply_algorithm) in the application module.">
<polygon fill="white" stroke="#666666" points="155,-35.5 0,-35.5 0,-5.5 155,-5.5 155,-35.5"/>
<text text-anchor="start" x="8" y="-23.5" font-family="Helvetica,sans-Serif" font-size="10.00">application/example</text>
<text text-anchor="middle" x="77.5" y="-12.5" font-family="Helvetica,sans-Serif" font-size="10.00">/source/apply_algorithm.cpp</text>
</a>
</g>
</g>
<!-- Node1&#45;&gt;Node5 -->
<g id="edge8_Node000001_Node000005" class="edge">
<title>Node1&#45;&gt;Node5</title>
<g id="a_edge8_Node000001_Node000005"><a xlink:title=" ">
<path fill="none" stroke="#63b8ff" d="M344.77,-138.7C282.32,-111.32 165.91,-60.27 109.62,-35.59"/>
<polygon fill="#63b8ff" stroke="#63b8ff" points="343.74,-142.07 354.31,-142.88 346.55,-135.66 343.74,-142.07"/>
</a>
</g>
</g>
<!-- Node9 -->
<g id="Node000009" class="node">
<title>Node9</title>
<g id="a_Node000009"><a xlink:href="../../df/de8/test__algorithm_8cpp.html" target="_top" xlink:title="The definitions (test_algorithm) in the test module.">
<polygon fill="white" stroke="#666666" points="623.5,-101.5 471.5,-101.5 471.5,-82.5 623.5,-82.5 623.5,-101.5"/>
<text text-anchor="middle" x="547.5" y="-89.5" font-family="Helvetica,sans-Serif" font-size="10.00">test/unit/test_algorithm.cpp</text>
</a>
</g>
</g>
<!-- Node1&#45;&gt;Node9 -->
<g id="edge9_Node000001_Node000009" class="edge">
<title>Node1&#45;&gt;Node9</title>
<g id="a_edge9_Node000001_Node000009"><a xlink:title=" ">
<path fill="none" stroke="#63b8ff" d="M431.13,-139.26C462.09,-126.95 501.95,-111.11 526.07,-101.52"/>
<polygon fill="#63b8ff" stroke="#63b8ff" points="429.83,-136.01 421.83,-142.95 432.42,-142.51 429.83,-136.01"/>
</a>
</g>
</g>
<!-- Node3 -->
<g id="Node000003" class="node">
<title>Node3</title>
<g id="a_Node000003"><a xlink:href="../../d1/d81/command_8cpp.html" target="_top" xlink:title="The definitions (command) in the application module.">
<polygon fill="white" stroke="#666666" points="303.5,-35.5 173.5,-35.5 173.5,-5.5 303.5,-5.5 303.5,-35.5"/>
<text text-anchor="start" x="181.5" y="-23.5" font-family="Helvetica,sans-Serif" font-size="10.00">application/core/source</text>
<text text-anchor="middle" x="238.5" y="-12.5" font-family="Helvetica,sans-Serif" font-size="10.00">/command.cpp</text>
</a>
</g>
</g>
<!-- Node2&#45;&gt;Node3 -->
<g id="edge2_Node000002_Node000003" class="edge">
<title>Node2&#45;&gt;Node3</title>
<g id="a_edge2_Node000002_Node000003"><a xlink:title=" ">
<path fill="none" stroke="#63b8ff" d="M347.43,-72.65C322.68,-61.03 291.16,-46.23 268.41,-35.54"/>
<polygon fill="#63b8ff" stroke="#63b8ff" points="346.01,-75.85 356.55,-76.94 348.99,-69.52 346.01,-75.85"/>
</a>
</g>
</g>
<!-- Node4 -->
<g id="Node000004" class="node">
<title>Node4</title>
<g id="a_Node000004"><a xlink:href="../../df/d92/application_2core_2source_2main_8cpp.html" target="_top" xlink:title="The definitions (main) in the application module.">
<polygon fill="white" stroke="#666666" points="451.5,-35.5 321.5,-35.5 321.5,-5.5 451.5,-5.5 451.5,-35.5"/>
<text text-anchor="start" x="329.5" y="-23.5" font-family="Helvetica,sans-Serif" font-size="10.00">application/core/source</text>
<text text-anchor="middle" x="386.5" y="-12.5" font-family="Helvetica,sans-Serif" font-size="10.00">/main.cpp</text>
</a>
</g>
</g>
<!-- Node2&#45;&gt;Node4 -->
<g id="edge3_Node000002_Node000004" class="edge">
<title>Node2&#45;&gt;Node4</title>
<g id="a_edge3_Node000002_Node000004"><a xlink:title=" ">
<path fill="none" stroke="#63b8ff" d="M386.5,-66.75C386.5,-56.31 386.5,-44.49 386.5,-35.54"/>
<polygon fill="#63b8ff" stroke="#63b8ff" points="383,-66.94 386.5,-76.94 390,-66.94 383,-66.94"/>
</a>
</g>
</g>
<!-- Node2&#45;&gt;Node5 -->
<g id="edge4_Node000002_Node000005" class="edge">
<title>Node2&#45;&gt;Node5</title>
<g id="a_edge4_Node000002_Node000005"><a xlink:title=" ">
<path fill="none" stroke="#63b8ff" d="M313.99,-74.69C261.14,-62.8 190.28,-46.87 139.94,-35.54"/>
<polygon fill="#63b8ff" stroke="#63b8ff" points="313.44,-78.16 323.97,-76.94 314.98,-71.33 313.44,-78.16"/>
</a>
</g>
</g>
<!-- Node6 -->
<g id="Node000006" class="node">
<title>Node6</title>
<g id="a_Node000006"><a xlink:href="../../d1/d3d/apply__data__structure_8cpp.html" target="_top" xlink:title="The definitions (apply_data_structure) in the application module.">
<polygon fill="white" stroke="#666666" points="647.5,-35.5 469.5,-35.5 469.5,-5.5 647.5,-5.5 647.5,-35.5"/>
<text text-anchor="start" x="477.5" y="-23.5" font-family="Helvetica,sans-Serif" font-size="10.00">application/example</text>
<text text-anchor="middle" x="558.5" y="-12.5" font-family="Helvetica,sans-Serif" font-size="10.00">/source/apply_data_structure.cpp</text>
</a>
</g>
</g>
<!-- Node2&#45;&gt;Node6 -->
<g id="edge5_Node000002_Node000006" class="edge">
<title>Node2&#45;&gt;Node6</title>
<g id="a_edge5_Node000002_Node000006"><a xlink:title=" ">
<path fill="none" stroke="#63b8ff" d="M430.77,-73.11C459.7,-61.42 496.95,-46.37 523.74,-35.54"/>
<polygon fill="#63b8ff" stroke="#63b8ff" points="429.27,-69.94 421.31,-76.94 431.89,-76.43 429.27,-69.94"/>
</a>
</g>
</g>
<!-- Node7 -->
<g id="Node000007" class="node">
<title>Node7</title>
<g id="a_Node000007"><a xlink:href="../../de/d6b/apply__design__pattern_8cpp.html" target="_top" xlink:title="The definitions (apply_design_pattern) in the application module.">
<polygon fill="white" stroke="#666666" points="785,-41 666,-41 666,0 785,0 785,-41"/>
<text text-anchor="start" x="674" y="-29" font-family="Helvetica,sans-Serif" font-size="10.00">application/example</text>
<text text-anchor="start" x="674" y="-18" font-family="Helvetica,sans-Serif" font-size="10.00">/source/apply_design</text>
<text text-anchor="middle" x="725.5" y="-7" font-family="Helvetica,sans-Serif" font-size="10.00">_pattern.cpp</text>
</a>
</g>
</g>
<!-- Node2&#45;&gt;Node7 -->
<g id="edge6_Node000002_Node000007" class="edge">
<title>Node2&#45;&gt;Node7</title>
<g id="a_edge6_Node000002_Node000007"><a xlink:title=" ">
<path fill="none" stroke="#63b8ff" d="M463.08,-76.86C542.06,-62.27 654.1,-41.56 656.5,-41 659.53,-40.29 662.63,-39.54 665.75,-38.75"/>
<polygon fill="#63b8ff" stroke="#63b8ff" points="462.34,-73.44 453.14,-78.7 463.61,-80.32 462.34,-73.44"/>
</a>
</g>
</g>
<!-- Node8 -->
<g id="Node000008" class="node">
<title>Node8</title>
<g id="a_Node000008"><a xlink:href="../../d1/dee/apply__numeric_8cpp.html" target="_top" xlink:title="The definitions (apply_numeric) in the application module.">
<polygon fill="white" stroke="#666666" points="950,-35.5 803,-35.5 803,-5.5 950,-5.5 950,-35.5"/>
<text text-anchor="start" x="811" y="-23.5" font-family="Helvetica,sans-Serif" font-size="10.00">application/example</text>
<text text-anchor="middle" x="876.5" y="-12.5" font-family="Helvetica,sans-Serif" font-size="10.00">/source/apply_numeric.cpp</text>
</a>
</g>
</g>
<!-- Node2&#45;&gt;Node8 -->
<g id="edge7_Node000002_Node000008" class="edge">
<title>Node2&#45;&gt;Node8</title>
<g id="a_edge7_Node000002_Node000008"><a xlink:title=" ">
<path fill="none" stroke="#63b8ff" d="M463.09,-77C611.08,-55.98 651.38,-65.68 794.5,-41 803.3,-39.48 812.56,-37.58 821.56,-35.57"/>
<polygon fill="#63b8ff" stroke="#63b8ff" points="462.58,-73.54 453.18,-78.43 463.58,-80.46 462.58,-73.54"/>
</a>
</g>
</g>
</g>
</svg>
