<?xml version="1.0" encoding="UTF-8" standalone="no"?>
<!DOCTYPE svg PUBLIC "-//W3C//DTD SVG 1.1//EN"
 "http://www.w3.org/Graphics/SVG/1.1/DTD/svg11.dtd">
<!-- Generated by graphviz version 2.43.0 (0)
 -->
<!-- Title: design_pattern::behavioral::command::ConcreteCommand Pages: 1 -->
<svg width="729pt" height="98pt"
 viewBox="0.00 0.00 729.00 97.50" xmlns="http://www.w3.org/2000/svg" xmlns:xlink="http://www.w3.org/1999/xlink">
<g id="graph0" class="graph" transform="scale(1 1) rotate(0) translate(4 93.5)">
<title>design_pattern::behavioral::command::ConcreteCommand</title>
<!-- Node1 -->
<g id="Node000001" class="node">
<title>Node1</title>
<g id="a_Node000001"><a xlink:title="The concrete command.">
<polygon fill="#999999" stroke="#666666" points="721,-62.5 550,-62.5 550,-32.5 721,-32.5 721,-62.5"/>
<text text-anchor="start" x="558" y="-50.5" font-family="Helvetica,sans-Serif" font-size="10.00">design_pattern::behavioral</text>
<text text-anchor="middle" x="635.5" y="-39.5" font-family="Helvetica,sans-Serif" font-size="10.00">::command::ConcreteCommand</text>
</a>
</g>
</g>
<!-- Node2 -->
<g id="Node000002" class="node">
<title>Node2</title>
<g id="a_Node000002"><a xlink:href="../../dc/dea/classdesign__pattern_1_1behavioral_1_1command_1_1Command.html" target="_top" xlink:title="Implement the execution in command.">
<polygon fill="white" stroke="#666666" points="471,-89.5 324,-89.5 324,-59.5 471,-59.5 471,-89.5"/>
<text text-anchor="start" x="332" y="-77.5" font-family="Helvetica,sans-Serif" font-size="10.00">design_pattern::behavioral</text>
<text text-anchor="middle" x="397.5" y="-66.5" font-family="Helvetica,sans-Serif" font-size="10.00">::command::Command</text>
</a>
</g>
</g>
<!-- Node2&#45;&gt;Node1 -->
<g id="edge1_Node000001_Node000002" class="edge">
<title>Node2&#45;&gt;Node1</title>
<g id="a_edge1_Node000001_Node000002"><a xlink:title=" ">
<path fill="none" stroke="#63b8ff" d="M481.26,-65.03C503.4,-62.5 527.35,-59.76 549.6,-57.21"/>
<polygon fill="#63b8ff" stroke="#63b8ff" points="480.77,-61.56 471.23,-66.18 481.57,-68.52 480.77,-61.56"/>
</a>
</g>
</g>
<!-- Node3 -->
<g id="Node000003" class="node">
<title>Node3</title>
<g id="a_Node000003"><a target="_parent" xlink:href="https://gcc.gnu.org/onlinedocs/gcc-12.3.0/libstdc++/api/a07575.html" xlink:title=" ">
<polygon fill="white" stroke="#666666" points="463,-41 332,-41 332,0 463,0 463,-41"/>
<text text-anchor="start" x="340" y="-29" font-family="Helvetica,sans-Serif" font-size="10.00">std::weak_ptr&lt; design</text>
<text text-anchor="start" x="340" y="-18" font-family="Helvetica,sans-Serif" font-size="10.00">_pattern::behavioral</text>
<text text-anchor="middle" x="397.5" y="-7" font-family="Helvetica,sans-Serif" font-size="10.00">::command::Receiver &gt;</text>
</a>
</g>
</g>
<!-- Node3&#45;&gt;Node1 -->
<g id="edge2_Node000001_Node000003" class="edge">
<title>Node3&#45;&gt;Node1</title>
<g id="a_edge2_Node000001_Node000003"><a xlink:title=" ">
<path fill="none" stroke="#9a32cd" stroke-dasharray="5,2" d="M473.53,-29.08C497.84,-31.87 524.97,-34.97 549.92,-37.82"/>
<polygon fill="#9a32cd" stroke="#9a32cd" points="473.63,-25.57 463.3,-27.91 472.84,-32.53 473.63,-25.57"/>
</a>
</g>
<text text-anchor="middle" x="510.5" y="-39.5" font-family="Helvetica,sans-Serif" font-size="10.00" fill="grey"> receiver</text>
</g>
<!-- Node4 -->
<g id="Node000004" class="node">
<title>Node4</title>
<g id="a_Node000004"><a target="_parent" xlink:href="https://gcc.gnu.org/onlinedocs/gcc-12.3.0/libstdc++/api/a07575.html" xlink:title=" ">
<polygon fill="white" stroke="#666666" points="143,-35.5 0,-35.5 0,-5.5 143,-5.5 143,-35.5"/>
<text text-anchor="start" x="8" y="-23.5" font-family="Helvetica,sans-Serif" font-size="10.00">std::weak_ptr&lt; typename</text>
<text text-anchor="middle" x="71.5" y="-12.5" font-family="Helvetica,sans-Serif" font-size="10.00"> _Tp &gt;</text>
</a>
</g>
</g>
<!-- Node4&#45;&gt;Node3 -->
<g id="edge3_Node000003_Node000004" class="edge">
<title>Node4&#45;&gt;Node3</title>
<g id="a_edge3_Node000003_Node000004"><a xlink:title=" ">
<path fill="none" stroke="orange" stroke-dasharray="5,2" d="M153.3,-20.5C208.5,-20.5 280.65,-20.5 332,-20.5"/>
<polygon fill="orange" stroke="orange" points="153.2,-17 143.2,-20.5 153.2,-24 153.2,-17"/>
</a>
</g>
<text text-anchor="start" x="161" y="-34.5" font-family="Helvetica,sans-Serif" font-size="10.00" fill="grey"> &lt; design_pattern::behavioral</text>
<text text-anchor="middle" x="233.5" y="-23.5" font-family="Helvetica,sans-Serif" font-size="10.00" fill="grey">::command::Receiver &gt;</text>
</g>
</g>
</svg>
