<?xml version="1.0" encoding="UTF-8" standalone="no"?>
<!DOCTYPE svg PUBLIC "-//W3C//DTD SVG 1.1//EN"
 "http://www.w3.org/Graphics/SVG/1.1/DTD/svg11.dtd">
<!-- Generated by graphviz version 2.43.0 (0)
 -->
<!-- Title: application::app_ds::getTaskNameCurried Pages: 1 -->
<svg width="280pt" height="86pt"
 viewBox="0.00 0.00 280.00 86.00" xmlns="http://www.w3.org/2000/svg" xmlns:xlink="http://www.w3.org/1999/xlink">
<g id="graph0" class="graph" transform="scale(1 1) rotate(0) translate(4 82)">
<title>application::app_ds::getTaskNameCurried</title>
<!-- Node1 -->
<g id="Node000001" class="node">
<title>Node1</title>
<g id="a_Node000001"><a xlink:title="Get the task name curried.">
<polygon fill="#999999" stroke="#666666" points="272,-54 147,-54 147,-24 272,-24 272,-54"/>
<text text-anchor="start" x="155" y="-42" font-family="Helvetica,sans-Serif" font-size="10.00">application::app_ds</text>
<text text-anchor="middle" x="209.5" y="-31" font-family="Helvetica,sans-Serif" font-size="10.00">::getTaskNameCurried</text>
</a>
</g>
</g>
<!-- Node2 -->
<g id="Node000002" class="node">
<title>Node2</title>
<g id="a_Node000002"><a xlink:href="../../d0/dc3/namespaceapplication_1_1app__ds.html#a73a7a1dd5adb60174e10d8a779fd1c70" target="_top" xlink:title="Run linear tasks.">
<polygon fill="white" stroke="#666666" points="111,-78 0,-78 0,-48 111,-48 111,-78"/>
<text text-anchor="start" x="8" y="-66" font-family="Helvetica,sans-Serif" font-size="10.00">application::app_ds</text>
<text text-anchor="middle" x="55.5" y="-55" font-family="Helvetica,sans-Serif" font-size="10.00">::runLinearTasks</text>
</a>
</g>
</g>
<!-- Node1&#45;&gt;Node2 -->
<g id="edge1_Node000001_Node000002" class="edge">
<title>Node1&#45;&gt;Node2</title>
<g id="a_edge1_Node000001_Node000002"><a xlink:title=" ">
<path fill="none" stroke="#63b8ff" d="M136.74,-50.33C128.23,-51.67 119.65,-53.03 111.43,-54.33"/>
<polygon fill="#63b8ff" stroke="#63b8ff" points="137.34,-53.78 146.68,-48.76 136.25,-46.86 137.34,-53.78"/>
</a>
</g>
</g>
<!-- Node3 -->
<g id="Node000003" class="node">
<title>Node3</title>
<g id="a_Node000003"><a xlink:href="../../d0/dc3/namespaceapplication_1_1app__ds.html#ab2ea91a2405f21fbb7e07b5e5ac25f43" target="_top" xlink:title="Run tree tasks.">
<polygon fill="white" stroke="#666666" points="111,-30 0,-30 0,0 111,0 111,-30"/>
<text text-anchor="start" x="8" y="-18" font-family="Helvetica,sans-Serif" font-size="10.00">application::app_ds</text>
<text text-anchor="middle" x="55.5" y="-7" font-family="Helvetica,sans-Serif" font-size="10.00">::runTreeTasks</text>
</a>
</g>
</g>
<!-- Node1&#45;&gt;Node3 -->
<g id="edge2_Node000001_Node000003" class="edge">
<title>Node1&#45;&gt;Node3</title>
<g id="a_edge2_Node000001_Node000003"><a xlink:title=" ">
<path fill="none" stroke="#63b8ff" d="M136.74,-27.67C128.23,-26.33 119.65,-24.97 111.43,-23.67"/>
<polygon fill="#63b8ff" stroke="#63b8ff" points="136.25,-31.14 146.68,-29.24 137.34,-24.22 136.25,-31.14"/>
</a>
</g>
</g>
</g>
</svg>
