<?xml version="1.0" encoding="UTF-8" standalone="no"?>
<!DOCTYPE svg PUBLIC "-//W3C//DTD SVG 1.1//EN"
 "http://www.w3.org/Graphics/SVG/1.1/DTD/svg11.dtd">
<!-- Generated by graphviz version 2.43.0 (0)
 -->
<!-- Title: application::app_ds::getTask Pages: 1 -->
<svg width="698pt" height="134pt"
 viewBox="0.00 0.00 698.00 134.00" xmlns="http://www.w3.org/2000/svg" xmlns:xlink="http://www.w3.org/1999/xlink">
<g id="graph0" class="graph" transform="scale(1 1) rotate(0) translate(4 130)">
<title>application::app_ds::getTask</title>
<!-- Node1 -->
<g id="Node000001" class="node">
<title>Node1</title>
<g id="a_Node000001"><a xlink:title="Get the data structure task.">
<polygon fill="#999999" stroke="#666666" points="690,-78 579,-78 579,-48 690,-48 690,-78"/>
<text text-anchor="start" x="587" y="-66" font-family="Helvetica,sans-Serif" font-size="10.00">application::app_ds</text>
<text text-anchor="middle" x="634.5" y="-55" font-family="Helvetica,sans-Serif" font-size="10.00">::getTask</text>
</a>
</g>
</g>
<!-- Node2 -->
<g id="Node000002" class="node">
<title>Node2</title>
<g id="a_Node000002"><a xlink:href="../../de/dd7/classapplication_1_1command_1_1Command.html#ac485cf00df307e7ad483750876583131" target="_top" xlink:title="Dispatch specific tasks.">
<polygon fill="white" stroke="#666666" points="543,-126 401,-126 401,-96 543,-96 543,-126"/>
<text text-anchor="start" x="409" y="-114" font-family="Helvetica,sans-Serif" font-size="10.00">application::command</text>
<text text-anchor="middle" x="472" y="-103" font-family="Helvetica,sans-Serif" font-size="10.00">::Command::dispatchTask</text>
</a>
</g>
</g>
<!-- Node1&#45;&gt;Node2 -->
<g id="edge1_Node000001_Node000002" class="edge">
<title>Node1&#45;&gt;Node2</title>
<g id="a_edge1_Node000001_Node000002"><a xlink:title=" ">
<path fill="none" stroke="#63b8ff" d="M573.56,-80.93C556.96,-85.89 539.14,-91.22 523.16,-96"/>
<polygon fill="#63b8ff" stroke="#63b8ff" points="574.58,-84.27 583.16,-78.06 572.57,-77.57 574.58,-84.27"/>
</a>
</g>
</g>
<!-- Node5 -->
<g id="Node000005" class="node">
<title>Node5</title>
<g id="a_Node000005"><a xlink:href="../../d0/dc3/namespaceapplication_1_1app__ds.html#a590b1e930562e17c5fe4398581f58ddb" target="_top" xlink:title="Get the bit flags of the instance in data structure tasks.">
<polygon fill="white" stroke="#666666" points="527.5,-78 416.5,-78 416.5,-48 527.5,-48 527.5,-78"/>
<text text-anchor="start" x="424.5" y="-66" font-family="Helvetica,sans-Serif" font-size="10.00">application::app_ds</text>
<text text-anchor="middle" x="472" y="-55" font-family="Helvetica,sans-Serif" font-size="10.00">::getBit</text>
</a>
</g>
</g>
<!-- Node1&#45;&gt;Node5 -->
<g id="edge4_Node000001_Node000005" class="edge">
<title>Node1&#45;&gt;Node5</title>
<g id="a_edge4_Node000001_Node000005"><a xlink:title=" ">
<path fill="none" stroke="#63b8ff" d="M568.47,-63C554.89,-63 540.7,-63 527.54,-63"/>
<polygon fill="#63b8ff" stroke="#63b8ff" points="568.71,-66.5 578.71,-63 568.71,-59.5 568.71,-66.5"/>
</a>
</g>
</g>
<!-- Node6 -->
<g id="Node000006" class="node">
<title>Node6</title>
<g id="a_Node000006"><a xlink:href="../../d0/dc3/namespaceapplication_1_1app__ds.html#a4176bfae18bb14b8783562e0cea300dd" target="_top" xlink:title="Set the bit flags of the instance in data structure tasks.">
<polygon fill="white" stroke="#666666" points="527.5,-30 416.5,-30 416.5,0 527.5,0 527.5,-30"/>
<text text-anchor="start" x="424.5" y="-18" font-family="Helvetica,sans-Serif" font-size="10.00">application::app_ds</text>
<text text-anchor="middle" x="472" y="-7" font-family="Helvetica,sans-Serif" font-size="10.00">::setBit</text>
</a>
</g>
</g>
<!-- Node1&#45;&gt;Node6 -->
<g id="edge5_Node000001_Node000006" class="edge">
<title>Node1&#45;&gt;Node6</title>
<g id="a_edge5_Node000001_Node000006"><a xlink:title=" ">
<path fill="none" stroke="#63b8ff" d="M573.56,-45.07C556.96,-40.11 539.14,-34.78 523.16,-30"/>
<polygon fill="#63b8ff" stroke="#63b8ff" points="572.57,-48.43 583.16,-47.94 574.58,-41.73 572.57,-48.43"/>
</a>
</g>
</g>
<!-- Node3 -->
<g id="Node000003" class="node">
<title>Node3</title>
<g id="a_Node000003"><a xlink:href="../../de/dd7/classapplication_1_1command_1_1Command.html#a19fb2a7d1e940b120bcfc134880d1468" target="_top" xlink:title="Background handler for performing the specific task.">
<polygon fill="white" stroke="#666666" points="365,-126 191,-126 191,-96 365,-96 365,-126"/>
<text text-anchor="start" x="199" y="-114" font-family="Helvetica,sans-Serif" font-size="10.00">application::command</text>
<text text-anchor="middle" x="278" y="-103" font-family="Helvetica,sans-Serif" font-size="10.00">::Command::backgroundHandler</text>
</a>
</g>
</g>
<!-- Node2&#45;&gt;Node3 -->
<g id="edge2_Node000002_Node000003" class="edge">
<title>Node2&#45;&gt;Node3</title>
<g id="a_edge2_Node000002_Node000003"><a xlink:title=" ">
<path fill="none" stroke="#63b8ff" d="M390.72,-111C382.31,-111 373.75,-111 365.28,-111"/>
<polygon fill="#63b8ff" stroke="#63b8ff" points="390.87,-114.5 400.87,-111 390.87,-107.5 390.87,-114.5"/>
</a>
</g>
</g>
<!-- Node4 -->
<g id="Node000004" class="node">
<title>Node4</title>
<g id="a_Node000004"><a xlink:href="../../de/dd7/classapplication_1_1command_1_1Command.html#a5d2584a4ee3f7e91ec82649f91b3b810" target="_top" xlink:title="Interface for running commander.">
<polygon fill="white" stroke="#666666" points="155,-126 0,-126 0,-96 155,-96 155,-126"/>
<text text-anchor="start" x="8" y="-114" font-family="Helvetica,sans-Serif" font-size="10.00">application::command</text>
<text text-anchor="middle" x="77.5" y="-103" font-family="Helvetica,sans-Serif" font-size="10.00">::Command::runCommander</text>
</a>
</g>
</g>
<!-- Node3&#45;&gt;Node4 -->
<g id="edge3_Node000003_Node000004" class="edge">
<title>Node3&#45;&gt;Node4</title>
<g id="a_edge3_Node000003_Node000004"><a xlink:title=" ">
<path fill="none" stroke="#63b8ff" d="M180.78,-111C172.22,-111 163.63,-111 155.26,-111"/>
<polygon fill="#63b8ff" stroke="#63b8ff" points="180.8,-114.5 190.8,-111 180.8,-107.5 180.8,-114.5"/>
</a>
</g>
</g>
</g>
</svg>
