<?xml version="1.0" encoding="UTF-8" standalone="no"?>
<!DOCTYPE svg PUBLIC "-//W3C//DTD SVG 1.1//EN"
 "http://www.w3.org/Graphics/SVG/1.1/DTD/svg11.dtd">
<!-- Generated by graphviz version 2.43.0 (0)
 -->
<!-- Title: design_pattern::behavioral::mediator::ConcreteColleague Pages: 1 -->
<svg width="1032pt" height="99pt"
 viewBox="0.00 0.00 1032.00 99.00" xmlns="http://www.w3.org/2000/svg" xmlns:xlink="http://www.w3.org/1999/xlink">
<g id="graph0" class="graph" transform="scale(1 1) rotate(0) translate(4 95)">
<title>design_pattern::behavioral::mediator::ConcreteColleague</title>
<!-- Node1 -->
<g id="Node000001" class="node">
<title>Node1</title>
<g id="a_Node000001"><a xlink:title="The concrete colleague.">
<polygon fill="#999999" stroke="#666666" points="1024,-56 859,-56 859,-26 1024,-26 1024,-56"/>
<text text-anchor="start" x="867" y="-44" font-family="Helvetica,sans-Serif" font-size="10.00">design_pattern::behavioral</text>
<text text-anchor="middle" x="941.5" y="-33" font-family="Helvetica,sans-Serif" font-size="10.00">::mediator::ConcreteColleague</text>
</a>
</g>
</g>
<!-- Node2 -->
<g id="Node000002" class="node">
<title>Node2</title>
<g id="a_Node000002"><a xlink:href="../../d5/d5b/classdesign__pattern_1_1behavioral_1_1mediator_1_1Colleague.html" target="_top" xlink:title="The colleague communicates with its mediator. Whenever it would have otherwise communicated with anot...">
<polygon fill="white" stroke="#666666" points="804,-82 657,-82 657,-52 804,-52 804,-82"/>
<text text-anchor="start" x="665" y="-70" font-family="Helvetica,sans-Serif" font-size="10.00">design_pattern::behavioral</text>
<text text-anchor="middle" x="730.5" y="-59" font-family="Helvetica,sans-Serif" font-size="10.00">::mediator::Colleague</text>
</a>
</g>
</g>
<!-- Node2&#45;&gt;Node1 -->
<g id="edge1_Node000001_Node000002" class="edge">
<title>Node2&#45;&gt;Node1</title>
<g id="a_edge1_Node000001_Node000002"><a xlink:title=" ">
<path fill="none" stroke="#63b8ff" d="M814.09,-56.73C828.8,-54.9 844.12,-52.99 858.81,-51.16"/>
<polygon fill="#63b8ff" stroke="#63b8ff" points="813.5,-53.27 804.01,-57.98 814.37,-60.22 813.5,-53.27"/>
</a>
</g>
</g>
<!-- Node3 -->
<g id="Node000003" class="node">
<title>Node3</title>
<g id="a_Node000003"><a target="_parent" xlink:href="https://gcc.gnu.org/onlinedocs/gcc-12.3.0/libstdc++/api/a07575.html" xlink:title=" ">
<polygon fill="white" stroke="#666666" points="468.5,-89.5 340.5,-89.5 340.5,-48.5 468.5,-48.5 468.5,-89.5"/>
<text text-anchor="start" x="348.5" y="-77.5" font-family="Helvetica,sans-Serif" font-size="10.00">std::weak_ptr&lt; design</text>
<text text-anchor="start" x="348.5" y="-66.5" font-family="Helvetica,sans-Serif" font-size="10.00">_pattern::behavioral</text>
<text text-anchor="middle" x="404.5" y="-55.5" font-family="Helvetica,sans-Serif" font-size="10.00">::mediator::Mediator &gt;</text>
</a>
</g>
</g>
<!-- Node3&#45;&gt;Node2 -->
<g id="edge2_Node000002_Node000003" class="edge">
<title>Node3&#45;&gt;Node2</title>
<g id="a_edge2_Node000002_Node000003"><a xlink:title=" ">
<path fill="none" stroke="#9a32cd" stroke-dasharray="5,2" d="M478.79,-68.55C532.02,-68.22 603.72,-67.78 656.81,-67.45"/>
<polygon fill="#9a32cd" stroke="#9a32cd" points="478.72,-65.05 468.74,-68.61 478.76,-72.05 478.72,-65.05"/>
</a>
</g>
<text text-anchor="middle" x="562" y="-71" font-family="Helvetica,sans-Serif" font-size="10.00" fill="grey"> mediator</text>
</g>
<!-- Node4 -->
<g id="Node000004" class="node">
<title>Node4</title>
<g id="a_Node000004"><a target="_parent" xlink:href="https://gcc.gnu.org/onlinedocs/gcc-12.3.0/libstdc++/api/a07575.html" xlink:title=" ">
<polygon fill="white" stroke="#666666" points="143,-84 0,-84 0,-54 143,-54 143,-84"/>
<text text-anchor="start" x="8" y="-72" font-family="Helvetica,sans-Serif" font-size="10.00">std::weak_ptr&lt; typename</text>
<text text-anchor="middle" x="71.5" y="-61" font-family="Helvetica,sans-Serif" font-size="10.00"> _Tp &gt;</text>
</a>
</g>
</g>
<!-- Node4&#45;&gt;Node3 -->
<g id="edge3_Node000003_Node000004" class="edge">
<title>Node4&#45;&gt;Node3</title>
<g id="a_edge3_Node000003_Node000004"><a xlink:title=" ">
<path fill="none" stroke="orange" stroke-dasharray="5,2" d="M153.26,-69C210.83,-69 287.13,-69 340.28,-69"/>
<polygon fill="orange" stroke="orange" points="153.1,-65.5 143.1,-69 153.1,-72.5 153.1,-65.5"/>
</a>
</g>
<text text-anchor="start" x="161" y="-83" font-family="Helvetica,sans-Serif" font-size="10.00" fill="grey"> &lt; design_pattern::behavioral</text>
<text text-anchor="middle" x="233.5" y="-72" font-family="Helvetica,sans-Serif" font-size="10.00" fill="grey">::mediator::Mediator &gt;</text>
</g>
<!-- Node5 -->
<g id="Node000005" class="node">
<title>Node5</title>
<g id="a_Node000005"><a target="_parent" xlink:href="https://gcc.gnu.org/onlinedocs/gcc-12.3.0/libstdc++/api/a07595.html" xlink:title=" ">
<polygon fill="white" stroke="#666666" points="822,-33 639,-33 639,-3 822,-3 822,-33"/>
<text text-anchor="start" x="647" y="-21" font-family="Helvetica,sans-Serif" font-size="10.00">std::enable_shared</text>
<text text-anchor="middle" x="730.5" y="-10" font-family="Helvetica,sans-Serif" font-size="10.00">_from_this&lt; ConcreteColleague &gt;</text>
</a>
</g>
</g>
<!-- Node5&#45;&gt;Node1 -->
<g id="edge4_Node000001_Node000005" class="edge">
<title>Node5&#45;&gt;Node1</title>
<g id="a_edge4_Node000001_Node000005"><a xlink:title=" ">
<path fill="none" stroke="#63b8ff" d="M832.24,-29.09C841.11,-30.06 850.01,-31.04 858.7,-32"/>
<polygon fill="#63b8ff" stroke="#63b8ff" points="832.58,-25.6 822.26,-27.99 831.82,-32.56 832.58,-25.6"/>
</a>
</g>
</g>
<!-- Node6 -->
<g id="Node000006" class="node">
<title>Node6</title>
<g id="a_Node000006"><a target="_parent" xlink:href="https://gcc.gnu.org/onlinedocs/gcc-12.3.0/libstdc++/api/a07595.html" xlink:title=" ">
<polygon fill="white" stroke="#666666" points="485,-30 324,-30 324,0 485,0 485,-30"/>
<text text-anchor="start" x="332" y="-18" font-family="Helvetica,sans-Serif" font-size="10.00">std::enable_shared</text>
<text text-anchor="middle" x="404.5" y="-7" font-family="Helvetica,sans-Serif" font-size="10.00">_from_this&lt; typename _Tp &gt;</text>
</a>
</g>
</g>
<!-- Node6&#45;&gt;Node5 -->
<g id="edge5_Node000005_Node000006" class="edge">
<title>Node6&#45;&gt;Node5</title>
<g id="a_edge5_Node000005_Node000006"><a xlink:title=" ">
<path fill="none" stroke="orange" stroke-dasharray="5,2" d="M495.45,-15.83C540.2,-16.25 594.15,-16.75 638.97,-17.16"/>
<polygon fill="orange" stroke="orange" points="495.21,-12.33 485.17,-15.74 495.14,-19.33 495.21,-12.33"/>
</a>
</g>
<text text-anchor="middle" x="562" y="-20" font-family="Helvetica,sans-Serif" font-size="10.00" fill="grey"> &lt; ConcreteColleague &gt;</text>
</g>
</g>
</svg>
