<?xml version="1.0" encoding="UTF-8" standalone="no"?>
<!DOCTYPE svg PUBLIC "-//W3C//DTD SVG 1.1//EN"
 "http://www.w3.org/Graphics/SVG/1.1/DTD/svg11.dtd">
<!-- Generated by graphviz version 2.43.0 (0)
 -->
<!-- Title: application::config::Config Pages: 1 -->
<svg width="1205pt" height="166pt"
 viewBox="0.00 0.00 1205.00 165.50" xmlns="http://www.w3.org/2000/svg" xmlns:xlink="http://www.w3.org/1999/xlink">
<g id="graph0" class="graph" transform="scale(1 1) rotate(0) translate(4 161.5)">
<title>application::config::Config</title>
<!-- Node1 -->
<g id="Node000001" class="node">
<title>Node1</title>
<g id="a_Node000001"><a xlink:title="Configuration.">
<polygon fill="#999999" stroke="#666666" points="1197,-48.5 1091,-48.5 1091,-18.5 1197,-18.5 1197,-48.5"/>
<text text-anchor="start" x="1099" y="-36.5" font-family="Helvetica,sans-Serif" font-size="10.00">application::config</text>
<text text-anchor="middle" x="1144" y="-25.5" font-family="Helvetica,sans-Serif" font-size="10.00">::Config</text>
</a>
</g>
</g>
<!-- Node2 -->
<g id="Node000002" class="node">
<title>Node2</title>
<g id="a_Node000002"><a xlink:href="../../d5/d0b/classutility_1_1json_1_1JSON.html" target="_top" xlink:title="Javascript object notation.">
<polygon fill="white" stroke="#666666" points="1030,-70 929,-70 929,-51 1030,-51 1030,-70"/>
<text text-anchor="middle" x="979.5" y="-58" font-family="Helvetica,sans-Serif" font-size="10.00">utility::json::JSON</text>
</a>
</g>
</g>
<!-- Node2&#45;&gt;Node1 -->
<g id="edge1_Node000001_Node000002" class="edge">
<title>Node2&#45;&gt;Node1</title>
<g id="a_edge1_Node000001_Node000002"><a xlink:title=" ">
<path fill="none" stroke="#9a32cd" stroke-dasharray="5,2" d="M1040.27,-50.57C1056.86,-47.81 1074.74,-44.84 1090.85,-42.16"/>
<polygon fill="#9a32cd" stroke="#9a32cd" points="1039.43,-47.16 1030.14,-52.25 1040.58,-54.07 1039.43,-47.16"/>
</a>
</g>
<text text-anchor="middle" x="1060.5" y="-51.5" font-family="Helvetica,sans-Serif" font-size="10.00" fill="grey"> data</text>
</g>
<!-- Node3 -->
<g id="Node000003" class="node">
<title>Node3</title>
<g id="a_Node000003"><a xlink:href="../../d4/dde/unionutility_1_1json_1_1JSON_1_1Data.html" target="_top" xlink:title="Union for the data that stores JSON information.">
<polygon fill="white" stroke="#666666" points="853,-84.5 752,-84.5 752,-54.5 853,-54.5 853,-84.5"/>
<text text-anchor="start" x="760" y="-72.5" font-family="Helvetica,sans-Serif" font-size="10.00">utility::json::JSON</text>
<text text-anchor="middle" x="802.5" y="-61.5" font-family="Helvetica,sans-Serif" font-size="10.00">::Data</text>
</a>
</g>
</g>
<!-- Node3&#45;&gt;Node2 -->
<g id="edge2_Node000002_Node000003" class="edge">
<title>Node3&#45;&gt;Node2</title>
<g id="a_edge2_Node000002_Node000003"><a xlink:title=" ">
<path fill="none" stroke="#9a32cd" stroke-dasharray="5,2" d="M863.45,-66.42C884.81,-65.32 908.61,-64.09 929,-63.05"/>
<polygon fill="#9a32cd" stroke="#9a32cd" points="862.99,-62.94 853.18,-66.95 863.35,-69.93 862.99,-62.94"/>
</a>
</g>
<text text-anchor="middle" x="891" y="-68.5" font-family="Helvetica,sans-Serif" font-size="10.00" fill="grey"> data</text>
</g>
<!-- Node4 -->
<g id="Node000004" class="node">
<title>Node4</title>
<g id="a_Node000004"><a target="_parent" xlink:href="https://gcc.gnu.org/onlinedocs/gcc-12.3.0/libstdc++/api/a08631.html" xlink:title=" ">
<polygon fill="white" stroke="#666666" points="663,-152 546,-152 546,-111 663,-111 663,-152"/>
<text text-anchor="start" x="554" y="-140" font-family="Helvetica,sans-Serif" font-size="10.00">std::map&lt; std::basic</text>
<text text-anchor="start" x="554" y="-129" font-family="Helvetica,sans-Serif" font-size="10.00">_string, utility::json</text>
<text text-anchor="middle" x="604.5" y="-118" font-family="Helvetica,sans-Serif" font-size="10.00">::JSON &gt;</text>
</a>
</g>
</g>
<!-- Node4&#45;&gt;Node3 -->
<g id="edge3_Node000003_Node000004" class="edge">
<title>Node4&#45;&gt;Node3</title>
<g id="a_edge3_Node000003_Node000004"><a xlink:title=" ">
<path fill="none" stroke="#9a32cd" stroke-dasharray="5,2" d="M672.92,-110.17C699.63,-101.72 729.71,-92.21 754.05,-84.51"/>
<polygon fill="#9a32cd" stroke="#9a32cd" points="671.73,-106.88 663.25,-113.23 673.84,-113.55 671.73,-106.88"/>
</a>
</g>
<text text-anchor="middle" x="718.5" y="-103.5" font-family="Helvetica,sans-Serif" font-size="10.00" fill="grey"> map</text>
</g>
<!-- Node5 -->
<g id="Node000005" class="node">
<title>Node5</title>
<g id="a_Node000005"><a target="_parent" xlink:href="https://gcc.gnu.org/onlinedocs/gcc-12.3.0/libstdc++/api/a08631.html" xlink:title=" ">
<polygon fill="white" stroke="#666666" points="378,-157.5 201,-157.5 201,-105.5 378,-105.5 378,-157.5"/>
<text text-anchor="start" x="209" y="-145.5" font-family="Helvetica,sans-Serif" font-size="10.00">std::map&lt; typename</text>
<text text-anchor="start" x="209" y="-134.5" font-family="Helvetica,sans-Serif" font-size="10.00"> _Key, typename _Tp,</text>
<text text-anchor="start" x="209" y="-123.5" font-family="Helvetica,sans-Serif" font-size="10.00"> typename _Compare, typename</text>
<text text-anchor="middle" x="289.5" y="-112.5" font-family="Helvetica,sans-Serif" font-size="10.00"> _Alloc &gt;</text>
</a>
</g>
</g>
<!-- Node5&#45;&gt;Node4 -->
<g id="edge4_Node000004_Node000005" class="edge">
<title>Node5&#45;&gt;Node4</title>
<g id="a_edge4_Node000004_Node000005"><a xlink:title=" ">
<path fill="none" stroke="orange" stroke-dasharray="5,2" d="M388.29,-131.5C439.93,-131.5 501.54,-131.5 545.58,-131.5"/>
<polygon fill="orange" stroke="orange" points="388.1,-128 378.1,-131.5 388.1,-135 388.1,-128"/>
</a>
</g>
<text text-anchor="start" x="401.5" y="-145.5" font-family="Helvetica,sans-Serif" font-size="10.00" fill="grey"> &lt; std::basic_string,</text>
<text text-anchor="middle" x="451" y="-134.5" font-family="Helvetica,sans-Serif" font-size="10.00" fill="grey"> utility::json::JSON &gt;</text>
</g>
<!-- Node6 -->
<g id="Node000006" class="node">
<title>Node6</title>
<g id="a_Node000006"><a target="_parent" xlink:href="https://gcc.gnu.org/onlinedocs/gcc-12.3.0/libstdc++/api/a08111.html" xlink:title=" ">
<polygon fill="white" stroke="#666666" points="658,-92.5 551,-92.5 551,-62.5 658,-62.5 658,-92.5"/>
<text text-anchor="start" x="559" y="-80.5" font-family="Helvetica,sans-Serif" font-size="10.00">std::deque&lt; utility</text>
<text text-anchor="middle" x="604.5" y="-69.5" font-family="Helvetica,sans-Serif" font-size="10.00">::json::JSON &gt;</text>
</a>
</g>
</g>
<!-- Node6&#45;&gt;Node3 -->
<g id="edge5_Node000003_Node000006" class="edge">
<title>Node6&#45;&gt;Node3</title>
<g id="a_edge5_Node000003_Node000006"><a xlink:title=" ">
<path fill="none" stroke="#9a32cd" stroke-dasharray="5,2" d="M668.17,-74.94C695.24,-73.84 726.45,-72.56 751.87,-71.53"/>
<polygon fill="#9a32cd" stroke="#9a32cd" points="667.87,-71.45 658.02,-75.36 668.16,-78.45 667.87,-71.45"/>
</a>
</g>
<text text-anchor="middle" x="718.5" y="-76.5" font-family="Helvetica,sans-Serif" font-size="10.00" fill="grey"> list</text>
</g>
<!-- Node7 -->
<g id="Node000007" class="node">
<title>Node7</title>
<g id="a_Node000007"><a target="_parent" xlink:href="https://gcc.gnu.org/onlinedocs/gcc-12.3.0/libstdc++/api/a08099.html" xlink:title=" ">
<polygon fill="white" stroke="#666666" points="164,-70.5 0,-70.5 0,-40.5 164,-40.5 164,-70.5"/>
<text text-anchor="start" x="8" y="-58.5" font-family="Helvetica,sans-Serif" font-size="10.00">std::_Deque_base&lt; typename</text>
<text text-anchor="middle" x="82" y="-47.5" font-family="Helvetica,sans-Serif" font-size="10.00"> _Tp, typename _Alloc &gt;</text>
</a>
</g>
</g>
<!-- Node7&#45;&gt;Node6 -->
<g id="edge6_Node000006_Node000007" class="edge">
<title>Node7&#45;&gt;Node6</title>
<g id="a_edge6_Node000006_Node000007"><a xlink:title=" ">
<path fill="none" stroke="darkgreen" d="M174.05,-59.35C283.18,-63.96 462.37,-71.53 550.78,-75.27"/>
<polygon fill="darkgreen" stroke="darkgreen" points="174.18,-55.85 164.04,-58.93 173.89,-62.84 174.18,-55.85"/>
</a>
</g>
</g>
<!-- Node8 -->
<g id="Node000008" class="node">
<title>Node8</title>
<g id="a_Node000008"><a target="_parent" xlink:href="https://gcc.gnu.org/onlinedocs/gcc-12.3.0/libstdc++/api/a08111.html" xlink:title=" ">
<polygon fill="white" stroke="#666666" points="357.5,-49.5 221.5,-49.5 221.5,-19.5 357.5,-19.5 357.5,-49.5"/>
<text text-anchor="start" x="229.5" y="-37.5" font-family="Helvetica,sans-Serif" font-size="10.00">std::deque&lt; typename</text>
<text text-anchor="middle" x="289.5" y="-26.5" font-family="Helvetica,sans-Serif" font-size="10.00"> _Tp, typename _Alloc &gt;</text>
</a>
</g>
</g>
<!-- Node7&#45;&gt;Node8 -->
<g id="edge8_Node000008_Node000007" class="edge">
<title>Node7&#45;&gt;Node8</title>
<g id="a_edge8_Node000008_Node000007"><a xlink:title=" ">
<path fill="none" stroke="darkgreen" d="M174.52,-46.15C190.31,-44.53 206.45,-42.89 221.43,-41.35"/>
<polygon fill="darkgreen" stroke="darkgreen" points="173.81,-42.7 164.22,-47.2 174.52,-49.67 173.81,-42.7"/>
</a>
</g>
</g>
<!-- Node8&#45;&gt;Node6 -->
<g id="edge7_Node000006_Node000008" class="edge">
<title>Node8&#45;&gt;Node6</title>
<g id="a_edge7_Node000006_Node000008"><a xlink:title=" ">
<path fill="none" stroke="orange" stroke-dasharray="5,2" d="M368.08,-37.83C409.27,-40.39 460.61,-44.84 506,-52.5 520.9,-55.02 536.87,-58.68 551.47,-62.44"/>
<polygon fill="orange" stroke="orange" points="368.03,-34.32 357.84,-37.22 367.61,-41.31 368.03,-34.32"/>
</a>
</g>
<text text-anchor="middle" x="451" y="-55.5" font-family="Helvetica,sans-Serif" font-size="10.00" fill="grey"> &lt; utility::json::JSON &gt;</text>
</g>
<!-- Node9 -->
<g id="Node000009" class="node">
<title>Node9</title>
<g id="a_Node000009"><a target="_parent" xlink:href="https://gcc.gnu.org/onlinedocs/gcc-12.3.0/libstdc++/api/a05563.html" xlink:title=" ">
<polygon fill="white" stroke="#666666" points="685,-41 524,-41 524,0 685,0 685,-41"/>
<text text-anchor="start" x="532" y="-29" font-family="Helvetica,sans-Serif" font-size="10.00">std::basic_string&lt;</text>
<text text-anchor="start" x="532" y="-18" font-family="Helvetica,sans-Serif" font-size="10.00"> typename _CharT, typename</text>
<text text-anchor="middle" x="604.5" y="-7" font-family="Helvetica,sans-Serif" font-size="10.00"> _Traits, typename _Alloc &gt;</text>
</a>
</g>
</g>
<!-- Node9&#45;&gt;Node1 -->
<g id="edge10_Node000001_Node000009" class="edge">
<title>Node9&#45;&gt;Node1</title>
<g id="a_edge10_Node000001_Node000009"><a xlink:title=" ">
<path fill="none" stroke="#9a32cd" stroke-dasharray="5,2" d="M695.12,-22.67C808.19,-25.4 998.93,-30.02 1090.65,-32.23"/>
<polygon fill="#9a32cd" stroke="#9a32cd" points="695.18,-19.17 685.1,-22.43 695.01,-26.17 695.18,-19.17"/>
</a>
</g>
<text text-anchor="middle" x="891" y="-31.5" font-family="Helvetica,sans-Serif" font-size="10.00" fill="grey"> filePath</text>
</g>
<!-- Node9&#45;&gt;Node3 -->
<g id="edge9_Node000003_Node000009" class="edge">
<title>Node9&#45;&gt;Node3</title>
<g id="a_edge9_Node000003_Node000009"><a xlink:title=" ">
<path fill="none" stroke="#9a32cd" stroke-dasharray="5,2" d="M695.08,-42.89C714.63,-47.78 734.64,-52.78 751.95,-57.11"/>
<polygon fill="#9a32cd" stroke="#9a32cd" points="695.77,-39.46 685.22,-40.43 694.07,-46.25 695.77,-39.46"/>
</a>
</g>
<text text-anchor="middle" x="718.5" y="-54.5" font-family="Helvetica,sans-Serif" font-size="10.00" fill="grey"> string</text>
</g>
</g>
</svg>
