<?xml version="1.0" encoding="UTF-8" standalone="no"?>
<!DOCTYPE svg PUBLIC "-//W3C//DTD SVG 1.1//EN"
 "http://www.w3.org/Graphics/SVG/1.1/DTD/svg11.dtd">
<!-- Generated by graphviz version 2.43.0 (0)
 -->
<!-- Title: algorithm::optimal::Genetic Pages: 1 -->
<svg width="354pt" height="134pt"
 viewBox="0.00 0.00 354.00 134.00" xmlns="http://www.w3.org/2000/svg" xmlns:xlink="http://www.w3.org/1999/xlink">
<g id="graph0" class="graph" transform="scale(1 1) rotate(0) translate(4 130)">
<title>algorithm::optimal::Genetic</title>
<!-- Node1 -->
<g id="Node000001" class="node">
<title>Node1</title>
<g id="a_Node000001"><a xlink:title="Genetic.">
<polygon fill="#999999" stroke="#666666" points="346,-78 239,-78 239,-48 346,-48 346,-78"/>
<text text-anchor="start" x="247" y="-66" font-family="Helvetica,sans-Serif" font-size="10.00">algorithm::optimal</text>
<text text-anchor="middle" x="292.5" y="-55" font-family="Helvetica,sans-Serif" font-size="10.00">::Genetic</text>
</a>
</g>
</g>
<!-- Node2 -->
<g id="Node000002" class="node">
<title>Node2</title>
<g id="a_Node000002"><a xlink:href="../../d4/d1c/classalgorithm_1_1optimal_1_1Optimal.html" target="_top" xlink:title="Optimal methods.">
<polygon fill="white" stroke="#666666" points="126.5,-126 19.5,-126 19.5,-96 126.5,-96 126.5,-126"/>
<text text-anchor="start" x="27.5" y="-114" font-family="Helvetica,sans-Serif" font-size="10.00">algorithm::optimal</text>
<text text-anchor="middle" x="73" y="-103" font-family="Helvetica,sans-Serif" font-size="10.00">::Optimal</text>
</a>
</g>
</g>
<!-- Node2&#45;&gt;Node1 -->
<g id="edge1_Node000001_Node000002" class="edge">
<title>Node2&#45;&gt;Node1</title>
<g id="a_edge1_Node000001_Node000002"><a xlink:title=" ">
<path fill="none" stroke="#63b8ff" d="M136.48,-97.21C168.92,-90.05 208.1,-81.41 238.96,-74.6"/>
<polygon fill="#63b8ff" stroke="#63b8ff" points="135.66,-93.81 126.65,-99.38 137.17,-100.64 135.66,-93.81"/>
</a>
</g>
</g>
<!-- Node3 -->
<g id="Node000003" class="node">
<title>Node3</title>
<g id="a_Node000003"><a xlink:href="../../d2/dfb/classalgorithm_1_1optimal_1_1Function.html" target="_top" xlink:title="Target functions.">
<polygon fill="white" stroke="#666666" points="126.5,-78 19.5,-78 19.5,-48 126.5,-48 126.5,-78"/>
<text text-anchor="start" x="27.5" y="-66" font-family="Helvetica,sans-Serif" font-size="10.00">algorithm::optimal</text>
<text text-anchor="middle" x="73" y="-55" font-family="Helvetica,sans-Serif" font-size="10.00">::Function</text>
</a>
</g>
</g>
<!-- Node3&#45;&gt;Node1 -->
<g id="edge2_Node000001_Node000003" class="edge">
<title>Node3&#45;&gt;Node1</title>
<g id="a_edge2_Node000001_Node000003"><a xlink:title=" ">
<path fill="none" stroke="#9a32cd" stroke-dasharray="5,2" d="M136.9,-63C169.25,-63 208.23,-63 238.96,-63"/>
<polygon fill="#9a32cd" stroke="#9a32cd" points="136.65,-59.5 126.65,-63 136.65,-66.5 136.65,-59.5"/>
</a>
</g>
<text text-anchor="middle" x="192.5" y="-66" font-family="Helvetica,sans-Serif" font-size="10.00" fill="grey"> func</text>
</g>
<!-- Node4 -->
<g id="Node000004" class="node">
<title>Node4</title>
<g id="a_Node000004"><a xlink:href="../../d6/d4e/structalgorithm_1_1optimal_1_1Genetic_1_1DecodeAttribute.html" target="_top" xlink:title="Decode attributes of species.">
<polygon fill="white" stroke="#666666" points="146,-30 0,-30 0,0 146,0 146,-30"/>
<text text-anchor="start" x="8" y="-18" font-family="Helvetica,sans-Serif" font-size="10.00">algorithm::optimal</text>
<text text-anchor="middle" x="73" y="-7" font-family="Helvetica,sans-Serif" font-size="10.00">::Genetic::DecodeAttribute</text>
</a>
</g>
</g>
<!-- Node4&#45;&gt;Node1 -->
<g id="edge3_Node000001_Node000004" class="edge">
<title>Node4&#45;&gt;Node1</title>
<g id="a_edge3_Node000001_Node000004"><a xlink:title=" ">
<path fill="none" stroke="#9a32cd" stroke-dasharray="5,2" d="M152.23,-32.27C180.95,-38.6 212.75,-45.62 238.7,-51.35"/>
<polygon fill="#9a32cd" stroke="#9a32cd" points="152.74,-28.79 142.22,-30.06 151.23,-35.63 152.74,-28.79"/>
</a>
</g>
<text text-anchor="middle" x="192.5" y="-49" font-family="Helvetica,sans-Serif" font-size="10.00" fill="grey"> decodeAttr</text>
</g>
</g>
</svg>
