<?xml version="1.0" encoding="UTF-8" standalone="no"?>
<!DOCTYPE svg PUBLIC "-//W3C//DTD SVG 1.1//EN"
 "http://www.w3.org/Graphics/SVG/1.1/DTD/svg11.dtd">
<!-- Generated by graphviz version 2.43.0 (0)
 -->
<!-- Title: design_pattern::creational::abstract_factory::ProductB Pages: 1 -->
<svg width="396pt" height="86pt"
 viewBox="0.00 0.00 396.00 86.00" xmlns="http://www.w3.org/2000/svg" xmlns:xlink="http://www.w3.org/1999/xlink">
<g id="graph0" class="graph" transform="scale(1 1) rotate(0) translate(4 82)">
<title>design_pattern::creational::abstract_factory::ProductB</title>
<!-- Node1 -->
<g id="Node000001" class="node">
<title>Node1</title>
<g id="a_Node000001"><a xlink:title="Implement the same interface. The others can refer to the interface not the concrete product.">
<polygon fill="#999999" stroke="#666666" points="151,-54 0,-54 0,-24 151,-24 151,-54"/>
<text text-anchor="start" x="8" y="-42" font-family="Helvetica,sans-Serif" font-size="10.00">design_pattern::creational</text>
<text text-anchor="middle" x="75.5" y="-31" font-family="Helvetica,sans-Serif" font-size="10.00">::abstract_factory::ProductB</text>
</a>
</g>
</g>
<!-- Node2 -->
<g id="Node000002" class="node">
<title>Node2</title>
<g id="a_Node000002"><a xlink:href="../../d5/da9/classdesign__pattern_1_1creational_1_1abstract__factory_1_1ConcreteProductBX.html" target="_top" xlink:title="The concrete product.">
<polygon fill="white" stroke="#666666" points="388,-78 187,-78 187,-48 388,-48 388,-78"/>
<text text-anchor="start" x="195" y="-66" font-family="Helvetica,sans-Serif" font-size="10.00">design_pattern::creational</text>
<text text-anchor="middle" x="287.5" y="-55" font-family="Helvetica,sans-Serif" font-size="10.00">::abstract_factory::ConcreteProductBX</text>
</a>
</g>
</g>
<!-- Node1&#45;&gt;Node2 -->
<g id="edge1_Node000001_Node000002" class="edge">
<title>Node1&#45;&gt;Node2</title>
<g id="a_edge1_Node000001_Node000002"><a xlink:title=" ">
<path fill="none" stroke="#63b8ff" d="M161.27,-48.69C169.66,-49.65 178.24,-50.63 186.77,-51.6"/>
<polygon fill="#63b8ff" stroke="#63b8ff" points="161.46,-45.19 151.13,-47.53 160.67,-52.14 161.46,-45.19"/>
</a>
</g>
</g>
<!-- Node3 -->
<g id="Node000003" class="node">
<title>Node3</title>
<g id="a_Node000003"><a xlink:href="../../da/da5/classdesign__pattern_1_1creational_1_1abstract__factory_1_1ConcreteProductBY.html" target="_top" xlink:title="The concrete product.">
<polygon fill="white" stroke="#666666" points="387.5,-30 187.5,-30 187.5,0 387.5,0 387.5,-30"/>
<text text-anchor="start" x="195.5" y="-18" font-family="Helvetica,sans-Serif" font-size="10.00">design_pattern::creational</text>
<text text-anchor="middle" x="287.5" y="-7" font-family="Helvetica,sans-Serif" font-size="10.00">::abstract_factory::ConcreteProductBY</text>
</a>
</g>
</g>
<!-- Node1&#45;&gt;Node3 -->
<g id="edge2_Node000001_Node000003" class="edge">
<title>Node1&#45;&gt;Node3</title>
<g id="a_edge2_Node000001_Node000003"><a xlink:title=" ">
<path fill="none" stroke="#63b8ff" d="M161.09,-29.33C169.67,-28.35 178.43,-27.35 187.14,-26.36"/>
<polygon fill="#63b8ff" stroke="#63b8ff" points="160.67,-25.86 151.13,-30.47 161.46,-32.81 160.67,-25.86"/>
</a>
</g>
</g>
</g>
</svg>
