<?xml version="1.0" encoding="UTF-8" standalone="no"?>
<!DOCTYPE svg PUBLIC "-//W3C//DTD SVG 1.1//EN"
 "http://www.w3.org/Graphics/SVG/1.1/DTD/svg11.dtd">
<!-- Generated by graphviz version 2.43.0 (0)
 -->
<!-- Title: application::app_dp::getTaskNameCurried Pages: 1 -->
<svg width="287pt" height="134pt"
 viewBox="0.00 0.00 287.00 134.00" xmlns="http://www.w3.org/2000/svg" xmlns:xlink="http://www.w3.org/1999/xlink">
<g id="graph0" class="graph" transform="scale(1 1) rotate(0) translate(4 130)">
<title>application::app_dp::getTaskNameCurried</title>
<!-- Node1 -->
<g id="Node000001" class="node">
<title>Node1</title>
<g id="a_Node000001"><a xlink:title="Get the task name curried.">
<polygon fill="#999999" stroke="#666666" points="279,-78 154,-78 154,-48 279,-48 279,-78"/>
<text text-anchor="start" x="162" y="-66" font-family="Helvetica,sans-Serif" font-size="10.00">application::app_dp</text>
<text text-anchor="middle" x="216.5" y="-55" font-family="Helvetica,sans-Serif" font-size="10.00">::getTaskNameCurried</text>
</a>
</g>
</g>
<!-- Node2 -->
<g id="Node000002" class="node">
<title>Node2</title>
<g id="a_Node000002"><a xlink:href="../../d2/dc1/namespaceapplication_1_1app__dp.html#ade97c7790ecb64cb85d2567effedcc19" target="_top" xlink:title="Run behavioral tasks.">
<polygon fill="white" stroke="#666666" points="118,-126 0,-126 0,-96 118,-96 118,-126"/>
<text text-anchor="start" x="8" y="-114" font-family="Helvetica,sans-Serif" font-size="10.00">application::app_dp</text>
<text text-anchor="middle" x="59" y="-103" font-family="Helvetica,sans-Serif" font-size="10.00">::runBehavioralTasks</text>
</a>
</g>
</g>
<!-- Node1&#45;&gt;Node2 -->
<g id="edge1_Node000001_Node000002" class="edge">
<title>Node1&#45;&gt;Node2</title>
<g id="a_edge1_Node000001_Node000002"><a xlink:title=" ">
<path fill="none" stroke="#63b8ff" d="M156.97,-81.07C141.03,-85.99 123.93,-91.27 108.6,-96"/>
<polygon fill="#63b8ff" stroke="#63b8ff" points="158.2,-84.35 166.73,-78.06 156.14,-77.66 158.2,-84.35"/>
</a>
</g>
</g>
<!-- Node3 -->
<g id="Node000003" class="node">
<title>Node3</title>
<g id="a_Node000003"><a xlink:href="../../d2/dc1/namespaceapplication_1_1app__dp.html#a58cd5292c4ecae6e2b4d529530105b44" target="_top" xlink:title="Run creational tasks.">
<polygon fill="white" stroke="#666666" points="117,-78 1,-78 1,-48 117,-48 117,-78"/>
<text text-anchor="start" x="9" y="-66" font-family="Helvetica,sans-Serif" font-size="10.00">application::app_dp</text>
<text text-anchor="middle" x="59" y="-55" font-family="Helvetica,sans-Serif" font-size="10.00">::runCreationalTasks</text>
</a>
</g>
</g>
<!-- Node1&#45;&gt;Node3 -->
<g id="edge2_Node000001_Node000003" class="edge">
<title>Node1&#45;&gt;Node3</title>
<g id="a_edge2_Node000001_Node000003"><a xlink:title=" ">
<path fill="none" stroke="#63b8ff" d="M143.35,-63C134.56,-63 125.68,-63 117.15,-63"/>
<polygon fill="#63b8ff" stroke="#63b8ff" points="143.6,-66.5 153.6,-63 143.6,-59.5 143.6,-66.5"/>
</a>
</g>
</g>
<!-- Node4 -->
<g id="Node000004" class="node">
<title>Node4</title>
<g id="a_Node000004"><a xlink:href="../../d2/dc1/namespaceapplication_1_1app__dp.html#af2fe424904e6361cfd8a1ce1e85453cd" target="_top" xlink:title="Run structural tasks.">
<polygon fill="white" stroke="#666666" points="115.5,-30 2.5,-30 2.5,0 115.5,0 115.5,-30"/>
<text text-anchor="start" x="10.5" y="-18" font-family="Helvetica,sans-Serif" font-size="10.00">application::app_dp</text>
<text text-anchor="middle" x="59" y="-7" font-family="Helvetica,sans-Serif" font-size="10.00">::runStructuralTasks</text>
</a>
</g>
</g>
<!-- Node1&#45;&gt;Node4 -->
<g id="edge3_Node000001_Node000004" class="edge">
<title>Node1&#45;&gt;Node4</title>
<g id="a_edge3_Node000001_Node000004"><a xlink:title=" ">
<path fill="none" stroke="#63b8ff" d="M156.97,-44.93C141.03,-40.01 123.93,-34.73 108.6,-30"/>
<polygon fill="#63b8ff" stroke="#63b8ff" points="156.14,-48.34 166.73,-47.94 158.2,-41.65 156.14,-48.34"/>
</a>
</g>
</g>
</g>
</svg>
