<?xml version="1.0" encoding="UTF-8" standalone="no"?>
<!DOCTYPE svg PUBLIC "-//W3C//DTD SVG 1.1//EN"
 "http://www.w3.org/Graphics/SVG/1.1/DTD/svg11.dtd">
<!-- Generated by graphviz version 2.43.0 (0)
 -->
<!-- Title: utility::argument::Register::ArgsNumRange::isExact Pages: 1 -->
<svg width="490pt" height="49pt"
 viewBox="0.00 0.00 490.00 49.00" xmlns="http://www.w3.org/2000/svg" xmlns:xlink="http://www.w3.org/1999/xlink">
<g id="graph0" class="graph" transform="scale(1 1) rotate(0) translate(4 45)">
<title>utility::argument::Register::ArgsNumRange::isExact</title>
<!-- Node1 -->
<g id="Node000001" class="node">
<title>Node1</title>
<g id="a_Node000001"><a xlink:title="Check if the number of arguments is exact.">
<polygon fill="#999999" stroke="#666666" points="482,-41 343,-41 343,0 482,0 482,-41"/>
<text text-anchor="start" x="351" y="-29" font-family="Helvetica,sans-Serif" font-size="10.00">utility::argument::</text>
<text text-anchor="start" x="351" y="-18" font-family="Helvetica,sans-Serif" font-size="10.00">Register::ArgsNumRange</text>
<text text-anchor="middle" x="412.5" y="-7" font-family="Helvetica,sans-Serif" font-size="10.00">::isExact</text>
</a>
</g>
</g>
<!-- Node2 -->
<g id="Node000002" class="node">
<title>Node2</title>
<g id="a_Node000002"><a xlink:href="../../de/daf/classutility_1_1argument_1_1Register.html#a6f34a9286ca67347c1fc33152600716e" target="_top" xlink:title="Throw an exception when ArgsNumRange is invalid.">
<polygon fill="white" stroke="#666666" points="307,-41 140,-41 140,0 307,0 307,-41"/>
<text text-anchor="start" x="148" y="-29" font-family="Helvetica,sans-Serif" font-size="10.00">utility::argument::</text>
<text text-anchor="start" x="148" y="-18" font-family="Helvetica,sans-Serif" font-size="10.00">Register::throwArgsNumRange</text>
<text text-anchor="middle" x="223.5" y="-7" font-family="Helvetica,sans-Serif" font-size="10.00">ValidationException</text>
</a>
</g>
</g>
<!-- Node1&#45;&gt;Node2 -->
<g id="edge1_Node000001_Node000002" class="edge">
<title>Node1&#45;&gt;Node2</title>
<g id="a_edge1_Node000001_Node000002"><a xlink:title=" ">
<path fill="none" stroke="#63b8ff" d="M332.69,-20.5C324.2,-20.5 315.56,-20.5 307.03,-20.5"/>
<polygon fill="#63b8ff" stroke="#63b8ff" points="332.93,-24 342.93,-20.5 332.93,-17 332.93,-24"/>
</a>
</g>
</g>
<!-- Node3 -->
<g id="Node000003" class="node">
<title>Node3</title>
<g id="a_Node000003"><a xlink:href="../../de/daf/classutility_1_1argument_1_1Register.html#a29c0c3c36a1eeb64847b14f9b55395cc" target="_top" xlink:title="Validate all arguments.">
<polygon fill="white" stroke="#666666" points="104,-35.5 0,-35.5 0,-5.5 104,-5.5 104,-35.5"/>
<text text-anchor="start" x="8" y="-23.5" font-family="Helvetica,sans-Serif" font-size="10.00">utility::argument::</text>
<text text-anchor="middle" x="52" y="-12.5" font-family="Helvetica,sans-Serif" font-size="10.00">Register::validate</text>
</a>
</g>
</g>
<!-- Node2&#45;&gt;Node3 -->
<g id="edge2_Node000002_Node000003" class="edge">
<title>Node2&#45;&gt;Node3</title>
<g id="a_edge2_Node000002_Node000003"><a xlink:title=" ">
<path fill="none" stroke="#63b8ff" d="M129.53,-20.5C120.87,-20.5 112.32,-20.5 104.26,-20.5"/>
<polygon fill="#63b8ff" stroke="#63b8ff" points="129.74,-24 139.74,-20.5 129.74,-17 129.74,-24"/>
</a>
</g>
</g>
</g>
</svg>
