<?xml version="1.0" encoding="UTF-8" standalone="no"?>
<!DOCTYPE svg PUBLIC "-//W3C//DTD SVG 1.1//EN"
 "http://www.w3.org/Graphics/SVG/1.1/DTD/svg11.dtd">
<!-- Generated by graphviz version 2.43.0 (0)
 -->
<!-- Title: application::command::Command::registerOnConsole Pages: 1 -->
<svg width="610pt" height="86pt"
 viewBox="0.00 0.00 610.00 86.00" xmlns="http://www.w3.org/2000/svg" xmlns:xlink="http://www.w3.org/1999/xlink">
<g id="graph0" class="graph" transform="scale(1 1) rotate(0) translate(4 82)">
<title>application::command::Command::registerOnConsole</title>
<!-- Node1 -->
<g id="Node000001" class="node">
<title>Node1</title>
<g id="a_Node000001"><a xlink:title="Register the command line to console mode.">
<polygon fill="#999999" stroke="#666666" points="602,-54 433,-54 433,-24 602,-24 602,-54"/>
<text text-anchor="start" x="441" y="-42" font-family="Helvetica,sans-Serif" font-size="10.00">application::command</text>
<text text-anchor="middle" x="517.5" y="-31" font-family="Helvetica,sans-Serif" font-size="10.00">::Command::registerOnConsole</text>
</a>
</g>
</g>
<!-- Node2 -->
<g id="Node000002" class="node">
<title>Node2</title>
<g id="a_Node000002"><a xlink:href="../../de/dd7/classapplication_1_1command_1_1Command.html#aede5e9ad130ae416e1041df66d6a4039" target="_top" xlink:title="Enter console mode.">
<polygon fill="white" stroke="#666666" points="379,-78 209,-78 209,-48 379,-48 379,-78"/>
<text text-anchor="start" x="217" y="-66" font-family="Helvetica,sans-Serif" font-size="10.00">application::command</text>
<text text-anchor="middle" x="294" y="-55" font-family="Helvetica,sans-Serif" font-size="10.00">::Command::enterConsoleMode</text>
</a>
</g>
</g>
<!-- Node1&#45;&gt;Node2 -->
<g id="edge1_Node000001_Node000002" class="edge">
<title>Node1&#45;&gt;Node2</title>
<g id="a_edge1_Node000001_Node000002"><a xlink:title=" ">
<path fill="none" stroke="#63b8ff" d="M422.82,-49.15C408.34,-50.72 393.47,-52.33 379.23,-53.87"/>
<polygon fill="#63b8ff" stroke="#63b8ff" points="423.2,-52.63 432.76,-48.07 422.44,-45.67 423.2,-52.63"/>
</a>
</g>
</g>
<!-- Node4 -->
<g id="Node000004" class="node">
<title>Node4</title>
<g id="a_Node000004"><a xlink:href="../../de/dd7/classapplication_1_1command_1_1Command.html#aee416554141b9470166d1852526f93ea" target="_top" xlink:title="Execute the command line of console mode.">
<polygon fill="white" stroke="#666666" points="397,-30 191,-30 191,0 397,0 397,-30"/>
<text text-anchor="start" x="199" y="-18" font-family="Helvetica,sans-Serif" font-size="10.00">application::command</text>
<text text-anchor="middle" x="294" y="-7" font-family="Helvetica,sans-Serif" font-size="10.00">::Command::executeConsoleCommand</text>
</a>
</g>
</g>
<!-- Node1&#45;&gt;Node4 -->
<g id="edge3_Node000001_Node000004" class="edge">
<title>Node1&#45;&gt;Node4</title>
<g id="a_edge3_Node000001_Node000004"><a xlink:title=" ">
<path fill="none" stroke="#63b8ff" d="M422.57,-28.82C414.16,-27.91 405.61,-26.99 397.13,-26.07"/>
<polygon fill="#63b8ff" stroke="#63b8ff" points="422.44,-32.33 432.76,-29.93 423.2,-25.37 422.44,-32.33"/>
</a>
</g>
</g>
<!-- Node3 -->
<g id="Node000003" class="node">
<title>Node3</title>
<g id="a_Node000003"><a xlink:href="../../de/dd7/classapplication_1_1command_1_1Command.html#a5d2584a4ee3f7e91ec82649f91b3b810" target="_top" xlink:title="Interface for running commander.">
<polygon fill="white" stroke="#666666" points="155,-78 0,-78 0,-48 155,-48 155,-78"/>
<text text-anchor="start" x="8" y="-66" font-family="Helvetica,sans-Serif" font-size="10.00">application::command</text>
<text text-anchor="middle" x="77.5" y="-55" font-family="Helvetica,sans-Serif" font-size="10.00">::Command::runCommander</text>
</a>
</g>
</g>
<!-- Node2&#45;&gt;Node3 -->
<g id="edge2_Node000002_Node000003" class="edge">
<title>Node2&#45;&gt;Node3</title>
<g id="a_edge2_Node000002_Node000003"><a xlink:title=" ">
<path fill="none" stroke="#63b8ff" d="M198.79,-63C184.18,-63 169.24,-63 155.08,-63"/>
<polygon fill="#63b8ff" stroke="#63b8ff" points="198.84,-66.5 208.84,-63 198.84,-59.5 198.84,-66.5"/>
</a>
</g>
</g>
</g>
</svg>
