<?xml version="1.0" encoding="UTF-8" standalone="no"?>
<!DOCTYPE svg PUBLIC "-//W3C//DTD SVG 1.1//EN"
 "http://www.w3.org/Graphics/SVG/1.1/DTD/svg11.dtd">
<!-- Generated by graphviz version 2.43.0 (0)
 -->
<!-- Title: application::command::Command::getIconBanner Pages: 1 -->
<svg width="554pt" height="86pt"
 viewBox="0.00 0.00 554.00 86.00" xmlns="http://www.w3.org/2000/svg" xmlns:xlink="http://www.w3.org/1999/xlink">
<g id="graph0" class="graph" transform="scale(1 1) rotate(0) translate(4 82)">
<title>application::command::Command::getIconBanner</title>
<!-- Node1 -->
<g id="Node000001" class="node">
<title>Node1</title>
<g id="a_Node000001"><a xlink:title="Get ASCII banner text.">
<polygon fill="#999999" stroke="#666666" points="546,-54 397,-54 397,-24 546,-24 546,-54"/>
<text text-anchor="start" x="405" y="-42" font-family="Helvetica,sans-Serif" font-size="10.00">application::command</text>
<text text-anchor="middle" x="471.5" y="-31" font-family="Helvetica,sans-Serif" font-size="10.00">::Command::getIconBanner</text>
</a>
</g>
</g>
<!-- Node2 -->
<g id="Node000002" class="node">
<title>Node2</title>
<g id="a_Node000002"><a xlink:href="../../de/dd7/classapplication_1_1command_1_1Command.html#aede5e9ad130ae416e1041df66d6a4039" target="_top" xlink:title="Enter console mode.">
<polygon fill="white" stroke="#666666" points="361,-78 191,-78 191,-48 361,-48 361,-78"/>
<text text-anchor="start" x="199" y="-66" font-family="Helvetica,sans-Serif" font-size="10.00">application::command</text>
<text text-anchor="middle" x="276" y="-55" font-family="Helvetica,sans-Serif" font-size="10.00">::Command::enterConsoleMode</text>
</a>
</g>
</g>
<!-- Node1&#45;&gt;Node2 -->
<g id="edge1_Node000001_Node000002" class="edge">
<title>Node1&#45;&gt;Node2</title>
<g id="a_edge1_Node000001_Node000002"><a xlink:title=" ">
<path fill="none" stroke="#63b8ff" d="M386.6,-49.41C378.17,-50.45 369.61,-51.51 361.18,-52.56"/>
<polygon fill="#63b8ff" stroke="#63b8ff" points="387.3,-52.85 396.79,-48.14 386.44,-45.9 387.3,-52.85"/>
</a>
</g>
</g>
<!-- Node4 -->
<g id="Node000004" class="node">
<title>Node4</title>
<g id="a_Node000004"><a xlink:href="../../de/dd7/classapplication_1_1command_1_1Command.html#a17d5ecdf1edf54070f88af44c745049b" target="_top" xlink:title="Print version icon.">
<polygon fill="white" stroke="#666666" points="356.5,-30 195.5,-30 195.5,0 356.5,0 356.5,-30"/>
<text text-anchor="start" x="203.5" y="-18" font-family="Helvetica,sans-Serif" font-size="10.00">application::command</text>
<text text-anchor="middle" x="276" y="-7" font-family="Helvetica,sans-Serif" font-size="10.00">::Command::showVersionIcon</text>
</a>
</g>
</g>
<!-- Node1&#45;&gt;Node4 -->
<g id="edge3_Node000001_Node000004" class="edge">
<title>Node1&#45;&gt;Node4</title>
<g id="a_edge3_Node000001_Node000004"><a xlink:title=" ">
<path fill="none" stroke="#63b8ff" d="M386.84,-28.62C376.82,-27.38 366.6,-26.11 356.63,-24.88"/>
<polygon fill="#63b8ff" stroke="#63b8ff" points="386.44,-32.1 396.79,-29.86 387.3,-25.15 386.44,-32.1"/>
</a>
</g>
</g>
<!-- Node3 -->
<g id="Node000003" class="node">
<title>Node3</title>
<g id="a_Node000003"><a xlink:href="../../de/dd7/classapplication_1_1command_1_1Command.html#a5d2584a4ee3f7e91ec82649f91b3b810" target="_top" xlink:title="Interface for running commander.">
<polygon fill="white" stroke="#666666" points="155,-78 0,-78 0,-48 155,-48 155,-78"/>
<text text-anchor="start" x="8" y="-66" font-family="Helvetica,sans-Serif" font-size="10.00">application::command</text>
<text text-anchor="middle" x="77.5" y="-55" font-family="Helvetica,sans-Serif" font-size="10.00">::Command::runCommander</text>
</a>
</g>
</g>
<!-- Node2&#45;&gt;Node3 -->
<g id="edge2_Node000002_Node000003" class="edge">
<title>Node2&#45;&gt;Node3</title>
<g id="a_edge2_Node000002_Node000003"><a xlink:title=" ">
<path fill="none" stroke="#63b8ff" d="M180.74,-63C172.13,-63 163.48,-63 155.06,-63"/>
<polygon fill="#63b8ff" stroke="#63b8ff" points="180.81,-66.5 190.81,-63 180.81,-59.5 180.81,-66.5"/>
</a>
</g>
</g>
</g>
</svg>
