<?xml version="1.0" encoding="UTF-8" standalone="no"?>
<!DOCTYPE svg PUBLIC "-//W3C//DTD SVG 1.1//EN"
 "http://www.w3.org/Graphics/SVG/1.1/DTD/svg11.dtd">
<!-- Generated by graphviz version 2.43.0 (0)
 -->
<!-- Title: application::command::Command::hasAnyTask Pages: 1 -->
<svg width="967pt" height="131pt"
 viewBox="0.00 0.00 967.00 131.00" xmlns="http://www.w3.org/2000/svg" xmlns:xlink="http://www.w3.org/1999/xlink">
<g id="graph0" class="graph" transform="scale(1 1) rotate(0) translate(4 127)">
<title>application::command::Command::hasAnyTask</title>
<!-- Node1 -->
<g id="Node000001" class="node">
<title>Node1</title>
<g id="a_Node000001"><a xlink:title="Check whether any tasks exist.">
<polygon fill="#999999" stroke="#666666" points="959,-98 822,-98 822,-68 959,-68 959,-98"/>
<text text-anchor="start" x="830" y="-86" font-family="Helvetica,sans-Serif" font-size="10.00">application::command</text>
<text text-anchor="middle" x="890.5" y="-75" font-family="Helvetica,sans-Serif" font-size="10.00">::Command::hasAnyTask</text>
</a>
</g>
</g>
<!-- Node2 -->
<g id="Node000002" class="node">
<title>Node2</title>
<g id="a_Node000002"><a xlink:href="../../de/dd7/classapplication_1_1command_1_1Command.html#a19fb2a7d1e940b120bcfc134880d1468" target="_top" xlink:title="Background handler for performing the specific task.">
<polygon fill="white" stroke="#666666" points="365,-123 191,-123 191,-93 365,-93 365,-123"/>
<text text-anchor="start" x="199" y="-111" font-family="Helvetica,sans-Serif" font-size="10.00">application::command</text>
<text text-anchor="middle" x="278" y="-100" font-family="Helvetica,sans-Serif" font-size="10.00">::Command::backgroundHandler</text>
</a>
</g>
</g>
<!-- Node1&#45;&gt;Node2 -->
<g id="edge1_Node000001_Node000002" class="edge">
<title>Node1&#45;&gt;Node2</title>
<g id="a_edge1_Node000001_Node000002"><a xlink:title=" ">
<path fill="none" stroke="#63b8ff" d="M811.72,-87.68C803.04,-88.15 794.33,-88.6 786,-89 638.19,-96.05 466.03,-102.03 365.14,-105.31"/>
<polygon fill="#63b8ff" stroke="#63b8ff" points="812.07,-91.17 821.87,-87.12 811.69,-84.18 812.07,-91.17"/>
</a>
</g>
</g>
<!-- Node4 -->
<g id="Node000004" class="node">
<title>Node4</title>
<g id="a_Node000004"><a xlink:href="../../de/dd7/classapplication_1_1command_1_1Command.html#afadc9cf56f31c11505b6181125e77473" target="_top" xlink:title="Check for excessive arguments.">
<polygon fill="white" stroke="#666666" points="786,-79.5 615,-79.5 615,-38.5 786,-38.5 786,-79.5"/>
<text text-anchor="start" x="623" y="-67.5" font-family="Helvetica,sans-Serif" font-size="10.00">application::command</text>
<text text-anchor="start" x="623" y="-56.5" font-family="Helvetica,sans-Serif" font-size="10.00">::Command::checkForExcessive</text>
<text text-anchor="middle" x="700.5" y="-45.5" font-family="Helvetica,sans-Serif" font-size="10.00">Arguments</text>
</a>
</g>
</g>
<!-- Node1&#45;&gt;Node4 -->
<g id="edge3_Node000001_Node000004" class="edge">
<title>Node1&#45;&gt;Node4</title>
<g id="a_edge3_Node000001_Node000004"><a xlink:title=" ">
<path fill="none" stroke="#63b8ff" d="M811.72,-73.07C803.3,-72 794.7,-70.9 786.19,-69.81"/>
<polygon fill="#63b8ff" stroke="#63b8ff" points="811.53,-76.57 821.89,-74.37 812.42,-69.63 811.53,-76.57"/>
</a>
</g>
</g>
<!-- Node3 -->
<g id="Node000003" class="node">
<title>Node3</title>
<g id="a_Node000003"><a xlink:href="../../de/dd7/classapplication_1_1command_1_1Command.html#a5d2584a4ee3f7e91ec82649f91b3b810" target="_top" xlink:title="Interface for running commander.">
<polygon fill="white" stroke="#666666" points="155,-99 0,-99 0,-69 155,-69 155,-99"/>
<text text-anchor="start" x="8" y="-87" font-family="Helvetica,sans-Serif" font-size="10.00">application::command</text>
<text text-anchor="middle" x="77.5" y="-76" font-family="Helvetica,sans-Serif" font-size="10.00">::Command::runCommander</text>
</a>
</g>
</g>
<!-- Node2&#45;&gt;Node3 -->
<g id="edge2_Node000002_Node000003" class="edge">
<title>Node2&#45;&gt;Node3</title>
<g id="a_edge2_Node000002_Node000003"><a xlink:title=" ">
<path fill="none" stroke="#63b8ff" d="M180.78,-96.37C172.22,-95.33 163.63,-94.29 155.26,-93.28"/>
<polygon fill="#63b8ff" stroke="#63b8ff" points="180.45,-99.85 190.8,-97.58 181.29,-92.9 180.45,-99.85"/>
</a>
</g>
</g>
<!-- Node5 -->
<g id="Node000005" class="node">
<title>Node5</title>
<g id="a_Node000005"><a xlink:href="../../de/dd7/classapplication_1_1command_1_1Command.html#adf1bdc4c49d654653afe9f46aa46d84e" target="_top" xlink:title="Pre&#45;check the basic task.">
<polygon fill="white" stroke="#666666" points="573.5,-78 406.5,-78 406.5,-48 573.5,-48 573.5,-78"/>
<text text-anchor="start" x="414.5" y="-66" font-family="Helvetica,sans-Serif" font-size="10.00">application::command</text>
<text text-anchor="middle" x="490" y="-55" font-family="Helvetica,sans-Serif" font-size="10.00">::Command::validateBasicTask</text>
</a>
</g>
</g>
<!-- Node4&#45;&gt;Node5 -->
<g id="edge4_Node000004_Node000005" class="edge">
<title>Node4&#45;&gt;Node5</title>
<g id="a_edge4_Node000004_Node000005"><a xlink:title=" ">
<path fill="none" stroke="#63b8ff" d="M604.68,-60.82C594.31,-61.02 583.81,-61.22 573.6,-61.42"/>
<polygon fill="#63b8ff" stroke="#63b8ff" points="605.06,-64.31 615,-60.62 604.93,-57.31 605.06,-64.31"/>
</a>
</g>
</g>
<!-- Node7 -->
<g id="Node000007" class="node">
<title>Node7</title>
<g id="a_Node000007"><a xlink:href="../../de/dd7/classapplication_1_1command_1_1Command.html#a9196a46a45944a27fd1cb2ab75544f9f" target="_top" xlink:title="Pre&#45;check the regular task.">
<polygon fill="white" stroke="#666666" points="579,-30 401,-30 401,0 579,0 579,-30"/>
<text text-anchor="start" x="409" y="-18" font-family="Helvetica,sans-Serif" font-size="10.00">application::command</text>
<text text-anchor="middle" x="490" y="-7" font-family="Helvetica,sans-Serif" font-size="10.00">::Command::validateRegularTask</text>
</a>
</g>
</g>
<!-- Node4&#45;&gt;Node7 -->
<g id="edge7_Node000004_Node000007" class="edge">
<title>Node4&#45;&gt;Node7</title>
<g id="a_edge7_Node000004_Node000007"><a xlink:title=" ">
<path fill="none" stroke="#63b8ff" d="M605.09,-39.08C590.69,-36.04 576.05,-32.95 562.26,-30.04"/>
<polygon fill="#63b8ff" stroke="#63b8ff" points="604.49,-42.53 615,-41.17 605.93,-35.68 604.49,-42.53"/>
</a>
</g>
</g>
<!-- Node6 -->
<g id="Node000006" class="node">
<title>Node6</title>
<g id="a_Node000006"><a xlink:href="../../de/dd7/classapplication_1_1command_1_1Command.html#ad693981498a2ff88208efd2f97d46e25" target="_top" xlink:title="Foreground handler for parsing command line arguments.">
<polygon fill="white" stroke="#666666" points="363,-75 193,-75 193,-45 363,-45 363,-75"/>
<text text-anchor="start" x="201" y="-63" font-family="Helvetica,sans-Serif" font-size="10.00">application::command</text>
<text text-anchor="middle" x="278" y="-52" font-family="Helvetica,sans-Serif" font-size="10.00">::Command::foregroundHandler</text>
</a>
</g>
</g>
<!-- Node5&#45;&gt;Node6 -->
<g id="edge5_Node000005_Node000006" class="edge">
<title>Node5&#45;&gt;Node6</title>
<g id="a_edge5_Node000005_Node000006"><a xlink:title=" ">
<path fill="none" stroke="#63b8ff" d="M396.3,-61.68C385.33,-61.52 374.19,-61.36 363.34,-61.2"/>
<polygon fill="#63b8ff" stroke="#63b8ff" points="396.25,-65.18 406.3,-61.82 396.35,-58.18 396.25,-65.18"/>
</a>
</g>
</g>
<!-- Node6&#45;&gt;Node3 -->
<g id="edge6_Node000006_Node000003" class="edge">
<title>Node6&#45;&gt;Node3</title>
<g id="a_edge6_Node000006_Node000003"><a xlink:title=" ">
<path fill="none" stroke="#63b8ff" d="M182.83,-71.39C173.59,-72.5 164.29,-73.63 155.25,-74.72"/>
<polygon fill="#63b8ff" stroke="#63b8ff" points="183.31,-74.85 192.82,-70.18 182.47,-67.9 183.31,-74.85"/>
</a>
</g>
</g>
<!-- Node7&#45;&gt;Node6 -->
<g id="edge8_Node000007_Node000006" class="edge">
<title>Node7&#45;&gt;Node6</title>
<g id="a_edge8_Node000007_Node000006"><a xlink:title=" ">
<path fill="none" stroke="#63b8ff" d="M408.93,-32.16C389.25,-36.38 368.33,-40.86 349.15,-44.97"/>
<polygon fill="#63b8ff" stroke="#63b8ff" points="409.74,-35.56 418.78,-30.05 408.27,-28.72 409.74,-35.56"/>
</a>
</g>
</g>
</g>
</svg>
