<?xml version="1.0" encoding="UTF-8" standalone="no"?>
<!DOCTYPE svg PUBLIC "-//W3C//DTD SVG 1.1//EN"
 "http://www.w3.org/Graphics/SVG/1.1/DTD/svg11.dtd">
<!-- Generated by graphviz version 2.43.0 (0)
 -->
<!-- Title: application::command::Command::checkForExcessiveArguments Pages: 1 -->
<svg width="790pt" height="86pt"
 viewBox="0.00 0.00 790.00 86.00" xmlns="http://www.w3.org/2000/svg" xmlns:xlink="http://www.w3.org/1999/xlink">
<g id="graph0" class="graph" transform="scale(1 1) rotate(0) translate(4 82)">
<title>application::command::Command::checkForExcessiveArguments</title>
<!-- Node1 -->
<g id="Node000001" class="node">
<title>Node1</title>
<g id="a_Node000001"><a xlink:title="Check for excessive arguments.">
<polygon fill="#999999" stroke="#666666" points="782,-59.5 611,-59.5 611,-18.5 782,-18.5 782,-59.5"/>
<text text-anchor="start" x="619" y="-47.5" font-family="Helvetica,sans-Serif" font-size="10.00">application::command</text>
<text text-anchor="start" x="619" y="-36.5" font-family="Helvetica,sans-Serif" font-size="10.00">::Command::checkForExcessive</text>
<text text-anchor="middle" x="696.5" y="-25.5" font-family="Helvetica,sans-Serif" font-size="10.00">Arguments</text>
</a>
</g>
</g>
<!-- Node2 -->
<g id="Node000002" class="node">
<title>Node2</title>
<g id="a_Node000002"><a xlink:href="../../de/dd7/classapplication_1_1command_1_1Command.html#adf1bdc4c49d654653afe9f46aa46d84e" target="_top" xlink:title="Pre&#45;check the basic task.">
<polygon fill="white" stroke="#666666" points="569.5,-78 402.5,-78 402.5,-48 569.5,-48 569.5,-78"/>
<text text-anchor="start" x="410.5" y="-66" font-family="Helvetica,sans-Serif" font-size="10.00">application::command</text>
<text text-anchor="middle" x="486" y="-55" font-family="Helvetica,sans-Serif" font-size="10.00">::Command::validateBasicTask</text>
</a>
</g>
</g>
<!-- Node1&#45;&gt;Node2 -->
<g id="edge1_Node000001_Node000002" class="edge">
<title>Node1&#45;&gt;Node2</title>
<g id="a_edge1_Node000001_Node000002"><a xlink:title=" ">
<path fill="none" stroke="#63b8ff" d="M601,-49.88C590.52,-51.08 579.91,-52.31 569.6,-53.49"/>
<polygon fill="#63b8ff" stroke="#63b8ff" points="601.46,-53.35 611,-48.73 600.66,-46.39 601.46,-53.35"/>
</a>
</g>
</g>
<!-- Node5 -->
<g id="Node000005" class="node">
<title>Node5</title>
<g id="a_Node000005"><a xlink:href="../../de/dd7/classapplication_1_1command_1_1Command.html#a9196a46a45944a27fd1cb2ab75544f9f" target="_top" xlink:title="Pre&#45;check the regular task.">
<polygon fill="white" stroke="#666666" points="575,-30 397,-30 397,0 575,0 575,-30"/>
<text text-anchor="start" x="405" y="-18" font-family="Helvetica,sans-Serif" font-size="10.00">application::command</text>
<text text-anchor="middle" x="486" y="-7" font-family="Helvetica,sans-Serif" font-size="10.00">::Command::validateRegularTask</text>
</a>
</g>
</g>
<!-- Node1&#45;&gt;Node5 -->
<g id="edge4_Node000001_Node000005" class="edge">
<title>Node1&#45;&gt;Node5</title>
<g id="a_edge4_Node000001_Node000005"><a xlink:title=" ">
<path fill="none" stroke="#63b8ff" d="M600.93,-28.11C592.3,-27.12 583.59,-26.12 575.02,-25.13"/>
<polygon fill="#63b8ff" stroke="#63b8ff" points="600.66,-31.61 611,-29.27 601.46,-24.65 600.66,-31.61"/>
</a>
</g>
</g>
<!-- Node3 -->
<g id="Node000003" class="node">
<title>Node3</title>
<g id="a_Node000003"><a xlink:href="../../de/dd7/classapplication_1_1command_1_1Command.html#ad693981498a2ff88208efd2f97d46e25" target="_top" xlink:title="Foreground handler for parsing command line arguments.">
<polygon fill="white" stroke="#666666" points="361,-54 191,-54 191,-24 361,-24 361,-54"/>
<text text-anchor="start" x="199" y="-42" font-family="Helvetica,sans-Serif" font-size="10.00">application::command</text>
<text text-anchor="middle" x="276" y="-31" font-family="Helvetica,sans-Serif" font-size="10.00">::Command::foregroundHandler</text>
</a>
</g>
</g>
<!-- Node2&#45;&gt;Node3 -->
<g id="edge2_Node000002_Node000003" class="edge">
<title>Node2&#45;&gt;Node3</title>
<g id="a_edge2_Node000002_Node000003"><a xlink:title=" ">
<path fill="none" stroke="#63b8ff" d="M392.53,-52.33C382.07,-51.12 371.45,-49.9 361.11,-48.7"/>
<polygon fill="#63b8ff" stroke="#63b8ff" points="392.16,-55.81 402.49,-53.48 392.96,-48.86 392.16,-55.81"/>
</a>
</g>
</g>
<!-- Node4 -->
<g id="Node000004" class="node">
<title>Node4</title>
<g id="a_Node000004"><a xlink:href="../../de/dd7/classapplication_1_1command_1_1Command.html#a5d2584a4ee3f7e91ec82649f91b3b810" target="_top" xlink:title="Interface for running commander.">
<polygon fill="white" stroke="#666666" points="155,-54 0,-54 0,-24 155,-24 155,-54"/>
<text text-anchor="start" x="8" y="-42" font-family="Helvetica,sans-Serif" font-size="10.00">application::command</text>
<text text-anchor="middle" x="77.5" y="-31" font-family="Helvetica,sans-Serif" font-size="10.00">::Command::runCommander</text>
</a>
</g>
</g>
<!-- Node3&#45;&gt;Node4 -->
<g id="edge3_Node000003_Node000004" class="edge">
<title>Node3&#45;&gt;Node4</title>
<g id="a_edge3_Node000003_Node000004"><a xlink:title=" ">
<path fill="none" stroke="#63b8ff" d="M180.74,-39C172.13,-39 163.48,-39 155.06,-39"/>
<polygon fill="#63b8ff" stroke="#63b8ff" points="180.81,-42.5 190.81,-39 180.81,-35.5 180.81,-42.5"/>
</a>
</g>
</g>
<!-- Node5&#45;&gt;Node3 -->
<g id="edge5_Node000005_Node000003" class="edge">
<title>Node5&#45;&gt;Node3</title>
<g id="a_edge5_Node000005_Node000003"><a xlink:title=" ">
<path fill="none" stroke="#63b8ff" d="M386.74,-26.34C378.15,-27.33 369.5,-28.33 361.04,-29.3"/>
<polygon fill="#63b8ff" stroke="#63b8ff" points="387.26,-29.8 396.79,-25.18 386.45,-22.85 387.26,-29.8"/>
</a>
</g>
</g>
</g>
</svg>
