<?xml version="1.0" encoding="UTF-8" standalone="no"?>
<!DOCTYPE svg PUBLIC "-//W3C//DTD SVG 1.1//EN"
 "http://www.w3.org/Graphics/SVG/1.1/DTD/svg11.dtd">
<!-- Generated by graphviz version 2.43.0 (0)
 -->
<!-- Title: application::command::Command::dispatchTask Pages: 1 -->
<svg width="551pt" height="38pt"
 viewBox="0.00 0.00 551.00 38.00" xmlns="http://www.w3.org/2000/svg" xmlns:xlink="http://www.w3.org/1999/xlink">
<g id="graph0" class="graph" transform="scale(1 1) rotate(0) translate(4 34)">
<title>application::command::Command::dispatchTask</title>
<!-- Node1 -->
<g id="Node000001" class="node">
<title>Node1</title>
<g id="a_Node000001"><a xlink:title="Dispatch specific tasks.">
<polygon fill="#999999" stroke="#666666" points="543,-30 401,-30 401,0 543,0 543,-30"/>
<text text-anchor="start" x="409" y="-18" font-family="Helvetica,sans-Serif" font-size="10.00">application::command</text>
<text text-anchor="middle" x="472" y="-7" font-family="Helvetica,sans-Serif" font-size="10.00">::Command::dispatchTask</text>
</a>
</g>
</g>
<!-- Node2 -->
<g id="Node000002" class="node">
<title>Node2</title>
<g id="a_Node000002"><a xlink:href="../../de/dd7/classapplication_1_1command_1_1Command.html#a19fb2a7d1e940b120bcfc134880d1468" target="_top" xlink:title="Background handler for performing the specific task.">
<polygon fill="white" stroke="#666666" points="365,-30 191,-30 191,0 365,0 365,-30"/>
<text text-anchor="start" x="199" y="-18" font-family="Helvetica,sans-Serif" font-size="10.00">application::command</text>
<text text-anchor="middle" x="278" y="-7" font-family="Helvetica,sans-Serif" font-size="10.00">::Command::backgroundHandler</text>
</a>
</g>
</g>
<!-- Node1&#45;&gt;Node2 -->
<g id="edge1_Node000001_Node000002" class="edge">
<title>Node1&#45;&gt;Node2</title>
<g id="a_edge1_Node000001_Node000002"><a xlink:title=" ">
<path fill="none" stroke="#63b8ff" d="M390.72,-15C382.31,-15 373.75,-15 365.28,-15"/>
<polygon fill="#63b8ff" stroke="#63b8ff" points="390.87,-18.5 400.87,-15 390.87,-11.5 390.87,-18.5"/>
</a>
</g>
</g>
<!-- Node3 -->
<g id="Node000003" class="node">
<title>Node3</title>
<g id="a_Node000003"><a xlink:href="../../de/dd7/classapplication_1_1command_1_1Command.html#a5d2584a4ee3f7e91ec82649f91b3b810" target="_top" xlink:title="Interface for running commander.">
<polygon fill="white" stroke="#666666" points="155,-30 0,-30 0,0 155,0 155,-30"/>
<text text-anchor="start" x="8" y="-18" font-family="Helvetica,sans-Serif" font-size="10.00">application::command</text>
<text text-anchor="middle" x="77.5" y="-7" font-family="Helvetica,sans-Serif" font-size="10.00">::Command::runCommander</text>
</a>
</g>
</g>
<!-- Node2&#45;&gt;Node3 -->
<g id="edge2_Node000002_Node000003" class="edge">
<title>Node2&#45;&gt;Node3</title>
<g id="a_edge2_Node000002_Node000003"><a xlink:title=" ">
<path fill="none" stroke="#63b8ff" d="M180.78,-15C172.22,-15 163.63,-15 155.26,-15"/>
<polygon fill="#63b8ff" stroke="#63b8ff" points="180.8,-18.5 190.8,-15 180.8,-11.5 180.8,-18.5"/>
</a>
</g>
</g>
</g>
</svg>
