<?xml version="1.0" encoding="UTF-8" standalone="no"?>
<!DOCTYPE svg PUBLIC "-//W3C//DTD SVG 1.1//EN"
 "http://www.w3.org/Graphics/SVG/1.1/DTD/svg11.dtd">
<!-- Generated by graphviz version 2.43.0 (0)
 -->
<!-- Title: application::command::Command::launchClient Pages: 1 -->
<svg width="786pt" height="95pt"
 viewBox="0.00 0.00 786.00 95.00" xmlns="http://www.w3.org/2000/svg" xmlns:xlink="http://www.w3.org/1999/xlink">
<g id="graph0" class="graph" transform="scale(1 1) rotate(0) translate(4 91)">
<title>application::command::Command::launchClient</title>
<!-- Node1 -->
<g id="Node000001" class="node">
<title>Node1</title>
<g id="a_Node000001"><a xlink:title="Launch the client for console mode.">
<polygon fill="#999999" stroke="#666666" points="778,-54 638,-54 638,-24 778,-24 778,-54"/>
<text text-anchor="start" x="646" y="-42" font-family="Helvetica,sans-Serif" font-size="10.00">application::command</text>
<text text-anchor="middle" x="708" y="-31" font-family="Helvetica,sans-Serif" font-size="10.00">::Command::launchClient</text>
</a>
</g>
</g>
<!-- Node2 -->
<g id="Node000002" class="node">
<title>Node2</title>
<g id="a_Node000002"><a xlink:href="../../de/dd7/classapplication_1_1command_1_1Command.html#aede5e9ad130ae416e1041df66d6a4039" target="_top" xlink:title="Enter console mode.">
<polygon fill="white" stroke="#666666" points="379,-87 209,-87 209,-57 379,-57 379,-87"/>
<text text-anchor="start" x="217" y="-75" font-family="Helvetica,sans-Serif" font-size="10.00">application::command</text>
<text text-anchor="middle" x="294" y="-64" font-family="Helvetica,sans-Serif" font-size="10.00">::Command::enterConsoleMode</text>
</a>
</g>
</g>
<!-- Node1&#45;&gt;Node2 -->
<g id="edge1_Node000001_Node000002" class="edge">
<title>Node1&#45;&gt;Node2</title>
<g id="a_edge1_Node000001_Node000002"><a xlink:title=" ">
<path fill="none" stroke="#63b8ff" d="M640.4,-56.28C627.72,-58.98 614.51,-61.4 602,-63 527.03,-72.57 440.95,-74.3 379.06,-73.94"/>
<polygon fill="#63b8ff" stroke="#63b8ff" points="641.41,-59.64 650.42,-54.06 639.9,-52.8 641.41,-59.64"/>
</a>
</g>
</g>
<!-- Node4 -->
<g id="Node000004" class="node">
<title>Node4</title>
<g id="a_Node000004"><a xlink:href="../../de/dd7/classapplication_1_1command_1_1Command.html#aee416554141b9470166d1852526f93ea" target="_top" xlink:title="Execute the command line of console mode.">
<polygon fill="white" stroke="#666666" points="397,-30 191,-30 191,0 397,0 397,-30"/>
<text text-anchor="start" x="199" y="-18" font-family="Helvetica,sans-Serif" font-size="10.00">application::command</text>
<text text-anchor="middle" x="294" y="-7" font-family="Helvetica,sans-Serif" font-size="10.00">::Command::executeConsoleCommand</text>
</a>
</g>
</g>
<!-- Node1&#45;&gt;Node4 -->
<g id="edge3_Node000001_Node000004" class="edge">
<title>Node1&#45;&gt;Node4</title>
<g id="a_edge3_Node000001_Node000004"><a xlink:title=" ">
<path fill="none" stroke="#63b8ff" d="M641.93,-21.74C628.8,-18.94 615.03,-16.47 602,-15 534.08,-7.34 457.16,-7.35 397.31,-9.27"/>
<polygon fill="#63b8ff" stroke="#63b8ff" points="641.3,-25.19 651.82,-23.94 642.82,-18.35 641.3,-25.19"/>
</a>
</g>
</g>
<!-- Node5 -->
<g id="Node000005" class="node">
<title>Node5</title>
<g id="a_Node000005"><a xlink:href="../../de/dd7/classapplication_1_1command_1_1Command.html#a1b392abf635613d2f81e131fdd9b9d82" target="_top" xlink:title="Register the command line to console mode.">
<polygon fill="white" stroke="#666666" points="602,-54 433,-54 433,-24 602,-24 602,-54"/>
<text text-anchor="start" x="441" y="-42" font-family="Helvetica,sans-Serif" font-size="10.00">application::command</text>
<text text-anchor="middle" x="517.5" y="-31" font-family="Helvetica,sans-Serif" font-size="10.00">::Command::registerOnConsole</text>
</a>
</g>
</g>
<!-- Node1&#45;&gt;Node5 -->
<g id="edge4_Node000001_Node000005" class="edge">
<title>Node1&#45;&gt;Node5</title>
<g id="a_edge4_Node000001_Node000005"><a xlink:title=" ">
<path fill="none" stroke="#63b8ff" d="M627.65,-39C619.17,-39 610.54,-39 602.02,-39"/>
<polygon fill="#63b8ff" stroke="#63b8ff" points="627.88,-42.5 637.88,-39 627.88,-35.5 627.88,-42.5"/>
</a>
</g>
</g>
<!-- Node3 -->
<g id="Node000003" class="node">
<title>Node3</title>
<g id="a_Node000003"><a xlink:href="../../de/dd7/classapplication_1_1command_1_1Command.html#a5d2584a4ee3f7e91ec82649f91b3b810" target="_top" xlink:title="Interface for running commander.">
<polygon fill="white" stroke="#666666" points="155,-87 0,-87 0,-57 155,-57 155,-87"/>
<text text-anchor="start" x="8" y="-75" font-family="Helvetica,sans-Serif" font-size="10.00">application::command</text>
<text text-anchor="middle" x="77.5" y="-64" font-family="Helvetica,sans-Serif" font-size="10.00">::Command::runCommander</text>
</a>
</g>
</g>
<!-- Node2&#45;&gt;Node3 -->
<g id="edge2_Node000002_Node000003" class="edge">
<title>Node2&#45;&gt;Node3</title>
<g id="a_edge2_Node000002_Node000003"><a xlink:title=" ">
<path fill="none" stroke="#63b8ff" d="M198.79,-72C184.18,-72 169.24,-72 155.08,-72"/>
<polygon fill="#63b8ff" stroke="#63b8ff" points="198.84,-75.5 208.84,-72 198.84,-68.5 198.84,-75.5"/>
</a>
</g>
</g>
<!-- Node5&#45;&gt;Node2 -->
<g id="edge5_Node000005_Node000002" class="edge">
<title>Node5&#45;&gt;Node2</title>
<g id="a_edge5_Node000005_Node000002"><a xlink:title=" ">
<path fill="none" stroke="#63b8ff" d="M422.82,-52.96C408.34,-55.11 393.47,-57.33 379.23,-59.45"/>
<polygon fill="#63b8ff" stroke="#63b8ff" points="423.39,-56.41 432.76,-51.48 422.35,-49.49 423.39,-56.41"/>
</a>
</g>
</g>
<!-- Node5&#45;&gt;Node4 -->
<g id="edge6_Node000005_Node000004" class="edge">
<title>Node5&#45;&gt;Node4</title>
<g id="a_edge6_Node000005_Node000004"><a xlink:title=" ">
<path fill="none" stroke="#63b8ff" d="M422.57,-28.82C414.16,-27.91 405.61,-26.99 397.13,-26.07"/>
<polygon fill="#63b8ff" stroke="#63b8ff" points="422.44,-32.33 432.76,-29.93 423.2,-25.37 422.44,-32.33"/>
</a>
</g>
</g>
</g>
</svg>
