<?xml version="1.0" encoding="UTF-8" standalone="no"?>
<!DOCTYPE svg PUBLIC "-//W3C//DTD SVG 1.1//EN"
 "http://www.w3.org/Graphics/SVG/1.1/DTD/svg11.dtd">
<!-- Generated by graphviz version 2.43.0 (0)
 -->
<!-- Title: utility::memory::Memory&lt; T, BlockSize &gt; Pages: 1 -->
<svg width="188pt" height="148pt"
 viewBox="0.00 0.00 188.00 148.00" xmlns="http://www.w3.org/2000/svg" xmlns:xlink="http://www.w3.org/1999/xlink">
<g id="graph0" class="graph" transform="scale(1 1) rotate(0) translate(4 144)">
<title>utility::memory::Memory&lt; T, BlockSize &gt;</title>
<!-- Node1 -->
<g id="Node000001" class="node">
<title>Node1</title>
<g id="a_Node000001"><a xlink:title="Memory pool.">
<polygon fill="#999999" stroke="#666666" points="137,-30 0,-30 0,0 137,0 137,-30"/>
<text text-anchor="start" x="8" y="-18" font-family="Helvetica,sans-Serif" font-size="10.00">utility::memory::Memory</text>
<text text-anchor="middle" x="68.5" y="-7" font-family="Helvetica,sans-Serif" font-size="10.00">&lt; T, BlockSize &gt;</text>
</a>
</g>
</g>
<!-- Node2 -->
<g id="Node000002" class="node">
<title>Node2</title>
<g id="a_Node000002"><a xlink:href="../../d7/ddb/unionutility_1_1memory_1_1Memory_1_1Slot.html" target="_top" xlink:title="Union for the slot that stores element information.">
<polygon fill="white" stroke="#666666" points="137,-140 0,-140 0,-110 137,-110 137,-140"/>
<text text-anchor="start" x="8" y="-128" font-family="Helvetica,sans-Serif" font-size="10.00">utility::memory::Memory</text>
<text text-anchor="middle" x="68.5" y="-117" font-family="Helvetica,sans-Serif" font-size="10.00">&lt; T, BlockSize &gt;::Slot</text>
</a>
</g>
</g>
<!-- Node2&#45;&gt;Node1 -->
<g id="edge1_Node000001_Node000002" class="edge">
<title>Node2&#45;&gt;Node1</title>
<g id="a_edge1_Node000001_Node000002"><a xlink:title=" ">
<path fill="none" stroke="#9a32cd" stroke-dasharray="5,2" d="M68.5,-99.61C68.5,-78.18 68.5,-47.75 68.5,-30.12"/>
<polygon fill="#9a32cd" stroke="#9a32cd" points="65,-99.88 68.5,-109.88 72,-99.88 65,-99.88"/>
</a>
</g>
<text text-anchor="middle" x="101" y="-84" font-family="Helvetica,sans-Serif" font-size="10.00" fill="grey"> currentBlock</text>
<text text-anchor="middle" x="101" y="-73" font-family="Helvetica,sans-Serif" font-size="10.00" fill="grey">currentSlot</text>
<text text-anchor="middle" x="101" y="-62" font-family="Helvetica,sans-Serif" font-size="10.00" fill="grey">freeSlots</text>
<text text-anchor="middle" x="101" y="-51" font-family="Helvetica,sans-Serif" font-size="10.00" fill="grey">lastSlot</text>
</g>
<!-- Node2&#45;&gt;Node2 -->
<g id="edge2_Node000002_Node000002" class="edge">
<title>Node2&#45;&gt;Node2</title>
<g id="a_edge2_Node000002_Node000002"><a xlink:title=" ">
<path fill="none" stroke="#9a32cd" stroke-dasharray="5,2" d="M147.05,-132.12C152.01,-130.45 155,-128.07 155,-125 155,-120.2 147.71,-117.11 137.03,-115.72"/>
<polygon fill="#9a32cd" stroke="#9a32cd" points="146.07,-128.75 137.03,-134.28 147.54,-135.6 146.07,-128.75"/>
</a>
</g>
<text text-anchor="middle" x="167.5" y="-122.5" font-family="Helvetica,sans-Serif" font-size="10.00" fill="grey"> next</text>
</g>
</g>
</svg>
