<?xml version="1.0" encoding="UTF-8" standalone="no"?>
<!DOCTYPE svg PUBLIC "-//W3C//DTD SVG 1.1//EN"
 "http://www.w3.org/Graphics/SVG/1.1/DTD/svg11.dtd">
<!-- Generated by graphviz version 2.43.0 (0)
 -->
<!-- Title: utility::thread::Thread Pages: 1 -->
<svg width="871pt" height="242pt"
 viewBox="0.00 0.00 871.00 242.00" xmlns="http://www.w3.org/2000/svg" xmlns:xlink="http://www.w3.org/1999/xlink">
<g id="graph0" class="graph" transform="scale(1 1) rotate(0) translate(4 238)">
<title>utility::thread::Thread</title>
<!-- Node1 -->
<g id="Node000001" class="node">
<title>Node1</title>
<g id="a_Node000001"><a xlink:title="Thread pool.">
<polygon fill="#999999" stroke="#666666" points="863,-101 741,-101 741,-82 863,-82 863,-101"/>
<text text-anchor="middle" x="802" y="-89" font-family="Helvetica,sans-Serif" font-size="10.00">utility::thread::Thread</text>
</a>
</g>
</g>
<!-- Node2 -->
<g id="Node000002" class="node">
<title>Node2</title>
<g id="a_Node000002"><a target="_parent" xlink:href="https://gcc.gnu.org/onlinedocs/gcc-12.3.0/libstdc++/api/a08791.html" xlink:title=" ">
<polygon fill="white" stroke="#666666" points="633.5,-206 490.5,-206 490.5,-187 633.5,-187 633.5,-206"/>
<text text-anchor="middle" x="562" y="-194" font-family="Helvetica,sans-Serif" font-size="10.00">std::vector&lt; std::thread &gt;</text>
</a>
</g>
</g>
<!-- Node2&#45;&gt;Node1 -->
<g id="edge1_Node000001_Node000002" class="edge">
<title>Node2&#45;&gt;Node1</title>
<g id="a_edge1_Node000001_Node000002"><a xlink:title=" ">
<path fill="none" stroke="#9a32cd" stroke-dasharray="5,2" d="M611.67,-184.09C619.54,-181.77 627.54,-179.21 635,-176.5 693.12,-155.37 756.92,-118.45 785.57,-101.07"/>
<polygon fill="#9a32cd" stroke="#9a32cd" points="610.49,-180.79 601.84,-186.9 612.41,-187.52 610.49,-180.79"/>
</a>
</g>
<text text-anchor="middle" x="688" y="-171.5" font-family="Helvetica,sans-Serif" font-size="10.00" fill="grey"> thdCntr</text>
</g>
<!-- Node3 -->
<g id="Node000003" class="node">
<title>Node3</title>
<g id="a_Node000003"><a target="_parent" xlink:href="https://gcc.gnu.org/onlinedocs/gcc-12.3.0/libstdc++/api/a08779.html" xlink:title=" ">
<polygon fill="white" stroke="#666666" points="145,-234 0,-234 0,-193 145,-193 145,-234"/>
<text text-anchor="start" x="8" y="-222" font-family="Helvetica,sans-Serif" font-size="10.00">std::_Vector_base&lt;</text>
<text text-anchor="start" x="8" y="-211" font-family="Helvetica,sans-Serif" font-size="10.00"> typename _Tp, typename</text>
<text text-anchor="middle" x="72.5" y="-200" font-family="Helvetica,sans-Serif" font-size="10.00"> _Alloc &gt;</text>
</a>
</g>
</g>
<!-- Node3&#45;&gt;Node2 -->
<g id="edge2_Node000002_Node000003" class="edge">
<title>Node3&#45;&gt;Node2</title>
<g id="a_edge2_Node000002_Node000003"><a xlink:title=" ">
<path fill="none" stroke="darkgreen" d="M155.23,-216.89C235.75,-219.24 362.16,-220.27 471,-209.5 480.43,-208.57 490.38,-207.36 500.09,-206.05"/>
<polygon fill="darkgreen" stroke="darkgreen" points="155.26,-213.39 145.15,-216.58 155.04,-220.39 155.26,-213.39"/>
</a>
</g>
</g>
<!-- Node4 -->
<g id="Node000004" class="node">
<title>Node4</title>
<g id="a_Node000004"><a target="_parent" xlink:href="https://gcc.gnu.org/onlinedocs/gcc-12.3.0/libstdc++/api/a08791.html" xlink:title=" ">
<polygon fill="white" stroke="#666666" points="329.5,-207.5 193.5,-207.5 193.5,-177.5 329.5,-177.5 329.5,-207.5"/>
<text text-anchor="start" x="201.5" y="-195.5" font-family="Helvetica,sans-Serif" font-size="10.00">std::vector&lt; typename</text>
<text text-anchor="middle" x="261.5" y="-184.5" font-family="Helvetica,sans-Serif" font-size="10.00"> _Tp, typename _Alloc &gt;</text>
</a>
</g>
</g>
<!-- Node3&#45;&gt;Node4 -->
<g id="edge4_Node000004_Node000003" class="edge">
<title>Node3&#45;&gt;Node4</title>
<g id="a_edge4_Node000004_Node000003"><a xlink:title=" ">
<path fill="none" stroke="darkgreen" d="M155.33,-204.31C167.99,-202.89 180.94,-201.43 193.23,-200.05"/>
<polygon fill="darkgreen" stroke="darkgreen" points="154.81,-200.85 145.26,-205.44 155.59,-207.8 154.81,-200.85"/>
</a>
</g>
</g>
<!-- Node4&#45;&gt;Node2 -->
<g id="edge3_Node000002_Node000004" class="edge">
<title>Node4&#45;&gt;Node2</title>
<g id="a_edge3_Node000002_Node000004"><a xlink:title=" ">
<path fill="none" stroke="orange" stroke-dasharray="5,2" d="M339.88,-193.54C386.35,-194.16 445.02,-194.95 490.25,-195.55"/>
<polygon fill="orange" stroke="orange" points="339.91,-190.04 329.86,-193.4 339.81,-197.04 339.91,-190.04"/>
</a>
</g>
<text text-anchor="middle" x="415" y="-197.5" font-family="Helvetica,sans-Serif" font-size="10.00" fill="grey"> &lt; std::thread &gt;</text>
</g>
<!-- Node5 -->
<g id="Node000005" class="node">
<title>Node5</title>
<g id="a_Node000005"><a target="_parent" xlink:href="https://gcc.gnu.org/onlinedocs/gcc-12.3.0/libstdc++/api/a08683.html" xlink:title=" ">
<polygon fill="white" stroke="#666666" points="635,-167.5 489,-167.5 489,-115.5 635,-115.5 635,-167.5"/>
<text text-anchor="start" x="497" y="-155.5" font-family="Helvetica,sans-Serif" font-size="10.00">std::queue&lt; std::pair</text>
<text text-anchor="start" x="497" y="-144.5" font-family="Helvetica,sans-Serif" font-size="10.00">&lt; std::basic_string,</text>
<text text-anchor="start" x="497" y="-133.5" font-family="Helvetica,sans-Serif" font-size="10.00"> std::packaged_task&lt; void</text>
<text text-anchor="middle" x="562" y="-122.5" font-family="Helvetica,sans-Serif" font-size="10.00">()&gt; &gt; &gt;</text>
</a>
</g>
</g>
<!-- Node5&#45;&gt;Node1 -->
<g id="edge5_Node000001_Node000005" class="edge">
<title>Node5&#45;&gt;Node1</title>
<g id="a_edge5_Node000001_Node000005"><a xlink:title=" ">
<path fill="none" stroke="#9a32cd" stroke-dasharray="5,2" d="M644.87,-124.3C682,-116.5 724.5,-107.57 755.77,-101"/>
<polygon fill="#9a32cd" stroke="#9a32cd" points="644.12,-120.88 635.05,-126.36 645.56,-127.73 644.12,-120.88"/>
</a>
</g>
<text text-anchor="middle" x="688" y="-124.5" font-family="Helvetica,sans-Serif" font-size="10.00" fill="grey"> taskQueue</text>
</g>
<!-- Node6 -->
<g id="Node000006" class="node">
<title>Node6</title>
<g id="a_Node000006"><a target="_parent" xlink:href="https://gcc.gnu.org/onlinedocs/gcc-12.3.0/libstdc++/api/a08683.html" xlink:title=" ">
<polygon fill="white" stroke="#666666" points="341,-155.5 182,-155.5 182,-125.5 341,-125.5 341,-155.5"/>
<text text-anchor="start" x="190" y="-143.5" font-family="Helvetica,sans-Serif" font-size="10.00">std::queue&lt; typename</text>
<text text-anchor="middle" x="261.5" y="-132.5" font-family="Helvetica,sans-Serif" font-size="10.00"> _Tp, typename _Sequence &gt;</text>
</a>
</g>
</g>
<!-- Node6&#45;&gt;Node5 -->
<g id="edge6_Node000005_Node000006" class="edge">
<title>Node6&#45;&gt;Node5</title>
<g id="a_edge6_Node000005_Node000006"><a xlink:title=" ">
<path fill="none" stroke="orange" stroke-dasharray="5,2" d="M351.41,-140.8C395.3,-140.94 447.55,-141.12 488.91,-141.26"/>
<polygon fill="orange" stroke="orange" points="351.33,-137.3 341.32,-140.76 351.31,-144.3 351.33,-137.3"/>
</a>
</g>
<text text-anchor="start" x="359" y="-165.5" font-family="Helvetica,sans-Serif" font-size="10.00" fill="grey"> &lt; std::pair&lt; std::basic</text>
<text text-anchor="start" x="359" y="-154.5" font-family="Helvetica,sans-Serif" font-size="10.00" fill="grey">_string, std::packaged</text>
<text text-anchor="middle" x="415" y="-143.5" font-family="Helvetica,sans-Serif" font-size="10.00" fill="grey">_task&lt; void()&gt; &gt; &gt;</text>
</g>
<!-- Node7 -->
<g id="Node000007" class="node">
<title>Node7</title>
<g id="a_Node000007"><a target="_parent" xlink:href="https://gcc.gnu.org/onlinedocs/gcc-12.3.0/libstdc++/api/a07923.html" xlink:title=" ">
<polygon fill="white" stroke="#666666" points="596.5,-97 527.5,-97 527.5,-78 596.5,-78 596.5,-97"/>
<text text-anchor="middle" x="562" y="-85" font-family="Helvetica,sans-Serif" font-size="10.00">std::mutex</text>
</a>
</g>
</g>
<!-- Node7&#45;&gt;Node1 -->
<g id="edge7_Node000001_Node000007" class="edge">
<title>Node7&#45;&gt;Node1</title>
<g id="a_edge7_Node000001_Node000007"><a xlink:title=" ">
<path fill="none" stroke="#9a32cd" stroke-dasharray="5,2" d="M606.74,-88.24C644.42,-88.87 699.16,-89.79 740.94,-90.49"/>
<polygon fill="#9a32cd" stroke="#9a32cd" points="606.65,-84.73 596.59,-88.06 606.53,-91.73 606.65,-84.73"/>
</a>
</g>
<text text-anchor="middle" x="688" y="-92.5" font-family="Helvetica,sans-Serif" font-size="10.00" fill="grey"> mtx</text>
</g>
<!-- Node8 -->
<g id="Node000008" class="node">
<title>Node8</title>
<g id="a_Node000008"><a target="_parent" xlink:href="https://gcc.gnu.org/onlinedocs/gcc-12.3.0/libstdc++/api/a02343.html" xlink:title=" ">
<polygon fill="white" stroke="#666666" points="626,-56 498,-56 498,-37 626,-37 626,-56"/>
<text text-anchor="middle" x="562" y="-44" font-family="Helvetica,sans-Serif" font-size="10.00">std::condition_variable</text>
</a>
</g>
</g>
<!-- Node8&#45;&gt;Node1 -->
<g id="edge8_Node000001_Node000008" class="edge">
<title>Node8&#45;&gt;Node1</title>
<g id="a_edge8_Node000001_Node000008"><a xlink:title=" ">
<path fill="none" stroke="#9a32cd" stroke-dasharray="5,2" d="M636.59,-49.89C663.97,-52.19 695.15,-56.04 723,-62.5 742.84,-67.1 764.49,-75.43 779.93,-81.99"/>
<polygon fill="#9a32cd" stroke="#9a32cd" points="636.54,-46.38 626.3,-49.09 635.99,-53.36 636.54,-46.38"/>
</a>
</g>
<text text-anchor="middle" x="688" y="-76.5" font-family="Helvetica,sans-Serif" font-size="10.00" fill="grey"> cv</text>
<text text-anchor="middle" x="688" y="-65.5" font-family="Helvetica,sans-Serif" font-size="10.00" fill="grey">producer</text>
</g>
<!-- Node9 -->
<g id="Node000009" class="node">
<title>Node9</title>
<g id="a_Node000009"><a target="_parent" xlink:href="https://gcc.gnu.org/onlinedocs/gcc-12.3.0/libstdc++/api/a01975.html" xlink:title=" ">
<polygon fill="white" stroke="#666666" points="619.5,-19 504.5,-19 504.5,0 619.5,0 619.5,-19"/>
<text text-anchor="middle" x="562" y="-7" font-family="Helvetica,sans-Serif" font-size="10.00">std::atomic&lt; bool &gt;</text>
</a>
</g>
</g>
<!-- Node9&#45;&gt;Node1 -->
<g id="edge9_Node000001_Node000009" class="edge">
<title>Node9&#45;&gt;Node1</title>
<g id="a_edge9_Node000001_Node000009"><a xlink:title=" ">
<path fill="none" stroke="#9a32cd" stroke-dasharray="5,2" d="M629.71,-13.43C659.17,-16.9 693.69,-23.39 723,-35.5 750.12,-46.71 776.81,-68.97 790.85,-81.79"/>
<polygon fill="#9a32cd" stroke="#9a32cd" points="629.84,-9.93 619.52,-12.33 629.09,-16.88 629.84,-9.93"/>
</a>
</g>
<text text-anchor="middle" x="688" y="-38.5" font-family="Helvetica,sans-Serif" font-size="10.00" fill="grey"> readyRelease</text>
</g>
</g>
</svg>
