<?xml version="1.0" encoding="UTF-8" standalone="no"?>
<!DOCTYPE svg PUBLIC "-//W3C//DTD SVG 1.1//EN"
 "http://www.w3.org/Graphics/SVG/1.1/DTD/svg11.dtd">
<!-- Generated by graphviz version 2.43.0 (0)
 -->
<!-- Title: utility::file::openFile Pages: 1 -->
<svg width="657pt" height="86pt"
 viewBox="0.00 0.00 657.00 86.00" xmlns="http://www.w3.org/2000/svg" xmlns:xlink="http://www.w3.org/1999/xlink">
<g id="graph0" class="graph" transform="scale(1 1) rotate(0) translate(4 82)">
<title>utility::file::openFile</title>
<!-- Node1 -->
<g id="Node000001" class="node">
<title>Node1</title>
<g id="a_Node000001"><a xlink:title="Open file.">
<polygon fill="#999999" stroke="#666666" points="649,-48.5 536,-48.5 536,-29.5 649,-29.5 649,-48.5"/>
<text text-anchor="middle" x="592.5" y="-36.5" font-family="Helvetica,sans-Serif" font-size="10.00">utility::file::openFile</text>
</a>
</g>
</g>
<!-- Node2 -->
<g id="Node000002" class="node">
<title>Node2</title>
<g id="a_Node000002"><a xlink:href="../../d9/d58/namespaceutility_1_1file.html#a8cd9c425aceb18008caac75979c7d007" target="_top" xlink:title="Get the file contents.">
<polygon fill="white" stroke="#666666" points="500,-48.5 352,-48.5 352,-29.5 500,-29.5 500,-48.5"/>
<text text-anchor="middle" x="426" y="-36.5" font-family="Helvetica,sans-Serif" font-size="10.00">utility::file::getFileContents</text>
</a>
</g>
</g>
<!-- Node1&#45;&gt;Node2 -->
<g id="edge1_Node000001_Node000002" class="edge">
<title>Node1&#45;&gt;Node2</title>
<g id="a_edge1_Node000001_Node000002"><a xlink:title=" ">
<path fill="none" stroke="#63b8ff" d="M525.7,-39C517.29,-39 508.65,-39 500.13,-39"/>
<polygon fill="#63b8ff" stroke="#63b8ff" points="525.81,-42.5 535.81,-39 525.81,-35.5 525.81,-42.5"/>
</a>
</g>
</g>
<!-- Node3 -->
<g id="Node000003" class="node">
<title>Node3</title>
<g id="a_Node000003"><a xlink:href="../../d5/dbb/classapplication_1_1view_1_1View.html#abe85dd8c7a74b4efaf684743ef4ad4e8" target="_top" xlink:title="Get the log contents.">
<polygon fill="white" stroke="#666666" points="316,-78 194,-78 194,-48 316,-48 316,-78"/>
<text text-anchor="start" x="202" y="-66" font-family="Helvetica,sans-Serif" font-size="10.00">application::view::</text>
<text text-anchor="middle" x="255" y="-55" font-family="Helvetica,sans-Serif" font-size="10.00">View::getLogContents</text>
</a>
</g>
</g>
<!-- Node2&#45;&gt;Node3 -->
<g id="edge2_Node000002_Node000003" class="edge">
<title>Node2&#45;&gt;Node3</title>
<g id="a_edge2_Node000002_Node000003"><a xlink:title=" ">
<path fill="none" stroke="#63b8ff" d="M347.67,-49.98C337.11,-51.48 326.4,-53 316.21,-54.45"/>
<polygon fill="#63b8ff" stroke="#63b8ff" points="348.31,-53.43 357.72,-48.55 347.33,-46.5 348.31,-53.43"/>
</a>
</g>
</g>
<!-- Node5 -->
<g id="Node000005" class="node">
<title>Node5</title>
<g id="a_Node000005"><a xlink:href="../../d0/d11/classapplication_1_1config_1_1Config.html#a8b8adf0f9a6ebcd90271dafafdcd2f62" target="_top" xlink:title="Parse the configuration file.">
<polygon fill="white" stroke="#666666" points="308,-30 202,-30 202,0 308,0 308,-30"/>
<text text-anchor="start" x="210" y="-18" font-family="Helvetica,sans-Serif" font-size="10.00">application::config</text>
<text text-anchor="middle" x="255" y="-7" font-family="Helvetica,sans-Serif" font-size="10.00">::Config::parseFile</text>
</a>
</g>
</g>
<!-- Node2&#45;&gt;Node5 -->
<g id="edge4_Node000002_Node000005" class="edge">
<title>Node2&#45;&gt;Node5</title>
<g id="a_edge4_Node000002_Node000005"><a xlink:title=" ">
<path fill="none" stroke="#63b8ff" d="M347.59,-28.01C334.25,-26.11 320.68,-24.18 308.21,-22.41"/>
<polygon fill="#63b8ff" stroke="#63b8ff" points="347.33,-31.5 357.72,-29.45 348.31,-24.57 347.33,-31.5"/>
</a>
</g>
</g>
<!-- Node4 -->
<g id="Node000004" class="node">
<title>Node4</title>
<g id="a_Node000004"><a xlink:href="../../d5/dbb/classapplication_1_1view_1_1View.html#a381fe394fde0c8c2d113c9f2419fe42f" target="_top" xlink:title="Build the TLV packet to view log contents.">
<polygon fill="white" stroke="#666666" points="158,-78 0,-78 0,-48 158,-48 158,-78"/>
<text text-anchor="start" x="8" y="-66" font-family="Helvetica,sans-Serif" font-size="10.00">application::view::</text>
<text text-anchor="middle" x="79" y="-55" font-family="Helvetica,sans-Serif" font-size="10.00">View::buildTLVPacket2Journal</text>
</a>
</g>
</g>
<!-- Node3&#45;&gt;Node4 -->
<g id="edge3_Node000003_Node000004" class="edge">
<title>Node3&#45;&gt;Node4</title>
<g id="a_edge3_Node000003_Node000004"><a xlink:title=" ">
<path fill="none" stroke="#63b8ff" d="M183.52,-63C175.13,-63 166.53,-63 158.04,-63"/>
<polygon fill="#63b8ff" stroke="#63b8ff" points="183.63,-66.5 193.63,-63 183.63,-59.5 183.63,-66.5"/>
</a>
</g>
</g>
<!-- Node6 -->
<g id="Node000006" class="node">
<title>Node6</title>
<g id="a_Node000006"><a xlink:href="../../d0/d11/classapplication_1_1config_1_1Config.html#ab3c2ccfa11cb8fd4df7a5442b5e20227" target="_top" xlink:title="Construct a new Config object.">
<polygon fill="white" stroke="#666666" points="132,-30 26,-30 26,0 132,0 132,-30"/>
<text text-anchor="start" x="34" y="-18" font-family="Helvetica,sans-Serif" font-size="10.00">application::config</text>
<text text-anchor="middle" x="79" y="-7" font-family="Helvetica,sans-Serif" font-size="10.00">::Config::Config</text>
</a>
</g>
</g>
<!-- Node5&#45;&gt;Node6 -->
<g id="edge5_Node000005_Node000006" class="edge">
<title>Node5&#45;&gt;Node6</title>
<g id="a_edge5_Node000005_Node000006"><a xlink:title=" ">
<path fill="none" stroke="#63b8ff" d="M191.78,-15C172.25,-15 150.92,-15 132.17,-15"/>
<polygon fill="#63b8ff" stroke="#63b8ff" points="191.79,-18.5 201.79,-15 191.79,-11.5 191.79,-18.5"/>
</a>
</g>
</g>
</g>
</svg>
