<?xml version="1.0" encoding="UTF-8" standalone="no"?>
<!DOCTYPE svg PUBLIC "-//W3C//DTD SVG 1.1//EN"
 "http://www.w3.org/Graphics/SVG/1.1/DTD/svg11.dtd">
<!-- Generated by graphviz version 2.43.0 (0)
 -->
<!-- Title: date_structure::tree::bs::Output::flush Pages: 1 -->
<svg width="315pt" height="254pt"
 viewBox="0.00 0.00 315.00 254.00" xmlns="http://www.w3.org/2000/svg" xmlns:xlink="http://www.w3.org/1999/xlink">
<g id="graph0" class="graph" transform="scale(1 1) rotate(0) translate(4 250)">
<title>date_structure::tree::bs::Output::flush</title>
<!-- Node1 -->
<g id="Node000001" class="node">
<title>Node1</title>
<g id="a_Node000001"><a xlink:title="Flush the output stream.">
<polygon fill="#999999" stroke="#666666" points="307,-129 194,-129 194,-99 307,-99 307,-129"/>
<text text-anchor="start" x="202" y="-117" font-family="Helvetica,sans-Serif" font-size="10.00">date_structure::tree</text>
<text text-anchor="middle" x="250.5" y="-106" font-family="Helvetica,sans-Serif" font-size="10.00">::bs::Output::flush</text>
</a>
</g>
</g>
<!-- Node2 -->
<g id="Node000002" class="node">
<title>Node2</title>
<g id="a_Node000002"><a xlink:href="../../dc/d95/classdate__structure_1_1tree_1_1bs_1_1Output.html#affbbd8a22cdb02d3ab99be8e78b6ae98" target="_top" xlink:title="The in&#45;order traversal of the binary search tree.">
<polygon fill="white" stroke="#666666" points="152,-228 6,-228 6,-198 152,-198 152,-228"/>
<text text-anchor="start" x="14" y="-216" font-family="Helvetica,sans-Serif" font-size="10.00">date_structure::tree</text>
<text text-anchor="middle" x="79" y="-205" font-family="Helvetica,sans-Serif" font-size="10.00">::bs::Output::inorderBSTree</text>
</a>
</g>
</g>
<!-- Node1&#45;&gt;Node2 -->
<g id="edge1_Node000001_Node000002" class="edge">
<title>Node1&#45;&gt;Node2</title>
<g id="a_edge1_Node000001_Node000002"><a xlink:title=" ">
<path fill="none" stroke="#63b8ff" d="M227.55,-136.19C210.05,-152.78 184.21,-174.93 158,-189 151.76,-192.35 144.98,-195.31 138.11,-197.9"/>
<polygon fill="#63b8ff" stroke="#63b8ff" points="230.22,-138.48 234.97,-129.01 225.35,-133.45 230.22,-138.48"/>
</a>
</g>
</g>
<!-- Node3 -->
<g id="Node000003" class="node">
<title>Node3</title>
<g id="a_Node000003"><a xlink:href="../../dc/d95/classdate__structure_1_1tree_1_1bs_1_1Output.html#ae736d9074323c6a6fb774effe3bed516" target="_top" xlink:title="The post&#45;order traversal of the binary search tree.">
<polygon fill="white" stroke="#666666" points="158,-162 0,-162 0,-132 158,-132 158,-162"/>
<text text-anchor="start" x="8" y="-150" font-family="Helvetica,sans-Serif" font-size="10.00">date_structure::tree</text>
<text text-anchor="middle" x="79" y="-139" font-family="Helvetica,sans-Serif" font-size="10.00">::bs::Output::postorderBSTree</text>
</a>
</g>
</g>
<!-- Node1&#45;&gt;Node3 -->
<g id="edge3_Node000001_Node000003" class="edge">
<title>Node1&#45;&gt;Node3</title>
<g id="a_edge3_Node000001_Node000003"><a xlink:title=" ">
<path fill="none" stroke="#63b8ff" d="M184.17,-126.72C175.33,-128.44 166.19,-130.22 157.16,-131.98"/>
<polygon fill="#63b8ff" stroke="#63b8ff" points="184.85,-130.15 194,-124.81 183.51,-123.28 184.85,-130.15"/>
</a>
</g>
</g>
<!-- Node4 -->
<g id="Node000004" class="node">
<title>Node4</title>
<g id="a_Node000004"><a xlink:href="../../dc/d95/classdate__structure_1_1tree_1_1bs_1_1Output.html#ad94a1f48ec50545a8fa6865350cf0dde" target="_top" xlink:title="The pre&#45;order traversal of the binary search tree.">
<polygon fill="white" stroke="#666666" points="155.5,-96 2.5,-96 2.5,-66 155.5,-66 155.5,-96"/>
<text text-anchor="start" x="10.5" y="-84" font-family="Helvetica,sans-Serif" font-size="10.00">date_structure::tree</text>
<text text-anchor="middle" x="79" y="-73" font-family="Helvetica,sans-Serif" font-size="10.00">::bs::Output::preorderBSTree</text>
</a>
</g>
</g>
<!-- Node1&#45;&gt;Node4 -->
<g id="edge5_Node000001_Node000004" class="edge">
<title>Node1&#45;&gt;Node4</title>
<g id="a_edge5_Node000001_Node000004"><a xlink:title=" ">
<path fill="none" stroke="#63b8ff" d="M184.05,-101.26C174.75,-99.45 165.12,-97.57 155.64,-95.73"/>
<polygon fill="#63b8ff" stroke="#63b8ff" points="183.51,-104.72 194,-103.19 184.85,-97.85 183.51,-104.72"/>
</a>
</g>
</g>
<!-- Node5 -->
<g id="Node000005" class="node">
<title>Node5</title>
<g id="a_Node000005"><a xlink:href="../../dc/d95/classdate__structure_1_1tree_1_1bs_1_1Output.html#a38d1591f9db4319359f505cbe44db3d0" target="_top" xlink:title="Print the binary search tree.">
<polygon fill="white" stroke="#666666" points="146,-30 12,-30 12,0 146,0 146,-30"/>
<text text-anchor="start" x="20" y="-18" font-family="Helvetica,sans-Serif" font-size="10.00">date_structure::tree</text>
<text text-anchor="middle" x="79" y="-7" font-family="Helvetica,sans-Serif" font-size="10.00">::bs::Output::printBSTree</text>
</a>
</g>
</g>
<!-- Node1&#45;&gt;Node5 -->
<g id="edge7_Node000001_Node000005" class="edge">
<title>Node1&#45;&gt;Node5</title>
<g id="a_edge7_Node000001_Node000005"><a xlink:title=" ">
<path fill="none" stroke="#63b8ff" d="M217.4,-93.31C199.98,-82.26 177.99,-68.59 158,-57 142.03,-47.74 123.9,-37.93 109.13,-30.13"/>
<polygon fill="#63b8ff" stroke="#63b8ff" points="215.74,-96.4 226.05,-98.82 219.5,-90.5 215.74,-96.4"/>
</a>
</g>
</g>
<!-- Node2&#45;&gt;Node2 -->
<g id="edge2_Node000002_Node000002" class="edge">
<title>Node2&#45;&gt;Node2</title>
<g id="a_edge2_Node000002_Node000002"><a xlink:title=" ">
<path fill="none" stroke="#63b8ff" d="M108.76,-238.6C104.69,-242.97 94.77,-246 79,-246 52.44,-246 42.48,-237.41 49.12,-228.28"/>
<polygon fill="#63b8ff" stroke="#63b8ff" points="112.26,-238.32 108.88,-228.28 105.26,-238.23 112.26,-238.32"/>
</a>
</g>
</g>
<!-- Node3&#45;&gt;Node3 -->
<g id="edge4_Node000003_Node000003" class="edge">
<title>Node3&#45;&gt;Node3</title>
<g id="a_edge4_Node000003_Node000003"><a xlink:title=" ">
<path fill="none" stroke="#63b8ff" d="M108.76,-172.6C104.69,-176.97 94.77,-180 79,-180 52.44,-180 42.48,-171.41 49.12,-162.28"/>
<polygon fill="#63b8ff" stroke="#63b8ff" points="112.26,-172.32 108.88,-162.28 105.26,-172.23 112.26,-172.32"/>
</a>
</g>
</g>
<!-- Node4&#45;&gt;Node4 -->
<g id="edge6_Node000004_Node000004" class="edge">
<title>Node4&#45;&gt;Node4</title>
<g id="a_edge6_Node000004_Node000004"><a xlink:title=" ">
<path fill="none" stroke="#63b8ff" d="M108.76,-106.6C104.69,-110.97 94.77,-114 79,-114 52.44,-114 42.48,-105.41 49.12,-96.28"/>
<polygon fill="#63b8ff" stroke="#63b8ff" points="112.26,-106.32 108.88,-96.28 105.26,-106.23 112.26,-106.32"/>
</a>
</g>
</g>
<!-- Node5&#45;&gt;Node5 -->
<g id="edge8_Node000005_Node000005" class="edge">
<title>Node5&#45;&gt;Node5</title>
<g id="a_edge8_Node000005_Node000005"><a xlink:title=" ">
<path fill="none" stroke="#63b8ff" d="M108.76,-40.6C104.69,-44.97 94.77,-48 79,-48 52.44,-48 42.48,-39.41 49.12,-30.28"/>
<polygon fill="#63b8ff" stroke="#63b8ff" points="112.26,-40.32 108.88,-30.28 105.26,-40.23 112.26,-40.32"/>
</a>
</g>
</g>
</g>
</svg>
