<?xml version="1.0" encoding="UTF-8" standalone="no"?>
<!DOCTYPE svg PUBLIC "-//W3C//DTD SVG 1.1//EN"
 "http://www.w3.org/Graphics/SVG/1.1/DTD/svg11.dtd">
<!-- Generated by graphviz version 2.43.0 (0)
 -->
<!-- Title: utility/include/json.hpp Pages: 1 -->
<svg width="1256pt" height="236pt"
 viewBox="0.00 0.00 1255.50 236.00" xmlns="http://www.w3.org/2000/svg" xmlns:xlink="http://www.w3.org/1999/xlink">
<g id="graph0" class="graph" transform="scale(1 1) rotate(0) translate(4 232)">
<title>utility/include/json.hpp</title>
<!-- Node1 -->
<g id="Node000001" class="node">
<title>Node1</title>
<g id="a_Node000001"><a xlink:title="The declarations (json) in the utility module.">
<polygon fill="#999999" stroke="#666666" points="463,-228 335,-228 335,-209 463,-209 463,-228"/>
<text text-anchor="middle" x="399" y="-216" font-family="Helvetica,sans-Serif" font-size="10.00">utility/include/json.hpp</text>
</a>
</g>
</g>
<!-- Node2 -->
<g id="Node000002" class="node">
<title>Node2</title>
<g id="a_Node000002"><a xlink:href="../../d8/dfd/config_8hpp.html" target="_top" xlink:title="The declarations (config) in the application module.">
<polygon fill="white" stroke="#666666" points="392.5,-173 259.5,-173 259.5,-143 392.5,-143 392.5,-173"/>
<text text-anchor="start" x="267.5" y="-161" font-family="Helvetica,sans-Serif" font-size="10.00">application/core/include</text>
<text text-anchor="middle" x="326" y="-150" font-family="Helvetica,sans-Serif" font-size="10.00">/config.hpp</text>
</a>
</g>
</g>
<!-- Node1&#45;&gt;Node2 -->
<g id="edge1_Node000001_Node000002" class="edge">
<title>Node1&#45;&gt;Node2</title>
<g id="a_edge1_Node000001_Node000002"><a xlink:title=" ">
<path fill="none" stroke="#63b8ff" d="M380.28,-202.5C368.99,-193.45 354.7,-182 343.61,-173.11"/>
<polygon fill="#63b8ff" stroke="#63b8ff" points="378.24,-205.35 388.23,-208.87 382.61,-199.88 378.24,-205.35"/>
</a>
</g>
</g>
<!-- Node14 -->
<g id="Node000014" class="node">
<title>Node14</title>
<g id="a_Node000014"><a xlink:href="../../dd/d55/json_8cpp.html" target="_top" xlink:title="The definitions (json) in the utility module.">
<polygon fill="white" stroke="#666666" points="535,-167.5 411,-167.5 411,-148.5 535,-148.5 535,-167.5"/>
<text text-anchor="middle" x="473" y="-155.5" font-family="Helvetica,sans-Serif" font-size="10.00">utility/source/json.cpp</text>
</a>
</g>
</g>
<!-- Node1&#45;&gt;Node14 -->
<g id="edge17_Node000001_Node000014" class="edge">
<title>Node1&#45;&gt;Node14</title>
<g id="a_edge17_Node000001_Node000014"><a xlink:title=" ">
<path fill="none" stroke="#63b8ff" d="M417.93,-202.54C431.9,-191.49 450.43,-176.84 462.04,-167.67"/>
<polygon fill="#63b8ff" stroke="#63b8ff" points="415.59,-199.92 409.92,-208.87 419.93,-205.41 415.59,-199.92"/>
</a>
</g>
</g>
<!-- Node3 -->
<g id="Node000003" class="node">
<title>Node3</title>
<g id="a_Node000003"><a xlink:href="../../d4/d3d/log_8hpp.html" target="_top" xlink:title="The declarations (log) in the application module.">
<polygon fill="white" stroke="#666666" points="545.5,-107 412.5,-107 412.5,-77 545.5,-77 545.5,-107"/>
<text text-anchor="start" x="420.5" y="-95" font-family="Helvetica,sans-Serif" font-size="10.00">application/core/include</text>
<text text-anchor="middle" x="479" y="-84" font-family="Helvetica,sans-Serif" font-size="10.00">/log.hpp</text>
</a>
</g>
</g>
<!-- Node2&#45;&gt;Node3 -->
<g id="edge2_Node000002_Node000003" class="edge">
<title>Node2&#45;&gt;Node3</title>
<g id="a_edge2_Node000002_Node000003"><a xlink:title=" ">
<path fill="none" stroke="#63b8ff" d="M368.9,-139.05C393.14,-128.91 423,-116.43 445.5,-107.01"/>
<polygon fill="#63b8ff" stroke="#63b8ff" points="367.45,-135.87 359.58,-142.95 370.15,-142.32 367.45,-135.87"/>
</a>
</g>
</g>
<!-- Node6 -->
<g id="Node000006" class="node">
<title>Node6</title>
<g id="a_Node000006"><a xlink:href="../../df/d92/application_2core_2source_2main_8cpp.html" target="_top" xlink:title="The definitions (main) in the application module.">
<polygon fill="white" stroke="#666666" points="130,-35.5 0,-35.5 0,-5.5 130,-5.5 130,-35.5"/>
<text text-anchor="start" x="8" y="-23.5" font-family="Helvetica,sans-Serif" font-size="10.00">application/core/source</text>
<text text-anchor="middle" x="65" y="-12.5" font-family="Helvetica,sans-Serif" font-size="10.00">/main.cpp</text>
</a>
</g>
</g>
<!-- Node2&#45;&gt;Node6 -->
<g id="edge16_Node000002_Node000006" class="edge">
<title>Node2&#45;&gt;Node6</title>
<g id="a_edge16_Node000002_Node000006"><a xlink:title=" ">
<path fill="none" stroke="#63b8ff" d="M259.63,-140.1C232.82,-131.95 202.11,-120.9 176,-107 138.42,-87 100.35,-54.39 80.02,-35.76"/>
<polygon fill="#63b8ff" stroke="#63b8ff" points="258.73,-143.48 269.32,-142.97 260.72,-136.77 258.73,-143.48"/>
</a>
</g>
</g>
<!-- Node12 -->
<g id="Node000012" class="node">
<title>Node12</title>
<g id="a_Node000012"><a xlink:href="../../d8/d11/view_8hpp.html" target="_top" xlink:title="The declarations (view) in the application module.">
<polygon fill="white" stroke="#666666" points="317.5,-107 184.5,-107 184.5,-77 317.5,-77 317.5,-107"/>
<text text-anchor="start" x="192.5" y="-95" font-family="Helvetica,sans-Serif" font-size="10.00">application/core/include</text>
<text text-anchor="middle" x="251" y="-84" font-family="Helvetica,sans-Serif" font-size="10.00">/view.hpp</text>
</a>
</g>
</g>
<!-- Node2&#45;&gt;Node12 -->
<g id="edge11_Node000002_Node000012" class="edge">
<title>Node2&#45;&gt;Node12</title>
<g id="a_edge11_Node000002_Node000012"><a xlink:title=" ">
<path fill="none" stroke="#63b8ff" d="M301.63,-136.2C290.49,-126.7 277.59,-115.69 267.6,-107.16"/>
<polygon fill="#63b8ff" stroke="#63b8ff" points="299.48,-138.97 309.36,-142.8 304.02,-133.64 299.48,-138.97"/>
</a>
</g>
</g>
<!-- Node13 -->
<g id="Node000013" class="node">
<title>Node13</title>
<g id="a_Node000013"><a xlink:href="../../df/d59/config_8cpp.html" target="_top" xlink:title="The definitions (config) in the application module.">
<polygon fill="white" stroke="#666666" points="694,-107 564,-107 564,-77 694,-77 694,-107"/>
<text text-anchor="start" x="572" y="-95" font-family="Helvetica,sans-Serif" font-size="10.00">application/core/source</text>
<text text-anchor="middle" x="629" y="-84" font-family="Helvetica,sans-Serif" font-size="10.00">/config.cpp</text>
</a>
</g>
</g>
<!-- Node2&#45;&gt;Node13 -->
<g id="edge15_Node000002_Node000013" class="edge">
<title>Node2&#45;&gt;Node13</title>
<g id="a_edge15_Node000002_Node000013"><a xlink:title=" ">
<path fill="none" stroke="#63b8ff" d="M402.57,-140.83C452.38,-130.31 516.63,-116.73 563.96,-106.74"/>
<polygon fill="#63b8ff" stroke="#63b8ff" points="401.56,-137.46 392.49,-142.95 403,-144.31 401.56,-137.46"/>
</a>
</g>
</g>
<!-- Node4 -->
<g id="Node000004" class="node">
<title>Node4</title>
<g id="a_Node000004"><a xlink:href="../../d1/d81/command_8cpp.html" target="_top" xlink:title="The definitions (command) in the application module.">
<polygon fill="white" stroke="#666666" points="278,-35.5 148,-35.5 148,-5.5 278,-5.5 278,-35.5"/>
<text text-anchor="start" x="156" y="-23.5" font-family="Helvetica,sans-Serif" font-size="10.00">application/core/source</text>
<text text-anchor="middle" x="213" y="-12.5" font-family="Helvetica,sans-Serif" font-size="10.00">/command.cpp</text>
</a>
</g>
</g>
<!-- Node3&#45;&gt;Node4 -->
<g id="edge3_Node000003_Node000004" class="edge">
<title>Node3&#45;&gt;Node4</title>
<g id="a_edge3_Node000003_Node000004"><a xlink:title=" ">
<path fill="none" stroke="#63b8ff" d="M415.04,-74.39C377.69,-64.68 329.67,-52.18 287,-41 280.32,-39.25 273.3,-37.41 266.35,-35.58"/>
<polygon fill="#63b8ff" stroke="#63b8ff" points="414.22,-77.8 424.78,-76.93 415.98,-71.02 414.22,-77.8"/>
</a>
</g>
</g>
<!-- Node5 -->
<g id="Node000005" class="node">
<title>Node5</title>
<g id="a_Node000005"><a xlink:href="../../d9/db8/log_8cpp.html" target="_top" xlink:title="The definitions (log) in the application module.">
<polygon fill="white" stroke="#666666" points="740,-35.5 610,-35.5 610,-5.5 740,-5.5 740,-35.5"/>
<text text-anchor="start" x="618" y="-23.5" font-family="Helvetica,sans-Serif" font-size="10.00">application/core/source</text>
<text text-anchor="middle" x="675" y="-12.5" font-family="Helvetica,sans-Serif" font-size="10.00">/log.cpp</text>
</a>
</g>
</g>
<!-- Node3&#45;&gt;Node5 -->
<g id="edge4_Node000003_Node000005" class="edge">
<title>Node3&#45;&gt;Node5</title>
<g id="a_edge4_Node000003_Node000005"><a xlink:title=" ">
<path fill="none" stroke="#63b8ff" d="M528.16,-73.57C561.31,-61.81 604.46,-46.51 635.4,-35.54"/>
<polygon fill="#63b8ff" stroke="#63b8ff" points="526.92,-70.29 518.66,-76.94 529.26,-76.89 526.92,-70.29"/>
</a>
</g>
</g>
<!-- Node3&#45;&gt;Node6 -->
<g id="edge5_Node000003_Node000006" class="edge">
<title>Node3&#45;&gt;Node6</title>
<g id="a_edge5_Node000003_Node000006"><a xlink:title=" ">
<path fill="none" stroke="#63b8ff" d="M402.54,-82.23C333.35,-73.71 228.83,-59.38 139,-41 131.32,-39.43 123.25,-37.55 115.38,-35.58"/>
<polygon fill="#63b8ff" stroke="#63b8ff" points="402.13,-85.71 412.48,-83.45 402.98,-78.76 402.13,-85.71"/>
</a>
</g>
</g>
<!-- Node7 -->
<g id="Node000007" class="node">
<title>Node7</title>
<g id="a_Node000007"><a xlink:href="../../dd/dc2/view_8cpp.html" target="_top" xlink:title="The definitions (view) in the application module.">
<polygon fill="white" stroke="#666666" points="426,-35.5 296,-35.5 296,-5.5 426,-5.5 426,-35.5"/>
<text text-anchor="start" x="304" y="-23.5" font-family="Helvetica,sans-Serif" font-size="10.00">application/core/source</text>
<text text-anchor="middle" x="361" y="-12.5" font-family="Helvetica,sans-Serif" font-size="10.00">/view.cpp</text>
</a>
</g>
</g>
<!-- Node3&#45;&gt;Node7 -->
<g id="edge6_Node000003_Node000007" class="edge">
<title>Node3&#45;&gt;Node7</title>
<g id="a_edge6_Node000003_Node000007"><a xlink:title=" ">
<path fill="none" stroke="#63b8ff" d="M446.27,-71.72C426.79,-60.25 402.51,-45.95 384.84,-35.54"/>
<polygon fill="#63b8ff" stroke="#63b8ff" points="444.73,-74.88 455.12,-76.94 448.28,-68.84 444.73,-74.88"/>
</a>
</g>
</g>
<!-- Node8 -->
<g id="Node000008" class="node">
<title>Node8</title>
<g id="a_Node000008"><a xlink:href="../../d8/d64/apply__algorithm_8cpp.html" target="_top" xlink:title="The definitions (apply_algorithm) in the application module.">
<polygon fill="white" stroke="#666666" points="913.5,-35.5 758.5,-35.5 758.5,-5.5 913.5,-5.5 913.5,-35.5"/>
<text text-anchor="start" x="766.5" y="-23.5" font-family="Helvetica,sans-Serif" font-size="10.00">application/example</text>
<text text-anchor="middle" x="836" y="-12.5" font-family="Helvetica,sans-Serif" font-size="10.00">/source/apply_algorithm.cpp</text>
</a>
</g>
</g>
<!-- Node3&#45;&gt;Node8 -->
<g id="edge7_Node000003_Node000008" class="edge">
<title>Node3&#45;&gt;Node8</title>
<g id="a_edge7_Node000003_Node000008"><a xlink:title=" ">
<path fill="none" stroke="#63b8ff" d="M555.66,-76.88C632.08,-62.79 739.46,-42.95 749,-41 757.34,-39.29 766.11,-37.42 774.75,-35.53"/>
<polygon fill="#63b8ff" stroke="#63b8ff" points="554.77,-73.48 545.57,-78.74 556.04,-80.37 554.77,-73.48"/>
</a>
</g>
</g>
<!-- Node9 -->
<g id="Node000009" class="node">
<title>Node9</title>
<g id="a_Node000009"><a xlink:href="../../d1/d3d/apply__data__structure_8cpp.html" target="_top" xlink:title="The definitions (apply_data_structure) in the application module.">
<polygon fill="white" stroke="#666666" points="1110,-35.5 932,-35.5 932,-5.5 1110,-5.5 1110,-35.5"/>
<text text-anchor="start" x="940" y="-23.5" font-family="Helvetica,sans-Serif" font-size="10.00">application/example</text>
<text text-anchor="middle" x="1021" y="-12.5" font-family="Helvetica,sans-Serif" font-size="10.00">/source/apply_data_structure.cpp</text>
</a>
</g>
</g>
<!-- Node3&#45;&gt;Node9 -->
<g id="edge8_Node000003_Node000009" class="edge">
<title>Node3&#45;&gt;Node9</title>
<g id="a_edge8_Node000003_Node000009"><a xlink:title=" ">
<path fill="none" stroke="#63b8ff" d="M555.61,-77C719.45,-54.51 763.61,-64.59 923,-41 933.47,-39.45 944.51,-37.53 955.26,-35.51"/>
<polygon fill="#63b8ff" stroke="#63b8ff" points="555.1,-73.54 545.68,-78.39 556.06,-80.47 555.1,-73.54"/>
</a>
</g>
</g>
<!-- Node10 -->
<g id="Node000010" class="node">
<title>Node10</title>
<g id="a_Node000010"><a xlink:href="../../de/d6b/apply__design__pattern_8cpp.html" target="_top" xlink:title="The definitions (apply_design_pattern) in the application module.">
<polygon fill="white" stroke="#666666" points="1247.5,-41 1128.5,-41 1128.5,0 1247.5,0 1247.5,-41"/>
<text text-anchor="start" x="1136.5" y="-29" font-family="Helvetica,sans-Serif" font-size="10.00">application/example</text>
<text text-anchor="start" x="1136.5" y="-18" font-family="Helvetica,sans-Serif" font-size="10.00">/source/apply_design</text>
<text text-anchor="middle" x="1188" y="-7" font-family="Helvetica,sans-Serif" font-size="10.00">_pattern.cpp</text>
</a>
</g>
</g>
<!-- Node3&#45;&gt;Node10 -->
<g id="edge9_Node000003_Node000010" class="edge">
<title>Node3&#45;&gt;Node10</title>
<g id="a_edge9_Node000003_Node000010"><a xlink:title=" ">
<path fill="none" stroke="#63b8ff" d="M555.79,-77.03C806.08,-47.16 874.69,-82.83 1119,-41 1122.07,-40.47 1125.19,-39.87 1128.34,-39.2"/>
<polygon fill="#63b8ff" stroke="#63b8ff" points="555.16,-73.58 545.66,-78.26 556.01,-80.53 555.16,-73.58"/>
</a>
</g>
</g>
<!-- Node11 -->
<g id="Node000011" class="node">
<title>Node11</title>
<g id="a_Node000011"><a xlink:href="../../d1/dee/apply__numeric_8cpp.html" target="_top" xlink:title="The definitions (apply_numeric) in the application module.">
<polygon fill="white" stroke="#666666" points="591.5,-35.5 444.5,-35.5 444.5,-5.5 591.5,-5.5 591.5,-35.5"/>
<text text-anchor="start" x="452.5" y="-23.5" font-family="Helvetica,sans-Serif" font-size="10.00">application/example</text>
<text text-anchor="middle" x="518" y="-12.5" font-family="Helvetica,sans-Serif" font-size="10.00">/source/apply_numeric.cpp</text>
</a>
</g>
</g>
<!-- Node3&#45;&gt;Node11 -->
<g id="edge10_Node000003_Node000011" class="edge">
<title>Node3&#45;&gt;Node11</title>
<g id="a_edge10_Node000003_Node000011"><a xlink:title=" ">
<path fill="none" stroke="#63b8ff" d="M491.87,-68.06C497.9,-57.32 504.89,-44.86 510.12,-35.54"/>
<polygon fill="#63b8ff" stroke="#63b8ff" points="488.73,-66.5 486.89,-76.94 494.84,-69.93 488.73,-66.5"/>
</a>
</g>
</g>
<!-- Node12&#45;&gt;Node4 -->
<g id="edge12_Node000012_Node000004" class="edge">
<title>Node12&#45;&gt;Node4</title>
<g id="a_edge12_Node000012_Node000004"><a xlink:title=" ">
<path fill="none" stroke="#63b8ff" d="M238.46,-68.06C232.58,-57.32 225.78,-44.86 220.68,-35.54"/>
<polygon fill="#63b8ff" stroke="#63b8ff" points="235.44,-69.84 243.31,-76.94 241.58,-66.48 235.44,-69.84"/>
</a>
</g>
</g>
<!-- Node12&#45;&gt;Node6 -->
<g id="edge13_Node000012_Node000006" class="edge">
<title>Node12&#45;&gt;Node6</title>
<g id="a_edge13_Node000012_Node000006"><a xlink:title=" ">
<path fill="none" stroke="#63b8ff" d="M203.94,-73.42C172.54,-61.68 131.81,-46.47 102.58,-35.54"/>
<polygon fill="#63b8ff" stroke="#63b8ff" points="202.77,-76.71 213.36,-76.94 205.22,-70.16 202.77,-76.71"/>
</a>
</g>
</g>
<!-- Node12&#45;&gt;Node7 -->
<g id="edge14_Node000012_Node000007" class="edge">
<title>Node12&#45;&gt;Node7</title>
<g id="a_edge14_Node000012_Node000007"><a xlink:title=" ">
<path fill="none" stroke="#63b8ff" d="M281.76,-71.57C299.87,-60.12 322.38,-45.9 338.77,-35.54"/>
<polygon fill="#63b8ff" stroke="#63b8ff" points="279.84,-68.64 273.26,-76.94 283.58,-74.55 279.84,-68.64"/>
</a>
</g>
</g>
</g>
</svg>
