<?xml version="1.0" encoding="UTF-8" standalone="no"?>
<!DOCTYPE svg PUBLIC "-//W3C//DTD SVG 1.1//EN"
 "http://www.w3.org/Graphics/SVG/1.1/DTD/svg11.dtd">
<!-- Generated by graphviz version 2.43.0 (0)
 -->
<!-- Title: design_pattern::structural::bridge::output Pages: 1 -->
<svg width="359pt" height="108pt"
 viewBox="0.00 0.00 359.00 108.00" xmlns="http://www.w3.org/2000/svg" xmlns:xlink="http://www.w3.org/1999/xlink">
<g id="graph0" class="graph" transform="scale(1 1) rotate(0) translate(4 104)">
<title>design_pattern::structural::bridge::output</title>
<!-- Node1 -->
<g id="Node000001" class="node">
<title>Node1</title>
<g id="a_Node000001"><a xlink:title="Output stream for the bridge pattern. Need to be cleared manually.">
<polygon fill="#999999" stroke="#666666" points="351,-64.5 209,-64.5 209,-34.5 351,-34.5 351,-64.5"/>
<text text-anchor="start" x="217" y="-52.5" font-family="Helvetica,sans-Serif" font-size="10.00">design_pattern::structural</text>
<text text-anchor="middle" x="280" y="-41.5" font-family="Helvetica,sans-Serif" font-size="10.00">::bridge::output</text>
</a>
</g>
</g>
<!-- Node2 -->
<g id="Node000002" class="node">
<title>Node2</title>
<g id="a_Node000002"><a xlink:href="../../d5/d81/classdesign__pattern_1_1structural_1_1bridge_1_1ConcreteImplementorA.html#a881105b4608e6681bb11c9e245a2da69" target="_top" xlink:title="Implemented action.">
<polygon fill="white" stroke="#666666" points="173,-100 0,-100 0,-59 173,-59 173,-100"/>
<text text-anchor="start" x="8" y="-88" font-family="Helvetica,sans-Serif" font-size="10.00">design_pattern::structural</text>
<text text-anchor="start" x="8" y="-77" font-family="Helvetica,sans-Serif" font-size="10.00">::bridge::ConcreteImplementorA</text>
<text text-anchor="middle" x="86.5" y="-66" font-family="Helvetica,sans-Serif" font-size="10.00">::action</text>
</a>
</g>
</g>
<!-- Node1&#45;&gt;Node2 -->
<g id="edge1_Node000001_Node000002" class="edge">
<title>Node1&#45;&gt;Node2</title>
<g id="a_edge1_Node000001_Node000002"><a xlink:title=" ">
<path fill="none" stroke="#63b8ff" d="M198.85,-62.06C190.31,-63.39 181.6,-64.76 173,-66.11"/>
<polygon fill="#63b8ff" stroke="#63b8ff" points="199.44,-65.51 208.78,-60.5 198.36,-58.59 199.44,-65.51"/>
</a>
</g>
</g>
<!-- Node3 -->
<g id="Node000003" class="node">
<title>Node3</title>
<g id="a_Node000003"><a xlink:href="../../d7/dbd/classdesign__pattern_1_1structural_1_1bridge_1_1ConcreteImplementorB.html#acc373b71f29792c08d3dbf4562d3da3e" target="_top" xlink:title="Implemented action.">
<polygon fill="white" stroke="#666666" points="173,-41 0,-41 0,0 173,0 173,-41"/>
<text text-anchor="start" x="8" y="-29" font-family="Helvetica,sans-Serif" font-size="10.00">design_pattern::structural</text>
<text text-anchor="start" x="8" y="-18" font-family="Helvetica,sans-Serif" font-size="10.00">::bridge::ConcreteImplementorB</text>
<text text-anchor="middle" x="86.5" y="-7" font-family="Helvetica,sans-Serif" font-size="10.00">::action</text>
</a>
</g>
</g>
<!-- Node1&#45;&gt;Node3 -->
<g id="edge2_Node000001_Node000003" class="edge">
<title>Node1&#45;&gt;Node3</title>
<g id="a_edge2_Node000001_Node000003"><a xlink:title=" ">
<path fill="none" stroke="#63b8ff" d="M198.85,-37.36C190.31,-36.07 181.6,-34.75 173,-33.45"/>
<polygon fill="#63b8ff" stroke="#63b8ff" points="198.37,-40.83 208.78,-38.87 199.42,-33.91 198.37,-40.83"/>
</a>
</g>
</g>
</g>
</svg>
