<?xml version="1.0" encoding="UTF-8" standalone="no"?>
<!DOCTYPE svg PUBLIC "-//W3C//DTD SVG 1.1//EN"
 "http://www.w3.org/Graphics/SVG/1.1/DTD/svg11.dtd">
<!-- Generated by graphviz version 2.43.0 (0)
 -->
<!-- Title: design_pattern::behavioral::mediator::ConcreteColleague Pages: 1 -->
<svg width="708pt" height="86pt"
 viewBox="0.00 0.00 708.00 86.00" xmlns="http://www.w3.org/2000/svg" xmlns:xlink="http://www.w3.org/1999/xlink">
<g id="graph0" class="graph" transform="scale(1 1) rotate(0) translate(4 82)">
<title>design_pattern::behavioral::mediator::ConcreteColleague</title>
<!-- Node1 -->
<g id="Node000001" class="node">
<title>Node1</title>
<g id="a_Node000001"><a xlink:title="The concrete colleague.">
<polygon fill="#999999" stroke="#666666" points="700,-54 535,-54 535,-24 700,-24 700,-54"/>
<text text-anchor="start" x="543" y="-42" font-family="Helvetica,sans-Serif" font-size="10.00">design_pattern::behavioral</text>
<text text-anchor="middle" x="617.5" y="-31" font-family="Helvetica,sans-Serif" font-size="10.00">::mediator::ConcreteColleague</text>
</a>
</g>
</g>
<!-- Node2 -->
<g id="Node000002" class="node">
<title>Node2</title>
<g id="a_Node000002"><a xlink:href="../../d5/d5b/classdesign__pattern_1_1behavioral_1_1mediator_1_1Colleague.html" target="_top" xlink:title="The colleague communicates with its mediator. Whenever it would have otherwise communicated with anot...">
<polygon fill="white" stroke="#666666" points="480,-78 333,-78 333,-48 480,-48 480,-78"/>
<text text-anchor="start" x="341" y="-66" font-family="Helvetica,sans-Serif" font-size="10.00">design_pattern::behavioral</text>
<text text-anchor="middle" x="406.5" y="-55" font-family="Helvetica,sans-Serif" font-size="10.00">::mediator::Colleague</text>
</a>
</g>
</g>
<!-- Node2&#45;&gt;Node1 -->
<g id="edge1_Node000001_Node000002" class="edge">
<title>Node2&#45;&gt;Node1</title>
<g id="a_edge1_Node000001_Node000002"><a xlink:title=" ">
<path fill="none" stroke="#63b8ff" d="M490.09,-53.52C504.8,-51.83 520.12,-50.07 534.81,-48.38"/>
<polygon fill="#63b8ff" stroke="#63b8ff" points="489.55,-50.06 480.01,-54.67 490.35,-57.01 489.55,-50.06"/>
</a>
</g>
</g>
<!-- Node3 -->
<g id="Node000003" class="node">
<title>Node3</title>
<g id="a_Node000003"><a target="_parent" xlink:href="https://gcc.gnu.org/onlinedocs/gcc-12.3.0/libstdc++/api/a07595.html" xlink:title=" ">
<polygon fill="white" stroke="#666666" points="498,-30 315,-30 315,0 498,0 498,-30"/>
<text text-anchor="start" x="323" y="-18" font-family="Helvetica,sans-Serif" font-size="10.00">std::enable_shared</text>
<text text-anchor="middle" x="406.5" y="-7" font-family="Helvetica,sans-Serif" font-size="10.00">_from_this&lt; ConcreteColleague &gt;</text>
</a>
</g>
</g>
<!-- Node3&#45;&gt;Node1 -->
<g id="edge2_Node000001_Node000003" class="edge">
<title>Node3&#45;&gt;Node1</title>
<g id="a_edge2_Node000001_Node000003"><a xlink:title=" ">
<path fill="none" stroke="#63b8ff" d="M508.24,-26.57C517.11,-27.59 526.01,-28.61 534.7,-29.61"/>
<polygon fill="#63b8ff" stroke="#63b8ff" points="508.59,-23.09 498.26,-25.42 507.79,-30.04 508.59,-23.09"/>
</a>
</g>
</g>
<!-- Node4 -->
<g id="Node000004" class="node">
<title>Node4</title>
<g id="a_Node000004"><a target="_parent" xlink:href="https://gcc.gnu.org/onlinedocs/gcc-12.3.0/libstdc++/api/a07595.html" xlink:title=" ">
<polygon fill="white" stroke="#666666" points="161,-30 0,-30 0,0 161,0 161,-30"/>
<text text-anchor="start" x="8" y="-18" font-family="Helvetica,sans-Serif" font-size="10.00">std::enable_shared</text>
<text text-anchor="middle" x="80.5" y="-7" font-family="Helvetica,sans-Serif" font-size="10.00">_from_this&lt; typename _Tp &gt;</text>
</a>
</g>
</g>
<!-- Node4&#45;&gt;Node3 -->
<g id="edge3_Node000003_Node000004" class="edge">
<title>Node4&#45;&gt;Node3</title>
<g id="a_edge3_Node000003_Node000004"><a xlink:title=" ">
<path fill="none" stroke="orange" stroke-dasharray="5,2" d="M171.45,-15C216.2,-15 270.15,-15 314.97,-15"/>
<polygon fill="orange" stroke="orange" points="171.17,-11.5 161.17,-15 171.17,-18.5 171.17,-11.5"/>
</a>
</g>
<text text-anchor="middle" x="238" y="-18" font-family="Helvetica,sans-Serif" font-size="10.00" fill="grey"> &lt; ConcreteColleague &gt;</text>
</g>
</g>
</svg>
