<?xml version="1.0" encoding="UTF-8" standalone="no"?>
<!DOCTYPE svg PUBLIC "-//W3C//DTD SVG 1.1//EN"
 "http://www.w3.org/Graphics/SVG/1.1/DTD/svg11.dtd">
<!-- Generated by graphviz version 2.43.0 (0)
 -->
<!-- Title: design_pattern::creational::builder::ConcreteBuilderX Pages: 1 -->
<svg width="155pt" height="182pt"
 viewBox="0.00 0.00 155.00 182.00" xmlns="http://www.w3.org/2000/svg" xmlns:xlink="http://www.w3.org/1999/xlink">
<g id="graph0" class="graph" transform="scale(1 1) rotate(0) translate(4 178)">
<title>design_pattern::creational::builder::ConcreteBuilderX</title>
<!-- Node1 -->
<g id="Node000001" class="node">
<title>Node1</title>
<g id="a_Node000001"><a xlink:title="The concrete builder.">
<polygon fill="#999999" stroke="#666666" points="147,-30 0,-30 0,0 147,0 147,-30"/>
<text text-anchor="start" x="8" y="-18" font-family="Helvetica,sans-Serif" font-size="10.00">design_pattern::creational</text>
<text text-anchor="middle" x="73.5" y="-7" font-family="Helvetica,sans-Serif" font-size="10.00">::builder::ConcreteBuilderX</text>
</a>
</g>
</g>
<!-- Node2 -->
<g id="Node000002" class="node">
<title>Node2</title>
<g id="a_Node000002"><a xlink:href="../../d0/d6a/classdesign__pattern_1_1creational_1_1builder_1_1Builder.html" target="_top" xlink:title="The builder for creating products.">
<polygon fill="white" stroke="#666666" points="145.5,-97 1.5,-97 1.5,-67 145.5,-67 145.5,-97"/>
<text text-anchor="start" x="9.5" y="-85" font-family="Helvetica,sans-Serif" font-size="10.00">design_pattern::creational</text>
<text text-anchor="middle" x="73.5" y="-74" font-family="Helvetica,sans-Serif" font-size="10.00">::builder::Builder</text>
</a>
</g>
</g>
<!-- Node2&#45;&gt;Node1 -->
<g id="edge1_Node000001_Node000002" class="edge">
<title>Node2&#45;&gt;Node1</title>
<g id="a_edge1_Node000001_Node000002"><a xlink:title=" ">
<path fill="none" stroke="#63b8ff" d="M73.5,-56.61C73.5,-47.65 73.5,-37.82 73.5,-30.08"/>
<polygon fill="#63b8ff" stroke="#63b8ff" points="70,-56.9 73.5,-66.9 77,-56.9 70,-56.9"/>
</a>
</g>
</g>
<!-- Node3 -->
<g id="Node000003" class="node">
<title>Node3</title>
<g id="a_Node000003"><a xlink:href="../../d9/dad/classdesign__pattern_1_1creational_1_1builder_1_1Product.html" target="_top" xlink:title="Product properties.">
<polygon fill="white" stroke="#666666" points="145.5,-174 1.5,-174 1.5,-144 145.5,-144 145.5,-174"/>
<text text-anchor="start" x="9.5" y="-162" font-family="Helvetica,sans-Serif" font-size="10.00">design_pattern::creational</text>
<text text-anchor="middle" x="73.5" y="-151" font-family="Helvetica,sans-Serif" font-size="10.00">::builder::Product</text>
</a>
</g>
</g>
<!-- Node3&#45;&gt;Node2 -->
<g id="edge2_Node000002_Node000003" class="edge">
<title>Node3&#45;&gt;Node2</title>
<g id="a_edge2_Node000002_Node000003"><a xlink:title=" ">
<path fill="none" stroke="#9a32cd" stroke-dasharray="5,2" d="M73.5,-133.54C73.5,-121.45 73.5,-107.29 73.5,-97.04"/>
<polygon fill="#9a32cd" stroke="#9a32cd" points="70,-133.89 73.5,-143.89 77,-133.89 70,-133.89"/>
</a>
</g>
<text text-anchor="middle" x="93.5" y="-118" font-family="Helvetica,sans-Serif" font-size="10.00" fill="grey"> product</text>
</g>
</g>
</svg>
