<?xml version="1.0" encoding="UTF-8" standalone="no"?>
<!DOCTYPE svg PUBLIC "-//W3C//DTD SVG 1.1//EN"
 "http://www.w3.org/Graphics/SVG/1.1/DTD/svg11.dtd">
<!-- Generated by graphviz version 2.43.0 (0)
 -->
<!-- Title: application::command::Command Pages: 1 -->
<svg width="1864pt" height="488pt"
 viewBox="0.00 0.00 1864.00 487.50" xmlns="http://www.w3.org/2000/svg" xmlns:xlink="http://www.w3.org/1999/xlink">
<g id="graph0" class="graph" transform="scale(1 1) rotate(0) translate(4 483.5)">
<title>application::command::Command</title>
<!-- Node1 -->
<g id="Node000001" class="node">
<title>Node1</title>
<g id="a_Node000001"><a xlink:title="Execute the command line.">
<polygon fill="#999999" stroke="#666666" points="1856,-240 1731,-240 1731,-210 1856,-210 1856,-240"/>
<text text-anchor="start" x="1739" y="-228" font-family="Helvetica,sans-Serif" font-size="10.00">application::command</text>
<text text-anchor="middle" x="1793.5" y="-217" font-family="Helvetica,sans-Serif" font-size="10.00">::Command</text>
</a>
</g>
</g>
<!-- Node2 -->
<g id="Node000002" class="node">
<title>Node2</title>
<g id="a_Node000002"><a target="_parent" xlink:href="https://gcc.gnu.org/onlinedocs/gcc-12.3.0/libstdc++/api/a07923.html" xlink:title=" ">
<polygon fill="white" stroke="#666666" points="1573,-386.5 1504,-386.5 1504,-367.5 1573,-367.5 1573,-386.5"/>
<text text-anchor="middle" x="1538.5" y="-374.5" font-family="Helvetica,sans-Serif" font-size="10.00">std::mutex</text>
</a>
</g>
</g>
<!-- Node2&#45;&gt;Node1 -->
<g id="edge1_Node000001_Node000002" class="edge">
<title>Node2&#45;&gt;Node1</title>
<g id="a_edge1_Node000001_Node000002"><a xlink:title=" ">
<path fill="none" stroke="#9a32cd" stroke-dasharray="5,2" d="M1583.14,-380.48C1620.53,-381.31 1674.31,-377.2 1713,-352 1754.63,-324.88 1778.4,-267.54 1787.78,-240.16"/>
<polygon fill="#9a32cd" stroke="#9a32cd" points="1583.17,-376.98 1573.06,-380.13 1582.93,-383.97 1583.17,-376.98"/>
</a>
</g>
<text text-anchor="middle" x="1673.5" y="-380" font-family="Helvetica,sans-Serif" font-size="10.00" fill="grey"> mtx</text>
</g>
<!-- Node3 -->
<g id="Node000003" class="node">
<title>Node3</title>
<g id="a_Node000003"><a target="_parent" xlink:href="https://gcc.gnu.org/onlinedocs/gcc-12.3.0/libstdc++/api/a02343.html" xlink:title=" ">
<polygon fill="white" stroke="#666666" points="1602.5,-349.5 1474.5,-349.5 1474.5,-330.5 1602.5,-330.5 1602.5,-349.5"/>
<text text-anchor="middle" x="1538.5" y="-337.5" font-family="Helvetica,sans-Serif" font-size="10.00">std::condition_variable</text>
</a>
</g>
</g>
<!-- Node3&#45;&gt;Node1 -->
<g id="edge2_Node000001_Node000003" class="edge">
<title>Node3&#45;&gt;Node1</title>
<g id="a_edge2_Node000001_Node000003"><a xlink:title=" ">
<path fill="none" stroke="#9a32cd" stroke-dasharray="5,2" d="M1612.87,-340.05C1645.2,-337.37 1682.65,-330.39 1713,-314 1745.27,-296.57 1770.92,-260.7 1783.68,-240.22"/>
<polygon fill="#9a32cd" stroke="#9a32cd" points="1612.3,-336.59 1602.57,-340.78 1612.79,-343.57 1612.3,-336.59"/>
</a>
</g>
<text text-anchor="middle" x="1673.5" y="-340" font-family="Helvetica,sans-Serif" font-size="10.00" fill="grey"> cv</text>
</g>
<!-- Node4 -->
<g id="Node000004" class="node">
<title>Node4</title>
<g id="a_Node000004"><a target="_parent" xlink:href="https://gcc.gnu.org/onlinedocs/gcc-12.3.0/libstdc++/api/a01975.html" xlink:title=" ">
<polygon fill="white" stroke="#666666" points="1596,-312.5 1481,-312.5 1481,-293.5 1596,-293.5 1596,-312.5"/>
<text text-anchor="middle" x="1538.5" y="-300.5" font-family="Helvetica,sans-Serif" font-size="10.00">std::atomic&lt; bool &gt;</text>
</a>
</g>
</g>
<!-- Node4&#45;&gt;Node1 -->
<g id="edge3_Node000001_Node000004" class="edge">
<title>Node4&#45;&gt;Node1</title>
<g id="a_edge3_Node000001_Node000004"><a xlink:title=" ">
<path fill="none" stroke="#9a32cd" stroke-dasharray="5,2" d="M1606.3,-302.07C1639.34,-299.75 1679.26,-294.08 1713,-281 1737.24,-271.6 1761.09,-253.24 1776.24,-240.11"/>
<polygon fill="#9a32cd" stroke="#9a32cd" points="1606.04,-298.58 1596.28,-302.69 1606.48,-305.57 1606.04,-298.58"/>
</a>
</g>
<text text-anchor="middle" x="1673.5" y="-302" font-family="Helvetica,sans-Serif" font-size="10.00" fill="grey"> isParsed</text>
</g>
<!-- Node5 -->
<g id="Node000005" class="node">
<title>Node5</title>
<g id="a_Node000005"><a xlink:href="../../d8/dae/classutility_1_1argument_1_1Argument.html" target="_top" xlink:title="Parse arguments.">
<polygon fill="white" stroke="#666666" points="1590.5,-275 1486.5,-275 1486.5,-245 1590.5,-245 1590.5,-275"/>
<text text-anchor="start" x="1494.5" y="-263" font-family="Helvetica,sans-Serif" font-size="10.00">utility::argument::</text>
<text text-anchor="middle" x="1538.5" y="-252" font-family="Helvetica,sans-Serif" font-size="10.00">Argument</text>
</a>
</g>
</g>
<!-- Node5&#45;&gt;Node1 -->
<g id="edge4_Node000001_Node000005" class="edge">
<title>Node5&#45;&gt;Node1</title>
<g id="a_edge4_Node000001_Node000005"><a xlink:title=" ">
<path fill="none" stroke="#9a32cd" stroke-dasharray="5,2" d="M1582.4,-241.09C1598.28,-235.03 1616.66,-229.08 1634,-226 1665.56,-220.39 1701.22,-219.68 1730.72,-220.57"/>
<polygon fill="#9a32cd" stroke="#9a32cd" points="1580.87,-237.93 1572.85,-244.86 1583.44,-244.44 1580.87,-237.93"/>
</a>
</g>
<text text-anchor="middle" x="1673.5" y="-273" font-family="Helvetica,sans-Serif" font-size="10.00" fill="grey"> mainCLI</text>
<text text-anchor="middle" x="1673.5" y="-262" font-family="Helvetica,sans-Serif" font-size="10.00" fill="grey">subCLIAppAlgo</text>
<text text-anchor="middle" x="1673.5" y="-251" font-family="Helvetica,sans-Serif" font-size="10.00" fill="grey">subCLIAppDp</text>
<text text-anchor="middle" x="1673.5" y="-240" font-family="Helvetica,sans-Serif" font-size="10.00" fill="grey">subCLIAppDs</text>
<text text-anchor="middle" x="1673.5" y="-229" font-family="Helvetica,sans-Serif" font-size="10.00" fill="grey">subCLIAppNum</text>
</g>
<!-- Node6 -->
<g id="Node000006" class="node">
<title>Node6</title>
<g id="a_Node000006"><a target="_parent" xlink:href="https://gcc.gnu.org/onlinedocs/gcc-12.3.0/libstdc++/api/a08619.html" xlink:title=" ">
<polygon fill="white" stroke="#666666" points="1281,-464 1153,-464 1153,-434 1281,-434 1281,-464"/>
<text text-anchor="start" x="1161" y="-452" font-family="Helvetica,sans-Serif" font-size="10.00">std::list&lt; utility</text>
<text text-anchor="middle" x="1217" y="-441" font-family="Helvetica,sans-Serif" font-size="10.00">::argument::Register &gt;</text>
</a>
</g>
</g>
<!-- Node6&#45;&gt;Node5 -->
<g id="edge5_Node000005_Node000006" class="edge">
<title>Node6&#45;&gt;Node5</title>
<g id="a_edge5_Node000005_Node000006"><a xlink:title=" ">
<path fill="none" stroke="#9a32cd" stroke-dasharray="5,2" d="M1291.29,-451.16C1341.14,-448.46 1404.75,-436.16 1443,-395 1476.72,-358.71 1428.76,-322.61 1461,-285 1467.64,-277.26 1476.71,-271.89 1486.29,-268.19"/>
<polygon fill="#9a32cd" stroke="#9a32cd" points="1291.04,-447.66 1281.2,-451.58 1291.33,-454.66 1291.04,-447.66"/>
</a>
</g>
<text text-anchor="middle" x="1377.5" y="-463" font-family="Helvetica,sans-Serif" font-size="10.00" fill="grey"> optionalArguments</text>
<text text-anchor="middle" x="1377.5" y="-452" font-family="Helvetica,sans-Serif" font-size="10.00" fill="grey">positionalArguments</text>
</g>
<!-- Node7 -->
<g id="Node000007" class="node">
<title>Node7</title>
<g id="a_Node000007"><a target="_parent" xlink:href="https://gcc.gnu.org/onlinedocs/gcc-12.3.0/libstdc++/api/a08611.html" xlink:title=" ">
<polygon fill="white" stroke="#666666" points="594,-451 445,-451 445,-421 594,-421 594,-451"/>
<text text-anchor="start" x="453" y="-439" font-family="Helvetica,sans-Serif" font-size="10.00">std::_List_base&lt; typename</text>
<text text-anchor="middle" x="519.5" y="-428" font-family="Helvetica,sans-Serif" font-size="10.00"> _Tp, typename _Alloc &gt;</text>
</a>
</g>
</g>
<!-- Node7&#45;&gt;Node6 -->
<g id="edge6_Node000006_Node000007" class="edge">
<title>Node7&#45;&gt;Node6</title>
<g id="a_edge6_Node000006_Node000007"><a xlink:title=" ">
<path fill="none" stroke="darkgreen" d="M604.27,-449.98C720.72,-467.35 937.98,-492.25 1122,-471 1134.82,-469.52 1148.43,-466.94 1161.2,-464.06"/>
<polygon fill="darkgreen" stroke="darkgreen" points="604.76,-446.52 594.35,-448.48 603.71,-453.44 604.76,-446.52"/>
</a>
</g>
</g>
<!-- Node8 -->
<g id="Node000008" class="node">
<title>Node8</title>
<g id="a_Node000008"><a target="_parent" xlink:href="https://gcc.gnu.org/onlinedocs/gcc-12.3.0/libstdc++/api/a08619.html" xlink:title=" ">
<polygon fill="white" stroke="#666666" points="912.5,-451 776.5,-451 776.5,-421 912.5,-421 912.5,-451"/>
<text text-anchor="start" x="784.5" y="-439" font-family="Helvetica,sans-Serif" font-size="10.00">std::list&lt; typename</text>
<text text-anchor="middle" x="844.5" y="-428" font-family="Helvetica,sans-Serif" font-size="10.00"> _Tp, typename _Alloc &gt;</text>
</a>
</g>
</g>
<!-- Node7&#45;&gt;Node8 -->
<g id="edge8_Node000008_Node000007" class="edge">
<title>Node7&#45;&gt;Node8</title>
<g id="a_edge8_Node000008_Node000007"><a xlink:title=" ">
<path fill="none" stroke="darkgreen" d="M604.36,-436C657.94,-436 726.49,-436 776.44,-436"/>
<polygon fill="darkgreen" stroke="darkgreen" points="604.2,-432.5 594.2,-436 604.2,-439.5 604.2,-432.5"/>
</a>
</g>
</g>
<!-- Node11 -->
<g id="Node000011" class="node">
<title>Node11</title>
<g id="a_Node000011"><a target="_parent" xlink:href="https://gcc.gnu.org/onlinedocs/gcc-12.3.0/libstdc++/api/a08619.html" xlink:title=" ">
<polygon fill="white" stroke="#666666" points="1294,-349.5 1140,-349.5 1140,-308.5 1294,-308.5 1294,-349.5"/>
<text text-anchor="start" x="1148" y="-337.5" font-family="Helvetica,sans-Serif" font-size="10.00">std::list&lt; std::reference</text>
<text text-anchor="start" x="1148" y="-326.5" font-family="Helvetica,sans-Serif" font-size="10.00">_wrapper&lt; utility::argument</text>
<text text-anchor="middle" x="1217" y="-315.5" font-family="Helvetica,sans-Serif" font-size="10.00">::Argument &gt; &gt;</text>
</a>
</g>
</g>
<!-- Node7&#45;&gt;Node11 -->
<g id="edge12_Node000011_Node000007" class="edge">
<title>Node7&#45;&gt;Node11</title>
<g id="a_edge12_Node000011_Node000007"><a xlink:title=" ">
<path fill="none" stroke="darkgreen" d="M556.86,-416.12C601.68,-392.79 680.91,-355.34 754,-340 887.48,-311.98 1047.42,-316.32 1139.81,-322.4"/>
<polygon fill="darkgreen" stroke="darkgreen" points="555.05,-413.11 547.83,-420.87 558.31,-419.31 555.05,-413.11"/>
</a>
</g>
</g>
<!-- Node8&#45;&gt;Node6 -->
<g id="edge7_Node000006_Node000008" class="edge">
<title>Node8&#45;&gt;Node6</title>
<g id="a_edge7_Node000006_Node000008"><a xlink:title=" ">
<path fill="none" stroke="orange" stroke-dasharray="5,2" d="M922.85,-438.71C991.06,-441.11 1089.22,-444.55 1152.8,-446.78"/>
<polygon fill="orange" stroke="orange" points="922.71,-435.21 912.59,-438.35 922.47,-442.2 922.71,-435.21"/>
</a>
</g>
<text text-anchor="start" x="989.5" y="-459" font-family="Helvetica,sans-Serif" font-size="10.00" fill="grey"> &lt; utility::argument</text>
<text text-anchor="middle" x="1037.5" y="-448" font-family="Helvetica,sans-Serif" font-size="10.00" fill="grey">::Register &gt;</text>
</g>
<!-- Node8&#45;&gt;Node11 -->
<g id="edge13_Node000011_Node000008" class="edge">
<title>Node8&#45;&gt;Node11</title>
<g id="a_edge13_Node000011_Node000008"><a xlink:title=" ">
<path fill="none" stroke="orange" stroke-dasharray="5,2" d="M922.34,-419.27C932.64,-417.12 943.07,-414.97 953,-413 1027.9,-398.12 1056.66,-421.53 1122,-382 1133.11,-375.28 1129.6,-366.77 1140,-359 1144.66,-355.52 1149.78,-352.39 1155.08,-349.58"/>
<polygon fill="orange" stroke="orange" points="921.59,-415.85 912.53,-421.34 923.04,-422.7 921.59,-415.85"/>
</a>
</g>
<text text-anchor="start" x="953" y="-427" font-family="Helvetica,sans-Serif" font-size="10.00" fill="grey"> &lt; std::reference_wrapper</text>
<text text-anchor="middle" x="1037.5" y="-416" font-family="Helvetica,sans-Serif" font-size="10.00" fill="grey">&lt; utility::argument::Argument &gt; &gt;</text>
</g>
<!-- Node9 -->
<g id="Node000009" class="node">
<title>Node9</title>
<g id="a_Node000009"><a target="_parent" xlink:href="https://gcc.gnu.org/onlinedocs/gcc-12.3.0/libstdc++/api/a08855.html" xlink:title=" ">
<polygon fill="white" stroke="#666666" points="1274,-408.5 1160,-408.5 1160,-367.5 1274,-367.5 1274,-408.5"/>
<text text-anchor="start" x="1168" y="-396.5" font-family="Helvetica,sans-Serif" font-size="10.00">std::unordered_map</text>
<text text-anchor="start" x="1168" y="-385.5" font-family="Helvetica,sans-Serif" font-size="10.00">&lt; std::string_view,</text>
<text text-anchor="middle" x="1217" y="-374.5" font-family="Helvetica,sans-Serif" font-size="10.00"> RegisterIter &gt;</text>
</a>
</g>
</g>
<!-- Node9&#45;&gt;Node5 -->
<g id="edge9_Node000005_Node000009" class="edge">
<title>Node9&#45;&gt;Node5</title>
<g id="a_edge9_Node000005_Node000009"><a xlink:title=" ">
<path fill="none" stroke="#9a32cd" stroke-dasharray="5,2" d="M1284.41,-384.67C1333.4,-378.96 1398.94,-364.1 1443,-326 1458.05,-312.98 1446.26,-298.37 1461,-285 1468.14,-278.52 1476.99,-273.72 1486.11,-270.16"/>
<polygon fill="#9a32cd" stroke="#9a32cd" points="1283.79,-381.22 1274.22,-385.75 1284.53,-388.18 1283.79,-381.22"/>
</a>
</g>
<text text-anchor="middle" x="1377.5" y="-383" font-family="Helvetica,sans-Serif" font-size="10.00" fill="grey"> argumentMap</text>
</g>
<!-- Node10 -->
<g id="Node000010" class="node">
<title>Node10</title>
<g id="a_Node000010"><a target="_parent" xlink:href="https://gcc.gnu.org/onlinedocs/gcc-12.3.0/libstdc++/api/a08855.html" xlink:title=" ">
<polygon fill="white" stroke="#666666" points="935,-401 754,-401 754,-349 935,-349 935,-401"/>
<text text-anchor="start" x="762" y="-389" font-family="Helvetica,sans-Serif" font-size="10.00">std::unordered_map</text>
<text text-anchor="start" x="762" y="-378" font-family="Helvetica,sans-Serif" font-size="10.00">&lt; typename _Key, typename</text>
<text text-anchor="start" x="762" y="-367" font-family="Helvetica,sans-Serif" font-size="10.00"> _Tp, typename _Hash, typename</text>
<text text-anchor="middle" x="844.5" y="-356" font-family="Helvetica,sans-Serif" font-size="10.00"> _Pred, typename _Alloc &gt;</text>
</a>
</g>
</g>
<!-- Node10&#45;&gt;Node9 -->
<g id="edge10_Node000009_Node000010" class="edge">
<title>Node10&#45;&gt;Node9</title>
<g id="a_edge10_Node000009_Node000010"><a xlink:title=" ">
<path fill="none" stroke="orange" stroke-dasharray="5,2" d="M945.29,-360.07C998.06,-354.57 1063.79,-351.51 1122,-360 1134.47,-361.82 1147.58,-364.92 1159.93,-368.42"/>
<polygon fill="orange" stroke="orange" points="944.82,-356.6 935.25,-361.16 945.57,-363.56 944.82,-356.6"/>
</a>
</g>
<text text-anchor="start" x="990" y="-374" font-family="Helvetica,sans-Serif" font-size="10.00" fill="grey"> &lt; std::string_view,</text>
<text text-anchor="middle" x="1037.5" y="-363" font-family="Helvetica,sans-Serif" font-size="10.00" fill="grey"> RegisterIter &gt;</text>
</g>
<!-- Node11&#45;&gt;Node5 -->
<g id="edge11_Node000005_Node000011" class="edge">
<title>Node11&#45;&gt;Node5</title>
<g id="a_edge11_Node000005_Node000011"><a xlink:title=" ">
<path fill="none" stroke="#9a32cd" stroke-dasharray="5,2" d="M1303.96,-313.56C1346.02,-305.66 1397.3,-295.5 1443,-285 1457.06,-281.77 1472.2,-277.93 1486.15,-274.24"/>
<polygon fill="#9a32cd" stroke="#9a32cd" points="1303.22,-310.14 1294.03,-315.41 1304.51,-317.02 1303.22,-310.14"/>
</a>
</g>
<text text-anchor="middle" x="1377.5" y="-314" font-family="Helvetica,sans-Serif" font-size="10.00" fill="grey"> subParsers</text>
</g>
<!-- Node12 -->
<g id="Node000012" class="node">
<title>Node12</title>
<g id="a_Node000012"><a target="_parent" xlink:href="https://gcc.gnu.org/onlinedocs/gcc-12.3.0/libstdc++/api/a08631.html" xlink:title=" ">
<polygon fill="white" stroke="#666666" points="1280.5,-290 1153.5,-290 1153.5,-260 1280.5,-260 1280.5,-290"/>
<text text-anchor="start" x="1161.5" y="-278" font-family="Helvetica,sans-Serif" font-size="10.00">std::map&lt; std::string</text>
<text text-anchor="middle" x="1217" y="-267" font-family="Helvetica,sans-Serif" font-size="10.00">_view, ArgumentIter &gt;</text>
</a>
</g>
</g>
<!-- Node12&#45;&gt;Node5 -->
<g id="edge14_Node000005_Node000012" class="edge">
<title>Node12&#45;&gt;Node5</title>
<g id="a_edge14_Node000005_Node000012"><a xlink:title=" ">
<path fill="none" stroke="#9a32cd" stroke-dasharray="5,2" d="M1290.87,-271.58C1350.6,-268.77 1433.64,-264.88 1486.48,-262.4"/>
<polygon fill="#9a32cd" stroke="#9a32cd" points="1290.57,-268.09 1280.74,-272.05 1290.89,-275.08 1290.57,-268.09"/>
</a>
</g>
<text text-anchor="middle" x="1377.5" y="-273" font-family="Helvetica,sans-Serif" font-size="10.00" fill="grey"> subParserMap</text>
</g>
<!-- Node13 -->
<g id="Node000013" class="node">
<title>Node13</title>
<g id="a_Node000013"><a target="_parent" xlink:href="https://gcc.gnu.org/onlinedocs/gcc-12.3.0/libstdc++/api/a08631.html" xlink:title=" ">
<polygon fill="white" stroke="#666666" points="933,-230 756,-230 756,-178 933,-178 933,-230"/>
<text text-anchor="start" x="764" y="-218" font-family="Helvetica,sans-Serif" font-size="10.00">std::map&lt; typename</text>
<text text-anchor="start" x="764" y="-207" font-family="Helvetica,sans-Serif" font-size="10.00"> _Key, typename _Tp,</text>
<text text-anchor="start" x="764" y="-196" font-family="Helvetica,sans-Serif" font-size="10.00"> typename _Compare, typename</text>
<text text-anchor="middle" x="844.5" y="-185" font-family="Helvetica,sans-Serif" font-size="10.00"> _Alloc &gt;</text>
</a>
</g>
</g>
<!-- Node13&#45;&gt;Node1 -->
<g id="edge20_Node000001_Node000013" class="edge">
<title>Node13&#45;&gt;Node1</title>
<g id="a_edge20_Node000001_Node000013"><a xlink:title=" ">
<path fill="none" stroke="#9a32cd" stroke-dasharray="5,2" d="M943.27,-203.58C1000.59,-203.36 1074.4,-203.11 1140,-203 1394.73,-202.57 1458.93,-197.71 1713,-216 1718.82,-216.42 1724.87,-216.94 1730.92,-217.53"/>
<polygon fill="#9a32cd" stroke="#9a32cd" points="943.11,-200.09 933.13,-203.62 943.14,-207.09 943.11,-200.09"/>
</a>
</g>
<text text-anchor="middle" x="1377.5" y="-205" font-family="Helvetica,sans-Serif" font-size="10.00" fill="grey"> regularTaskDispatcher</text>
</g>
<!-- Node13&#45;&gt;Node12 -->
<g id="edge15_Node000012_Node000013" class="edge">
<title>Node13&#45;&gt;Node12</title>
<g id="a_edge15_Node000012_Node000013"><a xlink:title=" ">
<path fill="none" stroke="orange" stroke-dasharray="5,2" d="M913.71,-233.73C926.57,-238.45 940.05,-242.82 953,-246 1020.25,-262.54 1099.49,-269.65 1153.29,-272.71"/>
<polygon fill="orange" stroke="orange" points="914.61,-230.33 904.02,-230.07 912.14,-236.88 914.61,-230.33"/>
</a>
</g>
<text text-anchor="start" x="990" y="-284" font-family="Helvetica,sans-Serif" font-size="10.00" fill="grey"> &lt; std::string_view,</text>
<text text-anchor="middle" x="1037.5" y="-273" font-family="Helvetica,sans-Serif" font-size="10.00" fill="grey"> ArgumentIter &gt;</text>
</g>
<!-- Node14 -->
<g id="Node000014" class="node">
<title>Node14</title>
<g id="a_Node000014"><a target="_parent" xlink:href="https://gcc.gnu.org/onlinedocs/gcc-12.3.0/libstdc++/api/a08631.html" xlink:title=" ">
<polygon fill="white" stroke="#666666" points="1276.5,-242 1157.5,-242 1157.5,-212 1276.5,-212 1276.5,-242"/>
<text text-anchor="start" x="1165.5" y="-230" font-family="Helvetica,sans-Serif" font-size="10.00">std::map&lt; std::string</text>
<text text-anchor="middle" x="1217" y="-219" font-family="Helvetica,sans-Serif" font-size="10.00">_view, bool &gt;</text>
</a>
</g>
</g>
<!-- Node13&#45;&gt;Node14 -->
<g id="edge17_Node000014_Node000013" class="edge">
<title>Node13&#45;&gt;Node14</title>
<g id="a_edge17_Node000014_Node000013"><a xlink:title=" ">
<path fill="none" stroke="orange" stroke-dasharray="5,2" d="M943.62,-210.09C1011.69,-214.32 1100.08,-219.8 1157.41,-223.36"/>
<polygon fill="orange" stroke="orange" points="943.5,-206.58 933.3,-209.45 943.07,-213.56 943.5,-206.58"/>
</a>
</g>
<text text-anchor="start" x="990" y="-234" font-family="Helvetica,sans-Serif" font-size="10.00" fill="grey"> &lt; std::string_view,</text>
<text text-anchor="middle" x="1037.5" y="-223" font-family="Helvetica,sans-Serif" font-size="10.00" fill="grey"> bool &gt;</text>
</g>
<!-- Node15 -->
<g id="Node000015" class="node">
<title>Node15</title>
<g id="a_Node000015"><a target="_parent" xlink:href="https://gcc.gnu.org/onlinedocs/gcc-12.3.0/libstdc++/api/a08631.html" xlink:title=" ">
<polygon fill="white" stroke="#666666" points="1443,-158.5 1312,-158.5 1312,-117.5 1443,-117.5 1443,-158.5"/>
<text text-anchor="start" x="1320" y="-146.5" font-family="Helvetica,sans-Serif" font-size="10.00">std::map&lt; std::basic</text>
<text text-anchor="start" x="1320" y="-135.5" font-family="Helvetica,sans-Serif" font-size="10.00">_string, void(Command</text>
<text text-anchor="middle" x="1377.5" y="-124.5" font-family="Helvetica,sans-Serif" font-size="10.00">::*)() const &gt;</text>
</a>
</g>
</g>
<!-- Node13&#45;&gt;Node15 -->
<g id="edge19_Node000015_Node000013" class="edge">
<title>Node13&#45;&gt;Node15</title>
<g id="a_edge19_Node000015_Node000013"><a xlink:title=" ">
<path fill="none" stroke="orange" stroke-dasharray="5,2" d="M885.8,-171.91C904.98,-158.64 928.95,-144.79 953,-138 1018.45,-119.51 1210.47,-127.74 1311.95,-133.73"/>
<polygon fill="orange" stroke="orange" points="883.73,-169.09 877.61,-177.74 887.79,-174.79 883.73,-169.09"/>
</a>
</g>
<text text-anchor="start" x="987" y="-163" font-family="Helvetica,sans-Serif" font-size="10.00" fill="grey"> &lt; std::basic_string,</text>
<text text-anchor="start" x="987" y="-152" font-family="Helvetica,sans-Serif" font-size="10.00" fill="grey"> void(Command::*)()</text>
<text text-anchor="middle" x="1037.5" y="-141" font-family="Helvetica,sans-Serif" font-size="10.00" fill="grey"> const &gt;</text>
</g>
<!-- Node14&#45;&gt;Node5 -->
<g id="edge16_Node000005_Node000014" class="edge">
<title>Node14&#45;&gt;Node5</title>
<g id="a_edge16_Node000005_Node000014"><a xlink:title=" ">
<path fill="none" stroke="#9a32cd" stroke-dasharray="5,2" d="M1286.91,-233.41C1331.46,-237.63 1390.68,-243.4 1443,-249 1456.96,-250.49 1472.07,-252.21 1486.02,-253.83"/>
<polygon fill="#9a32cd" stroke="#9a32cd" points="1287.06,-229.91 1276.77,-232.45 1286.4,-236.87 1287.06,-229.91"/>
</a>
</g>
<text text-anchor="middle" x="1377.5" y="-252" font-family="Helvetica,sans-Serif" font-size="10.00" fill="grey"> subParserUsed</text>
</g>
<!-- Node15&#45;&gt;Node1 -->
<g id="edge18_Node000001_Node000015" class="edge">
<title>Node15&#45;&gt;Node1</title>
<g id="a_edge18_Node000001_Node000015"><a xlink:title=" ">
<path fill="none" stroke="#9a32cd" stroke-dasharray="5,2" d="M1453.71,-134.18C1523.2,-133.18 1628.19,-138.17 1713,-170 1737.04,-179.02 1760.74,-196.91 1775.92,-209.84"/>
<polygon fill="#9a32cd" stroke="#9a32cd" points="1453.23,-130.69 1443.3,-134.38 1453.36,-137.69 1453.23,-130.69"/>
</a>
</g>
<text text-anchor="middle" x="1538.5" y="-147" font-family="Helvetica,sans-Serif" font-size="10.00" fill="grey"> basicTaskDispatcher</text>
</g>
<!-- Node16 -->
<g id="Node000016" class="node">
<title>Node16</title>
<g id="a_Node000016"><a xlink:href="../../de/d8f/structapplication_1_1command_1_1Command_1_1DispatchedTask.html" target="_top" xlink:title="Manage all types of tasks.">
<polygon fill="white" stroke="#666666" points="1616,-109 1461,-109 1461,-79 1616,-79 1616,-109"/>
<text text-anchor="start" x="1469" y="-97" font-family="Helvetica,sans-Serif" font-size="10.00">application::command</text>
<text text-anchor="middle" x="1538.5" y="-86" font-family="Helvetica,sans-Serif" font-size="10.00">::Command::DispatchedTask</text>
</a>
</g>
</g>
<!-- Node16&#45;&gt;Node1 -->
<g id="edge21_Node000001_Node000016" class="edge">
<title>Node16&#45;&gt;Node1</title>
<g id="a_edge21_Node000001_Node000016"><a xlink:title=" ">
<path fill="none" stroke="#9a32cd" stroke-dasharray="5,2" d="M1626.5,-94.03C1655.64,-97.32 1687.23,-104.7 1713,-120 1749.18,-141.48 1774.42,-186.32 1785.76,-209.85"/>
<polygon fill="#9a32cd" stroke="#9a32cd" points="1626.61,-90.53 1616.32,-93.04 1625.93,-97.49 1626.61,-90.53"/>
</a>
</g>
<text text-anchor="middle" x="1673.5" y="-123" font-family="Helvetica,sans-Serif" font-size="10.00" fill="grey"> dispatchedTask</text>
</g>
<!-- Node17 -->
<g id="Node000017" class="node">
<title>Node17</title>
<g id="a_Node000017"><a xlink:href="../../d9/dca/classapplication_1_1command_1_1Command_1_1BasicTask.html" target="_top" xlink:title="Manage basic tasks.">
<polygon fill="white" stroke="#666666" points="1280.5,-61 1153.5,-61 1153.5,-31 1280.5,-31 1280.5,-61"/>
<text text-anchor="start" x="1161.5" y="-49" font-family="Helvetica,sans-Serif" font-size="10.00">application::command</text>
<text text-anchor="middle" x="1217" y="-38" font-family="Helvetica,sans-Serif" font-size="10.00">::Command::BasicTask</text>
</a>
</g>
</g>
<!-- Node17&#45;&gt;Node16 -->
<g id="edge22_Node000016_Node000017" class="edge">
<title>Node17&#45;&gt;Node16</title>
<g id="a_edge22_Node000016_Node000017"><a xlink:title=" ">
<path fill="none" stroke="#9a32cd" stroke-dasharray="5,2" d="M1290.64,-56.43C1334.73,-62.82 1392.13,-71.23 1443,-79 1448.83,-79.89 1454.86,-80.82 1460.92,-81.77"/>
<polygon fill="#9a32cd" stroke="#9a32cd" points="1290.99,-52.95 1280.59,-54.98 1289.98,-59.87 1290.99,-52.95"/>
</a>
</g>
<text text-anchor="middle" x="1377.5" y="-82" font-family="Helvetica,sans-Serif" font-size="10.00" fill="grey"> basicTask</text>
</g>
<!-- Node18 -->
<g id="Node000018" class="node">
<title>Node18</title>
<g id="a_Node000018"><a target="_parent" xlink:href="https://gcc.gnu.org/onlinedocs/gcc-12.3.0/libstdc++/api/a02103.html" xlink:title=" ">
<polygon fill="white" stroke="#666666" points="929,-66.5 760,-66.5 760,-25.5 929,-25.5 929,-66.5"/>
<text text-anchor="start" x="768" y="-54.5" font-family="Helvetica,sans-Serif" font-size="10.00">std::bitset&lt; application</text>
<text text-anchor="start" x="768" y="-43.5" font-family="Helvetica,sans-Serif" font-size="10.00">::command::Bottom&lt; Category</text>
<text text-anchor="middle" x="844.5" y="-32.5" font-family="Helvetica,sans-Serif" font-size="10.00"> &gt;::value &gt;</text>
</a>
</g>
</g>
<!-- Node18&#45;&gt;Node17 -->
<g id="edge23_Node000017_Node000018" class="edge">
<title>Node18&#45;&gt;Node17</title>
<g id="a_edge23_Node000017_Node000018"><a xlink:title=" ">
<path fill="none" stroke="#9a32cd" stroke-dasharray="5,2" d="M939.27,-46C1006.35,-46 1094.82,-46 1153.46,-46"/>
<polygon fill="#9a32cd" stroke="#9a32cd" points="939.11,-42.5 929.11,-46 939.11,-49.5 939.11,-42.5"/>
</a>
</g>
<text text-anchor="middle" x="1037.5" y="-49" font-family="Helvetica,sans-Serif" font-size="10.00" fill="grey"> primaryBit</text>
</g>
<!-- Node19 -->
<g id="Node000019" class="node">
<title>Node19</title>
<g id="a_Node000019"><a target="_parent" xlink:href="https://gcc.gnu.org/onlinedocs/gcc-12.3.0/libstdc++/api/a02075.html" xlink:title=" ">
<polygon fill="white" stroke="#666666" points="408,-74 265,-74 265,0 408,0 408,-74"/>
<text text-anchor="start" x="273" y="-62" font-family="Helvetica,sans-Serif" font-size="10.00">std::_Base_bitset&lt;</text>
<text text-anchor="start" x="273" y="-51" font-family="Helvetica,sans-Serif" font-size="10.00">((_Nb)/(__CHAR_BIT_</text>
<text text-anchor="start" x="273" y="-40" font-family="Helvetica,sans-Serif" font-size="10.00">_ *__SIZEOF_LONG__)+</text>
<text text-anchor="start" x="273" y="-29" font-family="Helvetica,sans-Serif" font-size="10.00">((_Nb) %(__CHAR_BIT__</text>
<text text-anchor="start" x="273" y="-18" font-family="Helvetica,sans-Serif" font-size="10.00"> *__SIZEOF_LONG__)==0 </text>
<text text-anchor="middle" x="336.5" y="-7" font-family="Helvetica,sans-Serif" font-size="10.00">? 0 :1))&gt;</text>
</a>
</g>
</g>
<!-- Node19&#45;&gt;Node18 -->
<g id="edge24_Node000018_Node000019" class="edge">
<title>Node19&#45;&gt;Node18</title>
<g id="a_edge24_Node000018_Node000019"><a xlink:title=" ">
<path fill="none" stroke="#8b1a1a" d="M418.39,-38.44C511.97,-40.1 665.27,-42.83 759.96,-44.51"/>
<polygon fill="#8b1a1a" stroke="#8b1a1a" points="418.18,-34.93 408.12,-38.26 418.06,-41.93 418.18,-34.93"/>
</a>
</g>
</g>
<!-- Node21 -->
<g id="Node000021" class="node">
<title>Node21</title>
<g id="a_Node000021"><a target="_parent" xlink:href="https://gcc.gnu.org/onlinedocs/gcc-12.3.0/libstdc++/api/a02103.html" xlink:title=" ">
<polygon fill="white" stroke="#666666" points="572,-83 467,-83 467,-53 572,-53 572,-83"/>
<text text-anchor="start" x="475" y="-71" font-family="Helvetica,sans-Serif" font-size="10.00">std::bitset&lt; size_t</text>
<text text-anchor="middle" x="519.5" y="-60" font-family="Helvetica,sans-Serif" font-size="10.00"> _Nb &gt;</text>
</a>
</g>
</g>
<!-- Node19&#45;&gt;Node21 -->
<g id="edge27_Node000021_Node000019" class="edge">
<title>Node19&#45;&gt;Node21</title>
<g id="a_edge27_Node000021_Node000019"><a xlink:title=" ">
<path fill="none" stroke="#8b1a1a" d="M418.42,-50.86C434.87,-53.68 451.75,-56.57 466.84,-59.15"/>
<polygon fill="#8b1a1a" stroke="#8b1a1a" points="418.7,-47.36 408.26,-49.12 417.52,-54.26 418.7,-47.36"/>
</a>
</g>
</g>
<!-- Node20 -->
<g id="Node000020" class="node">
<title>Node20</title>
<g id="a_Node000020"><a target="_parent" xlink:href="https://gcc.gnu.org/onlinedocs/gcc-12.3.0/libstdc++/api/a02075.html" xlink:title=" ">
<polygon fill="white" stroke="#666666" points="108,-52 0,-52 0,-22 108,-22 108,-52"/>
<text text-anchor="start" x="8" y="-40" font-family="Helvetica,sans-Serif" font-size="10.00">std::_Base_bitset&lt;</text>
<text text-anchor="middle" x="54" y="-29" font-family="Helvetica,sans-Serif" font-size="10.00"> size_t _Nw &gt;</text>
</a>
</g>
</g>
<!-- Node20&#45;&gt;Node19 -->
<g id="edge25_Node000019_Node000020" class="edge">
<title>Node20&#45;&gt;Node19</title>
<g id="a_edge25_Node000019_Node000020"><a xlink:title=" ">
<path fill="none" stroke="orange" stroke-dasharray="5,2" d="M118.28,-37C161.85,-37 219.79,-37 264.87,-37"/>
<polygon fill="orange" stroke="orange" points="118.09,-33.5 108.09,-37 118.09,-40.5 118.09,-33.5"/>
</a>
</g>
<text text-anchor="start" x="126" y="-84" font-family="Helvetica,sans-Serif" font-size="10.00" fill="grey"> &lt;((_Nb)/(__CHAR_BIT</text>
<text text-anchor="start" x="126" y="-73" font-family="Helvetica,sans-Serif" font-size="10.00" fill="grey">__ *__SIZEOF_LONG__)</text>
<text text-anchor="start" x="126" y="-62" font-family="Helvetica,sans-Serif" font-size="10.00" fill="grey">+((_Nb) %(__CHAR_BIT</text>
<text text-anchor="start" x="126" y="-51" font-family="Helvetica,sans-Serif" font-size="10.00" fill="grey">__ *__SIZEOF_LONG__)=</text>
<text text-anchor="middle" x="186.5" y="-40" font-family="Helvetica,sans-Serif" font-size="10.00" fill="grey">=0 ? 0 :1))&gt;</text>
</g>
<!-- Node21&#45;&gt;Node18 -->
<g id="edge26_Node000018_Node000021" class="edge">
<title>Node21&#45;&gt;Node18</title>
<g id="a_edge26_Node000018_Node000021"><a xlink:title=" ">
<path fill="none" stroke="orange" stroke-dasharray="5,2" d="M582.13,-63.8C632.48,-60.37 704.16,-55.49 759.73,-51.71"/>
<polygon fill="orange" stroke="orange" points="581.78,-60.32 572.04,-64.49 582.25,-67.3 581.78,-60.32"/>
</a>
</g>
<text text-anchor="start" x="612" y="-86" font-family="Helvetica,sans-Serif" font-size="10.00" fill="grey"> &lt; application::command</text>
<text text-anchor="start" x="612" y="-75" font-family="Helvetica,sans-Serif" font-size="10.00" fill="grey">::Bottom&lt; Category &gt;::</text>
<text text-anchor="middle" x="674" y="-64" font-family="Helvetica,sans-Serif" font-size="10.00" fill="grey">value &gt;</text>
</g>
<!-- Node22 -->
<g id="Node000022" class="node">
<title>Node22</title>
<g id="a_Node000022"><a xlink:href="../../d3/d66/classapplication_1_1command_1_1Command_1_1RegularTask.html" target="_top" xlink:title="Manage regular tasks by sub&#45;cli.">
<polygon fill="white" stroke="#666666" points="1286,-109 1148,-109 1148,-79 1286,-79 1286,-109"/>
<text text-anchor="start" x="1156" y="-97" font-family="Helvetica,sans-Serif" font-size="10.00">application::command</text>
<text text-anchor="middle" x="1217" y="-86" font-family="Helvetica,sans-Serif" font-size="10.00">::Command::RegularTask</text>
</a>
</g>
</g>
<!-- Node22&#45;&gt;Node16 -->
<g id="edge28_Node000016_Node000022" class="edge">
<title>Node22&#45;&gt;Node16</title>
<g id="a_edge28_Node000016_Node000022"><a xlink:title=" ">
<path fill="none" stroke="#9a32cd" stroke-dasharray="5,2" d="M1296.28,-94C1346.35,-94 1411,-94 1460.77,-94"/>
<polygon fill="#9a32cd" stroke="#9a32cd" points="1296.15,-90.5 1286.15,-94 1296.15,-97.5 1296.15,-90.5"/>
</a>
</g>
<text text-anchor="middle" x="1377.5" y="-97" font-family="Helvetica,sans-Serif" font-size="10.00" fill="grey"> regularTask</text>
</g>
</g>
</svg>
