<?xml version="1.0" encoding="UTF-8" standalone="no"?>
<!DOCTYPE svg PUBLIC "-//W3C//DTD SVG 1.1//EN"
 "http://www.w3.org/Graphics/SVG/1.1/DTD/svg11.dtd">
<!-- Generated by graphviz version 2.43.0 (0)
 -->
<!-- Title: design_pattern::creational::abstract_factory::AbstractFactory Pages: 1 -->
<svg width="420pt" height="86pt"
 viewBox="0.00 0.00 420.00 86.00" xmlns="http://www.w3.org/2000/svg" xmlns:xlink="http://www.w3.org/1999/xlink">
<g id="graph0" class="graph" transform="scale(1 1) rotate(0) translate(4 82)">
<title>design_pattern::creational::abstract_factory::AbstractFactory</title>
<!-- Node1 -->
<g id="Node000001" class="node">
<title>Node1</title>
<g id="a_Node000001"><a xlink:title="Provide the abstract interface for creating the family of products. It never has to instantiate a pro...">
<polygon fill="#999999" stroke="#666666" points="183,-54 0,-54 0,-24 183,-24 183,-54"/>
<text text-anchor="start" x="8" y="-42" font-family="Helvetica,sans-Serif" font-size="10.00">design_pattern::creational</text>
<text text-anchor="middle" x="91.5" y="-31" font-family="Helvetica,sans-Serif" font-size="10.00">::abstract_factory::AbstractFactory</text>
</a>
</g>
</g>
<!-- Node2 -->
<g id="Node000002" class="node">
<title>Node2</title>
<g id="a_Node000002"><a xlink:href="../../df/dd9/classdesign__pattern_1_1creational_1_1abstract__factory_1_1ConcreteFactoryX.html" target="_top" xlink:title="The concrete factory.">
<polygon fill="white" stroke="#666666" points="412,-78 219,-78 219,-48 412,-48 412,-78"/>
<text text-anchor="start" x="227" y="-66" font-family="Helvetica,sans-Serif" font-size="10.00">design_pattern::creational</text>
<text text-anchor="middle" x="315.5" y="-55" font-family="Helvetica,sans-Serif" font-size="10.00">::abstract_factory::ConcreteFactoryX</text>
</a>
</g>
</g>
<!-- Node1&#45;&gt;Node2 -->
<g id="edge1_Node000001_Node000002" class="edge">
<title>Node1&#45;&gt;Node2</title>
<g id="a_edge1_Node000001_Node000002"><a xlink:title=" ">
<path fill="none" stroke="#63b8ff" d="M193.09,-49.87C201.63,-50.8 210.26,-51.73 218.76,-52.65"/>
<polygon fill="#63b8ff" stroke="#63b8ff" points="193.43,-46.39 183.12,-48.8 192.68,-53.35 193.43,-46.39"/>
</a>
</g>
</g>
<!-- Node3 -->
<g id="Node000003" class="node">
<title>Node3</title>
<g id="a_Node000003"><a xlink:href="../../d6/d6b/classdesign__pattern_1_1creational_1_1abstract__factory_1_1ConcreteFactoryY.html" target="_top" xlink:title="The concrete factory.">
<polygon fill="white" stroke="#666666" points="411.5,-30 219.5,-30 219.5,0 411.5,0 411.5,-30"/>
<text text-anchor="start" x="227.5" y="-18" font-family="Helvetica,sans-Serif" font-size="10.00">design_pattern::creational</text>
<text text-anchor="middle" x="315.5" y="-7" font-family="Helvetica,sans-Serif" font-size="10.00">::abstract_factory::ConcreteFactoryY</text>
</a>
</g>
</g>
<!-- Node1&#45;&gt;Node3 -->
<g id="edge2_Node000001_Node000003" class="edge">
<title>Node1&#45;&gt;Node3</title>
<g id="a_edge2_Node000001_Node000003"><a xlink:title=" ">
<path fill="none" stroke="#63b8ff" d="M193.3,-28.1C202.01,-27.16 210.82,-26.21 219.48,-25.27"/>
<polygon fill="#63b8ff" stroke="#63b8ff" points="192.68,-24.65 183.12,-29.2 193.43,-31.61 192.68,-24.65"/>
</a>
</g>
</g>
</g>
</svg>
