<?xml version="1.0" encoding="UTF-8" standalone="no"?>
<!DOCTYPE svg PUBLIC "-//W3C//DTD SVG 1.1//EN"
 "http://www.w3.org/Graphics/SVG/1.1/DTD/svg11.dtd">
<!-- Generated by graphviz version 2.43.0 (0)
 -->
<!-- Title: utility::file::ReadWriteGuard Pages: 1 -->
<svg width="349pt" height="170pt"
 viewBox="0.00 0.00 348.50 170.00" xmlns="http://www.w3.org/2000/svg" xmlns:xlink="http://www.w3.org/1999/xlink">
<g id="graph0" class="graph" transform="scale(1 1) rotate(0) translate(4 166)">
<title>utility::file::ReadWriteGuard</title>
<!-- Node1 -->
<g id="Node000001" class="node">
<title>Node1</title>
<g id="a_Node000001"><a xlink:title="Manage the lifetime of a lock on a file.">
<polygon fill="#999999" stroke="#666666" points="220.5,-30 98.5,-30 98.5,0 220.5,0 220.5,-30"/>
<text text-anchor="start" x="106.5" y="-18" font-family="Helvetica,sans-Serif" font-size="10.00">utility::file::ReadWrite</text>
<text text-anchor="middle" x="159.5" y="-7" font-family="Helvetica,sans-Serif" font-size="10.00">Guard</text>
</a>
</g>
</g>
<!-- Node2 -->
<g id="Node000002" class="node">
<title>Node2</title>
<g id="a_Node000002"><a xlink:href="../../d5/d7d/classutility_1_1file_1_1ReadWriteLock.html" target="_top" xlink:title="Lock for reading and writing files.">
<polygon fill="white" stroke="#666666" points="232,-96 87,-96 87,-77 232,-77 232,-96"/>
<text text-anchor="middle" x="159.5" y="-84" font-family="Helvetica,sans-Serif" font-size="10.00">utility::file::ReadWriteLock</text>
</a>
</g>
</g>
<!-- Node2&#45;&gt;Node1 -->
<g id="edge1_Node000001_Node000002" class="edge">
<title>Node2&#45;&gt;Node1</title>
<g id="a_edge1_Node000001_Node000002"><a xlink:title=" ">
<path fill="none" stroke="#9a32cd" stroke-dasharray="5,2" d="M159.5,-66.71C159.5,-55.19 159.5,-40.68 159.5,-30.14"/>
<polygon fill="#9a32cd" stroke="#9a32cd" points="156,-66.98 159.5,-76.98 163,-66.98 156,-66.98"/>
</a>
</g>
<text text-anchor="middle" x="171.5" y="-51" font-family="Helvetica,sans-Serif" font-size="10.00" fill="grey"> lock</text>
</g>
<!-- Node3 -->
<g id="Node000003" class="node">
<title>Node3</title>
<g id="a_Node000003"><a target="_parent" xlink:href="https://gcc.gnu.org/onlinedocs/gcc-12.3.0/libstdc++/api/a03315.html" xlink:title=" ">
<polygon fill="white" stroke="#666666" points="107,-162 0,-162 0,-143 107,-143 107,-162"/>
<text text-anchor="middle" x="53.5" y="-150" font-family="Helvetica,sans-Serif" font-size="10.00">std::shared_mutex</text>
</a>
</g>
</g>
<!-- Node3&#45;&gt;Node2 -->
<g id="edge2_Node000002_Node000003" class="edge">
<title>Node3&#45;&gt;Node2</title>
<g id="a_edge2_Node000002_Node000003"><a xlink:title=" ">
<path fill="none" stroke="#9a32cd" stroke-dasharray="5,2" d="M76.37,-137.69C97.23,-125.09 127.42,-106.87 145.09,-96.2"/>
<polygon fill="#9a32cd" stroke="#9a32cd" points="74.55,-134.7 67.8,-142.87 78.17,-140.7 74.55,-134.7"/>
</a>
</g>
<text text-anchor="middle" x="132.5" y="-117" font-family="Helvetica,sans-Serif" font-size="10.00" fill="grey"> rwLock</text>
</g>
<!-- Node4 -->
<g id="Node000004" class="node">
<title>Node4</title>
<g id="a_Node000004"><a target="_parent" xlink:href="https://gcc.gnu.org/onlinedocs/gcc-12.3.0/libstdc++/api/a07923.html" xlink:title=" ">
<polygon fill="white" stroke="#666666" points="194,-162 125,-162 125,-143 194,-143 194,-162"/>
<text text-anchor="middle" x="159.5" y="-150" font-family="Helvetica,sans-Serif" font-size="10.00">std::mutex</text>
</a>
</g>
</g>
<!-- Node4&#45;&gt;Node2 -->
<g id="edge3_Node000002_Node000004" class="edge">
<title>Node4&#45;&gt;Node2</title>
<g id="a_edge3_Node000002_Node000004"><a xlink:title=" ">
<path fill="none" stroke="#9a32cd" stroke-dasharray="5,2" d="M159.5,-132.58C159.5,-120.63 159.5,-105.72 159.5,-96.41"/>
<polygon fill="#9a32cd" stroke="#9a32cd" points="156,-132.87 159.5,-142.87 163,-132.87 156,-132.87"/>
</a>
</g>
<text text-anchor="middle" x="171" y="-117" font-family="Helvetica,sans-Serif" font-size="10.00" fill="grey"> mtx</text>
</g>
<!-- Node5 -->
<g id="Node000005" class="node">
<title>Node5</title>
<g id="a_Node000005"><a target="_parent" xlink:href="https://gcc.gnu.org/onlinedocs/gcc-12.3.0/libstdc++/api/a02343.html" xlink:title=" ">
<polygon fill="white" stroke="#666666" points="340.5,-162 212.5,-162 212.5,-143 340.5,-143 340.5,-162"/>
<text text-anchor="middle" x="276.5" y="-150" font-family="Helvetica,sans-Serif" font-size="10.00">std::condition_variable</text>
</a>
</g>
</g>
<!-- Node5&#45;&gt;Node2 -->
<g id="edge4_Node000002_Node000005" class="edge">
<title>Node5&#45;&gt;Node2</title>
<g id="a_edge4_Node000002_Node000005"><a xlink:title=" ">
<path fill="none" stroke="#9a32cd" stroke-dasharray="5,2" d="M251.87,-138.03C228.83,-125.42 195.09,-106.97 175.4,-96.2"/>
<polygon fill="#9a32cd" stroke="#9a32cd" points="250.27,-141.14 260.72,-142.87 253.63,-135 250.27,-141.14"/>
</a>
</g>
<text text-anchor="middle" x="232" y="-117" font-family="Helvetica,sans-Serif" font-size="10.00" fill="grey"> cv</text>
</g>
</g>
</svg>
