<?xml version="1.0" encoding="UTF-8" standalone="no"?>
<!DOCTYPE svg PUBLIC "-//W3C//DTD SVG 1.1//EN"
 "http://www.w3.org/Graphics/SVG/1.1/DTD/svg11.dtd">
<!-- Generated by graphviz version 2.43.0 (0)
 -->
<!-- Title: utility::console::Console Pages: 1 -->
<svg width="169pt" height="192pt"
 viewBox="0.00 0.00 169.00 192.00" xmlns="http://www.w3.org/2000/svg" xmlns:xlink="http://www.w3.org/1999/xlink">
<g id="graph0" class="graph" transform="scale(1 1) rotate(0) translate(4 188)">
<title>utility::console::Console</title>
<!-- Node1 -->
<g id="Node000001" class="node">
<title>Node1</title>
<g id="a_Node000001"><a xlink:title="Console mode.">
<polygon fill="#999999" stroke="#666666" points="141.5,-19 8.5,-19 8.5,0 141.5,0 141.5,-19"/>
<text text-anchor="middle" x="75" y="-7" font-family="Helvetica,sans-Serif" font-size="10.00">utility::console::Console</text>
</a>
</g>
</g>
<!-- Node2 -->
<g id="Node000002" class="node">
<title>Node2</title>
<g id="a_Node000002"><a target="_parent" xlink:href="https://gcc.gnu.org/onlinedocs/gcc-12.3.0/libstdc++/api/a08835.html" xlink:title=" ">
<polygon fill="white" stroke="#666666" points="147,-96 3,-96 3,-66 147,-66 147,-96"/>
<text text-anchor="start" x="11" y="-84" font-family="Helvetica,sans-Serif" font-size="10.00">std::unique_ptr&lt; utility</text>
<text text-anchor="middle" x="75" y="-73" font-family="Helvetica,sans-Serif" font-size="10.00">::console::Console::Impl &gt;</text>
</a>
</g>
</g>
<!-- Node2&#45;&gt;Node1 -->
<g id="edge1_Node000001_Node000002" class="edge">
<title>Node2&#45;&gt;Node1</title>
<g id="a_edge1_Node000001_Node000002"><a xlink:title=" ">
<path fill="none" stroke="#9a32cd" stroke-dasharray="5,2" d="M75,-55.56C75,-42.95 75,-28.35 75,-19.27"/>
<polygon fill="#9a32cd" stroke="#9a32cd" points="71.5,-55.94 75,-65.94 78.5,-55.94 71.5,-55.94"/>
</a>
</g>
<text text-anchor="middle" x="87.5" y="-40" font-family="Helvetica,sans-Serif" font-size="10.00" fill="grey"> impl</text>
</g>
<!-- Node3 -->
<g id="Node000003" class="node">
<title>Node3</title>
<g id="a_Node000003"><a target="_parent" xlink:href="https://gcc.gnu.org/onlinedocs/gcc-12.3.0/libstdc++/api/a08835.html" xlink:title=" ">
<polygon fill="white" stroke="#666666" points="150,-184 0,-184 0,-154 150,-154 150,-184"/>
<text text-anchor="start" x="8" y="-172" font-family="Helvetica,sans-Serif" font-size="10.00">std::unique_ptr&lt; typename</text>
<text text-anchor="middle" x="75" y="-161" font-family="Helvetica,sans-Serif" font-size="10.00"> _Tp, typename _Dp &gt;</text>
</a>
</g>
</g>
<!-- Node3&#45;&gt;Node2 -->
<g id="edge2_Node000002_Node000003" class="edge">
<title>Node3&#45;&gt;Node2</title>
<g id="a_edge2_Node000002_Node000003"><a xlink:title=" ">
<path fill="none" stroke="orange" stroke-dasharray="5,2" d="M75,-143.49C75,-128.2 75,-109.05 75,-96.22"/>
<polygon fill="orange" stroke="orange" points="71.5,-143.8 75,-153.8 78.5,-143.8 71.5,-143.8"/>
</a>
</g>
<text text-anchor="start" x="75" y="-128" font-family="Helvetica,sans-Serif" font-size="10.00" fill="grey"> &lt; utility::console</text>
<text text-anchor="middle" x="118" y="-117" font-family="Helvetica,sans-Serif" font-size="10.00" fill="grey">::Console::Impl &gt;</text>
</g>
</g>
</svg>
