<?xml version="1.0" encoding="UTF-8" standalone="no"?>
<!DOCTYPE svg PUBLIC "-//W3C//DTD SVG 1.1//EN"
 "http://www.w3.org/Graphics/SVG/1.1/DTD/svg11.dtd">
<!-- Generated by graphviz version 2.43.0 (0)
 -->
<!-- Title: utility::argument::Argument Pages: 1 -->
<svg width="976pt" height="281pt"
 viewBox="0.00 0.00 976.00 281.12" xmlns="http://www.w3.org/2000/svg" xmlns:xlink="http://www.w3.org/1999/xlink">
<g id="graph0" class="graph" transform="scale(1 1) rotate(0) translate(4 277.12)">
<title>utility::argument::Argument</title>
<!-- Node1 -->
<g id="Node000001" class="node">
<title>Node1</title>
<g id="a_Node000001"><a xlink:title="Parse arguments.">
<polygon fill="#999999" stroke="#666666" points="968,-132 864,-132 864,-102 968,-102 968,-132"/>
<text text-anchor="start" x="872" y="-120" font-family="Helvetica,sans-Serif" font-size="10.00">utility::argument::</text>
<text text-anchor="middle" x="916" y="-109" font-family="Helvetica,sans-Serif" font-size="10.00">Argument</text>
</a>
</g>
</g>
<!-- Node2 -->
<g id="Node000002" class="node">
<title>Node2</title>
<g id="a_Node000002"><a target="_parent" xlink:href="https://gcc.gnu.org/onlinedocs/gcc-12.3.0/libstdc++/api/a08619.html" xlink:title=" ">
<polygon fill="white" stroke="#666666" points="713,-259 585,-259 585,-229 713,-229 713,-259"/>
<text text-anchor="start" x="593" y="-247" font-family="Helvetica,sans-Serif" font-size="10.00">std::list&lt; utility</text>
<text text-anchor="middle" x="649" y="-236" font-family="Helvetica,sans-Serif" font-size="10.00">::argument::Register &gt;</text>
</a>
</g>
</g>
<!-- Node2&#45;&gt;Node1 -->
<g id="edge1_Node000001_Node000002" class="edge">
<title>Node2&#45;&gt;Node1</title>
<g id="a_edge1_Node000001_Node000002"><a xlink:title=" ">
<path fill="none" stroke="#9a32cd" stroke-dasharray="5,2" d="M709.12,-225.69C749,-212.24 802.14,-192.15 846,-168 864.66,-157.73 884,-143.02 897.44,-132.03"/>
<polygon fill="#9a32cd" stroke="#9a32cd" points="707.92,-222.4 699.54,-228.88 710.14,-229.04 707.92,-222.4"/>
</a>
</g>
<text text-anchor="middle" x="795" y="-226" font-family="Helvetica,sans-Serif" font-size="10.00" fill="grey"> optionalArguments</text>
<text text-anchor="middle" x="795" y="-215" font-family="Helvetica,sans-Serif" font-size="10.00" fill="grey">positionalArguments</text>
</g>
<!-- Node3 -->
<g id="Node000003" class="node">
<title>Node3</title>
<g id="a_Node000003"><a target="_parent" xlink:href="https://gcc.gnu.org/onlinedocs/gcc-12.3.0/libstdc++/api/a08611.html" xlink:title=" ">
<polygon fill="white" stroke="#666666" points="149,-238 0,-238 0,-208 149,-208 149,-238"/>
<text text-anchor="start" x="8" y="-226" font-family="Helvetica,sans-Serif" font-size="10.00">std::_List_base&lt; typename</text>
<text text-anchor="middle" x="74.5" y="-215" font-family="Helvetica,sans-Serif" font-size="10.00"> _Tp, typename _Alloc &gt;</text>
</a>
</g>
</g>
<!-- Node3&#45;&gt;Node2 -->
<g id="edge2_Node000002_Node000003" class="edge">
<title>Node3&#45;&gt;Node2</title>
<g id="a_edge2_Node000002_Node000003"><a xlink:title=" ">
<path fill="none" stroke="darkgreen" d="M148.06,-240.15C160.65,-242.73 173.67,-245.14 186,-247 347.9,-271.39 391.17,-281.13 554,-264 564.54,-262.89 575.63,-261.1 586.35,-259.04"/>
<polygon fill="darkgreen" stroke="darkgreen" points="148.57,-236.68 138.06,-238.05 147.13,-243.53 148.57,-236.68"/>
</a>
</g>
</g>
<!-- Node4 -->
<g id="Node000004" class="node">
<title>Node4</title>
<g id="a_Node000004"><a target="_parent" xlink:href="https://gcc.gnu.org/onlinedocs/gcc-12.3.0/libstdc++/api/a08619.html" xlink:title=" ">
<polygon fill="white" stroke="#666666" points="344.5,-238 208.5,-238 208.5,-208 344.5,-208 344.5,-238"/>
<text text-anchor="start" x="216.5" y="-226" font-family="Helvetica,sans-Serif" font-size="10.00">std::list&lt; typename</text>
<text text-anchor="middle" x="276.5" y="-215" font-family="Helvetica,sans-Serif" font-size="10.00"> _Tp, typename _Alloc &gt;</text>
</a>
</g>
</g>
<!-- Node3&#45;&gt;Node4 -->
<g id="edge4_Node000004_Node000003" class="edge">
<title>Node3&#45;&gt;Node4</title>
<g id="a_edge4_Node000004_Node000003"><a xlink:title=" ">
<path fill="none" stroke="darkgreen" d="M159.22,-223C175.6,-223 192.57,-223 208.33,-223"/>
<polygon fill="darkgreen" stroke="darkgreen" points="159.12,-219.5 149.12,-223 159.12,-226.5 159.12,-219.5"/>
</a>
</g>
</g>
<!-- Node7 -->
<g id="Node000007" class="node">
<title>Node7</title>
<g id="a_Node000007"><a target="_parent" xlink:href="https://gcc.gnu.org/onlinedocs/gcc-12.3.0/libstdc++/api/a08619.html" xlink:title=" ">
<polygon fill="white" stroke="#666666" points="726,-196.5 572,-196.5 572,-155.5 726,-155.5 726,-196.5"/>
<text text-anchor="start" x="580" y="-184.5" font-family="Helvetica,sans-Serif" font-size="10.00">std::list&lt; std::reference</text>
<text text-anchor="start" x="580" y="-173.5" font-family="Helvetica,sans-Serif" font-size="10.00">_wrapper&lt; utility::argument</text>
<text text-anchor="middle" x="649" y="-162.5" font-family="Helvetica,sans-Serif" font-size="10.00">::Argument &gt; &gt;</text>
</a>
</g>
</g>
<!-- Node3&#45;&gt;Node7 -->
<g id="edge8_Node000007_Node000003" class="edge">
<title>Node3&#45;&gt;Node7</title>
<g id="a_edge8_Node000007_Node000003"><a xlink:title=" ">
<path fill="none" stroke="darkgreen" d="M148.31,-205.91C160.83,-203.33 173.76,-200.91 186,-199 320.7,-178.02 479.9,-174.75 571.88,-174.93"/>
<polygon fill="darkgreen" stroke="darkgreen" points="147.43,-202.51 138.37,-207.99 148.87,-209.36 147.43,-202.51"/>
</a>
</g>
</g>
<!-- Node4&#45;&gt;Node2 -->
<g id="edge3_Node000002_Node000004" class="edge">
<title>Node4&#45;&gt;Node2</title>
<g id="a_edge3_Node000002_Node000004"><a xlink:title=" ">
<path fill="none" stroke="orange" stroke-dasharray="5,2" d="M354.85,-227.38C423.06,-231.25 521.22,-236.81 584.8,-240.42"/>
<polygon fill="orange" stroke="orange" points="354.78,-223.87 344.59,-226.8 354.38,-230.86 354.78,-223.87"/>
</a>
</g>
<text text-anchor="start" x="421.5" y="-252" font-family="Helvetica,sans-Serif" font-size="10.00" fill="grey"> &lt; utility::argument</text>
<text text-anchor="middle" x="469.5" y="-241" font-family="Helvetica,sans-Serif" font-size="10.00" fill="grey">::Register &gt;</text>
</g>
<!-- Node4&#45;&gt;Node7 -->
<g id="edge9_Node000007_Node000004" class="edge">
<title>Node4&#45;&gt;Node7</title>
<g id="a_edge9_Node000007_Node000004"><a xlink:title=" ">
<path fill="none" stroke="orange" stroke-dasharray="5,2" d="M354.81,-207.84C364.94,-206.08 375.21,-204.41 385,-203 447.69,-193.97 519.22,-186.83 571.84,-182.16"/>
<polygon fill="orange" stroke="orange" points="353.98,-204.43 344.74,-209.62 355.2,-211.32 353.98,-204.43"/>
</a>
</g>
<text text-anchor="start" x="385" y="-217" font-family="Helvetica,sans-Serif" font-size="10.00" fill="grey"> &lt; std::reference_wrapper</text>
<text text-anchor="middle" x="469.5" y="-206" font-family="Helvetica,sans-Serif" font-size="10.00" fill="grey">&lt; utility::argument::Argument &gt; &gt;</text>
</g>
<!-- Node5 -->
<g id="Node000005" class="node">
<title>Node5</title>
<g id="a_Node000005"><a target="_parent" xlink:href="https://gcc.gnu.org/onlinedocs/gcc-12.3.0/libstdc++/api/a08855.html" xlink:title=" ">
<polygon fill="white" stroke="#666666" points="706,-137.5 592,-137.5 592,-96.5 706,-96.5 706,-137.5"/>
<text text-anchor="start" x="600" y="-125.5" font-family="Helvetica,sans-Serif" font-size="10.00">std::unordered_map</text>
<text text-anchor="start" x="600" y="-114.5" font-family="Helvetica,sans-Serif" font-size="10.00">&lt; std::string_view,</text>
<text text-anchor="middle" x="649" y="-103.5" font-family="Helvetica,sans-Serif" font-size="10.00"> RegisterIter &gt;</text>
</a>
</g>
</g>
<!-- Node5&#45;&gt;Node1 -->
<g id="edge5_Node000001_Node000005" class="edge">
<title>Node5&#45;&gt;Node1</title>
<g id="a_edge5_Node000001_Node000005"><a xlink:title=" ">
<path fill="none" stroke="#9a32cd" stroke-dasharray="5,2" d="M716.31,-117C761.99,-117 821.8,-117 863.82,-117"/>
<polygon fill="#9a32cd" stroke="#9a32cd" points="716.2,-113.5 706.2,-117 716.2,-120.5 716.2,-113.5"/>
</a>
</g>
<text text-anchor="middle" x="795" y="-120" font-family="Helvetica,sans-Serif" font-size="10.00" fill="grey"> argumentMap</text>
</g>
<!-- Node6 -->
<g id="Node000006" class="node">
<title>Node6</title>
<g id="a_Node000006"><a target="_parent" xlink:href="https://gcc.gnu.org/onlinedocs/gcc-12.3.0/libstdc++/api/a08855.html" xlink:title=" ">
<polygon fill="white" stroke="#666666" points="367,-138 186,-138 186,-86 367,-86 367,-138"/>
<text text-anchor="start" x="194" y="-126" font-family="Helvetica,sans-Serif" font-size="10.00">std::unordered_map</text>
<text text-anchor="start" x="194" y="-115" font-family="Helvetica,sans-Serif" font-size="10.00">&lt; typename _Key, typename</text>
<text text-anchor="start" x="194" y="-104" font-family="Helvetica,sans-Serif" font-size="10.00"> _Tp, typename _Hash, typename</text>
<text text-anchor="middle" x="276.5" y="-93" font-family="Helvetica,sans-Serif" font-size="10.00"> _Pred, typename _Alloc &gt;</text>
</a>
</g>
</g>
<!-- Node6&#45;&gt;Node5 -->
<g id="edge6_Node000005_Node000006" class="edge">
<title>Node6&#45;&gt;Node5</title>
<g id="a_edge6_Node000005_Node000006"><a xlink:title=" ">
<path fill="none" stroke="orange" stroke-dasharray="5,2" d="M377.19,-113.35C446.06,-114.27 535.13,-115.48 591.94,-116.24"/>
<polygon fill="orange" stroke="orange" points="377.23,-109.85 367.19,-113.21 377.14,-116.85 377.23,-109.85"/>
</a>
</g>
<text text-anchor="start" x="422" y="-129" font-family="Helvetica,sans-Serif" font-size="10.00" fill="grey"> &lt; std::string_view,</text>
<text text-anchor="middle" x="469.5" y="-118" font-family="Helvetica,sans-Serif" font-size="10.00" fill="grey"> RegisterIter &gt;</text>
</g>
<!-- Node7&#45;&gt;Node1 -->
<g id="edge7_Node000001_Node000007" class="edge">
<title>Node7&#45;&gt;Node1</title>
<g id="a_edge7_Node000001_Node000007"><a xlink:title=" ">
<path fill="none" stroke="#9a32cd" stroke-dasharray="5,2" d="M736.29,-156.79C778.48,-147.4 827.81,-136.41 863.94,-128.37"/>
<polygon fill="#9a32cd" stroke="#9a32cd" points="735.29,-153.42 726.29,-159.01 736.82,-160.26 735.29,-153.42"/>
</a>
</g>
<text text-anchor="middle" x="795" y="-156" font-family="Helvetica,sans-Serif" font-size="10.00" fill="grey"> subParsers</text>
</g>
<!-- Node8 -->
<g id="Node000008" class="node">
<title>Node8</title>
<g id="a_Node000008"><a target="_parent" xlink:href="https://gcc.gnu.org/onlinedocs/gcc-12.3.0/libstdc++/api/a08631.html" xlink:title=" ">
<polygon fill="white" stroke="#666666" points="712.5,-78 585.5,-78 585.5,-48 712.5,-48 712.5,-78"/>
<text text-anchor="start" x="593.5" y="-66" font-family="Helvetica,sans-Serif" font-size="10.00">std::map&lt; std::string</text>
<text text-anchor="middle" x="649" y="-55" font-family="Helvetica,sans-Serif" font-size="10.00">_view, ArgumentIter &gt;</text>
</a>
</g>
</g>
<!-- Node8&#45;&gt;Node1 -->
<g id="edge10_Node000001_Node000008" class="edge">
<title>Node8&#45;&gt;Node1</title>
<g id="a_edge10_Node000001_Node000008"><a xlink:title=" ">
<path fill="none" stroke="#9a32cd" stroke-dasharray="5,2" d="M722.9,-77.19C759.82,-84.45 805.33,-93.53 846,-102 851.76,-103.2 857.79,-104.48 863.78,-105.76"/>
<polygon fill="#9a32cd" stroke="#9a32cd" points="723.22,-73.68 712.73,-75.19 721.87,-80.55 723.22,-73.68"/>
</a>
</g>
<text text-anchor="middle" x="795" y="-105" font-family="Helvetica,sans-Serif" font-size="10.00" fill="grey"> subParserMap</text>
</g>
<!-- Node9 -->
<g id="Node000009" class="node">
<title>Node9</title>
<g id="a_Node000009"><a target="_parent" xlink:href="https://gcc.gnu.org/onlinedocs/gcc-12.3.0/libstdc++/api/a08631.html" xlink:title=" ">
<polygon fill="white" stroke="#666666" points="365,-58 188,-58 188,-6 365,-6 365,-58"/>
<text text-anchor="start" x="196" y="-46" font-family="Helvetica,sans-Serif" font-size="10.00">std::map&lt; typename</text>
<text text-anchor="start" x="196" y="-35" font-family="Helvetica,sans-Serif" font-size="10.00"> _Key, typename _Tp,</text>
<text text-anchor="start" x="196" y="-24" font-family="Helvetica,sans-Serif" font-size="10.00"> typename _Compare, typename</text>
<text text-anchor="middle" x="276.5" y="-13" font-family="Helvetica,sans-Serif" font-size="10.00"> _Alloc &gt;</text>
</a>
</g>
</g>
<!-- Node9&#45;&gt;Node8 -->
<g id="edge11_Node000008_Node000009" class="edge">
<title>Node9&#45;&gt;Node8</title>
<g id="a_edge11_Node000008_Node000009"><a xlink:title=" ">
<path fill="none" stroke="orange" stroke-dasharray="5,2" d="M375.39,-40.19C441.94,-45.76 528,-52.96 585.45,-57.77"/>
<polygon fill="orange" stroke="orange" points="375.56,-36.69 365.3,-39.35 374.98,-43.67 375.56,-36.69"/>
</a>
</g>
<text text-anchor="start" x="422" y="-69" font-family="Helvetica,sans-Serif" font-size="10.00" fill="grey"> &lt; std::string_view,</text>
<text text-anchor="middle" x="469.5" y="-58" font-family="Helvetica,sans-Serif" font-size="10.00" fill="grey"> ArgumentIter &gt;</text>
</g>
<!-- Node10 -->
<g id="Node000010" class="node">
<title>Node10</title>
<g id="a_Node000010"><a target="_parent" xlink:href="https://gcc.gnu.org/onlinedocs/gcc-12.3.0/libstdc++/api/a08631.html" xlink:title=" ">
<polygon fill="white" stroke="#666666" points="708.5,-30 589.5,-30 589.5,0 708.5,0 708.5,-30"/>
<text text-anchor="start" x="597.5" y="-18" font-family="Helvetica,sans-Serif" font-size="10.00">std::map&lt; std::string</text>
<text text-anchor="middle" x="649" y="-7" font-family="Helvetica,sans-Serif" font-size="10.00">_view, bool &gt;</text>
</a>
</g>
</g>
<!-- Node9&#45;&gt;Node10 -->
<g id="edge13_Node000010_Node000009" class="edge">
<title>Node9&#45;&gt;Node10</title>
<g id="a_edge13_Node000010_Node000009"><a xlink:title=" ">
<path fill="none" stroke="orange" stroke-dasharray="5,2" d="M375.15,-18.78C378.47,-18.49 381.76,-18.23 385,-18 455.15,-13.05 536.07,-12.97 589.42,-13.69"/>
<polygon fill="orange" stroke="orange" points="374.75,-15.3 365.12,-19.72 375.41,-22.27 374.75,-15.3"/>
</a>
</g>
<text text-anchor="start" x="422" y="-32" font-family="Helvetica,sans-Serif" font-size="10.00" fill="grey"> &lt; std::string_view,</text>
<text text-anchor="middle" x="469.5" y="-21" font-family="Helvetica,sans-Serif" font-size="10.00" fill="grey"> bool &gt;</text>
</g>
<!-- Node10&#45;&gt;Node1 -->
<g id="edge12_Node000001_Node000010" class="edge">
<title>Node10&#45;&gt;Node1</title>
<g id="a_edge12_Node000001_Node000010"><a xlink:title=" ">
<path fill="none" stroke="#9a32cd" stroke-dasharray="5,2" d="M718.75,-26.2C757.4,-34.12 805.81,-46.81 846,-66 865.49,-75.31 885.04,-90.43 898.33,-101.8"/>
<polygon fill="#9a32cd" stroke="#9a32cd" points="719.12,-22.71 708.63,-24.19 717.76,-29.57 719.12,-22.71"/>
</a>
</g>
<text text-anchor="middle" x="795" y="-69" font-family="Helvetica,sans-Serif" font-size="10.00" fill="grey"> subParserUsed</text>
</g>
</g>
</svg>
