<?xml version="1.0" encoding="UTF-8" standalone="no"?>
<!DOCTYPE svg PUBLIC "-//W3C//DTD SVG 1.1//EN"
 "http://www.w3.org/Graphics/SVG/1.1/DTD/svg11.dtd">
<!-- Generated by graphviz version 2.43.0 (0)
 -->
<!-- Title: algorithm/include/match.hpp Pages: 1 -->
<svg width="505pt" height="93pt"
 viewBox="0.00 0.00 504.50 93.00" xmlns="http://www.w3.org/2000/svg" xmlns:xlink="http://www.w3.org/1999/xlink">
<g id="graph0" class="graph" transform="scale(1 1) rotate(0) translate(4 89)">
<title>algorithm/include/match.hpp</title>
<!-- Node1 -->
<g id="Node000001" class="node">
<title>Node1</title>
<g id="a_Node000001"><a xlink:title="The declarations (match) in the algorithm module.">
<polygon fill="#999999" stroke="#666666" points="327,-85 170,-85 170,-66 327,-66 327,-85"/>
<text text-anchor="middle" x="248.5" y="-73" font-family="Helvetica,sans-Serif" font-size="10.00">algorithm/include/match.hpp</text>
</a>
</g>
</g>
<!-- Node2 -->
<g id="Node000002" class="node">
<title>Node2</title>
<g id="a_Node000002"><a xlink:href="../../d1/d30/match_8cpp.html" target="_top" xlink:title="The definitions (match) in the algorithm module.">
<polygon fill="white" stroke="#666666" points="153,-24.5 0,-24.5 0,-5.5 153,-5.5 153,-24.5"/>
<text text-anchor="middle" x="76.5" y="-12.5" font-family="Helvetica,sans-Serif" font-size="10.00">algorithm/source/match.cpp</text>
</a>
</g>
</g>
<!-- Node1&#45;&gt;Node2 -->
<g id="edge1_Node000001_Node000002" class="edge">
<title>Node1&#45;&gt;Node2</title>
<g id="a_edge1_Node000001_Node000002"><a xlink:title=" ">
<path fill="none" stroke="#63b8ff" d="M213.72,-62.67C180.46,-51.36 131.11,-34.57 101.54,-24.52"/>
<polygon fill="#63b8ff" stroke="#63b8ff" points="212.9,-66.09 223.49,-65.99 215.15,-59.46 212.9,-66.09"/>
</a>
</g>
</g>
<!-- Node3 -->
<g id="Node000003" class="node">
<title>Node3</title>
<g id="a_Node000003"><a xlink:href="../../d8/d64/apply__algorithm_8cpp.html" target="_top" xlink:title="The definitions (apply_algorithm) in the application module.">
<polygon fill="white" stroke="#666666" points="326,-30 171,-30 171,0 326,0 326,-30"/>
<text text-anchor="start" x="179" y="-18" font-family="Helvetica,sans-Serif" font-size="10.00">application/example</text>
<text text-anchor="middle" x="248.5" y="-7" font-family="Helvetica,sans-Serif" font-size="10.00">/source/apply_algorithm.cpp</text>
</a>
</g>
</g>
<!-- Node1&#45;&gt;Node3 -->
<g id="edge2_Node000001_Node000003" class="edge">
<title>Node1&#45;&gt;Node3</title>
<g id="a_edge2_Node000001_Node000003"><a xlink:title=" ">
<path fill="none" stroke="#63b8ff" d="M248.5,-55.65C248.5,-47.36 248.5,-37.78 248.5,-30.11"/>
<polygon fill="#63b8ff" stroke="#63b8ff" points="245,-55.87 248.5,-65.87 252,-55.87 245,-55.87"/>
</a>
</g>
</g>
<!-- Node4 -->
<g id="Node000004" class="node">
<title>Node4</title>
<g id="a_Node000004"><a xlink:href="../../df/de8/test__algorithm_8cpp.html" target="_top" xlink:title="The definitions (test_algorithm) in the test module.">
<polygon fill="white" stroke="#666666" points="496.5,-24.5 344.5,-24.5 344.5,-5.5 496.5,-5.5 496.5,-24.5"/>
<text text-anchor="middle" x="420.5" y="-12.5" font-family="Helvetica,sans-Serif" font-size="10.00">test/unit/test_algorithm.cpp</text>
</a>
</g>
</g>
<!-- Node1&#45;&gt;Node4 -->
<g id="edge3_Node000001_Node000004" class="edge">
<title>Node1&#45;&gt;Node4</title>
<g id="a_edge3_Node000001_Node000004"><a xlink:title=" ">
<path fill="none" stroke="#63b8ff" d="M283.28,-62.67C316.54,-51.36 365.89,-34.57 395.46,-24.52"/>
<polygon fill="#63b8ff" stroke="#63b8ff" points="281.85,-59.46 273.51,-65.99 284.1,-66.09 281.85,-59.46"/>
</a>
</g>
</g>
</g>
</svg>
