<?xml version="1.0" encoding="UTF-8" standalone="no"?>
<!DOCTYPE svg PUBLIC "-//W3C//DTD SVG 1.1//EN"
 "http://www.w3.org/Graphics/SVG/1.1/DTD/svg11.dtd">
<!-- Generated by graphviz version 2.43.0 (0)
 -->
<!-- Title: application::command::Command::DispatchedTask Pages: 1 -->
<svg width="1367pt" height="127pt"
 viewBox="0.00 0.00 1367.00 127.00" xmlns="http://www.w3.org/2000/svg" xmlns:xlink="http://www.w3.org/1999/xlink">
<g id="graph0" class="graph" transform="scale(1 1) rotate(0) translate(4 123)">
<title>application::command::Command::DispatchedTask</title>
<!-- Node1 -->
<g id="Node000001" class="node">
<title>Node1</title>
<g id="a_Node000001"><a xlink:title="Manage all types of tasks.">
<polygon fill="#999999" stroke="#666666" points="1359,-47 1204,-47 1204,-17 1359,-17 1359,-47"/>
<text text-anchor="start" x="1212" y="-35" font-family="Helvetica,sans-Serif" font-size="10.00">application::command</text>
<text text-anchor="middle" x="1281.5" y="-24" font-family="Helvetica,sans-Serif" font-size="10.00">::Command::DispatchedTask</text>
</a>
</g>
</g>
<!-- Node2 -->
<g id="Node000002" class="node">
<title>Node2</title>
<g id="a_Node000002"><a xlink:href="../../d9/dca/classapplication_1_1command_1_1Command_1_1BasicTask.html" target="_top" xlink:title="Manage basic tasks.">
<polygon fill="white" stroke="#666666" points="1102.5,-78 975.5,-78 975.5,-48 1102.5,-48 1102.5,-78"/>
<text text-anchor="start" x="983.5" y="-66" font-family="Helvetica,sans-Serif" font-size="10.00">application::command</text>
<text text-anchor="middle" x="1039" y="-55" font-family="Helvetica,sans-Serif" font-size="10.00">::Command::BasicTask</text>
</a>
</g>
</g>
<!-- Node2&#45;&gt;Node1 -->
<g id="edge1_Node000001_Node000002" class="edge">
<title>Node2&#45;&gt;Node1</title>
<g id="a_edge1_Node000001_Node000002"><a xlink:title=" ">
<path fill="none" stroke="#9a32cd" stroke-dasharray="5,2" d="M1112.55,-53.65C1141.33,-49.94 1174.46,-45.67 1203.65,-41.91"/>
<polygon fill="#9a32cd" stroke="#9a32cd" points="1112.03,-50.19 1102.56,-54.94 1112.93,-57.13 1112.03,-50.19"/>
</a>
</g>
<text text-anchor="middle" x="1156" y="-55" font-family="Helvetica,sans-Serif" font-size="10.00" fill="grey"> basicTask</text>
</g>
<!-- Node3 -->
<g id="Node000003" class="node">
<title>Node3</title>
<g id="a_Node000003"><a target="_parent" xlink:href="https://gcc.gnu.org/onlinedocs/gcc-12.3.0/libstdc++/api/a02103.html" xlink:title=" ">
<polygon fill="white" stroke="#666666" points="879,-83.5 710,-83.5 710,-42.5 879,-42.5 879,-83.5"/>
<text text-anchor="start" x="718" y="-71.5" font-family="Helvetica,sans-Serif" font-size="10.00">std::bitset&lt; application</text>
<text text-anchor="start" x="718" y="-60.5" font-family="Helvetica,sans-Serif" font-size="10.00">::command::Bottom&lt; Category</text>
<text text-anchor="middle" x="794.5" y="-49.5" font-family="Helvetica,sans-Serif" font-size="10.00"> &gt;::value &gt;</text>
</a>
</g>
</g>
<!-- Node3&#45;&gt;Node2 -->
<g id="edge2_Node000002_Node000003" class="edge">
<title>Node3&#45;&gt;Node2</title>
<g id="a_edge2_Node000002_Node000003"><a xlink:title=" ">
<path fill="none" stroke="#9a32cd" stroke-dasharray="5,2" d="M889.37,-63C918.15,-63 949.09,-63 975.26,-63"/>
<polygon fill="#9a32cd" stroke="#9a32cd" points="889.29,-59.5 879.29,-63 889.29,-66.5 889.29,-59.5"/>
</a>
</g>
<text text-anchor="middle" x="924.5" y="-66" font-family="Helvetica,sans-Serif" font-size="10.00" fill="grey"> primaryBit</text>
</g>
<!-- Node4 -->
<g id="Node000004" class="node">
<title>Node4</title>
<g id="a_Node000004"><a target="_parent" xlink:href="https://gcc.gnu.org/onlinedocs/gcc-12.3.0/libstdc++/api/a02075.html" xlink:title=" ">
<polygon fill="white" stroke="#666666" points="408,-101 265,-101 265,-27 408,-27 408,-101"/>
<text text-anchor="start" x="273" y="-89" font-family="Helvetica,sans-Serif" font-size="10.00">std::_Base_bitset&lt;</text>
<text text-anchor="start" x="273" y="-78" font-family="Helvetica,sans-Serif" font-size="10.00">((_Nb)/(__CHAR_BIT_</text>
<text text-anchor="start" x="273" y="-67" font-family="Helvetica,sans-Serif" font-size="10.00">_ *__SIZEOF_LONG__)+</text>
<text text-anchor="start" x="273" y="-56" font-family="Helvetica,sans-Serif" font-size="10.00">((_Nb) %(__CHAR_BIT__</text>
<text text-anchor="start" x="273" y="-45" font-family="Helvetica,sans-Serif" font-size="10.00"> *__SIZEOF_LONG__)==0 </text>
<text text-anchor="middle" x="336.5" y="-34" font-family="Helvetica,sans-Serif" font-size="10.00">? 0 :1))&gt;</text>
</a>
</g>
</g>
<!-- Node4&#45;&gt;Node3 -->
<g id="edge3_Node000003_Node000004" class="edge">
<title>Node4&#45;&gt;Node3</title>
<g id="a_edge3_Node000003_Node000004"><a xlink:title=" ">
<path fill="none" stroke="#8b1a1a" d="M418.5,-69.48C490.38,-73.53 598.23,-77.61 692,-73 697.84,-72.71 703.85,-72.33 709.91,-71.89"/>
<polygon fill="#8b1a1a" stroke="#8b1a1a" points="418.34,-65.97 408.16,-68.89 417.94,-72.96 418.34,-65.97"/>
</a>
</g>
</g>
<!-- Node6 -->
<g id="Node000006" class="node">
<title>Node6</title>
<g id="a_Node000006"><a target="_parent" xlink:href="https://gcc.gnu.org/onlinedocs/gcc-12.3.0/libstdc++/api/a02103.html" xlink:title=" ">
<polygon fill="white" stroke="#666666" points="550,-57 445,-57 445,-27 550,-27 550,-57"/>
<text text-anchor="start" x="453" y="-45" font-family="Helvetica,sans-Serif" font-size="10.00">std::bitset&lt; size_t</text>
<text text-anchor="middle" x="497.5" y="-34" font-family="Helvetica,sans-Serif" font-size="10.00"> _Nb &gt;</text>
</a>
</g>
</g>
<!-- Node4&#45;&gt;Node6 -->
<g id="edge6_Node000006_Node000004" class="edge">
<title>Node4&#45;&gt;Node6</title>
<g id="a_edge6_Node000006_Node000004"><a xlink:title=" ">
<path fill="none" stroke="#8b1a1a" d="M418.27,-52.82C427.24,-51.58 436.19,-50.35 444.65,-49.17"/>
<polygon fill="#8b1a1a" stroke="#8b1a1a" points="417.59,-49.38 408.17,-54.22 418.55,-56.32 417.59,-49.38"/>
</a>
</g>
</g>
<!-- Node5 -->
<g id="Node000005" class="node">
<title>Node5</title>
<g id="a_Node000005"><a target="_parent" xlink:href="https://gcc.gnu.org/onlinedocs/gcc-12.3.0/libstdc++/api/a02075.html" xlink:title=" ">
<polygon fill="white" stroke="#666666" points="108,-79 0,-79 0,-49 108,-49 108,-79"/>
<text text-anchor="start" x="8" y="-67" font-family="Helvetica,sans-Serif" font-size="10.00">std::_Base_bitset&lt;</text>
<text text-anchor="middle" x="54" y="-56" font-family="Helvetica,sans-Serif" font-size="10.00"> size_t _Nw &gt;</text>
</a>
</g>
</g>
<!-- Node5&#45;&gt;Node4 -->
<g id="edge4_Node000004_Node000005" class="edge">
<title>Node5&#45;&gt;Node4</title>
<g id="a_edge4_Node000004_Node000005"><a xlink:title=" ">
<path fill="none" stroke="orange" stroke-dasharray="5,2" d="M118.28,-64C161.85,-64 219.79,-64 264.87,-64"/>
<polygon fill="orange" stroke="orange" points="118.09,-60.5 108.09,-64 118.09,-67.5 118.09,-60.5"/>
</a>
</g>
<text text-anchor="start" x="126" y="-111" font-family="Helvetica,sans-Serif" font-size="10.00" fill="grey"> &lt;((_Nb)/(__CHAR_BIT</text>
<text text-anchor="start" x="126" y="-100" font-family="Helvetica,sans-Serif" font-size="10.00" fill="grey">__ *__SIZEOF_LONG__)</text>
<text text-anchor="start" x="126" y="-89" font-family="Helvetica,sans-Serif" font-size="10.00" fill="grey">+((_Nb) %(__CHAR_BIT</text>
<text text-anchor="start" x="126" y="-78" font-family="Helvetica,sans-Serif" font-size="10.00" fill="grey">__ *__SIZEOF_LONG__)=</text>
<text text-anchor="middle" x="186.5" y="-67" font-family="Helvetica,sans-Serif" font-size="10.00" fill="grey">=0 ? 0 :1))&gt;</text>
</g>
<!-- Node6&#45;&gt;Node3 -->
<g id="edge5_Node000003_Node000006" class="edge">
<title>Node6&#45;&gt;Node3</title>
<g id="a_edge5_Node000003_Node000006"><a xlink:title=" ">
<path fill="none" stroke="orange" stroke-dasharray="5,2" d="M560.27,-40.13C562.88,-40.08 565.47,-40.04 568,-40 623.11,-39.21 637.23,-33.87 692,-40 697.84,-40.65 703.83,-41.51 709.84,-42.51"/>
<polygon fill="orange" stroke="orange" points="560.03,-36.63 550.11,-40.35 560.19,-43.63 560.03,-36.63"/>
</a>
</g>
<text text-anchor="start" x="568" y="-65" font-family="Helvetica,sans-Serif" font-size="10.00" fill="grey"> &lt; application::command</text>
<text text-anchor="start" x="568" y="-54" font-family="Helvetica,sans-Serif" font-size="10.00" fill="grey">::Bottom&lt; Category &gt;::</text>
<text text-anchor="middle" x="630" y="-43" font-family="Helvetica,sans-Serif" font-size="10.00" fill="grey">value &gt;</text>
</g>
<!-- Node7 -->
<g id="Node000007" class="node">
<title>Node7</title>
<g id="a_Node000007"><a xlink:href="../../d3/d66/classapplication_1_1command_1_1Command_1_1RegularTask.html" target="_top" xlink:title="Manage regular tasks by sub&#45;cli.">
<polygon fill="white" stroke="#666666" points="1108,-30 970,-30 970,0 1108,0 1108,-30"/>
<text text-anchor="start" x="978" y="-18" font-family="Helvetica,sans-Serif" font-size="10.00">application::command</text>
<text text-anchor="middle" x="1039" y="-7" font-family="Helvetica,sans-Serif" font-size="10.00">::Command::RegularTask</text>
</a>
</g>
</g>
<!-- Node7&#45;&gt;Node1 -->
<g id="edge7_Node000001_Node000007" class="edge">
<title>Node7&#45;&gt;Node1</title>
<g id="a_edge7_Node000001_Node000007"><a xlink:title=" ">
<path fill="none" stroke="#9a32cd" stroke-dasharray="5,2" d="M1118.26,-18.71C1140.19,-19.9 1164.04,-21.35 1186,-23 1191.83,-23.44 1197.87,-23.93 1203.93,-24.44"/>
<polygon fill="#9a32cd" stroke="#9a32cd" points="1118.18,-15.2 1108,-18.16 1117.8,-22.19 1118.18,-15.2"/>
</a>
</g>
<text text-anchor="middle" x="1156" y="-26" font-family="Helvetica,sans-Serif" font-size="10.00" fill="grey"> regularTask</text>
</g>
</g>
</svg>
