<?xml version="1.0" encoding="UTF-8" standalone="no"?>
<!DOCTYPE svg PUBLIC "-//W3C//DTD SVG 1.1//EN"
 "http://www.w3.org/Graphics/SVG/1.1/DTD/svg11.dtd">
<!-- Generated by graphviz version 2.43.0 (0)
 -->
<!-- Title: utility::socket::Socket Pages: 1 -->
<svg width="461pt" height="137pt"
 viewBox="0.00 0.00 461.00 137.00" xmlns="http://www.w3.org/2000/svg" xmlns:xlink="http://www.w3.org/1999/xlink">
<g id="graph0" class="graph" transform="scale(1 1) rotate(0) translate(4 133)">
<title>utility::socket::Socket</title>
<!-- Node1 -->
<g id="Node000001" class="node">
<title>Node1</title>
<g id="a_Node000001"><a xlink:title="Network socket.">
<polygon fill="#999999" stroke="#666666" points="284.5,-129 164.5,-129 164.5,-110 284.5,-110 284.5,-129"/>
<text text-anchor="middle" x="224.5" y="-117" font-family="Helvetica,sans-Serif" font-size="10.00">utility::socket::Socket</text>
</a>
</g>
</g>
<!-- Node2 -->
<g id="Node000002" class="node">
<title>Node2</title>
<g id="a_Node000002"><a xlink:href="../../de/de4/classutility_1_1socket_1_1TCPServer.html" target="_top" xlink:title="TCP server.">
<polygon fill="white" stroke="#666666" points="137,-74 0,-74 0,-55 137,-55 137,-74"/>
<text text-anchor="middle" x="68.5" y="-62" font-family="Helvetica,sans-Serif" font-size="10.00">utility::socket::TCPServer</text>
</a>
</g>
</g>
<!-- Node1&#45;&gt;Node2 -->
<g id="edge1_Node000001_Node000002" class="edge">
<title>Node1&#45;&gt;Node2</title>
<g id="a_edge1_Node000001_Node000002"><a xlink:title=" ">
<path fill="none" stroke="#63b8ff" d="M189.68,-106.67C160.59,-96.79 119.8,-82.93 93.76,-74.08"/>
<polygon fill="#63b8ff" stroke="#63b8ff" points="188.84,-110.08 199.44,-109.98 191.09,-103.45 188.84,-110.08"/>
</a>
</g>
</g>
<!-- Node3 -->
<g id="Node000003" class="node">
<title>Node3</title>
<g id="a_Node000003"><a xlink:href="../../d1/daf/classutility_1_1socket_1_1TCPSocket.html" target="_top" xlink:title="TCP socket.">
<polygon fill="white" stroke="#666666" points="293.5,-74 155.5,-74 155.5,-55 293.5,-55 293.5,-74"/>
<text text-anchor="middle" x="224.5" y="-62" font-family="Helvetica,sans-Serif" font-size="10.00">utility::socket::TCPSocket</text>
</a>
</g>
</g>
<!-- Node1&#45;&gt;Node3 -->
<g id="edge2_Node000001_Node000003" class="edge">
<title>Node1&#45;&gt;Node3</title>
<g id="a_edge2_Node000001_Node000003"><a xlink:title=" ">
<path fill="none" stroke="#63b8ff" d="M224.5,-99.66C224.5,-90.93 224.5,-80.99 224.5,-74.09"/>
<polygon fill="#63b8ff" stroke="#63b8ff" points="221,-99.75 224.5,-109.75 228,-99.75 221,-99.75"/>
</a>
</g>
</g>
<!-- Node4 -->
<g id="Node000004" class="node">
<title>Node4</title>
<g id="a_Node000004"><a xlink:href="../../db/d57/classutility_1_1socket_1_1UDPSocket.html" target="_top" xlink:title="UDP socket.">
<polygon fill="white" stroke="#666666" points="453,-74 312,-74 312,-55 453,-55 453,-74"/>
<text text-anchor="middle" x="382.5" y="-62" font-family="Helvetica,sans-Serif" font-size="10.00">utility::socket::UDPSocket</text>
</a>
</g>
</g>
<!-- Node1&#45;&gt;Node4 -->
<g id="edge3_Node000001_Node000004" class="edge">
<title>Node1&#45;&gt;Node4</title>
<g id="a_edge3_Node000001_Node000004"><a xlink:title=" ">
<path fill="none" stroke="#63b8ff" d="M259.38,-106.8C288.87,-96.91 330.43,-82.97 356.92,-74.08"/>
<polygon fill="#63b8ff" stroke="#63b8ff" points="258.25,-103.49 249.89,-109.98 260.48,-110.12 258.25,-103.49"/>
</a>
</g>
</g>
<!-- Node5 -->
<g id="Node000005" class="node">
<title>Node5</title>
<g id="a_Node000005"><a xlink:href="../../de/dc3/classutility_1_1socket_1_1UDPServer.html" target="_top" xlink:title="UDP server.">
<polygon fill="white" stroke="#666666" points="452.5,-19 312.5,-19 312.5,0 452.5,0 452.5,-19"/>
<text text-anchor="middle" x="382.5" y="-7" font-family="Helvetica,sans-Serif" font-size="10.00">utility::socket::UDPServer</text>
</a>
</g>
</g>
<!-- Node4&#45;&gt;Node5 -->
<g id="edge4_Node000004_Node000005" class="edge">
<title>Node4&#45;&gt;Node5</title>
<g id="a_edge4_Node000004_Node000005"><a xlink:title=" ">
<path fill="none" stroke="#63b8ff" d="M382.5,-44.66C382.5,-35.93 382.5,-25.99 382.5,-19.09"/>
<polygon fill="#63b8ff" stroke="#63b8ff" points="379,-44.75 382.5,-54.75 386,-44.75 379,-44.75"/>
</a>
</g>
</g>
</g>
</svg>
