<?xml version="1.0" encoding="UTF-8" standalone="no"?>
<!DOCTYPE svg PUBLIC "-//W3C//DTD SVG 1.1//EN"
 "http://www.w3.org/Graphics/SVG/1.1/DTD/svg11.dtd">
<!-- Generated by graphviz version 2.43.0 (0)
 -->
<!-- Title: application::app_ds::DataStructureTask Pages: 1 -->
<svg width="1111pt" height="121pt"
 viewBox="0.00 0.00 1111.00 121.24" xmlns="http://www.w3.org/2000/svg" xmlns:xlink="http://www.w3.org/1999/xlink">
<g id="graph0" class="graph" transform="scale(1 1) rotate(0) translate(4 117.24)">
<title>application::app_ds::DataStructureTask</title>
<!-- Node1 -->
<g id="Node000001" class="node">
<title>Node1</title>
<g id="a_Node000001"><a xlink:title="Manage data structure tasks.">
<polygon fill="#999999" stroke="#666666" points="1103,-64.5 991,-64.5 991,-34.5 1103,-34.5 1103,-64.5"/>
<text text-anchor="start" x="999" y="-52.5" font-family="Helvetica,sans-Serif" font-size="10.00">application::app_ds</text>
<text text-anchor="middle" x="1047" y="-41.5" font-family="Helvetica,sans-Serif" font-size="10.00">::DataStructureTask</text>
</a>
</g>
</g>
<!-- Node2 -->
<g id="Node000002" class="node">
<title>Node2</title>
<g id="a_Node000002"><a target="_parent" xlink:href="https://gcc.gnu.org/onlinedocs/gcc-12.3.0/libstdc++/api/a02103.html" xlink:title=" ">
<polygon fill="white" stroke="#666666" points="910,-100 728,-100 728,-59 910,-59 910,-100"/>
<text text-anchor="start" x="736" y="-88" font-family="Helvetica,sans-Serif" font-size="10.00">std::bitset&lt; application</text>
<text text-anchor="start" x="736" y="-77" font-family="Helvetica,sans-Serif" font-size="10.00">::app_ds::Bottom&lt; LinearInstance</text>
<text text-anchor="middle" x="819" y="-66" font-family="Helvetica,sans-Serif" font-size="10.00"> &gt;::value &gt;</text>
</a>
</g>
</g>
<!-- Node2&#45;&gt;Node1 -->
<g id="edge1_Node000001_Node000002" class="edge">
<title>Node2&#45;&gt;Node1</title>
<g id="a_edge1_Node000001_Node000002"><a xlink:title=" ">
<path fill="none" stroke="#9a32cd" stroke-dasharray="5,2" d="M920.28,-66.19C944.58,-62.96 969.66,-59.63 990.98,-56.8"/>
<polygon fill="#9a32cd" stroke="#9a32cd" points="919.75,-62.73 910.3,-67.51 920.67,-69.67 919.75,-62.73"/>
</a>
</g>
<text text-anchor="middle" x="950.5" y="-67.5" font-family="Helvetica,sans-Serif" font-size="10.00" fill="grey"> linearBit</text>
</g>
<!-- Node3 -->
<g id="Node000003" class="node">
<title>Node3</title>
<g id="a_Node000003"><a target="_parent" xlink:href="https://gcc.gnu.org/onlinedocs/gcc-12.3.0/libstdc++/api/a02075.html" xlink:title=" ">
<polygon fill="white" stroke="#666666" points="408,-92.5 265,-92.5 265,-18.5 408,-18.5 408,-92.5"/>
<text text-anchor="start" x="273" y="-80.5" font-family="Helvetica,sans-Serif" font-size="10.00">std::_Base_bitset&lt;</text>
<text text-anchor="start" x="273" y="-69.5" font-family="Helvetica,sans-Serif" font-size="10.00">((_Nb)/(__CHAR_BIT_</text>
<text text-anchor="start" x="273" y="-58.5" font-family="Helvetica,sans-Serif" font-size="10.00">_ *__SIZEOF_LONG__)+</text>
<text text-anchor="start" x="273" y="-47.5" font-family="Helvetica,sans-Serif" font-size="10.00">((_Nb) %(__CHAR_BIT__</text>
<text text-anchor="start" x="273" y="-36.5" font-family="Helvetica,sans-Serif" font-size="10.00"> *__SIZEOF_LONG__)==0 </text>
<text text-anchor="middle" x="336.5" y="-25.5" font-family="Helvetica,sans-Serif" font-size="10.00">? 0 :1))&gt;</text>
</a>
</g>
</g>
<!-- Node3&#45;&gt;Node2 -->
<g id="edge2_Node000002_Node000003" class="edge">
<title>Node3&#45;&gt;Node2</title>
<g id="a_edge2_Node000002_Node000003"><a xlink:title=" ">
<path fill="none" stroke="#8b1a1a" d="M417.95,-78.26C461.89,-89.52 517.49,-101.87 568,-107.5 630.72,-114.49 647.4,-115.48 710,-107.5 722.87,-105.86 736.41,-103.16 749.37,-100.07"/>
<polygon fill="#8b1a1a" stroke="#8b1a1a" points="418.75,-74.85 408.19,-75.73 416.99,-81.63 418.75,-74.85"/>
</a>
</g>
</g>
<!-- Node5 -->
<g id="Node000005" class="node">
<title>Node5</title>
<g id="a_Node000005"><a target="_parent" xlink:href="https://gcc.gnu.org/onlinedocs/gcc-12.3.0/libstdc++/api/a02103.html" xlink:title=" ">
<polygon fill="white" stroke="#666666" points="550,-70.5 445,-70.5 445,-40.5 550,-40.5 550,-70.5"/>
<text text-anchor="start" x="453" y="-58.5" font-family="Helvetica,sans-Serif" font-size="10.00">std::bitset&lt; size_t</text>
<text text-anchor="middle" x="497.5" y="-47.5" font-family="Helvetica,sans-Serif" font-size="10.00"> _Nb &gt;</text>
</a>
</g>
</g>
<!-- Node3&#45;&gt;Node5 -->
<g id="edge5_Node000005_Node000003" class="edge">
<title>Node3&#45;&gt;Node5</title>
<g id="a_edge5_Node000005_Node000003"><a xlink:title=" ">
<path fill="none" stroke="#8b1a1a" d="M418.27,-55.5C427.24,-55.5 436.19,-55.5 444.65,-55.5"/>
<polygon fill="#8b1a1a" stroke="#8b1a1a" points="418.17,-52 408.17,-55.5 418.17,-59 418.17,-52"/>
</a>
</g>
</g>
<!-- Node6 -->
<g id="Node000006" class="node">
<title>Node6</title>
<g id="a_Node000006"><a target="_parent" xlink:href="https://gcc.gnu.org/onlinedocs/gcc-12.3.0/libstdc++/api/a02103.html" xlink:title=" ">
<polygon fill="white" stroke="#666666" points="905,-41 733,-41 733,0 905,0 905,-41"/>
<text text-anchor="start" x="741" y="-29" font-family="Helvetica,sans-Serif" font-size="10.00">std::bitset&lt; application</text>
<text text-anchor="start" x="741" y="-18" font-family="Helvetica,sans-Serif" font-size="10.00">::app_ds::Bottom&lt; TreeInstance</text>
<text text-anchor="middle" x="819" y="-7" font-family="Helvetica,sans-Serif" font-size="10.00"> &gt;::value &gt;</text>
</a>
</g>
</g>
<!-- Node3&#45;&gt;Node6 -->
<g id="edge7_Node000006_Node000003" class="edge">
<title>Node3&#45;&gt;Node6</title>
<g id="a_edge7_Node000006_Node000003"><a xlink:title=" ">
<path fill="none" stroke="#8b1a1a" d="M418.07,-37.19C427.14,-35.23 436.26,-33.29 445,-31.5 499.48,-20.33 512.62,-13.63 568,-8.5 630.84,-2.68 646.99,-5.01 710,-8.5 717.44,-8.91 725.16,-9.48 732.88,-10.15"/>
<polygon fill="#8b1a1a" stroke="#8b1a1a" points="417.28,-33.78 408.26,-39.34 418.78,-40.62 417.28,-33.78"/>
</a>
</g>
</g>
<!-- Node4 -->
<g id="Node000004" class="node">
<title>Node4</title>
<g id="a_Node000004"><a target="_parent" xlink:href="https://gcc.gnu.org/onlinedocs/gcc-12.3.0/libstdc++/api/a02075.html" xlink:title=" ">
<polygon fill="white" stroke="#666666" points="108,-70.5 0,-70.5 0,-40.5 108,-40.5 108,-70.5"/>
<text text-anchor="start" x="8" y="-58.5" font-family="Helvetica,sans-Serif" font-size="10.00">std::_Base_bitset&lt;</text>
<text text-anchor="middle" x="54" y="-47.5" font-family="Helvetica,sans-Serif" font-size="10.00"> size_t _Nw &gt;</text>
</a>
</g>
</g>
<!-- Node4&#45;&gt;Node3 -->
<g id="edge3_Node000003_Node000004" class="edge">
<title>Node4&#45;&gt;Node3</title>
<g id="a_edge3_Node000003_Node000004"><a xlink:title=" ">
<path fill="none" stroke="orange" stroke-dasharray="5,2" d="M118.28,-55.5C161.85,-55.5 219.79,-55.5 264.87,-55.5"/>
<polygon fill="orange" stroke="orange" points="118.09,-52 108.09,-55.5 118.09,-59 118.09,-52"/>
</a>
</g>
<text text-anchor="start" x="126" y="-102.5" font-family="Helvetica,sans-Serif" font-size="10.00" fill="grey"> &lt;((_Nb)/(__CHAR_BIT</text>
<text text-anchor="start" x="126" y="-91.5" font-family="Helvetica,sans-Serif" font-size="10.00" fill="grey">__ *__SIZEOF_LONG__)</text>
<text text-anchor="start" x="126" y="-80.5" font-family="Helvetica,sans-Serif" font-size="10.00" fill="grey">+((_Nb) %(__CHAR_BIT</text>
<text text-anchor="start" x="126" y="-69.5" font-family="Helvetica,sans-Serif" font-size="10.00" fill="grey">__ *__SIZEOF_LONG__)=</text>
<text text-anchor="middle" x="186.5" y="-58.5" font-family="Helvetica,sans-Serif" font-size="10.00" fill="grey">=0 ? 0 :1))&gt;</text>
</g>
<!-- Node5&#45;&gt;Node2 -->
<g id="edge4_Node000002_Node000005" class="edge">
<title>Node5&#45;&gt;Node2</title>
<g id="a_edge4_Node000002_Node000005"><a xlink:title=" ">
<path fill="none" stroke="orange" stroke-dasharray="5,2" d="M560.35,-60.15C607.97,-63.72 674.47,-68.72 727.98,-72.74"/>
<polygon fill="orange" stroke="orange" points="560.42,-56.64 550.19,-59.38 559.9,-63.62 560.42,-56.64"/>
</a>
</g>
<text text-anchor="start" x="568" y="-95.5" font-family="Helvetica,sans-Serif" font-size="10.00" fill="grey"> &lt; application::app</text>
<text text-anchor="start" x="568" y="-84.5" font-family="Helvetica,sans-Serif" font-size="10.00" fill="grey">_ds::Bottom&lt; LinearInstance</text>
<text text-anchor="middle" x="639" y="-73.5" font-family="Helvetica,sans-Serif" font-size="10.00" fill="grey"> &gt;::value &gt;</text>
</g>
<!-- Node5&#45;&gt;Node6 -->
<g id="edge8_Node000006_Node000005" class="edge">
<title>Node5&#45;&gt;Node6</title>
<g id="a_edge8_Node000006_Node000005"><a xlink:title=" ">
<path fill="none" stroke="orange" stroke-dasharray="5,2" d="M533.38,-35.98C544.15,-30.92 556.27,-26.14 568,-23.5 621.88,-11.35 683.97,-10.54 732.79,-12.8"/>
<polygon fill="orange" stroke="orange" points="531.72,-32.9 524.31,-40.47 534.83,-39.17 531.72,-32.9"/>
</a>
</g>
<text text-anchor="start" x="573" y="-48.5" font-family="Helvetica,sans-Serif" font-size="10.00" fill="grey"> &lt; application::app</text>
<text text-anchor="start" x="573" y="-37.5" font-family="Helvetica,sans-Serif" font-size="10.00" fill="grey">_ds::Bottom&lt; TreeInstance</text>
<text text-anchor="middle" x="639" y="-26.5" font-family="Helvetica,sans-Serif" font-size="10.00" fill="grey"> &gt;::value &gt;</text>
</g>
<!-- Node6&#45;&gt;Node1 -->
<g id="edge6_Node000001_Node000006" class="edge">
<title>Node6&#45;&gt;Node1</title>
<g id="a_edge6_Node000001_Node000006"><a xlink:title=" ">
<path fill="none" stroke="#9a32cd" stroke-dasharray="5,2" d="M915.57,-32.18C934.6,-34.56 954.44,-37.08 973,-39.5 978.71,-40.25 984.66,-41.04 990.61,-41.84"/>
<polygon fill="#9a32cd" stroke="#9a32cd" points="915.76,-28.68 905.4,-30.91 914.89,-35.62 915.76,-28.68"/>
</a>
</g>
<text text-anchor="middle" x="950.5" y="-42.5" font-family="Helvetica,sans-Serif" font-size="10.00" fill="grey"> treeBit</text>
</g>
</g>
</svg>
