<?xml version="1.0" encoding="UTF-8" standalone="no"?>
<!DOCTYPE svg PUBLIC "-//W3C//DTD SVG 1.1//EN"
 "http://www.w3.org/Graphics/SVG/1.1/DTD/svg11.dtd">
<!-- Generated by graphviz version 2.43.0 (0)
 -->
<!-- Title: application::log::Log::getInstance Pages: 1 -->
<svg width="435pt" height="134pt"
 viewBox="0.00 0.00 435.00 134.00" xmlns="http://www.w3.org/2000/svg" xmlns:xlink="http://www.w3.org/1999/xlink">
<g id="graph0" class="graph" transform="scale(1 1) rotate(0) translate(4 130)">
<title>application::log::Log::getInstance</title>
<!-- Node1 -->
<g id="Node000001" class="node">
<title>Node1</title>
<g id="a_Node000001"><a xlink:title="Get the Log instance.">
<polygon fill="#999999" stroke="#666666" points="427,-78 312,-78 312,-48 427,-48 427,-78"/>
<text text-anchor="start" x="320" y="-66" font-family="Helvetica,sans-Serif" font-size="10.00">application::log::Log</text>
<text text-anchor="middle" x="369.5" y="-55" font-family="Helvetica,sans-Serif" font-size="10.00">::getInstance</text>
</a>
</g>
</g>
<!-- Node2 -->
<g id="Node000002" class="node">
<title>Node2</title>
<g id="a_Node000002"><a xlink:href="../../d9/d29/classapplication_1_1log_1_1Log_1_1Holder.html#ab911851f1201c8e6e99e2e9c3e304456" target="_top" xlink:title="Flush the output stream.">
<polygon fill="white" stroke="#666666" points="271,-126 156,-126 156,-96 271,-96 271,-126"/>
<text text-anchor="start" x="164" y="-114" font-family="Helvetica,sans-Serif" font-size="10.00">application::log::Log</text>
<text text-anchor="middle" x="213.5" y="-103" font-family="Helvetica,sans-Serif" font-size="10.00">::Holder::flush</text>
</a>
</g>
</g>
<!-- Node1&#45;&gt;Node2 -->
<g id="edge1_Node000001_Node000002" class="edge">
<title>Node1&#45;&gt;Node2</title>
<g id="a_edge1_Node000001_Node000002"><a xlink:title=" ">
<path fill="none" stroke="#63b8ff" d="M310.54,-81.07C294.74,-85.99 277.81,-91.27 262.63,-96"/>
<polygon fill="#63b8ff" stroke="#63b8ff" points="311.69,-84.37 320.2,-78.06 309.61,-77.69 311.69,-84.37"/>
</a>
</g>
</g>
<!-- Node4 -->
<g id="Node000004" class="node">
<title>Node4</title>
<g id="a_Node000004"><a xlink:href="../../d9/d9b/classapplication_1_1log_1_1Log.html#a076202cd4ed453d5ab9024e42f9587dd" target="_top" xlink:title="Get the existing Log instance.">
<polygon fill="white" stroke="#666666" points="273,-78 154,-78 154,-48 273,-48 273,-78"/>
<text text-anchor="start" x="162" y="-66" font-family="Helvetica,sans-Serif" font-size="10.00">application::log::Log</text>
<text text-anchor="middle" x="213.5" y="-55" font-family="Helvetica,sans-Serif" font-size="10.00">::getExistingInstance</text>
</a>
</g>
</g>
<!-- Node1&#45;&gt;Node4 -->
<g id="edge3_Node000001_Node000004" class="edge">
<title>Node1&#45;&gt;Node4</title>
<g id="a_edge3_Node000001_Node000004"><a xlink:title=" ">
<path fill="none" stroke="#63b8ff" d="M301.49,-63C292.08,-63 282.47,-63 273.23,-63"/>
<polygon fill="#63b8ff" stroke="#63b8ff" points="301.59,-66.5 311.59,-63 301.59,-59.5 301.59,-66.5"/>
</a>
</g>
</g>
<!-- Node5 -->
<g id="Node000005" class="node">
<title>Node5</title>
<g id="a_Node000005"><a xlink:href="../../d9/d4a/namespaceapplication_1_1command.html#a2f7782f2b91f6113f8d75a2f280d0627" target="_top" xlink:title="Trigger helper with operation.">
<polygon fill="white" stroke="#666666" points="276,-30 151,-30 151,0 276,0 276,-30"/>
<text text-anchor="start" x="159" y="-18" font-family="Helvetica,sans-Serif" font-size="10.00">application::command</text>
<text text-anchor="middle" x="213.5" y="-7" font-family="Helvetica,sans-Serif" font-size="10.00">::triggerHelper</text>
</a>
</g>
</g>
<!-- Node1&#45;&gt;Node5 -->
<g id="edge4_Node000001_Node000005" class="edge">
<title>Node1&#45;&gt;Node5</title>
<g id="a_edge4_Node000001_Node000005"><a xlink:title=" ">
<path fill="none" stroke="#63b8ff" d="M310.54,-44.93C294.74,-40.01 277.81,-34.73 262.63,-30"/>
<polygon fill="#63b8ff" stroke="#63b8ff" points="309.61,-48.31 320.2,-47.94 311.69,-41.63 309.61,-48.31"/>
</a>
</g>
</g>
<!-- Node3 -->
<g id="Node000003" class="node">
<title>Node3</title>
<g id="a_Node000003"><a xlink:href="../../d9/d29/classapplication_1_1log_1_1Log_1_1Holder.html#a79e3171b1992117c6e3c538b70ea9209" target="_top" xlink:title="Destroy the Holder object.">
<polygon fill="white" stroke="#666666" points="115,-126 0,-126 0,-96 115,-96 115,-126"/>
<text text-anchor="start" x="8" y="-114" font-family="Helvetica,sans-Serif" font-size="10.00">application::log::Log</text>
<text text-anchor="middle" x="57.5" y="-103" font-family="Helvetica,sans-Serif" font-size="10.00">::Holder::~Holder</text>
</a>
</g>
</g>
<!-- Node2&#45;&gt;Node3 -->
<g id="edge2_Node000002_Node000003" class="edge">
<title>Node2&#45;&gt;Node3</title>
<g id="a_edge2_Node000002_Node000003"><a xlink:title=" ">
<path fill="none" stroke="#63b8ff" d="M145.57,-111C135.43,-111 125.06,-111 115.17,-111"/>
<polygon fill="#63b8ff" stroke="#63b8ff" points="145.59,-114.5 155.59,-111 145.59,-107.5 145.59,-114.5"/>
</a>
</g>
</g>
</g>
</svg>
