<?xml version="1.0" encoding="UTF-8" standalone="no"?>
<!DOCTYPE svg PUBLIC "-//W3C//DTD SVG 1.1//EN"
 "http://www.w3.org/Graphics/SVG/1.1/DTD/svg11.dtd">
<!-- Generated by graphviz version 2.43.0 (0)
 -->
<!-- Title: application::log::Log::tryToCreateLogFolder Pages: 1 -->
<svg width="285pt" height="86pt"
 viewBox="0.00 0.00 285.00 86.00" xmlns="http://www.w3.org/2000/svg" xmlns:xlink="http://www.w3.org/1999/xlink">
<g id="graph0" class="graph" transform="scale(1 1) rotate(0) translate(4 82)">
<title>application::log::Log::tryToCreateLogFolder</title>
<!-- Node1 -->
<g id="Node000001" class="node">
<title>Node1</title>
<g id="a_Node000001"><a xlink:title="Try to create the log folder.">
<polygon fill="#999999" stroke="#666666" points="277,-54 151,-54 151,-24 277,-24 277,-54"/>
<text text-anchor="start" x="159" y="-42" font-family="Helvetica,sans-Serif" font-size="10.00">application::log::Log</text>
<text text-anchor="middle" x="214" y="-31" font-family="Helvetica,sans-Serif" font-size="10.00">::tryToCreateLogFolder</text>
</a>
</g>
</g>
<!-- Node2 -->
<g id="Node000002" class="node">
<title>Node2</title>
<g id="a_Node000002"><a xlink:href="../../d9/d9b/classapplication_1_1log_1_1Log.html#aa9e96aed392516d532c5b9298dd11977" target="_top" xlink:title="Do rollback.">
<polygon fill="white" stroke="#666666" points="115,-78 0,-78 0,-48 115,-48 115,-78"/>
<text text-anchor="start" x="8" y="-66" font-family="Helvetica,sans-Serif" font-size="10.00">application::log::Log</text>
<text text-anchor="middle" x="57.5" y="-55" font-family="Helvetica,sans-Serif" font-size="10.00">::doRollback</text>
</a>
</g>
</g>
<!-- Node1&#45;&gt;Node2 -->
<g id="edge1_Node000001_Node000002" class="edge">
<title>Node1&#45;&gt;Node2</title>
<g id="a_edge1_Node000001_Node000002"><a xlink:title=" ">
<path fill="none" stroke="#63b8ff" d="M140.62,-50.24C132.07,-51.57 123.44,-52.91 115.14,-54.2"/>
<polygon fill="#63b8ff" stroke="#63b8ff" points="141.26,-53.69 150.6,-48.69 140.19,-46.77 141.26,-53.69"/>
</a>
</g>
</g>
<!-- Node3 -->
<g id="Node000003" class="node">
<title>Node3</title>
<g id="a_Node000003"><a xlink:href="../../d9/d9b/classapplication_1_1log_1_1Log.html#acb2ab76237df0fec84088af305a0766c" target="_top" xlink:title="Open the log file.">
<polygon fill="white" stroke="#666666" points="115,-30 0,-30 0,0 115,0 115,-30"/>
<text text-anchor="start" x="8" y="-18" font-family="Helvetica,sans-Serif" font-size="10.00">application::log::Log</text>
<text text-anchor="middle" x="57.5" y="-7" font-family="Helvetica,sans-Serif" font-size="10.00">::openLogFile</text>
</a>
</g>
</g>
<!-- Node1&#45;&gt;Node3 -->
<g id="edge2_Node000001_Node000003" class="edge">
<title>Node1&#45;&gt;Node3</title>
<g id="a_edge2_Node000001_Node000003"><a xlink:title=" ">
<path fill="none" stroke="#63b8ff" d="M140.62,-27.76C132.07,-26.43 123.44,-25.09 115.14,-23.8"/>
<polygon fill="#63b8ff" stroke="#63b8ff" points="140.19,-31.23 150.6,-29.31 141.26,-24.31 140.19,-31.23"/>
</a>
</g>
</g>
</g>
</svg>
