<?xml version="1.0" encoding="UTF-8" standalone="no"?>
<!DOCTYPE svg PUBLIC "-//W3C//DTD SVG 1.1//EN"
 "http://www.w3.org/Graphics/SVG/1.1/DTD/svg11.dtd">
<!-- Generated by graphviz version 2.43.0 (0)
 -->
<!-- Title: design_pattern::structural::decorator::Component Pages: 1 -->
<svg width="570pt" height="110pt"
 viewBox="0.00 0.00 570.00 110.00" xmlns="http://www.w3.org/2000/svg" xmlns:xlink="http://www.w3.org/1999/xlink">
<g id="graph0" class="graph" transform="scale(1 1) rotate(0) translate(4 106)">
<title>design_pattern::structural::decorator::Component</title>
<!-- Node1 -->
<g id="Node000001" class="node">
<title>Node1</title>
<g id="a_Node000001"><a xlink:title="The component to which additional responsibilities can be attached.">
<polygon fill="#999999" stroke="#666666" points="142,-78 0,-78 0,-48 142,-48 142,-78"/>
<text text-anchor="start" x="8" y="-66" font-family="Helvetica,sans-Serif" font-size="10.00">design_pattern::structural</text>
<text text-anchor="middle" x="71" y="-55" font-family="Helvetica,sans-Serif" font-size="10.00">::decorator::Component</text>
</a>
</g>
</g>
<!-- Node2 -->
<g id="Node000002" class="node">
<title>Node2</title>
<g id="a_Node000002"><a xlink:href="../../d1/dd0/classdesign__pattern_1_1structural_1_1decorator_1_1ConcreteComponent.html" target="_top" xlink:title="The concrete component.">
<polygon fill="white" stroke="#666666" points="353,-102 178,-102 178,-72 353,-72 353,-102"/>
<text text-anchor="start" x="186" y="-90" font-family="Helvetica,sans-Serif" font-size="10.00">design_pattern::structural</text>
<text text-anchor="middle" x="265.5" y="-79" font-family="Helvetica,sans-Serif" font-size="10.00">::decorator::ConcreteComponent</text>
</a>
</g>
</g>
<!-- Node1&#45;&gt;Node2 -->
<g id="edge1_Node000001_Node000002" class="edge">
<title>Node1&#45;&gt;Node2</title>
<g id="a_edge1_Node000001_Node000002"><a xlink:title=" ">
<path fill="none" stroke="#63b8ff" d="M152.23,-73C160.67,-74.05 169.27,-75.13 177.78,-76.19"/>
<polygon fill="#63b8ff" stroke="#63b8ff" points="152.4,-69.5 142.04,-71.73 151.53,-76.44 152.4,-69.5"/>
</a>
</g>
</g>
<!-- Node3 -->
<g id="Node000003" class="node">
<title>Node3</title>
<g id="a_Node000003"><a xlink:href="../../d1/d0c/classdesign__pattern_1_1structural_1_1decorator_1_1Decorator.html" target="_top" xlink:title="Reference to the component. Add responsibilities to the component.">
<polygon fill="white" stroke="#666666" points="336.5,-54 194.5,-54 194.5,-24 336.5,-24 336.5,-54"/>
<text text-anchor="start" x="202.5" y="-42" font-family="Helvetica,sans-Serif" font-size="10.00">design_pattern::structural</text>
<text text-anchor="middle" x="265.5" y="-31" font-family="Helvetica,sans-Serif" font-size="10.00">::decorator::Decorator</text>
</a>
</g>
</g>
<!-- Node1&#45;&gt;Node3 -->
<g id="edge2_Node000001_Node000003" class="edge">
<title>Node1&#45;&gt;Node3</title>
<g id="a_edge2_Node000001_Node000003"><a xlink:title=" ">
<path fill="none" stroke="#63b8ff" d="M152.11,-53.01C166.08,-51.27 180.51,-49.47 194.19,-47.77"/>
<polygon fill="#63b8ff" stroke="#63b8ff" points="151.53,-49.56 142.04,-54.27 152.4,-56.5 151.53,-49.56"/>
</a>
</g>
</g>
<!-- Node4 -->
<g id="Node000004" class="node">
<title>Node4</title>
<g id="a_Node000004"><a xlink:href="../../d4/d7a/classdesign__pattern_1_1structural_1_1decorator_1_1ConcreteDecoratorA.html" target="_top" xlink:title="The concrete decorator.">
<polygon fill="white" stroke="#666666" points="562,-78 389,-78 389,-48 562,-48 562,-78"/>
<text text-anchor="start" x="397" y="-66" font-family="Helvetica,sans-Serif" font-size="10.00">design_pattern::structural</text>
<text text-anchor="middle" x="475.5" y="-55" font-family="Helvetica,sans-Serif" font-size="10.00">::decorator::ConcreteDecoratorA</text>
</a>
</g>
</g>
<!-- Node3&#45;&gt;Node4 -->
<g id="edge3_Node000003_Node000004" class="edge">
<title>Node3&#45;&gt;Node4</title>
<g id="a_edge3_Node000003_Node000004"><a xlink:title=" ">
<path fill="none" stroke="#63b8ff" d="M346.58,-48.24C360.41,-49.84 374.83,-51.5 388.8,-53.11"/>
<polygon fill="#63b8ff" stroke="#63b8ff" points="346.96,-44.76 336.63,-47.09 346.16,-51.72 346.96,-44.76"/>
</a>
</g>
</g>
<!-- Node5 -->
<g id="Node000005" class="node">
<title>Node5</title>
<g id="a_Node000005"><a xlink:href="../../d7/d99/classdesign__pattern_1_1structural_1_1decorator_1_1ConcreteDecoratorB.html" target="_top" xlink:title="The concrete decorator.">
<polygon fill="white" stroke="#666666" points="562,-30 389,-30 389,0 562,0 562,-30"/>
<text text-anchor="start" x="397" y="-18" font-family="Helvetica,sans-Serif" font-size="10.00">design_pattern::structural</text>
<text text-anchor="middle" x="475.5" y="-7" font-family="Helvetica,sans-Serif" font-size="10.00">::decorator::ConcreteDecoratorB</text>
</a>
</g>
</g>
<!-- Node3&#45;&gt;Node5 -->
<g id="edge4_Node000003_Node000005" class="edge">
<title>Node3&#45;&gt;Node5</title>
<g id="a_edge4_Node000003_Node000005"><a xlink:title=" ">
<path fill="none" stroke="#63b8ff" d="M346.58,-29.76C360.41,-28.16 374.83,-26.5 388.8,-24.89"/>
<polygon fill="#63b8ff" stroke="#63b8ff" points="346.16,-26.28 336.63,-30.91 346.96,-33.24 346.16,-26.28"/>
</a>
</g>
</g>
</g>
</svg>
