<?xml version="1.0" encoding="UTF-8" standalone="no"?>
<!DOCTYPE svg PUBLIC "-//W3C//DTD SVG 1.1//EN"
 "http://www.w3.org/Graphics/SVG/1.1/DTD/svg11.dtd">
<!-- Generated by graphviz version 2.43.0 (0)
 -->
<!-- Title: date_structure::tree::avl::leftLeftRotation Pages: 1 -->
<svg width="587pt" height="129pt"
 viewBox="0.00 0.00 587.00 129.44" xmlns="http://www.w3.org/2000/svg" xmlns:xlink="http://www.w3.org/1999/xlink">
<g id="graph0" class="graph" transform="scale(1 1) rotate(0) translate(4 125.44)">
<title>date_structure::tree::avl::leftLeftRotation</title>
<!-- Node1 -->
<g id="Node000001" class="node">
<title>Node1</title>
<g id="a_Node000001"><a xlink:title="LL rotation. A single left rotation.">
<polygon fill="#999999" stroke="#666666" points="579,-70.44 460,-70.44 460,-40.44 579,-40.44 579,-70.44"/>
<text text-anchor="start" x="468" y="-58.44" font-family="Helvetica,sans-Serif" font-size="10.00">date_structure::tree</text>
<text text-anchor="middle" x="519.5" y="-47.44" font-family="Helvetica,sans-Serif" font-size="10.00">::avl::leftLeftRotation</text>
</a>
</g>
</g>
<!-- Node2 -->
<g id="Node000002" class="node">
<title>Node2</title>
<g id="a_Node000002"><a xlink:href="../../dc/d33/namespacedate__structure_1_1tree_1_1avl.html#a65dd031fc2c1fb4e86b9e33b3689c2ad" target="_top" xlink:title="Insert target node into the AVL tree. Not allow inserting node with the same key.">
<polygon fill="white" stroke="#666666" points="262,-103.44 149,-103.44 149,-73.44 262,-73.44 262,-103.44"/>
<text text-anchor="start" x="157" y="-91.44" font-family="Helvetica,sans-Serif" font-size="10.00">date_structure::tree</text>
<text text-anchor="middle" x="205.5" y="-80.44" font-family="Helvetica,sans-Serif" font-size="10.00">::avl::avlTreeInsert</text>
</a>
</g>
</g>
<!-- Node1&#45;&gt;Node2 -->
<g id="edge1_Node000001_Node000002" class="edge">
<title>Node1&#45;&gt;Node2</title>
<g id="a_edge1_Node000001_Node000002"><a xlink:title=" ">
<path fill="none" stroke="#63b8ff" d="M487.6,-75.82C469.8,-86.32 446.55,-98.04 424,-103.44 370.07,-116.35 306.64,-109.57 262.24,-101.41"/>
<polygon fill="#63b8ff" stroke="#63b8ff" points="489.65,-78.66 496.38,-70.47 486.01,-72.68 489.65,-78.66"/>
</a>
</g>
</g>
<!-- Node3 -->
<g id="Node000003" class="node">
<title>Node3</title>
<g id="a_Node000003"><a xlink:href="../../dc/d33/namespacedate__structure_1_1tree_1_1avl.html#aa8331f793062b72e455bb2ca000367a0" target="_top" xlink:title="Delete target node from the AVL tree.">
<polygon fill="white" stroke="#666666" points="262,-37.44 149,-37.44 149,-7.44 262,-7.44 262,-37.44"/>
<text text-anchor="start" x="157" y="-25.44" font-family="Helvetica,sans-Serif" font-size="10.00">date_structure::tree</text>
<text text-anchor="middle" x="205.5" y="-14.44" font-family="Helvetica,sans-Serif" font-size="10.00">::avl::deleteNode</text>
</a>
</g>
</g>
<!-- Node1&#45;&gt;Node3 -->
<g id="edge3_Node000001_Node000003" class="edge">
<title>Node1&#45;&gt;Node3</title>
<g id="a_edge3_Node000001_Node000003"><a xlink:title=" ">
<path fill="none" stroke="#63b8ff" d="M487.6,-35.06C469.8,-24.55 446.55,-12.84 424,-7.44 370.07,5.47 306.64,-1.31 262.24,-9.47"/>
<polygon fill="#63b8ff" stroke="#63b8ff" points="486.01,-38.19 496.38,-40.4 489.65,-32.21 486.01,-38.19"/>
</a>
</g>
</g>
<!-- Node5 -->
<g id="Node000005" class="node">
<title>Node5</title>
<g id="a_Node000005"><a xlink:href="../../dc/d33/namespacedate__structure_1_1tree_1_1avl.html#aa4562bd4af2b00748ca6d045e1c47cb8" target="_top" xlink:title="LR rotation. A double left rotation.">
<polygon fill="white" stroke="#666666" points="424,-94.44 298,-94.44 298,-64.44 424,-64.44 424,-94.44"/>
<text text-anchor="start" x="306" y="-82.44" font-family="Helvetica,sans-Serif" font-size="10.00">date_structure::tree</text>
<text text-anchor="middle" x="361" y="-71.44" font-family="Helvetica,sans-Serif" font-size="10.00">::avl::leftRightRotation</text>
</a>
</g>
</g>
<!-- Node1&#45;&gt;Node5 -->
<g id="edge6_Node000001_Node000005" class="edge">
<title>Node1&#45;&gt;Node5</title>
<g id="a_edge6_Node000001_Node000005"><a xlink:title=" ">
<path fill="none" stroke="#63b8ff" d="M449.85,-65.97C441.31,-67.27 432.62,-68.61 424.19,-69.9"/>
<polygon fill="#63b8ff" stroke="#63b8ff" points="450.43,-69.42 459.78,-64.44 449.36,-62.5 450.43,-69.42"/>
</a>
</g>
</g>
<!-- Node6 -->
<g id="Node000006" class="node">
<title>Node6</title>
<g id="a_Node000006"><a xlink:href="../../dc/d33/namespacedate__structure_1_1tree_1_1avl.html#a1c5c0aae77523b6d4bfe36b76fb96171" target="_top" xlink:title="RL rotation. A double right rotation.">
<polygon fill="white" stroke="#666666" points="423.5,-46.44 298.5,-46.44 298.5,-16.44 423.5,-16.44 423.5,-46.44"/>
<text text-anchor="start" x="306.5" y="-34.44" font-family="Helvetica,sans-Serif" font-size="10.00">date_structure::tree</text>
<text text-anchor="middle" x="361" y="-23.44" font-family="Helvetica,sans-Serif" font-size="10.00">::avl::rightLeftRotation</text>
</a>
</g>
</g>
<!-- Node1&#45;&gt;Node6 -->
<g id="edge9_Node000001_Node000006" class="edge">
<title>Node1&#45;&gt;Node6</title>
<g id="a_edge9_Node000001_Node000006"><a xlink:title=" ">
<path fill="none" stroke="#63b8ff" d="M449.7,-44.89C441.04,-43.56 432.21,-42.21 423.66,-40.89"/>
<polygon fill="#63b8ff" stroke="#63b8ff" points="449.36,-48.38 459.78,-46.43 450.43,-41.46 449.36,-48.38"/>
</a>
</g>
</g>
<!-- Node2&#45;&gt;Node2 -->
<g id="edge2_Node000002_Node000002" class="edge">
<title>Node2&#45;&gt;Node2</title>
<g id="a_edge2_Node000002_Node000002"><a xlink:title=" ">
<path fill="none" stroke="#63b8ff" d="M231.41,-114.04C227.87,-118.41 219.23,-121.44 205.5,-121.44 182.38,-121.44 173.7,-112.84 179.48,-103.71"/>
<polygon fill="#63b8ff" stroke="#63b8ff" points="234.91,-113.75 231.52,-103.71 227.91,-113.68 234.91,-113.75"/>
</a>
</g>
</g>
<!-- Node3&#45;&gt;Node3 -->
<g id="edge5_Node000003_Node000003" class="edge">
<title>Node3&#45;&gt;Node3</title>
<g id="a_edge5_Node000003_Node000003"><a xlink:title=" ">
<path fill="none" stroke="#63b8ff" d="M231.41,-48.04C227.87,-52.41 219.23,-55.44 205.5,-55.44 182.38,-55.44 173.7,-46.84 179.48,-37.71"/>
<polygon fill="#63b8ff" stroke="#63b8ff" points="234.91,-47.75 231.52,-37.71 227.91,-47.68 234.91,-47.75"/>
</a>
</g>
</g>
<!-- Node4 -->
<g id="Node000004" class="node">
<title>Node4</title>
<g id="a_Node000004"><a xlink:href="../../dc/d33/namespacedate__structure_1_1tree_1_1avl.html#a2cb151a6e4051ba0abc00cc1977b539e" target="_top" xlink:title="Delete target node into the AVL tree.">
<polygon fill="white" stroke="#666666" points="113,-37.44 0,-37.44 0,-7.44 113,-7.44 113,-37.44"/>
<text text-anchor="start" x="8" y="-25.44" font-family="Helvetica,sans-Serif" font-size="10.00">date_structure::tree</text>
<text text-anchor="middle" x="56.5" y="-14.44" font-family="Helvetica,sans-Serif" font-size="10.00">::avl::avlTreeDelete</text>
</a>
</g>
</g>
<!-- Node3&#45;&gt;Node4 -->
<g id="edge4_Node000003_Node000004" class="edge">
<title>Node3&#45;&gt;Node4</title>
<g id="a_edge4_Node000003_Node000004"><a xlink:title=" ">
<path fill="none" stroke="#63b8ff" d="M138.92,-22.44C130.32,-22.44 121.57,-22.44 113.15,-22.44"/>
<polygon fill="#63b8ff" stroke="#63b8ff" points="138.93,-25.94 148.93,-22.44 138.93,-18.94 138.93,-25.94"/>
</a>
</g>
</g>
<!-- Node5&#45;&gt;Node2 -->
<g id="edge7_Node000005_Node000002" class="edge">
<title>Node5&#45;&gt;Node2</title>
<g id="a_edge7_Node000005_Node000002"><a xlink:title=" ">
<path fill="none" stroke="#63b8ff" d="M287.4,-83.69C279.02,-84.19 270.57,-84.68 262.46,-85.16"/>
<polygon fill="#63b8ff" stroke="#63b8ff" points="287.79,-87.18 297.57,-83.1 287.38,-80.19 287.79,-87.18"/>
</a>
</g>
</g>
<!-- Node5&#45;&gt;Node3 -->
<g id="edge8_Node000005_Node000003" class="edge">
<title>Node5&#45;&gt;Node3</title>
<g id="a_edge8_Node000005_Node000003"><a xlink:title=" ">
<path fill="none" stroke="#63b8ff" d="M309.86,-60.82C289.54,-53.27 266.39,-44.68 247.16,-37.53"/>
<polygon fill="#63b8ff" stroke="#63b8ff" points="308.67,-64.11 319.27,-64.31 311.11,-57.55 308.67,-64.11"/>
</a>
</g>
</g>
<!-- Node6&#45;&gt;Node2 -->
<g id="edge10_Node000006_Node000002" class="edge">
<title>Node6&#45;&gt;Node2</title>
<g id="a_edge10_Node000006_Node000002"><a xlink:title=" ">
<path fill="none" stroke="#63b8ff" d="M309.86,-50.06C289.54,-57.6 266.39,-66.2 247.16,-73.34"/>
<polygon fill="#63b8ff" stroke="#63b8ff" points="311.11,-53.33 319.27,-46.56 308.67,-46.76 311.11,-53.33"/>
</a>
</g>
</g>
<!-- Node6&#45;&gt;Node3 -->
<g id="edge11_Node000006_Node000003" class="edge">
<title>Node6&#45;&gt;Node3</title>
<g id="a_edge11_Node000006_Node000003"><a xlink:title=" ">
<path fill="none" stroke="#63b8ff" d="M288.22,-27.23C279.45,-26.72 270.59,-26.2 262.11,-25.7"/>
<polygon fill="#63b8ff" stroke="#63b8ff" points="288.26,-30.74 298.45,-27.83 288.67,-23.75 288.26,-30.74"/>
</a>
</g>
</g>
</g>
</svg>
