<?xml version="1.0" encoding="UTF-8" standalone="no"?>
<!DOCTYPE svg PUBLIC "-//W3C//DTD SVG 1.1//EN"
 "http://www.w3.org/Graphics/SVG/1.1/DTD/svg11.dtd">
<!-- Generated by graphviz version 2.43.0 (0)
 -->
<!-- Title: date_structure::tree::avl::leftRightRotation Pages: 1 -->
<svg width="432pt" height="122pt"
 viewBox="0.00 0.00 432.00 122.00" xmlns="http://www.w3.org/2000/svg" xmlns:xlink="http://www.w3.org/1999/xlink">
<g id="graph0" class="graph" transform="scale(1 1) rotate(0) translate(4 118)">
<title>date_structure::tree::avl::leftRightRotation</title>
<!-- Node1 -->
<g id="Node000001" class="node">
<title>Node1</title>
<g id="a_Node000001"><a xlink:title="LR rotation. A double left rotation.">
<polygon fill="#999999" stroke="#666666" points="424,-63 298,-63 298,-33 424,-33 424,-63"/>
<text text-anchor="start" x="306" y="-51" font-family="Helvetica,sans-Serif" font-size="10.00">date_structure::tree</text>
<text text-anchor="middle" x="361" y="-40" font-family="Helvetica,sans-Serif" font-size="10.00">::avl::leftRightRotation</text>
</a>
</g>
</g>
<!-- Node2 -->
<g id="Node000002" class="node">
<title>Node2</title>
<g id="a_Node000002"><a xlink:href="../../dc/d33/namespacedate__structure_1_1tree_1_1avl.html#a65dd031fc2c1fb4e86b9e33b3689c2ad" target="_top" xlink:title="Insert target node into the AVL tree. Not allow inserting node with the same key.">
<polygon fill="white" stroke="#666666" points="262,-96 149,-96 149,-66 262,-66 262,-96"/>
<text text-anchor="start" x="157" y="-84" font-family="Helvetica,sans-Serif" font-size="10.00">date_structure::tree</text>
<text text-anchor="middle" x="205.5" y="-73" font-family="Helvetica,sans-Serif" font-size="10.00">::avl::avlTreeInsert</text>
</a>
</g>
</g>
<!-- Node1&#45;&gt;Node2 -->
<g id="edge1_Node000001_Node000002" class="edge">
<title>Node1&#45;&gt;Node2</title>
<g id="a_edge1_Node000001_Node000002"><a xlink:title=" ">
<path fill="none" stroke="#63b8ff" d="M287.68,-63.55C279.21,-65.37 270.66,-67.21 262.46,-68.97"/>
<polygon fill="#63b8ff" stroke="#63b8ff" points="288.52,-66.95 297.57,-61.42 287.05,-60.1 288.52,-66.95"/>
</a>
</g>
</g>
<!-- Node3 -->
<g id="Node000003" class="node">
<title>Node3</title>
<g id="a_Node000003"><a xlink:href="../../dc/d33/namespacedate__structure_1_1tree_1_1avl.html#aa8331f793062b72e455bb2ca000367a0" target="_top" xlink:title="Delete target node from the AVL tree.">
<polygon fill="white" stroke="#666666" points="262,-30 149,-30 149,0 262,0 262,-30"/>
<text text-anchor="start" x="157" y="-18" font-family="Helvetica,sans-Serif" font-size="10.00">date_structure::tree</text>
<text text-anchor="middle" x="205.5" y="-7" font-family="Helvetica,sans-Serif" font-size="10.00">::avl::deleteNode</text>
</a>
</g>
</g>
<!-- Node1&#45;&gt;Node3 -->
<g id="edge3_Node000001_Node000003" class="edge">
<title>Node1&#45;&gt;Node3</title>
<g id="a_edge3_Node000001_Node000003"><a xlink:title=" ">
<path fill="none" stroke="#63b8ff" d="M287.68,-32.45C279.21,-30.63 270.66,-28.79 262.46,-27.03"/>
<polygon fill="#63b8ff" stroke="#63b8ff" points="287.05,-35.9 297.57,-34.58 288.52,-29.05 287.05,-35.9"/>
</a>
</g>
</g>
<!-- Node2&#45;&gt;Node2 -->
<g id="edge2_Node000002_Node000002" class="edge">
<title>Node2&#45;&gt;Node2</title>
<g id="a_edge2_Node000002_Node000002"><a xlink:title=" ">
<path fill="none" stroke="#63b8ff" d="M231.41,-106.6C227.87,-110.97 219.23,-114 205.5,-114 182.38,-114 173.7,-105.41 179.48,-96.28"/>
<polygon fill="#63b8ff" stroke="#63b8ff" points="234.91,-106.31 231.52,-96.28 227.91,-106.24 234.91,-106.31"/>
</a>
</g>
</g>
<!-- Node3&#45;&gt;Node3 -->
<g id="edge5_Node000003_Node000003" class="edge">
<title>Node3&#45;&gt;Node3</title>
<g id="a_edge5_Node000003_Node000003"><a xlink:title=" ">
<path fill="none" stroke="#63b8ff" d="M231.41,-40.6C227.87,-44.97 219.23,-48 205.5,-48 182.38,-48 173.7,-39.41 179.48,-30.28"/>
<polygon fill="#63b8ff" stroke="#63b8ff" points="234.91,-40.31 231.52,-30.28 227.91,-40.24 234.91,-40.31"/>
</a>
</g>
</g>
<!-- Node4 -->
<g id="Node000004" class="node">
<title>Node4</title>
<g id="a_Node000004"><a xlink:href="../../dc/d33/namespacedate__structure_1_1tree_1_1avl.html#a2cb151a6e4051ba0abc00cc1977b539e" target="_top" xlink:title="Delete target node into the AVL tree.">
<polygon fill="white" stroke="#666666" points="113,-30 0,-30 0,0 113,0 113,-30"/>
<text text-anchor="start" x="8" y="-18" font-family="Helvetica,sans-Serif" font-size="10.00">date_structure::tree</text>
<text text-anchor="middle" x="56.5" y="-7" font-family="Helvetica,sans-Serif" font-size="10.00">::avl::avlTreeDelete</text>
</a>
</g>
</g>
<!-- Node3&#45;&gt;Node4 -->
<g id="edge4_Node000003_Node000004" class="edge">
<title>Node3&#45;&gt;Node4</title>
<g id="a_edge4_Node000003_Node000004"><a xlink:title=" ">
<path fill="none" stroke="#63b8ff" d="M138.92,-15C130.32,-15 121.57,-15 113.15,-15"/>
<polygon fill="#63b8ff" stroke="#63b8ff" points="138.93,-18.5 148.93,-15 138.93,-11.5 138.93,-18.5"/>
</a>
</g>
</g>
</g>
</svg>
