<?xml version="1.0" encoding="UTF-8" standalone="no"?>
<!DOCTYPE svg PUBLIC "-//W3C//DTD SVG 1.1//EN"
 "http://www.w3.org/Graphics/SVG/1.1/DTD/svg11.dtd">
<!-- Generated by graphviz version 2.43.0 (0)
 -->
<!-- Title: date_structure::tree::avl::rightRightRotation Pages: 1 -->
<svg width="601pt" height="129pt"
 viewBox="0.00 0.00 601.00 128.87" xmlns="http://www.w3.org/2000/svg" xmlns:xlink="http://www.w3.org/1999/xlink">
<g id="graph0" class="graph" transform="scale(1 1) rotate(0) translate(4 124.87)">
<title>date_structure::tree::avl::rightRightRotation</title>
<!-- Node1 -->
<g id="Node000001" class="node">
<title>Node1</title>
<g id="a_Node000001"><a xlink:title="RR rotation. A single right rotation.">
<polygon fill="#999999" stroke="#666666" points="593,-69.87 460,-69.87 460,-39.87 593,-39.87 593,-69.87"/>
<text text-anchor="start" x="468" y="-57.87" font-family="Helvetica,sans-Serif" font-size="10.00">date_structure::tree</text>
<text text-anchor="middle" x="526.5" y="-46.87" font-family="Helvetica,sans-Serif" font-size="10.00">::avl::rightRightRotation</text>
</a>
</g>
</g>
<!-- Node2 -->
<g id="Node000002" class="node">
<title>Node2</title>
<g id="a_Node000002"><a xlink:href="../../dc/d33/namespacedate__structure_1_1tree_1_1avl.html#a65dd031fc2c1fb4e86b9e33b3689c2ad" target="_top" xlink:title="Insert target node into the AVL tree. Not allow inserting node with the same key.">
<polygon fill="white" stroke="#666666" points="262,-102.87 149,-102.87 149,-72.87 262,-72.87 262,-102.87"/>
<text text-anchor="start" x="157" y="-90.87" font-family="Helvetica,sans-Serif" font-size="10.00">date_structure::tree</text>
<text text-anchor="middle" x="205.5" y="-79.87" font-family="Helvetica,sans-Serif" font-size="10.00">::avl::avlTreeInsert</text>
</a>
</g>
</g>
<!-- Node1&#45;&gt;Node2 -->
<g id="edge1_Node000001_Node000002" class="edge">
<title>Node1&#45;&gt;Node2</title>
<g id="a_edge1_Node000001_Node000002"><a xlink:title=" ">
<path fill="none" stroke="#63b8ff" d="M492.64,-74.98C473.4,-85.56 448.19,-97.44 424,-102.87 369.9,-115.02 306.49,-108.35 262.14,-100.43"/>
<polygon fill="#63b8ff" stroke="#63b8ff" points="494.6,-77.89 501.58,-69.92 491.15,-71.8 494.6,-77.89"/>
</a>
</g>
</g>
<!-- Node3 -->
<g id="Node000003" class="node">
<title>Node3</title>
<g id="a_Node000003"><a xlink:href="../../dc/d33/namespacedate__structure_1_1tree_1_1avl.html#aa8331f793062b72e455bb2ca000367a0" target="_top" xlink:title="Delete target node from the AVL tree.">
<polygon fill="white" stroke="#666666" points="262,-36.87 149,-36.87 149,-6.87 262,-6.87 262,-36.87"/>
<text text-anchor="start" x="157" y="-24.87" font-family="Helvetica,sans-Serif" font-size="10.00">date_structure::tree</text>
<text text-anchor="middle" x="205.5" y="-13.87" font-family="Helvetica,sans-Serif" font-size="10.00">::avl::deleteNode</text>
</a>
</g>
</g>
<!-- Node1&#45;&gt;Node3 -->
<g id="edge3_Node000001_Node000003" class="edge">
<title>Node1&#45;&gt;Node3</title>
<g id="a_edge3_Node000001_Node000003"><a xlink:title=" ">
<path fill="none" stroke="#63b8ff" d="M492.64,-34.77C473.4,-24.19 448.19,-12.31 424,-6.87 369.9,5.27 306.49,-1.39 262.14,-9.32"/>
<polygon fill="#63b8ff" stroke="#63b8ff" points="491.15,-37.95 501.58,-39.83 494.6,-31.86 491.15,-37.95"/>
</a>
</g>
</g>
<!-- Node5 -->
<g id="Node000005" class="node">
<title>Node5</title>
<g id="a_Node000005"><a xlink:href="../../dc/d33/namespacedate__structure_1_1tree_1_1avl.html#aa4562bd4af2b00748ca6d045e1c47cb8" target="_top" xlink:title="LR rotation. A double left rotation.">
<polygon fill="white" stroke="#666666" points="424,-93.87 298,-93.87 298,-63.87 424,-63.87 424,-93.87"/>
<text text-anchor="start" x="306" y="-81.87" font-family="Helvetica,sans-Serif" font-size="10.00">date_structure::tree</text>
<text text-anchor="middle" x="361" y="-70.87" font-family="Helvetica,sans-Serif" font-size="10.00">::avl::leftRightRotation</text>
</a>
</g>
</g>
<!-- Node1&#45;&gt;Node5 -->
<g id="edge6_Node000001_Node000005" class="edge">
<title>Node1&#45;&gt;Node5</title>
<g id="a_edge6_Node000001_Node000005"><a xlink:title=" ">
<path fill="none" stroke="#63b8ff" d="M449.88,-65.97C441.26,-67.24 432.54,-68.52 424.12,-69.76"/>
<polygon fill="#63b8ff" stroke="#63b8ff" points="450.55,-69.41 459.94,-64.5 449.54,-62.49 450.55,-69.41"/>
</a>
</g>
</g>
<!-- Node6 -->
<g id="Node000006" class="node">
<title>Node6</title>
<g id="a_Node000006"><a xlink:href="../../dc/d33/namespacedate__structure_1_1tree_1_1avl.html#a1c5c0aae77523b6d4bfe36b76fb96171" target="_top" xlink:title="RL rotation. A double right rotation.">
<polygon fill="white" stroke="#666666" points="423.5,-45.87 298.5,-45.87 298.5,-15.87 423.5,-15.87 423.5,-45.87"/>
<text text-anchor="start" x="306.5" y="-33.87" font-family="Helvetica,sans-Serif" font-size="10.00">date_structure::tree</text>
<text text-anchor="middle" x="361" y="-22.87" font-family="Helvetica,sans-Serif" font-size="10.00">::avl::rightLeftRotation</text>
</a>
</g>
</g>
<!-- Node1&#45;&gt;Node6 -->
<g id="edge9_Node000001_Node000006" class="edge">
<title>Node1&#45;&gt;Node6</title>
<g id="a_edge9_Node000001_Node000006"><a xlink:title=" ">
<path fill="none" stroke="#63b8ff" d="M450.02,-43.79C441.17,-42.5 432.22,-41.18 423.6,-39.92"/>
<polygon fill="#63b8ff" stroke="#63b8ff" points="449.54,-47.26 459.94,-45.25 450.55,-40.34 449.54,-47.26"/>
</a>
</g>
</g>
<!-- Node2&#45;&gt;Node2 -->
<g id="edge2_Node000002_Node000002" class="edge">
<title>Node2&#45;&gt;Node2</title>
<g id="a_edge2_Node000002_Node000002"><a xlink:title=" ">
<path fill="none" stroke="#63b8ff" d="M231.41,-113.47C227.87,-117.84 219.23,-120.87 205.5,-120.87 182.38,-120.87 173.7,-112.28 179.48,-103.15"/>
<polygon fill="#63b8ff" stroke="#63b8ff" points="234.91,-113.19 231.52,-103.15 227.91,-113.11 234.91,-113.19"/>
</a>
</g>
</g>
<!-- Node3&#45;&gt;Node3 -->
<g id="edge5_Node000003_Node000003" class="edge">
<title>Node3&#45;&gt;Node3</title>
<g id="a_edge5_Node000003_Node000003"><a xlink:title=" ">
<path fill="none" stroke="#63b8ff" d="M231.41,-47.47C227.87,-51.84 219.23,-54.87 205.5,-54.87 182.38,-54.87 173.7,-46.28 179.48,-37.15"/>
<polygon fill="#63b8ff" stroke="#63b8ff" points="234.91,-47.19 231.52,-37.15 227.91,-47.11 234.91,-47.19"/>
</a>
</g>
</g>
<!-- Node4 -->
<g id="Node000004" class="node">
<title>Node4</title>
<g id="a_Node000004"><a xlink:href="../../dc/d33/namespacedate__structure_1_1tree_1_1avl.html#a2cb151a6e4051ba0abc00cc1977b539e" target="_top" xlink:title="Delete target node into the AVL tree.">
<polygon fill="white" stroke="#666666" points="113,-36.87 0,-36.87 0,-6.87 113,-6.87 113,-36.87"/>
<text text-anchor="start" x="8" y="-24.87" font-family="Helvetica,sans-Serif" font-size="10.00">date_structure::tree</text>
<text text-anchor="middle" x="56.5" y="-13.87" font-family="Helvetica,sans-Serif" font-size="10.00">::avl::avlTreeDelete</text>
</a>
</g>
</g>
<!-- Node3&#45;&gt;Node4 -->
<g id="edge4_Node000003_Node000004" class="edge">
<title>Node3&#45;&gt;Node4</title>
<g id="a_edge4_Node000003_Node000004"><a xlink:title=" ">
<path fill="none" stroke="#63b8ff" d="M138.92,-21.87C130.32,-21.87 121.57,-21.87 113.15,-21.87"/>
<polygon fill="#63b8ff" stroke="#63b8ff" points="138.93,-25.37 148.93,-21.87 138.93,-18.37 138.93,-25.37"/>
</a>
</g>
</g>
<!-- Node5&#45;&gt;Node2 -->
<g id="edge7_Node000005_Node000002" class="edge">
<title>Node5&#45;&gt;Node2</title>
<g id="a_edge7_Node000005_Node000002"><a xlink:title=" ">
<path fill="none" stroke="#63b8ff" d="M287.4,-83.13C279.02,-83.62 270.57,-84.12 262.46,-84.59"/>
<polygon fill="#63b8ff" stroke="#63b8ff" points="287.79,-86.61 297.57,-82.53 287.38,-79.63 287.79,-86.61"/>
</a>
</g>
</g>
<!-- Node5&#45;&gt;Node3 -->
<g id="edge8_Node000005_Node000003" class="edge">
<title>Node5&#45;&gt;Node3</title>
<g id="a_edge8_Node000005_Node000003"><a xlink:title=" ">
<path fill="none" stroke="#63b8ff" d="M309.86,-60.25C289.54,-52.71 266.39,-44.11 247.16,-36.97"/>
<polygon fill="#63b8ff" stroke="#63b8ff" points="308.67,-63.55 319.27,-63.75 311.11,-56.99 308.67,-63.55"/>
</a>
</g>
</g>
<!-- Node6&#45;&gt;Node2 -->
<g id="edge10_Node000006_Node000002" class="edge">
<title>Node6&#45;&gt;Node2</title>
<g id="a_edge10_Node000006_Node000002"><a xlink:title=" ">
<path fill="none" stroke="#63b8ff" d="M309.86,-49.49C289.54,-57.04 266.39,-65.63 247.16,-72.78"/>
<polygon fill="#63b8ff" stroke="#63b8ff" points="311.11,-52.76 319.27,-46 308.67,-46.2 311.11,-52.76"/>
</a>
</g>
</g>
<!-- Node6&#45;&gt;Node3 -->
<g id="edge11_Node000006_Node000003" class="edge">
<title>Node6&#45;&gt;Node3</title>
<g id="a_edge11_Node000006_Node000003"><a xlink:title=" ">
<path fill="none" stroke="#63b8ff" d="M288.22,-26.67C279.45,-26.15 270.59,-25.63 262.11,-25.13"/>
<polygon fill="#63b8ff" stroke="#63b8ff" points="288.26,-30.17 298.45,-27.27 288.67,-23.19 288.26,-30.17"/>
</a>
</g>
</g>
</g>
</svg>
