<?xml version="1.0" encoding="UTF-8" standalone="no"?>
<!DOCTYPE svg PUBLIC "-//W3C//DTD SVG 1.1//EN"
 "http://www.w3.org/Graphics/SVG/1.1/DTD/svg11.dtd">
<!-- Generated by graphviz version 2.43.0 (0)
 -->
<!-- Title: date_structure::tree::avl::getHeight Pages: 1 -->
<svg width="750pt" height="223pt"
 viewBox="0.00 0.00 750.00 222.78" xmlns="http://www.w3.org/2000/svg" xmlns:xlink="http://www.w3.org/1999/xlink">
<g id="graph0" class="graph" transform="scale(1 1) rotate(0) translate(4 218.78)">
<title>date_structure::tree::avl::getHeight</title>
<!-- Node1 -->
<g id="Node000001" class="node">
<title>Node1</title>
<g id="a_Node000001"><a xlink:title="Get the height of the AVL tree.">
<polygon fill="#999999" stroke="#666666" points="742,-118.91 629,-118.91 629,-88.91 742,-88.91 742,-118.91"/>
<text text-anchor="start" x="637" y="-106.91" font-family="Helvetica,sans-Serif" font-size="10.00">date_structure::tree</text>
<text text-anchor="middle" x="685.5" y="-95.91" font-family="Helvetica,sans-Serif" font-size="10.00">::avl::getHeight</text>
</a>
</g>
</g>
<!-- Node2 -->
<g id="Node000002" class="node">
<title>Node2</title>
<g id="a_Node000002"><a xlink:href="../../dc/d33/namespacedate__structure_1_1tree_1_1avl.html#a65dd031fc2c1fb4e86b9e33b3689c2ad" target="_top" xlink:title="Insert target node into the AVL tree. Not allow inserting node with the same key.">
<polygon fill="white" stroke="#666666" points="262,-180.91 149,-180.91 149,-150.91 262,-150.91 262,-180.91"/>
<text text-anchor="start" x="157" y="-168.91" font-family="Helvetica,sans-Serif" font-size="10.00">date_structure::tree</text>
<text text-anchor="middle" x="205.5" y="-157.91" font-family="Helvetica,sans-Serif" font-size="10.00">::avl::avlTreeInsert</text>
</a>
</g>
</g>
<!-- Node1&#45;&gt;Node2 -->
<g id="edge1_Node000001_Node000002" class="edge">
<title>Node1&#45;&gt;Node2</title>
<g id="a_edge1_Node000001_Node000002"><a xlink:title=" ">
<path fill="none" stroke="#63b8ff" d="M649.73,-123.92C632.92,-133.14 612.25,-143.8 593,-151.91 520.21,-182.59 502.01,-194.54 424,-206.91 368.69,-215.69 352.76,-218.62 298,-206.91 274.68,-201.93 250.11,-190.53 232.32,-181.02"/>
<polygon fill="#63b8ff" stroke="#63b8ff" points="651.59,-126.89 658.64,-118.98 648.2,-120.77 651.59,-126.89"/>
</a>
</g>
</g>
<!-- Node3 -->
<g id="Node000003" class="node">
<title>Node3</title>
<g id="a_Node000003"><a xlink:href="../../dc/d33/namespacedate__structure_1_1tree_1_1avl.html#aa8331f793062b72e455bb2ca000367a0" target="_top" xlink:title="Delete target node from the AVL tree.">
<polygon fill="white" stroke="#666666" points="262,-56.91 149,-56.91 149,-26.91 262,-26.91 262,-56.91"/>
<text text-anchor="start" x="157" y="-44.91" font-family="Helvetica,sans-Serif" font-size="10.00">date_structure::tree</text>
<text text-anchor="middle" x="205.5" y="-33.91" font-family="Helvetica,sans-Serif" font-size="10.00">::avl::deleteNode</text>
</a>
</g>
</g>
<!-- Node1&#45;&gt;Node3 -->
<g id="edge3_Node000001_Node000003" class="edge">
<title>Node1&#45;&gt;Node3</title>
<g id="a_edge3_Node000001_Node000003"><a xlink:title=" ">
<path fill="none" stroke="#63b8ff" d="M650.21,-83.82C633.36,-74.5 612.52,-63.77 593,-55.91 520.45,-26.71 501.43,-17.91 424,-6.91 368.56,0.96 353.07,3.26 298,-6.91 277.09,-10.77 254.79,-19.21 237.43,-26.83"/>
<polygon fill="#63b8ff" stroke="#63b8ff" points="648.69,-86.99 659.13,-88.83 652.12,-80.88 648.69,-86.99"/>
</a>
</g>
</g>
<!-- Node5 -->
<g id="Node000005" class="node">
<title>Node5</title>
<g id="a_Node000005"><a xlink:href="../../dc/d33/namespacedate__structure_1_1tree_1_1avl.html#ab532bdea049a638ac9e74d5a2771a486" target="_top" xlink:title="LL rotation. A single left rotation.">
<polygon fill="white" stroke="#666666" points="586,-142.91 467,-142.91 467,-112.91 586,-112.91 586,-142.91"/>
<text text-anchor="start" x="475" y="-130.91" font-family="Helvetica,sans-Serif" font-size="10.00">date_structure::tree</text>
<text text-anchor="middle" x="526.5" y="-119.91" font-family="Helvetica,sans-Serif" font-size="10.00">::avl::leftLeftRotation</text>
</a>
</g>
</g>
<!-- Node1&#45;&gt;Node5 -->
<g id="edge6_Node000001_Node000005" class="edge">
<title>Node1&#45;&gt;Node5</title>
<g id="a_edge6_Node000001_Node000005"><a xlink:title=" ">
<path fill="none" stroke="#63b8ff" d="M618.5,-114C607.72,-115.65 596.62,-117.35 586.04,-118.96"/>
<polygon fill="#63b8ff" stroke="#63b8ff" points="619.35,-117.41 628.71,-112.44 618.29,-110.49 619.35,-117.41"/>
</a>
</g>
</g>
<!-- Node8 -->
<g id="Node000008" class="node">
<title>Node8</title>
<g id="a_Node000008"><a xlink:href="../../dc/d33/namespacedate__structure_1_1tree_1_1avl.html#a6d6adcdc410cdc53a832b172cfa6fa57" target="_top" xlink:title="RR rotation. A single right rotation.">
<polygon fill="white" stroke="#666666" points="593,-94.91 460,-94.91 460,-64.91 593,-64.91 593,-94.91"/>
<text text-anchor="start" x="468" y="-82.91" font-family="Helvetica,sans-Serif" font-size="10.00">date_structure::tree</text>
<text text-anchor="middle" x="526.5" y="-71.91" font-family="Helvetica,sans-Serif" font-size="10.00">::avl::rightRightRotation</text>
</a>
</g>
</g>
<!-- Node1&#45;&gt;Node8 -->
<g id="edge15_Node000001_Node000008" class="edge">
<title>Node1&#45;&gt;Node8</title>
<g id="a_edge15_Node000001_Node000008"><a xlink:title=" ">
<path fill="none" stroke="#63b8ff" d="M618.82,-93.87C610.29,-92.57 601.56,-91.23 593.04,-89.93"/>
<polygon fill="#63b8ff" stroke="#63b8ff" points="618.29,-97.33 628.71,-95.38 619.35,-90.41 618.29,-97.33"/>
</a>
</g>
</g>
<!-- Node2&#45;&gt;Node2 -->
<g id="edge2_Node000002_Node000002" class="edge">
<title>Node2&#45;&gt;Node2</title>
<g id="a_edge2_Node000002_Node000002"><a xlink:title=" ">
<path fill="none" stroke="#63b8ff" d="M231.41,-191.51C227.87,-195.88 219.23,-198.91 205.5,-198.91 182.38,-198.91 173.7,-190.32 179.48,-181.19"/>
<polygon fill="#63b8ff" stroke="#63b8ff" points="234.91,-191.22 231.52,-181.19 227.91,-191.15 234.91,-191.22"/>
</a>
</g>
</g>
<!-- Node3&#45;&gt;Node3 -->
<g id="edge5_Node000003_Node000003" class="edge">
<title>Node3&#45;&gt;Node3</title>
<g id="a_edge5_Node000003_Node000003"><a xlink:title=" ">
<path fill="none" stroke="#63b8ff" d="M231.41,-67.51C227.87,-71.88 219.23,-74.91 205.5,-74.91 182.38,-74.91 173.7,-66.32 179.48,-57.19"/>
<polygon fill="#63b8ff" stroke="#63b8ff" points="234.91,-67.22 231.52,-57.19 227.91,-67.15 234.91,-67.22"/>
</a>
</g>
</g>
<!-- Node4 -->
<g id="Node000004" class="node">
<title>Node4</title>
<g id="a_Node000004"><a xlink:href="../../dc/d33/namespacedate__structure_1_1tree_1_1avl.html#a2cb151a6e4051ba0abc00cc1977b539e" target="_top" xlink:title="Delete target node into the AVL tree.">
<polygon fill="white" stroke="#666666" points="113,-56.91 0,-56.91 0,-26.91 113,-26.91 113,-56.91"/>
<text text-anchor="start" x="8" y="-44.91" font-family="Helvetica,sans-Serif" font-size="10.00">date_structure::tree</text>
<text text-anchor="middle" x="56.5" y="-33.91" font-family="Helvetica,sans-Serif" font-size="10.00">::avl::avlTreeDelete</text>
</a>
</g>
</g>
<!-- Node3&#45;&gt;Node4 -->
<g id="edge4_Node000003_Node000004" class="edge">
<title>Node3&#45;&gt;Node4</title>
<g id="a_edge4_Node000003_Node000004"><a xlink:title=" ">
<path fill="none" stroke="#63b8ff" d="M138.92,-41.91C130.32,-41.91 121.57,-41.91 113.15,-41.91"/>
<polygon fill="#63b8ff" stroke="#63b8ff" points="138.93,-45.41 148.93,-41.91 138.93,-38.41 138.93,-45.41"/>
</a>
</g>
</g>
<!-- Node5&#45;&gt;Node2 -->
<g id="edge7_Node000005_Node000002" class="edge">
<title>Node5&#45;&gt;Node2</title>
<g id="a_edge7_Node000005_Node000002"><a xlink:title=" ">
<path fill="none" stroke="#63b8ff" d="M499.47,-149.4C480.02,-163.99 452.05,-182.02 424,-189.91 366.22,-206.16 296.91,-193.21 252.31,-180.91"/>
<polygon fill="#63b8ff" stroke="#63b8ff" points="501.74,-152.07 507.52,-143.19 497.46,-146.52 501.74,-152.07"/>
</a>
</g>
</g>
<!-- Node5&#45;&gt;Node3 -->
<g id="edge8_Node000005_Node000003" class="edge">
<title>Node5&#45;&gt;Node3</title>
<g id="a_edge8_Node000005_Node000003"><a xlink:title=" ">
<path fill="none" stroke="#63b8ff" d="M459.72,-110.18C401.38,-94.45 317.13,-71.74 262.1,-56.9"/>
<polygon fill="#63b8ff" stroke="#63b8ff" points="459,-113.61 469.57,-112.83 460.83,-106.85 459,-113.61"/>
</a>
</g>
</g>
<!-- Node6 -->
<g id="Node000006" class="node">
<title>Node6</title>
<g id="a_Node000006"><a xlink:href="../../dc/d33/namespacedate__structure_1_1tree_1_1avl.html#aa4562bd4af2b00748ca6d045e1c47cb8" target="_top" xlink:title="LR rotation. A double left rotation.">
<polygon fill="white" stroke="#666666" points="424,-56.91 298,-56.91 298,-26.91 424,-26.91 424,-56.91"/>
<text text-anchor="start" x="306" y="-44.91" font-family="Helvetica,sans-Serif" font-size="10.00">date_structure::tree</text>
<text text-anchor="middle" x="361" y="-33.91" font-family="Helvetica,sans-Serif" font-size="10.00">::avl::leftRightRotation</text>
</a>
</g>
</g>
<!-- Node5&#45;&gt;Node6 -->
<g id="edge9_Node000005_Node000006" class="edge">
<title>Node5&#45;&gt;Node6</title>
<g id="a_edge9_Node000005_Node000006"><a xlink:title=" ">
<path fill="none" stroke="#63b8ff" d="M471.08,-109C467.29,-107.37 463.56,-105.67 460,-103.91 432.19,-90.21 402.37,-70.56 383.03,-57.07"/>
<polygon fill="#63b8ff" stroke="#63b8ff" points="469.99,-112.33 480.57,-112.89 472.65,-105.86 469.99,-112.33"/>
</a>
</g>
</g>
<!-- Node7 -->
<g id="Node000007" class="node">
<title>Node7</title>
<g id="a_Node000007"><a xlink:href="../../dc/d33/namespacedate__structure_1_1tree_1_1avl.html#a1c5c0aae77523b6d4bfe36b76fb96171" target="_top" xlink:title="RL rotation. A double right rotation.">
<polygon fill="white" stroke="#666666" points="423.5,-180.91 298.5,-180.91 298.5,-150.91 423.5,-150.91 423.5,-180.91"/>
<text text-anchor="start" x="306.5" y="-168.91" font-family="Helvetica,sans-Serif" font-size="10.00">date_structure::tree</text>
<text text-anchor="middle" x="361" y="-157.91" font-family="Helvetica,sans-Serif" font-size="10.00">::avl::rightLeftRotation</text>
</a>
</g>
</g>
<!-- Node5&#45;&gt;Node7 -->
<g id="edge12_Node000005_Node000007" class="edge">
<title>Node5&#45;&gt;Node7</title>
<g id="a_edge12_Node000005_Node000007"><a xlink:title=" ">
<path fill="none" stroke="#63b8ff" d="M456.94,-143.85C445.93,-146.41 434.59,-149.04 423.75,-151.56"/>
<polygon fill="#63b8ff" stroke="#63b8ff" points="457.99,-147.2 466.93,-141.52 456.4,-140.38 457.99,-147.2"/>
</a>
</g>
</g>
<!-- Node6&#45;&gt;Node2 -->
<g id="edge10_Node000006_Node000002" class="edge">
<title>Node6&#45;&gt;Node2</title>
<g id="a_edge10_Node000006_Node000002"><a xlink:title=" ">
<path fill="none" stroke="#63b8ff" d="M313.13,-61.54C307.86,-64.41 302.71,-67.55 298,-70.91 265.22,-94.36 234.26,-130.47 218.12,-150.75"/>
<polygon fill="#63b8ff" stroke="#63b8ff" points="314.74,-64.65 322.04,-56.97 311.55,-58.42 314.74,-64.65"/>
</a>
</g>
</g>
<!-- Node6&#45;&gt;Node3 -->
<g id="edge11_Node000006_Node000003" class="edge">
<title>Node6&#45;&gt;Node3</title>
<g id="a_edge11_Node000006_Node000003"><a xlink:title=" ">
<path fill="none" stroke="#63b8ff" d="M287.4,-41.91C279.02,-41.91 270.57,-41.91 262.46,-41.91"/>
<polygon fill="#63b8ff" stroke="#63b8ff" points="287.57,-45.41 297.57,-41.91 287.57,-38.41 287.57,-45.41"/>
</a>
</g>
</g>
<!-- Node7&#45;&gt;Node2 -->
<g id="edge13_Node000007_Node000002" class="edge">
<title>Node7&#45;&gt;Node2</title>
<g id="a_edge13_Node000007_Node000002"><a xlink:title=" ">
<path fill="none" stroke="#63b8ff" d="M288.22,-165.91C279.45,-165.91 270.59,-165.91 262.11,-165.91"/>
<polygon fill="#63b8ff" stroke="#63b8ff" points="288.45,-169.41 298.45,-165.91 288.45,-162.41 288.45,-169.41"/>
</a>
</g>
</g>
<!-- Node7&#45;&gt;Node3 -->
<g id="edge14_Node000007_Node000003" class="edge">
<title>Node7&#45;&gt;Node3</title>
<g id="a_edge14_Node000007_Node000003"><a xlink:title=" ">
<path fill="none" stroke="#63b8ff" d="M313.13,-146.28C307.86,-143.41 302.71,-140.28 298,-136.91 265.22,-113.47 234.26,-77.36 218.12,-57.08"/>
<polygon fill="#63b8ff" stroke="#63b8ff" points="311.55,-149.4 322.04,-150.85 314.74,-143.17 311.55,-149.4"/>
</a>
</g>
</g>
<!-- Node8&#45;&gt;Node2 -->
<g id="edge16_Node000008_Node000002" class="edge">
<title>Node8&#45;&gt;Node2</title>
<g id="a_edge16_Node000008_Node000002"><a xlink:title=" ">
<path fill="none" stroke="#63b8ff" d="M459.72,-97.65C401.38,-113.37 317.13,-136.09 262.1,-150.92"/>
<polygon fill="#63b8ff" stroke="#63b8ff" points="460.83,-100.97 469.57,-94.99 459,-94.21 460.83,-100.97"/>
</a>
</g>
</g>
<!-- Node8&#45;&gt;Node3 -->
<g id="edge17_Node000008_Node000003" class="edge">
<title>Node8&#45;&gt;Node3</title>
<g id="a_edge17_Node000008_Node000003"><a xlink:title=" ">
<path fill="none" stroke="#63b8ff" d="M499.47,-58.43C480.02,-43.83 452.05,-25.8 424,-17.91 366.22,-1.66 296.91,-14.61 252.31,-26.91"/>
<polygon fill="#63b8ff" stroke="#63b8ff" points="497.46,-61.3 507.52,-64.64 501.74,-55.76 497.46,-61.3"/>
</a>
</g>
</g>
<!-- Node8&#45;&gt;Node6 -->
<g id="edge18_Node000008_Node000006" class="edge">
<title>Node8&#45;&gt;Node6</title>
<g id="a_edge18_Node000008_Node000006"><a xlink:title=" ">
<path fill="none" stroke="#63b8ff" d="M451.12,-62.62C442.05,-60.52 432.87,-58.38 424.02,-56.33"/>
<polygon fill="#63b8ff" stroke="#63b8ff" points="450.35,-66.04 460.88,-64.89 451.93,-59.22 450.35,-66.04"/>
</a>
</g>
</g>
<!-- Node8&#45;&gt;Node7 -->
<g id="edge19_Node000008_Node000007" class="edge">
<title>Node8&#45;&gt;Node7</title>
<g id="a_edge19_Node000008_Node000007"><a xlink:title=" ">
<path fill="none" stroke="#63b8ff" d="M471.08,-98.83C467.29,-100.46 463.56,-102.16 460,-103.91 432.19,-117.61 402.37,-137.26 383.03,-150.75"/>
<polygon fill="#63b8ff" stroke="#63b8ff" points="472.65,-101.97 480.57,-94.93 469.99,-95.49 472.65,-101.97"/>
</a>
</g>
</g>
</g>
</svg>
